<?xml version="1.0" encoding="UTF-8" standalone="no"?>
<!-- Created with Inkscape (http://www.inkscape.org/) -->

<svg
   xmlns:dc="http://purl.org/dc/elements/1.1/"
   xmlns:cc="http://creativecommons.org/ns#"
   xmlns:rdf="http://www.w3.org/1999/02/22-rdf-syntax-ns#"
   xmlns:svg="http://www.w3.org/2000/svg"
   xmlns="http://www.w3.org/2000/svg"
   xmlns:sodipodi="http://sodipodi.sourceforge.net/DTD/sodipodi-0.dtd"
   xmlns:inkscape="http://www.inkscape.org/namespaces/inkscape"
   width="700mm"
   height="700mm"
   viewBox="0 0 700 700"
   version="1.1"
   id="svg8"
   inkscape:version="0.92.1 r15371"
   sodipodi:docname="both_swings.svg">
  <defs
     id="defs2" />
  <sodipodi:namedview
     id="base"
     pagecolor="#ffffff"
     bordercolor="#666666"
     borderopacity="1.0"
     inkscape:pageopacity="0.0"
     inkscape:pageshadow="2"
     inkscape:zoom="0.175"
     inkscape:cx="-456.01471"
     inkscape:cy="2046.0871"
     inkscape:document-units="mm"
     inkscape:current-layer="layer1"
     showgrid="false"
     inkscape:window-width="2560"
     inkscape:window-height="1365"
     inkscape:window-x="-9"
     inkscape:window-y="-9"
     inkscape:window-maximized="1" />
  <metadata
     id="metadata5">
    <rdf:RDF>
      <cc:Work
         rdf:about="">
        <dc:format>image/svg+xml</dc:format>
        <dc:type
           rdf:resource="http://purl.org/dc/dcmitype/StillImage" />
        <dc:title></dc:title>
      </cc:Work>
    </rdf:RDF>
  </metadata>
  <g
     inkscape:label="Layer 1"
     inkscape:groupmode="layer"
     id="layer1"
     transform="translate(268.98777,367.91088)">
    <path
       style="fill:#000000;stroke-width:0.26458335"
       d="m 360.4249,197.5296 c -0.35519,-3.46965 9.54041,-10.30453 1.31815,-7.02917 -5.88627,0.71569 -14.44658,4.68797 -17.7807,5.83275 7.36483,-4.17845 -3.99511,-7.86285 -8.05232,-4.049 -6.76915,0.16026 -13.35329,4.89268 -19.89929,3.2684 3.26682,-0.78642 6.62674,-4.24965 1.08528,-2.79262 -3.66201,1.65018 -9.39582,2.99241 -7.85949,-2.51674 -6.0461,-4.80573 -13.74726,2.90017 -20.60984,2.80218 -5.18437,1.96868 -8.06624,-3.38569 -9.93732,-5.54149 -6.30335,1.37076 -12.17053,-1.59003 -9.21581,-7.95399 -3.45908,-0.29919 -7.59941,3.09207 -8.10683,-0.29152 -6.66151,-1.80481 -17.91703,2.06403 -21.58493,-4.07484 -0.59052,-3.62605 9.06345,-11.67491 1.35598,-7.93857 -5.60511,1.0873 -12.19354,3.24058 -17.322,2.95825 6.69624,-4.24089 15.22087,-4.26817 21.98456,-8.3597 1.88997,-0.31019 -8.38028,0.70138 -3.49364,-3.50619 5.54012,-4.77721 12.62999,-7.02434 18.74252,-10.89345 -6.98251,0.73761 6.06238,-5.21509 8.3942,-4.50084 1.48686,-3.13341 9.93038,-2.38719 3.97137,-0.5313 -5.6831,1.65378 -17.4689,8.66695 -18.72075,9.55758 4.99229,-3.87891 13.02277,-3.89753 14.61539,0.19265 5.77345,-1.56846 10.73483,-6.29285 16.97456,-5.87588 -2.35778,2.25039 -5.13213,6.12223 -0.64424,2.18192 2.5861,-2.34454 0.85822,3.68281 4.11015,-0.0712 2.52052,-2.0516 13.60656,-5.56796 8.34354,0.89486 -4.30438,3.10377 -1.63052,3.78474 1.16866,0.76772 4.83762,-3.6924 4.31677,0.86658 0.13078,2.32384 -2.81739,3.43354 13.74841,-5.68392 9.35194,2.88952 7.08213,-1.2719 18.5316,-7.29508 22.87985,-5.58479 -5.83535,5.79235 -14.99134,5.30642 -22.46074,7.48975 -3.59242,-0.17941 -8.64138,3.05686 -1.80369,1.42553 7.60968,-1.31641 15.94721,0.69907 22.59633,-4.09316 3.73153,-1.39926 11.73577,-5.96714 13.97077,-3.34671 -1.78784,2.76111 -12.86742,9.81677 -3.98891,8.6737 4.1601,-0.60121 11.1411,-9.55214 12.87551,-6.82359 -3.49242,0.93216 -7.10028,8.17969 -5.72267,8.78283 1.7981,-0.22878 10.15018,-6.39254 6.36114,-1.85079 4.39928,-1.61706 13.55778,-3.0141 14.77027,-5.12974 -4.15867,3.2737 -12.7007,-0.96711 -8.2445,-1.87275 0.18615,5.55362 13.55558,-3.32095 12.36805,1.4901 -3.3968,1.71446 -6.95095,2.59153 -1.00698,2.58431 -0.79044,2.05711 -9.9771,6.57473 -3.48152,7.83071 4.89457,-2.25727 15.83919,-1.26524 6.97783,3.97384 -2.15142,2.30737 -9.69726,6.65419 -8.61756,7.26332 5.33825,-0.71655 13.15402,-7.17463 16.94174,-4.04813 -2.36309,6.62656 -11.28096,9.32812 -10.67504,17.25387 -3.0525,3.54242 -8.15425,6.4801 -12.0598,8.23853 z m 5.39935,-3.7797 c 2.91676,-0.48144 9.84934,-9.56183 2.8799,-5.67358 -1.76591,0.76575 -10.42427,10.92853 -2.8799,5.67358 z m -44.18542,0.95086 c -0.79327,-2.34111 -3.70754,1.98828 0,0 z m 8.10176,-1.88013 c 8.60545,-2.17722 -4.91958,-1.12159 -2.98677,0.67239 1.00112,-0.19912 1.99375,-0.43712 2.98677,-0.67239 z m -15.44053,-0.097 c 3.14918,-2.73963 -6.16162,1.58966 -1.31611,0.35395 z m -23.821,-0.9725 c 5.16276,-2.49244 13.20372,-0.79223 16.42849,-6.21393 -7.75202,4.39369 -17.10019,-1.12129 -25.01017,2.78997 -1.75732,3.44465 6.70001,5.14624 8.58168,3.42396 z m 35.42599,0.16867 c 2.43526,-0.62959 12.17231,-4.96113 4.32006,-2.88862 -0.80684,0.34816 -9.80119,4.00713 -4.32006,2.88862 z m 27.68222,-1.37401 c 8.75564,-4.42744 -13.62124,0.40553 -3.80918,1.47421 1.33254,-0.31436 2.57089,-0.90976 3.80918,-1.47421 z m 3.37344,0.57235 c 3.55243,-0.28927 13.16964,-4.5513 4.24297,-2.16679 -2.20935,0.40448 -11.18821,3.75927 -4.24297,2.16679 z m -15.2349,-0.78682 c 7.79765,0.48233 5.28309,-7.22287 -0.90213,-2.50926 -3.60119,1.19196 -5.54546,5.38934 -0.0372,2.69736 0.31311,-0.0627 0.62621,-0.1254 0.93932,-0.1881 z m -28.28906,0.21842 c -2.90727,-6.03236 -5.23369,1.98548 0,0 z m 6.74687,-0.65551 c -3.04206,-0.50428 -2.432,1.15652 0,0 z m -3.12311,-0.37931 c 2.75101,-3.30108 -8.9052,-2.32917 -1.83405,0.4144 l 0.61561,-0.0888 z m 6.5627,-0.37041 c -1.02026,-0.96719 -2.52775,1.04671 0,0 z m 10.18024,-1.59065 c 5.71117,-0.60549 12.96139,-5.3959 17.00829,-5.82371 -4.65594,-1.41141 -8.99715,-9.79662 -12.3257,-2.27901 -0.91878,5.85017 -2.76198,8.29946 -7.55884,4.38938 -1.60535,2.46561 -4.5818,6.71782 0.78302,4.11246 l 1.17648,-0.30646 z m 18.52705,0.66461 c 5.43247,1.28163 9.03334,-5.3293 1.83099,-5.48791 -4.65038,-1.03751 -8.69052,3.71225 -4.78328,6.10314 l 1.5254,-0.3454 z m 9.64171,-0.0914 c 6.1627,-3.25926 -5.78626,1.05762 10e-6,0 z m -40.06879,0.0914 c 9.79799,-0.0798 -7.83918,-6.52296 -4.67655,-0.51377 1.51844,0.47822 3.08201,1.40748 4.67655,0.51377 z m 40.72757,-2.10752 c 3.80203,-2.2986 13.44262,-7.10097 12.0725,-9.87311 -4.51518,1.55921 -14.08292,7.98639 -13.20356,10.43459 0.37702,-0.18716 0.75404,-0.37432 1.13106,-0.56148 z m -33.90447,-1.59403 c -7.84398,-4.36889 -2.89452,6.29512 0,0 z m -48.44172,0.76327 c -0.21052,-3.99814 -11.63992,3.40351 -5.32445,-1.23055 5.0372,-2.17162 3.40614,-0.91235 -0.13577,-1.65561 8.2585,-6.49751 -10.6683,-1.64229 -2.88319,3.48534 1.55686,1.66493 9.00763,2.332 8.34341,-0.59918 z m 8.00701,1.2102 c 5.41775,-0.15813 -0.45767,-7.40099 -3.95061,-3.6165 -7.43935,1.52834 0.32201,5.54663 3.95061,3.6165 z m 24.31812,0.1075 c 1.38427,-4.38163 -7.20756,0.5343 0,0 z m -9.79599,-0.65426 c -0.38827,-2.04083 -7.93861,1.33382 -1.2525,0.20723 0.4175,-0.0691 0.835,-0.13815 1.2525,-0.20723 z m 65.85665,-0.51062 c 2.68171,-0.28723 10.20543,-7.56094 7.48761,-6.58247 -0.24967,-0.23778 -14.10454,8.69014 -7.48761,6.58247 z m -50.40615,-0.47868 c 6.91043,-1.5063 -9.59192,-6.31635 -5.85102,-0.0439 1.76385,0.78144 4.14264,1.14971 5.85102,0.0439 z m -16.6107,-0.19093 c 3.69498,0.9805 6.73729,-4.5075 1.51997,-1.56751 -2.31501,0.28948 -9.52134,2.87047 -2.99578,1.80578 z m 35.58514,-4.31974 c 4.31745,-3.93361 -3.84643,-8.09442 -3.02796,-1.72259 -2.42168,5.3151 1.78703,9.02486 3.02796,1.72259 z m 26.40266,2.01316 c 2.11085,-1.63683 10.23524,-6.9901 2.63586,-4.56871 -3.8104,-2.48482 -9.63115,11.9153 -2.63586,4.56871 z m -67.40271,2.03208 c 2.02626,-1.40961 -4.62213,1.68447 0,0 z m 49.49024,0.0185 c 2.54195,-1.86935 -4.15679,1.84137 0,0 z m -36.57857,-0.17833 c 0.40012,-4.33478 -4.47336,1.4643 0,0 z m -13.32468,-1.29611 c -1.23585,-0.49361 -0.8694,1.93449 0,0 z m 31.08095,0.28318 c 8.46506,1.85477 0.49573,-9.91056 -4.27802,-4.7798 -3.84697,1.08458 -9.3519,3.22584 -2.34866,4.43804 2.18884,0.63555 4.39487,0.77948 6.62668,0.34176 z m 32.03831,-0.12478 c -1.41462,-2.45879 -1.42229,1.78506 0,0 z m -64.59683,-0.55758 c 5.77622,-5.03755 -4.80131,-0.95643 -0.95988,0.70964 0.31996,-0.23654 0.63992,-0.47309 0.95988,-0.70964 z m 16.4089,-0.0341 c -1.65533,-2.92054 -2.92052,1.22292 0,0 z m -11.06061,-0.22125 c 6.66575,-0.11819 3.0787,-4.53094 -1.24213,-2.3341 -2.15961,1.27262 -1.58818,4.13989 1.24213,2.3341 z m -11.70781,-1.04936 c 3.98655,-2.1169 -5.38652,1.37682 0,0 z m -2.8624,-0.38664 c 0.56689,-1.10843 -2.03517,1.4062 0,0 z m 48.15999,-0.97784 c 2.56738,-5.437 -9.24019,-2.62471 -1.69952,0.5487 0.37594,1.05065 1.99715,0.95585 1.69952,-0.5487 z m 20.99321,1.03505 c -0.0437,-5.27095 -4.06458,0.40634 0,0 z m 4.39692,0.009 c -1.91347,-2.17269 -3.53059,1.95693 0,0 z m -76.3656,-0.84568 c 2.55758,-2.59928 -4.84966,1.93524 0,0 z m 74.37818,-0.0669 c 3.78678,-4.42783 -7.58849,-3.52236 -1.32963,0.58188 0.44321,-0.19396 0.88642,-0.38792 1.32963,-0.58188 z m 4.69758,-0.5973 c 0.82927,-3.63959 -3.63289,3.54631 0,0 z m -68.72915,0.27106 c 0.19209,-1.83839 -3.61726,1.99125 0,0 z m 24.24268,0.13772 c 7.18045,-1.67406 -3.67456,-0.55721 -1.39387,0.33974 0.46462,-0.11325 0.92925,-0.22649 1.39387,-0.33974 z m 34.37203,-1.08172 c -2.82681,-2.86041 -2.34106,3.08045 0,0 z m -42.91024,0.19843 c -3.96612,-1.9218 -6.45907,1.06382 -0.78461,0.58793 l 0.59173,-0.081 z m -38.91216,-0.38081 c -1.86698,-0.65416 -0.56107,0.51908 0,0 z m 43.75806,-0.8455 c 6.43096,-3.65809 -7.0416,2.49484 0,0 z m 7.07589,0.10086 c 3.94044,0.19029 7.52573,-3.22736 1.51129,-1.22935 -3.39016,0.76685 -8.06776,2.88474 -1.88736,1.30644 l 0.37606,-0.0771 z m -37.56631,0.44439 c 7.0742,-5.68591 -16.3068,-1.17649 -5.77442,0.1154 1.92493,0.12575 3.85197,-0.0201 5.77442,-0.1154 z m 12.65602,0.0582 c -0.87387,-0.42341 -0.4775,0.53498 0,0 z m -35.91168,-0.43796 c -5.23138,-1.57495 -14.25589,-6.30624 -17.80602,-2.54269 4.19285,4.63675 12.27204,1.92981 17.80602,2.54269 z m 30.29479,-0.0541 c 1.17175,-1.323 -4.27925,1.45697 0,0 z m 71.60332,-0.4291 c 5.84893,-6.95511 -9.83111,1.3374 0,0 z m -89.52884,0.36946 c -1.86698,-0.65416 -0.56107,0.51908 0,0 z m 47.80899,-1.17324 c 5.13247,0.59208 4.37634,-4.98174 0.16968,-1.54648 -3.37753,1.61684 -6.49494,3.7624 -1.07988,1.8188 0.3034,-0.0908 0.6068,-0.18155 0.9102,-0.27232 z m -32.64882,0.60473 c 1.43064,-2.26424 -1.67904,-0.10918 -0.74885,0.40578 z m 20.97315,-0.65013 c 1.67648,-3.75036 -8.29765,3.07879 -5.3009,0.90466 1.51007,0.0855 4.83363,1.30476 5.3009,-0.90466 z m 41.85262,0.78483 c 5.19208,-3.95728 -4.99482,-0.12383 -1.14258,0.20924 z m -81.94548,-0.61227 c 4.72962,-0.71941 13.68453,-6.05813 4.4878,-8.26726 -3.98223,-0.92756 -6.44295,5.483 -1.15009,2.05206 5.56025,0.6669 -15.39772,7.05276 -4.67004,6.42297 z m 21.2236,0.17012 c -0.94156,-1.0526 -1.06722,1.20932 0,0 z m 11.13359,-0.15769 c 0.14792,-1.50736 -2.2465,1.89272 0,0 z m 10.20715,-1.31445 c 1.31001,-5.03181 -2.71976,4.4082 0,0 z m -46.34386,-0.51998 c 3.12004,-1.33637 1.9385,-6.8411 5.82916,-7.07935 -5.31765,1.62132 0.2464,-4.14105 -4.29835,-0.28305 -1.23552,1.19544 -6.16893,11.5086 -1.53081,7.3624 z m 51.72493,0.48754 c 7.26035,-4.59451 -10.47602,2.68771 0,0 z m -53.68785,-3.31652 c 1.08394,-5.62702 -7.53982,-0.86793 -3.18213,3.02992 1.29324,3.58586 2.05266,-2.53354 3.18213,-3.02992 z m 86.57209,3.3482 c 5.9301,-5.33992 -10.9872,-3.05947 -2.11194,0.943 0.8321,-0.0536 1.28241,-0.89197 2.11194,-0.943 z m 5.77892,0.54244 c 5.22396,-3.45877 -6.50815,-1.01652 -0.2982,0.073 z m 17.2451,-0.0254 c 2.00176,-2.16239 13.92303,-1.09886 8.18046,-3.7625 -2.22635,0.10161 -14.56605,4.50133 -8.34634,3.79322 z m -114.1044,-0.96229 c 2.6618,-7.93836 -15.46754,-1.49817 -5.30714,-0.097 1.05856,0.23165 6.06665,2.84577 5.30714,0.097 z m 20.22954,0.4485 c 4.81964,1.08113 5.44017,-3.12732 0.45208,-2.53045 -4.47342,0.56747 -6.18023,5.34775 -0.45208,2.53045 z m 16.5417,0.38555 c 2.23756,-2.59777 -8.56427,0.44802 0,0 z m 37.28336,-0.14766 c -1.95817,-1.17809 -2.65237,1.6087 0,0 z m 46.8489,-0.12237 c -0.99401,-0.51044 -0.24728,1.30625 0,0 z M 329.574,175.08622 c 5.02346,-3.32504 -6.51999,2.00828 -0.1129,0.0492 z m -25.2545,0.28242 c -0.69297,-1.60097 -3.76916,1.89718 0,0 z m 37.69225,-0.19643 c -1.1555,-4.29667 -3.17449,2.40561 0,0 z m -54.62215,-0.29932 c -1.69352,-3.31529 -11.08738,-4.37824 -3.75193,-1.12441 0.71152,0.0422 3.85798,2.43153 3.75193,1.12441 z m 77.44246,-0.40836 c 1.99647,-3.11306 -3.08984,2.24535 0,0 z m -62.16322,-0.0275 c 2.7037,-4.88677 -5.81183,-7.22364 -7.91538,-2.71882 -6.24768,3.67087 6.2886,3.1196 7.91538,2.71882 z m 36.43249,0.15541 c -0.63852,-1.03904 -0.63849,1.03905 0,0 z m 23.37446,-1.04362 c 3.00784,-8.05663 -7.62964,1.698 -1.24062,0.49661 0.43821,-0.10326 0.83545,-0.30845 1.24062,-0.49661 z m -33.50464,0.20788 c 7.16167,-2.89174 -10.06747,-1.13057 -2.12436,0.68088 l 1.08296,-0.4054 z m 5.49997,0.57116 c 0.81806,-1.35988 -3.5454,1.40908 0,0 z m 23.88093,-1.50693 c 1.39849,-4.59405 -4.74239,3.92046 -0.004,0.007 z m -19.22365,0.69868 c 2.535,-4.81827 -7.48714,2.26951 -0.39779,0.14559 l 0.38673,-0.14154 z m -44.92556,-1.93574 c 3.16996,-0.74173 7.713,-5.64501 1.43515,-4.08646 -2.75918,-1.93612 -12.23134,1.92671 -10.50016,4.09498 2.54126,1.18384 7.08233,2.90648 9.06501,-0.009 z m 15.3322,0.20828 c -0.59839,-4.21125 -11.72568,-5.5564 -5.30016,0.62462 1.3004,2.20087 3.65654,-0.40749 5.30016,-0.62462 z m 11.83921,1.50569 c -1.44522,-1.80118 -1.57591,0.73434 0,0 z m 32.24466,-0.26099 c 2.1533,-3.54817 -6.2036,-0.39346 0,0 z m 12.81748,-0.42103 c 4.20541,-1.11752 15.95899,-9.22184 5.59978,-7.92987 -5.1999,-2.08568 -13.10933,6.05202 -6.90675,8.31877 l 0.6686,-0.28653 z m -51.26427,-0.5285 c -0.45492,-1.78075 -3.29643,1.82921 0,0 z m 10.13863,-0.55753 c 3.60905,-6.21515 -15.09538,-0.0197 -4.54716,0.43468 1.47835,0.0229 3.23536,0.45305 4.54716,-0.43468 z m 20.7532,0.26339 c 8.43258,-3.93607 -9.31834,-2.30557 -1.48552,0.36615 z m -101.41887,0.0652 c -0.59691,-1.83069 -1.58235,1.59731 0,0 z m 89.95834,-0.97869 c 3.30738,-4.01431 -8.37237,2.24446 -0.78951,0.6601 0.26312,-0.22006 0.52655,-0.43997 0.78951,-0.6601 z m -86.19337,0.61214 c 4.09186,-0.22334 12.3449,-4.36551 6.23935,-7.99954 -2.82834,-0.53186 -13.59199,9.01831 -6.23935,7.99954 z m 88.36271,-0.17428 c 4.6653,-2.43581 -4.95974,0.62903 -0.39174,0.11591 z m 20.83401,-0.42471 c 7.31981,-3.39864 -7.19814,-0.13238 -0.95114,0.54068 0.31704,-0.18023 0.63409,-0.36045 0.95114,-0.54068 z m -114.24582,-0.46762 c 3.80356,-3.92738 -1.58102,-0.83085 0,5e-5 z m 11.27215,0.16073 c 5.14117,-2.11122 -7.44509,1.92051 0,0 z m 25.31454,0.16431 c -0.31252,-4.66178 -11.09546,-3.65324 -3.13544,-0.74037 0.84266,0.5519 2.13577,1.64784 3.13544,0.74037 z m 69.6013,-1.45616 c -1.7469,-2.52077 1.41426,3.88699 0,0 z m 1.99106,0.48524 c -2.38695,-1.02519 1.38913,1.75524 0,0 z m -38.27899,-1.69129 c 4.2144,-7.58594 -15.38523,-0.61902 -4.56297,1.11862 1.50571,1.26947 3.91452,0.88447 4.56297,-1.11862 z m 18.18392,0.97372 c 4.17901,-1.82324 15.93466,-5.33848 12.71561,-9.59379 -4.462,1.37666 -13.97864,7.80631 -13.20271,9.75945 l 0.38988,-0.1326 z m 26.95522,-0.43927 c 6.34207,-1.44497 1.50651,-2.89082 -1.74977,-0.88216 -6.29713,-0.82926 1.39288,-4.86908 2.54847,-5.42486 -4.00205,-0.65787 -15.85361,0.15398 -8.2096,5.75196 2.04801,1.76336 5.13766,2.03691 7.4109,0.55506 z M 283.179,168.41211 c 4.84435,-2.36026 6.07945,-6.82542 -0.47869,-4.09118 -7.65337,-0.54771 -3.81311,7.60798 0.47869,4.09118 z m 37.20306,0.28408 c 3.86434,-2.51018 -5.73379,2.01474 -0.0563,0.0215 z m 10.20797,-1.31368 c 2.07631,-1.46148 8.57688,-6.44021 2.22745,-3.19911 -3.47372,0.01 -11.05495,6.17007 -3.48377,4.22334 0.42542,-0.33314 0.83653,-0.6841 1.25632,-1.02423 z m -15.02714,0.82894 c 4.04508,-3.83715 -4.89065,1.8438 0,0 z m 27.05851,0.007 c 5.07059,-0.73144 3.85254,-5.80038 -0.2596,-1.92366 -1.03726,0.69459 -2.37278,3.11762 0.2596,1.92366 z m -110.41174,-0.009 c 3.82904,-0.46071 8.94363,-4.01743 2.16913,-1.56422 -1.99577,0.44123 -7.37047,3.0044 -2.16913,1.56422 z m 105.58429,0.29692 c 3.26312,-4.43779 -6.38614,1.90008 0,0 z m -77.91025,-0.5515 c 4.98255,1.13846 8.76104,-4.98885 2.1142,-5.22248 -3.80405,-1.77358 -6.48022,6.41481 -2.1142,5.22248 z m 27.17607,-0.76364 c 3.05029,-0.95404 10.83089,-6.20994 2.92684,-3.55658 -0.73297,0.26249 -7.17096,5.64249 -2.92684,3.55658 z m 2.98114,-0.0998 c 3.72696,0.77112 6.20809,-4.69359 1.40944,-1.48114 -1.91574,0.7212 -4.57364,2.88043 -1.40944,1.48114 z m 29.49441,0.21746 c 2.80795,-2.03193 -4.08768,1.39207 0,0 z m -17.54715,-0.30787 c -1.22697,-2.31108 -1.14069,1.53304 0,0 z m -28.73745,-0.27659 c 3.86627,-3.07119 -5.60778,1.54571 0,0 z m 56.12834,-1.77028 c 3.38225,-0.92901 10.01724,-5.20599 2.95125,-1.88956 -2.94419,0.80761 -12.5945,5.8425 -4.17722,2.42072 z m -80.78074,1.26281 c 1.5734,-2.99214 -2.65515,2.70654 0,0 z m 94.73161,-1.33184 c -1.94866,-0.49493 -4.18616,3.15451 0,0 z m -44.70985,1.10766 c -3.30136,-0.95108 -2.2932,1.44276 0,0 z m 5.68854,0.13229 c 0.8769,-1.1198 -2.65013,1.02954 0,0 z m 56.75313,-0.30679 c 5.56842,0.69117 3.59057,-7.10726 -0.69789,-2.84859 -6.4966,2.57138 -5.47059,4.10858 0.69789,2.84859 z m -117.80084,-0.61833 c 8.28748,-2.80418 -6.60673,0.76828 -1.54592,0.49195 z m 28.4793,-0.12147 c 4.97154,-4.66464 -8.46547,1.93631 0,0 z m 53.75373,-1.02616 c 3.37603,-1.18136 11.14389,-7.60932 3.32714,-2.94462 -2.38304,1.08146 -10.39904,6.58539 -3.32714,2.94462 z m -46.34926,0.72583 c 5.46177,-2.19254 -5.50378,1.23075 0,0 z m 18.67943,0.29623 c 0.36884,-2.3183 -2.38672,1.71966 0,0 z m 8.48169,-0.43016 c 7.62182,-2.15595 -8.15527,1.12904 -1.92952,0.3223 l 0.87108,-0.14211 z m 21.87618,-0.55586 c 3.5249,-0.79014 8.7955,-6.58377 2.28652,-2.23446 -2.07932,1.06945 -7.87107,4.92189 -2.28652,2.23446 z m -5.00446,-0.3732 c 5.62016,-3.99434 -7.24136,3.42494 -4e-4,2.3e-4 z m -7.35952,0.42622 c -2.76065,-1.98546 -1.89372,1.83344 0,0 z m -47.60762,-0.1416 c 0.66445,-2.3496 -3.52152,0.95376 0,0 z m 37.19153,-0.30292 c 8.81535,-2.76617 -10.94924,0.13594 -1.3243,0.22396 0.44143,-0.0747 0.88287,-0.14931 1.3243,-0.22396 z m -50.57037,-0.8953 c 7.25645,-2.9787 -5.97313,-1.82893 -2.462,0.60866 0.81826,-0.21255 1.64072,-0.40827 2.462,-0.60866 z m -7.40834,0.009 c 6.40188,-1.99771 -1.90335,-2.31821 -1.44407,0.33555 0.49915,-0.0253 0.96374,-0.21853 1.44407,-0.33555 z m 54.60686,-0.53605 c -2.7656,-1.00643 -3.99982,1.59657 0,0 z m 16.83065,0.4114 c -0.18285,-1.10557 -1.63338,1.44022 0,0 z m -6.52709,-0.2313 c -2.42534,-1.6493 -4.60029,0.66215 0,0 z m 11.50123,-0.60325 c 5.81844,-2.31448 -1.94412,-0.34269 -2.23922,0.55759 l 0.84119,-0.18825 z m -53.82446,0.2149 c 1.58302,-4.59391 -9.30157,1.67526 -1.37257,0.23409 0.52208,0.12048 0.94144,0.11539 1.37257,-0.23409 z m 2.94511,0.12718 c -1.61345,-0.5527 -1.63218,0.85659 0,0 z m 4.36094,-0.71553 c 0.48238,-4.01393 -6.22741,4.25553 0,0 z m 4.00698,0.27892 c 3.61525,-0.6203 13.58566,-7.23103 4.6668,-3.10244 -1.03667,0.47752 -9.71273,4.76131 -4.6668,3.10244 z m 6.85925,0.11507 c 8.1644,-3.91361 -11.46921,1.2703 -1.33515,0.27521 0.4513,-0.0605 0.89099,-0.17885 1.33515,-0.27521 z m 70.49783,-0.53954 c 3.21873,1.07323 14.91107,-4.78 6.03971,-3.24866 -5.17902,1.08894 -10.83926,3.2231 -15.26653,4.10027 3.07916,0.38169 6.15072,-0.6914 9.22682,-0.85161 z m -63.96302,0.41637 c 5.79103,-2.65107 -9.20198,1.13204 0,0 z m 24.21763,0.004 c 5.68563,-2.91709 -2.92376,-1.02333 -2.14185,0.37562 l 0.81585,-0.0999 z m -33.91141,-3.49078 c -3.9353,-0.92885 -8.29468,5.07252 -2.28728,1.34014 0.78345,-0.40837 1.57269,-0.81582 2.28728,-1.34014 z m 32.61334,2.11238 c 5.39429,-3.38569 -13.09473,1.40441 -3.17347,1.21359 1.10281,-0.27756 2.13183,-0.77026 3.17347,-1.21359 z m -54.47875,0.49688 c 0.62294,-5.71949 -8.59303,-4.36518 -4.12715,-0.20493 1.28415,0.5873 2.79141,0.65999 4.12715,0.20493 z m -8.76498,-0.86635 c 4.92678,-6.08679 -7.28371,3.16832 0,0 z m 56.00073,0.0177 c 2.37515,-0.28702 9.01225,-2.09686 2.88968,-1.40328 -2.99347,0.51455 -12.23931,0.9572 -10.96664,2.42543 2.71819,-0.0712 5.4185,-0.46628 8.07696,-1.02215 z m -63.18279,-0.10798 c 4.20127,1.51645 13.9478,-8.16514 5.35192,-5.75805 -3.29821,-0.0231 -16.23135,7.95346 -5.35192,5.75805 z m 21.71488,-0.0453 c 4.21518,-0.3902 13.85025,-10.99698 4.83013,-5.52979 -3.65826,3.64457 -10.68397,2.35252 -11.05337,1.66581 -1.16251,4.5932 3.05477,5.13848 6.22324,3.86398 z m 25.89059,0.15682 c 3.63091,-4.08906 2.21265,-6.07001 -2.43728,-3.34106 -3.72956,1.48862 0.12444,4.40111 2.43728,3.34106 z m 30.65857,-1.36035 c -4.30432,-1.12727 -3.97304,4.26606 0,0 z m 1.20875,0.93908 c 4.32357,-0.0597 5.42344,-2.44689 0.45379,-0.92245 -0.4809,-0.31041 -3.85043,2.73658 -0.45379,0.92245 z m -24.17519,-1.71339 c 5.45621,1.33641 7.12361,-9.26728 1.18405,-3.66378 -3.58166,1.33472 -7.95981,6.02555 -1.18404,3.66378 z m 34.7404,-1.4052 c 2.80667,-1.15907 8.29408,-7.91352 1.67234,-3.85689 -1.87695,1.23622 -6.54538,7.53286 -1.67234,3.85689 z m -6.61458,-0.53652 c 3.00535,-0.92375 6.87738,-4.28569 1.54632,-1.60268 -2.99656,0.67388 -9.64966,5.10609 -2.85756,2.23149 0.44464,-0.19331 0.87322,-0.42129 1.31124,-0.62881 z m 3.54742,0.66805 c 8.58105,-6.40146 -9.7716,2.18142 -1.88552,0.78073 l 0.87178,-0.33588 z m -53.68597,-0.15854 c 4.93699,-3.42549 17.34543,-4.61093 17.05508,-10.00805 -7.25777,1.72807 -15.09236,5.0835 -20.07774,10.53598 0.98952,0.38476 2.07081,-0.32706 3.02266,-0.52793 z m 6.35471,0.17915 c 3.70254,0.055 8.20846,-6.55656 1.85134,-3.04374 -2.06425,-0.50573 -6.55967,4.79161 -1.85134,3.04374 z m -18.26096,-1.02479 c 4.33624,-1.5589 15.56515,-5.69098 14.35775,-7.92542 -5.18432,2.21606 -16.07198,4.03675 -16.79005,8.5114 0.8288,-0.11265 1.63164,-0.35327 2.4323,-0.58598 z m 46.96355,-0.33813 c 4.13667,-0.5391 14.2252,-3.5495 13.51319,-5.19896 -5.03642,1.02269 -16.35787,4.15507 -16.96545,5.88729 1.15025,-0.23197 2.30133,-0.45977 3.45226,-0.68833 z M 303.118,153.71127 c -5.25745,-0.0952 -2.88766,3.53345 0,0 z m -43.39572,1.3681 c -0.80104,-2.28446 -2.29315,1.38893 0,0 z m 34.92762,-0.46252 c 3.28784,-1.17394 6.77836,-5.17035 1.59257,-1.62941 -0.39405,0.28964 -4.90297,2.8895 -1.59257,1.62941 z m -30.78943,-0.70233 c 7.23341,-3.69217 -3.22327,-4.64995 -3.27265,-0.17344 0.61115,1.27193 2.4103,0.96404 3.27265,0.17344 z m -5.12069,-2.19374 c 6.83299,-1.63273 -0.007,-1.95892 -2.2546,0.54448 0.74739,-0.19863 1.50183,-0.3679 2.2546,-0.54448 z m -454.00781,24.0448 c 6.3999,-8.02519 16.30448,-11.9653 24.02145,-18.45562 -7.73168,4.34745 -15.38731,9.03483 -22.21538,14.74015 3.26347,-6.70917 10.52664,-10.66179 16.84539,-14.27904 4.74527,-3.30887 12.07447,-7.57009 11.71301,-11.03687 5.98789,-1.38459 10.12844,-5.8622 15.2716,-8.88849 13.8465,-8.7859 29.51605,-14.17367 45.32556,-18.14862 1.31202,-1.85042 2.09998,-5.09034 2.50201,-0.88336 11.579906,-1.64815 21.123807,-9.42992 32.285025,-12.54207 9.019987,-4.23566 19.34537,-4.24385 28.579956,-7.521104 9.974335,-5.72486 21.77327,-6.21295 32.9721273,-6.81181 4.439425,-3.5498 9.7617023,-1.6951 12.7867653,-1.6952 6.7587854,-2.31752 14.0372124,-2.38774 20.9047264,-3.96064 -13.485323,-0.67273 -26.61382552,3.05159 -39.887826,4.73414 15.486325,-4.29497 31.603335,-5.46148 47.578161,-6.03505 2.316085,-0.22785 9.502362,-1.02639 5.392235,-4.24649 4.515052,-2.11719 3.359764,2.35913 3.724211,3.28099 3.795714,0.7303 12.674532,-1.31666 13.19569,2.05963 -6.589662,1.45169 -13.687304,-0.34018 -20.393656,1.65258 -10.940677,1.28574 -21.204106,5.52923 -31.9878428,7.6197 -2.99500312,1.66182 -6.855277,1.00881 -1.8442873,-0.87656 1.1593444,-1.01222 -8.6304776,1.63931 -11.4556936,2.08337 -10.6666603,2.13774 -21.1964463,5.036924 -31.6475233,7.914844 -11.858727,1.44134 -23.350835,4.95836 -34.952872,7.69758 -16.711608,5.03723 -31.768306,14.34447 -46.428256,23.60175 -2.08024,3.15341 -7.47056,3.4108 -2.35273,0.1677 6.72214,-4.53075 14.11491,-7.94017 20.92042,-12.3351 -7.3733,4.20423 -20.10807,5.50399 -24.35736,11.60564 -5.86199,4.52902 -16.30777,5.85045 -22.74659,11.44293 -4.9927,4.58891 -12.27051,5.15598 -17.13733,9.93349 -8.88304,6.31187 -18.62827,11.60748 -26.17781,19.59589 l -0.29761,-0.28464 -0.13557,-0.12967 z m 25.90039,-21.20984 c 4.35271,-1.35828 4.21337,-4.55182 0.11675,-1.19157 -1.96318,1.28511 -3.82895,3.52839 -0.11675,1.19157 z m 9.38824,-4.9902 c 7.73384,-5.20549 -7.81879,3.19065 0,0 z m -0.26088,-1.96832 c 3.05009,-0.88385 7.04085,-4.23872 1.62288,-1.55284 -3.09237,0.57652 -6.79837,4.66305 -1.62288,1.55284 z m 16.47701,-10.15373 c 6.32352,-2.60063 11.59407,-7.24398 18.11954,-9.38238 4.23092,-1.91431 4.64132,-3.41711 -0.13634,-1.15708 -10.95217,4.21427 -21.62056,9.46582 -30.91474,16.69954 4.4668,-1.71084 8.62259,-4.10612 12.93154,-6.16008 z m -4.3769,3.48358 c 6.81458,-3.5784 -6.83198,2.48339 -0.24945,0.10776 z m 6.54992,-1.27814 c 4.09652,-1.49246 4.81463,-3.22867 0.43419,-0.58968 -0.28163,-0.0195 -3.91294,2.17359 -0.43419,0.58968 z m 1.30081,-2.24486 c 3.93237,-1.65037 7.17196,-4.83006 1.14702,-1.61318 -3.06554,1.1686 -6.96398,4.74216 -1.14702,1.61318 z m 7.16085,-0.75896 c 5.21028,-2.96483 -6.29057,2.11746 -1.39741,0.50906 z m 2.06532,-2.79855 c 0.5669,-1.10844 -2.03517,1.40621 0,0 z m 3.07186,-2.40993 c 3.2626,-0.3291 10.56757,-5.81271 3.14648,-2.90337 -1.37748,0.39045 -8.83304,5.1106 -3.14648,2.90337 z m 13.11391,-5.78385 c 4.76585,-3.43212 -9.80525,3.97685 -0.1671,0.0769 z m 4.4247,-3.06646 c 10.26663,-3.12975 -11.32059,2.10217 -1.07507,0.18812 0.35836,-0.0627 0.71671,-0.12541 1.07507,-0.18812 z m 6.84005,-1.06911 c 5.881584,-3.28737 -5.89832,2.15618 -2.27217,1.00125 0.78818,-0.26468 1.52359,-0.64774 2.27217,-1.00125 z m 39.356781,-13.11005 c 2.95557,0.56779 14.053053,-4.68797 5.917618,-2.3818 -2.287767,0.84799 -16.12612,4.13893 -5.917618,2.3818 z m 7.805208,-3.76494 c 2.316299,-0.36047 9.584934,-3.0722 3.082137,-1.66766 -3.997779,-0.47027 -10.923328,4.10242 -3.135273,1.6838 z m 6.879167,-0.95816 c -0.784984,-0.95329 -2.420858,1.566 0,0 z m 3.087437,-0.96951 c -2.146945,-0.11076 -1.550958,1.2452 0,0 z m 6.506832,-0.23144 c 2.849515,0.0154 10.223021,-3.144974 3.025796,-1.76601 -1.705832,0.45941 -8.379485,2.98227 -3.025796,1.76601 z m 7.868232,-2.897584 c 3.310373,0.525414 16.329566,-4.12233 6.762851,-2.46391 -2.992929,-0.10594 -16.668438,3.671844 -6.762851,2.46391 z m 17.492266,-2.64673 c 3.68955,-1.05195 13.2450997,-2.12578 13.009935,-3.65897 -5.5550517,0.51862 -11.147627,1.75486 -16.160881,4.26076 l 1.578032,-0.28735 z m -7.702682,-1.77012 c 2.693899,-0.88531 12.4971323,-1.74984 11.032788,-2.37752 -5.195986,0.63046 -15.063497,0.1854 -17.23551,2.94774 2.036004,0.93327 4.153063,-0.42846 6.202722,-0.57022 z m 5.688541,0.57788 c 1.550087,-1.70193 -4.405826,1.6746 0,0 z m 22.1541197,-3.63133 c -3.2802303,-0.60643 -1.0503761,0.46529 0,0 z m 3.4310903,-1.44867 c -1.6135769,-0.83865 0.011874,1.27416 0,0 z m 7.171214,-1.17412 c 1.598839,-1.19702 -5.387572,1.41997 0,0 z M 255.56155,129.49321 c -3.92336,-2.72359 9.21777,-0.0364 11.63765,-2.69876 4.71285,-2.68419 8.26258,1.35427 12.51226,-3.74452 6.76218,-4.92566 -6.58822,-2.76734 -8.6167,-0.0603 -1.93785,2.86709 -13.58304,4.22471 -5.38168,1.11283 2.84979,-0.80792 9.35674,-3.55128 2.41618,-3.53162 -5.87214,-1.45117 -10.01039,8.63517 -15.17889,5.34086 3.01687,-1.16683 13.07597,-4.75747 4.23289,-4.76355 -6.25212,1.368 -12.52274,-0.36213 -18.29051,0.61021 -3.64187,4.40916 -0.17016,-3.59806 -5.03721,-0.59622 -6.96521,0.57053 -13.77183,0.1758 -20.48775,0.20828 -6.71021,-1.27313 -13.56297,-1.28618 -20.31691,-2.68233 -8.14565,-0.57699 -16.69869,-5.08723 -18.41568,-13.73299 -4.57088,-7.421084 8.33843,-17.820314 10.68545,-16.521674 -2.96621,2.09918 -8.91685,8.06801 -1.69925,3.88332 7.72614,-0.0752 -3.94371,2.96354 -6.20256,3.54411 -4.7859,6.530524 0.31064,17.209414 7.69521,19.587814 3.44546,1.48898 8.93507,2.97435 10.72411,-1.68467 -2.73844,5.63755 3.29593,4.41171 5.43398,2.01653 -1.51787,6.61193 6.32301,-1.81348 4.6951,3.06429 5.30269,-1.01169 7.70728,-11.04527 12.95267,-9.10702 -3.10734,1.86898 -13.53158,9.34145 -4.45099,10.07355 5.85244,-1.02689 6.07645,-9.71662 12.48459,-10.85638 -0.88606,2.04019 -11.17621,9.71735 -4.32914,9.90532 1.58851,-4.09273 2.14725,5.0273 5.98361,0.4554 3.11954,-2.26739 5.7551,-13.41599 8.29401,-10.93253 -1.96474,3.54633 -10.51797,14.3867 -0.84683,11.53814 3.51549,0.0365 6.70371,-7.27182 4.85911,-1.06944 3.67948,5.77151 11.12815,-8.91257 6.85683,0.51892 4.15875,3.86134 11.17185,-0.48608 8.09486,-5.77405 0.42717,-3.09942 7.73995,-8.69988 2.86405,-2.62888 -2.83965,2.62034 -1.22668,10.04054 2.48946,4.75656 -6.70672,7.35146 8.95046,4.4584 11.08303,0.0261 3.89756,-2.87133 -5.17219,5.91582 0.99041,3.73229 3.16797,1.66287 8.72647,-6.76849 7.79021,-1.03077 6.71583,-0.37933 4.40785,-13.72294 9.58947,-12.69016 -1.5174,3.77069 -5.82006,9.4652 -4.35953,12.74022 6.02315,-2.40374 4.03137,-10.92977 9.87215,-13.85975 -0.36705,3.45617 -10.70202,15.50475 -1.47242,12.84545 3.16371,-3.53192 3.19542,-12.70512 3.42407,-14.84704 -6.21461,1.64056 -15.25369,-0.20747 -18.75596,6.07147 -0.78699,2.91221 -3.72331,8.46427 -2.46585,2.33433 2.70791,-3.71444 3.20779,-8.16205 -2.92188,-5.70022 -9.11441,1.87668 -19.01844,-0.57036 -27.66486,1.8201 -3.11154,1.3328 -7.71325,9.97822 -8.92354,7.2288 1.39928,-3.10705 11.08338,-8.9214 2.11158,-8.03334 -4.0756,0.46296 -16.36032,0.0925 -15.257,-0.97881 2.49489,-1.20728 6.83106,-8.960734 3.56378,-2.29354 0.0902,3.83553 7.98412,2.51496 3.24293,-0.95614 -3.23701,-6.642114 -2.26981,-14.212714 0.33132,-20.649184 -1.4792,-7.17818 -0.95637,-14.41091 -1.77632,-21.63992 -1.81038,-9.98486 -0.88475,-20.27202 -2.99526,-30.21454 -0.47512,-10.40088 -1.99304,-20.6750797 -2.18326,-31.0926397 -0.97088,-15.4319303 -3.01352,-30.7510003 -3.83991,-46.1902633 -1.26382,-16.635107 -2.04394,-33.289713 -3.55869,-49.903498 -0.53287,-2.956475 -0.61825,-9.121745 1.22586,-3.077935 0.95763,6.47653 0.8622,13.166919 1.72452,19.732895 0.81982,6.435265 0.37726,13.122579 1.01064,19.442487 1.6574,6.857384 0.1307,14.074585 1.71111,21.000319 0.70049,13.229525 2.28099,26.409335 3.3351,39.60097526 -0.37162,9.56619004 1.8904,18.90582974 1.99698,28.46366974 1.55236,9.47655 1.53134,19.00627 2.62213,28.54889 1.38279,7.18334 0.70455,14.47865 1.454,21.69854 -0.14139,3.13461 2.19706,5.17658 3.35524,1.36312 -2.16977,9.34173 10.34255,0.3937 11.18847,3.27355 -4.46113,2.9184 -14.57773,0.72902 -12.19826,8.9006 -0.11617,4.22366 2.3932,9.049134 -0.79924,12.095534 5.95604,3.8253 14.97575,-0.0189 22.09381,1.45646 3.80399,-0.77216 12.54759,1.47769 13.76201,-1.98375 -3.88127,-1.33601 -8.10582,-13.683094 -3.27617,-5.093854 1.47977,5.062374 8.35267,0.15158 4.41428,-0.10105 -2.75464,2.04751 0.35759,-6.65569 -3.71113,-2.68109 1.53316,-6.04396 -7.68433,-10.04503 -12.21085,-13.66808 -5.76315,-3.14275 6.55182,-0.097 7.31447,3.30448 3.27469,5.75961 12.65156,9.33232 12.20351,16.244924 -0.52606,-5.400894 -7.69539,3.89002 -0.87291,2.80354 7.54465,0.90746 15.05185,-1.48017 22.55754,-2.16881 10.95255,-1.860194 21.48866,-5.502304 32.23026,-8.150134 4.65159,-0.22509 11.60646,-8.84222 3.08043,-5.58194 -4.13553,-1.07466 -18.34626,-0.7123 -11.21901,-6.78267 5.08312,1.96167 10.36435,-7.2205 14.40473,-1.94526 -5.08796,-3.02458 -16.79248,8.40761 -5.84707,6.35458 2.21799,-0.22564 4.99669,-2.31605 5.23205,0.25151 9.14674,-5.17405 0.69427,8.66251 -4.1739,8.84524 -3.27166,3.81128 -1.47363,10.927534 -0.33886,15.006054 7.3066,-0.24927 0.90544,-15.048864 4.99076,-13.560464 0.0241,2.81542 -1.451,15.922614 1.30104,7.219914 2.48128,-5.001214 0.0516,6.90958 4.0971,1.06487 4.63988,-3.74986 -3.04887,-11.498164 -1.17769,-13.381184 4.97899,2.0727 1.22466,12.279434 6.18326,11.677454 1.73855,-1.95532 1.54374,-11.856964 2.47052,-4.246704 1.45592,4.345034 5.5486,-6.66614 3.03191,-9.04423 0.11512,-2.77312 -9.5381,-10.88568 -2.8238,-7.54447 2.8465,2.39817 5.04323,16.31073 5.46769,6.59436 -0.39613,-7.47045 -10.92364,-9.39249 -13.78495,-12.29611 7.75549,0.84398 16.63842,7.039 14.93677,15.82657 -2.29894,5.85371 -6.64776,13.877504 -12.45188,13.499304 -8.77006,4.43923 -18.12872,7.71228 -27.66807,9.85513 -7.17791,1.46198 -14.23388,2.61479 -21.50001,3.8394 -8.34011,-1.33033 -11.64217,7.32802 -19.2796,8.50552 -5.90098,-0.76327 -11.50195,3.09627 -17.54518,1.88765 z m 45.09823,-13.1382 c 3.59622,-4.32894 1.23225,-12.97342 7.90117,-14.77185 -2.01335,3.7937 -8.15426,11.36499 -4.08106,13.94849 1.69736,-1.0538 5.283,-5.54078 3.43657,-0.88135 3.76757,1.98099 8.41418,-6.97201 8.40288,-1.69462 1.45085,0.29664 5.54181,-4.68846 1.8548,-2.05231 2.30656,-2.68242 0.98995,-12.514654 3.69709,-11.564534 -1.45347,4.280384 -1.59467,17.018864 4.5443,9.361584 8e-4,-4.8719 3.74585,-16.333094 -5.02433,-12.368934 -6.95964,3.56732 -16.37352,1.98154 -21.52868,8.633794 -2.56987,2.8984 -3.01593,10.76549 0.42304,8.41884 -0.27565,1.42979 -3.06698,4.34924 0.37422,2.97089 z m 8.95189,-4.97962 c 0.91604,-3.76381 2.24857,-10.60043 6.25429,-11.22263 -3.33815,2.99112 -2.65856,8.51451 -6.25429,11.22263 z M 233.79716,99.431006 c -3.46939,-2.33536 -1.15687,2.562504 0,0 z m -1.60938,-3.92329 c 2.52914,-3.7737 -6.15191,-4.48455 -0.31764,-2.33017 0.33143,0.88287 -2.10535,3.54904 0.31764,2.33017 z m 1.2028,-6.52203 c -1.02575,-6.34446 -3.66151,5.14768 -0.0142,0.0667 z m 32.02429,-0.1183 c -2.27904,-2.19867 0.89655,1.864 0,0 z m 66.27813,-2.26835 c -0.93436,-1.34778 -1.2614,1.58168 0,0 z m -97.63125,-1.5531 c 3.63191,-3.27484 -4.88487,-3.88967 0,0 z m 86.27732,-0.76653 c 5.55454,-3.04565 -3.89175,-0.47729 -0.25519,0.10644 z m -72.70375,44.022964 c -2.59147,-1.03236 -16.02557,-3.65235 -7.76797,-0.66818 -2.95613,3.73382 -11.72222,-7.14346 -5.39894,-3.8418 1.33465,-3.81084 4.64726,4.73998 7.89546,1.87065 0.95193,0.0472 10.56308,1.57567 5.27145,2.63933 z m -6.26576,-4.24698 c -5.98588,-2.85443 15.24466,-1.47962 6.51629,0.11536 -2.17082,0.15946 -4.34892,0.0336 -6.51629,-0.11536 z M 69.94102,120.1856 c 1.056975,-5.09066 -4.300622,-13.90007 -5.545317,-13.8225 5.020413,-4.06634 -2.813241,-11.970944 -3.704404,-17.368204 -3.093347,-8.44398 -5.305562,-17.20529 -8.058237,-25.74466 -1.119734,-9.42828 -3.632302,-18.49788 -6.905901,-27.37961 -3.085004,-8.60905 -5.388052,-17.37184 -6.334526,-26.4677797 -1.306754,-9.17668004 -6.440207,-17.04692 -8.685887,-25.9667203 -4.279282,-9.30742 -5.317143,-19.68451 -9.293211,-29.138664 -5.286354,-9.737993 -2.702129,-21.981706 -9.195733,-31.231035 2.289891,-2.182638 7.110128,-12.066502 7.862311,-8.831371 -8.209723,6.26314 -3.548921,15.367245 -1.657876,23.122024 0.382822,9.625366 5.34161,17.908856 7.723736,26.996642 1.985955,10.193594 6.35433,19.605344 9.504229,29.4456743 5.033502,8.84774 5.246118,19.2009697 7.315529,28.9069697 2.923206,9.28759 5.900863,18.61199 8.853173,27.85217 0.976537,9.51433 3.780975,18.6147 6.71475,27.65047 1.907835,8.63171 6.89668,16.1463 8.575657,24.823714 -0.194365,5.89636 14.870822,12.03995 8.524714,2.56656 -5.113421,-10.515224 -4.829291,-22.638724 -8.941126,-33.506974 -3.257666,-12.06988 -8.153608,-23.81444 -9.473658,-36.30643 -4.651802,5.3276 0.238452,-6.49216 -2.616335,-9.05175 -2.071681,-6.75035 -3.956393,-13.30144 -6.851343,-19.7395497 -4.003015,-9.92382 -8.19327,-19.9700003 -9.490252,-30.6837603 -2.94806,4.24861 0.06857,-6.68364 -2.932242,-7.9392 -2.601201,-10.089615 -5.676149,-20.01582 -7.516374,-30.271766 -1.590702,-7.173439 -4.272219,-13.998225 -6.773516,-20.643032 5.670338,-2.37771 5.107843,-11.875698 8.105855,-17.208816 3.935444,-15.570522 14.025535,-28.305632 23.645977,-40.754132 8.414713,-12.59427 16.78224,-25.32094 27.342525,-36.27688 12.375691,-13.76729 28.404422,-23.45757 42.011832,-35.88582 10.99414,-8.20185 23.51581,-14.06678 35.71344,-20.20383 16.85875,-7.20076 35.0431,-10.47402 53.00188,-13.55554 9.38849,-0.6588 18.7825,-1.12755 28.15143,-2.10357 5.69163,1.27129 11.91478,1.55893 17.63853,3.39382 1.07433,6.04671 -9.39135,9.84674 -11.27902,16.13541 -3.37448,8.9003 -13.66059,2.03971 -18.82658,4.36902 -1.86894,3.75724 -11.60811,3.50364 -16.59148,2.91466 -2.84632,-2.38784 -5.59446,-4.09142 -6.86033,0.4107 -6.36921,1.99618 -12.85081,4.04255 -19.45608,5.32297 -9.47101,1.87176 -18.42591,5.37731 -26.99525,9.7764 -9.20268,4.16045 -17.83306,9.49818 -26.75237,14.12793 -5.74616,4.51692 -9.91763,11.27828 -16.69406,13.86968 -5.81416,4.5851 -11.28947,10.03712 -17.012475,14.94683 -5.230001,5.86952 -11.199801,10.06861 -15.178745,17.09555 -4.54496,7.03441 -10.711628,12.74314 -15.788527,19.33129 -3.086336,5.71224 -6.818092,11.17859 -8.65396,17.49723 -5.83274,5.63 -6.150939,14.25452 -10.250041,20.26731 -3.922066,7.047834 -7.378912,14.276139 -6.561587,22.639549 0.381283,3.375944 -14.797613,2.046485 -5.790906,-0.02589 1.7347,-3.239919 4.140672,-4.329265 4.282087,0.216849 1.687966,-3.879752 -0.798804,-10.685039 -4.674217,-6.069137 -2.041813,-3.708911 -3.561782,-4.06514 -5.288204,-0.603197 -0.440321,-6.048501 4.502809,-11.838579 6.633605,-17.561041 2.858038,-6.154748 5.148634,-12.222063 9.119722,-17.796173 6.910538,-12.15398 14.199218,-24.12511 22.73679,-35.21057 11.197021,-16.71111 24.643316,-32.43737 41.780808,-43.32223 7.97185,-6.41824 17.29006,-10.80553 25.72965,-16.52493 5.87267,-3.79558 12.84069,-5.50817 18.57523,-9.65096 6.10478,-1.73762 11.92854,-4.82911 18.26092,-5.93688 13.35483,-4.67409 27.33307,-7.24115 41.38445,-8.55379 4.18208,-1.97605 10.83496,-0.33447 12.85481,0.51547 2.25494,-1.20803 12.38114,-0.97493 5.26323,-3.08686 -2.68659,-2.18622 6.65136,-6.97905 5.15811,-11.65669 2.84888,3.35008 9.2742,-9.05134 1.82141,-5.44855 -13.01583,1.90856 -26.39885,0.72729 -39.16015,4.3721 -19.3951,3.26173 -38.62916,8.7714 -55.56089,19.02616 -9.22803,5.01498 -18.53893,10.05503 -26.19208,17.38174 -13.37009,11.61072 -28.641898,21.19001 -39.81787,35.17599 -9.823742,10.72956 -17.125653,23.3563 -25.682394,35.02568 -8.729299,10.93562 -16.949581,22.65064 -20.624197,36.355269 -2.209329,8.057307 -6.445502,16.344082 -5.669766,23.842734 1.234023,4.151102 1.793001,9.43124 6.186047,5.491814 2.257498,3.363196 -6.137754,3.536476 -2.008127,7.442168 0.382245,3.654506 1.795287,9.322324 2.672556,2.667699 0.795543,-5.265109 3.718607,-3.494395 1.566069,0.806819 -2.988542,2.581845 -2.410731,14.056812 0.253459,6.347179 0.381287,-4.880286 4.116596,-10.774971 4.740403,-8.184471 3.205249,-1.609171 2.472824,10.198246 4.959094,13.374224 3.141573,9.042533 6.842572,17.861651 9.397295,27.090851 4.56812,12.9368903 4.77516,27.2373503 11.447967,39.48134 3.435494,7.41576 5.562604,15.36548 6.894663,23.38525 4.102022,11.91529 8.310157,23.82371 11.890303,35.88992 3.275752,8.60628 3.43725,18.1346 6.148204,26.697754 0.245886,4.30333 9.691924,-2.65064 3.482962,2.24936 -5.138844,0.90267 2.618293,10.0586 -2.462508,5.98016 -2.85784,-6.44409 -12.001581,7.76626 -15.355153,-0.96519 -4.780839,-4.60892 -6.322721,0.34477 -4.064718,4.54764 0.201202,1.1159 1.30057,3.70136 -0.697789,3.85141 z m 13.404824,-9.88148 c 2.684482,-2.83149 4.60091,-11.595404 1.403939,-11.889664 -2.322708,3.073894 -8.363998,14.326384 -2.289196,13.212244 z m -4.333902,1.57464 c -1.577726,-1.6165 0.283526,1.8159 0,0 z m 6.595296,-1.74812 c 4.895082,-0.36175 1.054902,-8.36158 -0.121652,-2.08803 -0.28023,0.87031 -2.76279,4.41139 0.121652,2.08803 z m -4.495483,-6.51857 c 2.002252,-5.225084 6.800301,-13.167074 1.827684,-17.591534 -2.863295,5.83211 -5.244831,12.10837 -6.426701,18.548604 1.751585,6.26857 2.951935,3.58451 4.599017,-0.95707 z M 78.995564,93.414096 c 0.482267,-4.10834 6.522949,-11.12813 1.673227,-13.7781 -2.442939,6.71495 -8.273785,15.16958 -4.766796,21.812664 1.574593,-2.438544 1.706125,-5.518504 3.093569,-8.034564 z m -4.739349,0.54655 c 1.435258,-7.39439 7.856365,-14.49812 5.367832,-22.08595 -3.254593,-2.34074 -3.514122,7.90909 -5.817459,10.27941 -2.07853,1.80913 -2.033979,15.13855 0.449627,11.80654 z m -1.673357,-10.83376 c 1.30305,-5.76492 6.436696,-12.33025 4.651662,-17.6691 -3.577418,5.13525 -5.765104,12.88936 -5.96988,19.35368 0.770226,0.0612 0.931309,-1.29576 1.318218,-1.68458 z m -1.468887,-5.04124 c 1.186044,-5.88541 7.330372,-15.5397 3.491849,-19.38093 -4.077214,5.65552 -6.315765,13.76186 -4.101071,20.51249 l 0.279154,-0.19943 z M 70.548,65.319496 c 1.111388,-4.28146 6.004937,-13.86633 1.108473,-14.7261 -2.445629,6.32014 -6.868497,13.47594 -3.590663,20.23042 1.739172,2.0881 1.650166,-4.52234 2.48219,-5.50432 z m -2.254805,-8.58102 c 0.65237,-4.04482 4.889918,-10.70447 0.645712,-13.55249 -2.556811,5.96922 -7.612024,13.68367 -3.045003,19.86941 1.589577,-1.61318 1.237513,-4.41603 2.399291,-6.31692 z m -3.595847,-5.44589 c 1.540405,-4.92752 5.918912,-12.83066 2.398436,-16.63259 -2.599271,6.01085 -6.133396,12.85996 -4.558985,19.57243 1.222084,1.51799 1.838625,-2.50953 2.160549,-2.93984 z M 61.6199,47.526266 c 0.587912,-6.9817 6.843635,-13.61233 4.596175,-20.31166 -3.853201,0.55677 -4.023626,10.50227 -5.730106,14.84853 -0.593165,0.99994 -0.33202,6.84475 1.133931,5.46313 z m -0.0698,-13.05126 c 0.955062,-5.36144 5.006348,-10.97364 0.953483,-16.11773 -0.630984,-3.78239 -4.094481,-7.25474 -3.967299,-0.97934 -0.768242,2.86892 -4.138541,12.28247 -0.608422,10.6132 0.111382,-2.78182 3.794029,-13.45701 2.563764,-5.59393 -2.364839,5.70205 -3.78785,12.45852 -0.907041,18.25642 0.720538,-2.03833 1.319929,-4.11612 1.965515,-6.17862 z M 56.891052,19.281996 C 57.037326,16.286176 61.310803,8.4892663 57.474895,8.8010363 55.47716,12.048396 52.30197,23.463466 55.964501,22.667466 c 0.323405,-1.12446 0.62575,-2.25481 0.926551,-3.38547 z m -1.691137,-7.37214 c 2.068013,-2.9601797 2.353852,-14.5566097 -0.63835,-6.2528297 -2.77364,2.74801 -2.388234,16.9560097 0.63835,6.2528297 z M 52.658539,8.4140263 c 2.204624,-5.9915 5.063504,-14.75076 0.460385,-19.8019803 -2.67909,4.4916303 -6.976009,12.7158803 -3.565429,17.1053303 2.864932,-2.12822 1.240516,-13.57578 4.377509,-10.5969 -0.655901,3.90370996 -5.69719,13.83211 -1.658507,14.32867 0.128682,-0.34504 0.257353,-0.69009 0.386042,-1.03512 z M 47.439632,-0.76286374 C 48.515598,-7.5308737 55.41777,-14.124624 51.180519,-21.069964 c -0.436109,-2.98851 -3.209529,-10.74335 -4.490387,-3.47104 -2.037294,5.33084 -6.845946,15.1327303 -0.973401,18.9765303 2.914229,-4.37712 0.952232,-11.3927303 5.599948,-14.5057303 -1.442034,6.48255 -6.626821,15.4635703 -4.384374,20.72669026 z M 44.236666,-6.8899537 c 0.47018,-4.2087303 1.929693,-15.2546403 4.206576,-14.7728503 -1.974839,4.74832 -1.308419,10.40367 -4.206576,14.7728503 z m -1.330537,-9.2835603 c 0.669315,-6.22344 6.722798,-12.59405 3.66015,-18.599856 -1.171801,-4.316056 -5.028625,-17.018477 -7.034497,-6.17066 -0.655699,3.477598 -3.962351,10.561676 -0.772756,12.238086 2.238451,-2.46068 2.133045,-13.181519 4.869188,-10.855915 -3.443012,7.208165 -5.866009,15.683185 -2.611941,23.632495 0.5266,2.98347 1.04032,3.03303 1.889856,-0.24415 z m -1.373637,-1.21082 c 0.310643,-4.86717 1.876148,-15.62353 3.902692,-16.35726 -1.377289,5.4075 -1.144052,11.38691 -3.902692,16.35726 z m -4.414044,-17.05774 c 0.649425,-5.861978 3.951912,-11.458432 3.056652,-17.439876 -1.981576,2.946635 -2.218699,12.956885 -4.691973,11.205074 1.047628,-4.62163 6.195437,-15.400212 2.570126,-16.495522 -3.921185,7.174966 -4.831867,16.094471 -1.789569,23.722274 l 0.39705,-0.0529 z m -2.283616,-17.581137 c 1.12758,-2.865266 1.740502,-7.762357 0.102665,-2.090728 -2.04882,3.265129 -2.460981,12.202795 -0.502626,3.559274 z m 1.583161,-15.345834 c -0.632747,-1.462119 -0.632747,1.462119 0,0 z m -6.410643,-1.141016 c -1.055732,-1.45617 -1.166275,1.546199 0,0 z m 4.690851,-5.341276 c -0.18279,-1.105588 -1.633355,1.440212 0,0 z m 2.021205,-2.637022 c 1.117425,-2.045484 -2.913978,2.122743 0,0 z m -2.94984,-0.402564 c -0.278994,-2.227333 -1.98288,1.938256 0,0 z m 2.531719,-1.043649 c 0.659057,-2.539466 -2.633687,1.536839 0,0 z m -3.058292,-0.95541 -0.812704,0.299621 z m 5.027083,-0.509302 c -0.624122,-1.489134 -0.844056,1.639628 0,0 z m -2.611358,-0.291338 c 0.94093,-2.28295 -2.503133,1.337325 0,0 z m 4.667382,-0.461105 c -0.629222,-1.287928 -0.965654,1.560436 0,0 z m -7.494746,-0.290317 c 0.466377,-3.20778 -2.394222,1.60085 0,0 z m 5.314262,-0.30113 c 0.118518,-2.403502 -2.053201,1.358467 0,0 z m -3.204475,-0.412512 c 1.763074,-2.956658 -3.094719,-0.03025 0,0 z m 5.027084,-0.529167 c 2.01107,-2.798877 -2.28305,0.365158 0,0 z m -2.474516,-0.642459 c 2.848217,-3.759968 -3.826024,0.339819 0,0 z m 2.575534,-1.366525 c 1.475307,-3.051536 -2.254106,0.579467 0,0 z m -5.568157,-0.410104 c -0.828819,-1.209331 -1.741955,1.969414 0,0 z m 3.070808,-0.915699 c -0.282851,-3.484134 -2.934473,2.956011 0,0 z m 2.303065,-0.747255 c 2.187283,-2.875204 -2.483273,-0.367053 0,0 z m 3.422201,-0.418796 c -0.7071,-1.1507 -0.373786,2.108325 0,0 z m -7.483873,-0.235434 c 5.314694,-2.678218 -4.985754,1.098433 0,0 z m 5.547943,-1.238155 c -0.622347,-0.148903 0.570909,1.464786 0,0 z m 1.883013,-0.0033 c 1.521886,-3.050028 -2.457524,0.688009 0,0 z m -3.239215,-0.586909 c 0.853961,-2.371312 -2.437329,1.734018 0,0 z m -3.19016,-0.418508 c -0.765569,-1.293042 -1.603828,1.274052 0,0 z m 4.630208,-0.529166 c -0.334345,-0.932118 -0.617118,1.106056 0,0 z m 1.996123,-0.812777 c -0.996504,-1.68912 -1.266992,2.305499 0,0 z m -3.451331,0.28361 c -0.427767,-1.147375 -1.299722,1.337775 0,0 z m -0.132292,-1.882942 c -1.128923,-1.719226 -1.084596,2.173429 0,0 z m 3.367829,0.135485 c -1.499184,-0.201346 -0.883028,1.324333 0,0 z m -2.044912,-0.633793 c -0.623724,-1.891474 -0.623728,1.891472 0,0 z m 1.433565,-0.1606 c 1.9771,-2.462995 -2.148729,0.05302 0,0 z m 1.657589,-1.47651 c -0.62235,-0.148908 0.570913,1.464788 0,0 z m -3.355737,-0.479564 c -0.533751,-1.734847 -0.771577,1.821779 0,0 z m 1.810755,-0.380759 c -0.680783,-3.167844 -1.508113,2.19569 0,0 z m 3.34862,0.380759 c -0.407174,-1.092617 -0.835149,1.152709 0,0 z m -1.719792,-1.322917 c -0.504053,-3.180984 -0.694192,2.703049 0,0 z m 1.765988,-0.901065 c -1.795518,-0.858198 0.02364,2.339357 0,0 z m 1.673595,-0.28956 c -0.730862,-1.457578 -0.672748,1.458046 0,0 z m -5.688541,-0.132291 c -0.09742,-0.910055 -0.726713,1.015786 0,0 z m 2.130927,-0.55222 c -3.88e-4,-1.843319 -1.518301,0.973341 0,0 z m 1.705531,-0.790096 c -1.048844,-1.570595 -0.886248,1.814002 0,0 z m 1.806919,-0.60298 c -1.040458,-1.580147 -1.001897,2.0741 0,0 z m -4.259818,-1.124974 c -0.87387,-0.423373 -0.477514,0.534983 0,0 z m 2.056024,-0.633893 c -0.427768,-1.14738 -1.299721,1.337771 0,0 z m 1.984375,-0.56003 c -1.137641,-1.16699 -1.440449,1.594733 0,0 z m -4.525513,-0.21107 c 0.796082,-2.44765 -2.502459,1.40794 0,0 z m 2.185247,-0.97614 c -1.226629,-2.13932 -0.468048,2.0853 0,0 z m 2.029354,-0.72564 c -1.076859,-2.38292 -0.900931,2.76321 0,0 z m 1.633829,-0.42192 c -0.825349,-3.38371 -0.855387,2.20757 0,0 z m 2.010833,-1.49729 c -1.918003,-0.50146 0.279501,2.36256 0,0 z m -6.376458,-0.10583 c -1.088059,-2.51442 0.556511,3.36097 0,0 z m 2.38125,-0.13592 c -1.126684,-1.70444 -0.627775,2.0438 0,0 z m 1.719791,-0.65783 c -1.005932,-2.45858 -0.526638,2.35178 0,0 z m 1.965484,-0.68036 c 1.692017,-3.13763 -2.587846,1.13551 0,0 z m -4.418383,-0.80241 c -0.873872,-0.42338 -0.477513,0.53498 0,0 z m 7.642014,-0.50986 c -0.285277,-2.94459 -2.864372,2.55039 0,0 z m -2.966773,-1.07615 c -1.265316,-1.72022 -1.197704,2.16279 0,0 z m -2.947088,-1.45843 c -1.795217,-1.66554 0.399266,2.38316 0,0 z m 5.068729,0.92703 c 1.499179,-2.57566 -2.778372,1.13159 0,0 z m -2.275893,-1.49305 c -1.499089,-2.75189 -1.82662,3.0569 0,0 z m 4.761468,0.0827 c -0.529202,-1.12718 -0.978155,1.88699 0,0 z m -1.993159,-1.32886 c -2.230103,-2.30438 -1.43303,3.6818 0,0 z m 2.439643,-0.93663 c -1.695055,-2.30603 -1.727829,2.64304 0,0 z m -5.548418,0.11962 c -0.259357,-2.63556 -2.562464,1.63278 0,0 z m 2.711423,-0.92838 c 1.936366,-3.46695 -3.785359,1.79035 0,0 z m 2.47695,-1.15284 c 1.108184,-2.82 -2.772238,1.79127 0,0 z m -2.164847,-1.24436 c -0.894478,-2.93024 -2.767744,2.66654 0,0 z m 4.376976,0.16325 c -0.402778,-0.98777 -0.945541,1.11105 0,0 z m -1.951329,-0.96585 c -0.281655,-2.89153 -2.292834,2.36776 0,0 z m 2.022978,-1.10121 c -0.629225,-1.28793 -0.965652,1.56044 0,0 z m -4.593193,-1.10941 c -2.034845,-1.19305 0.255724,2.25275 0,0 z m 2.49219,-0.51153 c -1.487777,-2.12157 -1.345829,3.06347 0,0 z m 2.161645,-0.54534 c -1.213911,-2.11527 -1.230111,2.0536 0,0 z m 2.116667,-0.52916 c -1.213909,-2.11528 -1.230113,2.05359 0,0 z m -4.894792,-1.98438 c -0.504686,-3.47071 -0.8452,3.65079 0,0 z m 2.713303,0.19844 c -0.676518,-1.11555 -1.839607,1.96347 0,0 z m 2.027555,-0.22675 c 1.499179,-2.57566 -2.778374,1.1316 0,0 z m 1.851633,-1.06789 c 0.125461,-2.02414 -1.331721,1.60296 0,0 z m -4.497467,-0.25502 c 1.635653,-1.96379 -2.583363,-0.0539 0,0 z m 2.381092,-0.98137 c 1.411475,-2.63653 -2.469858,0.88613 0,0 z m 2.482426,-1.02761 c 0.646337,-2.27322 -2.136716,1.38467 0,0 z m -2.376064,-2.00031 c -1.141821,-2.21614 -1.160192,2.12491 0,0 z m 2.010463,0.0405 c 2.210991,-3.31556 -3.120368,0.19732 0,0 z m 2.270601,-1.58124 c -1.022026,-1.94173 -0.482191,2.19745 0,0 z m 1.24169,-0.83281 c -0.606253,0.32726 0.725176,1.91308 0,0 z m -3.490648,-0.86856 c -1.349765,-2.87898 -1.194437,2.72159 0,0 z m 5.291667,0.26821 c -0.09742,-0.91005 -0.726712,1.01579 0,0 z m -3.175,-0.92604 c -0.983852,-2.28052 -0.660499,2.22205 0,0 z m 1.455208,-0.66146 c -0.623726,-1.89147 -0.623726,1.89147 0,0 z m 1.984375,-0.74965 c -0.566678,-1.21505 -0.803829,1.6631 0,0 z m 2.094574,-0.47885 c -0.03319,-2.43597 -1.694657,1.92658 0,0 z m -5.931032,-0.60194 c 8.34e-4,-5.06325 -1.466915,2.16984 0,0 z m 1.852083,-0.41852 c -0.855402,-2.33332 -0.528398,2.25316 0,0 z m 1.983634,-0.39451 c -0.02452,-2.84599 -1.532274,1.92505 0,0 z m 1.93638,-1.14563 c -0.789154,-2.26598 -0.741741,2.82448 0,0 z m 2.64623,-1.04199 c -1.382397,-1.96465 -1.067253,2.67784 0,0 z m -6.830827,0.053 c -0.814554,-0.93904 -0.343127,1.51698 0,0 z m 2.050494,-0.66792 c -1.335197,-0.33295 0.0514,1.60793 0,0 z m 2.182839,-0.2425 c -0.0196,-1.56021 -1.915464,1.52879 0,0 z m 2.910417,-1.24737 c -1.511422,-0.86255 -2.058395,1.96074 0,0 z m -5.291667,-0.73701 c -0.334347,-0.93211 -0.617116,1.10606 0,0 z m 2.596542,-0.33153 c -0.956556,-2.32299 -1.645484,2.19064 0,0 z m 5.47325,0.19061 c 1.950937,-1.23283 -4.340771,1.44578 0,0 z m -3.456808,-0.3817 c 2.913542,-3.19952 -3.987749,0.65327 0,0 z m 5.53937,-1.86562 c -2.026934,-1.25633 -2.843152,1.61835 0,0 z m -7.771104,-0.39919 c -1.422258,-0.80164 -0.91557,1.5722 0,0 z m 2.513542,-0.38757 c -0.792874,-1.27653 -2.047539,1.68975 0,0 z m 6.551348,-1.88886 c -2.86556,-0.72391 0.808984,2.03436 0,0 z m -6.562646,0.31964 c -0.743281,-1.50755 -2.282041,1.34928 0,0 z m 3.980048,-1.07661 c -0.680913,-1.06006 -1.176693,1.17059 0,0 z m -2.248958,-1.71979 c -1.298263,-2.58416 -0.723161,2.11817 0,0 z m 1.962732,0.23627 c 1.902921,-2.67168 -2.546096,-0.20099 0,0 z m 2.38125,-0.79375 c 2.215904,-3.15321 -2.800023,0.24054 0,0 z m 2.347198,-1.16258 c -1.700336,-1.9829 0.365048,2.29455 0,0 z m -4.55713,-0.80279 c 2.461515,-4.17484 -3.464955,0.63897 0,0 z m 2.62845,-1.18132 c -1.368977,-2.90693 -0.873225,3.28651 0,0 z m 2.980293,-0.90013 c -2.237133,-2.27774 -1.583396,3.65474 0,0 z m 2.311374,-0.0259 c 1.537899,-3.50242 -2.781476,1.92075 0,0 z m -5.335562,-1.83613 c -0.452097,-2.07089 -1.062356,2.8811 0,0 z m 3.228208,-0.15945 c -0.427012,-2.33251 -3.179391,1.8551 0,0 z m 2.854352,-1.01084 c -1.515846,-1.28312 -1.281049,2.24339 0,0 z m 1.841235,-0.39228 c -0.744297,-1.29237 -1.258598,1.91754 0,0 z m -4.5915,-0.72124 c 0.717655,-3.7799 -4.419715,2.19278 0,0 z m 2.748439,-0.97555 c -1.218898,-2.51242 -1.087047,2.89211 0,0 z m 2.154926,-0.24606 c 1.443699,-3.49251 -2.740605,2.04246 0,0 z m 2.525315,-0.74548 c 1.29817,-2.51966 -2.160656,1.81695 0,0 z m -6.908932,-0.94606 c 1.425463,-4.38324 -3.047896,2.50215 0,0 z m 2.123334,0.25791 c 1.960685,-2.67529 -2.641031,-0.83345 0,0 z m 2.845091,-0.80645 c 1.749377,-4.93831 -3.778998,2.4339 0,0 z m 2.988178,-0.62045 c 3.166733,-3.44779 -4.42897,0.91845 0,0 z m -5.46436,-2.10013 c -0.529201,-1.12718 -0.978154,1.88699 0,0 z m 3.224609,-0.41341 c -1.708362,-2.45602 -2.17091,2.95184 0,0 z m 3.241146,0.21422 c -0.05749,-4.08827 -4.207901,2.21797 0,0 z m 2.694755,-0.60455 c 2.246265,-3.2035 -3.866025,1.25614 0,0 z m -5.720689,-2.32165 c -2.02304,-3.24211 -2.785237,3.82857 0,0 z m 3.588491,0.13957 c -1.097566,-3.53904 -3.936275,2.87025 0,0 z m 2.661365,-0.19917 c 2.506077,-3.57824 -3.767644,1.71011 0,0 z m 3.524594,-0.73415 c -1.625349,-1.67927 -2.167128,1.81536 0,0 z m -5.765642,-1.63625 c 0.698878,-5.14181 -5.203499,2.47261 0,0 z m 3.399526,-0.745 c -1.877344,-3.28392 -2.427198,3.7986 0,0 z m 2.86721,0.52512 c 0.976572,-3.69058 -3.932751,1.52362 0,0 z m 2.473833,-0.45897 c -0.67761,-1.44411 -0.6594,1.4268 0,0 z m 2.20853,-1.67512 c -0.91069,-2.81946 -3.714715,1.65394 0,0 z m -7.235619,-0.55601 c -1.623497,-1.83265 -2.092651,1.30738 0,0 z m 3.307292,-0.0178 c -1.776138,-1.12261 -2.462282,1.23132 0,0 z m -6.339126,-0.28219 c -0.100435,-1.53835 -1.504225,1.13057 0,0 z m 13.348703,-1.96484 c 2.76783,-6.49356 -4.41377,4.10942 0,0 z m -6.52695,0.55311 c -1.523703,-2.22116 -2.803558,1.82218 0,0 z m -3.336555,-0.32364 c -1.219536,-1.79086 -2.209856,1.5385 0,0 z m 7.484135,0.0332 c -3.20544,-1.75382 -2.50114,1.75351 0,0 z m -3.704165,-2.24392 c -1.847224,-2.9106 -3.151353,2.60167 0,0 z m 3.902605,0.1934 c -2.1053,-1.33031 -3.852965,1.34479 0,0 z m -7.238022,-0.35284 c -0.0743,-1.35165 -1.15426,1.78446 0,0 z m 12.177762,-0.67364 c -1.29254,-0.63966 -0.0198,1.97791 0,0 z m -4.70032,-0.90316 c -1.51276,-2.95375 -3.69084,1.79473 0,0 z m 2.47255,0.1437 c -2.07017,-1.28206 -0.0739,1.12486 0,0 z m 3.43959,0.0156 c -0.34313,-1.51698 -0.81456,0.93905 0,0 z m -9.525,-0.92604 c -1.34707,-3.29539 -2.245395,3.29517 0,0 z m 7.14375,-0.67028 c -2.10431,-3.53638 -2.86497,1.41653 0,0 z m 3.96875,-1.64178 c -3.51289,-4.29757 -2.30692,4.73226 0,0 z m -7.14581,0.51051 c -1.99322,-3.94974 -3.29499,2.82688 0,0 z m 10.4531,-0.94656 c 6.17799,-1.12137 -0.86678,-10.87791 0.75258,-3.64079 -0.61036,0.23893 -5.74514,7.02033 -0.75258,3.64079 z m -6.65006,-0.61559 c -2.63641,-6.11073 -2.54897,3.50525 0,0 z m -3.40411,-0.75295 c -0.0975,-0.91005 -0.72666,1.01579 0,0 z m 7.75745,-1.22108 c -0.9099,-6.59027 -4.51583,4.48448 0,0 z m -3.65641,-1.17579 c -1.32617,-1.57936 -0.92017,1.95292 0,0 z m 10.84792,-0.37495 c -1.04941,-1.88462 -0.87075,2.61991 0,0 z m -6.23554,-1.99068 c 1.36265,-4.85069 -4.20868,2.39921 0,0 z m 7.43233,-0.0194 c -0.7083,-3.81721 -2.18127,2.01871 0,0 z m -2.41572,-1.19284 c -2.9574,-1.91942 3.58856,-5.06875 -1.30568,-3.27908 -2.39567,1.53051 -1.56291,4.17103 1.30568,3.27908 z m 5.36905,-0.15677 c 2.21117,-4.18782 -2.97494,1.075 0,0 z m -1.88767,-1.40059 c 0.83887,-4.98312 -3.59691,2.37388 0,0 z m 3.51065,-1.52985 c -1.26322,-2.25761 -1.0822,1.60633 0,0 z m -2.74087,-1.69403 c -3.36847,-1.81424 1.08786,1.92985 0,0 z m 3.72552,-0.3741 c -0.8451,-3.08719 -2.58488,1.31347 0,0 z m 3.18061,-1.5432 c -2.38861,-1.29865 -0.30162,3.42531 0,0 z m -5.7712,0.0835 c -1.33519,-0.33295 0.0514,1.60794 0,0 z m 3.50576,-0.60896 c -1.40212,-2.31877 -2.09506,0.61715 0,0 z m 5.52815,-0.26459 c 1.97402,-2.6082 -2.57044,1.38399 0,0 z m -1.67897,-1.11334 c 0.13787,-5.55279 -3.74252,3.04442 0,0 z m 3.47031,-1.41284 c -1.85459,-1.65337 -0.17682,1.9871 0,0 z m 4.18091,-0.33137 c 1.38259,-4.03974 -5.41891,0.92506 0,0 z m -6.47332,-0.87704 c -0.95689,-1.11518 -0.95689,1.11518 0,0 z m 3.44803,-0.94824 c -0.27535,-4.28555 -2.63888,2.84856 0,0 z m 5.20747,-0.54392 c -2.23979,-3.39326 -4.76508,0.45484 0,0 z m 3.2639,-0.49901 c 1.99371,-3.06744 -3.4573,1.16739 0,0 z m -2.12981,-1.67281 c -2.40621,-3.59908 -4.19897,1.12686 0,0 z m 5.27484,-0.1522 c -1.75772,-4.36264 -5.51027,0.79651 0,0 z m -3.96124,-1.98726 c 0.3813,-2.67195 -2.99717,1.88654 0,0 z m 5.36234,-0.44325 c -1.47389,-4.79825 -5.07967,2.55917 0,0 z m 5.42874,-0.96184 c 0.50363,-3.95784 -3.29836,2.32922 0,0 z m -2.44739,-1.25814 c 0.59372,-2.70759 -1.60777,2.92554 0,0 z m -1.57478,-0.55375 c -0.0196,-3.34411 -2.69964,2.59666 0,0 z m 7.45088,0.19043 c -1.15315,-0.85343 -0.42486,1.63229 0,0 z m -1.77506,-0.83361 c -1.34037,-2.47245 -1.54499,1.53644 0,0 z m 5.70248,-0.8209 c 3.18149,-3.21144 -3.44264,1.54862 0,0 z m -1.46915,-1.84793 c -2.24294,-0.89426 -0.32035,3.08563 0,0 z m -3.57187,0.69076 c -0.94548,-1.11104 -0.40286,0.98776 0,0 z m 9.22845,-0.94543 c 3.54852,-3.77709 -5.53409,1.31958 -0.1943,0.0825 z m -7.83926,-0.17905 c -2.54195,-2.70053 -0.0894,1.4373 0,0 z m 5.88685,-2.23896 c -2.52526,-0.24024 -0.42889,3.74701 0,0 z m 5.29698,0.31434 c -0.79851,-4.06643 -5.27006,1.03881 0,0 z m 3.1726,-1.51496 c 1.82347,-4.14095 -2.31302,2.93159 0,0 z m 2.58527,0.44577 c 2.6308,-3.18045 -4.62598,1.59983 0,0 z m -4.22101,-1.19914 c -0.28678,-2.63881 -2.39999,1.8596 0,0 z m 7.98283,0.0258 c -0.33432,-0.93213 -0.61712,1.10605 0,0 z m -1.5875,-0.7902 c -2.11897,-2.58328 -2.87439,0.18377 0,0 z m 4.4147,-0.31425 c 1.18034,-4.10072 -4.31056,1.78832 0,0 z m 5.08252,-0.84646 c -0.91977,-4.10426 -3.898,1.90022 0,0 z m -7.65914,-0.99716 c 0.82544,-2.72076 -3.69755,2.61444 0,0 z m 14.3015,-0.81108 c -3.38903,-2.62787 -3.73413,3.19767 0,0 z m -9.54032,0.20573 c -0.86797,-3.07768 -3.28389,1.38571 0,0 z m 5.52403,-0.92493 c 1.60353,-4.96912 -7.22678,3.44085 0,0 z m 8.11733,-0.28415 c -0.4278,-1.14738 -1.29966,1.33776 0,0 z m -2.31621,-0.30317 c 5.42025,-5.63021 -6.98044,-0.18807 0,0 z m 5.92492,-0.77216 c -0.23317,-5.29822 -5.63927,2.38346 0,0 z m 12.38866,-0.68123 c -2.72722,-5.4651 -5.05392,2.44748 0,0 z m 5.56618,-0.22406 c -2.81977,-3.73972 -5.49999,2.32166 0,0 z m 5.15937,-1.60969 c -3.11407,-2.03089 1.70283,2.76399 0,0 z m -21.29896,0.56924 c 0.54629,-2.41021 -2.78271,1.07129 0,0 z m 12.26931,-0.58559 c -1.44411,-4.90346 -4.31696,2.1633 0,0 z m 5.32548,0.053 c -2.36801,-3.82937 -3.19178,1.14483 0,0 z m -11.02553,-0.17629 c -0.43641,-2.85897 -3.95797,1.87147 0,0 z m 33.23106,-1.83387 c 1.2757,-5.92223 -4.86254,1.07843 -0.83284,0.48188 z m -20.75032,0.53672 c -0.8206,-1.17084 -0.66675,0.99413 0,0 z m 9.525,0.16315 c -1.11943,-0.97631 -1.80454,0.77501 0,0 z m 7.66887,-0.097 c -0.73828,-2.04058 -2.72308,0.91947 0,0 z m -0.21847,-2.75874 c 2.95875,-4.45384 -1.53874,-2.12845 -1.14118,0.60421 z m -3.26696,-0.22814 c 2.79975,-3.89041 -2.75226,-1.10885 0,0 z m 9.45745,-2.49791 c -0.65383,-2.62921 -1.56047,4.69704 0,0 z m -2.98183,0.44949 c 5.73933,-9.33878 -5.96684,2.61943 0,0 z m -8.81941,-1.11627 c -1.61127,-0.89948 -1.00666,3.61934 0,0 z m 5.37025,0.4091 c 4.15865,-6.18171 -4.78047,2.05095 0,0 z m -2.98842,-1.14004 c 2.31879,-4.79199 -3.27766,-1.07316 -0.19145,0.13248 z m 10.16559,-2.6369 c -0.97583,-4.6896 -2.93083,7.34367 0,0 z m -3.68824,0.79836 c 5.69275,-8.6724 -5.94014,2.76296 0,0 z m -3.74764,-0.36019 c 3.10153,-6.42127 -3.79092,-3.32866 -0.88499,0.98787 z m 9.77963,-1.50209 c 3.6034,-5.15387 -3.49825,0.3378 -0.24093,0.18282 z m -2.92174,-0.79375 c 2.84017,-3.81954 -1.36796,-2.4565 -1.03992,0.31201 z m -3.16867,-1.04839 c 4.73254,-7.04149 -5.58241,3.24154 0,0 z m 10.66916,-1.24962 c 5.98097,-5.41668 -4.49558,-1.00523 -1.763,1.85757 l 0.81028,-0.83835 z m -4.17063,-0.39906 c 3.86582,-5.98262 -4.4522,1.43904 0,0 z m -5.23269,-4.00576 c -1.75229,-2.41623 -4.31182,6.57014 -0.18993,1.22506 0.2175,-0.38132 0.16577,-0.80849 0.18993,-1.22506 z m 2.19946,2.45501 c 2.68676,-3.53375 -3.48372,2.19309 0,0 z m 6.88514,-1.14307 c 7.25888,-4.16384 -6.64698,0.71912 0,0 z m -3.76761,-1.2146 c 2.84547,-3.25093 -3.24656,1.69347 0,0 z m -2.46417,-1.0927 c -0.74432,-1.29235 -1.25856,1.91751 0,0 z m 4.96586,363.95965 c -2.82628,-3.12878 4.65114,-12.74464 1.19304,-4.92367 -0.75266,1.16947 1.11068,5.44926 -1.19304,4.92367 z m 16.38456,-0.47297 c -3.16584,-2.87243 3.89043,-13.22365 2.37821,-8.72881 -2.30927,2.39026 0.24686,6.74885 -2.37821,8.72881 z m -76.85532,-2.11502 c 2.58116,-6.22826 5.64406,-0.30806 0,0 z m 236.00601,-0.099 c -11.80753,-7.27691 -26.15883,-7.45076 -39.00379,-11.9278 -7.37647,-1.79355 -15.23259,-2.09319 -21.9968,-4.743904 -9.17377,-0.30937 4.42532,-2.07527 7.2318,-0.54821 10.41086,1.794384 21.12852,0.80489 31.43962,3.502434 7.25473,2.06489 16.29715,3.27407 21.76919,8.11293 -3.01242,1.1691 -12.67289,-3.71795 -4.74518,0.14698 1.26191,0.13701 8.11723,5.73705 5.30516,5.45757 z m -6.75778,-8.0776 c -11.78587,-4.6896 -24.45889,-7.27156 -37.16073,-7.14208 12.55034,1.26705 24.94438,5.07907 37.16073,7.14208 z m -34.80152,-5.93357 c -3.77837,-0.88469 -5.05441,0.27249 0,0 z m -186.94072,12.66844 c 1.68225,-3.79533 10.66531,-9.33512 1.47875,-9.90398 -4.43506,-0.90538 -17.13084,-1.56662 -9.81906,-8.097984 8.00729,-4.59394 -5.98456,5.732544 2.42962,5.001684 8.41963,0.7327 15.89104,5.62082 24.72106,3.3956 4.41632,-0.30987 6.67105,1.75147 1.03113,1.60413 -7.79311,-1.96587 -14.53798,1.65744 -19.00237,7.8628 z m -8.56433,-2.18276 c -0.84123,-4.0953 9.50465,-9.55148 2.92065,-3.30287 -0.8425,0.51813 -1.74434,5.44601 -2.92065,3.30287 z m -9.26041,-3.74682 c 1.10573,-2.5591 10.20599,-6.76963 4.38169,-1.78017 -1.35025,0.35789 -2.91596,3.09273 -4.38169,1.78017 z m -2.5535,-2.55098 c 0.18389,-4.15798 9.13283,-10.010244 3.15242,-3.03338 -0.84118,0.94908 -1.41531,3.73433 -3.15242,3.03338 z m -77.953971,-0.72887 c 0.0777,-2.96726 2.864561,1.38298 0,0 z m 109.607431,-1.98872 c -2.09572,-1.43684 -10.91927,-4.684804 -4.01531,-5.567544 4.19096,-5.29025 1.36063,0.002 0.80526,2.099564 1.23042,1.5525 9.7455,4.82084 3.21005,3.46798 z m 29.53528,0.59254 c 1.83656,-1.7975 -1.12521,-7.192524 1.65888,-6.914234 0.2862,2.0665 2.19414,7.309344 -1.65888,6.914234 z m 21.43429,-0.59082 c 2.91858,-4.195014 7.18809,-0.63751 0,0 z M 111.6258,102.97971 c -5.25516,-1.96031 4.27256,-5.436184 3.92689,-2.57433 3.46362,-0.542184 11.51178,-4.654284 9.73051,-6.387534 -7.59757,3.44897 7.81133,-9.50688 5.43634,-0.24813 -5.76803,9.031924 7.81131,-0.55912 10.24727,-3.33201 2.17993,-2.56135 11.87982,2.69507 7.86697,-2.39553 -3.96935,-0.33429 -14.09279,-3.39591 -13.90088,-4.84496 6.65415,0.91051 17.16429,0.462 19.25472,7.95087 5.88531,1.35664 12.05829,-2.10352 16.77336,1.27325 -3.08959,-1.13929 -13.16181,0.89898 -8.25516,4.42589 2.7418,-2.18815 7.68607,-2.54699 2.98536,0.99217 -6.22673,2.331994 -16.28349,-1.27906 -19.8829,3.567644 1.35341,-4.048364 0.93356,-9.043334 -2.84659,-3.431994 -1.63567,2.334104 -9.96807,6.574604 -5.02016,0.96933 -3.91795,2.893664 -7.3124,2.973004 -3.68903,-1.57699 -6.13116,3.347094 -12.42026,1.2388 -18.2556,4.294724 -1.38249,0.60501 -2.77101,1.55306 -4.3711,1.3176 z m 25.467,-5.270504 c 4.58254,-0.44771 11.47517,-7.81496 11.56578,0.19882 5.37533,-6.7658 -5.60713,-7.86178 -8.79721,-3.00439 -1.51286,-1.24072 -5.90771,5.543124 -2.76857,2.80557 z m 22.83407,-0.52523 c 1.08487,-5.24544 -5.16698,-4.67282 -5.16393,-0.28711 -0.908,2.10173 4.18301,-0.44263 5.16393,0.28711 z m -31.45825,-1.95418 c 4.70222,-9.24843 -5.73327,5.926444 0,0 z m 25.62281,0.78391 c 1.79807,-2.26337 -4.16697,2.69172 0,0 z m -0.19317,-2.78395 c 3.02321,-3.0131 -4.08637,1.899 0,0 z m -2.2941,-0.51739 c -0.10223,-2.03264 -0.77871,1.38169 0,0 z m 0.64969,-2.87343 c -0.59141,-3.6815 -0.93992,4.08745 0,0 z m 92.83221,12.610444 c 1.18825,-4.253674 12.22381,-2.641224 10.23241,-2.41243 -3.42532,0.74135 -6.74868,1.94406 -10.23241,2.41243 z m 5.37985,-1.54247 c 3.03484,-1.625314 -6.95012,2.0762 0,0 z m -32.41146,-1.956434 c -4.86359,-0.13067 -5.08463,-6.63898 -0.879,-1.53015 2.61943,2.973264 14.06789,-3.36236 7.14354,1.68847 -1.99607,0.76473 -4.31405,0.73257 -6.26454,-0.15832 z m 78.84584,0.0818 c -7.40323,-2.98805 3.21664,-8.5938 2.7993,-13.44774 4.15474,1.86544 -9.04587,13.15931 0.57556,11.35344 3.43159,-0.50277 7.05755,-5.65911 3.53644,0.14484 -1.92895,1.45232 -4.48756,2.34039 -6.9113,1.94946 z m -39.31878,-0.2391 c -4.13666,0.20416 -13.36927,-8.61784 -5.00622,-2.37885 2.92137,0.37587 15.40925,2.36541 6.20625,2.55582 z m -47.31562,-4.43566 c 2.59487,-4.40475 16.93142,-6.32026 6.41811,-1.84587 -2.03761,0.87956 -4.16417,1.80546 -6.41811,1.84587 z m 106.10501,0.22703 c 2.11593,-2.74611 10.58492,-8.09929 4.49272,-1.85056 -1.21466,1.02009 -2.75206,2.51729 -4.49272,1.85056 z m -63.25693,-0.15827 c 1.58504,-2.23523 3.33465,-2.02216 7.28236,-1.74415 -2.14018,1.20175 -4.82633,1.96737 -7.28236,1.74415 z m -28.51108,-0.92625 c -1.83977,-4.08653 7.43414,1.30282 0.21089,0.0578 z m 81.71987,0.0335 c -3.80285,0.79255 -6.80198,-4.65946 -1.48272,-1.88172 3.1294,3.25955 13.33091,-8.20062 7.29923,-0.81572 -1.64495,1.2759 -3.4836,3.38215 -5.81651,2.69744 z m -116.00855,-1.1812 c 0.99177,-2.80512 -6.58379,-4.01241 -0.16352,-3.78838 1.53162,0.39317 3.3119,5.43725 0.16352,3.78838 z m 61.40345,0.3103 c 1.41669,-0.35092 0.58575,0.45761 0,0 z m -2.14998,-0.50599 c -4.37625,-2.25 4.01944,1.21079 0,0 z m 31.37183,0.12896 c 3.61044,-2.24291 12.18634,-3.21947 13.89782,-2.88087 -3.9556,2.89976 -9.24551,2.5727 -13.89782,2.88087 z m -84.1375,-0.51096 c 4.48157,-0.50893 -1.75325,-9.14528 2.08917,-4.70971 1.52742,2.08331 1.81233,6.27332 -2.08917,4.70971 z m 148.21168,-0.0628 c 0.40803,-6.98326 -10.18285,-11.13423 -11.663,-10.33303 5.70302,-4.51196 14.55997,5.41156 12.0474,10.57246 z m -143.69413,-0.37383 c 4.22899,-5.28482 1.64391,-10.0242 -4.77749,-7.11809 -3.34161,3.07968 -8.43482,0.73453 -4.69192,-3.25309 2.08078,5.03681 9.59876,0.0857 13.98386,0.7925 5.69099,-0.8013 14.36829,-5.44541 18.3635,-3.55471 -4.18057,1.43231 -11.53578,1.34145 -9.65225,7.77264 -3.19314,3.58077 -3.32131,0.31797 -0.77642,-1.79573 -1.60793,-6.87821 -11.73788,0.37912 -10.39685,5.80178 -0.20317,0.85272 -1.13904,1.69017 -2.05243,1.3547 z m 78.6025,-2.09531 c 0.89279,-7.98612 4.89603,-1.47 0,0 z m -25.99185,-0.55592 c 1.50645,-4.12998 -12.55438,-1.72493 -4.14365,-2.79046 3.31584,0.80738 15.6532,2.71539 6.60304,3.0319 -0.82457,-0.003 -1.65261,-0.0662 -2.45939,-0.24144 z m -65.50943,-2.4656 c -2.28496,-3.81609 3.17819,-6.86218 1.0994,-1.27845 0.13027,0.58568 -0.1902,2.58721 -1.0994,1.27845 z m 115.89869,-0.24662 c 2.16195,-3.03232 16.3752,-1.58349 7.35075,-0.0673 -2.44809,0.21882 -4.90484,-0.187 -7.35075,0.0673 z m -62.25408,-0.1928 c 3.20849,-1.16699 11.15603,-5.26172 3.73013,-0.95639 -1.12208,0.61022 -2.3941,1.30429 -3.73013,0.95639 z m 27.37919,-0.42275 c 4.22027,-3.95012 15.63294,-4.21882 17.54186,-3.15899 -5.73444,1.39542 -12.11201,1.5597 -17.54186,3.15899 z m 24.23623,-0.61315 c 1.75167,-2.97958 10.4232,-1.89843 5.62042,-5.94216 0.30384,-2.93315 8.56474,-6.77992 1.54559,-6.32686 -2.32288,-1.31796 -13.30671,0.47483 -10.26889,-1.89519 10.75297,-0.51848 21.18296,3.0263 31.92144,2.83784 4.42684,0.86199 3.85527,1.67814 -0.0731,2.79989 -2.16399,2.51641 -10.02808,7.88419 -4.55187,2.02534 3.40457,-1.83268 4.71456,-4.59777 -0.50196,-3.68569 -5.09634,-1.5405 -16.01551,-1.72876 -15.80011,4.50349 5.20845,-1.90249 2.03,0.84114 2.49729,1.85895 2.14091,0.3296 3.64069,-3.58858 2.79679,0.68403 -3.467,3.0578 -8.82265,1.56491 -13.18562,3.14036 z M 88.07789,84.175006 c 4.496744,-6.49233 14.31187,-2.34419 19.89318,-7.41918 8.40899,-2.49389 16.92532,2.03054 25.48704,0.4223 12.68932,-0.1545 25.45165,-0.35694 38.09276,0.6033 7.64852,4.38431 -8.95991,0.8508 -12.10953,1.34604 -4.69609,4.44214 -14.88377,-1.95067 -21.94494,0.37584 -2.67789,4.04582 -9.41818,-1.73626 -11.27047,1.83104 -7.65484,1.16239 -15.27036,-0.98141 -22.86475,-0.33747 -5.15661,0.75568 -10.087365,2.64275 -15.28329,3.17813 z m 31.86615,-6.06139 c -3.18273,-2.41969 -10.33438,0.87228 -3.00265,0.20664 1.00294,-0.0211 2.01004,-0.0457 3.00265,-0.20664 z m 188.91573,3.70739 c -2.53815,-5.24312 12.11618,-6.85674 2.81138,-3.34246 -1.06682,0.96213 -1.10944,3.27013 -2.81138,3.34246 z m -71.97182,-0.26974 c 1.03524,-5.42554 -4.96495,-3.3057 -2.58173,-8.78506 1.43791,-2.85648 5.34451,-14.35985 -0.14874,-6.39386 -2.9599,2.45054 2.95751,-4.18191 -0.53144,-5.1238 2.8433,-5.48744 17.04205,-5.91118 16.63055,2.45572 -0.72053,5.20185 3.90013,11.17132 0.66169,15.65599 0.94053,-6.42298 -2.85582,-16.05051 -5.38633,-5.1484 -0.32911,5.82306 -7.14947,5.97549 -8.51221,5.04198 -0.10069,0.50912 0.9389,2.20297 -0.13179,2.29743 z m 6.01853,-2.81511 c 0.40896,-6.77782 -2.92334,3.60791 0,0 z m -4.396,-0.97161 c -0.43187,-4.66426 -0.98362,4.12788 0,0 z m -1.89225,-1.66327 c -0.54752,0.43761 0.65674,1.27419 0,0 z m 3.15045,-0.61625 c -1.5237,-2.27486 -0.5199,1.80822 0.11988,0.9668 z m 1.02348,-0.53684 c -1.02943,-4.17654 -5.26863,-0.24932 0,0 z m 2.68912,-1.05523 c -2.13891,-0.59871 0.85643,3.2655 0,0 z m -7.51027,-0.7329 c -1.56905,-0.69516 -0.11358,3.7541 0,0 z m 6.20897,-0.21725 c -0.62238,-0.14891 0.57095,1.46482 0,0 z m -1.31765,-0.4254 c 2.41759,-4.15342 -1.81537,-0.50767 0,0 z m -1.37358,-1.11839 c -0.74402,-3.2977 -3.43672,2.63948 0,0 z m 5.15633,-0.0602 -0.46568,0.0823 z m 2.64583,-2.37088 c -2.10474,0.40271 -0.23424,2.5202 0,0 z m -8.92794,0.19793 c 5.54569,-3.49655 -4.46551,0.66398 0,0 z m 6.05436,-0.38796 c 0.6432,-3.24944 -5.77934,1.61163 0,0 z m -4.04805,-0.6927 c 0.9954,-3.17209 -1.91071,2.53587 0,0 z m 6.65705,-0.38442 c -1.27431,-1.15771 -1.27428,1.15772 0,0 z m -2.54828,-0.65661 c -1.18049,-0.93472 -1.40319,1.53451 0,0 z m -1.82494,-0.84826 c 2.35016,-2.73408 -3.72342,2.0258 0,0 z m 6.75447,-1.09849 c 0.31249,-3.31644 -4.66603,-1.86993 -0.61986,-0.10506 -3.85472,-0.3856 1.28708,3.01848 0.61986,0.10506 z m -9.12813,1.01586 c -0.9781,-1.30588 -1.89331,1.61602 0,0 z m -0.46302,-0.55795 c 1.32434,-3.40304 -3.9925,2.51775 0,0 z m 0.2181,-3.27557 c -0.85191,-1.02983 0.2884,-0.62896 1.00641,-3.37189 -2.14332,1.70107 -6.27795,10.20181 -1.00641,3.37189 z m 5.17655,2.49566 c 1.7335,-1.58197 -4.47376,1.65273 0,0 z m -3.21183,-2.15834 c -1.29412,0.0185 -0.83179,2.33017 0,0 z m 1.32857,0.15375 c 3.40444,-3.29205 -3.84989,2.08857 0,0 z m 3.03705,-2.47838 c -2.25936,-1.30559 -3.56902,1.66739 0,0 z m -3.18852,-1.33445 c -2.94747,-0.29599 -1.59388,1.07715 0.23947,0.27305 z m 4.05,-0.71607 c -1.79082,-1.15027 -1.93817,1.63871 0,0 z m -6.55002,-0.33073 c -2.32737,-1.07375 -1.45821,0.59014 0,0 z m 9.26809,23.29368 c -0.88958,-1.74477 2.07723,1.28934 0,0 z m 40.64177,-0.67368 c -4.93137,-5.69179 14.08826,-9.89892 4.20646,-5.68594 -2.05916,1.37122 -2.56152,3.9774 -4.20646,5.68594 z m -101.13111,-1.05651 c -1.30569,-5.77977 3.9739,-10.84916 2.02084,-16.81676 -0.29102,-7.16607 -1.69868,-14.33889 0.35532,-21.40642 1.6067,-8.76327 1.7952,-17.65689 2.81209,-26.50143 -0.42628,-8.2543597 1.84752,-16.2734797 1.52502,-24.5549697 -0.7571,-7.6635603 3.42586,-15.1800203 1.05139,-22.7270603 0.86813,-6.698846 1.56309,-13.182612 1.00583,-19.84222 0.64764,-8.505048 2.66209,-16.851084 2.36145,-25.432875 1.69969,-6.406022 0.27333,-13.518864 3.03884,-19.518982 1.66785,8.732345 -2.73805,17.230348 -1.73181,26.003312 -0.33476,8.028008 -2.72577,15.814799 -1.55972,23.872539 -1.20352,7.981469 -0.78401,15.360276 -1.01518,23.242226 -2.34075,9.73024 -0.62436,19.8965803 -2.98102,29.6112303 0.17684,9.6073997 -1.21202,19.0704997 -1.81525,28.5310697 -2.10907,8.60227 -2.11648,17.34407 -1.18247,26.10118 -0.78274,6.41796 1.07918,14.85779 -2.31715,19.77768 z m 1.47958,-1.42684 c 3.0241,-4.82251 -3.52284,-3.31594 0,0 z m 70.24688,1.82377 c 2.53056,-2.73683 11.30879,-0.98729 3.44155,-0.10417 -1.11368,0.23567 -2.33212,0.62684 -3.44155,0.10417 z m -2.82319,-0.21207 c -5.87474,-1.36639 5.95639,-0.97718 0,0 z m -30.07005,-1.70616 c -2.24408,-5.90805 3.05725,-0.52107 0.56789,0.75717 l -0.49686,-0.33018 z m 41.08445,-0.48062 c 2.11164,-3.03109 9.02717,-3.38837 2.7546,-0.57872 -0.80969,0.40799 -1.80772,1.19896 -2.7546,0.57872 z m -21.58527,-0.31739 c -5.13453,-5.89498 1.76164,-2.2358 0,0 z m 83.50864,-1.48021 c -3.87981,-7.3432 -7.05704,-15.03186 -12.1792,-21.63434 -8.5476,-15.41278 -15.73539,-31.54124 -23.33794,-47.4272697 -5.48588,-13.16456 -10.71006,-26.5274903 -18.21134,-38.7008103 -5.91652,-11.36914 -11.51971,-22.88469 -16.29942,-34.776678 -2.83037,-7.784691 -8.66787,-14.117857 -10.24055,-22.420069 0.25586,-4.579549 -6.09875,-10.822069 -4.43486,-13.312519 6.48044,6.810966 5.4398,17.520235 10.84699,25.06788 4.88304,7.416616 7.11569,16.03925 11.05163,23.933866 5.86346,13.896113 13.91668,26.69122 20.47353,40.24453 8.09311,21.4334103 18.60253,41.84872 28.76168,62.34856 3.544,6.3937 7.61077,12.47566 11.67005,18.54872 2.55208,0.78021 0.50967,10.5918 4.55384,5.5739 -6.00051,-4.32726 5.29799,-1.63973 0.38253,2.30508 -0.73874,0.85047 -2.16968,1.04902 -3.03694,0.24915 z m -102.79044,-1.82282 c -4.96596,-1.27004 2.2301,-3.68161 -2.19045,-5.52133 2.16456,0.60213 0.98863,-5.5483 2.51478,-1.29242 -0.38021,2.19829 1.24013,4.90324 -0.32433,6.81375 z m 46.84636,-2.92857 c -6.00122,-3.88846 4.87336,-7.91496 2.68468,-2.03974 -5.81644,-2.04819 0.7167,1.52007 -1.38089,3.05268 -0.61411,0.0524 -1.09716,-0.49908 -1.30379,-1.01294 z m 10.56804,-2.9758 c 2.86427,-4.83953 -12.36459,-8.19203 -2.01661,-6.48738 4.77631,0.013 2.80399,13.69422 2.01661,6.48738 z m -11.37407,-3.92004 c -7.27756,-3.10687 3.84538,-10.42691 2.97014,-1.74739 0.11108,1.56651 -1.58655,2.79103 -2.97014,1.74739 z m 1.31358,-2.08184 c 0.34551,-5.2046 -3.57857,0.54068 0,0 z m -5.73974,0.8985 c -0.48226,-2.68981 -4.44495,-6.89119 0.90399,-6.76858 -2.56517,1.26258 2.44661,9.01606 -0.90399,6.76858 z m -9.0706,-2.44272 c -5.5959,-3.14221 3.29615,-1.37179 1.61466,0.64537 l -0.5615,-0.1491 z m 1.0015,-3.02254 c 0.42584,-2.74031 0.75833,2.08851 0,0 z m -21.60474,-1.20447 c -1.61939,-2.60113 -4.89635,-14.62076 -0.94528,-6.6272 0.45269,0.47407 2.86778,8.72184 0.94528,6.6272 z m 25.01212,0.29843 c 4.45845,-2.18763 8.52416,-7.90959 2.87462,-10.83228 0.70366,-1.67199 1.53645,-6.3713 -0.56271,-3.86012 -1.49749,-4.89989 3.08587,-7.84147 -1.38197,-11.35882 1.0819,-4.5784 -4.51561,-14.91473 -0.98155,-15.42488 1.52865,7.5557 1.70547,15.9045 7.8027,21.34796 1.4922,3.93763 1.0484,10.62112 -0.84423,10.18284 0.10216,4.56299 -1.24024,9.21665 -6.90686,9.9453 z m 6.57273,-11.09237 c 2.65073,-2.83532 -0.95974,-14.39416 -2.54881,-7.72277 -2.33574,-2.14095 2.30061,5.57801 1.19185,7.85694 l 0.49685,0.31343 z m -14.66144,10.83982 c -4.22541,-3.11124 3.53105,-13.51904 3.1505,-9.60517 -2.26683,2.28562 3.17218,2.89189 -1.67518,2.52663 -2.68233,1.37845 0.86484,6.05978 -1.47532,7.07854 z m 16.5562,0.01 c 1.13103,-2.69495 -2.52286,-7.23629 1.55905,-5.77123 -0.9815,1.78016 2.71243,6.56267 -1.55905,5.77123 z m -468.88576,-0.17116 c 7.40016,-2.37302 -5.75165,-3.79199 -8.23264,-3.93525 -7.65239,0.74419 -15.14706,0.74948 -22.71667,-0.50835 -6.02562,-1.5345 -11.80015,-3.82129 -18.05382,-5.65541 -6.2794,-2.54012 -8.71213,-9.9794 -15.37166,-12.7456 -1.51787,-4.63892 0.31655,-7.06586 -4.06719,-8.04768 1.71761,-0.55151 -2.18572,-2.70011 1.18801,-4.31586 0.47906,-2.63767 -5.61405,-5.16648 0.51063,-6.66525 4.74933,-2.52056 10.89037,-3.84488 14.64363,-6.8069497 2.40078,-3.0896 12.31164,-1.98905 17.37325,-4.78685 5.51039,-2.77815004 11.65872,-3.24716004 17.69726,-3.96151 7.32922,-1.52137 14.34575,-4.59655 21.96636,-4.4475 4.06545,-0.53206 6.06206,1.31644 0.65389,1.34516 -9.74785,1.30037 -18.96249,5.16731996 -28.76192,6.23425 -8.06234,2.31985 -16.40965,3.83389 -24.267,6.54667 -4.4502,3.2542597 -13.06076,5.7044397 -13.89173,8.6821497 7.19837,2.65351 -1.79571,3.82612 -1.38083,6.19971 1.07,0.77209 4.12771,3.26401 0.55587,3.09602 3.75236,1.9194 -1.46644,6.97306 4.53758,8.34012 5.85923,2.50174 4.05618,8.66171 11.089,9.21929 13.10271,5.97851 27.62956,2.27545 41.40532,3.44745 4.17393,3.36567 -7.27526,-1.50397 -7.68657,2.21695 9.03102,1.22842 18.14094,3.40883 27.23792,1.56003 8.42247,0.58613 16.81703,0.46638 25.21596,-0.43491 6.98878,-0.0716 13.78442,1.07527 20.61504,-1.15667 10.03514,-2.97605 20.78144,-0.53311 30.88922,-3.47648 7.762264,-0.39307 15.42791,-3.76468 22.584509,-4.15349 7.861176,-0.98064 15.564743,-3.1347 23.393186,-4.47656 7.656271,-2.98634 15.132094,-2.61518 22.281583,-6.06722 3.334769,0.2804 5.994713,-1.18376 5.741127,-2.84802 3.294039,-2.25526 6.472583,-0.4982 6.921983,-3.84022 6.647411,3.37382 8.685326,-9.02452 3.010463,-12.26297 -3.958507,-7.2562997 -13.29787,-4.8228197 -19.763064,-9.6708597 -7.767908,-4.76144 -17.048288,-5.41613 -25.559707,-8.08762 -4.211125,-3.84681 7.191547,0.73661 9.421274,0.4107 8.436848,1.32584 16.058649,5.28110996 23.491508,9.30152 6.514715,2.12094 13.114204,2.30831 15.698272,10.0501197 1.679062,4.23874 8.7546143,8.11205 1.425672,10.15098 -5.979157,5.5787 -13.90106,7.44578 -20.935212,11.14681 -7.090658,3.19354 -14.725579,2.17122 -21.77366,6.1328 -7.200995,3.34617 -15.191253,3.25768 -22.765923,5.08088 -3.27931,0.78107 -4.075267,1.33875 -0.460175,2.20451 -7.421911,1.30069 -15.103592,2.68322 -22.469406,4.83963 -1.53944,-2.08693 5.978244,-3.10013 -0.61058,-2.19836 -7.84199,0.35482 -15.72373,-0.38434 -23.49333,1.10771 -13.40949,-0.0817 -26.7682,1.25927 -40.13136,2.03473 -7.80831,0.24365 -15.63596,0.68725 -23.42227,0.94238 -1.23318,0.17651 -2.48391,0.40758 -3.7338,0.25902 z m 21.84413,-2.27238 c 6.47368,-1.32592 -6.82225,-0.59378 -8.98518,-0.23675 -5.11065,1.11952 8.82366,0.52382 8.98518,0.23675 z m -13.64205,-0.3847 c -1.76974,-2.16152 -10.25836,0.29893 -2.57433,0.44528 0.87609,0.008 1.74891,-0.15689 2.57433,-0.44528 z m 22.42367,-0.29279 c -2.9286,-0.35631 -3.73604,1.00593 0,0 z m 21.89404,-0.7543 c -3.43516,-0.75246 -3.27941,1.07164 0,0 z m -74.22886,-0.7462 c -2.71323,-1.17605 -13.88064,-3.65575 -5.86492,-0.97248 1.92209,0.47551 3.8709,0.97365 5.86492,0.97248 z m 93.85446,-1.39531 c 8.22088,-2.19984 16.96511,-0.25164 25.151134,-2.884 8.603892,-2.89233 -6.830924,-0.0554 -9.421024,0.18217 -6.94868,0.82489 -13.94261,1.21043 -20.93592,1.37428 -3.6496,3.44838 4.1283,1.29073 5.20581,1.32755 z m 25.750444,0.0151 c 4.071888,-0.547 12.721626,-1.84945 13.467482,-3.79089 -6.632625,-1.48781 -10.668869,4.05378 -17.283536,3.92173 1.266814,0.13645 2.550704,-0.0278 3.816054,-0.13084 z m -112.704334,-0.40105 c -2.8381,-2.81482 -11.95373,1.22176 -3.69999,0.28198 1.08954,-0.19282 2.83676,0.73387 3.69999,-0.28198 z m 113.696524,-1.44974 c 3.348766,-2.2619 -5.408474,1.21992 0,0 z m 15.768876,-3.16936 c 5.34197,-1.48651 10.917694,-2.40226 15.947506,-4.81838 -3.060641,1.45278 -8.498326,0.79471 -2.31754,-0.39439 -7.88885,1.19814 -17.096999,2.95785 -23.828834,5.51576 3.39284,0.15226 6.822092,0.0584 10.198868,-0.30299 z m 25.439979,-6.60903 c 3.614576,-0.41774 8.488731,-3.30106 1.907359,-1.42658 -2.874006,0.0859 -11.526509,4.24034 -3.648231,1.88936 0.579002,-0.15912 1.159515,-0.31266 1.740872,-0.46278 z m -194.878089,1.01314 c 1.992,-3.17709 -3.87203,0.41446 0,0 z m 184.223099,0.14719 c -0.873863,-0.4234 -0.477503,0.53498 0,0 z m 22.189673,-4.11816 c 6.89908,-2.07329 -7.671302,0.87509 -1.568955,0.45935 z m 10.121676,-2.36244 c 2.722885,-1.82091 -3.199326,0.82764 0,0 z m -223.665748,-4.73662 c -0.40288,-0.98773 -0.94546,1.11104 0,0 z m -4.10104,-5.29167 c -1.13633,-1.55676 -0.3809,1.09485 0,0 z m 5.49011,-3.47739 c 0.36444,-3.63968 -4.84752,2.37629 0,0 z m -5.20477,-2.88372 c -0.16466,-3.55693 -4.73307,2.002 0,-2e-5 z m 519.58436,37.36996 c -0.77325,-2.77504 1.99798,-3.27503 0.25445,-0.5225 0.53017,0.0813 0.67124,2.67207 -0.25445,0.5225 z m -18.61656,-2.43385 c 2.7533,-1.96739 4.11605,-0.80966 0.29111,0.21666 z m -2.35294,-6.76851 c -3.67408,-6.49237 2.76813,-12.80505 1.72853,-18.32286 3.03428,-4.34326 -1.09372,-6.02119 -2.11775,-3.33331 3.15722,-1.80579 3.59852,-6.48582 -0.58774,-3.08769 -2.51873,6.69278 -0.28325,-2.96082 3.9185,-2.61823 0.45515,-2.15388 6.93811,-9.2664497 0.86943,-5.8468 -5.00512,-0.86581 7.87091,-2.8039997 6.70956,-7.1183097 3.28146,-1.08782 3.75238,-0.83667 0.93359,0.98138 0.78972,2.93943 11.23493,-6.66109004 7.8479,1.08732 -2.62763,0.42194 -4.24271,6.5927697 -0.59748,1.55069 -0.35147,1.62853 1.19859,9.3172197 1.2394,3.1141597 -0.53829,-6.5222297 3.47969,-3.3872097 2.50422,1.01884 1.64983,3.89758 -0.86909,5.29246 2.01666,7.46172 1.33749,-5.99487 0.71129,5.9685 -1.73515,7.75949 -3.46742,8.27619 2.00313,-13.91401 -0.64209,-4.22568 0.10438,3.47653 -4.76795,9.52053 -1.7226,2.82025 1.1762,-3.25404 2.27403,-11.35466 0.71106,-11.85002 -0.51629,3.71198 -0.97984,14.9027 -5.1807,12.55751 2.86083,-5.19586 2.29339,-11.6818 1.40519,-16.75867 -2.41733,4.17306 2.03601,8.23424 -2.45169,9.02342 2.50809,2.3656 -1.4781,11.4932 -0.93919,4.22851 -2.73863,1.43104 -4.65077,8.97139 -3.01312,2.22638 2.06143,-2.86551 4.25966,-12.3892 2.96456,-12.45138 -2.52887,3.82439 -2.42199,12.72509 -4.87859,13.15774 2.57654,-8.02808 -5.57302,9.66058 -1.74781,0.36239 1.81128,-4.27193 -4.22224,3.36687 -1.46303,-1.40115 -3.03259,5.15441 -0.14759,-3.81245 -2.22125,0.43753 0.9478,3.15324 -3.38716,8.4104 2.93301,7.90982 4.10926,1.99495 12.56547,4.8425 13.1267,-2.25751 -1.79923,3.83046 4.28954,-0.57561 0.66821,3.2678 -4.33336,5.26988 -12.05116,1.2131 -17.75656,-1.13715 -4.81548,0.30406 -0.0667,8.97879 -2.52177,11.44381 z m 22.04448,-16.21116 c 1.53603,-5.20054 -2.27291,3.32263 0,0 z m 0.46524,-2.9991 c -0.62236,-0.14892 0.57095,1.4648 0,0 z m -4.054,-0.92067 c 2.53119,-5.26085 -2.72682,3.59778 0,0 z m 4.31859,-0.13767 c -0.62237,-0.14887 0.57093,1.46479 0,0 z m -16.84774,-4.38322 c 0.68518,-6.5899 -5.12988,9.36447 -0.89719,2.1734 l 0.50037,-1.06413 z m 0.88519,3.70523 c 2.3357,-6.76183 -2.60424,-0.54945 0,0 z m 16.22713,-0.38034 c -0.62236,-0.14891 0.57092,1.46482 0,0 z m -14.81405,-1.20213 c -0.60625,0.32738 0.72528,1.91312 0,0 z m 11.8019,-2.27143 c -0.72059,-2.98561 -0.66174,5.03323 0,0 z m -8.84909,-2.838 c 1.66728,-3.94689 0.0448,-6.92635 -1.27201,-1.45657 -1.61955,4.62528 -0.81591,8.43891 1.27201,1.45657 z m 7.70771,2.72315 c -0.68824,-2.39261 -1.24027,0.85344 -0.19348,0.69689 z m -9.77451,-1.76469 c 0.84246,-5.63871 -1.9997,6.33022 0,0 z m 5.52662,-0.63217 c -0.8908,-1.83633 -0.18419,4.25754 0,0 z m -8.98917,-1.36022 c -1.24277,0.6489 -0.77399,3.32902 0,0 z m 13.37406,-2.06375 c -1.52447,-2.50125 0.67309,7.49229 0.0383,0.548 l -0.0287,-0.41082 z m 0.57957,2.12169 c -0.60626,0.32738 0.72525,1.91312 0,0 z m -13.31156,0.31197 c -0.11968,-1.10159 -0.67993,1.4804 0,0 z m 2.40408,-1.70606 c -0.73139,-0.5693 -1.16135,3.41434 0,0 z m 7.17563,0.59666 c -1.12661,0.0492 0.81635,1.91645 0,0 z m -7.63582,-1.58287 c 2.00803,-5.4692697 -5.07687,4.63247 -0.004,0.004 z m 5.07804,-1.15337 c -1.78494,-3.6398897 9.10648,-10.5721297 1.79239,-6.7539997 -2.41073,0.66342 -3.42461,12.7251497 -1.79239,6.7539997 z m 1.861,0.59346 c 3.00554,-6.3649297 -2.0661,-0.88254 -0.36674,1.45909 z m 5.73141,-2.08304 c -1.56956,1.03931 0.0595,2.84567 0,0 z m -10.2271,-1.37446 c 2.97388,-2.6209297 0.71069,-1.6077097 -0.73655,0.42454 z m 1.33263,0.77029 c -0.6385,-1.0390397 -0.63853,1.03904 0,0 z m -1.12263,-2.5337297 c -1.41484,-0.14607 -0.10023,1.9340497 0,0 z m -0.4662,-2.29492 c -1.72392,0.11255 -0.82026,2.93839 0,0 z m 10.69917,36.2852997 c 4.45293,-5.221 7.1797,1.6484 0,0 z m 6.84131,-6.8504 c -3.77525,-2.26291 -2.97592,-6.97414 0.12929,-1.85283 0.50936,0.18051 1.37468,3.54827 -0.12929,1.85283 z m -5.36832,-4.92273 c 1.08352,-3.03564 4.77971,-8.31858 2.37802,-2.08742 -0.44818,0.38429 -1.34389,3.31332 -2.37802,2.08742 z m -366.9796,-2.75175 c -1.96853,-7.78312 10.071984,-1.57169 9.127534,-7.9399 3.184278,-5.81534 11.354985,-3.55474 12.987535,0.32757 4.396325,-4.91174 4.964352,5.09134 9.904073,0.60099 4.241903,-0.40402 -0.0978,2.4633 4.481376,0.52499 4.804338,0.69635 6.342926,3.3715 11.357978,2.51602 3.392207,-0.0945 0.738666,-7.30745 6.391484,-7.22972 5.472054,-0.60708 12.511654,-0.48473 17.036927,0.34282 -3.626341,-0.13699 -10.226,3.55142 -12.042264,1.63113 3.238712,-6.51391 -15.915296,5.12304 -3.405075,3.82349 7.321377,-3.48065 16.078962,-2.29892 23.208781,-5.92472 5.549008,2.07023 -2.343483,4.14878 -3.062967,2.11373 -7.848676,4.61052 -17.339931,7.04337 -25.892668,6.68912 -3.535956,-0.58964 -7.762793,0.30286 -10.37144,0.62715 1.396444,-7.24955 -8.473467,-0.73264 -12.628309,-2.9287 -5.479528,2.21706 0.589257,-4.38024 -3.957631,-2.03741 -3.345887,2.42117 -7.624581,4.0423 -4.09916,-1.2079 -3.285475,-3.95573 -6.44963,7.17809 -11.2305,5.66844 -2.469224,1.13396 -5.001724,2.51528 -7.805674,2.4029 z m 59.081256,-4.49636 c 4.654961,-3.12255 -4.830528,1.3908 0,0 z m -47.570656,-2.35992 c 3.663439,-2.73209 2.289557,-4.3659 -1.244886,-1.23452 -1.68486,1.34105 0.13898,2.08715 1.244886,1.23452 z m -28.80686,5.92545 c -2.60637,-15.53681 -2.62845,-31.3841197 -2.65682,-47.08072 1.01318,-6.46705 -0.82716,-14.714568 0.29918,-18.927739 -3.8317,0.88556 -10.3026,-3.236803 -2.62017,-1.62626 9.53155,0.716996 11.6464,-13.038641 17.94281,-18.496418 5.89104,-8.223747 11.770494,-16.463272 17.222845,-24.987516 -11.283545,-6.921879 -23.973825,-11.038899 -35.596335,-17.305633 -12.00114,4.819536 -23.62995,10.624681 -34.4961,17.652428 -2.21817,6.624906 8.70723,9.6983 10.65529,15.767731 4.06798,4.902493 7.82172,12.353502 12.54875,15.367478 -1.49133,-3.752149 -0.81174,-7.487904 3.30839,-4.037453 5.05271,2.402799 13.92457,1.021388 16.79286,3.898379 -2.23751,2.489 -4.08393,0.388868 -4.01725,-0.07702 -4.614,-0.240592 -12.99791,-2.569486 -14.20149,-0.504006 3.91165,6.738541 13.81583,8.518435 18.74718,1.863461 5.17398,-2.09104 -2.8738,-6.53339 3.83674,-5.226122 0.5089,5.47012 -7.89783,12.581234 -13.54782,11.266852 -3.37169,-1.260339 -12.05286,-7.201647 -5.50603,-0.714331 3.56921,3.676691 1.82868,4.963498 -1.31595,0.724311 -9.65789,-9.574705 -16.53364,-21.401746 -25.84769,-31.269908 -4.10096,-7.844172 -13.6113,-2.446536 -20.561,-4.462554 0.2447,-4.885193 12.93967,-2.868708 17.52389,-2.666167 8.01771,-6.471422 17.64603,-10.656909 26.92567,-14.863037 4.71304,-2.815502 9.92309,-6.983092 14.57095,-1.444622 10.24607,5.089663 21.07839,8.995411 30.945726,14.839581 4.295007,-1.447919 -3.109762,8.190463 -3.888242,10.535812 -3.693174,7.753535 -10.416674,13.391252 -14.331604,21.023612 -3.14637,6.2771 -8.33727,10.670058 -11.44515,16.1057 -4.59369,1.895044 0.45567,12.784051 -0.99964,18.211131 0.72227,9.28537 1.7198,18.63402026 2.06142,27.8711103 -3.45448,5.9983797 1.71596,13.5556697 -1.12139,18.6925997 -0.5225,0.51607 -0.85859,0.10714 -1.22902,-0.13068 z m 0.8946,-4.72816 c -1.49338,-7.24168 -0.73301,6.35668 0,0 z m -1.26806,-23.1567297 c -0.31076,-5.60598 -0.0847,-16.1597303 -0.5854,-18.6771503 -0.39537,9.58232 -0.49861,19.21484026 0.6219,28.7555703 0.28264,-3.35514 0.003,-6.72015 -0.0365,-10.07842 z m -1.71321,-13.0530303 c -0.25868,1.00554 0.0836,3.36938 0.0569,0.9826 z m 12.42412,-39.687505 c 4.17793,-5.779904 -1.61577,0.926368 -1.47542,1.918592 l 0.56965,-0.718631 z m 5.17194,-7.011458 c 1.99983,-1.964859 4.965,-7.995515 1.24965,-2.63776 -1.37853,1.370132 -4.36422,6.968993 -1.24965,2.63776 z m -60.6523,-21.76198 c -1.85655,-1.194742 -2.53493,1.213972 0,0 z m 50.40866,108.016153 c 0.98488,-3.2271 7.1378,-1.00309 9.8786,-3.15528 7.06414,0.0944 -8.64597,4.79811 -9.8786,3.15528 z m 381.44758,-12.02201 c -2.50431,-7.8398897 -2.99941,-16.2062697 -6.24784,-23.83243 -1.79079,-10.07012 -5.39223,-19.6786 -6.95889,-29.795861 -2.42324,-9.65618 -3.65682,-19.603368 -6.97904,-29.017563 -1.21836,-9.434204 -4.23932,-18.401876 -6.28029,-27.66113 0.69346,-5.308642 4.1058,5.824813 3.67362,8.285029 2.51692,10.560843 4.70693,21.24718 7.58748,31.735633 3.30144,18.329663 7.66879,36.474562 12.98059,54.3226823 1.06935,4.25044 1.07777,9.80349 4.88381,10.23923 1.22651,6.8702097 -4.1204,-4.27865 -2.1828,2.6517397 0.22828,0.79726 1.54947,3.38609 -0.47664,3.07267 z m -440.23546,-2.01914 c -3.2883,-0.63483 -7.33524,-6.2464097 -2.60351,-5.3215197 3.59569,-0.96272 9.39437,6.0167497 11.02583,-1.80337 5.82298,-7.49173 -0.19051,7.6570797 -4.99496,7.1610797 -1.11333,0.3261 -2.32096,0.31411 -3.42736,-0.0362 z m 3.18853,-1.5847497 c -2.16767,-1.38207 -6.89268,-4.48443 -3.07421,-0.20026 0.95134,0.33082 2.09279,0.6481297 3.07421,0.20026 z m 417.44525,-0.57983 c 1.81238,-4.90511 2.25112,-1.39475 -0.47758,0.60067 z m -320.999468,-2.76019 c -3.405385,1.66066 -13.319977,-4.24676 -8.815149,-4.6819 5.165298,5.65518 15.07294,-0.0187 16.948335,-2.22669004 9.169739,-0.45865 -6.635528,7.55848004 -8.133186,6.90859004 z m -11.56258,-6.28856004 c -0.430112,-11.06729026 0.605623,-22.14201026 -0.04703,-33.21865026 -0.239933,-8.648357 -0.679391,-17.324781 0.104125,-25.959043 2.43726,6.848436 -0.715878,14.635482 0.582047,21.870774 0.01332,12.387859 -0.0059,24.779279 0.424907,37.16139926 -0.299219,0.601 -0.602722,0.40078 -1.064044,0.14552 z m -90.620282,-0.64829 c -3.5367,-8.71765996 -1.26309,-18.35309026 -2.04008,-27.48636026 -0.004,-10.33398 -0.0314,-20.674198 -0.58348,-30.996278 3.2391,4.281197 0.38621,13.249776 1.35,19.252947 -0.0639,12.036731 -0.82776,24.304721 1.13351,36.1707113 0.37475,0.94335 3.36104,3.93474996 0.14005,3.05897996 z m 12.00737,-2.96324996 c 1.11063,-17.5475103 2.84791,-35.1551923 1.30684,-52.7249353 -0.0784,-4.259005 1.41907,-5.987888 1.13181,-0.707629 0.71447,17.97268 -0.66574,35.915334 -1.53168,53.8521643 -0.40418,0.26526 -0.6002,-0.29736 -0.90697,-0.4196 z m 95.934302,-1.27445 c -0.525397,-19.3318203 -1.112159,-38.6640653 -1.250048,-58.0036253 3.274501,7.307674 -0.349826,15.628185 0.877505,23.361536 0.115231,11.601799 0.938432,23.179929 1.32604,34.7729293 -0.325822,0.14671 -0.635472,-0.0918 -0.953497,-0.13084 z m -105.374652,-0.45841 c 1.49668,-4.19158 9.94993,0.40136 2.66485,0.0162 -0.89055,-0.21647 -1.88559,0.75142 -2.66485,-0.0162 z m 14.26732,-1.37549 c 5.17378,-2.1294 11.02103,-1.07612 16.21444,-3.7580403 4.36933,0.8713603 12.82138,-0.70614 14.58173,0.8805003 -7.69318,1.23344 -14.79422,3.71094 -22.80746,3.18648 -2.66564,0.0315 -5.33478,-0.0485 -7.98871,-0.30894 z m 85.110109,-1.73263 c -3.480602,0.27342 -11.659776,-1.9278303 -3.554081,-2.0536203 1.645885,-0.30057 10.363011,1.7007503 3.554081,2.0536203 z m -28.310419,-0.81171 c -3.69205,-0.9556403 -14.15948,1.20119 -12.84984,-1.5876303 8.96809,0.29304 18.3394,-2.03843 27.008919,0.7917403 -4.445505,1.14481 -9.520019,1.19619 -14.159079,0.79589 z m -24.20938,-41.6000693 c -8.53176,-1.336737 5.6345,-3.012358 3.49642,-0.40605 -1.13883,0.353572 -2.33713,0.194141 -3.49642,0.40605 z m 10.78109,-12.119769 c -4.34245,-5.081592 6.93486,-6.774272 2.41092,-2.868207 -2.44169,-0.393312 -0.29127,4.085687 -2.41092,2.868207 z m -22.35045,-0.396875 c -7.04408,-3.05771 7.51508,-9.907427 4.20065,-1.922413 1.31326,2.353683 -2.96997,2.831209 -4.20065,1.922413 z m 2.44124,-1.124479 c -2.65076,-1.332335 -1.27467,1.142027 0,0 z m 51.505558,-0.176398 c -2.908885,-5.958951 -0.0764,-12.473251 0.602119,-18.060343 2.836262,-2.261581 14.938225,-1.104194 5.878937,-1.985466 -2.979856,1.138863 -11.617705,-0.33741 -3.962358,-1.044101 3.48938,-0.555564 13.159029,-0.09309 12.291482,2.606356 -5.414479,0.470907 -15.522779,-0.957383 -13.702495,6.837013 -3.201693,3.19156 1.809325,8.832701 -1.107685,11.646541 z m -77.963898,-1.806655 c -1.67897,-3.527806 -0.97644,-8.23109 -0.96776,-11.681604 2.37226,-0.947376 -0.22505,3.949514 2.42734,4.229509 -2.46661,2.760204 1.26661,7.194166 -1.34087,8.259054 l -0.1685,-0.281139 z m -15.5188,0.252651 c 3.14695,-1.669547 -3.9378,-2.962764 -0.11034,-5.357835 -3.15831,-2.594435 2.70252,-9.911783 0.3225,-3.020865 1.50526,2.359802 2.25903,6.742365 1.48669,8.63135 l -0.93658,0.143965 z m 53.04554,-1.138925 c -3.9491,-0.982548 0.39309,-7.793342 -0.25461,-1.980413 1.53394,-0.901023 2.01657,3.16647 0.25461,1.980413 z m 55.770795,-2.340769 c 1.527249,-3.313591 -1.730534,-12.462382 0.882329,-11.689247 0.333836,3.581074 2.362672,9.123886 -0.882329,11.689247 z M -142.5538,-73.9482 c -4.28334,-4.349126 9.1503,-6.715178 0.77545,-2.592233 -0.70795,1.387393 2.6295,4.793964 -0.77545,2.592233 z m 2.67966,0.09229 c -0.70779,-6.020722 4.94933,2.964153 0,0 z m 18.91796,-0.04781 c -1.73294,-5.77372 4.421,1.570269 0,0 z m 3.47666,-0.358775 c 3.9709,-2.653442 -6.25399,-6.594698 0.91545,-5.308483 1.71229,1.084768 2.1614,6.155184 -0.91545,5.308483 z m -31.96694,-2.22549 c -2.13557,-5.333352 11.75254,-9.076305 8.79927,-5.617987 -3.28305,1.201835 -6.41673,3.029041 -8.79927,5.617987 z m 39.72604,-1.626235 c -0.29534,-3.958645 -13.82806,-3.116823 -8.83392,-5.795818 2.68842,-0.158674 12.65652,1.297777 8.83392,5.795818 z m -48.23072,-6.706513 c 7.79369,-3.029795 16.37422,-0.651884 24.49666,-1.800794 10.21765,-0.382093 20.45853,-0.356975 30.64988,-1.271932 3.319764,2.284396 -7.28541,1.002882 -8.92439,1.90606 -15.0379,1.099532 -30.1849,0.0149 -45.18595,1.505226 l -1.0362,-0.338527 z m 0.42772,-1.59997 c -0.72862,-3.170345 3.05802,0.974385 0,0 z m 1.94988,-1.319953 c 0.44702,-2.812104 2.40182,1.652812 0,0 z m 3.16446,-1.085808 c 0.5044,-2.937886 1.882,2.053504 0,0 z m 2.29399,-0.769239 c -0.7286,-3.170346 3.05801,0.974391 0,0 z m 41.78363,-0.02474 c -0.23963,-2.333682 2.16879,1.028901 0,0 z m -2.44715,-0.747466 c 0.28908,-2.542053 2.0924,1.496792 0,0 z m -36.51243,-0.592619 c -0.78133,-2.964041 2.51844,0.934174 0,0 z m 34.04029,-0.776354 c 0.46195,-2.112291 1.73423,1.611752 0,0 z m -31.18181,-0.647427 c 0.11868,-2.844585 2.47475,1.498868 0,0 z m 28.97971,-0.516496 c 1.21391,-2.115279 1.23011,2.053597 0,0 z m -25.62447,-0.498777 c -1.00006,-2.374669 2.6125,0.583045 0,0 z m 23.33207,-0.709634 c 0.39035,-2.654376 1.86807,1.763055 0,0 z m -2.12008,-0.802666 c 0.46195,-2.112291 1.73424,1.611751 0,0 z m -18.68532,-0.0083 c -1.06621,-3.035931 2.95908,0.496137 0,0 z m 16.20933,-1.034595 c -0.0165,-2.724426 2.49758,1.795701 0,0 z m -12.77645,-1.021252 c 0.57348,-2.373719 1.87419,1.63955 0,0 z m 9.53171,-0.589986 c -1.06623,-3.035925 2.95907,0.49612 0,0 z m -6.13744,-0.359945 c -0.15006,-2.99735 2.74195,0.795224 0,0 z m 336.7436,-0.323506 c -1.42673,-9.499864 4.01675,-1.387869 0,0 z m -4.83225,-0.613206 c -2.77867,-4.168908 3.17564,-4.498948 0.96035,-8.139078 4.12247,-5.51599 -0.68262,-13.63154 2.795,-20.06963 0.10809,-7.26537 -0.20854,-14.39985 1.32628,-21.55702 0.3719,-7.28487 1.34884,-13.6051 1.49435,-20.92795 2.81095,-1.50994 -2.1127,-6.78192 2.49441,-6.68177 1.53636,6.06482 0.19421,13.15881 -0.4949,19.1219 -0.91653,5.901 -0.81741,11.75367 -2.43133,17.42176 -0.51962,7.57995 0.47292,16.12895 -1.43837,23.83622 1.63565,5.5002 -2.1689,13.71492 -2.59293,16.058686 2.13679,1.735595 -1.50102,1.213755 -2.11286,0.936882 z m 3.5791,-13.220468 c -0.98385,-2.28052 -0.6605,2.22205 0,0 z m 1.1429,-6.70146 c -0.96285,-2.05613 -0.56468,2.16258 0,0 z m -0.21686,-3.10374 c -1.8178,-2.75984 -0.88187,3.46538 0,0 z m 0.75592,-15.9627 c 1.32626,-3.18184 -2.12822,0.54768 0,0 z m 1.40925,-11.19881 c -1.12453,-0.57287 0.88202,1.64206 0,0 z m 0.269,-6.29267 c 1.24412,-2.14206 -2.71562,1.40805 0,0 z m 1.59187,-5.5802 c -0.82432,-3.92809 -0.55268,3.29452 0,0 z m 0.14697,-7.38438 c -1.98565,-3.33057 -0.24304,3.69082 0,0 z m -337.36612,69.41454 c -1.10433,-2.25163 2.14832,-0.130316 0,0 z m 365.07541,-1.31927 c -4.42128,-0.62782 -6.62961,-8.4519 -0.39717,-5.23813 1.46793,0.93718 4.86097,6.860874 0.39717,5.23813 z m -0.1,-2.12803 c -1.03986,-1.0121 0.76279,2.05672 0,0 z m -0.47053,-1.6189 c -1.74246,-2.37756 -0.30587,1.95286 0,0 z m 7.34499,-0.91839 c -2.87198,-7.89941 -4.20125,-16.31273 -8.16127,-23.8221 -3.91717,-7.83212 -4.05475,-16.62199 -7.67397,-24.37401 -0.71691,-6.89942 -3.63544,-13.11163 -4.88234,-19.85567 -2.68952,-1.53456 1.08065,5.88423 -0.0808,8.04983 4.66334,5.68061 -0.0616,12.39793 5.4968,16.86112 1.03091,6.70925 1.92375,13.15193 4.33443,19.5545 0.61874,6.31884 2.12717,11.77402 2.49537,17.34108 -0.87619,2.00103 0.98343,2.00406 0.2997,2.96022 -6.56133,-0.16473 -0.85224,-7.43536 -3.96151,-11.56616 1.82541,-4.3908 -4.25031,-6.99506 -2.59173,-12.76408 -2.18936,-6.62763 -0.62392,-12.98988 -4.91919,-18.42657 -2.52852,-7.15771 -2.30862,-14.91972 -4.73397,-22.13491 -2.24015,-2.77908 3.27082,-11.16217 -0.48928,-10.40694 -4.30668,6.25883 -7.09604,-6.99317 -3.14088,-4.65799 1.09374,2.4029 -2.70825,5.3326 1.69342,4.74456 1.34513,-3.07467 -0.0557,-7.90187 2.81456,-2.63033 7.37245,1.52424 2.92551,12.36756 7.07334,17.63991 2.12881,6.61765 2.77956,13.64708 5.43535,20.15602 -0.0657,6.26398 4.34586,11.61802 4.06824,17.91177 -0.58821,5.47442 2.82092,-0.90108 3.34593,4.27313 1.09777,6.93838 2.90892,13.5393 7.61246,18.72159 0.20239,2.10181 -2.32238,3.3128 -4.03468,2.42503 z m 2.67496,-2.30527 c -1.38181,-5.30807 -3.15847,4.79341 0,0 z m -6.40672,-15.83683 c -0.34776,-2.46004 -0.95877,1.68428 0,0 z m -7.79677,-2.39872 c -2.08901,-2.282 -0.0608,2.66517 0,0 z m 7.00302,-0.15892 c -0.59365,-1.45446 -0.24985,1.41672 0,0 z m -8.28593,-2.82774 c -0.62238,-0.14894 0.57092,1.4648 0,0 z m -0.94967,-6.64599 c -1.27134,-0.0998 1.36456,2.3514 0,0 z m 4.80504,-2.10179 c 0.37345,-3.51396 -2.04097,1.57042 0,0 z m -6.32169,-3.50573 c -0.85302,-1.55613 -0.22623,1.47988 0,0 z m 2.01695,-10.91407 c -0.83805,-5.20574 -0.84834,3.72513 0,0 z m -5.55625,-4.24894 c -0.55462,-3.82223 -0.78544,2.4946 0,0 z m 3.72321,0.036 c -1.25952,-2.55666 0.34539,2.01406 0,0 z m -5.04208,-5.09804 c -0.4351,-3.25898 -0.93377,2.76041 0,0 z m 3.96875,-2.11505 c 0.46463,-3.78549 -1.83575,-0.86831 -0.49407,0.60428 z m -1.32292,-3.98598 c -0.33432,-0.93213 -0.6171,1.10605 0,0 z m -0.46273,-1.52135 c -0.0372,-3.98098 -2.35356,-1.41477 0,0 z m -4.13991,-1.05282 c -1.07326,-0.0637 0.71267,1.46198 0,0 z m 2.69873,-6.06681 c -1.1223,-1.98441 -0.34694,2.52658 0,0 z m -3.24414,-2.34642 c -2.50273,-3.27272 0.95164,3.98031 0,0 z m 1.7109,-3.6999 c 1.14506,-5.22741 -3.71725,-0.67677 0,0 z m -7.00426,76.24479 c -1.31231,-8.61483 0.47573,-17.33332 -1.25133,-25.90609 -0.27865,-2.44955 -0.38456,-14.29703 2.15426,-8.05505 0.0332,7.93102 1.33601,15.16196 2.29256,22.66468 -2.41346,4.06207 -1.84932,6.56407 2.32883,8.69712 0.72666,3.77346 -3.1637,2.87376 -5.52432,2.59934 z m 2.93841,-1.23249 c 3.1565,-4.19657 -5.79823,0.29146 0,0 z m -1.77289,-10.99667 c -1.16912,-4.94151 -0.37031,2.00586 0,0 z m 0.54464,-6.80539 c -1.2242,-5.05266 -1.71069,3.76439 0,0 z m -1.47209,-9.79721 c -0.50302,-3.40411 -1.3168,2.7376 0,0 z m -1.75842,-8.92847 c -1.13897,-3.84751 -3.03403,-9.30799 -0.20259,-11.33967 -3.13496,-2.7016 -1.92269,-15.32631 2.18942,-9.36323 -1.58959,3.22575 -3.65342,6.29832 -0.41192,5.309 -0.044,3.59511 0.007,6.52417 -1.4903,10.02618 3.55175,0.75494 4.4715,6.18488 -0.0846,5.36772 z m 1.59954,-1.38759 c 0.94463,-3.22385 -2.44235,0.8745 0,0 z m -0.80137,-8.52604 c -0.74545,0.40903 -0.24573,1.1324 0,0 z m -0.22281,-9.89748 c 1.58852,-4.07271 -3.26128,0.44893 0,0 z m -2.88845,-5.51021 c -0.40931,-3.57007 2.62512,-7.17991 -1.27495,-9.78871 0.34965,-5.00896 2.6227,1.32802 4.10154,2.59464 1.20096,3.7031 -3.7174,5.32316 -1.00757,7.7555 l -0.62803,-0.12105 z m -3.54317,-9.13542 c -4.12967,-10.49429 7.00438,3.12089 0,0 z m -1.32016,-11.47733 c 7.05176,-5.13737 -3.40798,-13.17035 4.16816,-17.74177 2.77517,-2.19345 -0.0115,-13.17377 2.30591,-5.02341 -1.7951,6.08098 5.53698,7.04558 3.96706,13.53116 2.73229,6.32983 -7.37612,0.9413 -6.57902,6.61336 2.78765,-1.8895 13.50195,-1.86515 5.0826,0.0418 -3.04225,0.63981 -5.94896,1.76864 -8.94471,2.57884 z m 9.57027,-6.78336 c 1.62967,-4.79752 -6.04292,-13.32317 -7.08389,-5.43143 -0.0339,3.96044 3.1326,6.89957 7.08389,5.43143 z m -0.061,-6.65863 c -0.58819,-2.1078 -0.35894,1.23365 0,0 z m -7.92483,-8.82589 c -2.56438,-3.69883 6.11463,-9.05204 1.35471,-2.81108 -1.39704,0.83421 1.73753,4.59513 -1.35471,2.81108 z m 6.11055,-2.44775 c -2.07173,-6.81877 6.17057,-0.34379 0,0 z"
       id="path4496"
       inkscape:connector-curvature="0" />
  </g>
</svg>
