<?xml version="1.0" encoding="UTF-8" standalone="no"?>
<!-- Created with Inkscape (http://www.inkscape.org/) -->

<svg
   xmlns:dc="http://purl.org/dc/elements/1.1/"
   xmlns:cc="http://creativecommons.org/ns#"
   xmlns:rdf="http://www.w3.org/1999/02/22-rdf-syntax-ns#"
   xmlns:svg="http://www.w3.org/2000/svg"
   xmlns="http://www.w3.org/2000/svg"
   xmlns:sodipodi="http://sodipodi.sourceforge.net/DTD/sodipodi-0.dtd"
   xmlns:inkscape="http://www.inkscape.org/namespaces/inkscape"
   width="500mm"
   height="500mm"
   viewBox="0 0 500 500"
   version="1.1"
   id="svg5666"
   inkscape:version="0.92.1 r15371"
   sodipodi:docname="curlew pared.svg">
  <defs
     id="defs5660" />
  <sodipodi:namedview
     id="base"
     pagecolor="#ffffff"
     bordercolor="#666666"
     borderopacity="1.0"
     inkscape:pageopacity="0.0"
     inkscape:pageshadow="2"
     inkscape:zoom="0.35"
     inkscape:cx="-63.773773"
     inkscape:cy="593.44813"
     inkscape:document-units="mm"
     inkscape:current-layer="layer1"
     showgrid="false"
     inkscape:window-width="2560"
     inkscape:window-height="1365"
     inkscape:window-x="-9"
     inkscape:window-y="-9"
     inkscape:window-maximized="1" />
  <metadata
     id="metadata5663">
    <rdf:RDF>
      <cc:Work
         rdf:about="">
        <dc:format>image/svg+xml</dc:format>
        <dc:type
           rdf:resource="http://purl.org/dc/dcmitype/StillImage" />
        <dc:title></dc:title>
      </cc:Work>
    </rdf:RDF>
  </metadata>
  <g
     inkscape:label="Layer 1"
     inkscape:groupmode="layer"
     id="layer1"
     transform="translate(0,203)">
    <path
       style="fill:#000000;stroke-width:0.26458332"
       d="m 184.02285,244.45015 c -0.59609,-1.95199 -2.16128,-10.99309 -2.53974,-4.40147 -2.88751,2.45699 -1.72828,-5.38584 -2.86479,-7.23315 -0.32551,-3.03991 -1.2373,-9.94365 0.8572,-9.96796 0.66923,-2.75737 -2.73654,-5.4555 -1.4539,-1.02726 0.7561,3.18682 -2.56571,3.81764 -1.46109,0.32143 -0.23378,-11.28402 2.2319,-22.43129 1.97375,-33.716 -1.84461,-6.17647 0.45019,-12.86948 -0.29487,-19.12847 2.15858,-6.16998 5.41492,-11.83167 6.89409,-18.1878 3.91257,-6.56763 7.92174,-13.10892 10.18344,-20.47496 3.22916,-5.11626 4.75681,-11.3365 8.95822,-15.81659 4.09557,-1.84448 1.6081,-11.37441 6.90587,-8.22558 3.69599,-2.21923 3.53408,-11.524398 6.45373,-11.207474 0.11355,6.725674 3.01415,-6.403783 5.8757,-7.315989 6.12073,-6.759561 15.42261,-8.977953 22.58039,-14.303993 5.70619,-2.653293 12.96014,-2.042636 17.55828,-6.900721 6.19506,-4.783689 12.98112,-8.876913 20.16899,-11.930586 -4.12611,3.705898 -11.37271,6.657249 -16.31532,10.606659 -2.20943,1.339288 -8.81124,5.919013 -2.56471,2.622063 7.03868,-2.116945 13.96811,-4.436624 19.97835,-8.766159 6.06542,-2.676441 12.92033,-2.633944 18.84184,-5.715461 5.17729,-2.260653 10.74754,-3.543791 16.02984,-5.353978 8.51675,-4.250537 18.1116,-5.513467 26.94457,-8.886554 -0.62039,-1.28176 -7.32236,-1.473884 -10.3311,-2.354771 -2.55246,-1.093865 -11.81179,0.07852 -6.28585,-3.39669 5.97771,-2.197301 12.56078,0.279381 18.73656,-1.240998 3.47457,-1.806753 -10.30515,-2.540179 -3.8269,-3.876132 1.79925,0.67361 11.46978,1.114636 5.24058,0.07111 -2.51739,0.391015 -7.10562,-3.107126 -1.98487,-2.122479 6.80889,1.114554 13.55095,2.652075 20.41291,3.429496 -5.78913,-1.905729 -11.00392,-5.35825 -16.87036,-6.895006 -3.81362,-0.706739 -12.19142,-0.886265 -13.2501,-0.62562 3.4869,1.096412 12.96887,0.2453 12.58797,2.500843 -7.47067,0.218969 -14.84551,-1.515939 -22.25516,-2.279975 -3.11277,-1.234033 -10.43423,0.04369 -11.11957,-2.731785 2.51868,-1.421933 -4.86011,-1.654544 -6.09416,-2.099722 -3.3999,-0.232228 -11.55302,0.03527 -11.98343,0.226597 7.37054,2.01912 -5.55977,2.704063 -6.18845,-0.768198 5.72442,-1.985248 12.55419,-0.372583 18.62633,-1.938851 3.18849,-0.917999 10.73112,0.710042 11.14123,-0.802584 -9.20342,-2.871378 -18.91499,-0.675425 -28.30033,-0.20696 -14.63256,1.585272 -29.57703,4.421711 -42.29317,12.222893 -2.7347,1.383368 -8.34338,5.343203 -9.89755,3.696475 6.9213,-4.874051 14.61606,-8.63228 22.41599,-11.862675 15.40836,-5.081795 31.75588,-6.843207 47.91954,-7.203625 5.29837,-0.509143 10.15281,0.08168 14.86109,2.467947 11.9753,2.144356 24.23786,1.501016 36.296,3.047462 13.9384,0.953857 27.88453,2.66639 41.36139,6.463163 8.87572,1.945377 17.89144,3.203284 26.72532,5.346935 -1.44948,-2.044038 -9.40894,-1.443554 -11.1584,-5.751302 5.7121,-1.931131 12.38244,3.585087 18.09678,5.454069 6.6963,0.90061 11.57499,6.564382 18.37855,6.981157 5.72667,0.592123 12.70417,6.576695 17.62769,4.118884 -5.46219,-2.736359 -12.1815,-2.588147 -17.32634,-6.437967 -3.25896,-2.258044 -7.61841,-4.056191 -10.69263,-5.463897 1.83359,-1.881647 10.19062,2.865446 4.9996,-0.732846 -3.43199,-3.031616 -7.74124,-5.22405 -12.26635,-5.548726 -3.83492,0.626647 -11.69378,-3.647088 -12.94982,-2.112057 3.05844,2.610241 12.18928,4.709662 11.23133,8.011474 -5.76684,-2.906886 -11.03829,-6.778741 -17.08828,-9.120546 1.19861,-2.495927 -7.7363,-1.224263 -10.29151,-2.124073 -3.56521,-0.70957 -5.06244,2.512057 -0.99549,3.444364 3.27169,0.792335 2.93858,5.429408 0.0631,1.805241 -2.14062,-3.148118 -9.25126,-4.711889 -10.37615,-5.129019 6.79449,-2.730143 14.20353,-1.179049 21.26917,-0.903017 4.07166,-2.383875 8.7914,1.15546 12.83138,0.412762 -4.76283,-2.588906 -11.45213,-5.6883821 -15.72635,-3.989756 -7.70638,-0.667057 -15.44334,-0.857228 -23.17379,-1.142577 3.33864,0.04038 3.13912,-2.313557 0.0949,-2.2684612 C 394.45004,5.9534891 402.4056,7.537763 397.35438,5.7431504 389.7663,3.6384 381.9684,2.2137989 374.78335,-1.1465381 c -5.93348,-2.9480549 -12.41842,-4.6853017 -19.06294,-4.0058973 -2.74294,0.046067 -5.77145,0.1684631 -1.30262,0.5020733 4.756,2.8332133 9.95826,3.78585754 15.17015,5.20451779 5.70855,3.24199501 -5.05942,1.33428441 -6.98846,0.12051387 -4.02378,-1.46063181 -8.24882,-3.32457966 -12.62647,-2.49953736 1.69198,-3.5919067 -6.78858,-0.9082076 -9.03738,-2.1160126 -0.58599,1.3166638 7.03486,1.6078496 9.39671,2.3746576 3.4998,-0.1252581 7.43643,4.1397803 1.80874,4.8703964 -3.26548,0.6996679 -3.86488,-1.4329967 -0.48093,-1.6913736 -0.0342,-2.933944 -7.99976,-1.95297376 -10.81658,-3.5294845 -3.15263,-0.5591263 -10.95323,-0.9388998 -11.24813,-0.3413542 3.64719,1.0341152 13.34698,0.321999 12.46203,4.5624679 -4.79474,0.6183189 3.69389,1.9720072 -0.63122,3.7187298 -6.46294,2.4932802 7.00241,-0.08545 4.37913,3.3778906 -6.21104,-0.3567732 -12.47169,-1.1031001 -18.73643,-1.0775554 -2.73109,-0.2529737 -9.31991,-6.113e-4 -9.57724,-0.944812 2.89425,-1.5622066 10.50274,0.4452648 10.74842,-1.3686166 -3.086,-1.6642371 -11.49993,-3.4988867 -10.31892,-6.56332006 7.06183,-0.59125594 14.01859,1.68719206 21.06888,1.45361524 -7.45509,-1.77045687 -15.30474,-2.11416108 -22.45494,-5.09417268 4.57691,-3.3356596 11.04084,2.3433326 14.99047,-1.7228609 2.50031,0.04205 7.40539,-0.3140806 2.68153,-2.0382745 2.86514,-2.0833947 9.27933,1.2392978 12.19762,-1.1952954 -2.78962,-0.6685099 -9.73635,-1.4122233 -9.58793,-3.3992263 3.9203,0.100562 7.58573,2.025662 11.48719,2.141529 -2.76586,-0.743405 -4.43739,-4.648952 -6.51601,-3.640899 -0.34672,-1.824457 -4.87397,-5.059186 -3.15152,-4.331308 6.84532,0.474655 12.76479,4.860564 19.73932,4.938293 2.28842,0.683928 7.03713,0.379035 2.01854,-0.998466 -4.46107,-2.884169 -10.70146,-2.462567 -14.31182,-6.721551 3.63153,0.03215 -2.24196,-2.131485 -0.11723,-3.171195 2.74712,-2.593248 8.52408,3.332049 12.14665,4.523808 2.39109,1.76526 5.96006,1.627117 1.48571,-0.156571 -5.97611,-3.027188 -12.3553,-5.948235 -16.65896,-11.286087 2.31897,3.473524 -4.78171,7.308762 -2.34286,1.376954 1.15242,-5.985025 -2.09062,-11.267056 -3.95415,-16.676363 -2.35839,-6.359719 -3.70564,-13.373491 -7.96667,-18.81816 -1.37187,-2.318894 -0.85783,3.17408 -2.01878,-0.691826 0.0682,-2.262545 -6.06462,-9.966252 -1.08674,-5.547827 4.12019,3.271959 -2.28899,-3.744673 -0.85283,-5.977402 0.67273,-4.518662 -3.76429,-6.314711 -3.16477,-11.154059 -4.23826,-1.166741 -9.1671,-8.338986 -13.49398,-12.570811 -5.96369,-6.86178 -15.46144,-8.38081 -23.61598,-11.30576 -6.30889,0.36139 -12.13934,-2.80529 -18.86681,-2.89002 -4.77852,-1.06501 -9.66231,-1.33986 -14.51913,-2.00977 3.17036,0.20543 6.16565,6.51123 1.19367,2.54543 -2.98886,-2.05116 -11.03781,-2.84922 -11.75692,-2.11901 3.69911,0.92931 11.64059,2.69089 11.49803,5.44763 -6.78288,-3.4757 -14.47141,-4.59706 -21.87706,-5.92535 -6.99505,-0.0762 -14.03914,0.2771 -20.99072,0.86111 -0.59237,1.01376 4.18104,2.74818 0.0715,2.1143 -8.44547,-2.99664 -17.49587,-0.75598 -25.67058,2.07949 -4.39569,1.58694 -9.98016,2.09496 -12.79734,6.21956 3.38338,-0.29286 6.84648,-3.30638 10.03753,-2.45953 -4.62612,1.226 -13.10732,6.1703 -15.11844,5.5636 2.70579,-1.04791 5.74727,-4.1615 0.58284,-2.98905 -8.56343,1.47498 -17.26518,2.71321 -25.27548,6.254977 -6.34793,2.163186 -12.52622,4.805912 -18.9367,6.788544 -5.36958,4.170214 -11.70972,6.748042 -17.58375,9.776889 -2.84351,4.835074 -6.458763,8.805462 -10.283295,12.821992 -0.91677,2.219855 -6.5867,6.717095 -3.416721,1.841963 1.365551,-3.526408 9.025093,-8.021512 8.138294,-9.903119 -6.072863,4.335538 -10.980525,9.968232 -15.286965,16.020738 -5.045929,6.455532 -10.06854,13.037283 -13.93366,20.291939 0.960974,1.850891 6.680243,-8.479692 5.374978,-2.939074 -2.513366,5.793731 -10.381995,5.468416 -12.459622,11.75752 -3.288163,5.781603 -6.08954,11.78843 -8.876248,17.817104 -4.447226,5.667209 -4.842769,13.2000249 -7.62307,19.677147 -1.779188,6.276621 -6.225707,11.291814 -8.318311,17.414149 -1.706282,11.091592 -3.579634,22.420066 -1.59387,33.619708 1.254111,6.538226 2.168,13.1414 1.926436,19.809804 -0.16681,9.508563 -0.328219,19.065205 -1.557455,28.502169 -1.470123,9.19249 -3.21736,18.37157 -4.523425,27.56868 -3.227396,11.22001 -4.28629,22.90961 -6.069336,34.40489 0.552935,6.40138 -1.349845,12.32856 -3.636526,18.14727 -1.673787,7.4148 -1.944151,15.0694 -3.25187,22.53877 -0.636047,8.86739 -4.34443,17.21674 -4.269974,26.16687 -0.05711,2.66947 -0.28861,12.93236 -2.951872,6.43131 0.387373,2.73329 -2.9355448,6.15549 -2.2507521,1.21289 0.7068161,-6.05799 2.4137931,-12.51907 2.6989671,-18.87458 1.298987,-1.86413 2.23662,-6.70829 1.884312,-9.21495 -0.09757,3.06325 -4.4420375,5.65753 -2.202442,1.0861 3.937841,-9.30725 6.108654,-19.3099 6.611123,-29.37448 1.605043,-5.8935 4.932745,-11.45961 4.288595,-17.7857 0.450055,-7.00476 0.895171,-14.11888 2.372442,-20.96299 1.138291,-5.94054 2.81254,-11.71265 4.701244,-17.34624 1.583463,-10.35836 2.408991,-20.80046 3.126418,-31.242352 1.528214,-6.910682 1.026231,-13.87064 0.386843,-20.847652 0.227539,-9.516105 -0.270733,-19.07047 -1.377279,-28.527017 -0.697771,-10.557723 0.970518,-21.077127 2.926282,-31.394658 0.459405,-7.8157038 6.152148,-13.6133593 9.326752,-20.3403418 2.06603,-4.8652205 3.180561,-10.2366802 6.453409,-14.5081572 0.595679,-5.620067 4.755526,-9.469583 7.074789,-14.01256 4.266479,-4.839069 7.317273,-10.276502 11.36787,-15.230816 5.002586,-7.526202 9.743931,-15.379325 16.163189,-21.807003 6.235745,-5.055447 10.279869,-12.573065 17.4381,-16.569315 4.69385,-5.134145 11.78417,-6.76676 17.89422,-9.608349 5.2396,-1.96591 10.77806,-3.661089 15.11949,-7.348219 7.16607,-1.65747 14.59045,-2.4685 21.41364,-5.34027 10.53491,-2.61067 20.62183,-7.01493 31.48653,-8.2408 4.39864,-0.32663 8.46256,-2.87866 12.88031,-2.04299 7.28325,-0.481 14.5953,0.38219 21.83695,-0.30005 6.56261,-1.96626 13.13533,0.57833 19.7609,-0.2895 11.55139,-1.39969 22.92962,1.49135 34.39456,2.25452 7.05526,0.17453 13.64421,3.45192 20.02225,6.22151 8.68155,4.04999 16.53608,9.79008 23.38035,16.462321 3.92332,4.408689 6.69384,9.795342 8.66818,15.322054 3.51931,14.23365 9.2855,27.803712 14.731,41.35923 1.22436,6.565524 5.80675,11.911684 12.05347,14.17524 8.95396,4.627091 19.0328,6.025803 28.60789,8.815576 11.03194,2.570519 22.49047,3.339764 33.18603,7.2702352 9.85,2.29907 18.52304,7.68897925 27.99747,11.0233934 15.23061,5.4954157 27.17658,16.7352464 39.27897,27.0386104 4.01419,2.856211 9.1063,12.353418 0.98451,12.966681 1.57864,6.429108 -7.16508,9.051006 -12.41318,9.986582 -6.64784,-0.956315 -13.26015,0.818856 -19.95257,0.361648 -11.69782,-0.575157 -23.18241,-3.027143 -34.72306,-4.893844 -16.52577,-2.550708 -32.75367,-7.121999 -49.45305,-8.492404 -7.24286,-0.40116 -14.28474,1.50992 -21.38288,2.377335 -5.61897,1.630235 -10.64589,4.728017 -16.49417,5.3882 -5.4963,2.049102 -10.44315,5.434949 -16.24915,6.682399 -8.98342,2.584457 -18.31085,4.502914 -26.40258,9.41633 -6.44654,2.798265 -13.33493,4.518036 -19.94813,6.781961 -7.90212,1.826429 -14.43228,7.447912 -22.61268,8.440768 -6.26003,1.092944 -12.51111,3.608031 -16.74355,8.477585 -3.12723,4.793219 -3.41615,12.249682 -9.82611,14.124179 -3.87575,1.08996 -1.25611,5.87582 -5.39611,5.75194 -4.68538,3.99954 -7.67379,9.8149 -11.11172,14.82546 -0.77808,7.3252 -4.70315,12.7746 -9.03143,18.35254 -4.40672,7.94814 -8.89988,16.06721 -10.684,25.07765 -3.84005,11.82401 0.35512,24.55391 -3.2775,36.41209 -0.53204,7.30892 1.15433,14.54618 1.2991,21.84249 0.66685,6.58601 3.24358,12.91378 3.49992,19.51647 -0.17186,0.71808 -0.78433,1.4076 -1.58093,1.38994 z m -3.5328,-13.28709 c -1.50409,-6.84126 0.48868,7.81626 0,0 z M 25.576671,168.42964 c -1.530183,1.61139 0.180803,1.77464 0,0 z m 9.52932,-74.367579 c -0.747207,0.33273 0.973191,2.074732 0,0 z m 192.301019,-4.03992 c -0.21536,-1.014014 -0.64583,1.103516 0,0 z m 23.15104,-14.17873 c 1.92386,-1.200761 -3.30961,1.225267 0,0 z m 219.00226,-26.49427 c -2.24687,-1.209533 -11.01988,-1.87747 -4.36588,0.09518 1.43069,0.331754 2.95773,0.358127 4.36588,-0.09518 z m -10.3827,-0.0504 c -2.79191,-2.097351 -5.23805,0.986224 0,0 z m -9.78519,-0.43167 c -2.83469,-0.906755 -9.42516,-2.722706 -10.15664,-1.719378 3.31219,0.885703 6.67245,2.092989 10.15664,1.719378 z m 5.1594,-0.5207 c 3.52687,-3.067151 -9.3358,-2.039528 -2.7463,-0.482538 0.85555,0.138651 1.91558,1.189376 2.7463,0.482538 z m -24.682,-1.35257 c -2.24627,-2.236983 -9.70042,0.0067 -3.01852,0.220753 1.00056,0.107776 2.07172,0.233366 3.01852,-0.220753 z m 52.31161,-0.18418 c -5.21884,-2.978653 -11.76245,-0.568712 -17.05356,-3.686795 -2.39826,-1.217337 -9.86276,-1.500642 -3.64893,1.16624 6.0337,2.137431 12.61833,2.457977 18.9603,2.810931 l 0.87445,-0.10765 0.86774,-0.182727 z m -35.731,-1.07357 c 6.23528,-2.33504 -6.6229,-3.799553 -9.03239,-4.20825 -2.41653,-0.281964 -4.68935,-0.357612 -1.08386,0.57693 3.3012,1.348934 6.36962,3.827315 10.11625,3.63132 z m -28.01426,-1.22225 c -0.87484,-1.820784 -1.84426,1.377162 0,0 z m 65.56965,-0.28514 c -3.40423,-2.06735 -3.24891,0.588432 0,0 z m -9.42242,-1.06121 C 448.73418,33.134474 421.12751,29.214373 394.33704,22.557644 378.6324,19.541722 362.62204,18.48261 346.6862,17.528685 c -5.3644,-0.02059 -10.70783,-1.108665 -16.03003,-1.106301 -2.6078,0.781645 6.91684,3.071428 1.55131,2.476427 -3.38527,-0.41536 -11.99896,-1.68295 -12.0512,-0.915678 11.01044,1.99689 22.27253,2.095038 33.30743,3.85971 8.72728,0.545854 17.37447,2.232184 26.04339,3.05073 2.1952,0.816023 8.44425,4.810196 8.37979,1.910052 -4.06049,-3.71043 -10.0941,-1.397638 -13.75532,-4.944136 0.73042,-3.032751 7.65504,1.4838 10.54669,1.110636 9.68457,1.960256 19.598,3.090822 28.95568,6.407617 3.11234,4.04254 9.23593,2.509647 13.60578,4.237556 6.08009,1.123977 12.18214,2.123777 18.28354,3.123944 5.72731,3.092025 12.70264,-0.115225 18.49205,3.093374 3.41518,0.942323 6.96017,4.212059 10.56809,3.334835 z m -61.70348,-0.50573 c -2.23818,-0.774051 -2.91397,-0.151543 0,0 z m 8.06981,-0.54015 c -3.68832,-1.239184 -1.65345,0.916269 0.88102,0.317675 -0.29367,-0.105892 -0.58735,-0.211783 -0.88102,-0.317675 z m 8.20209,-0.12983 c -0.44027,-3.621252 -10.8253,-0.842471 -3.21811,-0.09882 0.96331,0.391338 2.3181,0.940674 3.21811,0.09882 z m 23.52587,0.56949 c -2.0757,-1.271077 -9.55394,-2.550219 -3.33907,-0.728281 1.08643,0.33704 2.18198,0.741684 3.33907,0.728281 z m -44.45,-0.52684 c -12.84913,-3.698894 -26.16197,-6.278758 -39.53399,-6.472822 12.68586,2.080448 25.44112,5.482535 38.38382,6.453051 l 1.15017,0.01978 z m 70.69619,-1.11217 c -4.00682,-0.77497 1.99134,1.069961 0,0 z m -17.8898,-0.25665 c -2.33863,-0.80561 -8.13903,-1.004891 -2.56813,-0.192708 0.83488,0.186799 1.71119,0.439768 2.56813,0.192708 z m 28.0288,-0.62206 c -0.29057,-6.562282 -8.54588,-6.168972 -12.78875,-8.962259 5.01233,2.05427 8.00888,6.710092 12.78875,8.962259 z m -76.18296,-0.55679 c -3.35925,-1.266468 0.64788,0.975326 0,0 z m -2.12987,-0.24201 c -4.30271,-1.265455 -2.17408,0.593208 0,0 z m 19.82972,-0.0233 c -5.01899,-0.997152 -10.62197,-2.743781 -15.60499,-1.065379 5.17477,0.66801 10.39592,0.861588 15.60499,1.065379 z m 54.3991,-0.11946 c -5.52473,-3.152544 -10.50289,-7.626278 -16.9822,-8.701503 -1.58527,-0.827557 -9.63605,-2.946327 -4.15419,-0.607491 7.01254,3.16386 13.55835,7.546937 21.13639,9.308994 z m -77.85914,-0.56885 c -0.9467,-0.882701 -0.49877,0.699399 0,0 z m -51.1252,-0.89921 c 1.58318,-1.134473 9.87814,0.386682 7.42504,-1.410608 -8.70946,-1.783905 -17.64312,-1.380473 -26.47504,-1.727402 5.49626,0.751091 11.05227,1.716475 16.05358,3.728393 1.02023,-0.06714 2.01008,-0.339799 2.99642,-0.590383 z m 56.80053,-1.52112 c -9.66096,-4.767316 -20.67481,-5.12148 -30.99005,-7.581092 3.11269,1.984173 7.9552,3.588682 11.83634,5.116063 5.89231,2.025406 12.01238,3.400239 18.21275,4.029319 0.65511,-0.102886 2.41284,-1.074498 0.94096,-1.56429 z m -16.71619,0.75491 c -2.72629,-0.759064 -4.3183,-0.136029 -0.4603,0.203223 0.0569,0.227402 0.749,0.06475 0.4603,-0.203223 z m 31.48545,-0.42368 c -3.19995,-3.06666 -11.16459,-2.568339 -13.19571,-1.675655 3.67366,2.899691 8.92354,1.133591 13.19571,1.675655 z m 4.42626,-0.0276 c -0.94673,-0.882757 -0.49882,0.69945 0,0 z m 37.24559,-0.89847 c -1.60885,-0.87408 -1.0748,0.188447 0.10287,0.208152 z m -132.95313,-0.79375 c -1.09961,-1.054951 -1.09903,0.599523 0,0 z m 40.84915,-0.35951 c -2.1119,-2.296742 -7.28998,-0.879125 -1.87392,0.111059 0.59491,0.207658 1.33479,0.321413 1.87392,-0.111059 z m 34.88002,-0.63268 c -1.6013,-2.05634 -2.34799,0.801697 0,0 z m -51.58237,-0.43582 c -1.06866,-1.96789 -11.79116,-0.940775 -4.64695,0.513497 1.56626,-9.67e-4 3.0847,-0.46232 4.64695,-0.513497 z m 8.9041,0.52512 c -1.39073,-1.833686 -8.72571,-1.014519 -3.14626,-0.08764 1.04226,0.11311 2.1006,0.25868 3.14626,0.08764 z m 97.42528,-0.99835 c -2.7801,-0.355119 -6.7398,-5.184232 -8.91829,-2.664943 2.66482,1.666885 5.80625,2.451185 8.91829,2.664943 z m -82.24534,-0.21542 c 0.45085,-3.649007 -8.73044,-1.55708 -7.63138,-6.359567 -2.57282,-1.349454 -9.81271,0.895641 -9.25458,1.436998 5.55405,1.338217 11.20358,5.619696 16.88596,4.922569 z m 28.98371,-0.29724 c -2.04098,-1.056303 -0.004,1.350941 0,0 z m 72.01048,0.0555 c -1.25355,-3.06235 -6.34456,0.07371 -1.26829,-0.407643 0.27971,0.09813 1.04247,1.16924 1.26829,0.407643 z m -78.58125,-1.87497 c -1.83426,-0.720598 -9.02121,-1.228437 -3.69797,-0.274526 0.22764,-0.110579 5.91982,1.516545 3.69797,0.274526 z m 64.17379,-2.40443 c -2.51145,-1.588358 -6.35803,-1.252533 -1.55998,0.109795 1.86916,0.775752 6.53592,1.555644 1.55998,-0.109795 z m 9.40099,0.0751 c -2.83782,-2.376551 -9.31205,-8.279071 -10.24259,-8.352754 3.47033,2.671189 6.249,6.456262 10.24259,8.352754 z m -20.92273,-0.44884 c -2.75308,-1.619754 1.12549,1.266178 0,0 z m 3.46441,-1.20613 c -3.43902,-1.228617 -10.81475,-5.034126 -12.24505,-2.913326 3.3668,2.41052 8.13169,4.472554 12.24505,2.913326 z m -32.56855,-0.62166 c -3.10974,-1.706507 -4.0109,-0.568474 0,0 z m 41.31599,-0.84556 c -1.71719,-2.760454 -5.38444,-2.110025 -1.15351,-0.265369 -0.12289,-0.08791 2.53698,1.437381 1.15351,0.265369 z m -104.05811,0.30036 c -1.94564,-0.879881 -9.60107,-1.26641 -3.60333,-0.200133 1.18299,0.213069 2.40386,0.443597 3.60333,0.200133 z m -7.97328,-1.35874 c -0.94673,-0.882634 -0.49876,0.699412 0,0 z m 107.54585,-1.71323 c -1.77668,-2.488377 -5.5415,-0.496206 -1.27957,0.269206 0.33822,0.374336 1.91853,0.861517 1.27957,-0.269206 z m -7.72631,-0.74943 c -3.51115,-1.50751 -11.65142,-4.388978 -12.90133,-3.635354 4.13303,1.690246 8.49715,2.906284 12.90133,3.635354 z m 7.1409,-1.80925 c -2.90405,-0.518373 -9.66917,-4.897681 -10.42156,-2.54323 2.97743,2.197181 6.83498,2.58273 10.42156,2.54323 z m -25.6617,-0.7565 c -3.40817,-0.738424 -11.88875,-2.849869 -12.25451,-2.196006 3.97062,1.27295 11.32615,3.025735 13.55665,2.545798 -0.42717,-0.141091 -0.86809,-0.233249 -1.30214,-0.349792 z m 13.49375,-1.27796 c -1.35897,-1.225943 -8.88284,-6.459252 -7.01274,-2.430864 2.00399,1.57283 4.61526,1.861132 7.01274,2.430864 z m 12.52185,-0.75719 c -0.43056,-2.414831 -9.09786,-4.794289 -6.19652,-2.110217 2.11149,0.553225 3.98784,1.940159 6.19652,2.110217 z m -20.1948,-1.6011 c -1.01976,-3.621558 -10.74923,-2.867138 -3.27578,-0.886373 1.06933,0.370738 2.16021,0.687935 3.27578,0.886373 z m 10.58336,-2.70144 c -3.9488,-1.817239 -13.54138,-6.2527587 -14.79024,-5.1373842 4.58634,2.5899012 9.84995,3.4765532 14.79024,5.1373842 z m -21.5029,-1.863072 c -0.94657,-0.8823103 -0.49863,0.699349 0,0 z m -9.98251,-0.64227 c -6.8273,-4.9146354 -15.2001,-6.8022158 -23.16295,-8.8794463 -4.15862,-3.673818 -9.08389,-5.4502532 -14.28779,-3.0577159 -4.22402,0.3910529 -9.01858,-2.2115863 -12.69218,-1.6760542 5.44341,1.9156663 11.37864,1.9134239 16.64455,4.4627968 4.55286,1.9828043 9.43243,3.0342194 14.39747,2.9641433 6.75759,0.4810505 10.97434,6.6760443 18.00152,6.0667405 z m 3.70416,-0.7859196 C 427.87133,7.8293805 424.792,9.0500402 428.72451,9.2611357 Z m 26.07705,-0.14015 c -2.88136,-1.8576074 1.20666,1.3200206 0,0 z m -16.81666,-0.10777 c -1.76615,-0.8568687 -3.70606,-0.2545011 0,0 z m -25.73567,-1.78675 c -2.66096,-1.5476089 -9.36547,-2.380806 -10.15479,-1.6497512 3.21156,1.263524 6.69738,1.9700209 10.15479,1.6497512 z m 27.02316,-1.27426 c -6.933,-3.1342326 -14.31547,-5.09326956 -21.35296,-7.96152 4.04182,-2.8521327 8.91278,3.081565 13.44315,3.2519822 2.1952,1.2605602 9.42132,3.7927576 9.04457,1.6633843 -3.15036,-1.7354163 -5.72291,-2.27915057 -7.85129,-2.03578952 -7.35513,-4.12133758 -15.53062,-6.27377278 -23.73286,-7.96663518 -4.33168,0.2030895 -8.04341,-4.7640032 -11.98065,-2.5411467 6.5945,2.6088738 13.75514,4.2685397 20.07325,7.7376193 6.4771,4.8396551 14.67951,6.1003274 22.35679,7.8521056 z m -101.10155,-0.18418 c 3.12154,-3.0417522 -10.99391,-2.9866697 -3.85043,-1.2588288 1.21973,2.7314747 -9.82554,-1.5350433 -3.88354,0.7685911 2.50589,0.4632483 5.3163,2.2036093 7.73397,0.4902377 z m 49.41097,-3.76473 c 0.0337,-2.61594928 -9.01254,-2.00367321 -3.13389,-0.9857342 0.92483,0.4712085 2.01972,1.7598607 3.13389,0.9857342 z m -64.55836,-0.94369 c -2.22678,-0.8496747 -3.90637,0.4847746 0,0 z m 90.3552,-3.15104 c -1.60049,-1.0396059 -1.17306,0.06779 0.0783,0.2146525 z m -2.35788,-0.65363 c -2.18058,-1.459615 -9.27795,-2.8963776 -9.31583,-1.1421324 3.05267,0.7184904 6.18774,1.0151886 9.31583,1.1421324 z m -83.43876,-0.0593 c -0.94662,-0.8825393 -0.49868,0.6994175 0,0 z m 64.74907,-2.18169 c -3.67574,-1.8993387 -12.57039,-6.0429904 -13.84362,-3.2426815 4.47839,1.3372614 9.16808,3.2685038 13.84362,3.2426815 z m -10.04097,-0.5467 c -3.6447,-1.8437333 -1.50728,1.3010854 0.95742,0.2338705 -0.31914,-0.077957 -0.63828,-0.1559137 -0.95742,-0.2338705 z m -36.1156,-0.0222 c -3.14046,-0.8945618 -5.458,0.5487326 -0.91698,0.2460821 l 0.47398,-0.054745 z m 50.8,0.0326 c -1.833,-1.9847393 -9.42163,-2.9524067 -3.24495,-0.7343595 1.00374,0.4444218 2.09245,1.1014604 3.24495,0.7343595 z m 2.7373,-0.42946 c 3.99903,-1.2952187 -6.31678,-2.2263421 -1.10271,0.2583427 0.31264,0.3559491 0.98815,0.2114401 1.10271,-0.2583427 z m -34.10368,-0.63933 c -2.30909,-1.155193 -7.88129,0.1742235 -2.26955,-0.040908 0.68103,-0.024274 1.71934,0.7603669 2.26955,0.040908 z m 2.92368,-2.30865 c -6.08603,-1.2169864 -12.39004,-1.3544114 -18.53956,-0.5635166 6.4975,1.7079342 13.31298,0.4161931 19.91486,1.4945185 4.92434,0.4938053 0.0314,-0.560968 -1.3753,-0.9310019 z m 26.6098,-1.3210304 c -5.16877,-4.245425 -12.67634,-2.121119 -18.40236,-5.381881 -3.10517,-0.559887 -9.11835,-3.293555 -10.67419,-1.745619 4.9317,4.874527 12.56261,2.019903 18.40215,4.916967 3.46999,0.899143 7.01503,2.7847755 10.6744,2.210533 z m -23.17025,-1.70023 c -5.03364,-1.724977 -10.92437,-4.780077 -15.26003,-6.111042 4.61852,2.520401 9.25697,5.18054 14.20921,6.969158 1.1418,0.422525 3.37119,-0.45207 1.05082,-0.858116 z m -25.0031,-11.483947 c -1.21606,-1.994371 -1.26775,0.367924 0,0 z M 129.18595,-97.227622 c 3.34658,-2.018779 -5.77488,2.209209 -0.62437,0.23273 z m 34.9696,-11.183548 c 2.89053,-1.86891 -5.54103,1.79087 0,0 z M 41.674431,239.71016 c 0.09957,-2.90473 5.871206,-7.11347 2.326161,-1.88398 -0.400243,0.51777 -1.574187,3.69386 -2.326161,1.88398 z m 125.275289,-1.38877 c 1.57557,-1.28212 2.47806,-11.40165 3.51574,-6.1107 -0.0723,2.35683 -0.54446,5.87192 -3.51574,6.1107 z M 29.278191,237.21866 c 0.550513,-1.9367 5.550308,-9.99023 4.190294,-3.74467 -0.799887,1.73493 -2.243929,3.35329 -4.190294,3.74467 z m 131.184349,-0.36068 c 0.10288,-4.60703 -0.66576,-9.1668 1.79723,-13.32508 3.5028,-3.03025 -0.47803,8.30763 0.69362,11.0542 -0.28957,0.87197 -1.31575,2.96581 -2.49085,2.27088 z m 1.97989,-4.34449 c -1.48649,1.50153 -0.21766,1.75809 0,0 z m -9.86698,3.28261 c -1.69176,-2.25754 -1.14893,-10.30055 -0.20397,-8.96832 0.20635,2.7714 2.04321,6.66014 0.20397,8.96832 z m 20.84262,0.20283 c 0.59025,-2.4464 0.64604,-11.66427 2.28102,-4.68199 0.25896,1.6681 0.50435,5.38584 -2.28102,4.68199 z m -42.6092,-0.294 c 2.13557,-1.30469 5.69578,-11.03572 4.4921,-3.65592 -0.65579,1.87744 -2.23907,3.99428 -4.4921,3.65592 z m -34.635539,-1.75001 c -0.777215,-1.90476 1.307115,-8.75243 1.453199,-3.2019 -0.07683,0.99939 0.347128,3.62121 -1.453199,3.2019 z m 20.505559,-0.93361 c 0.40086,-4.05933 4.75302,-2.42987 0,0 z m -59.460009,-1.09358 c 1.596578,-2.64262 1.974401,-9.13452 3.594664,-9.61383 0.189843,3.03547 0.02371,8.87978 -3.594664,9.61383 z m 99.941259,-0.10461 c 2.00276,-2.72142 2.67666,-9.65769 4.05518,-10.30685 0.0159,3.48497 0.13317,9.17594 -4.05518,10.30685 z m -12.52063,-0.81074 c -0.25287,-1.88665 1.15869,-9.66871 1.67796,-4.11698 -0.31113,1.1967 0.41419,4.33885 -1.67796,4.11698 z m -82.464789,-0.81335 c -0.07209,-3.25744 5.487614,-7.65987 2.310905,-2.02262 -0.355232,0.62533 -1.400881,4.05518 -2.310905,2.02262 z m -17.83351,-1.20071 c 1.217042,-2.91994 2.909585,-9.34131 5.025765,-9.34525 0.286575,3.75207 -2.298446,7.07255 -5.025765,9.34525 z m 127.105669,-1.39425 c 0.37695,-1.96844 -1.69975,-8.77707 1.26629,-7.75376 -0.28441,2.48077 1.49754,6.1852 -1.26629,7.75376 z M 23.545551,226.04195 c 2.145641,-3.01925 2.38638,-11.13905 4.558197,-11.35649 -0.315279,3.87288 -0.725604,9.32401 -4.558197,11.35649 z m 11.77858,0.51265 c 1.549082,-2.42733 1.792512,-8.46935 3.707561,-8.46075 -0.814096,2.93824 -0.918231,6.58365 -3.707561,8.46075 z m 130.692379,-0.61407 c 0.10739,-5.61997 0.6424,-11.297 3.76089,-16.13084 0.59773,-2.27868 2.98689,-4.88968 1.86193,-0.62545 -2.92455,5.16714 -4.14987,10.96457 -4.69323,16.77501 -0.0448,0.7959 -0.88438,0.92694 -0.92959,-0.0187 z M 29.890701,224.38962 c 0.393245,-1.99134 2.574331,-10.09022 2.178246,-4.0286 -0.404211,0.75651 -1.125321,5.21286 -2.178246,4.0286 z m 100.811099,0.59404 c 1.93121,-3.02978 5.50566,-10.37012 6.85268,-10.57101 -0.0967,4.44459 -3.17718,8.34586 -6.85268,10.57101 z m -27.78124,-0.67862 c 0.98496,-1.38055 3.05094,-9.92592 3.98391,-5.88347 -0.48932,2.28242 -1.29199,5.38039 -3.98391,5.88347 z m -28.471019,-0.29311 c 1.338025,-1.71599 4.866876,-10.4626 3.956529,-3.70037 -0.614761,1.66138 -1.753052,4.16522 -3.956529,3.70037 z m -8.40567,-1.04688 c 0.371515,-3.22375 3.051401,-9.89784 4.785867,-9.75825 -0.833018,3.52124 -1.756076,7.43772 -4.785867,9.75825 z m 75.357899,-0.60687 c 2.531,-2.39031 4.27957,-10.76197 6.9222,-9.97662 -1.04533,3.42576 -3.21876,9.45296 -6.9222,9.97662 z M 41.078631,220.92305 c 1.165811,-2.13311 3.816437,-11.13439 3.306841,-4.14923 -0.557606,1.39247 -0.997185,5.24434 -3.306841,4.14923 z m -22.14994,0.34335 c 2.007125,-2.05732 2.181224,-8.04316 3.139477,-8.5057 0.134498,2.98714 0.29408,7.26726 -3.139477,8.5057 z m 68.29876,-1.24013 c -1.561425,-2.97065 2.926438,-10.42114 1.445622,-3.17632 -0.116799,1.10978 0.110132,3.00761 -1.445622,3.17632 z m 69.628169,-1.51109 c 1.06145,-2.32698 1.61693,-7.51744 4.31292,-7.50936 -1.43411,2.34077 -0.97592,7.02749 -4.31292,7.50936 z M 50.533051,217.94006 c 2.186911,-1.64866 3.278069,-7.77354 4.627728,-7.62964 -0.364518,3.0153 -1.749313,6.24292 -4.627728,7.62964 z M 159.7935,217.63685 c 1.22272,-2.30898 1.07899,-7.24296 3.39008,-7.89547 -0.24875,2.81 -0.25692,6.66601 -3.39008,7.89547 z m 2.6583,-1.54954 c 0.72327,-2.2459 3.15197,-10.26326 2.74919,-3.66868 -0.37582,1.34542 -0.70357,4.20224 -2.74919,3.66868 z m 8.73125,0.16383 c 0.79267,-4.44862 3.33235,-11.43376 5.24777,-13.64974 1.60321,5.043 -3.1278,10.03572 -5.08982,14.03254 z M 60.587221,214.57001 c 1.695132,-4.84612 8.004995,-12.71323 9.58814,-14.06342 -1.170038,5.10538 -6.846524,7.79497 -7.358508,13.35056 -0.500224,0.67426 -1.420423,1.04094 -2.229632,0.71286 z m 51.593749,-0.20418 c 0.65998,-2.33947 7.67784,-8.7128 4.11326,-2.80139 -0.9652,1.32445 -2.21454,3.13641 -4.11326,2.80139 z m -77.389229,0.0127 c 1.928628,-6.25386 5.28638,-11.73245 8.588902,-16.99552 1.959533,-3.20429 -1.125161,6.25139 2.320985,1.5429 2.20597,-1.86007 3.589096,-5.29471 5.032325,-7.10364 -0.14195,6.24653 -6.478294,8.61794 -10.464476,12.1954 -3.551012,2.58053 -0.352527,9.75013 -5.477736,10.36086 z m 88.886239,-5.27005 c 1.43611,-1.71168 8.45314,-8.28391 4.78814,-2.38373 -1.14864,1.13135 -2.95048,3.84308 -4.78814,2.38373 z m -94.311599,-0.11951 c 1.304978,-2.674 3.378045,-8.85264 5.132577,-8.64972 -1.253446,2.97435 -1.250244,7.83186 -5.132577,8.64972 z M 166.05258,208.8862 c 1.65411,-3.05955 3.84487,-9.80639 5.58666,-10.33212 -1.01906,3.42809 -1.91436,8.98236 -5.58666,10.33212 z m -93.418089,-0.88987 c 1.997185,-0.74789 3.541606,-9.61284 4.374552,-5.76035 -0.782556,2.20057 -1.898678,5.09951 -4.374552,5.76035 z m -25.16983,-1.75596 c 1.146344,-2.5702 8.364357,-8.41435 3.98051,-2.61145 -0.933907,1.12548 -2.185911,3.60296 -3.98051,2.61145 z m -21.90291,-0.13229 c 2.262241,-1.02884 3.795667,-8.95559 4.410641,-6.72151 -0.444318,2.64135 -1.300471,6.15977 -4.410641,6.72151 z m 32.73426,-0.90816 c 2.748775,-1.87439 4.297486,-8.60606 5.779754,-8.78752 -0.464125,3.53266 -2.333409,7.34508 -5.779754,8.78752 z m 105.478709,0.20802 c 1.23471,-4.45267 4.74934,-11.89593 6.53542,-13.68098 -0.49805,5.05521 -3.26546,10.36081 -6.50596,13.99329 z m -65.616665,-0.37137 c 0.425901,-2.17474 4.556555,-9.8471 3.178295,-3.47609 -0.54456,1.38295 -1.11465,4.0486 -3.178295,3.47609 z m 59.114765,-1.88899 c -0.16359,-2.93892 2.26862,-8.62032 3.40188,-9.06425 -0.8011,3.01398 -0.68141,7.09045 -3.40188,9.06425 z m -71.550179,-0.69491 c 1.26353,-1.31254 5.208666,-9.3463 5.391698,-5.28064 -0.904121,2.42236 -2.857849,4.55979 -5.391698,5.28064 z m 86.171469,-1.35093 c 0.80176,-3.05114 1.5461,-8.93649 3.72819,-8.6828 0.3574,-2.37919 2.11647,-5.25015 1.52218,-1.02076 -0.88434,3.08344 -3.73232,9.38902 -5.25037,9.70356 z m -24.31883,0.31969 c -2.94285,-1.59171 -2.09267,-9.39159 -0.0957,-2.88146 0.11875,0.57393 1.93915,3.54519 0.0957,2.88146 z m -80.638059,-0.67545 c 1.234927,-4.3257 0.629657,-10.15293 4.940989,-11.00677 0.863337,-1.33441 3.609542,-7.10487 2.608208,-2.15125 -3.926177,3.53636 -5.363551,8.85969 -7.549197,13.15802 z m 102.132519,-2.13241 c 0.96963,-3.38694 4.06421,-9.73718 5.67361,-10.37899 -1.19266,3.4372 -2.37559,8.78304 -5.67361,10.37899 z m -33.60544,-1.1789 c -0.40039,-2.27834 4.79447,-8.38627 2.6614,-2.81607 -0.64304,0.65223 -1.26068,4.29629 -2.6614,2.81607 z m 28.31042,-0.59021 c 0.62406,-2.26837 2.91728,-9.86148 3.73373,-7.93267 -0.5077,2.57651 -0.78312,7.20976 -3.73373,7.93267 z M 53.178891,197.2933 c 2.652307,-2.1184 5.634765,-8.89366 7.493584,-8.49244 -0.695927,3.87248 -3.496503,7.65059 -7.493584,8.49244 z m 57.679159,-1.81581 c 0.31006,-2.02258 5.36549,-7.17452 3.11828,-2.15115 -0.69781,0.63773 -1.93699,3.96471 -3.11828,2.15115 z m -33.247779,-0.82817 c 0.301448,-2.43438 4.110892,-9.55356 2.712007,-2.9862 -0.490144,1.17541 -0.9281,3.47897 -2.712007,2.9862 z m -25.22776,-0.37645 c 3.718825,-3.33772 6.276915,-7.75069 8.656454,-12.09178 -0.563735,4.95848 -4.133399,9.98365 -8.656454,12.09178 z m -27.24946,0.0275 c 2.492904,-2.2137 3.537788,-9.04591 4.590464,-9.61142 -0.592438,3.33759 -0.701476,8.40479 -4.590464,9.61142 z m 16.0567,-0.49541 c 3.198848,-2.99575 4.187039,-7.88641 8.088636,-8.50791 1.218211,-2.70404 3.169447,-5.9904 1.582129,-1.19364 -2.309124,3.38115 -6.108033,9.13397 -9.670765,9.70155 z M 156.66874,193.2758 c -1.95586,-2.13171 -3.72263,-10.2128 -2.83271,-9.76535 1.72484,3.78284 1.09101,-8.31832 1.40626,-1.13746 0.10048,3.22177 3.99669,8.90742 1.42645,10.90281 z m -125.450269,0.11241 c 1.099178,-2.55899 4.157572,-8.19123 5.800142,-7.52967 -1.209764,2.93842 -2.770687,6.10944 -5.800142,7.52967 z M 100.53931,191.474 c 1.39224,-1.73602 5.965,-9.24927 4.05012,-2.81038 -0.79212,1.39376 -2.10344,3.61752 -4.05012,2.81038 z m 29.63333,-1.19216 c 3.66938,-1.46919 2.24834,-8.41866 3.42715,-9.0765 2.95176,2.68196 0.51616,8.98494 -3.42715,9.0765 z m 39.10602,-0.84905 c -0.85825,-2.21297 2.19226,-8.34885 1.6247,-2.63783 -0.23631,0.75392 -0.0746,3.71191 -1.6247,2.63783 z M 31.683711,188.4759 c 1.045678,-1.94082 5.839934,-9.46217 3.264583,-3.43049 -0.851552,0.79756 -1.879454,4.41564 -3.264583,3.43049 z m 32.70069,-0.43929 c 1.472433,-5.28484 6.366634,-8.56001 8.55456,-13.35726 0.32028,-2.87761 2.252333,-6.20952 1.92941,-1.11492 -1.347583,6.21512 -7.702197,9.55556 -10.404232,15.11939 l -0.125134,-0.1208 z m -3.00343,-0.43907 c 1.619844,-2.73361 3.074841,-9.53 4.208885,-9.95276 -0.289183,3.58936 -1.34907,7.54682 -4.208885,9.95276 z m 112.117049,-2.36675 c -0.9812,-2.00231 1.42884,-11.2994 1.72078,-5.59805 -0.36436,1.43135 0.4874,5.83017 -1.72078,5.59805 z m -31.33684,-3.66282 c 0.39936,-1.64446 2.85834,-11.15599 3.20577,-6.41795 -0.54685,2.01542 -0.59264,6.16528 -3.20577,6.41795 z M 25.507981,181.08125 c 2.385153,-1.51265 3.748464,-6.01836 6.382531,-6.08307 -1.887058,2.08194 -3.236156,5.89835 -6.382531,6.08307 z m 141.894389,-0.57161 c 0.23682,-4.87233 -0.22954,-9.96364 1.14753,-14.67245 0.22833,4.56582 0.36307,10.76935 -1.14753,14.67245 z m -84.324089,-1.06108 c 2.584778,-1.87464 4.784575,-8.37606 6.342194,-8.26943 -1.041347,3.23674 -2.869302,7.13876 -6.342194,8.26943 z m 73.870679,-0.91549 c -1.34521,-2.96753 -0.92066,-9.8822 -0.19904,-10.73641 0.21843,3.53873 1.06242,7.25868 0.19904,10.73641 z m -98.213819,0.0872 c 1.506305,-2.26724 1.81685,-6.79742 4.108715,-7.69363 -0.315932,2.89415 -1.072474,6.48 -4.108715,7.69363 z m -8.89356,-0.59883 c 3.565912,-4.50265 4.511839,-10.50981 7.805292,-15.0653 -0.233599,4.55756 -2.86225,8.77581 -4.752983,12.8843 -0.720309,1.05284 -1.780961,1.91735 -3.052309,2.181 z m -4.86478,-0.0222 c 2.0416,-1.96054 6.045586,-6.8173 7.003743,-6.79782 -1.722229,2.77019 -3.784996,5.68259 -7.003743,6.79782 z m -9.26042,-1.33979 c 2.383144,-2.21471 5.05496,-8.97779 6.968243,-8.45211 -0.742343,3.71158 -3.310631,7.20337 -6.968243,8.45211 z m 67.097749,-0.57767 c -1.1676,-2.92743 5.82924,-10.35872 2.69744,-3.72262 -0.59787,1.39549 -1.0982,3.16733 -2.69744,3.72262 z m 12.01267,0.0449 c 1.19665,-1.61157 4.7079,-10.22773 3.83078,-3.81182 -0.48574,1.77568 -1.73119,3.86618 -3.83078,3.81182 z m 50.27084,-1.5454 c -0.0965,-2.42682 1.20917,-11.20236 1.24401,-4.27997 -0.12585,0.51547 -0.23265,7.51095 -1.24401,4.27997 z m -70.792009,-1.18449 c 2.774164,-2.38533 6.704809,-9.53228 7.912639,-9.80162 -1.15982,3.96271 -4.096024,8.08063 -7.912639,9.80162 z m -30.69017,-0.55996 c 2.303514,-4.30173 3.652759,-9.48967 7.442883,-12.75781 -1.768108,4.26246 -4.91914,10.40345 -7.442883,12.75781 z m -15.83723,-1.51495 c 1.547927,-3.08333 4.608057,-10.75036 6.068822,-10.62088 -1.533036,3.76819 -2.878237,7.8855 -6.068822,10.62088 z m 76.308989,-2.1553 c 1.50529,-1.14788 4.5434,-10.40221 4.35605,-4.72994 -0.54363,2.10401 -1.80005,4.76634 -4.35605,4.72994 z m -54.768069,-2.21673 c 1.436587,-2.07361 2.212139,-7.04133 4.598161,-7.08328 -0.907461,2.53097 -1.191931,6.72789 -4.598161,7.08328 z m 8.73057,-3.3777 c 1.329477,-2.85051 2.719253,-9.94167 5.008603,-9.39255 -1.054446,3.31587 -1.423232,7.75826 -5.008603,9.39255 z m 59.002079,0.18404 c 1.30706,-2.40693 1.31557,-7.21339 3.64377,-8.10065 -0.59736,2.7999 -0.22415,7.08306 -3.64377,8.10065 z m 15.78114,-0.62888 c 0.36468,-2.90067 -1.65689,-10.76005 0.95466,-10.50928 0.32937,3.4483 1.71825,7.6186 -0.95466,10.50928 z m -114.206139,0.0552 c 4.663257,-1.89965 8.540232,-10.77829 10.006799,-11.96595 -0.09965,5.28299 -4.633352,11.27651 -10.006799,11.96595 z m 57.94375,-0.60153 c 2.206521,-2.373 2.088731,-10.66197 4.831529,-9.7607 -0.27309,3.61497 -1.1597,8.10362 -4.831529,9.7607 z m 14.552089,0.28281 c 2.58219,-2.39515 5.76755,-9.10334 6.94477,-9.45497 -0.0407,4.27601 -3.9508,7.03791 -6.94477,9.45497 z m -44.979169,-2.09904 c 0.361561,-2.85032 3.750985,-7.42041 2.165186,-1.62793 -0.300237,0.62979 -1.339812,3.27217 -2.165186,1.62793 z m -32.1708,-2.55888 c 2.347348,-2.17937 0.927129,-4.8336 -1.906128,-2.4298 2.194165,-1.32418 6.099684,-5.93547 6.522262,-6.0017 -2.303843,2.21182 -1.56876,7.61634 -4.616134,8.4315 z m 32.29062,-0.97951 c 1.582259,-2.66608 2.382034,-9.44739 3.958311,-9.63037 -0.592085,3.39256 -1.189963,7.26608 -3.958311,9.63037 z m 17.70912,-1.07828 c 1.382151,-6.6021 2.855225,-13.3119 6.09268,-19.29464 -2.304452,6.41563 -3.039766,13.85815 -6.150156,19.67845 l 0.04476,-0.29888 z m -26.43697,-1.23682 c 1.135967,-1.90764 4.76939,-8.90553 3.474606,-2.8924 -0.692435,0.97441 -1.855789,4.68002 -3.474606,2.8924 z m 93.592509,0.0737 c -1.48058,-2.77032 -1.31046,-12.7114 0.53304,-5.27881 0.40213,1.65823 1.30363,4.14256 -0.53304,5.27881 z m 26.33298,-0.45251 c -2.33191,-2.11272 -1.65279,-10.03188 -0.37259,-3.12921 0.0297,0.59978 2.06447,3.53552 0.37259,3.12921 z m -16.53605,-2.26595 c -2.30779,-2.13446 -1.53035,-10.44713 0.23477,-3.54517 0.26448,1.16 0.52985,2.4915 -0.23477,3.54517 z M 33.070551,151.72332 c 3.454595,-2.00294 5.367016,-10.95605 6.747759,-10.96302 -1.080522,3.25634 0.184764,4.11718 1.464886,0.77182 2.350582,-4.018 3.856198,-8.4471 5.924807,-12.60451 -2.18429,5.85269 -2.387502,13.85135 -7.990457,17.47525 -2.216699,1.57977 -3.54853,4.25287 -6.146995,5.32046 z m 40.74584,-0.48596 c 0.742878,-2.74371 2.789145,-8.33094 4.113026,-8.74495 -0.701318,2.85273 -0.809838,7.8108 -4.113026,8.74495 z m 16.13958,0.54684 c 0.7823,-1.65969 4.349225,-10.82269 3.165126,-4.62021 -0.621422,1.77701 -1.62053,3.49374 -3.165126,4.62021 z m 66.394989,-1.20126 c -0.77415,-2.93839 -1.85109,-9.79745 -0.67863,-10.42062 0.43434,3.42845 2.24304,7.02375 0.67863,10.42062 z M 55.721251,146.19387 c 1.508,-2.95071 4.080358,-9.69364 5.853366,-9.61854 -1.027787,3.58525 -2.19734,7.86085 -5.853366,9.61854 z m -24.08109,-1.00605 c 1.498137,-6.61841 4.303738,-12.82944 6.94116,-19.05001 -1.294099,6.90691 -4.271502,13.51872 -6.983611,19.90052 z m 33.71067,-0.13737 c 1.031519,-2.96502 3.931876,-10.45261 5.958412,-9.60528 -1.661298,3.21951 -2.401076,7.95252 -5.958412,9.60528 z m -17.90637,-1.31186 c 2.467912,-5.38652 3.495846,-11.38032 6.111115,-16.63407 1.131565,-2.65568 2.975758,-3.99145 1.611931,-0.20455 -0.720081,4.05557 -4.311516,7.64081 -4.032504,11.73353 1.930587,-3.23938 3.375737,-1.3902 1.033099,0.9282 -0.910467,0.79916 -3.802892,7.05543 -4.723641,4.17689 z m 33.84724,-0.23111 c 1.317306,-3.20616 4.824661,-11.03814 6.455056,-10.5806 -0.584637,3.35471 -5.110782,11.41309 -6.455056,10.5806 z m 102.883839,0.51763 c -1.69223,-1.83308 -1.76543,-11.01054 -0.37186,-4.50018 0.0301,0.98538 2.61763,4.83303 0.37186,4.50018 z m -19.67698,-1.01734 c -0.51596,-3.42358 -4.53914,-10.67338 -2.76953,-11.82856 1.82658,3.4352 4.55245,7.90446 2.76953,11.82856 z M 74.080971,142.7896 c 2.768149,-4.97916 2.859211,-11.50569 7.13129,-15.56759 -1.093546,5.48952 -3.470331,11.14483 -6.361236,15.70092 -0.256685,-0.0444 -0.513369,-0.0889 -0.770054,-0.13333 z m -38.89375,-2.43514 c 3.304176,-4.62511 5.522993,-9.89565 8.306791,-14.82489 -0.866282,5.57717 -4.085099,11.49474 -8.306791,14.82489 z M 168.85874,135.4431 c -0.52622,-3.31255 1.26705,-5.88803 1.09166,-1.04433 0.45237,2.15747 -1.47058,6.64141 -1.11023,1.7548 l 0.0186,-0.71047 z m -77.922499,3.17601 c 1.46097,-2.48112 1.805049,-8.91611 3.694673,-8.8729 -0.333089,3.09356 -0.0045,7.70429 -3.694673,8.8729 z m 98.220319,-4.47771 c -2.13149,-1.57922 -4.98512,-10.38071 -1.57365,-4.2035 0.36127,0.73255 5.47353,6.19935 1.57365,4.2035 z m -84.91309,-1.26431 c 0.17873,-2.43599 4.97458,-9.42773 2.88175,-3.02671 -0.53507,1.14733 -1.04868,3.82669 -2.88175,3.02671 z m -40.704049,-0.94943 c 0.298526,-2.01202 4.593593,-9.58358 3.130001,-3.5886 -0.545896,0.67098 -2.215706,5.58256 -3.130001,3.5886 z m 19.27992,-1.97157 c 0.602123,-3.15921 4.042453,-10.31126 5.486087,-9.73975 -1.425383,7.48384 2.97685,-8.19525 2.387373,-1.40844 -1.147118,4.5885 -5.224025,7.48533 -7.87346,11.14819 z m -23.14824,-1.63552 c 2.571829,-3.34304 5.866247,-11.46059 7.663504,-12.00119 -0.280852,4.65824 -3.826435,10.16666 -7.663504,12.00119 z m -18.92763,-2.39289 c -3.085684,-2.93656 4.384505,-6.76386 3.964524,-10.6738 3.510646,-5.00965 5.66973,-10.60683 8.443849,-15.887896 0.67374,-2.208049 4.686721,-5.537805 2.277946,-1.091596 -4.084099,8.605532 -9.600679,16.496932 -12.901673,25.479622 -0.449328,0.74654 -0.722462,2.12428 -1.784646,2.17367 z m 125.315889,-0.73517 c -4.37216,-4.35077 3.80383,0.92829 0,0 z m -91.972209,-0.17923 c 1.061648,-1.91686 3.993722,-9.27356 4.592985,-6.92434 -0.596305,2.69662 -1.492743,6.17942 -4.592985,6.92434 z m 77.043659,-2.09656 c 3.32628,-3.62376 5.0518,-8.45681 8.36928,-12.04582 -1.03675,4.47217 -6.36652,11.62804 -8.36928,12.04582 z m -114.885259,0.40174 c 1.432274,-4.23478 3.734517,-2.33776 0.397866,0.29866 l -0.214842,-0.0524 z m 20.10834,-0.56141 c 2.145703,-2.85757 4.339977,-9.87596 4.944337,-10.80467 0.115424,3.69099 -0.57388,9.89575 -4.944337,10.80467 z m 138.238089,-0.62027 c -2.40491,-2.00563 -0.72798,-4.94123 0.8181,-1.42519 0.44733,0.83266 0.68863,3.34314 -0.8181,1.42519 z m -112.828439,-0.3983 c 0.498179,-1.90283 5.609182,-7.86598 3.369006,-2.48613 -0.822709,0.60156 -2.094837,4.11238 -3.369006,2.48613 z m -32.81799,0.49226 c 2.314929,-6.138 5.518111,-11.91805 7.49935,-18.18569 0.127793,6.68665 -2.9605,13.45933 -7.49935,18.18569 z M 168.27836,121.5737 c 0.55399,-1.85562 1.59216,-11.76632 1.99054,-5.90095 -0.0971,2.07529 -0.34472,4.42063 -1.99054,5.90095 z m -18.25462,-1.78594 c 0.63258,-3.38443 4.59435,-10.1047 6.05314,-9.84112 -1.88138,3.35966 -3.69175,6.78428 -6.05314,9.84112 z M 108.82251,119.124 c 1.24075,-2.94721 4.43312,-8.98941 5.87846,-9.13954 -0.61443,3.64017 -2.58583,7.28374 -5.87846,9.13954 z m -39.614609,-0.41386 c 0.506137,-1.8291 4.925108,-10.61045 3.51825,-4.74922 -0.767294,1.67854 -1.247719,4.70201 -3.51825,4.74922 z m -34.54853,-0.83524 c 2.338933,-1.62001 5.754358,-6.82536 7.070241,-6.49658 -1.132353,3.15334 -4.045619,5.31729 -7.070241,6.49658 z m 59.26556,-1.67904 c 0.536231,-3.35127 4.348149,-9.33402 6.040802,-9.37737 -1.844976,3.02713 -2.827405,7.73317 -6.040802,9.37737 z m 82.632499,-0.27171 c -3.57651,-2.32379 -6.81546,-8.99388 -2.1138,-11.67233 3.44904,-4.1204 7.82985,-8.975954 7.25856,-14.701282 -2.18299,-5.791805 -4.52654,4.646378 -8.58973,3.318718 -2.16495,1.075049 -5.97354,3.468765 -2.62082,-0.384462 3.90939,-4.407519 9.52951,-6.331399 14.43074,-9.278474 1.26701,-1.176739 5.96386,-7.092881 3.07859,-2.299842 -2.89075,3.884641 -8.38099,5.701255 -5.05848,11.287085 -1.71645,5.11017 -4.9477,10.075937 -8.8575,13.930377 -3.666,3.00212 3.77864,6.60484 2.47244,9.80021 z m 4.82009,-30.083219 c -1.05379,-0.08735 -0.90561,1.967071 0,0 z m 10.55801,29.349219 c -3.48936,-2.09188 -5.7168,-8.84827 -2.828,-11.7637 -0.88554,3.97621 3.61754,9.44727 2.828,11.7637 z M 81.457301,114.31567 c 2.409833,-4.65874 4.731728,-12.30511 8.037887,-14.751344 -1.069684,5.393694 -4.609108,10.021894 -7.581734,14.553744 l -0.348635,0.33568 z m 83.238669,-1.07495 c 0.0121,-3.92692 -0.57587,-12.78097 0.72141,-13.679891 0.46196,4.518531 0.70794,9.307251 -0.72141,13.679891 z m 39.64366,-0.26598 c -1.76944,-3.71452 -5.53946,-10.28626 -4.48259,-13.080795 1.81009,3.680605 4.26865,10.324985 4.48259,13.080795 z m -25.34431,-0.33793 c 0.86779,-1.98127 3.94107,-9.46524 4.10661,-7.24217 -0.99611,2.57415 -1.60641,5.64582 -4.10661,7.24217 z M 64.638401,110.62397 c -0.324494,-4.56461 4.30799,-12.372473 4.815907,-13.874151 -0.296111,4.618491 -0.424888,11.108691 -4.442742,13.864041 l -0.302102,0.008 z m -18.0741,-2.30669 c 0.165656,-1.80413 2.866374,-9.263879 -0.970219,-6.52135 0.580251,-2.099366 5.632811,-11.93664 3.879216,-5.301509 -0.645387,3.553599 -0.928032,10.368189 -2.908997,11.822859 z m 44.05084,-0.20651 c 0.522419,-2.26966 8.418099,-9.46808 4.360177,-3.59769 -1.034914,1.46016 -2.137079,4.12459 -4.360177,3.59769 z m -9.91322,-3.40042 c 0.670848,-2.06614 3.954638,-7.994673 2.253889,-2.15837 -0.0666,2.08009 -5.342792,8.01309 -2.533315,2.71148 z m 23.646899,2.15836 c 1.46412,-3.26646 6.22026,-9.693754 7.67104,-9.448185 -0.67915,3.087315 -7.07476,10.890995 -7.67104,9.448185 z m 40.12175,-0.49133 c 1.33562,-2.12313 3.11051,-6.392238 5.24207,-6.569513 -0.95029,2.722273 -3.21006,4.652043 -5.24207,6.569513 z m -71.179409,-0.63627 c 2.621157,-5.08234 4.721087,-10.52441 8.175207,-15.117085 2.075317,0.09848 7.290131,-8.8549 4.204024,-2.337352 -3.831511,5.729697 -8.479339,10.923416 -11.717336,17.031247 -0.220632,0.14106 -0.441263,0.28213 -0.661895,0.42319 z m -33.07686,-0.84344 c 3.309315,-4.8446 6.648935,-9.763694 9.522069,-14.819474 0.267851,4.25909 -3.507102,7.561942 -5.554592,11.074924 -1.089531,1.44934 -2.270804,2.97866 -3.967477,3.74455 z m 89.429169,-0.51996 c 2.17238,-2.15333 3.98125,-8.42704 4.97022,-8.787437 0.0636,3.528946 -1.97136,6.974877 -4.97022,8.787437 z m -91.546829,-1.52328 c 2.505046,-1.68612 4.648295,-8.149856 5.94939,-7.916371 0.37531,2.910689 -5.848844,9.523801 -5.94939,7.916371 z m 19.55788,0.1855 c 2.327204,-0.85601 5.27605,-8.556108 5.743513,-6.000991 -0.890846,2.686057 -2.851819,5.338861 -5.743513,6.000991 z m 20.2715,-1.41616 c 0.622265,-2.709271 7.800842,-7.974019 3.532494,-2.208071 -0.83549,1.060741 -1.921632,2.793251 -3.532494,2.208071 z m 47.219529,0.21844 c 1.56701,-4.160018 4.22694,-0.22096 0,0 z m -21.85291,-0.53898 c 1.77996,-3.001337 4.87018,-10.180914 6.50636,-10.157837 -1.75124,3.525114 -3.24834,7.762074 -6.50636,10.157837 z m -9.216509,-1.473359 c 0.09112,-2.385215 5.009097,-8.346856 2.882932,-2.751185 -0.188133,0.474307 -4.029087,6.330924 -2.882932,2.751185 z m 50.913169,0.259369 c 1.59435,-3.28323 9.13961,-9.746073 10.20326,-8.134357 -3.66393,2.381529 -6.14158,6.32116 -10.20326,8.134357 z m -8.2324,-1.159509 c 2.14607,-2.84814 5.84103,-7.412509 9.50505,-6.520277 -3.0972,0.584539 -8.11052,9.128296 -9.50505,6.520277 z m -65.991309,-0.90395 c 1.212266,-3.067994 5.110597,-9.380382 6.752237,-8.881442 -2.072344,3.010749 -2.74589,7.755863 -6.752237,8.881442 z m 89.569549,-0.0534 c 1.09944,-4.222808 4.86466,-7.449348 8.61937,-6.281883 2.42028,-0.805231 6.6457,-8.473352 7.205,-6.173757 -3.14671,5.179452 -9.39969,7.530584 -12.81523,12.467836 -1.10509,-0.335719 4.25273,-7.364621 0.32052,-3.113363 -1.11416,0.636891 -1.70233,4.557776 -3.32966,3.101167 z m 20.63749,0.0837 c 1.9778,-3.655957 9.1313,-10.203111 10.78682,-9.166745 -3.46534,3.188788 -6.48541,7.040009 -10.78682,9.166745 z m -24.9985,-0.61815 c 1.19962,-3.421932 7.80341,-9.231433 9.04016,-8.201021 -1.06297,0.714395 -5.13117,4.987664 -1.75496,3.131917 -2.0557,2.113089 -4.19629,4.604133 -7.2852,5.069104 z m -35.33526,-2.09357 c 1.77963,-3.498435 3.33498,-7.343519 6.30454,-10.014533 -2.68233,7.677761 9.25054,-5.488303 4.11672,1.039448 -3.77502,2.421448 -8.20809,6.588111 -10.42126,8.975085 z m -11.89748,-0.46778 c 1.61186,-2.456711 7.3682,-5.898419 8.4788,-4.605608 -2.48728,2.043502 -5.18885,4.154842 -8.4788,4.605608 z m -46.302089,-0.49731 c 1.461721,-2.792732 4.924718,-8.862136 6.464448,-8.643388 -1.141365,3.447157 -3.056191,6.998118 -6.464448,8.643388 z m 128.859689,-0.54071 c 3.73078,-3.009952 0.57459,-9.897982 6.44371,-10.010793 2.57207,-0.976309 5.74816,-8.427554 6.52222,-6.479869 -1.89096,6.273948 -9.41076,8.666487 -11.2452,15.124047 -0.24599,0.256623 -1.15584,2.788283 -1.72073,1.366615 z m 12.42781,-0.88378 c 5.01372,-2.782637 5.6025,-9.91191 11.42516,-11.769751 1.91481,-1.281131 6.72862,-6.696399 3.62637,-1.609928 -4.82674,3.881445 -8.87601,8.47121 -13.12449,12.852696 l -0.91969,0.358845 z M 57.676801,92.775951 c 3.541826,-1.990462 5.777288,-9.749424 6.81706,-10.509955 -0.03266,4.238341 -2.524707,9.239374 -6.81706,10.509955 z m 154.516659,-0.49239 c 2.06301,-2.57489 5.93345,-5.381214 5.64409,-8.773097 -1.67228,2.627062 -5.08429,1.34802 -1.72123,-0.715292 3.0949,-2.979889 9.37223,-8.00398 12.11035,-7.608569 -1.00443,2.626654 -6.09665,9.317479 -6.74336,7.292987 1.3597,-1.340479 7.44536,-8.080326 2.28258,-4.582472 -5.20443,3.407973 -5.59201,12.69645 -11.57243,14.386443 z m -45.06416,-0.77838 c 0.91329,-1.438512 6.61299,-9.542605 4.28042,-4.202415 -0.94751,1.775041 -2.24707,3.608454 -4.28042,4.202415 z m -78.437529,-0.49086 c 2.486597,-1.808396 8.218971,-5.353885 9.503278,-4.538741 -2.737112,1.948931 -5.844927,5.305962 -9.503278,4.538741 z m 12.376699,-1.60308 c 0.37651,-2.731885 8.86154,-6.02142 3.71286,-1.798125 -0.97712,0.846413 -2.21427,2.622045 -3.71286,1.798125 z m 97.63124,-0.79896 c 0.51836,-2.689199 6.14162,-7.524757 6.98044,-5.801316 -2.2986,1.956415 -3.84595,5.024062 -6.98044,5.801316 z m -15.29606,-1.00058 c 1.47558,-1.989115 4.57799,-6.678563 6.78212,-5.404194 -2.23102,1.527019 -3.89381,5.696962 -6.78212,5.404194 z m 21.94139,-2.94738 c 1.10594,-1.976398 6.51653,-7.031029 6.14338,-4.632391 -1.8458,1.693757 -3.17001,4.968725 -6.14338,4.632391 z M 49.333131,84.450861 c 0.497919,-2.716731 3.403656,-8.501281 5.192964,-7.568922 -1.253327,2.770461 -2.241103,6.129231 -5.192964,7.568922 z m 38.24159,-0.77851 c 2.538763,-2.246816 7.22767,-9.29825 8.139166,-8.572812 -0.95647,1.73125 -3.913012,5.836307 0.271324,3.580165 2.397545,-1.371796 4.468569,-5.546203 2.851948,-0.289158 -1.10935,2.221673 -5.27367,6.052184 -3.10496,1.717196 -2.956,0.462436 -5.157253,3.173754 -8.157478,3.564609 z m -28.21406,-2.2474 c -0.195843,-3.189652 4.774707,-5.77122 1.84249,-1.143299 -0.21396,0.59787 -1.082886,2.072417 -1.84249,1.143299 z m 45.799589,-0.57616 c 2.31389,-1.820238 6.17462,-6.876101 7.62716,-6.556641 -1.95723,2.462613 -4.4245,6.112152 -7.62716,6.556641 z m 7.08503,0.11137 c 2.30355,-1.522741 6.51155,-4.03643 8.66437,-2.960819 -2.74969,1.175569 -5.39335,4.154869 -8.66437,2.960819 z m -48.595499,-1.30503 c 4.378139,-4.323123 6.21427,-10.887893 9.166416,-15.428597 2.053734,-1.215564 6.31302,-0.133652 1.896913,1.03456 -5.316953,2.942902 -5.746733,13.957647 -11.063329,14.394037 z m 5.13952,0.59915 c 0.720405,-2.061565 4.71502,-11.005472 3.044044,-4.490377 -0.543874,1.729106 -1.301095,3.650725 -3.044044,4.490377 z m 12.25176,-0.55243 c 1.479584,-2.110464 3.819574,-8.228172 4.506125,-7.988681 0.535523,3.440124 -0.978787,6.934305 -4.506125,7.988681 z m -7.47019,-0.4455 c 2.506248,-4.264708 4.604616,-8.831587 7.702976,-12.71028 -0.60777,4.783925 -5.329674,11.085387 -7.702976,12.71028 z m 158.710399,-0.57296 c 0.97675,-1.773124 7.95491,-7.100203 3.98609,-2.541702 -1.16688,1.032607 -2.28954,2.446896 -3.98609,2.541702 z m -107.57215,-1.90471 c 1.436,-2.049461 9.20125,-7.647292 4.23936,-2.738378 -1.05193,0.628034 -3.27342,3.637018 -4.23936,2.738378 z m -66.579299,0.0804 c 2.357823,-1.85397 3.871321,-8.001158 5.317501,-8.062035 -0.571283,3.18823 -2.002056,6.885875 -5.317501,8.062035 z m 59.871979,-1.78576 c 2.87482,-0.475462 8.38135,-4.278513 9.45348,-2.895995 -2.6128,2.190631 -6.14213,2.80578 -9.45348,2.895995 z m 71.76088,-1.52154 c 1.21722,-2.689338 11.57628,-5.045363 4.76609,-1.362782 -1.37323,0.913025 -3.04929,1.932359 -4.76609,1.362782 z m -97.797199,-1.02235 c 1.283727,-1.921824 6.848129,-4.070233 2.789969,-0.46419 -0.528787,0.194444 -3.054011,2.10802 -2.789969,0.46419 z m 10.499649,-2.18418 c 1.75514,-2.920066 8.01424,-3.345031 8.9175,-2.017233 -2.63878,-0.886206 -7.6825,4.589838 -8.9175,2.017233 z m -55.900829,-0.80767 c 1.176089,-2.615177 3.728366,-9.910462 5.56367,-8.814834 -1.61336,2.990249 -1.782364,7.633688 -5.56367,8.814834 z m 203.450689,-0.66265 c 2.68562,-1.595227 4.49063,-5.379175 7.12628,-6.298135 -1.71223,2.610274 -3.65719,6.024155 -7.12628,6.298135 z m -35.73928,-0.48252 c 1.70009,-2.870962 8.03696,-7.240533 9.19311,-5.992084 -3.1409,1.859066 -5.22073,5.7617 -9.19311,5.992084 z m -9.52188,-1.06312 c 1.40588,-2.760236 6.89097,-7.019623 8.10235,-5.915041 -2.9755,1.560329 -4.33952,6.030372 -8.10235,5.915041 z m -85.84155,0.22042 c 2.3775,-2.236748 5.7444,-0.53443 1.1656,0.08047 -0.0733,-1.64e-4 -2.27502,0.971944 -1.1656,-0.08047 z m -8.98027,-3.95359 c 4.397,-0.538049 13.98322,-2.497094 15.1153,-2.163173 -4.65187,2.335773 -10.0248,2.497575 -15.1153,2.163173 z m 15.27969,-0.20759 c 5.04524,-3.682079 12.03222,-1.940304 17.73566,-3.54787 -3.40908,2.88455 -8.53185,2.538661 -12.81172,3.305985 -1.63687,0.150511 -3.28011,0.23379 -4.92394,0.241885 z m -26.661416,-3.1745 c 1.742566,-2.260659 10.277796,-2.113557 8.253656,-0.440508 -2.70335,0.483804 -5.53336,1.30369 -8.253656,0.440508 z m -57.133953,-2.5051 c 0.621711,-2.236554 1.986443,-9.490543 3.12001,-7.589231 -0.487311,2.572914 -0.03452,6.583469 -3.12001,7.589231 z m 43.64485,0.33533 c 3.492327,-1.949919 8.204377,-2.406865 10.445651,-6.096174 -1.71598,1.560153 -9.442545,1.58852 -3.720928,-0.485577 2.710297,-1.987075 11.395356,-2.022554 10.137526,-0.288797 -6.221693,-0.244031 -9.396151,7.318348 -15.875533,7.331553 -0.308368,0.09911 -1.11924,0.128992 -0.986716,-0.461005 z m -7.12711,-1.64721 c 1.263751,-3.548232 12.4138,-2.941497 5.451467,-1.447497 -1.254363,0.06383 -5.117666,3.795354 -5.451467,1.447497 z m 36.628149,0.30168 c 6.26219,-2.990171 -11.32955,-1.501033 -3.0246,-3.930565 4.47595,-0.459166 7.75862,4.656512 12.12144,1.317102 3.63837,-1.3632 -6.11917,-2.979811 0.0482,-2.559158 2.83828,0.751517 7.10147,0.07217 9.19878,0.957615 -4.37274,2.225811 -9.61268,0.868322 -13.74324,3.952476 -1.45254,0.579276 -3.09603,0.765913 -4.60061,0.26253 z m 152.98901,-1.64889 c 1.74785,-0.525713 6.70302,-6.045864 4.12817,-1.430433 -1.08291,0.990645 -2.59769,1.915214 -4.12817,1.430433 z m 27.45681,-0.16391 c 1.97072,-1.42604 9.44974,-6.378361 4.48555,-1.536905 -1.2705,0.974925 -2.85381,1.673409 -4.48555,1.536905 z M 65.085141,54.303391 c 0.123847,-3.171541 7.077903,1.984592 2.001565,0.507347 -0.665838,0.0092 -1.492021,0.02423 -2.001565,-0.507347 z m 167.168869,-0.59124 c 2.09667,-2.726348 7.67385,-7.837953 9.36346,-6.724908 -2.64323,1.894996 -7.05752,7.573498 -9.36346,6.724908 z m -80.78002,-3.21075 c 0.8443,-4.558629 13.9874,0.09083 5.09941,-0.263888 -1.69047,0.193417 -3.39543,0.428464 -5.09941,0.263888 z M 46.299721,49.357271 c -0.141691,-2.523329 4.746654,-11.289951 2.967019,-4.343853 -0.468072,1.600761 -0.701736,4.533212 -2.967019,4.343853 z m 176.169469,-1.07315 c 1.95534,-2.891252 8.44866,-7.975511 9.92036,-6.989491 -3.39141,1.666872 -6.1542,7.618941 -9.92036,6.989491 z m 79.15343,0.59243 c 5.76839,-4.238182 12.61838,-6.607217 18.65316,-10.40136 -5.13411,5.072063 -12.23501,7.460207 -18.65316,10.40136 z M 73.551801,48.554971 c -1.993797,-0.09921 -8.100584,-3.871433 -2.628948,-2.562144 0.915908,0.666157 2.796179,1.106963 2.628948,2.562144 z m 209.377189,-0.27149 c 2.57466,-1.023005 6.49832,-5.604896 7.57298,-5.280339 -1.84293,2.456234 -4.14133,5.468874 -7.57298,5.280339 z m -22.13575,-1.16663 c 4.4075,-3.61341 7.78019,-9.874102 13.98756,-10.357488 -4.46279,3.450016 -8.59429,7.491724 -13.25556,10.573321 l -0.37457,-0.02606 z M 119.5893,46.892701 c -2.12315,-0.555124 -7.6657,-3.791063 -5.912,-5.730795 2.01832,1.854707 4.36915,3.416064 5.912,5.730795 z m -42.333329,-0.74671 c 4.657256,-5.942968 13.076003,-0.895923 18.613993,-4.870568 1.702725,-1.774315 10.559816,-4.592952 4.436566,-1.100384 -4.805554,3.614541 -10.571335,5.081223 -16.322291,4.21233 -2.256659,0.526488 -4.354648,1.804508 -6.728268,1.758622 z m 136.392699,-0.33237 c 0.47219,-3.304724 11.62671,-4.612445 4.74713,-1.757524 -1.38062,0.405721 -3.40239,3.037859 -4.74713,1.757524 z m -113.978246,0.0641 c 1.875656,-3.806364 10.692026,-2.169601 10.496366,-0.100692 -3.49124,-0.103934 -7.05525,-0.837673 -10.496366,0.100692 z m 25.210546,-1.44992 c -2.10879,-1.242798 -9.1203,-5.018908 -7.31804,-6.005676 2.67372,2.100819 10.14169,4.024493 9.73052,6.34083 -0.818,-0.0074 -1.6033,-0.254099 -2.41248,-0.335154 z m 126.77351,-1.03851 c 0.86281,-2.778682 6.35649,-7.704588 7.40784,-6.484346 -2.53912,1.45823 -4.8014,7.222594 -7.40784,6.484346 z m -213.146249,0.61751 c -0.552504,-3.113341 4.363178,-4.311755 1.554995,-0.788395 -0.180415,0.38757 -0.985594,1.472259 -1.554995,0.788395 z m 120.107109,-0.85649 c -3.04968,-1.367029 -8.17354,1.961032 -9.89997,-1.475755 3.22757,0.12405 7.49628,-1.396023 9.89997,1.475755 z m 130.8501,-3.81431 c 2.77407,-1.862014 8.77481,-6.455826 10.1015,-5.882055 -3.00087,2.349991 -6.22905,5.365493 -10.1015,5.882055 z M 173.5643,38.839581 c 2.50984,-2.604193 9.88106,-4.726435 10.96136,-3.081443 -3.69023,0.411471 -7.39107,4.01044 -10.96136,3.081443 z m -99.927509,-0.83929 c 4.16642,-6.13644 12.233946,-3.205677 18.201479,-2.847955 2.341519,-0.716257 10.49944,0.264154 8.87243,1.752553 -5.75071,-0.1328 -11.640886,0.325468 -16.994089,-1.860579 -3.440867,0.07615 -7.334434,3.048658 -10.07982,2.955981 z m 233.931469,-0.87979 c 3.34013,-2.628171 12.25896,-8.200854 13.30157,-7.442585 -3.79039,3.029629 -10.99395,6.853597 -13.68978,7.869068 l 0.20344,-0.22349 z m -169.73639,0.41944 c -4.17485,-1.679462 -11.98077,-9.31557 -9.99425,-11.438289 3.77624,4.64821 7.83628,10.79208 14.53828,10.248949 2.72737,1.602125 -3.73545,1.847607 -4.54403,1.18934 z m -89.532889,-0.47294 c 3.779371,-1.708537 4.963251,-8.509245 5.820763,-9.745567 2.666936,2.967554 -2.860104,9.497508 -5.820763,9.745567 z m 240.908889,-1.96792 c 3.06442,-1.688948 8.30705,-7.541943 9.73694,-7.007867 -2.79158,2.683964 -5.74249,6.454622 -9.73694,7.007867 z m -165.3618,-0.28001 c -6.32468,-3.128532 -12.93561,-6.357538 -20.15544,-6.345362 -5.117118,-1.153 -1.23059,-2.260353 1.56901,-1.131283 6.24529,0.797219 12.83253,1.635908 17.90353,5.728247 1.05171,0.429589 3.7253,3.122592 0.6829,1.748398 z m 176.05144,-0.64045 c 2.46678,-2.239643 5.88421,-8.685516 7.05048,-8.827184 -0.84362,3.830071 -3.76311,6.87832 -7.05048,8.827184 z M 42.595551,31.270111 c 0.140455,-2.697816 4.090757,-5.374796 2.051707,-1.085742 -0.26915,0.645013 -1.443305,2.535423 -2.051707,1.085742 z m 105.039589,-0.10869 c -3.46326,0.734774 -6.89171,-4.283478 -1.44136,-1.996832 6.66184,2.531775 13.34554,0.01548 19.08234,-2.862993 1.06363,2.868904 -7.07747,4.628129 -10.01792,5.260875 -2.53167,0.368749 -5.15424,0.312632 -7.62306,-0.40105 z m -53.002249,-1.10889 c -2.291629,-0.01946 -9.991224,-0.0916 -7.810594,-1.774121 2.632363,0.154112 5.858056,-0.475951 7.810594,1.774121 z m -53.91916,-2.14919 c 2.697597,-2.232737 4.877148,-9.097429 5.932182,-9.659162 -0.170878,3.86968 -2.196547,8.105964 -5.932182,9.659162 z m 219.797179,0.32391 c 5.28853,-4.326534 12.65811,-3.575803 18.75159,-6.090665 2.15499,-0.423061 9.57169,-2.251796 3.53263,-1.910181 -2.2927,0.49039 -11.2958,-0.314204 -5.05978,-1.636899 5.627,-0.01433 12.81132,-1.404449 17.31983,2.412319 -4.81525,-0.878145 -10.74782,1.21014 -15.79645,2.848045 -6.27983,1.128498 -12.49779,3.326838 -18.61576,4.618394 z m -89.5782,-1.85431 c 0.99956,-3.253922 11.8973,-3.381903 4.6781,-1.113862 -0.94257,0.144143 -4.9768,3.468542 -4.6781,1.113862 z m -48.14157,-0.74451 c -6.1567,-2.978996 -12.07607,-6.931501 -19.06107,-7.29325 -2.59382,-0.385351 -7.260068,-6.963214 -2.19624,-2.855826 5.82845,2.395077 12.27644,2.80104 17.20612,6.888844 1.57306,0.68751 3.45981,1.481499 4.05119,3.260232 z m -53.291909,-1.44725 c 5.134509,-3.939385 12.363595,-2.04255 18.203492,-3.981123 2.647151,-0.70651 9.906844,3.25404 3.337912,1.990399 -7.172167,-0.788396 -14.327541,0.585557 -21.203291,2.499467 -1.957411,0.602474 -0.673244,-0.148694 -0.338113,-0.508743 z m 60.040499,-2.15696 c -0.1656,-4.016233 -9.52187,-4.901045 -7.90345,-7.187275 3.17157,0.577578 8.86368,3.246292 7.90345,7.187275 z m 19.59772,0.13647 c -3.4669,-3.376684 -9.58049,-4.98059 -11.17611,-9.771544 3.73983,2.589215 11.32651,6.67031 11.52182,9.961164 l -0.26498,-0.14532 -0.0808,-0.0443 z m 249.19038,-1.17816 c -4.17359,-2.937089 -7.84505,-6.587595 -12.46909,-8.086872 -6.72336,1.319235 -13.93108,1.852078 -19.8109,-2.509879 -5.13297,-2.8729196 -10.70113,-4.253741 -16.46719,-4.7199977 4.74257,-3.201721 11.87145,1.6921509 17.21804,3.0874212 6.35972,2.3094955 13.24024,1.5654815 19.82694,2.5718185 -4.86674,-1.8376674 -11.39154,-5.6788305 -15.6197,-3.7239654 -1.76093,-5.5117984 7.6939,-0.8897285 10.23662,-0.1796892 4.03191,2.3916294 10.58463,2.6576786 13.02074,6.3276016 -4.82513,0.790672 4.22286,4.025777 4.5341,6.431248 0.83829,0.423229 0.58137,2.398759 -0.46956,0.802314 z m -19.31455,-8.76308 c -2.83958,-0.478184 -6.66989,0.07008 -1.69632,0.110608 0.24289,-0.0235 3.87737,0.390305 1.69632,-0.110608 z m -330.061919,8.42502 c -0.700913,-3.287921 7.027059,-8.14611 2.512615,-2.348075 -0.501199,0.949006 -1.054982,2.851314 -2.512615,2.348075 z m 103.710859,-0.41346 c 0.0278,-4.708742 9.82302,-2.542215 8.89768,-1.3866 -3.05652,-0.739796 -5.96734,0.816682 -8.89768,1.3866 z m 74.4915,-2.68642 c -0.0282,-1.516096 0.89633,0.950649 0,0 z m 32.78682,-1.19407 c 6.39171,-3.994343 14.03641,-4.932766 21.24749,-6.5522696 5.83828,1.0250386 -4.21964,1.8670206 -5.9942,2.7302636 -5.37404,1.388533 -10.68353,3.010939 -16.03682,4.475106 0.26118,-0.2177 0.52235,-0.4354 0.78353,-0.6531 z m 101.21333,-3.03784 c -3.1592,-1.517611 -8.37725,-0.890508 -10.22027,-3.8702123 5.31017,1.1618283 14.57033,2.0784633 16.95197,5.3237233 -2.35836,0.492353 -4.42425,-1.346119 -6.7317,-1.453511 z m -231.5104,0.23093 c -1.50329,-3.423407 -9.63273,-4.0320642 -9.21968,-5.970874 3.34738,-1.0327566 11.97037,4.599838 9.21968,5.970874 z m 57.99316,0.54907 C 180.45271,10.29758 171.9593,11.711606 164.4274,9.1154119 c -4.74801,-2.8052017 4.30883,-1.3138733 -0.21656,-3.0608116 -4.75546,-2.5875086 -10.26396,-6.81905453 -9.5417,-11.5691543 -4.22906,-4.0884916 -6.99206,-9.319559 -9.38945,-14.671429 -2.83829,-5.378577 -3.99713,-12.739333 3.12907,-15.336043 2.45635,-0.99473 2.93909,0.282165 5.29962,-2.508967 4.30226,-2.621171 8.8656,-5.051802 13.27553,-7.642667 9.48378,-5.368752 20.74831,-7.750416 31.54928,-5.86305 2.80723,2.014861 6.77902,4.02891 8.34865,2.234643 8.00664,2.56075 11.5552,10.845998 15.4142,17.566135 0.68552,6.412427 4.48294,14.566077 0.10653,20.532296 -3.75717,6.0422773 -6.43516,13.6172654 -13.39481,16.7332234 -4.19703,2.2964533 -8.77756,3.8029358 -12.93276,6.1819266 2.75114,0.57671 9.12833,-5.7849464 9.00383,-2.5061983 -4.29396,4.3045163 -11.58119,5.9569193 -17.4422,4.8873653 z m 5.08128,-1.96967 c 3.45031,-4.9505306 11.60416,-3.9005855 13.56193,-10.4078006 3.95115,-4.5355822 9.42719,-8.7300064 10.59626,-14.9112554 -0.37962,-5.439038 0.98653,-10.739334 0.81197,-16.144013 -0.33426,-5.489836 -3.81536,-10.596224 -8.94563,-12.669049 -5.28585,-3.485251 -11.28898,-8.557168 -18.06892,-6.345441 -9.19751,-0.203204 -18.80128,2.379124 -25.46192,9.013994 -5.73026,3.670891 -12.69971,6.414187 -16.12009,12.623368 -1.07451,5.664175 1.15572,11.682205 4.35437,16.344695 3.9815,5.5885133 8.28091,11.0778837 13.35401,15.7043679 6.94244,4.8547961 15.85419,4.7543571 23.95826,4.9325471 3.96088,0.686902 -5.55699,2.746952 0.73555,2.231347 l 0.7456,-0.14413 z m -7.64424,-21.8585616 c -6.11815,-0.3847104 -14.01174,-4.3297354 -13.24018,-11.5032764 0.91516,-6.871866 9.95306,-10.161449 15.84081,-8.597381 3.71609,0.753398 10.09263,0.843411 10.07993,6.014293 -5.17482,-2.709357 3.81677,3.377193 1.07472,5.933715 -3.609,4.700855 -6.84078,10.4036717 -13.75528,8.1526494 z m -0.66146,-2.3714804 c -3.65867,-0.909223 1.35308,0.855683 0,0 z m 7.47448,-0.43981 c -1.25499,-0.790528 -0.4963,0.661821 0,0 z m -5.85651,-1.90444 c 3.48806,-0.04023 0.56311,-4.48115 -0.0521,-0.527281 -0.32976,-0.0041 -2.33295,1.447494 0.0521,0.527281 z m 6.46101,-1.87132 c -2.40448,-1.833795 -3.52169,1.731753 -0.19671,0.653189 0.54508,0.820338 1.04799,0.733207 0.19671,-0.653189 z m -11.61537,-0.6313 c 0.96707,-5.265219 -4.77095,0.55484 -0.11339,0.90259 0.27521,-0.24938 0.0807,-0.600238 0.11339,-0.90259 z m -6.38137,-1.60725 c -2.23391,-0.568264 1.85257,2.146182 0,0 z m 20.03939,-0.01 c 0.73565,-1.187361 -0.43209,-4.427858 -0.68856,-1.366523 -3.05492,-1.385917 -3.38853,-0.01828 -0.53674,1.50344 0.41526,0.735428 1.74238,1.289623 1.2253,-0.136917 z m -10.64548,0.25249 c -2.55773,-2.13872 0.68028,1.666892 0,0 z m 1.94245,-2.12306 c -0.88127,-1.282961 -0.47931,1.201793 0,0 z m -3.84799,-2.645829 c -1.56665,-2.062272 -0.19727,2.229024 0,0 z m 3.68617,-0.1294 c 1.02703,-2.827092 -4.4797,1.312058 0,0 z m -9.04895,-1.268682 c -1.43914,-0.220095 -0.3788,1.925666 0,0 z m 11.05661,-0.586298 c 1.65676,-2.413819 -2.53552,1.673657 0,0 z m 2.3875,0.132289 c -0.9003,-2.906485 -1.59705,1.800633 0,0 z m -8.69464,-0.39687 c -0.21536,-1.014015 -0.64583,1.10352 0,0 z m -34.03214,-2.989019 c 1.35954,-1.514248 7.99218,-7.731629 2.28107,-4.517516 -3.77282,-0.351444 -5.19415,13.750196 -2.28107,4.517516 z m 8.49985,-8.305192 c -1.59375,0.679929 -1.67871,1.888833 0,0 z m 57.1311,-5.74404 c -2.75102,-2.646088 0.69759,2.355142 0,0 z M 80.878881,13.623041 c 0.961739,-4.0690898 10.084133,-2.127428 9.48022,-0.594817 -3.163899,-0.131596 -6.394937,-0.250321 -9.48022,0.594817 z m 64.206099,-1.78528 c -0.37818,-4.6440949 9.52399,0.660145 3.26092,-0.590473 -1.10276,-0.07049 -2.22324,1.507877 -3.26092,0.590473 z M 56.903651,9.4064294 C 59.911037,7.6719051 63.138064,0.2567345 64.224179,0.62083403 63.905192,5.1155155 57.781858,10.629618 55.434606,10.876767 55.82577,10.288559 56.456158,9.9417273 56.903651,9.4064294 Z m -9.27164,0.52242 C 48.307374,7.3961098 55.286074,1.1947042 51.14909,6.8567163 50.181206,8.0826986 49.046168,9.2267577 47.632011,9.9288494 Z m 34.12188,-1.39488 C 84.473367,3.8904211 94.882648,5.8319825 95.537479,7.4650762 90.950436,7.7701264 86.065841,6.3374973 81.753891,8.5339694 Z m 31.176939,-0.27681 c -2.43731,-1.8257685 -10.00553,0.1524098 -9.5683,-2.6358275 3.29845,-0.4033462 7.32888,-0.1794512 9.5683,2.6358275 z m 169.75649,-0.4662 c 4.4493,-5.0939496 11.98957,-3.1590498 17.57949,-5.876755 1.60382,-1.1334011 9.78807,-0.1845444 6.49974,1.2200766 -2.70907,-1.1339842 -10.6769,1.5847539 -9.63391,1.6342144 2.67727,-1.1209588 11.80312,0.2631583 5.16079,2.2939069 -6.31435,1.6094504 -12.99755,1.3407425 -19.39727,0.8339765 l -0.20884,-0.1053294 z m 15.49572,-1.3885 c -2.46013,-0.6242667 -8.90557,0.8165066 -2.93412,0.2778003 0.98057,-0.060633 1.9617,-0.1331673 2.93412,-0.2778003 z m -160.0729,-1.66556 c -3.9807,-2.1910113 -12.48692,-6.9567502 -12.40342,-9.5613722 5.54871,2.011361 9.14922,7.4538495 15.04923,8.8882388 0.89646,1.213219 -2.15842,0.5494695 -2.64581,0.6731334 z M 52.002701,-0.24628057 c 1.707024,-2.04464103 5.898132,-8.40453513 7.292038,-6.42393053 -2.292344,2.2165622 -3.616396,6.24127346 -7.292038,6.42393053 z m 59.913689,-0.47097 C 107.93622,-4.1632769 98.383235,-3.1322209 96.50907,-4.2257386 c 5.00028,-1.9740114 12.25642,-1.0454684 15.6468,3.0751351 z M 70.376801,-6.0419606 c 1.856079,-1.6461057 7.532514,-8.8885014 4.326085,-2.6137852 -1.141991,1.2609072 -2.612989,2.3329474 -4.326085,2.6137852 z m -12.96458,-3.58635 c 1.565086,-1.7525804 7.538532,-9.0196104 3.995663,-2.7197474 -0.936901,1.332356 -2.2549,2.6676365 -3.995663,2.7197474 z m 67.951549,-1.2474604 c -1.68772,-3.576531 -10.06718,-4.088218 -10.02968,-5.79085 3.44774,-0.743579 13.46025,3.771248 10.02968,5.79085 z m -59.267889,-1.66814 c 4.126962,-3.163906 8.565087,-6.054225 13.410005,-7.986005 -3.032341,4.193007 -9.003368,7.33202 -13.410005,7.986005 z m -4.45033,-6.02651 c 2.302617,-2.268686 7.939538,-7.104644 9.25113,-6.116935 -2.843534,2.287232 -5.078679,6.399699 -9.25113,6.116935 z m 25.21211,-0.7465 c 2.833162,-1.779032 5.710783,-8.156729 7.0973,-8.24124 -1.006313,3.546385 -3.389608,7.161017 -7.0973,8.24124 z m 239.137979,-1.45521 c -1.95466,-4.046152 -11.02274,-6.669727 -11.06893,-8.748238 4.67985,-0.898708 8.68489,6.064097 11.29937,5.747496 -0.35013,-2.254461 -2.90494,-11.417687 0.22597,-5.21283 0.95776,2.409968 2.86764,6.751529 -0.45641,8.213572 z m 6.87499,-2.546951 c -0.18768,-3.453021 -3.03904,-10.765725 -1.85497,-11.848871 2.1559,3.400456 3.94614,7.999234 1.85497,11.848871 z M 95.439011,-25.522431 c 3.184079,-2.580273 10.766739,-8.717399 12.342629,-7.312489 -3.44184,2.443481 -9.286464,8.020174 -12.342629,7.312489 z m -13.54689,-0.54633 c 3.742642,-3.378301 6.804502,-6.453233 10.454465,-9.756424 3.159898,-3.953281 6.435474,-7.692493 9.767894,-11.52116 1.47905,-2.133295 9.83767,-8.345048 5.18462,-3.309782 -4.58988,4.114826 -8.683971,8.676098 -12.247522,13.703341 -3.671766,4.667528 -7.884927,9.288589 -13.531344,11.521928 0.123962,-0.212634 0.247925,-0.425269 0.371887,-0.637903 z m -21.56948,-0.0105 c 2.945793,-3.984361 7.039923,-8.259532 11.356135,-8.788629 0.678809,-2.008814 4.462535,-6.663042 2.607759,-1.543658 -1.273524,3.795308 -7.765782,11.090955 -9.340764,9.512667 0.853906,-1.565559 5.775336,-6.367452 3.307886,-6.367179 -2.368438,2.571598 -3.697912,7.345571 -7.931016,7.186799 z m 264.054149,-7.32672 c -2.89778,-2.34673 -7.94581,-9.500486 -6.78809,-10.861295 4.0108,2.92204 6.62294,8.147498 8.82676,12.023388 -0.78774,-0.189346 -1.33904,-0.803401 -2.03867,-1.162093 z m -243.573479,-0.0848 c 2.835976,-1.490311 7.628071,-6.154748 9.061757,-5.768363 -1.669746,3.437214 -5.654726,4.767365 -9.061757,5.768363 z m -4.34109,-4.516239 c 1.39852,-2.468644 6.595379,-6.332943 7.873942,-4.869634 -2.187432,2.188071 -4.714118,4.364785 -7.873942,4.869634 z m 161.194369,-0.97954 c 1.38422,-2.966886 -6.65858,-7.107098 -2.94728,-8.070187 2.38804,0.858867 5.18261,8.474943 2.94728,8.070187 z m 73.64335,0.654309 c -1.63028,-2.791715 -5.52019,-8.178972 -4.69816,-9.894371 1.89257,2.606535 6.04675,6.724728 4.69816,9.894371 z m 19.93366,-3.650991 c -1.31554,-2.28622 -6.24149,-8.111452 -3.91504,-8.096497 1.78224,2.227196 4.72198,5.010702 3.91504,8.096497 z m -225.66721,-0.153985 c 1.55574,-2.665808 5.87757,-7.807488 7.11308,-7.729376 -1.59773,3.088025 -3.33886,6.943826 -7.11308,7.729376 z m 220.46878,-0.35873 c -1.90943,-1.602164 -6.37018,-10.880784 -1.52755,-5.269858 0.32699,0.509145 3.81984,7.055861 1.52755,5.269858 z M 94.044851,-45.378341 c 2.014387,-3.048574 9.781979,-9.031595 10.970069,-7.241995 -3.83346,2.035029 -6.507463,6.630696 -10.970069,7.241995 z m 176.149619,-0.25177 c -0.96675,-3.712107 -7.04523,-9.806601 -5.78148,-11.473627 3.36485,2.326025 6.99588,9.433868 5.78148,11.473627 z M 83.844631,-49.364803 c 1.98392,-1.745742 6.431792,-5.978516 7.729725,-4.93823 -1.940157,2.341585 -4.337036,5.270936 -7.729725,4.93823 z M 242.65121,-50.47356 c -3.37621,-1.405654 -2.38545,-6.226169 -0.0557,-1.711195 0.34267,0.553025 1.27481,4.1327 0.0557,1.711195 z m 53.15058,0.01111 c -0.28593,-2.445367 -5.61982,-6.012476 -3.39243,-7.650775 1.89785,2.056427 3.80589,4.686834 3.39243,7.650775 z m -174.88957,-1.017937 c 5.31176,-5.61295 12.49457,-8.919167 18.3758,-13.786295 1.6245,-2.378305 7.77477,-0.639812 4.38474,0.115929 -5.33352,1.621752 -9.68575,5.965066 -14.42355,8.93801 -2.49565,1.458092 -5.85539,4.904297 -8.33699,4.732356 z m 188.13551,0.152929 c 0.54534,-3.70561 -5.23027,-9.468095 -3.36737,-10.997704 3.01352,2.640772 4.64152,7.101979 3.36737,10.997704 z m 9.0506,-1.459201 c -1.23496,-3.276769 -6.76416,-8.927334 -6.3258,-10.093264 4.68345,1.338832 5.94242,6.738322 7.22025,10.820866 z m -232.375689,-0.0408 c 1.68644,-2.113691 5.660808,-7.145611 7.217065,-5.877149 -1.655689,2.69145 -4.234631,4.819088 -7.217065,5.877149 z m 161.841439,-0.73651 c -0.40574,-3.341894 -7.93377,-7.346225 -6.31729,-8.813154 3.29765,1.655968 7.60908,6.451806 6.31729,8.813154 z M 95.978151,-54.314818 c 1.157523,-2.171034 7.086719,-7.668871 6.696999,-5.411627 -1.95952,1.962127 -3.658596,5.222764 -6.696999,5.411627 z m 131.624219,0.0396 c -0.81747,-2.81492 -6.50594,-6.131559 -5.06473,-7.891358 2.53749,1.774728 5.58612,4.449139 5.06473,7.891358 z M 82.213701,-54.732849 c 2.77045,-1.692687 6.028873,-7.810424 7.906324,-7.163049 -1.307921,3.339409 -3.919749,7.147347 -7.906324,7.163049 z m 242.439769,-2.906609 c 0.28008,-1.915052 -5.29875,-9.102961 -1.0825,-6.75584 1.2744,0.231204 3.12513,11.439685 1.0825,6.75584 z m -73.08691,1.43248 c -2.11427,-0.770671 -4.53135,-5.877972 -0.69057,-2.81881 0.28595,0.176053 2.259,4.035819 0.69057,2.81881 z m -141.91591,-0.587459 c 2.7296,-1.396056 7.63309,-6.606718 8.95121,-5.462151 -2.67559,2.220775 -5.25888,5.149933 -8.95121,5.462151 z m 210.31196,-0.740111 c -1.12428,-5.74732 -8.23908,-10.991862 -7.41215,-16.172508 1.24529,-1.812453 -7.22548,-8.828769 -1.35047,-5.735276 4.01178,5.330754 4.96684,12.2202 8.59075,17.767238 -0.051,1.101816 1.7338,3.530344 0.17187,4.140546 z m -202.66855,-1.162693 c 2.36361,-3.671898 8.12225,-8.533366 10.03247,-8.219186 1.64451,-2.245156 -1.18074,-2.89735 1.62373,-1.039983 3.15953,1.167748 9.39976,-3.857842 8.81907,-4.529359 -1.83889,1.340625 -6.63663,2.122366 -2.62625,-0.46583 3.67921,-3.932103 7.46335,-4.045625 11.77531,-6.113187 1.66581,-1.035984 7.53446,-2.991022 6.30754,-1.035282 2.54307,-0.42884 8.20255,1.47801 2.43212,1.535191 -6.67141,-1.198014 -9.09452,5.263884 -14.41185,7.192351 -7.63005,3.392034 -15.96209,5.923278 -21.98642,12.016752 -0.3355,0.135725 -3.82598,3.388255 -1.96572,0.658533 z m 25.9652,-14.829761 c 3.66236,-0.17215 4.68773,-4.59433 0.40864,-3.169711 -3.92748,-0.934456 -6.04343,7.646095 -0.40864,3.169711 z m -21.80589,14.301761 c 1.83291,-2.868582 3.00836,0.375696 0,0 z m -23.409025,-0.96292 c 3.977165,-8.136383 8.609325,-15.957626 13.108885,-23.782783 -0.78902,5.082438 -4.26243,9.248676 -6.68471,13.675204 2.19209,-1.006737 5.89121,-10.01733 3.87263,-3.523484 -3.76905,4.306193 -6.32287,10.166724 -10.120507,13.992039 z m 177.410405,-1.170821 c 0.41658,-3.147778 -2.28455,-8.72714 -1.29932,-10.073172 1.76545,2.695817 4.18615,7.350734 1.29932,10.073172 z m -161.4217,0.01939 c 2.17268,-3.68045 9.37326,-10.073781 11.16149,-9.366362 -2.79097,4.07324 -7.05178,6.790196 -11.16149,9.366362 z m -8.20001,-0.38454 c -0.38863,-5.897234 9.53344,-8.947822 8.16668,-13.622436 3.69849,-2.957541 8.47069,-4.738502 10.77513,-9.197221 2.89463,5.560503 -5.4686,4.878953 -6.79464,9.800168 -3.29001,3.834586 -5.82186,8.284256 -9.50588,11.76935 -0.78931,0.579962 -1.68456,1.026655 -2.64129,1.250139 z m 4.79322,-4.926229 c 1.22509,-2.146716 -2.50199,3.067934 0,0 z M 280.56325,-63.125 c 1.11548,-3.988498 -7.1164,-9.519768 -5.18032,-10.828666 2.56402,2.729545 6.47822,6.78237 5.18032,10.828666 z m 11.33768,-0.259471 c -3.55878,-5.421725 -7.4246,-10.645202 -11.628,-15.58529 4.12939,-1.43942 6.592,6.216185 9.39395,8.874835 0.78309,1.731671 4.22833,5.051511 2.23405,6.710455 z m 18.19244,-0.80844 c -2.82129,-6.519437 -9.19926,-10.617552 -12.46285,-16.885233 -2.04634,-1.985068 -2.64518,-5.635333 0.43533,-1.968461 1.84566,2.30818 4.24966,3.253047 1.9652,-0.191211 -0.68317,-3.118439 -8.04451,-6.451422 -7.08695,-7.723035 6.89442,2.297265 8.58488,10.112648 11.1692,16.012397 2.27782,3.057541 7.42076,6.432646 5.98007,10.755543 z m -6.88441,-11.357369 c -2.15355,-2.239657 1.87678,3.404773 0,0 z m -33.14281,10.394313 c 1.09215,-6.038851 -7.98753,-11.107523 -8.61807,-13.731715 4.63222,1.791222 9.04258,6.113778 9.4217,11.254987 -0.0317,0.877498 -0.28607,1.759528 -0.80363,2.476728 z m -35.25081,-0.71502 c -2.28248,-0.387506 -10.05635,-1.961093 -7.92646,-3.206475 2.26685,0.846227 7.5885,0.499965 7.92646,3.206475 z m -51.69762,-2.708884 c 3.74627,-0.45943 10.45936,-4.553352 11.77748,-4.197385 -2.9206,3.230847 -7.58868,4.236695 -11.77748,4.197385 z m -41.32383,-1.049411 c 4.26125,-1.32923 8.44676,-6.017862 12.09939,-3.759153 2.43827,-0.634129 7.14241,-1.19161 1.99748,0.722203 -4.5933,1.39324 -9.25949,2.895504 -14.09687,3.03695 z m 153.05667,-0.624679 c -1.20045,-2.890357 -7.27222,-7.08334 -6.14817,-8.508023 2.99104,1.937137 5.06153,5.163236 6.14817,8.508023 z m -138.35188,-1.57408 c 3.84945,-1.596262 13.2941,-5.277618 14.17901,-2.738255 -5.06683,0.06786 -10.19239,4.447289 -14.99009,2.991961 z m 43.04405,-1.060202 c 2.35068,-1.810155 8.92512,-1.795251 9.41285,-0.739618 -3.11855,0.442562 -6.26654,0.637992 -9.41285,0.739618 z m 52.01216,-1.475247 c -1.30399,-3.294196 -7.75272,-7.841522 -6.71395,-9.664489 2.91055,0.953391 9.08328,9.049778 6.71395,9.664489 z m 45.06341,0.816218 c -3.63764,-5.707145 -7.38935,-11.522146 -12.67693,-15.859597 5.48884,-1.291275 7.81831,6.518363 11.09971,9.732099 1.21609,1.760408 2.24592,3.95888 1.57722,6.127498 z m -196.01838,-0.80296 c 1.63413,-2.899736 5.12298,-1.986268 1.23202,0.109248 -0.28242,0.650111 -2.437999,1.212815 -1.23202,-0.109248 z m 18.85701,-0.264589 c 0.57027,-2.703956 9.61592,-7.331296 4.34457,-2.360746 -1.13805,1.126168 -2.48129,3.040524 -4.34457,2.360746 z m 123.86966,-0.0352 c -4.7154,-4.194348 -11.94544,-4.131057 -16.21864,-8.903427 2.58007,0.619496 6.27553,2.833042 6.29366,0.915423 2.77466,-0.496723 10.86069,3.588347 4.26162,2.280095 -3.27652,0.115485 3.94018,1.850624 4.59597,3.475507 0.16274,0.309606 2.51683,1.985699 1.06739,2.232402 z m 34.51333,0.233669 c -2.06165,-1.663412 -4.3779,-6.751194 -0.69184,-2.423557 0.11838,0.522925 1.65884,1.94504 0.69184,2.423557 z m -60.88396,-1.08037 c -2.8952,-0.706877 -11.03223,0.209952 -10.66937,-1.743028 3.49388,0.877148 7.60072,-0.615814 10.66937,1.743028 z m 16.65428,-0.524571 c -5.92244,-3.040228 -12.78818,-2.599315 -19.08225,-4.328029 -1.15614,-2.259753 6.13149,0.425019 7.47143,-1.33815 4.28076,0.43106 9.37475,1.562317 11.61082,5.666179 z m 83.64354,-1.824678 c -1.11454,-3.638183 -8.52334,-6.82871 -8.12819,-8.589261 3.70083,1.24935 9.60135,7.024146 8.12819,8.589261 z m -130.73256,-0.4172 c -2.29084,-1.188742 -7.90525,1.337014 -8.36,-1.516771 2.66453,-0.0745 6.78288,-1.5022 8.36,1.516771 z m 90.25145,-1.334011 c -1.04251,-2.566358 -7.59953,-5.995183 -6.29167,-7.277469 2.50536,1.971744 5.61629,3.908467 6.29167,7.277469 z m -9.10523,-0.691531 c 1.1,-8.215638 -9.66044,-8.075182 -13.69379,-12.287458 1.92169,-2.586309 7.62311,2.272232 10.70138,3.403972 2.86204,1.063492 8.09852,8.487343 2.99241,8.883486 z m 52.07142,-0.733869 c -2.70065,-6.58317 -9.49609,-9.76854 -15.21209,-13.256759 3.41109,-1.4971 9.43948,3.161216 12.47434,5.910875 1.45062,1.856666 4.52149,4.865822 2.73775,7.345884 z m -192.34435,-0.49171 c 5.77998,-4.461574 12.39802,-9.626347 20.18862,-8.446349 2.58571,-0.07738 10.79288,-0.7175 9.07014,2.516398 -3.52224,0.625948 -9.69574,4.911712 -11.51826,3.518183 2.68301,-1.974189 7.12048,-1.798164 9.04879,-4.394784 -5.48781,-1.521678 -13.84631,3.714146 -16.55726,3.502345 1.49711,-1.6258 4.76026,-4.248624 0.58663,-2.06494 -3.09876,1.451079 -9.83288,6.817635 -10.9192,5.453898 z m 16.93333,-7.486869 c -1.56063,-0.611339 -1.61932,1.479988 0,0 z m 162.47197,7.493719 c -2.21493,-5.359586 -7.47614,-9.874557 -10.34484,-13.859158 5.19093,-0.257905 8.50683,7.231958 10.73068,11.554489 0.20412,0.720902 0.48678,1.875177 -0.38584,2.304669 z m -191.70842,-0.125499 c 1.78343,-1.213924 7.49087,-6.575818 7.15902,-3.847649 -1.60748,2.268382 -4.23687,4.207255 -7.15902,3.847649 z m 56.80029,-0.954501 c 1.63743,-1.96024 12.02108,-3.251987 5.45619,-0.589799 -1.63144,0.59713 -3.97313,2.221962 -5.45619,0.589799 z m 79.08229,-0.132511 c -2.42539,-1.572635 -9.86708,-3.161031 -9.11819,-5.098136 3.21542,1.08222 7.32503,1.940124 9.11819,5.098136 z m -54.26799,-1.250079 c -2.7484,-2.669137 -10.41931,1.636162 -10.77652,-1.728683 5.64181,-3.594386 12.72336,-2.841514 18.96823,-1.611551 5.22268,2.738738 -4.41427,0.266755 -6.24595,0.588516 -1.9034,-0.441538 -3.99302,1.068323 -1.94576,2.751718 z m -3.10453,-2.668239 c -2.07603,-0.973555 -0.33143,0.748213 0,0 z m 40.02326,2.564599 c -4.39931,-3.403662 -10.46713,-4.190765 -14.4256,-8.14308 5.55422,0.02115 11.40809,1.410202 16.04643,4.492868 -0.10517,1.704578 -10.9592,-3.649554 -5.1267,0.06699 0.73962,0.928637 4.46406,2.602561 3.50587,3.583218 z m -116.36744,-1.098889 c 4.54847,-5.096309 10.67978,-9.415562 17.68104,-9.898066 -2.81951,4.065537 -9.47841,2.447399 -12.4653,6.878592 -0.67909,0.679809 -6.27394,5.565573 -5.21574,3.019474 z m 42.43787,0.441809 c 3.20583,-4.628495 15.51188,-2.499592 15.39259,-5.793711 -1.99836,0.316652 -8.34723,2.941604 -7.85863,1.0181 6.63561,-1.854903 13.27606,-3.932686 19.34839,-7.247097 -1.67482,2.041348 -4.56088,3.843947 -0.56131,1.486982 4.67201,-1.953118 11.21832,-4.373145 15.34078,-0.127649 1.18951,1.770169 -4.56311,-1.501119 -6.46553,-0.494489 -7.47057,0.193606 -13.87927,4.356259 -20.40218,7.437276 -4.73205,1.199709 -10.689,3.241916 -14.79411,3.720588 z m 7.78375,0.43978 c 1.28206,-2.96822 11.25898,-4.493346 4.42294,-1.146369 -1.34328,0.731248 -2.86049,1.356748 -4.42294,1.146369 z m 6.92336,-0.728599 c 3.78498,-1.206882 12.74455,-4.664059 13.91341,-3.699976 -4.31683,2.126698 -9.10625,3.425944 -13.91341,3.699976 z m 43.68338,0.382249 c -2.86521,0.532898 -8.37382,-2.973833 -2.24958,-1.75905 0.65912,0.38971 2.71831,0.679856 2.24958,1.75905 z m 44.19846,-0.987039 c -5.27175,-3.047146 -10.96532,-5.514778 -16.31889,-8.258301 -7.69554,-2.545424 -15.67052,-4.034737 -23.67853,-5.12909 -6.50809,-1.748888 4.29008,-1.078328 6.41095,-0.647188 7.04279,0.888942 13.91791,2.872955 20.48033,5.553928 3.37535,3.903038 12.48016,3.851395 13.10614,8.480651 z m 15.29323,-1.79823 c -0.0818,-3.158923 -9.36377,-5.686401 -5.54945,-7.663552 3.13064,0.985817 8.83731,2.653396 8.3355,6.620945 -0.6647,-2.684705 -9.37401,-7.239516 -4.19125,-2.886945 1.01863,0.865508 2.98019,2.583011 1.4052,3.929552 z m -11.54115,-2.470711 c -5.26251,-3.956546 -11.28186,-6.715241 -16.79701,-10.278088 3.91926,-1.17213 8.20398,3.963519 12.17505,5.353042 1.31968,0.832752 6.27146,4.461444 4.62196,4.925046 z m 19.21047,-1.985579 c -1.42734,-7.074145 -9.70936,-8.113792 -14.2968,-12.407869 -2.97667,-2.55733 -8.12565,-2.82525 -10.13183,-6.28904 6.88073,1.26239 11.77602,6.48769 17.4814,9.88879 3.66755,1.292926 8.87484,5.854269 6.94723,8.808119 z m -150.97296,-0.400902 c 1.82356,-3.380029 11.10744,-2.977457 10.72091,-1.428613 -2.69283,-0.979035 -11.63974,3.15115 -10.72091,1.428613 z m 69.18853,0.377021 c -4.01615,-2.062784 -9.67189,0.220858 -13.05078,-2.611138 4.19951,-0.804945 13.38098,0.449215 13.87612,2.815999 -0.27511,-0.06829 -0.55023,-0.136574 -0.82534,-0.204861 z m 39.55521,0.1089 c -2.85121,1.042618 -7.13128,-3.925691 -1.92509,-1.719761 0.49493,0.213343 6.01162,2.447433 1.92509,1.719761 z m -30.46277,-0.26411 c -1.11584,-1.92365 -10.2986,-0.733921 -5.54556,-2.829195 1.82385,0.248091 5.96866,-0.05851 5.54556,2.829195 z m -61.38839,-0.596 c 6.80086,-1.700558 13.73338,-3.038823 20.23567,-5.714022 2.60855,-0.649623 8.83535,1.334015 2.76838,1.432787 -8.1851,1.350845 -15.91992,5.611052 -24.39779,4.908659 0.43175,-0.275173 0.93117,-0.41484 1.39374,-0.627424 z m 140.33364,0.179781 c -3.65169,-6.347096 -10.24508,-10.171589 -14.92693,-15.615599 -3.13633,-2.04188 -7.86127,-1.21829 -10.36662,-4.03172 6.18921,1.05972 14.44693,1.74743 17.81681,7.66568 -1.49501,0.2016 4.30834,4.609057 5.53448,6.664048 0.7236,1.224316 3.26423,4.212066 1.94226,5.317591 z m 7.23318,-4.258631 c -1.07352,-4.650978 -11.10791,-6.678738 -10.86532,-8.421198 4.15416,1.3644 11.11348,4.14391 10.86532,8.421198 z m -86.53962,-0.0687 c -2.37611,0.944215 -8.62391,-3.759918 -2.82421,-2.195154 0.51087,-0.08438 5.81917,2.535813 2.82421,2.195154 z m -63.31738,-1.762785 c 1.52264,-2.802273 11.89184,-3.963413 5.04745,-1.016097 -0.80656,0.09592 -5.76926,3.364376 -5.04745,1.016097 z m 150.31725,-0.19371 c -0.56985,-5.566233 -11.32916,-9.408823 -11.10784,-11.414263 5.19023,1.65676 12.01783,5.60517 11.22088,11.912914 l -0.0668,-0.294726 -5e-5,-2.14e-4 -4e-5,-1.55e-4 z m -116.56166,-0.0616 c 2.02054,-2.243843 8.88768,-2.532243 9.07614,-0.721686 -2.99035,0.528344 -6.03299,0.967008 -9.07614,0.721686 z m 73.25011,-0.80458 c -4.88242,-4.266823 -11.78937,-4.596933 -17.14697,-8.066163 -3.85292,-2.21149 -11.74848,-3.18423 -13.56916,-4.78881 8.25615,-1.29248 14.76199,5.38669 22.4479,6.98223 2.87488,0.63864 10.42175,3.29115 10.20693,4.81734 -0.75063,-0.74866 -2.24676,0.0725 -1.9387,1.055403 z m 11.3324,-0.2074 c -0.95127,-2.492893 -10.6857,-1.983493 -7.07409,-3.796433 2.55179,0.2374 7.04424,0.24803 7.07409,3.796433 z m -25.65197,-0.322623 c -3.50345,-4.21757 -14.65451,-4.97078 -15.58633,-6.73331 5.65176,-0.60938 12.61706,1.18376 15.5086,6.43962 l 0.0773,0.29215 z m -72.88583,-1.3931 c 2.71105,-1.1483 9.32368,-1.75925 9.91968,-0.62283 -3.25971,0.62394 -6.60583,0.99477 -9.91968,0.62283 z m 52.21092,-1.72718 c -2.09534,-0.81158 -10.38611,-2.23826 -3.99222,-2.67411 1.34423,0.34073 4.68699,0.52085 3.99222,2.67411 z m -9.24853,-0.29352 c -5.77116,-3.26135 -12.65525,-3.95454 -19.15085,-3.21025 2.29154,-0.93526 10.89599,3.15655 4.60755,1.8924 -2.72266,-0.66401 -9.75287,0.79074 -9.31155,-2.3146 6.18168,-3.3296 13.59402,-1.36783 20.04906,0.0968 1.38759,-0.44197 8.57382,4.17281 3.80579,3.5357 z m 54.13282,-0.97273 c -2.14222,-1.38441 -8.27816,-2.90731 -7.45989,-4.8753 1.88314,0.55562 9.30839,3.45408 7.45989,4.8753 z m -41.4256,-4.99909 c -2.98252,-1.50711 -10.37735,0.36779 -10.54107,-2.13866 2.98063,0.46916 10.18107,-1.78115 10.54107,2.13866 z"
       id="path5060"
       inkscape:connector-curvature="0" />
  </g>
</svg>
