<?xml version="1.0" encoding="UTF-8" standalone="no"?>
<!-- Created with Inkscape (http://www.inkscape.org/) -->

<svg
   xmlns:dc="http://purl.org/dc/elements/1.1/"
   xmlns:cc="http://creativecommons.org/ns#"
   xmlns:rdf="http://www.w3.org/1999/02/22-rdf-syntax-ns#"
   xmlns:svg="http://www.w3.org/2000/svg"
   xmlns="http://www.w3.org/2000/svg"
   xmlns:sodipodi="http://sodipodi.sourceforge.net/DTD/sodipodi-0.dtd"
   xmlns:inkscape="http://www.inkscape.org/namespaces/inkscape"
   width="300mm"
   height="300mm"
   viewBox="0 0 300 300"
   version="1.1"
   id="svg8"
   inkscape:version="0.92.1 r15371"
   sodipodi:docname="diprotodon.svg">
  <defs
     id="defs2" />
  <sodipodi:namedview
     id="base"
     pagecolor="#ffffff"
     bordercolor="#666666"
     borderopacity="1.0"
     inkscape:pageopacity="0.0"
     inkscape:pageshadow="2"
     inkscape:zoom="0.35"
     inkscape:cx="-332.58949"
     inkscape:cy="94.849701"
     inkscape:document-units="mm"
     inkscape:current-layer="layer1"
     showgrid="false"
     inkscape:window-width="2560"
     inkscape:window-height="1365"
     inkscape:window-x="-9"
     inkscape:window-y="-9"
     inkscape:window-maximized="1" />
  <metadata
     id="metadata5">
    <rdf:RDF>
      <cc:Work
         rdf:about="">
        <dc:format>image/svg+xml</dc:format>
        <dc:type
           rdf:resource="http://purl.org/dc/dcmitype/StillImage" />
        <dc:title />
      </cc:Work>
    </rdf:RDF>
  </metadata>
  <g
     inkscape:label="Layer 1"
     inkscape:groupmode="layer"
     id="layer1"
     transform="translate(0,3)">
    <path
       style="fill:#000000;stroke-width:0.25974828"
       d="m 186.37992,229.71606 c -0.70813,-0.82023 -3.10312,0.77651 -2.25442,-1.51105 -0.75839,-0.29961 -3.34846,1.32603 -2.3201,-1.00751 0.36935,-1.35717 1.72212,-0.33329 0.5583,0.48125 1.67193,-0.85238 3.07893,-0.1297 2.76436,1.12808 1.17122,-0.32183 2.58085,-1.46778 2.28427,0.28861 2.87163,-1.06458 -0.61813,2.181 -1.03241,0.62062 z m 4.84901,-0.82532 c 0.74444,-1.0377 4.68469,-0.44006 2.04765,-2.21964 -2.28935,-0.40004 0.47554,-3.75369 1.36627,-3.87361 0.43116,1.13254 -1.88252,2.21245 -1.11883,3.05962 1.51368,2.1007 3.74258,0.74511 5.46634,-0.29084 1.97683,-0.37959 1.74498,-2.00211 1.34005,-2.9124 2.72358,0.45764 1.0516,3.50183 -0.82601,3.52939 -2.35153,0.89597 -4.46019,2.62335 -6.98591,2.82441 -0.33302,-0.0953 -1.25348,0.49814 -1.28956,-0.11693 z m -1.07859,-0.51747 c -0.94694,-2.17439 2.14204,-0.55539 0.10604,0.29345 l -0.0771,-0.10068 z m -3.34826,-0.88364 c 0.0537,-1.19686 3.40364,-2.02308 1.34139,-0.43661 -0.35418,0.13095 -0.99422,0.98921 -1.34139,0.43661 z m 3.74829,-0.77743 c -0.90173,-1.1573 -1.22277,-1.78247 0.38808,-2.38027 0.76064,-0.75127 2.83775,-3.76493 1.96653,-1.12089 -1.23889,1.00982 -1.67181,2.63228 -2.06584,3.74465 -0.10498,0.0711 -0.41416,-0.0929 -0.28877,-0.24349 z m -10.37681,-0.86764 c 0.15385,-1.34024 2.14038,-0.29286 3.06383,-0.66809 -0.27947,0.66664 -2.94565,2.07933 -3.06383,0.66809 z m 5.12321,0.13919 c 0.53362,-1.33775 2.93936,-0.81994 0.81874,0.0814 -0.18684,0.0484 -0.75511,0.32423 -0.81874,-0.0814 z m -1.33988,-0.59177 c 0.38415,-0.80472 3.41712,-2.98781 2.38997,-0.93831 -0.73811,-0.0435 -1.90413,1.8541 -2.38997,0.93831 z m 3.87241,-0.29282 c 0.42783,-1.04589 2.10607,-3.66777 2.93709,-2.98193 -0.75276,0.61405 -2.0921,3.92941 -2.93709,2.98193 z m -4.15039,-0.87942 c 0.83324,-1.45946 0.11604,-1.8504 -1.03579,-0.76686 -0.8195,1.01799 -2.53415,0.67435 -0.84977,-0.31665 2.50476,-1.2864 4.88936,-2.78975 6.66073,-5.03756 2.25823,-1.42047 1.85603,-4.25575 3.47946,-6.15489 2.46019,-3.05579 2.87929,-7.11459 4.30778,-10.66752 1.19933,-3.82232 2.23653,-7.69569 3.6082,-11.46426 1.49124,-2.18971 -0.42343,-5.06288 0.54314,-6.91812 -0.99178,-2.35385 0.31901,-5.07989 -0.35508,-7.60442 -1.0527,-5.60994 -6.19801,-8.82789 -9.30174,-13.22517 -3.90716,-5.18851 -7.3639,-10.75612 -11.98174,-15.36856 -1.18978,-0.69488 -1.14454,-2.92769 -2.34087,-3.25159 -2.20776,-0.0379 -4.44077,0.10599 -6.62094,-0.30183 -2.79974,-1.52331 -4.65873,-4.40137 -7.53869,-5.76342 -1.11514,1.59257 -1.02114,5.77413 -3.88529,5.03977 1.39397,-0.3427 2.29139,-2.96734 0.11774,-2.17177 -1.00476,2.15024 -0.79741,-3.35184 -2.16051,-0.76613 -0.38604,1.26334 3.091,4.48841 0.16623,2.65301 -1.73269,-1.31229 -3.26135,-4.12761 -0.87238,-5.62574 1.72521,-0.65672 1.82219,-1.62648 0.47184,-2.6846 -1.1164,-2.4562 0.71445,-4.86517 0.59375,-7.37101 1.11569,-1.49935 0.7751,2.47032 0.27259,3.21792 -0.71571,1.30927 -0.54476,5.46847 1.23427,4.54731 -0.55957,-2.04721 -0.0317,-4.19357 1.53824,-5.27206 -1.82832,-2.59086 -3.36045,-5.46502 -4.3598,-8.4793 -0.64239,-1.22328 -0.12324,-4.57429 0.43431,-1.60993 0.5247,3.36185 2.44388,6.29941 4.16633,9.16354 1.72692,-0.63833 2.38397,-4.04714 2.82143,-6.04765 -1.01747,0.76772 -2.28565,4.49711 -3.57203,3.81351 1.22686,-1.56721 2.52866,-3.36138 2.97911,-5.14619 2.1791,0.63933 -0.0418,-4.58555 1.54961,-3.18515 0.38893,3.77376 -0.82162,7.50642 -0.50388,11.28934 -1.22749,1.37479 -0.52992,-3.36577 -1.09593,-2.38147 -0.32228,1.12367 -2.83562,2.95056 -0.72609,3.25707 1.99038,0.40729 5.28339,-1.06775 5.03638,2.38234 0.73522,3.30349 3.08609,6.72948 6.70433,7.10986 2.80828,0.87795 3.94305,-2.58037 6.3648,-3.14947 2.86534,-0.82983 0.33737,5.25767 0.81719,1.49103 -0.8325,-1.86333 -2.93016,0.90043 -4.03557,1.7445 -0.55936,0.88695 -1.4751,0.75384 -2.38415,0.63986 -2.86249,-0.0625 -5.70351,-1.64723 -6.87402,-4.33658 -1.74161,-1.64324 -0.5059,-6.50928 -4.06153,-4.9352 -2.07164,-0.76478 -5.32864,-0.48307 -4.02814,2.56107 0.38817,0.92421 0.18666,1.65846 -0.6863,2.17642 -1.60347,0.83434 -0.57689,2.73013 0.59428,1.00084 0.63998,-0.55406 1.56728,3.02339 2.06088,1.44846 1.39492,-2.74824 4.17697,0.8737 5.67135,1.96678 1.05556,0.86014 1.99911,1.96447 3.11212,2.69415 2.98478,0.29377 6.35999,1.03311 8.91314,-0.97348 2.58726,-0.34793 5.19319,-0.55392 7.76773,-0.99078 1.3741,-0.0909 2.75103,-0.12848 4.12652,-0.19276 1.1634,-3.58093 0.70685,-7.43693 0.93218,-11.14308 0.2301,-3.97091 -0.23466,-7.91758 -0.99094,-11.81006 -0.30689,-2.70421 -1.08378,-5.47378 -0.66212,-8.18144 0.98565,1.90525 0.77478,4.82911 1.29137,7.11446 0.59134,3.96951 1.46603,7.93031 1.18456,11.97025 -0.23943,4.3066 0.203,8.76609 -1.13022,12.92407 -1.80646,0.1112 -4.3477,-0.11802 -6.42764,0.28313 -2.25146,0.85952 -5.11271,-0.28212 -6.94897,1.54904 0.22435,2.13268 2.08279,3.95252 3.6019,5.4906 4.43841,4.78624 7.6555,10.52092 11.83032,15.51179 3.05544,3.31884 6.66783,6.64095 7.66077,11.22853 0.69964,2.64928 -0.90547,5.51904 0.71669,7.93517 0.39268,2.72261 4.08148,2.67178 5.39073,3.44246 -1.84401,0.37932 3.04507,0.39808 1.01953,2.12034 -1.63634,1.67958 -4.5842,3.13196 -4.15996,5.86789 -0.55094,4.56833 -2.09679,8.99326 -3.99129,13.17029 -1.80735,1.60566 -2.20586,3.86041 -2.2862,6.31389 0.14036,3.4287 -3.73836,1.93743 -5.79837,2.67488 -1.23088,-0.13014 -3.1646,1.43035 -1.63581,2.30107 -1.17452,0.26898 -2.36625,0.67578 -1.12946,1.23863 -2.06787,0.68526 -4.4236,1.80558 -4.5829,4.1005 -0.20374,0.087 -0.66087,0.20454 -0.72741,-0.13907 z m 11.11695,-8.58314 c 3.20705,0.5007 1.66567,-3.9698 2.58246,-5.88336 1.29172,-5.6309 3.2059,-11.12174 5.40939,-16.45723 0.59527,-2.16445 4.45336,-3.9271 4.22461,-5.53719 -2.27834,-0.20362 -4.5193,-1.18454 -5.97335,-2.99299 0.9017,3.46864 -1.22536,6.78328 -2.05733,10.07467 -1.36959,4.77609 -2.94631,9.48953 -4.48587,14.21129 -0.73408,2.44486 -3.37808,4.15449 -3.30498,6.82086 0.91457,0.33221 2.4596,-0.58142 3.60507,-0.23605 z m 5.02429,-9.52926 c 1.43709,-3.61969 2.70065,-7.3736 3.24184,-11.23936 -1.00436,0.94343 -1.63541,4.58979 -2.50126,6.47461 -0.56713,2.17662 -1.995,4.67514 -1.82396,6.74608 0.47585,-0.58388 0.75502,-1.3099 1.08338,-1.98133 z m -40.6829,-67.16522 c -0.81989,-2.9472 -1.5947,1.68993 0,0 z m -2.15714,-1.18616 c -0.72618,-2.53861 -2.36035,2.04888 -0.15315,0.26877 l 0.15315,-0.26882 z m 30.03017,86.31782 c -0.11898,-1.8635 2.50979,-4.1194 3.8802,-3.7243 -1.23006,1.19572 -3.0383,2.64782 -3.66207,4.03943 z m 17.85398,-1.59433 c 0.87726,-0.54798 4.35323,-1.59955 3.0662,-3.82384 -0.59266,-0.72178 -3.63547,-1.4746 -2.59325,-2.38146 2.51481,0.93075 5.28913,3.11968 2.70108,5.75204 -0.79244,0.51835 -2.27702,0.76521 -3.17403,0.45326 z m -6.77292,-0.25662 c -1.15754,-0.0973 -2.46221,-1.21191 -0.51356,-1.00681 0.92271,-0.36539 1.86851,1.80753 0.51356,1.00681 z m 5.27153,-0.12545 c 1.35958,-1.90253 -2.46602,-3.59331 -4.13554,-3.73459 -1.3132,0.0595 -2.64402,-1.2961 -0.44335,-0.84324 2.22474,0.44696 5.09977,1.41196 5.8697,3.73327 0.0475,0.4269 -1.1508,1.79489 -1.29081,0.84456 z m -8.89822,-0.97166 c -0.47307,-0.64384 -0.64029,-2.63964 0.46494,-1.46432 0.6998,0.78906 -0.0456,3.57245 -0.46494,1.46432 z m -2.15716,0.20017 c 0.84004,-1.27797 2.6334,0.72377 0.45503,0.35185 -0.18256,-0.0221 -0.46315,-0.11458 -0.45503,-0.35185 z m 5.18574,-0.93832 c -1.17175,-1.18265 0.25883,-2.94717 0.5113,-0.70194 0.82015,0.57748 0.13287,2.05856 -0.5113,0.70194 z m -3.29824,-1.99314 c 0.56649,-1.36486 3.83441,-0.61446 1.37975,0.0682 -0.37358,-0.0226 -1.25848,0.52402 -1.37975,-0.0682 z m 8.89823,-0.16561 c 0.45589,-0.89363 1.85644,-2.97699 1.38767,-0.66797 -0.20825,0.41145 -0.93761,1.31477 -1.38767,0.66797 z m -0.63036,-2.70864 c -0.99822,-0.93414 -4.00607,1.03248 -3.97791,-0.31809 1.78624,-1.47128 4.89625,0.70662 6.03133,-1.1461 0.22548,-4.8645 2.06602,-9.45597 3.07235,-14.18542 1.55382,-4.94763 4.92817,-9.14475 6.24309,-14.18574 0.001,-1.99911 3.51313,-5.46216 0.0679,-6.23814 -1.43337,0.34699 -4.20868,0.11674 -4.96092,0.49094 0.72515,1.57905 1.17184,3.432 -0.12461,4.89408 -1.2836,2.04847 -1.71832,0.31304 -0.33093,-0.81637 1.30817,-2.74817 -1.54648,-5.09522 -2.06151,-7.69525 -1.15602,-2.64844 -2.98945,-4.93943 -4.20146,-7.57152 -1.83729,-3.35974 -3.73943,-6.71094 -6.12943,-9.70598 -2.02517,-4.00909 -3.4402,-8.3104 -5.72934,-12.1931 -0.93089,-1.21627 -1.54115,-5.25692 0.25396,-4.94254 -1.1804,3.23153 1.36308,6.00336 2.52499,8.80467 1.82439,3.58012 2.78992,7.6737 5.63718,10.65029 2.8116,4.49767 5.19337,9.25404 7.95199,13.77989 0.68407,2.28191 1.63384,5.20072 4.64614,3.86444 2.27461,-0.98827 6.10665,0.2473 4.54499,3.28553 -1.11627,1.97265 -1.33812,4.22958 -2.29744,6.26639 -2.09394,4.98983 -5.22122,9.59565 -6.19536,15.00229 -0.6787,3.35903 -2.12976,6.60331 -1.92655,10.0919 0.008,1.33057 -1.80142,2.87122 -3.03848,1.86783 z m -28.49111,-11.37721 c 1.35699,-2.40922 -1.1287,-0.0927 -2.10004,-0.46983 1.61427,-1.94014 -1.62535,0.57105 -1.11617,-1.35675 -3.17387,-0.84816 1.25,-3.37706 2.89759,-3.37988 2.32149,-1.13679 0.0776,1.39368 -1.1416,1.25315 -0.99554,0.21657 -3.04454,1.79066 -0.87334,0.86867 1.64374,-0.93765 1.5602,0.14739 0.9761,0.99057 0.60628,1.20751 2.84018,-0.23651 1.75573,-1.51049 1.28487,0.48208 3.3804,-3.16856 2.90287,-0.62693 -1.05854,0.30015 -2.67703,2.64946 -0.78685,1.54281 1.40089,-0.5528 1.29977,-2.98659 2.01798,-3.11951 1.2677,0.43065 2.06615,1.51979 0.32112,1.35845 -0.71835,2.02933 -3.15758,2.41764 -4.03441,4.19388 2.01088,-0.60227 4.84356,-1.85752 5.55136,-3.86749 1.36477,1.9376 -2.65379,3.27811 -4.08406,4.26448 -0.56533,0.0387 -2.30247,0.97276 -2.28628,-0.14113 z m 3.50538,0.29331 c 1.71605,-1.35881 4.1815,-1.78931 6.09571,-2.80871 0.5253,-0.8528 0.88389,-4.57091 1.20328,-1.6151 2.16711,1.64379 1.06559,-2.4434 1.85096,-2.72221 1.71271,2.02678 3.18572,-2.21407 0.87013,-2.85275 -0.64104,-1.91507 3.02967,1.20085 1.96154,2.51746 -0.69705,1.61546 -2.75467,1.43646 -2.59964,3.51085 -2.25546,1.31128 -4.45438,2.66225 -6.98189,3.50907 -0.54146,0.21191 -1.96462,1.1756 -2.40009,0.46139 z m 4.58392,-5.23977 c 0.27179,-1.00725 2.26359,-2.62147 1.57111,-0.65134 -0.24664,0.32552 -1.30432,1.35671 -1.57111,0.65134 z m -6.42379,-0.92628 c 0.38753,-1.21047 3.17078,-2.16532 1.53829,-0.36146 -0.22451,0.0354 -1.83442,1.38019 -1.53829,0.36146 z m 4.79465,-0.10889 c -0.9398,-2.83168 3.35577,1.34285 0.40062,0.37646 l -0.23012,-0.16419 -0.17045,-0.21227 z m -6.59008,-0.72376 c -0.64838,-1.60316 3.66131,-3.19254 1.40629,-1.15384 -0.53551,0.22143 -0.66425,1.98487 -1.40629,1.15384 z m 9.56744,-0.22812 c -0.75963,-0.66611 -3.18317,-1.73589 -0.92578,-1.9176 1.20226,2.97615 4.9099,0.0388 2.95864,-2.188 -0.85022,-1.73919 -1.06577,-3.71156 -1.88561,-5.48092 -0.40736,-0.0184 -0.0183,2.77072 -1.04286,3.13379 -0.41775,-2.6429 0.79021,-5.38374 -0.19243,-7.98345 -0.21508,-1.05707 -0.4265,-1.96836 -0.57506,-0.37398 -0.0539,1.60905 -1.38102,1.82572 -0.75107,0.0158 1.03074,-2.5647 -0.60382,-4.67036 -1.28541,-6.87374 0.59237,-0.49163 1.54561,-3.26999 0.72516,-2.94509 -1.64057,1.50956 0.35098,-2.15382 -0.95169,-2.81637 -0.34207,-2.28643 1.2044,1.41145 1.05062,-0.87258 1.03569,-0.28788 0.13855,2.93916 1.1793,3.75152 0.44335,1.34086 0.94516,-2.1287 1.51182,-2.74103 0.62548,-1.38807 1.33375,-3.4888 -1.00498,-2.35869 -2.38532,0.44669 -5.24431,0.311 -7.23664,1.71656 0.88694,5.1887 3.43515,10.02553 3.72507,15.34187 -0.0245,2.67021 1.42159,5.008 1.51818,7.64853 0.17553,1.03448 1.25542,4.52228 -0.38281,2.349 0.41953,-2.91927 -3.76817,0.39697 -1.0079,0.14841 2.5836,0.64927 -3.52798,1.43687 -1.50658,-1.05964 0.5296,-1.55639 2.94271,-0.74397 1.94269,-3.02219 -0.84739,-2.58483 -1.30821,-5.26613 -1.57687,-7.97403 -0.58705,-4.32708 -2.58512,-8.30314 -3.33255,-12.59679 -1.21562,-0.76934 0.13209,-1.60834 0.30349,-1.85054 -2.53306,0.36018 -1.68724,-3.20273 -2.79554,-4.60871 -1.09295,-2.4968 -2.34642,-4.96344 -4.10096,-7.06086 0.19314,-1.23387 2.9703,2.74241 2.15371,0.0868 -0.31328,-0.94414 -1.24472,-3.46092 -1.87402,-3.30122 -0.0469,1.41967 -1.86367,2.47421 -0.7838,0.31561 0.69385,-0.85222 0.41646,-1.59647 -0.33523,-2.28797 -0.73802,-1.22174 -3.42031,-2.17604 -2.14636,-3.68996 1.85879,-0.77243 -3.78143,-1.94212 -0.46912,-2.0089 2.15069,0.27325 2.04684,3.16079 4.25492,3.24304 0.28765,1.38659 1.12953,2.03657 2.22459,1.57274 1.50325,1.7139 3.18978,3.50153 4.3575,5.3236 0.49481,0.91089 0.40721,1.64481 -0.37091,0.92503 -0.73058,1.35911 0.94861,2.70929 1.6056,3.88703 1.11929,1.3967 0.83209,-2.58063 1.52469,-3.18994 1.79449,0.54994 3.1055,2.00518 4.48714,3.2336 0.95933,0.65908 0.93649,4.55114 2.6817,4.22628 0.11967,-2.10046 2.35543,-5.06054 -0.72678,-6.02191 -2.19382,-1.14041 -4.58205,-1.958 -6.49755,-3.59369 -3.60605,-2.50605 -5.84703,-6.50697 -9.65508,-8.76852 -2.10464,-1.30364 -4.1943,-2.76771 -6.53145,-3.58654 -0.68238,1.41234 0.84293,4.30983 0.94481,1.26476 1.36323,-0.54479 -0.67997,3.2137 0.99967,3.92531 1.12248,1.97428 3.20864,3.80345 2.39664,6.27458 1.09379,0.76189 1.76671,2.56004 -0.0428,1.07954 -1.50931,-1.28799 -0.17086,-4.11666 -2.77085,-4.83503 -1.6292,0.84978 -2.17545,-2.85317 -3.86497,-3.5067 -0.80197,-0.45433 -3.00245,-3.65536 -1.35612,-3.36295 0.26011,1.54251 2.33071,3.66022 2.3683,0.83867 0.45962,-3.79952 4.24842,-1.16976 6.12741,-0.0791 3.486,1.87948 6.33621,4.65928 8.88727,7.6427 2.61282,2.77539 6.02007,4.55911 9.47082,6.05912 3.56798,1.16132 1.17694,4.57438 1.15775,7.01006 -0.6159,0.95115 -4.20037,1.0223 -1.3713,1.37842 0.69367,1.64087 -1.12433,4.1144 -1.69502,5.95602 -0.71765,2.09847 1.12798,3.77258 -0.24773,5.38693 -0.25131,3.99656 1.34934,7.76992 2.2353,11.59296 0.62898,1.91067 2.4522,4.14868 1.53594,6.27326 -0.46202,1.20426 -1.65528,1.90503 -3.03494,1.35513 z m -1.39129,-20.1857 c 0.29919,-1.06376 -0.3708,-4.70064 -1.02309,-1.93736 -0.54221,1.03297 1.23153,5.81944 1.02309,1.93736 z m -5.75425,-9.99951 c 2.12142,-0.92214 5.52922,-0.1741 5.62274,-3.32299 0.89854,-0.91374 -0.61559,-4.00665 -1.11288,-3.26118 -0.51926,1.29014 0.53429,2.97575 -1.09174,3.3096 -0.37211,1.65658 -1.7337,1.50277 -0.59276,-0.13391 1.49027,-1.21436 -0.82857,-6.46614 -1.49519,-3.04214 -1.10735,1.48094 -0.0882,3.22366 -0.042,4.57868 -0.80093,-0.82669 -0.91912,-1.71162 -1.68391,-0.25027 -0.40142,-0.89488 0.3475,-2.13106 -0.16262,-3.12575 1.49985,-0.018 -2.05582,-5.05174 -1.66525,-1.74565 -0.72131,1.53781 0.67875,2.99149 -0.71792,3.65586 0.21536,1.88624 -0.55426,5.12754 2.94154,3.33775 z m 5.45513,-0.29383 c -1.74982,-0.18612 -0.0464,0.387 0,0 z m 1.54678,-1.11949 c 1.55488,-0.66189 -1.08151,-4.24576 -0.93198,-1.22862 -0.46136,1.12706 -0.58298,2.05336 0.93198,1.22862 z m -11.27613,-5.12871 c -0.51202,-0.95665 -2.34538,-3.00666 -1.11971,-0.7332 0.24464,0.81829 2.59814,4.77262 1.89551,1.93923 -0.2311,-0.419 -0.50441,-0.81269 -0.7758,-1.20603 z m 1.45312,-3.19647 c -1.56513,-3.09658 -2.50701,2.2585 -0.94565,3.21257 0.50286,0.9616 0.96336,1.69193 1.0086,0.155 0.15051,-1.11206 0.7558,-2.38283 -0.063,-3.36757 z m 6.57721,1.83301 c -1.42106,-1.0338 -0.46582,1.90323 0,0 z m -8.6434,-2.25488 c 0.98701,-2.49794 -1.39718,-4.0533 -2.42297,-5.97009 -0.66428,-0.66601 -0.73523,2.68543 0.24759,3.11519 1.07014,0.73198 1.04972,3.62261 1.98714,3.40707 l 0.10427,-0.24863 0.0841,-0.30361 z m 1.50754,-3.08522 c -0.31378,-1.2533 -3.38924,-3.44856 -2.0082,-0.88077 0.64294,1.01428 1.71548,-0.33483 1.61244,1.5787 0.26221,1.17714 2.1239,4.39023 1.62706,1.28564 -0.2647,-0.73886 -0.78052,-1.35263 -1.2313,-1.98357 z m -4.84437,-3.0235 c 0.10768,-1.01227 -1.78412,-2.92637 -2.14659,-2.70738 -0.29982,0.68572 2.12987,5.33435 2.14659,2.70738 z m -3.31145,-0.0529 c -0.5546,-0.70951 -2.52534,-4.75866 -2.32334,-1.97781 0.51688,0.61971 1.95811,2.06962 2.32334,1.97781 z m -2.81789,-3.54551 c 0.31043,-2.35516 -2.45695,-0.88031 -0.95463,0.44731 0.40871,0.35496 0.93481,0.0648 0.95463,-0.44731 z m 22.44011,47.7087 c -0.19196,-1.67038 -1.49738,-2.91613 -0.61354,-4.94162 1.26116,0.91412 -0.0189,2.78373 1.46751,3.44966 0.61714,1.20359 -0.71993,5.20996 -0.85397,1.49196 z m 77.80455,-5.6833 c -1.84323,-2.35729 1.72402,-3.98835 3.53605,-4.66608 0.28888,0.94311 -2.56034,1.18887 -1.85999,2.88135 -3.03866,1.86802 2.50344,1.03405 3.38341,0.36652 1.69361,-1.66682 2.5614,-3.39374 4.2111,-4.87095 2.90361,-0.72481 -2.13157,1.79518 0.52889,2.01637 0.95056,1.05826 4.78271,0.98465 3.03173,2.90652 -2.3796,1.80638 -5.53156,1.259 -8.29288,1.03218 -1.41325,0.1801 -3.27225,1.12322 -4.53831,0.33409 z m 10.89677,-1.2287 c 3.23218,-0.96271 -1.1049,-1.6892 -1.96229,-2.85833 -1.10198,0.15061 -2.80232,2.09147 -2.70935,3.16945 1.54392,0.16494 3.19823,0.27628 4.67164,-0.31112 z m -7.67089,-0.54127 c 0.97201,-0.67457 2.19865,-3.43468 3.22787,-2.66449 -0.47519,0.92206 -2.30295,3.13873 -3.22787,2.66449 z m -0.17833,-1.61707 c 0.6851,-1.08369 2.33543,-1.37513 0.99763,0.10582 -0.72633,1.00159 -3.23404,1.64872 -0.99763,-0.10582 z m 8.97393,-1.5289 c -1.39973,-1.02633 0.60613,-1.95642 0.77673,-0.34774 1.05561,1.45884 -0.0534,1.54132 -0.77673,0.34774 z m 1.99013,-0.53632 c 2.18153,-0.54549 1.07274,-2.34091 1.47188,-3.87117 1.42955,1.35358 1.07908,4.81284 -1.47197,3.87117 z m -44.96223,-1.40461 c -2.07584,-0.57206 -4.57468,-3.60899 -1.8275,-5.0532 1.73379,-0.0496 -2.20977,2.09716 -0.041,2.98187 1.07644,0.57173 2.52015,2.05727 3.57778,1.83146 -1.35181,-0.54775 -2.34839,-4.16384 -0.50986,-1.79514 0.49325,1.2133 3.29435,1.83908 1.04785,0.0904 -0.12077,-1.61159 2.02401,0.48614 2.54091,-0.45551 0.98735,1.38516 2.80164,-0.006 1.28891,-1.11961 -1.12208,-1.87419 2.16228,1.20879 2.60079,-0.77776 0.48993,-1.57286 2.35239,-0.98396 1.31619,-2.97772 0.0645,-2.10076 -3.86445,-0.34267 -1.79529,-2.61148 0.12707,-2.66722 -2.57507,-4.54928 -3.06192,-7.16725 0.0269,-2.37826 -1.15347,-4.23186 -0.74294,-6.25416 1.17563,-2.42765 0.12807,-5.02028 -2.81972,-5.02546 -1.68847,0.35687 -3.204,0.62304 -4.87551,0.16599 -2.0802,1.9844 1.29114,4.25715 2.16896,6.01636 2.05091,2.92065 3.35482,6.67323 2.28917,10.21718 -0.006,1.74993 0.89636,3.18687 2.28065,4.15047 -0.47157,0.91451 -1.99149,-0.86209 -1.70764,0.93001 -0.9135,0.80982 -2.9385,1.29078 -0.87778,1.59739 1.17769,0.67209 0.0851,3.00761 -0.23234,0.92981 -0.64297,-0.65248 -2.87826,-1.25259 -0.9111,-2.18032 3.06915,-0.77722 0.52948,-3.62397 0.63089,-5.6301 1.17474,-3.43198 -0.27076,-7.26492 -2.40166,-10.01789 -1.34465,-1.85412 -3.50881,-3.83048 -2.56565,-6.3207 -1.80173,-1.47479 -3.16187,-3.53449 -2.48092,-5.96272 1.57063,-4.07975 3.83284,-7.87183 6.02407,-11.63193 0.76972,-2.55829 1.24845,0.76255 0.0286,1.49367 -2.06322,3.43993 -4.24301,6.92047 -5.36582,10.79863 -0.73889,3.05174 2.30451,5.17103 5.05083,4.21925 2.31205,0.342 7.1319,0.33566 6.04704,-3.19418 -0.52823,-1.41004 -2.08552,-1.5451 -2.83637,-1.83169 -0.14649,-2.54316 -1.64494,-5.23841 -1.43069,-7.57807 0.9882,1.03978 0.93909,2.81379 1.37975,4.20787 0.23779,1.65353 0.29757,-0.0182 0.40637,-0.77413 0.80527,-2.16936 -1.72256,-4.84887 -1.087,-6.46869 0.88897,0.58388 1.72494,5.6933 1.8416,2.41793 -0.0318,-1.49079 -2.48102,-5.11187 -0.54671,-5.43524 0.96545,0.86039 -0.0792,4.60742 1.45824,3.99441 0.71744,-1.0418 1.24997,-5.52111 2.14581,-2.41612 1.80988,0.81725 -0.5872,3.73426 2.27389,3.16306 0.95559,-2.25835 3.47549,-2.59698 5.36397,-3.83394 0.0807,-2.09473 -0.99324,-1.59821 -1.9803,-0.24929 -1.12674,0.47738 2.19982,-2.57651 -0.38882,-2.49636 -3.3641,-0.58446 0.41248,2.8785 -0.68964,4.04705 -0.61063,-1.62459 -3.12823,2.27563 -1.88893,-0.34358 1.62477,-1.28027 0.45141,-3.84555 -1.47803,-2.61723 -2.12639,-0.34633 0.546,-3.11601 1.52387,-3.10416 1.76243,-1.42885 2.09732,-4.17579 2.94519,-6.27595 1.67645,-5.54241 1.26273,-11.78329 -1.40923,-16.94657 -3.06051,-4.99263 -7.52254,-9.060875 -12.40632,-12.235925 -0.93146,-0.66964 -4.16209,-2.27444 -1.6121,-0.61585 4.45867,3.28482 8.10563,7.740925 9.99502,12.982705 2.16769,5.45506 4.83404,11.39935 3.3006,17.37724 -0.87816,2.70413 -3.4565,4.31179 -5.31783,6.31387 -1.60156,1.48108 -3.62301,2.62269 -5.59868,3.4065 0.77466,-2.03757 3.99837,-2.2198 5.2884,-4.12234 2.02599,-2.14985 4.59079,-4.24321 5.22258,-7.26165 0.53126,-6.7179 -2.42797,-13.04711 -5.23631,-18.96759 -3.15974,-6.116825 -9.02441,-10.378675 -15.26358,-12.987555 -2.71909,-1.43713 1.31328,-0.69259 2.15952,0.15909 2.19749,1.65302 5.05628,1.25443 7.20877,2.91367 4.47523,3.09128 8.78078,6.649615 11.93798,11.119835 2.76549,4.13142 3.81459,9.29323 3.52072,14.21352 -0.41956,3.67529 -1.87087,7.14569 -3.21707,10.56016 -1.64276,2.57458 2.04209,0.51456 2.25138,-0.85789 2.74387,-3.86342 3.97437,-8.7675 3.02732,-13.44204 -0.92635,-5.12634 -3.23958,-9.91824 -6.01778,-14.28217 -3.10465,-3.416725 -6.94587,-6.114075 -10.88591,-8.486585 -2.53178,-1.01835 0.50823,-1.2321 1.35187,-0.0465 2.21523,0.36876 4.58192,0.87994 6.59821,2.2025 3.07984,2.0066 6.03611,4.32271 8.45473,7.101005 2.72687,3.87445 3.79597,8.67957 4.25937,13.32036 0.36872,1.81445 -1.20103,5.75408 1.51047,5.71738 -2.43334,2.24337 -2.42377,-2.5406 -2.20927,-4.08069 -0.22008,-5.38628 -1.41058,-11.04482 -4.80959,-15.35789 -3.51271,-3.344135 -7.363,-6.665765 -12.11232,-8.037875 1.9772,1.57868 4.12708,3.02845 5.94771,4.83227 2.26028,1.794395 3.90376,4.171295 5.08809,6.781635 2.69651,5.19757 4.43759,11.08191 3.71396,16.97504 -0.45061,1.1347 0.93326,0.88544 1.63533,1.15054 3.24715,0.5453 6.81853,0.65085 9.67455,-1.2492 0.97506,-0.18833 2.36275,-3.71282 2.26305,-1.28974 -1.98987,3.15363 -6.20584,3.81493 -9.65657,3.62863 -2.06222,-0.0583 -4.93041,-1.86761 -5.17871,1.37076 -0.31026,1.61592 -3.37838,4.40975 -1.50183,5.43882 0.73596,-0.6068 1.60831,-3.97354 1.95355,-1.29538 0.56542,-0.57026 2.38348,-3.94843 1.7962,-1.29096 -0.50047,2.02332 -4.52861,4.46129 -2.3694,6.18636 1.61272,0.32117 -1.29961,1.56182 -1.60142,2.09231 -1.28755,-1.83801 -2.24706,1.88779 -3.52229,0.69794 1.20953,2.94412 -5.61791,2.37658 -3.86525,-0.36819 -0.69993,-2.34854 -2.01423,2.42638 -2.18579,3.5656 -1.03085,2.23791 -1.65855,5.5571 0.62382,7.26075 1.90935,1.49749 1.42693,4.20473 -0.78526,5.06208 2.1727,1.30883 2.13558,3.7128 1.55386,5.96834 0.67275,2.66933 -0.0609,5.69978 1.55921,8.12421 1.27736,1.80983 2.35866,4.13147 2.36959,5.98601 2.09415,0.356 2.29786,4.19535 0.44783,4.8868 -1.76247,1.27576 -2.8981,3.97007 -5.5239,3.3722 -0.90325,1.17762 -2.9435,2.40211 -4.11555,0.80121 z m -0.33784,-28.68299 c 0.45928,-0.80844 -2.23697,0.33122 -0.39109,0.17796 z m 8.50486,-21.28504 c 0.0986,-1.28595 -1.80131,1.15719 -5.1e-4,0 z m 6.53356,-0.87458 c -0.83352,0.17214 -0.99856,2.13012 0,0 z m -2.09966,0.20312 c -0.64918,-2.09122 -1.96871,0.92681 0,0 z m 30.47381,50.74094 c 1.9425,-0.81997 -0.87611,-1.80283 -0.028,-2.76193 1.23399,0.50312 3.14347,3.13497 0.028,2.76193 z m -6.69186,-0.6731 c -1.65728,-1.89912 -0.91205,-4.71089 -1.09295,-7.03697 0.0702,-1.00685 -0.59788,-5.46511 0.63246,-2.89587 0.38674,2.976 -0.25146,6.07195 0.62224,8.9769 0.5453,1.92461 5.69259,-1.38017 3.70971,0.81873 -1.20387,0.29588 -2.72896,0.89319 -3.87146,0.13721 z m 9.38828,-2.35549 c 0.78627,-2.0676 -0.0274,-4.07062 -0.3898,-6.17397 -0.24783,-2.79669 -0.87696,-5.85595 0.32614,-8.49957 1.52919,-1.2364 1.779,-3.03114 -0.35657,-3.80392 -1.28856,-0.87491 -1.00364,-2.92003 0.30812,-0.80333 2.45713,0.90956 2.63308,3.47242 0.75001,5.07466 -1.17214,3.11645 -0.55886,6.60908 0.12122,9.77306 0.55772,1.00559 0.94461,5.04902 -0.75912,4.43307 z m -5.12321,-1.24892 c 1.99039,-2.0825 -0.11182,-4.34169 -0.97108,-6.38837 -1.02038,-2.49726 -0.89052,-5.31275 -0.61338,-7.94374 0.87749,1.33976 0.3508,4.42227 0.99814,6.34902 -0.0605,2.64025 3.61759,4.59301 1.91682,7.17666 -0.18243,0.23152 -1.08028,1.45242 -1.3305,0.80643 z m -34.78398,-1.81807 c -0.47131,-0.52773 -3.92624,0.14274 -3.19396,-1.03266 2.16323,0.53298 4.39742,-0.27207 3.6245,-2.84692 1.54142,-0.0878 0.80567,4.89604 -0.43054,3.87958 z m 36.55008,-1.98344 c -0.72406,-3.36721 -2.40355,-6.75907 -1.33116,-10.2504 0.86681,-0.43708 0.35776,3.19567 0.57936,4.21492 -0.30156,1.93397 2.30223,5.04075 0.90725,6.25639 z m -37.21348,-2.12685 c 0.23275,-0.807 0.54013,-5.14465 1.15662,-2.42027 0.38234,0.52428 -0.75856,4.06302 -1.15662,2.42027 z m -3.2699,-0.90481 c -0.21305,-1.03729 0.33121,-5.90879 1.32747,-3.05303 0.23206,0.6982 -0.32371,3.95168 -1.32747,3.05303 z m 32.98347,-0.80861 c -0.25382,-2.29798 -1.58934,-4.47657 -1.5958,-6.88235 0.96887,-1.10723 0.95808,2.81218 1.55551,3.60183 0.0901,0.62682 1.78275,3.97549 0.0403,3.28052 z m -30.52146,-2.03983 c -0.20302,-1.09132 0.82453,-2.71485 0.80266,-0.71827 0.45365,1.20839 -1.13937,3.7363 -0.8417,1.10572 l 0.039,-0.38745 z m -1.54162,-3.69245 c 0.0769,-0.94673 0.17946,-4.30657 1.36577,-3.59793 -0.40634,0.97123 -0.26387,3.42713 -1.36577,3.59793 z m 34.83081,-1.51878 c -0.47381,-1.84147 -2.66644,-3.87905 -3.64454,-1.08832 -1.56929,1.91024 0.18006,-3.92262 2.21939,-2.11504 1.20259,0.2943 3.14672,3.69585 1.5318,3.67805 l -0.10665,-0.47478 z m -35.59291,-1.50609 c -0.18771,-1.05984 1.81948,-4.27115 1.23027,-1.55741 -0.18345,0.4209 -0.42944,2.20193 -1.23027,1.55741 z m 36.8113,-1.49104 c -2.18058,-1.39488 -4.77269,-1.7572 -7.30093,-2.09791 -2.32641,-0.50258 -3.18942,-3.63632 -1.61754,-5.36267 0.25908,-0.96853 3.2752,-3.39383 1.75012,-1.02545 -2.25221,1.51486 -2.49652,5.86987 0.94333,5.83394 2.40121,0.56248 4.97802,0.61424 7.00007,2.23158 0.83537,0.72212 1.62582,1.01181 2.31719,-0.0438 2.16449,-0.86618 -1.1561,2.69406 -2.23003,0.94794 -0.2962,-0.14477 -0.58454,-0.30578 -0.86221,-0.48358 z m -37.88986,-0.36474 c 0.53556,-0.95947 0.42389,-3.90459 1.1877,-3.74952 0.27885,0.95834 0.0103,4.28384 -1.1877,3.74952 z m -187.536875,-0.4972 c -1.120961,-0.8541 -3.409476,-2.08462 -3.492844,-4.31154 -1.425549,-3.92037 -0.25128,-8.17233 1.434667,-11.80406 1.126915,-2.04941 3.926203,-3.8822 2.515761,-6.50882 -1.15755,-3.05496 -1.450368,-6.45347 -0.300682,-9.55704 0.663978,-2.17919 1.752129,-5.56176 4.714191,-4.73548 2.404109,0.67441 4.861108,1.06134 7.362786,0.77846 2.1049,0.35083 -1.955082,1.10689 -2.636575,0.80507 -1.26486,0.17291 -4.430814,-1.05357 -1.930623,0.81256 0.255422,0.97194 -3.810681,-0.89131 -1.664116,-1.35223 -2.774267,-1.65822 -4.56862,1.17951 -4.995755,3.62092 -0.527363,1.85032 -1.168856,4.43025 -0.613452,5.97374 0.779644,-2.74798 1.109654,0.72309 0.293488,1.64659 0.08158,1.17072 0.639776,2.90906 1.174467,0.9177 1.009237,1.37091 -0.27999,3.53345 -1.046194,4.94844 -1.0471,1.75396 -3.734666,3.71626 -2.52568,5.93341 0.55102,1.18536 -0.589542,-2.45761 1.332755,-1.1752 1.766498,1.11539 3.065109,0.0288 3.459167,-1.42371 0.424602,1.22497 0.69692,-3.6665 1.386455,-1.00835 -0.437279,1.50846 -2.524291,4.93871 0.491993,5.16096 2.318661,0.28811 3.513698,-2.04582 4.54827,-3.12307 -0.69651,1.73096 1.196904,1.26702 0.333203,-0.1115 0.004,-2.07468 2.326497,2.22348 0.165503,2.12092 -1.890561,1.4618 -4.563208,1.62115 -6.616139,2.07853 0.441716,1.22287 -1.347819,2.64191 -0.80745,0.61981 0.412465,-1.31425 0.214743,-1.2766 -0.666416,-0.6356 -0.834199,-0.71066 -0.0069,-3.70639 -1.176611,-1.51623 -0.774554,-0.91451 -0.328969,-1.69557 -0.714095,-0.13752 -1.012603,0.63919 -0.500155,-1.15561 -1.383672,0.21356 -1.566742,-0.40733 -2.51723,3.6953 -1.857555,5.32408 0.427632,2.19645 0.957457,5.17816 3.633433,5.49581 1.991144,1.47237 1.063895,-3.62665 1.443053,-4.86865 -0.237665,-1.09065 0.776047,-3.84975 0.857446,-1.16498 -0.101478,2.31093 -0.204596,4.66861 -0.836474,6.90142 -0.285436,0.52213 -1.964767,1.09587 -1.882305,0.082 z m 2.586897,-12.58744 c -0.939111,0.0771 0.842918,1.89009 8e-6,1e-4 z m 226.568068,12.02428 c 0.63516,-0.75368 1.83896,-1.32245 0.34896,-2.41638 -1.48738,-2.07719 -1.08964,-4.67723 -1.08982,-7.10742 0.30298,-4.25578 -0.14053,-8.50178 -0.28582,-12.75071 -0.10619,-2.59935 2.5061,-4.35182 2.49706,-6.97896 -0.32255,-2.08566 -0.0341,-4.3469 -1.27272,-6.17185 2.01588,-0.26892 1.55719,3.9448 2.12862,5.47584 -0.16922,2.85087 -2.32369,5.1608 -2.25234,8.02866 -0.1478,2.81995 -0.29145,5.687 0.18154,8.4592 -0.22319,3.08895 -0.62938,6.27221 0.0229,9.32388 1.29726,1.30319 3.06289,4.6463 -0.2784,4.13774 z M 78.922512,154.13671 c -2.398255,-0.45061 -4.691109,-1.41917 -7.075478,-1.79396 -7.311448,-0.20931 -14.644814,-0.0312 -21.932266,0.61223 -0.08082,-1.36265 -1.454608,-1.35959 -2.097804,-1.66129 1.528764,-1.59951 2.402857,0.028 2.673323,0.90198 4.711312,-0.43007 9.4529,-0.38377 14.162675,-0.79396 1.298099,0.19115 -0.666593,-2.05326 1.058339,-1.66696 0.508103,1.08559 0.704878,2.51123 0.506981,0.42315 -0.01773,-1.17519 -2.022563,-3.14674 -1.007319,-1.20155 -0.228832,1.14989 -1.297262,1.54974 -0.974976,0.0949 -1.493638,0.97775 -0.13411,-1.06697 -1.318467,-0.48008 0.33477,-1.18754 -0.808999,-1.83758 0.623709,-2.43076 0.164945,-1.77203 -2.563632,1.20834 -3.721482,0.7205 -2.264091,0.24928 -3.636082,2.46459 -5.87109,2.9629 -0.887741,0.68757 -5.077295,1.23085 -2.334528,-0.009 1.525408,-0.74061 4.922064,-1.00365 4.754529,-2.86093 0.899764,-1.16374 -1.388878,-1.30689 0.08994,-2.46813 0.665339,-3.11268 0.656403,0.86515 1.054485,-0.17311 1.294263,-1.08869 -0.07012,-3.66658 2.030076,-3.58786 1.037813,-1.25912 0.349826,-3.78132 1.50456,-4.53624 0.388626,1.24753 -0.785758,5.07708 1.585808,2.69943 0.844163,-1.18397 -1.306039,-0.72101 -0.509959,-2.27095 -0.209298,-1.60839 1.061259,-2.26385 0.78436,-0.204 -0.389463,1.65738 2.646093,1.80473 0.882233,0.69626 -0.455627,-1.03303 0.755711,-3.8294 0.741287,-1.29198 0.673373,2.36809 3.772941,-0.023 3.023844,-1.78658 -0.52087,-1.27131 0.796877,-2.52858 0.698662,-0.53257 0.117496,0.72079 -0.677893,2.70109 0.652416,1.71729 1.496891,-0.81009 3.413892,-0.97874 4.716072,-1.92175 -0.708064,-1.08742 -0.01804,-2.82158 0.609146,-0.77694 0.336202,2.25805 1.131423,0.13056 0.284839,-0.82913 1.304829,-1.29725 0.662644,2.72393 2.420172,2.48298 2.318197,0.98362 4.479718,-0.82401 6.702929,-0.31201 2.440055,0.96189 5.01921,-0.32087 7.548084,-0.003 1.97697,0.34313 4.047187,-1.82278 5.605717,-1.41747 -1.79836,0.6448 -1.79919,2.93562 -0.48009,3.84565 -1.57494,0.003 -4.808349,2.64128 -5.2031,-0.0883 -1.424574,2.25382 -5.247079,0.3491 -7.540703,1.72291 -2.881933,-0.20907 3.027835,-0.79337 0.984815,-2.34589 -0.841491,-2.56857 -5.530393,-0.006 -2.330314,0.90255 -0.335818,-1.54181 1.017741,-2.03812 0.835776,-0.21674 -0.540966,1.19642 -1.388225,1.49069 -0.099,2.30433 1.034391,1.04422 4.427472,0.17517 6.287265,0.41915 2.541584,-0.13169 5.240023,0.0475 7.573243,-1.11091 1.84485,-0.5392 6.866899,-0.55815 5.796619,-3.36365 0.23367,-1.52375 -0.73442,-1.6351 -0.45924,-0.008 -0.34111,2.08152 -0.62037,-0.0208 -0.9012,-0.60055 -0.15355,0.91772 -1.06013,3.62621 -0.95299,1.09837 -0.707459,-1.97808 -0.869739,3.54519 -1.428169,0.87836 -0.33621,-0.93284 -2.72619,-1.46904 -1.18985,-2.87748 0.17534,1.1969 0.99614,1.92087 1.98133,0.52031 1.287139,0.008 2.371819,-1.53459 3.496719,-0.73493 -0.92117,-0.99537 -0.0172,-3.79199 0.99562,-2.6113 0.37865,1.1789 0.20755,3.55516 0.31913,3.74058 2.01232,-0.79986 -1.37246,2.78344 -2.04948,3.27035 -1.65756,0.18552 -2.30808,1.13453 -2.935989,2.39765 -0.27261,-2.54325 -1.29041,0.44475 -2.27254,0.45511 0.53501,-2.39339 -0.54922,-0.7214 -1.08222,0.45111 -1.38023,0.6721 0.75435,-2.52319 -1.06565,-0.92069 -0.3865,1.69694 -1.57746,1.33667 -0.89356,-0.10072 -1.847926,-0.10233 -2.652489,1.76248 -4.166576,2.11994 0.167973,-0.49875 1.732392,-2.7934 -0.259878,-1.57378 -0.268476,1.23228 -2.567213,2.02146 -1.103803,0.23514 -1.43929,-0.91927 -4.992627,-1.17188 -6.180003,0.89872 -1.699382,0.42055 1.236885,-1.98421 -0.832966,-0.5563 -2.839765,1.51664 -6.191809,1.524 -9.185238,2.57253 1.053518,-0.76107 2.764019,0.84023 0.679409,1.43242 -1.380788,0.0701 -3.081207,1.22244 -2.607444,-0.92496 -0.731711,-0.31329 -0.506558,2.50781 -1.272601,1.28169 0.970841,-1.81739 -0.698585,-1.06867 -1.721639,-0.6031 0.253446,1.48761 -2.375,3.01673 -2.041719,0.67744 -2.285714,-0.0562 -0.76626,2.69235 0.663817,3.06253 1.658522,1.31146 -0.154617,4.61954 2.829983,3.46412 2.092041,-0.37094 4.410424,0.7439 6.17662,-0.0111 -0.732546,2.15618 3.708206,-1.29205 1.589179,1.19434 0.30845,0.0952 2.9628,-1.35573 2.560681,0.16454 -2.561741,0.33715 1.265943,0.98604 1.738489,-0.2981 -0.32548,1.16015 -0.210984,1.67288 0.951395,0.64588 2.173427,-1.46303 0.214886,0.8225 0.48739,0.89368 1.601614,0.87812 2.967683,-2.62783 3.455964,-1.27642 -1.509479,2.65349 1.094353,-0.52 1.883233,-0.19369 -0.292965,1.51669 3.17442,-2.69438 1.951783,-0.0224 0.258021,-0.32193 1.356285,-0.86553 1.882126,-0.36488 0.524866,-1.34517 2.913878,-0.38887 4.254418,-1.41588 3.20476,-1.16113 6.604849,-1.87733 9.633479,-3.46344 1.62632,-1.22556 3.00656,-3.09838 3.79746,-4.50479 0.0333,-2.0309 1.82958,-2.52307 2.00055,-4.46202 0.63392,0.34353 0.15012,2.37486 1.00468,0.524 -0.73254,-2.49358 1.2995,-3.32613 1.64204,-5.50115 -0.17102,-1.07224 1.63415,-3.56178 1.90183,-1.65494 -0.95001,1.75555 -0.36005,2.01301 0.42476,0.26043 0.94816,-2.18521 2.22886,-4.23946 2.01738,-6.74922 1.04909,-2.94835 -2.30375,-3.80929 -3.68378,-1.45182 -1.60397,-0.2556 2.50027,-2.44949 1.60152,-3.90756 1.02465,-0.87929 -0.0325,2.70529 1.91587,1.74168 1.59246,1.28406 1.01952,4.39332 0.70746,6.31058 0.0304,2.49608 -2.20993,4.33571 -3.12854,6.56211 -2.69684,4.50372 -5.12514,9.34895 -9.0216,12.95841 -2.50286,1.6627 -5.57293,2.2004 -8.348779,3.28778 -4.72654,1.42209 -9.328883,3.52956 -14.283524,4.00272 -1.749734,0.0929 -3.484534,-0.2699 -5.170663,-0.6837 z m -19.168275,-7.99932 c 2.358314,-0.36227 4.326811,-2.03107 6.76653,-2.26337 2.615273,-0.8266 5.560961,-1.11151 7.567489,-3.19813 1.56005,-0.83402 1.854699,-2.37183 1.805654,-3.77777 1.876202,1.05694 -0.678077,3.46587 0.466994,4.22698 0.102929,-0.9737 1.543662,-2.80616 1.07563,-0.73553 -0.361405,2.85326 1.012731,-2.54532 2.02786,-0.89737 0.485935,-1.11146 2.083085,-2.59586 -0.230548,-2.09531 -2.227245,0.45797 -0.979928,-2.47078 -2.866006,-2.50877 -1.965247,-1.27879 -4.55076,0.13282 -6.571229,0.76001 -2.407492,0.82033 -4.194263,2.49675 -6.353782,3.61527 -1.492109,1.7328 -2.912669,2.9009 -4.537839,4.58164 -0.789494,0.91208 -2.656152,3.88904 -0.108977,2.39662 l 0.491345,-0.076 0.466881,-0.0283 z m 14.180013,-9.88478 c -0.673703,-2.1104 0.557858,-0.62879 1.363779,-0.12542 1.59252,0.30097 -1.388054,1.3481 -1.363779,0.12542 z m -2.248347,7.31852 c -0.441839,0.21714 0.25544,1.28469 0,0 z m 3.708751,-2.35032 c 0.05054,-1.80271 -1.281095,1.47878 0,0 z m 5.126275,-1.36958 c -0.644478,-0.45989 -1.304564,1.65022 -0.06082,0.26882 l 0.07811,-0.14611 z m 1.415785,-0.96551 c -1.359276,-2.92362 -0.816485,2.46008 0,0 z m 31.626696,-2.38321 c -0.35918,-1.12337 -0.83117,2.33577 -0.0768,0.46368 l 0.0768,-0.46367 z m -33.427504,-0.22976 c -0.0081,-2.58437 -3.136363,0.0364 -0.80893,0.35485 0.256788,-0.0235 0.762708,0.01 0.80893,-0.35485 z m 7.552665,-0.54153 c 0.797984,-2.36367 1.243351,2.6144 2.402959,0.37118 0.330508,-1.30224 -0.123197,-1.82718 -1.40087,-1.40807 -1.233012,0.0754 -4.833138,0.0367 -2.382098,1.71149 0.610633,0.27718 1.388321,0.16827 1.380009,-0.6746 z m 6.312458,0.42826 c 0.0399,-1.59432 -1.933896,-2.35332 -2.604789,-1.19474 0.340007,1.34216 1.319166,1.71381 2.604789,1.19474 z m 0.52352,-1.71488 c -1.350567,-1.52019 0.25607,1.721 3e-5,0 z m 132.659821,17.44622 c -0.67208,-1.10238 -0.74553,-5.94432 0.23246,-2.55189 0.12003,0.38536 0.43854,3.93441 -0.23246,2.55189 z m 1.7946,-1.89215 c 0.34109,-2.24076 -1.61978,-4.94097 -0.55741,-6.81281 0.79987,1.95307 0.80699,4.90506 1.33367,7.23172 0.16925,2.1205 -1.11294,1.09122 -0.77626,-0.41891 z m 34.10574,-0.29724 c 1.17959,-2.81052 2.02349,-5.76523 2.83939,-8.68018 0.97163,1.38864 -0.44268,4.10596 -0.91906,5.85729 -0.24368,0.53249 -1.54693,4.3868 -1.92033,2.82289 z M 231.33366,149.201 c 0.21014,-2.01763 -1.52796,-4.42676 -0.91703,-6.06776 0.6677,1.35554 2.42485,5.62927 0.91703,6.06776 z M 49.184505,146.00654 c -0.08743,-2.96944 1.402175,0.74678 0.183818,1.25724 -0.203676,-0.383 -0.158776,-0.83931 -0.183818,-1.25724 z m 1.212278,0.56718 c -0.354639,-1.55523 2.084768,-3.24105 1.253016,-0.62171 -0.08589,0.77163 -0.965455,2.33441 -1.253016,0.62171 z m 2.119875,-1.97576 c -0.257429,-1.38496 0.993475,-2.44848 0.837008,-0.44889 0.06878,1.37392 -1.284793,3.26128 -0.837008,0.44889 z m 138.238932,0.72874 c 1.28366,-0.28077 3.92908,-1.78402 3.22139,-2.94411 -0.76118,0.17325 -3.37122,1.88502 -3.08704,0.36011 1.31412,-0.29701 2.37782,-1.85682 1.46428,-2.79925 0.80038,-0.83384 3.70893,-1.55633 0.8652,-1.44787 -3.10317,-0.29424 2.31714,-1.43459 3.19718,-0.005 1.74482,1.06843 4.44631,1.65681 6.20602,0.88111 0.95205,-0.62009 1.11531,-5.37103 1.87109,-2.4133 0.0524,1.87793 0.30213,-1.51803 -0.0985,-2.03766 -1.2671,-4.17266 -2.05863,-8.48405 -3.47205,-12.60995 -0.83988,-2.19264 -1.47666,-4.53944 -2.60328,-6.65888 -1.82505,-3.84037 -5.07559,-6.80859 -6.67841,-10.78374 -1.98555,-4.05918 -2.78953,-8.803585 -5.81012,-12.286445 -1.03808,-1.14194 -3.89621,-2.25424 -2.39426,0.26215 0.62743,2.11099 -0.93372,1.19539 -0.97103,-0.35963 -0.95595,-2.08754 -2.50806,-3.78006 -4.65415,-4.78086 -1.8826,-1.51851 -3.43722,0.46724 -2.31005,2.29326 0.0393,2.57469 -0.91458,-0.98181 -1.38465,-1.67148 -3.14378,-0.95629 -3.03043,3.4529 -2.22531,5.34851 0.78045,3.17023 2.19822,6.1208 3.4157,9.130795 -0.72024,1.45922 1.33849,3.50487 -1.0034,4.72832 -1.3813,0.55855 1.40232,2.1274 -0.71152,1.73757 -2.14441,-1.65632 3.01594,-3.34039 0.46538,-5.41445 -0.99741,-2.37141 -2.70984,-1.51998 -2.50541,0.70876 -1.81484,-0.82137 0.50783,-2.79319 0.2415,-3.17239 -2.6194,-0.7011 -2.8073,-4.061205 -3.21484,-6.306845 -0.24347,-1.79942 -1.64121,-0.88148 -2.15532,0.009 -1.03116,-1.08885 -2.46566,-0.60446 -1.87859,1.14005 -0.13852,2.89516 1.20439,5.256595 4.20642,5.703385 3.11641,1.30225 -3.38713,4.22256 0.43227,4.83049 2.16702,-0.6611 4.34918,1.7404 1.86639,3.13626 -1.0534,1.09408 -1.93919,2.54691 -3.36601,2.90843 0.87386,1.28103 1.81264,3.25979 -0.65497,3.4386 -2.49393,0.48813 -4.91113,-0.74179 -7.42142,-0.39232 -2.70128,0.15831 -5.37548,0.76633 -8.07005,0.65593 -2.16155,0.96891 -4.67274,-0.51647 -7.03088,-0.14446 -2.28718,0.0576 -4.51327,-0.18479 -6.68343,0.22249 -2.47543,-0.86361 -4.26505,0.27104 -6.86747,-0.13108 -2.32004,-0.0133 -4.75917,-0.75758 -6.93931,-0.55239 -1.0236,0.77383 -3.50309,2.88652 -4.71401,0.67403 -0.28736,-0.92531 -0.61659,-3.11194 -1.14036,-1.24654 -0.64018,-1.04014 -1.40937,-4.77675 -2.43515,-1.79131 -1.18885,1.18473 0.83031,4.82555 1.77233,4.05839 0.44437,-1.24663 -2.06808,-4.15189 -0.72161,-4.27794 0.6844,1.80567 2.85012,4.30407 0.75907,5.53745 -2.03477,1.2805 -1.26138,-2.9184 -2.88517,-3.75201 -1.2824,-1.70281 1.58792,-3.0471 2.27411,-4.678 3.51226,-2.04633 2.56883,3.33022 2.8934,5.2714 0.75452,2.54842 2.79507,0.0615 3.77894,-0.73551 1.44979,-0.33309 4.33336,1.27022 3.14094,-0.65596 0.89203,-0.12791 2.50599,1.95977 3.30669,1.19036 -1.16313,-0.59526 -2.37433,-2.86864 -0.28031,-1.23963 0.25725,0.83882 3.81889,2.34832 2.57404,1.15293 -1.14062,-0.65983 -1.59924,-2.41408 0.0719,-0.94581 0.60365,1.08593 2.9084,2.07164 1.28369,0.13344 -0.84947,-0.72707 -3.26495,-2.29597 -0.67819,-1.55199 1.53925,1.77556 4.67337,4.33183 6.632,1.64602 0.0894,-1.95337 -1.32909,-4.97403 -3.64952,-4.49806 1.82949,-2.20132 4.01959,1.48687 4.32924,3.29261 -0.21766,1.30396 -0.29396,3.45363 1.35907,1.85263 -1.51545,-2.16405 0.74665,-0.62996 1.53534,0.14573 0.90022,-0.57442 0.69205,-4.31929 2.08909,-1.8828 1.06416,0.24622 4.33953,3.77726 3.4278,1.10416 0.9332,0.69827 3.60338,1.86366 3.98416,0.70394 -2.36653,-0.54156 -4.95009,-0.96756 -6.88435,-2.41113 -1.47163,-0.42647 -1.24509,-1.49279 0.26437,-0.92937 1.08425,1.75899 4.44497,1.83483 5.48743,0.0411 -1.00947,-1.76093 -5.55767,-2.82737 -3.43797,-5.58049 0.34484,-1.05038 3.65843,-0.64519 1.56114,-1.44057 -2.15692,-0.68167 -3.04897,-2.89636 -2.63603,-5.01176 0.56896,-2.516095 -2.71193,-2.379405 -2.2729,0.0289 -1.27275,2.3376 0.34364,3.21483 1.86116,4.64671 -1.36797,1.12881 -5.37145,2.96019 -1.68166,4.32575 1.63031,0.30792 2.52273,2.97951 0.13188,2.35788 -0.94955,-0.37942 -1.87856,2.34456 -2.58386,0.97318 1.72291,-0.82053 -3.35571,-0.70189 -1.71463,-2.67543 1.51972,-1.52734 3.95588,2.00223 4.97284,0.76075 -1.57076,-0.98684 -4.93328,-2.41916 -2.29457,-4.4051 0.35322,-0.92009 3.57071,-1.16814 1.55152,-1.88316 -2.7794,-0.95664 -1.69885,-3.97812 -2.12483,-6.097115 -2.05194,-1.60316 -4.95674,0.0119 -7.17358,0.61329 -2.43055,1.664745 1.74953,4.238925 0.742,6.530605 -1.77484,0.85006 0.78204,3.81437 -0.53989,3.9439 -1.15003,-2.43979 -1.68082,-5.15733 -3.1007,-7.4813 -2.52797,-0.2023 -5.16729,0.54333 -6.8343,2.56372 -0.9048,1.04937 -2.93879,1.72644 -0.41491,1.93044 1.56063,-0.3762 2.92835,1.72162 0.57497,0.84914 -3.07025,-0.0209 -4.89212,-2.66551 -6.32988,-4.99293 -2.59218,-3.762405 -6.21938,-7.054335 -10.56958,-8.587725 -3.14303,-0.44992 -6.16578,0.98761 -9.278101,1.21115 -4.7082,0.85145 -9.760519,0.48455 -14.087554,2.83148 -4.929502,2.33396 -9.249476,5.717175 -13.350196,9.267045 -4.238978,3.6082 -10.071483,3.13887 -15.208178,4.136 -4.112895,0.87805 -8.25698,2.21929 -11.73279,4.63575 -1.46249,0.62914 -3.757061,5.29601 -0.699447,4.29293 2.810221,-0.69669 4.566941,-3.91098 7.47831,-3.92725 1.143881,0.55611 1.756257,1.32567 2.995819,0.62375 -0.425624,1.01088 2.032743,1.79564 -0.106419,1.63387 -2.360388,-0.62463 -4.341651,-2.09791 -6.296779,0.17443 -1.672693,1.03032 -5.933537,4.22514 -6.494189,0.71214 0.522924,-2.38644 2.544881,-4.20358 4.521917,-5.46935 3.860383,-1.44083 7.701622,-3.15281 11.813238,-3.76105 3.776787,-0.29569 7.744429,-0.48661 11.190001,-2.21175 3.347205,-2.00754 5.923838,-5.05276 9.259415,-7.09541 3.460817,-2.416965 7.285288,-4.541435 11.455524,-5.382585 5.340068,-0.69271 10.710599,-1.23343 15.970989,-2.42127 3.61438,-0.71896 6.58827,1.94446 9.27215,3.94153 2.94012,2.21141 4.65252,5.544825 7.11903,8.192295 2.35491,0.33648 3.56083,-3.31907 6.12125,-3.56116 2.43057,-1.20069 5.26576,0.0274 5.66607,2.8082 0.29142,2.09247 1.41377,0.90707 0.81348,-0.49342 -1.11495,-1.84701 -2.87704,-5.287835 0.52372,-5.770675 2.34924,-0.66692 6.19316,-2.4791 7.64728,0.49207 0.37734,1.63581 1.07169,-2.11457 2.52808,-0.90372 1.02195,0.61639 1.59567,1.5259 2.28639,0.0727 2.30832,-0.86891 4.72676,1.32718 7.12857,0.25101 1.45944,-2.10112 -0.22681,-6.21451 3.57987,-6.5211 2.2334,-0.53686 4.95055,0.50516 5.59304,2.48885 1.84268,-0.59433 4.377,-0.88296 4.37868,1.86407 0.17195,2.57664 1.55828,4.719555 3.4898,6.001085 1.13198,0.86792 2.13013,1.60342 1.04529,-0.26222 -1.59898,-3.765975 -3.56144,-7.749945 -3.07855,-11.952755 0.58907,-2.3623 3.98687,-2.12549 5.74928,-2.98333 2.22583,0.64008 3.97148,2.21651 5.73027,3.625 -0.38178,-1.71848 3.88113,-2.91949 4.08219,-0.46088 0.15344,2.55004 1.5915,1.25863 1.46186,-0.55974 -0.66308,-2.99489 5.56979,-3.46892 4.15878,-0.2486 -0.80562,1.72151 0.63857,3.1682 -1.47285,4.21194 0.61878,2.25637 -1.34872,0.95387 -0.70333,-0.53271 2.08313,-0.74559 0.60815,-3.15516 1.66913,-4.88272 -0.81339,-0.0946 -2.86475,-0.67848 -2.71016,0.75239 -0.0278,1.73494 -1.03863,3.19112 -1.78126,4.47862 1.77753,2.12642 2.46756,4.95072 3.54013,7.469355 0.19447,3.13988 3.54214,2.53056 4.98716,4.81621 3.1476,3.87412 5.90475,8.21769 7.43121,13.00045 0.54015,2.28205 1.14032,4.86683 0.16462,7.09719 -0.83069,1.27695 0.8608,3.92833 0.9538,5.70836 0.27414,1.20405 0.90948,4.33669 1.68754,1.5394 1.26329,-2.71244 3.25818,-5.27156 3.07739,-8.43071 0.15164,-6.22137 -1.68772,-12.62869 -5.81199,-17.381 -2.11068,-3.29014 -5.72259,-5.16077 -9.2857,-6.47133 -1.14327,-0.313975 -2.53412,-0.482435 -0.79775,0.27167 3.2458,2.16196 6.75519,4.30987 8.59409,7.90449 2.82418,4.58246 4.73667,9.93342 4.22017,15.38163 -0.292,2.22235 0.28195,5.23754 -1.18838,6.89826 -0.19626,-4.37484 1.39656,-8.87724 -0.006,-13.2113 -1.36739,-4.72525 -3.36515,-9.57233 -7.11178,-12.90091 -1.98264,-1.65043 -4.23404,-2.9371 -6.38936,-4.3215 0.94999,-1.795965 3.73451,-0.554555 5.33466,0.28988 2.61966,1.34426 5.37644,2.76316 6.95565,5.3635 2.45347,2.88145 4.42527,6.19804 5.25269,9.92356 1.06261,4.4864 1.91061,9.5525 -0.48908,13.76738 -0.8506,2.34409 -3.04384,4.47223 -2.64892,7.06325 0.17601,1.92772 -1.51258,3.06997 -2.91407,4.01 1.41259,-0.0679 2.27357,1.35261 0.20094,0.93426 -2.07005,2.62167 2.68489,0.56187 2.15849,-0.55873 -1.5486,-0.0745 0.8399,-2.70437 1.23105,-3.24653 0.12708,1.33723 -0.40752,2.56077 -0.48342,3.82192 -0.81527,1.36349 2.79731,-0.0478 2.75794,-1.23731 1.21668,-1.69052 0.97883,0.21264 0.5985,0.83552 1.94226,-0.0435 2.20692,-2.41679 4.22892,-2.28774 3.69448,-2.45025 6.46482,-6.28971 7.87122,-10.47403 0.35434,-2.9742 1.62539,-5.76105 1.83948,-8.74834 -0.11197,-4.42803 -1.32124,-8.84055 -3.22162,-12.82965 -2.18138,-3.96276 -5.29505,-7.500255 -9.06412,-10.016585 -2.75135,-1.60342 -5.72215,-2.81644 -8.78573,-3.64449 1.48225,-0.73936 4.25815,0.54544 5.98698,1.30803 7.73128,3.60116 13.4801,11.024435 15.09808,19.391325 0.83572,3.09672 1.05068,6.36555 0.10977,9.46933 -1.05014,3.10523 -0.98806,6.609 -3.05719,9.3242 -0.46541,1.3724 -3.0408,3.53275 -2.71926,4.18406 2.973,-1.43051 4.74686,-4.36545 5.73747,-7.40119 0.72115,-2.14732 1.66873,-4.25773 2.23262,-6.43848 0.0794,-3.79232 0.65183,-7.72334 -0.9462,-11.31162 -1.99118,-5.18454 -4.77883,-10.20126 -8.78059,-14.102705 -3.06744,-2.59116 -6.98275,-3.83195 -10.82879,-4.72431 -1.13845,-1.38368 3.27665,0.0663 4.28609,0.43144 4.71171,1.35751 8.69654,4.6059 11.20104,8.795725 3.29647,5.32446 6.61803,11.23463 6.03464,17.72855 -0.0458,2.90712 -0.79192,5.70419 -1.9426,8.35475 -0.90515,2.85837 -1.97904,5.83014 -4.40844,7.75916 -1.97813,1.87786 -4.8348,2.07296 -6.89224,3.89482 -1.28909,0.43637 -1.97703,1.49336 -0.1163,0.76565 1.45949,-0.0628 2.39718,-1.6293 3.3399,-2.05108 -0.24028,2.02236 1.70768,-0.69692 2.58751,0.27837 2.50998,-1.01673 5.90206,-0.86002 7.47155,-3.4459 2.58726,-1.43324 4.43972,-3.95893 6.03483,-6.4051 1.78185,-4.37925 1.64645,-9.26065 1.55885,-13.91144 -0.52368,-5.24367 -3.2108,-10.05879 -6.39133,-14.16211 -3.01223,-3.323335 -7.01011,-5.556515 -10.83755,-7.813615 -1.32251,-1.11891 -4.22654,-1.41976 -4.77016,-2.64865 2.27628,0.66189 4.58848,0.44356 6.73191,1.5918 5.30201,1.75695 10.34266,4.86604 13.27258,9.755605 2.92445,4.66003 4.4376,10.07377 5.54006,15.41788 0.64813,4.0401 -0.92938,8.24062 -3.4315,11.38087 -1.76392,1.89471 -3.20216,4.06228 -5.05139,5.88241 -1.22409,1.97214 -3.56781,3.04892 -5.67598,3.85896 -2.26265,0.60382 -4.45927,1.17075 -6.70711,1.66393 -1.95744,1.42559 -4.48766,1.36705 -6.7289,2.05458 -2.32921,0.62151 -4.542,0.99041 -7.00033,1.52797 -2.9349,0.63458 -6.00552,0.35765 -8.83601,1.48997 -0.8722,0.0615 -2.68961,1.14048 -3.24187,0.31469 z m 7.54159,-2.03535 c 2.45066,1.11975 5.46558,-3.33495 1.5921,-2.85225 -1.12401,-0.0835 -2.29038,-0.73673 -1.2671,0.49564 -0.68973,0.9728 -3.67446,3.24791 -0.75073,2.32147 l 0.42573,0.0352 z m -1.83419,-1.4284 c 2.19116,-2.34252 -2.09821,0.24966 -0.84486,0.71876 0.32889,-0.1796 0.59377,-0.44683 0.84486,-0.71876 z m -1.75706,-0.57462 c -0.48388,-2.10447 2.43403,-0.0321 2.42855,-1.43892 -1.33115,-2.80408 -5.67381,2.78788 -2.42853,1.43887 z m 41.41191,-18.25534 c 1.75597,-4.84504 -0.38351,-9.89998 -1.85742,-14.52872 -2.12499,-6.25416 -6.34421,-12.223275 -12.74584,-14.570525 -1.52479,-0.56435 -4.1638,-1.84195 -4.95713,-1.94369 4.83747,3.24909 10.48721,5.9007 13.49533,11.160965 3.91138,5.75805 5.73922,12.97991 4.44896,19.87307 -0.30788,0.95366 -0.51063,5.16001 0.68868,2.28559 0.34076,-0.74546 0.64629,-1.50688 0.92742,-2.27669 z m -33.26813,1.02124 c 0.14718,-4.33853 -1.14609,-8.63002 -3.53405,-12.24387 -1.98296,-3.06282 -3.73091,-6.6576 -7.13012,-8.38554 -0.38481,1.30354 1.66729,3.72085 2.473,5.30176 2.62122,3.39863 4.89972,7.0815 6.2809,11.16986 0.82247,1.26209 0.85256,4.0224 1.80844,4.5562 l 0.10183,-0.39832 z m -56.40198,-8.84309 c -0.70788,-0.84136 -2.19721,-1.48654 -0.94753,-0.0615 -0.0189,0.7048 2.47058,1.21626 0.94753,0.0615 z m 9.92778,0.17889 c -0.87794,-0.91631 -3.93244,0.3985 -1.30854,0.34294 0.44359,-0.0819 0.88812,-0.17381 1.30854,-0.34294 z m 10.729,0.10712 c 2.27313,-0.67922 -1.73671,-2.39989 0.37119,-3.86153 0.82242,-2.15316 -3.46392,-0.91308 -4.61031,-2.60096 -2.92772,-0.88303 -2.87522,-4.415 0.23226,-4.92412 0.75057,-0.51846 -3.05896,-1.80529 -2.32247,0.002 -2.02538,0.95367 -3.94215,3.23984 -1.43392,5.01237 1.26885,1.04223 2.41296,3.06272 3.68679,3.60034 -1.13432,-1.18837 -0.98227,-3.70275 0.93948,-1.80746 2.62826,1.82047 -1.39612,4.15173 -2.62294,1.5144 -1.30788,-1.95065 -4.41192,-3.26844 -3.9969,-5.97022 -0.0135,-1.21504 2.55196,-2.15038 2.2992,-2.57608 -2.10172,-0.0197 -4.71462,-1.07761 -4.81025,-3.49328 0.67462,-1.586395 -2.4194,-2.514075 -2.60477,-1.369825 0.12194,1.442985 -0.17576,3.474745 1.5943,3.977005 1.31713,0.2791 4.59632,1.14232 2.12867,2.64179 -3.54058,0.68558 1.0198,3.01565 -0.12907,4.4285 -0.40098,-0.5825 -2.36688,-3.5657 -1.64899,-1.22846 1.18051,2.30754 3.91315,2.52004 5.79021,3.72392 1.41693,1.20187 -0.82,2.01621 -0.8534,0.23306 -0.15498,0.91944 -1.01722,2.15122 -1.43708,2.30808 2.61663,0.0825 5.25581,0.0262 7.81847,0.68116 0.55888,0.10157 1.10123,-0.0763 1.60953,-0.29049 z m -9.40273,-1.52691 c 0.72189,-2.26243 -3.42793,-2.6841 -4.15579,-4.72722 -1.27443,-2.18523 1.00866,-3.791 2.69068,-4.7119 -1.49171,-0.6096 -4.34122,-0.73697 -4.57939,-2.9609 0.55154,-1.752095 -1.18343,-5.336095 -2.84806,-2.885905 -0.14529,2.306095 -1.78002,5.218975 1.56212,5.913005 2.92814,1.08144 -0.87375,1.68869 -1.67152,2.53911 1.25238,0.55753 2.3045,1.56541 1.80618,2.92446 2.48524,0.66212 2.11589,3.63787 -0.0436,4.13627 2.29799,0.22517 5.12173,0.78342 7.23938,-0.22692 z m -4.04806,-0.53386 c -0.41897,-0.97814 2.43746,-0.43356 0.43185,-1.15222 -2.83473,-1.97617 3.63586,-0.0318 0.89896,1.06057 -0.42927,0.0703 -0.89616,0.24508 -1.33081,0.0917 z m -35.16081,-0.14142 c -0.42887,-1.16255 -1.60113,-3.54465 -0.90275,-0.94318 0.0594,0.2622 1.24136,2.48004 0.90275,0.94318 z m 45.409,-1.55306 c -1.25205,-1.38405 0.21435,1.56477 -6.8e-4,-4e-5 z m -45.22141,-0.97567 c -0.70294,-0.061 0.80938,1.94691 0,0 z m 50.32606,0.27679 c 0.59893,-1.1571 4.21966,-3.38378 1.05435,-3.44047 -2.36236,0.41872 -4.30994,-2.33539 -1.68662,-3.60219 1.46327,-2.52771 -4.17554,-1.65525 -4.07276,-4.375285 -0.25354,-1.7532 0.006,-4.723 -2.65317,-3.76111 -0.93009,0.44189 0.35559,2.56988 0.0134,3.62393 0.18322,1.574905 -1.01872,3.683125 1.55246,3.450365 3.766,1.48478 -4.15061,2.45866 -1.18471,4.62887 1.72361,1.61006 4.08917,2.31984 6.41454,2.16222 0.0913,0.63378 -0.41623,3.40938 0.56247,1.31367 z m -26.1786,-0.43788 c -0.92834,-1.17381 -2.31365,0.0427 -0.52114,0.41576 0.24442,0.10177 1.54394,0.22282 0.52114,-0.41576 z m 6.30736,-2.32426 c -2.08438,-1.01233 1.47123,2.64256 0.2386,0.21982 z m 10.57046,-5.82656 c -1.51232,-1.08244 -1.53196,-5.266955 -4.12073,-3.769045 -0.72553,2.376095 1.53957,4.665945 3.91408,4.403585 1.22693,0.0546 1.14253,0.0659 0.20665,-0.63454 z m 1.38959,-1.77381 c 0.0239,-2.087215 -1.87354,-6.161275 1.8103,-5.681195 2.66709,-1.07401 -0.68948,-3.77644 -2.60747,-3.10029 -3.79398,-0.43709 -2.33258,3.56679 -3.34742,5.54238 2.10256,0.43769 1.91811,4.559395 3.7106,4.182885 l 0.27832,-0.47706 z m -17.05401,-0.37594 c -0.27122,-3.012125 -0.66169,3.43994 0,0 z m 42.23378,-9.013165 c -0.5232,-1.18306 -0.75082,-3.16842 -2.58827,-2.07522 -2.16548,1.13457 2.0647,2.32988 2.82885,2.2688 z M 53.982014,143.82134 c -0.145358,-1.33847 1.470586,-3.28396 0.997558,-0.74284 0.0298,0.3939 -0.789648,1.61195 -0.997558,0.74284 z m -3.591196,-1.50129 c -0.28342,-1.81772 1.325288,-1.50685 0.855769,0.11919 -0.138787,1.6003 -1.321887,1.45016 -0.855769,-0.11919 z m 5.12501,0.65319 c -0.209617,-1.15931 2.002945,-4.05725 1.184586,-1.16115 -0.131024,0.43519 -0.492587,1.74587 -1.184586,1.16115 z m -3.518406,-0.53175 c -0.05801,-0.78552 0.744446,-4.33716 0.895909,-1.70249 -0.01525,0.41073 -0.161339,2.07643 -0.895909,1.70249 z m 5.371475,-1.99807 c -0.104938,-1.94934 1.448991,-1.7238 0.845935,0.095 -0.247081,1.38147 -1.213239,1.49346 -0.845935,-0.095 z m 200.383023,0.58918 c -1.582,-0.75246 0.43506,-3.04062 -0.90601,-3.60488 -1.18215,-1.18439 -4.50896,-0.24463 -4.65579,-1.55312 2.69817,-0.46644 5.38726,0.76903 7.34434,2.55959 -0.0354,1.54095 0.6319,2.32476 1.85189,0.98154 1.58928,-0.20654 2.07733,-6.18282 0.31245,-3.29998 -1.41391,0.83658 -1.09324,2.02348 -1.2673,3.19348 -0.82667,-0.84081 -0.3287,-3.1462 -2.05679,-2.96624 1.17222,-1.26818 -1.04123,-3.61629 -1.57739,-1.18699 -1.79742,0.25012 1.98197,-2.67061 -0.44717,-3.37101 -1.76929,0.0414 -1.22162,-2.82254 0.0384,-0.95881 0.89245,1.84455 1.35168,1.41323 2.13776,0.0464 0.65337,0.75901 -1.29528,3.69133 0.85201,3.85659 0.35187,-0.84555 1.7934,-4.75451 1.5652,-1.91537 -0.47624,0.93195 -2.10683,5.24277 0.0553,3.40825 1.68652,-1.15686 1.42982,-4.41035 2.91263,-5.00046 -0.1203,1.34158 1.65331,-1.09275 1.28115,0.73302 -2.36621,2.06394 -0.93612,5.39022 -2.7351,7.77451 -0.84672,0.97952 -3.55288,2.54414 -4.70562,1.30345 z m 1.1073,-1.82736 c -0.94704,-2.57068 -1.12585,3.13127 -0.003,0.56399 z m -205.490656,2.02565 c 0.420558,-1.20823 -0.344895,-2.92517 1.104175,-3.1583 -0.197926,-2.35545 1.774061,0.71029 0.164973,1.39755 -0.383929,0.36042 -0.40878,2.33485 -1.269148,1.76075 z m 5.30037,-1.85629 c 0.30096,-3.00801 1.580198,0.40202 0.01372,0.96695 -0.266739,-0.25125 0.05335,-0.69318 -0.01372,-0.96695 z m 147.929666,0.40319 c 2.03778,-1.46969 4.23413,-2.75483 5.73789,-4.8957 5.25268,-5.39263 6.39929,-13.46157 5.45125,-20.64783 -1.07714,-4.34027 -3.73605,-8.10573 -6.34637,-11.66392 -3.18029,-4.213335 -8.43086,-6.216595 -13.52619,-6.804685 -1.72862,-0.92496 2.1263,-0.0219 2.60809,-0.89884 3.89628,-0.035 7.42345,2.09617 10.66817,4.02571 3.5407,2.658875 6.66473,6.178055 8.21021,10.376095 0.9908,4.59182 2.38395,9.3032 1.37156,14.02734 -0.59764,4.55896 -2.3712,9.10932 -5.92787,12.17335 -1.0376,0.63808 -3.02188,3.32696 -3.88274,2.53917 1.93626,-2.01658 4.41139,-3.58064 5.94314,-5.99866 2.934,-4.26059 3.42074,-9.67299 3.35512,-14.70415 -0.41385,-2.93162 -1.09497,-5.84209 -1.9011,-8.6882 -2.71686,-5.74294 -7.86398,-10.338455 -13.91493,-12.326055 -0.93915,-0.44764 -3.86041,-1.06502 -1.3522,-0.1699 4.75279,1.3253 8.54604,4.829395 11.0726,8.971175 2.53456,3.79854 4.82524,8.05616 4.74014,12.75632 0.0214,5.03311 -0.9108,10.28682 -3.60282,14.61001 -1.72911,2.34369 -3.68759,4.59525 -6.00322,6.37016 -0.61708,0.0859 -2.45186,1.91159 -2.70073,0.94861 z m 59.43382,-0.55281 c 0.93415,-2.87868 0.60758,-6.02174 -0.57021,-8.77535 1.74223,-0.50295 1.60272,3.73359 1.77029,5.24269 0.43523,0.6396 -0.87895,5.82955 -1.20008,3.53266 z M 55.964593,137.94125 c -7.3e-5,-0.84825 0.271277,-4.18347 1.013916,-1.79419 0.112042,1.75725 0.448132,-3.09435 0.997754,-0.2956 0.104494,1.38624 -1.372243,2.37515 -1.978348,2.93002 -0.117662,-0.26385 -0.07223,-0.56612 -0.03332,-0.84023 z m 117.108357,0.77151 c -0.96782,-2.50066 1.54645,-4.15433 3.20642,-5.51407 1.3156,-1.13223 4.85856,-3.64516 4.14285,-4.51085 -2.39068,2.34009 -4.98052,4.49706 -7.72958,6.40416 -0.93012,0.69691 -5.02935,0.0616 -1.94038,-0.45472 2.73235,-0.0385 4.44077,-2.53081 6.46439,-4.02241 1.56291,-1.29732 3.2886,-2.89927 3.53979,-4.9105 -0.78912,-2.2352 -2.15521,-4.19507 -3.39658,-6.19596 -0.36693,2.50943 -2.90828,3.77862 -4.21503,5.76338 -1.62865,2.10896 -3.16515,4.66518 -5.76954,5.62898 0.58338,-1.54462 2.91909,-2.82498 3.95914,-4.4793 1.48181,-2.03937 3.35316,-3.76526 4.8695,-5.76277 0.98791,-2.44399 -0.93951,-4.62594 -0.72934,-7.06168 0.0688,-2.22065 -0.35603,-4.62137 0.24564,-6.73336 0.85982,2.13646 0.27603,4.62156 0.48735,6.89984 0.23074,5.24536 5.44789,8.73363 5.56401,13.99783 -0.21223,2.45267 -2.6659,3.77917 -4.26099,5.36752 -1.83347,1.49746 -4.23428,2.94021 -3.96166,5.64433 l -0.1961,0.10527 z M 47.977065,137.22869 c -0.35745,-1.00542 -0.373688,-2.77656 0.644678,-1.07339 0.162883,0.41876 0.121015,1.65461 -0.644678,1.07339 z m 154.234565,-9.3e-4 c -0.071,-0.99038 1.31516,-5.16699 1.30046,-2.13376 -0.27524,0.47084 -0.38206,2.71624 -1.30046,2.13376 z m 3.84767,-0.22789 c 0.96603,-2.63449 2.57313,-5.04505 3.49115,-7.72835 1.87288,-4.45343 1.98283,-9.43803 0.86996,-14.09881 -0.77895,-5.20899 -4.06352,-9.5496 -7.41239,-13.42876 -1.93369,-2.251005 -4.68236,-3.547785 -7.2891,-4.779665 -1.96839,0.33902 -4.79336,0.10156 -6.17363,-0.60628 2.08255,-0.7028 4.60574,0.42719 6.86438,-0.0193 2.83956,2.13639 6.61896,2.38952 9.35455,4.698885 4.5364,2.82974 6.72961,7.87174 8.80152,12.55969 1.61165,3.36867 2.02299,7.20694 1.8045,10.89343 -1.06983,3.46956 -3.0539,6.59644 -4.81243,9.75607 -0.88241,1.36142 -3.39627,3.39408 -4.57371,2.83161 1.88181,-1.28598 3.98607,-2.46188 4.82238,-4.73784 1.25756,-2.40151 2.68385,-4.7879 3.78833,-7.24017 -0.0697,-3.80831 0.0714,-7.77289 -1.75019,-11.2528 -2.09016,-4.55147 -4.12638,-9.56604 -8.5996,-12.30658 -0.76344,-0.65904 -4.17303,-2.694935 -1.96379,-0.63144 2.511,2.82207 4.76821,5.92822 6.50529,9.28704 1.52373,4.32501 2.3952,8.98927 2.03121,13.58128 -0.63686,4.77577 -2.91634,9.13881 -5.20344,13.30691 -0.0806,0.33972 -0.70032,0.41605 -0.55499,-0.0849 z M 49.509816,136.45613 c -1.250719,-1.23097 0.436101,-2.22476 0.683933,-0.46882 0.185793,0.42811 -0.434995,1.24105 -0.683933,0.46882 z m 54.506364,0.19711 c -0.34801,-1.29854 2.04981,-2.42783 1.08649,-0.63407 -0.26715,0.23952 -0.66629,0.8437 -1.08649,0.63407 z m -45.276974,-0.96363 c -0.193229,-1.40712 1.23077,-2.18806 0.867805,-0.30139 0.09044,1.03393 -1.050999,2.04702 -0.867805,0.30139 z m 7.088755,0.58961 c -0.540152,-0.89518 0.575881,-4.43349 0.799895,-1.87011 -0.05977,0.41469 -0.0049,2.32678 -0.799895,1.87011 z m 181.284829,-0.46627 c 0.85757,-0.72253 4.91094,-1.14135 4.33927,-0.0701 -1.36488,0.0644 -3.16042,0.62588 -4.33927,0.0701 z M 60.597546,135.64293 c 0.243131,-1.05358 0.252994,-3.78561 1.463491,-3.7594 -0.01246,0.9985 -0.404647,3.74876 -1.463491,3.7594 z m 161.862904,-0.14334 c 0.76271,-2.52172 2.84908,-4.40319 3.83504,-6.85226 1.3908,-2.78397 3.00914,-5.69572 2.60745,-8.92518 -0.47522,-6.05827 -2.22078,-12.12461 -5.45744,-17.29519 -2.40724,-3.087585 -5.41163,-5.717345 -8.59226,-7.987625 -2.08171,-1.42571 -4.58413,-1.97205 -6.89554,-2.82269 1.82924,-0.78331 4.1233,0.77286 5.96752,1.44017 2.05441,1.48055 4.36756,2.21767 6.42259,3.66516 3.39065,2.3372 6.34178,5.386255 8.01038,9.195775 1.81035,4.00335 3.85581,8.14992 3.65422,12.66199 0.0371,4.0223 -0.16658,8.33345 -2.36732,11.82805 -2.20489,1.62055 -3.96271,3.8499 -6.52802,4.9965 -0.18375,0.0664 -0.47959,0.33443 -0.65662,0.0953 z m 3.08245,-2.43761 c 2.26147,-2.07652 4.88368,-4.29552 5.1816,-7.5776 0.88019,-4.50621 1.0616,-9.27469 -0.67394,-13.61369 -1.98495,-5.13544 -4.31369,-10.63883 -9.09589,-13.787785 -0.39474,-0.24566 -2.16596,-1.63767 -1.50912,-1.00754 2.74518,2.51466 5.35619,5.279535 6.7405,8.805685 2.10234,4.6593 3.23414,9.75855 3.57987,14.84443 -0.0611,3.75422 -2.20535,7.04303 -3.82795,10.29794 -0.84976,0.91311 -2.93635,4.08936 -0.39507,2.03856 z m -175.182731,2.09407 c -0.437105,-1.19027 0.928169,-2.63346 0.631374,-0.58596 -0.0039,0.31521 -0.185778,1.01923 -0.631374,0.58596 z m 151.292121,0.0334 c -0.35188,-1.27274 1.07484,-5.40872 0.84916,-1.93566 -0.14974,0.54081 0.0527,2.20669 -0.84916,1.93566 z m -155.939634,-0.5011 c 0.06758,-1.36404 1.840283,-3.36915 1.164201,-0.76219 0.0011,0.4178 -1.347978,1.92787 -1.164201,0.76219 z m 1.526779,0.17122 c 0.1499,-1.07312 1.518401,-4.21746 1.250658,-1.3059 -0.103175,0.42193 -0.631932,2.21876 -1.250658,1.3059 z m 200.884215,0.03 c 1.81962,-2.15414 4.63597,-4.1404 4.93805,-7.17622 1.59121,-0.8565 0.0788,2.62393 -0.85492,3.2245 -1.21058,1.33106 -2.50308,3.34118 -4.08313,3.95172 z M 62.440568,133.84395 c -0.249503,-1.11297 0.964291,-2.68691 0.974252,-0.66933 0.13784,0.65439 -1.20653,2.52968 -0.974252,0.66933 z m -9.961194,-0.90702 c -0.03845,-2.21822 1.689125,-0.76573 0.698888,0.54668 -0.445683,1.35986 -0.865906,0.15142 -0.698888,-0.54668 z m 17.050572,0.52128 c -0.678144,-1.03023 0.258434,-5.14715 0.624953,-2.05908 -0.143544,0.39591 0.351702,2.66541 -0.624953,2.05908 z m 1.495389,-2.08652 c -0.164842,-0.98178 0.549941,-3.55263 0.67197,-1.06437 0.429618,1.07635 -0.505271,5.0508 -0.685799,2.01119 l 0.0013,-0.44525 z m 5.078263,0.56436 c -1.228022,-2.69695 2.134212,0.27549 0.531762,0.88506 -0.279378,-0.22511 -0.397142,-0.5693 -0.531762,-0.88506 z m 13.666645,0.0367 c -0.176824,-1.2545 2.205811,-3.65343 1.071033,-0.9732 -0.272161,0.23135 -0.570791,1.41639 -1.071033,0.9732 z M 77.439479,131.4857 c -0.569022,-0.76882 -1.173147,-3.62703 0.245969,-3.02871 -0.499023,0.5868 1.271389,4.44664 -0.245969,3.02871 z m 2.157152,-0.0616 c -0.162365,-1.8901 1.631307,-1.16902 0.404464,0.19911 -0.210012,0.28687 -0.503599,0.1422 -0.404464,-0.19911 z m 5.123216,0.3118 c 1.647193,-1.62641 -0.413619,-2.73113 -1.856947,-2.71807 0.395228,1.15016 -1.358928,0.85006 -1.11432,2.2308 -1.989604,1.22714 1.111371,-2.43962 -1.2589,-1.89365 -1.500648,0.39131 -2.804224,-2.51584 -4.128771,-1.58625 -0.01214,1.70729 -2.663561,2.11931 -0.854231,0.24242 -0.764155,-1.81907 -1.39552,4.77276 -1.663738,1.42278 -0.616672,-3.62012 -0.837798,4.36409 -1.46069,1.05679 -1.175881,-2.95939 2.601988,-3.96476 4.791649,-3.61994 1.895384,2.08076 3.878382,-0.66999 6.066101,-0.45156 2.95695,-0.18274 5.857007,-0.8852 8.795442,-1.16237 2.545747,0.36118 3.591507,3.19685 4.555577,5.25187 0.28039,2.94136 -1.3322,-1.90336 -2.11549,-2.28207 -0.31313,0.98639 -2.274463,4.89623 -1.64732,1.78732 0.346038,-1.55867 -0.43306,-1.8611 -1.234242,-0.70481 -1.422136,-1.2379 -2.189361,0.73516 -3.532741,0.10599 1.696475,-0.17928 -1.19421,3.43902 -0.386902,0.96584 -0.271943,-1.19994 -2.107845,-1.24673 -1.607587,0.37483 -0.199958,0.42689 -0.753265,1.49506 -1.34689,0.98008 z m 0.539292,-2.86507 c -0.957198,-1.1101 -0.148518,1.00861 0,0 z m 2.426789,0.0267 c -1.225847,-1.36179 -1.16438,0.85605 0,0 z m -5.527697,-0.27699 c -1.010231,-0.84177 -0.418762,0.88435 0,0 z m 2.022324,-0.25023 c -0.951018,-0.92624 -0.633431,0.83285 0,0 z m 5.123233,0 c -0.312687,-0.79834 -0.610725,0.87859 0,0 z m 2.16403,-0.5941 c -2.741985,-0.65916 0.630948,1.83226 0,0 z m -5.399749,0.34389 c -0.951017,-0.92622 -0.633476,0.83281 0,0 z m 2.157135,-0.25021 c -0.950973,-0.92627 -0.633487,0.83282 0,0 z m 5.151205,-0.32433 c -1.263659,-0.51715 0.37435,1.22056 0,0 z m -10.63395,-0.051 c -1.042147,-1.46238 -1.142879,1.44842 0,0 z m 1.977388,-0.12516 c -1.071009,-0.95474 -1.69046,0.0368 -0.06568,0.19384 l 0.06565,-0.19384 z m 2.157151,-0.48049 c -2.329217,-0.61247 -0.799966,1.04739 0,0 z m 2.083567,-0.19044 c -1.565124,-0.87347 -1.254224,1.15395 0,0 z m 3.309286,0.3248 c -1.151622,-0.77358 -1.043676,0.38695 0,-6e-5 z m -1.690884,-0.8059 c -1.083368,-0.22916 -0.547065,0.45644 0,0 z m 1.758304,-0.26475 c -1.477798,-0.15707 -0.447765,0.36295 0,0 z m -9.607805,5.46823 c -0.397701,-1.30805 1.990661,-2.70249 0.865016,-0.52452 -0.188008,0.23021 -0.542574,0.84053 -0.865016,0.52452 z m 118.115814,0.0182 c 0.36986,-1.26748 -0.44803,-4.34228 0.85023,-4.48217 0.36292,0.97519 0.0183,4.24403 -0.85023,4.48217 z M 94.405379,131.26957 c -0.70222,-1.59387 1.44777,-2.52398 0.50996,-0.35118 -0.0814,0.0534 -0.29111,0.51021 -0.50996,0.35118 z M 113.6901,131.0483 c -0.10493,-1.17092 1.68359,-3.71357 1.24913,-1.09174 -0.22687,0.29054 -0.8325,1.67062 -1.24913,1.09174 z m 2.01624,-0.27898 c -0.44473,-2.31418 0.92149,-3.85602 1.09059,-5.9074 1.2785,1.92935 0.10176,4.15348 -0.69654,5.96267 l -0.17894,0.0596 -0.21517,-0.11482 z m -14.38968,-1.54567 c -1.398781,-2.9773 -2.665361,-6.67232 -1.15033,-9.84179 1.49959,-2.13027 4.48143,-1.99189 6.7836,-2.64997 2.27888,-0.057 5.13316,-1.25793 6.89136,-1.29195 -1.73346,1.76533 -4.62699,1.45705 -6.91404,2.01098 -2.15779,0.65825 -5.26287,0.36708 -6.30642,2.75483 -0.817371,0.91337 -0.18715,4.89313 0.0845,1.97545 0.43498,-2.19486 1.13246,1.65043 0.95894,-0.39979 0.2388,-3.03489 1.81273,1.89069 -0.20376,1.53621 -1.715851,1.26317 -0.52468,2.44267 0.71643,3.29946 -0.981,0.98476 -0.38394,3.09859 0.57546,1.01757 1.22689,-0.05 1.26041,2.45485 -0.36916,2.65234 -0.50615,0.61858 -0.83049,-0.83388 -1.06657,-1.06334 z m 1.47441,0.0169 c 0.54871,-1.22964 -1.45901,1.20753 0,0 z m 158.81473,0.86907 c -0.22708,-1.31709 -0.8732,-2.76505 -2.31033,-1.82596 1.15525,-0.9168 0.23011,-2.50584 -1.08275,-1.44478 -0.68771,-0.39752 1.14628,-1.85062 -0.65171,-1.95668 0.61655,-1.07731 2.3288,1.06951 2.63983,-0.92687 0.76587,-2.12844 2.16699,-0.97971 0.59347,0.50003 -1.53127,1.31094 0.27376,3.02268 0.97087,0.86817 1.76119,-1.87182 0.21997,1.70545 -0.69879,2.12735 0.49398,1.37554 1.40859,2.67414 2.3111,0.76526 1.03198,-2.12067 -0.28765,-4.59537 -1.4495,-6.40034 1.14744,-0.13301 3.30566,2.21743 2.50055,3.82746 0.30674,0.91814 1.77034,4.80364 -0.0715,2.58975 -0.52901,0.54403 -2.30808,3.31958 -2.75125,1.87661 z M 58.359709,128.80835 c 1.163965,-0.79986 3.117549,-1.4865 0.987645,-2.65644 -1.039151,-0.51481 -2.30989,-2.90384 -0.3625,-1.47149 0.671388,0.63353 3.311354,3.83004 1.911233,1.23832 -1.426927,-0.66329 -0.416957,-4.08511 -2.098195,-2.97025 -0.121192,-1.25636 -1.888097,-3.66412 0.250525,-3.1842 -0.246782,-0.78494 -1.386533,-1.47118 0.437727,-1.55435 0.426542,0.61988 4.293165,2.87337 2.511688,0.53085 -1.453912,-2.63084 -4.034219,-0.0542 -5.81088,-0.0829 1.233892,-0.26568 1.021749,-3.58944 2.03709,-2.82174 -0.369145,2.60971 0.756096,-0.0731 1.545202,-0.45761 -0.55122,2.28255 2.297115,0.15394 2.231909,2.15458 1.499561,2.1432 3.153582,5.25973 1.555058,7.78451 -0.856194,1.69642 -3.59161,4.06366 -5.196502,3.49075 z m 4.519035,-3.82518 c 0.822467,-1.21608 1.120777,-3.46642 -1.05629,-2.56467 1.139958,0.99966 1.721156,1.99178 -0.221586,2.42571 -1.002506,0.73832 1.421965,1.92404 1.277876,0.13896 z m -0.539292,-1.26848 c -0.908834,-0.4761 -0.940925,0.83035 0,0 z m -1.887497,-2.0853 c -1.003651,-1.57471 -0.937568,0.92816 0,0 z m 2.426789,-0.28761 c -0.689558,-1.01732 -2.374201,-1.14189 -0.837618,0.10822 0.284446,0.27873 0.768071,0.47583 0.837618,-0.10822 z m -2.315418,-1.40041 c -1.779577,-0.60146 1.049328,1.39366 0,9e-5 z m 53.107804,7.8225 c 0.16034,-1.00856 1.19603,-5.08341 2.14139,-3.47791 -1.06707,1.31464 -0.71477,3.87885 -2.07035,4.49759 -0.10635,-0.32834 -0.081,-0.68111 -0.071,-1.01968 z m 51.79088,0.78326 c -0.14094,-3.60138 -0.13504,-7.2486 0.26661,-10.83164 1.04976,0.51993 0.2444,4.13039 0.45405,5.74039 -0.25055,1.23915 0.33563,5.22039 -0.72066,5.09125 z M 57.677597,126.55464 c -1.044695,-0.38914 -2.820197,-2.69274 -0.561787,-1.56261 1.067918,0.43719 2.787708,3.56396 0.561787,1.56261 z m 11.314379,-0.97233 c -0.937549,-1.03918 -0.502814,-2.64264 0.505245,-0.89711 0.755863,0.85785 0.741506,3.37688 -0.341287,1.20781 l -0.163958,-0.31069 z m 3.92592,0.48658 c -0.666461,-1.38281 1.301044,-2.95454 1.152153,-0.57431 0.204423,1.02721 -0.620003,2.07824 -1.152153,0.57431 z m -18.398087,-0.3257 c -1.421899,-0.33947 -1.627698,-2.06108 -0.0289,-0.90465 1.376297,0.53543 1.903473,2.42747 0.0289,0.90465 z m 130.776961,0.2378 c 0.4504,-0.90564 1.88794,-4.89803 1.72929,-1.88301 -0.31591,0.57685 -0.80638,2.40392 -1.72929,1.88301 z M 74.118886,124.23341 c -1.21357,-1.75311 0.698326,-1.99233 0.791134,-0.11606 0.386553,1.41465 -0.33473,1.11951 -0.791134,0.11606 z m 29.206344,0.55897 c 0.2973,-0.91098 1.28209,-3.53011 1.27317,-1.04718 -0.0549,0.46876 -0.76966,2.04372 -1.27317,1.04718 z m -33.056881,-0.73815 c -0.952181,-0.61631 -1.415436,-3.25307 -0.008,-1.4939 0.913249,0.6082 1.349653,3.59292 0.008,1.4939 z m 34.774421,0.25022 c -0.1354,-1.01266 0.82385,-3.08574 0.97568,-0.88827 0.21786,0.53916 -1.15279,2.34398 -0.97568,0.88827 z m 53.02002,0.20477 c 0.88713,-2.15229 2.6181,-4.12524 2.41469,-6.57916 2.03365,0.078 -0.75405,4.45605 -1.43462,5.89702 -0.22352,0.25517 -0.5052,1.12144 -0.98007,0.68214 z m -51.66363,-1.37707 c -0.4308,-1.95608 1.41195,-1.35597 0.79145,0.14677 -0.21523,1.41061 -1.009,1.19646 -0.79145,-0.14677 z m -21.011404,-0.46522 c -3.240509,-0.12075 -3.14281,-4.28182 -1.88914,-6.4217 0.607041,-2.24155 1.662891,-4.07476 2.717674,-6.04512 0.06048,-1.45982 0.845567,-2.33078 1.29756,-0.40436 0.579103,1.92139 3.010707,4.20234 2.801161,5.80881 -1.353901,-0.77819 -1.962152,-4.42076 -3.539635,-3.64818 0.09874,1.97384 2.179727,3.79213 2.302179,5.40453 -1.567553,-1.24692 -2.371403,-3.91995 -3.739453,-4.69428 0.03818,1.91537 1.830227,3.87784 1.639636,5.57391 -0.314235,-0.86134 -2.285217,-2.58319 -1.280578,-0.6131 0.629259,0.96572 1.302421,1.90186 1.95464,2.85206 0.164412,-1.39702 1.97054,-1.73467 0.801038,0.0198 -0.598706,1.97633 0.516672,0.32974 0.85574,-0.35161 1.871358,-0.21293 0.552291,-3.75962 2.912116,-4.21232 1.373625,-1.92557 3.373895,-3.42327 4.284595,-5.76562 0.48624,-2.61467 -3.00754,-3.89994 -4.283297,-5.87504 -0.99506,-0.39244 -1.599913,-2.75235 -0.242402,-1.37184 1.528229,2.27255 4.078309,3.7238 5.410689,6.11896 1.40228,0.83685 1.4936,-3.61798 3.393351,-2.69907 0.36192,-1.00098 1.94871,-3.96777 1.54339,-1.16565 1.71838,1.00094 1.93758,-5.560005 2.68167,-2.07202 -1.09664,3.08659 3.90475,-1.28766 1.22439,0.45688 -0.54669,-1.18929 2.87939,-4.968695 1.44087,-1.74789 -0.062,2.62038 3.64993,0.036 5.25198,0.23664 0.69809,1.04407 -3.08589,1.17005 -4.12685,1.7136 -1.76126,1.69697 -3.97657,0.75804 -5.56704,2.64859 -2.07201,1.03471 -3.490971,2.54807 -5.337841,3.9365 -1.43299,1.90278 -2.1713,4.13053 -4.08078,5.61401 -1.247081,2.20577 -2.475369,4.75253 -4.686536,6.08722 -1.171755,0.50679 -2.469943,0.68089 -3.739127,0.61626 z m 1.494385,-1.18315 c 0.367285,-1.34684 -1.460823,-4.16536 -2.565724,-4.00796 0.136279,0.98731 2.032899,3.27451 0.964578,3.52608 -0.676497,-0.95501 -2.022778,-3.64478 -1.847596,-0.96557 0.167073,1.59343 2.207816,2.35267 3.448742,1.44745 z m -1.862321,-6.1965 c -1.011104,-0.082 0.763485,1.45771 0,0 z m 23.26411,6.97359 c -0.97283,-1.05084 1.10005,-2.167 0.96091,-0.47895 0.22666,0.73607 -1.23175,1.78421 -0.96091,0.47895 z m 1.64017,-1.02371 c 0.0514,-2.95171 1.79681,1.52534 0.0921,0.88251 l -0.0685,-0.3388 -0.023,-0.54371 z m 163.36503,0.0647 c -0.93211,-2.74608 -0.56713,-5.74621 -0.84008,-8.60356 -0.4007,-1.22911 1.05082,-3.88999 0.83156,-1.12299 -0.41251,2.56888 0.40183,5.09831 0.32641,7.67438 -0.0514,1.07723 1.55809,4.17522 -0.31793,2.05217 z m -170.23354,-0.66723 c 0.0647,-2.65437 1.40735,1.21475 0.0812,0.75058 l -0.0613,-0.29917 z m 1.32574,0.87631 c -0.50969,-1.18426 0.59155,-4.32883 0.80508,-1.50042 -0.082,0.41391 -0.0613,1.93032 -0.80508,1.50042 z m 7.30696,-0.31332 c 0.72221,-1.4169 -0.72469,-2.78379 0.87674,-3.98626 0.93551,-2.19245 1.30823,0.84216 0.0488,1.41664 0.38645,0.70639 0.34157,2.89516 -0.90146,2.79624 l -0.0235,-0.22662 z m -40.947688,-1.0666 c -1.115897,-0.63893 -1.442593,-2.79512 0.06125,-1.03123 1.111842,0.60077 2.185855,3.39537 0.33409,1.45514 l -0.189587,-0.20024 z m 115.634748,0.86247 c 1.36812,-2.00398 -0.0995,-3.75431 -0.1278,-5.77517 -0.37276,-1.40015 1.68886,-4.06637 1.22591,-1.17753 -0.7503,2.43187 1.65303,5.55213 -0.99125,7.30107 l -0.0787,-0.11305 z m -29.39112,-0.009 c 0.96108,-1.53907 1.67331,-4.31185 3.19835,-4.84511 -0.7031,1.54171 -1.63325,4.46338 -3.19835,4.84511 z m 104.8053,-0.558 c -1.37662,-1.62854 -0.99992,-5.38082 0.98272,-5.58908 -1.52534,1.8701 -0.30457,4.65275 -0.38953,6.2505 l -0.28939,-0.22073 z m -156.03752,-0.43741 c 0.57612,-2.90831 0.8595,2.88641 0,0 z m 2.43537,-0.0625 c 0.3006,-0.91025 2.01092,-3.83975 1.53832,-1.23612 -0.13826,0.59573 -0.83638,1.93032 -1.53832,1.23612 z m 5.18624,-0.8132 c 0.23495,-2.46353 1.90094,0.62278 0.0954,0.94188 -0.15889,-0.29222 -0.0878,-0.62907 -0.0954,-0.94188 z m -3.30732,0.13993 c 0.2242,-0.89365 1.64736,-3.28929 1.30724,-0.95043 -0.0337,0.32939 -1.14981,2.03718 -1.30724,0.95043 z m -37.566229,-0.79923 c -0.808601,-1.71035 -4.310868,-3.26472 -3.861078,-4.84541 1.608885,1.74937 3.824889,3.39515 4.900561,5.41164 -0.30245,0.61319 -0.864343,-0.3755 -1.039483,-0.56623 z M 252.2478,114.25249 c 0.0305,-3.50951 -0.0715,-7.20141 -1.95856,-10.2905 -1.59571,-3.54921 -5.06996,-5.645735 -8.05404,-7.904855 -2.15714,-1.39 -4.50053,-2.50886 -6.92925,-3.32923 1.07283,-1.54517 4.61005,0.78747 6.3857,1.30788 3.51478,1.68492 7.18196,3.64636 9.51757,6.864525 2.31979,3.48177 3.58431,7.5528 4.13066,11.672 -0.28893,1.03525 0.25574,3.17144 0.53108,0.91423 0.30607,-3.7176 -0.003,-7.58015 -1.90452,-10.87953 -0.92796,-2.28333 -2.90031,-3.755065 -4.95956,-4.945955 -2.80647,-1.89791 -5.82656,-3.47162 -8.61852,-5.37881 0.22429,-1.37677 3.56653,1.71554 4.84956,2.10902 2.67152,1.70102 5.50754,3.24951 7.88699,5.336 2.14307,3.212555 3.66829,6.935655 3.61824,10.848675 0.27374,1.95089 0.085,5.84563 -2.73489,4.86946 -0.30664,-1.173 1.48319,-3.25466 0.15847,-4.90927 -0.51378,-2.75673 -1.17774,-5.53407 -2.8057,-7.87834 -1.73849,-3.201395 -4.86498,-5.311305 -7.91104,-7.143865 -0.92511,-0.0167 2.23823,2.05948 2.95867,2.78742 3.17699,2.195155 5.18532,5.700885 6.14309,9.379345 0.64413,3.73853 0.73347,7.60727 0.28496,11.37021 -0.9427,0.36111 -0.38299,-3.68713 -0.58891,-4.79841 z m -178.85297,1.65246 c -0.822109,-0.76138 -2.969916,-4.00343 -0.643579,-2.0569 0.377579,0.1204 2.001703,2.88333 0.643579,2.0569 z m 95.72334,-1.77953 c 1.03936,-1.33402 5.14978,-2.80867 5.36345,-0.6257 -1.80647,-1.12849 -3.84139,0.88829 -5.36345,0.6257 z m 94.43069,-0.3089 c -1.43505,-1.81334 -5.0325,-0.82689 -6.05813,-2.38747 1.86324,0.13618 4.38335,0.37157 5.65763,0.93784 0.44243,0.63257 2.83006,2.12136 0.69676,1.61188 l -0.29626,-0.16215 z M 91.281159,113.54513 c -0.604874,-2.54467 -3.403319,-3.32041 -3.573142,-5.68107 -1.031833,-1.71414 1.132695,-0.60936 0.383914,-2.2967 0.3202,-1.01179 1.324241,1.17804 0.74769,-0.74506 0.379506,-3.51682 1.82702,1.98621 2.969947,2.80757 0.693059,1.34824 3.086811,2.81607 2.622971,4.2263 -1.560418,-1.64818 -2.7656,-4.62907 -4.589396,-5.49965 -1.573868,0.6929 -0.321278,3.3256 0.534067,4.73987 0.263694,0.51579 3.347689,4.37171 0.903949,2.44874 z m 36.237951,-0.33974 c 0.7377,-1.64899 1.27074,-3.67609 0.46349,-5.24863 2.06716,0.28283 1.28899,5.08975 -0.46348,5.24863 z m 20.5669,-0.70281 c 1.60103,-0.68867 -2.16377,-2.03559 0.0537,-1.70986 1.55951,0.0331 2.3539,2.59588 -0.0537,1.70986 z m -72.084627,-0.0625 c -0.72043,-0.97668 0.343468,-5.39952 0.616778,-2.3159 -0.127274,0.53278 0.396391,2.85243 -0.616778,2.3159 z m 109.424307,-0.27107 c 0.69716,-1.77657 -0.3528,-4.95432 -0.60698,-5.9049 -0.74208,-0.65644 -0.8568,-4.42262 0.16775,-4.4788 0.50268,1.60369 -0.0662,3.25522 0.93918,4.40003 -0.6239,1.99122 2.23835,5.79658 -0.32188,6.40225 -0.23813,0.0351 -0.30504,-0.27768 -0.17807,-0.41858 z m 94.18043,-0.20699 c -1.96717,0.0952 -3.13368,-0.62963 -4.45711,-1.87344 -1.31636,-0.0116 -4.17932,-1.21991 -4.3814,-2.02244 1.16068,-0.21829 3.20574,1.01359 2.16207,-1.11298 -1.02581,-2.10409 1.38201,-1.15766 0.92712,0.42454 -0.0248,1.69749 3.27601,3.1561 1.93005,0.56878 -0.93342,-1.6874 0.52066,-2.29422 0.70624,-0.26299 -0.11743,2.88026 2.54679,4.0934 5.08661,3.61905 2.13905,-0.81036 0.74629,-4.77894 -1.14999,-2.45111 -0.47532,0.6251 -0.87673,3.32486 -1.31764,1.03681 -0.56254,-0.3043 -3.08231,0.54098 -1.03372,-0.67099 1.49668,-0.24112 -0.41386,-3.76158 1.28348,-1.61473 0.54154,1.88642 3.48653,-1.09911 1.2774,-1.79056 0.0894,-2.11684 -4.04442,1.05164 -1.70893,-0.98891 2.03724,-0.84341 -0.68628,-3.46842 -0.82321,-4.44643 -3.48641,-1.425925 -7.37886,-0.976855 -11.03829,-1.597165 -3.8766,-0.57683 -7.75486,-1.18568 -11.58199,-2.02298 -1.96486,-0.85004 -3.83017,-2.34405 -5.9546,-3.07342 -5.58117,-2.45415 -11.43101,-4.72522 -17.62237,-4.72323 -2.61859,-0.13763 -5.41522,0.0541 -7.81426,-1.08062 -0.34448,-2.04082 -3.60616,1.08382 -3.777,-1.71271 0.12962,-1.49148 -3.25833,-0.91811 -0.96374,-1.94589 2.15673,-0.18654 1.82514,4.26309 3.99066,1.77868 1.26738,0.18812 1.75237,1.92855 2.97755,2.05556 5.52145,0.33884 11.2447,0.01 16.46194,2.18252 4.29346,1.56561 8.516,3.34775 12.55599,5.48106 3.99219,1.41285 8.26002,1.78713 12.42224,2.42594 4.34961,0.58947 9.26207,-0.009 12.8821,2.962975 2.37109,1.22206 2.85894,3.68463 3.76448,5.86042 1.30622,2.49801 -1.76107,5.69287 -4.3441,5.0961 l -0.45925,-0.1019 z m 4.51997,-3.8032 c 0.0868,-1.37784 -3.11605,-3.16898 -1.76242,-3.73771 1.29334,-0.56054 -1.85602,-1.21475 -1.20794,0.61007 1.27409,1.22211 1.86194,3.00314 2.55058,4.38686 0.35599,-0.29756 0.52005,-0.8076 0.41978,-1.25922 z m -2.75624,-4.91663 c 0.73316,-0.9099 -3.39074,-3.249295 -1.48754,-0.89417 0.30067,0.52161 0.7418,1.76098 1.48754,0.89417 z m -18.95512,7.89521 c 0.70363,-1.34182 1.66868,-4.89679 3.14762,-4.40793 -0.82689,1.18468 -1.98756,4.41443 -3.14762,4.40793 z M 77.532124,108.97867 c -0.404542,-1.00412 0.577739,-3.24121 0.68202,-1.0983 0.258711,1.29155 -0.543522,4.67839 -0.666827,1.5788 l -0.01519,-0.48038 z m 182.110656,0.9725 c 0.42697,-0.92463 3.6682,-2.2871 2.45145,-4.41091 0.0163,-2.279 2.00666,1.64692 0.58653,2.32121 -0.6723,1.01597 -1.58893,2.56142 -3.03798,2.0897 z m -180.581317,-2.8908 c -0.248176,-0.98095 0.611418,-3.78932 0.790073,-1.2857 0.249399,1.018 -0.623433,4.64947 -0.786873,1.753 z m 187.048277,-0.34149 c -2.00975,-1.15062 -3.09595,-3.43769 -5.3625,-4.28722 -0.92567,-0.97988 -4.13107,-0.82312 -4.02501,-1.9454 2.22035,-0.43668 4.51247,1.23893 6.35008,2.57608 1.08009,1.2441 4.20999,2.90571 3.65468,4.24523 l -0.26796,-0.18838 -0.34923,-0.40031 z M 80.482552,104.88361 c -0.277172,-1.40917 1.107967,-3.31279 0.856079,-0.80506 0.203169,0.99225 -1.048498,3.88549 -0.897606,1.30239 z m 10.162657,-4.975275 c -0.657423,-0.70413 -0.965396,-2.97169 0.287612,-1.23504 0.418337,0.36267 0.891993,3.372015 -0.287612,1.23504 z m 1.810792,0.250225 c -0.134019,-0.935895 -2.345337,-3.657165 -0.150513,-2.283115 0.281159,0.28445 1.413131,3.120785 0.150513,2.283115 z m 1.216178,-1.093775 c -0.981379,-3.14364 2.05858,1.300865 0.30544,0.6612 l -0.15518,-0.2804 -0.15026,-0.38077 z m 2.61985,0.42706 c -0.53338,-1.25177 0.70506,-4.40627 0.81134,-1.42101 -0.003,0.3795 -0.0809,1.90512 -0.81134,1.42101 z m 153.719111,-2.747 c 0.86333,-1.66861 2.19816,0.38038 0.21167,0.32897 l -0.1611,-0.10532 z m -59.46742,-1.66983 c 0.0937,-1.29302 3.28828,-0.3065 0.57352,0.19256 -0.20129,0.13198 -0.50029,0.0386 -0.57352,-0.19256 z m -20.73541,-0.95547 c -0.817,-0.61793 -1.85794,-1.79752 0.005,-1.24622 0.7506,0.21763 1.37042,3.05818 -0.005,1.24622 z m 9.86804,-0.80389 c -0.29956,-1.17175 -2.18556,-4.14795 -1.11,-4.31939 0.46969,0.53912 2.53422,5.57977 1.11,4.31939 z m 15.59723,-0.47016 c 0.21837,-1.72799 4.12357,-1.58607 1.28619,-0.40998 -0.52035,0.006 -1.09299,1.72174 -1.28619,0.40998 z m -18.81143,-2.07006 c -0.60297,-0.7535 -1.16597,-3.32423 0.13972,-1.44397 0.77258,0.53622 1.2955,4.1544 0.0633,1.89607 z m 17.18433,0.54699 c -0.97368,-1.98892 5.11175,-2.0083 1.74606,-0.86751 -1.3854,-0.393 -0.63916,2.41467 -1.74606,0.86736 z m 3.69436,-0.65125 c -0.76905,-1.10789 1.19855,-3.06005 0.72156,-0.76554 -0.0252,0.26639 -0.22364,1.32036 -0.72156,0.76554 z m 3.45666,-0.32264 c 0.63502,-1.19889 -3.00492,-1.74486 -0.59064,-1.9245 1.86213,-0.0479 1.60435,3.65539 0.59064,1.9245 z m 3.73142,-0.46332 c -2.60268,0.43663 -0.63821,-4.55 -0.60903,-1.16041 0.82611,0.74403 2.51081,0.38236 2.04788,-1.04582 0.008,-1.94303 -1.7547,-4.64765 1.47553,-4.86156 1.67229,-0.959088 6.38684,-0.696636 4.85644,2.15723 -1.00971,1.27952 0.10988,1.73895 0.43151,2.48957 -3.3047,0.4375 0.46061,-4.28179 -2.37855,-4.3781 -1.79149,0.16102 -5.334,0.36552 -3.65353,2.94887 -0.27221,1.60199 1.56371,4.83849 -1.35078,3.91699 l -0.38861,-0.0297 -0.43079,-0.0371 z m -10.15416,-0.46513 c -0.29323,-1.25179 -0.14183,-2.55876 -0.17977,-3.83664 -1.04971,-0.47892 -3.40959,1.7646 -2.3038,-0.29217 2.47874,-1.71233 3.32032,1.11674 3.3805,2.70979 -0.26218,-2.28447 1.38875,-6.204473 4.04544,-3.82384 0.46757,0.85286 -0.0369,5.16902 -1.25817,3.91835 0.99605,-1.21518 0.95966,-5.39552 -1.2716,-3.47657 -0.64701,1.63112 -0.38777,4.76759 -2.41265,4.80113 z m 5.63732,-3.52384 c -0.70493,-2.22189 1.37366,-3.18802 2.88937,-1.8141 2.31151,-0.67383 1.29995,4.06472 0.57668,2.10794 0.75123,-1.62149 -0.63418,-1.29736 -1.76061,-1.66449 -1.57561,-1.70347 -0.20354,4.78522 -1.64459,3.03394 -0.0679,-0.55147 -0.0618,-1.10878 -0.0608,-1.66329 z m 13.28583,0.56592 c -0.77639,-2.88537 2.89345,-4.577169 4.55616,-2.27784 0.61498,1.5618 -2.42449,3.01064 -0.83534,0.83756 -0.60998,-2.21627 -3.40642,-0.77362 -3.12214,1.2741 -0.0535,0.25133 -0.42621,0.41358 -0.59868,0.16618 z"
       id="path4496"
       inkscape:connector-curvature="0" />
  </g>
</svg>
