<?xml version="1.0" encoding="UTF-8" standalone="no"?>
<!-- Created with Inkscape (http://www.inkscape.org/) -->

<svg
   xmlns:dc="http://purl.org/dc/elements/1.1/"
   xmlns:cc="http://creativecommons.org/ns#"
   xmlns:rdf="http://www.w3.org/1999/02/22-rdf-syntax-ns#"
   xmlns:svg="http://www.w3.org/2000/svg"
   xmlns="http://www.w3.org/2000/svg"
   xmlns:sodipodi="http://sodipodi.sourceforge.net/DTD/sodipodi-0.dtd"
   xmlns:inkscape="http://www.inkscape.org/namespaces/inkscape"
   width="300mm"
   height="300mm"
   viewBox="0 0 300 300"
   version="1.1"
   id="svg8"
   inkscape:version="0.92.1 r15371"
   sodipodi:docname="door_curtain.svg">
  <defs
     id="defs2" />
  <sodipodi:namedview
     id="base"
     pagecolor="#ffffff"
     bordercolor="#666666"
     borderopacity="1.0"
     inkscape:pageopacity="0.0"
     inkscape:pageshadow="2"
     inkscape:zoom="0.7"
     inkscape:cx="1020.4705"
     inkscape:cy="508.6233"
     inkscape:document-units="mm"
     inkscape:current-layer="layer1"
     showgrid="false"
     inkscape:window-width="2560"
     inkscape:window-height="1365"
     inkscape:window-x="-9"
     inkscape:window-y="-9"
     inkscape:window-maximized="1" />
  <metadata
     id="metadata5">
    <rdf:RDF>
      <cc:Work
         rdf:about="">
        <dc:format>image/svg+xml</dc:format>
        <dc:type
           rdf:resource="http://purl.org/dc/dcmitype/StillImage" />
        <dc:title></dc:title>
      </cc:Work>
    </rdf:RDF>
  </metadata>
  <g
     inkscape:label="Layer 1"
     inkscape:groupmode="layer"
     id="layer1"
     transform="translate(-8.3372129,2.004151)">
    <path
       style="fill:#000000;stroke-width:0.24966951"
       d="m 272.56248,260.31375 c 0.25124,-1.84654 -3.91006,-0.11618 -5.36963,-0.5865 -1.05701,0.26003 -2.02467,1.18687 -2.67843,-0.1615 -1.92421,1.21973 -5.1884,0.28854 -7.60796,0.58648 -6.28553,-0.12076 -12.5731,0.11943 -18.85334,0.007 -13.50202,-0.58228 -27.01612,-0.91808 -40.52629,-1.19402 -1.45431,0.90518 -3.09079,0.71373 -4.06633,-0.97894 -0.88845,1.15832 -1.05562,-2.71798 -1.22681,0.0268 -2.42548,0.44072 0.49388,-2.94108 1.17996,-3.12429 1.2379,-24.2436 1.85827,-48.54535 0.88248,-72.81096 -0.17189,-11.67631 0.21438,-23.35726 0.65226,-35.02339 0.44962,-16.37439 0.2542,-32.7649 0.79638,-49.136654 -0.59487,-4.03301 0.29255,-8.18795 -0.47042,-12.23054 -2.01448,0.12164 -4.05724,0.0438 -6.04497,0.4146 -0.93306,1.8529 -1.46034,3.91045 -1.72427,5.96686 1.82733,-0.33077 4.23395,0.0982 3.18139,2.56925 -0.83409,10.762664 -0.6678,21.576234 -0.89073,32.363184 -0.17285,19.83578 -0.54068,39.67821 0.0792,59.50989 0.1786,8.36003 0.003,16.72157 -0.54904,25.06444 -0.29719,13.77064 -1.01541,27.5325 -1.07894,41.30773 0.49136,2.17554 1.6991,5.88399 -2.03579,5.36079 -3.10182,0.33136 -6.21928,0.57994 -9.31289,0.91609 -2.62238,1.15147 -5.23378,-0.23033 -8.03288,0.1181 -6.95666,0.37386 -13.95069,0.30424 -20.89464,-0.25932 -2.54884,0.17463 -5.3262,-1.01474 -8.08643,-0.41362 -2.58896,0.55459 -5.25378,0.75796 -7.87249,0.11043 -2.68392,-0.3652 -4.75274,0.0961 -7.38714,-0.29799 -2.90756,0.0103 -5.93127,0.24693 -8.66612,-0.85459 -1.77292,-0.897 -1.95672,0.95324 -3.06884,1.31083 1.50498,-3.65183 -3.77496,-1.98479 -5.90361,-2.21886 -1.53326,0.29792 3.53708,0.76421 0.40125,1.14715 -2.0466,0.0193 -5.04334,1.61308 -6.56884,0.27132 -7.214004,-0.37347 -14.462866,0.42073 -21.682857,0.0621 -2.031376,-0.45397 -3.296879,0.95843 -5.361692,0.0731 -2.956476,-0.0708 -5.922584,0.0823 -8.807299,0.65965 -2.598327,-0.32452 -5.176367,-1.00345 -7.834676,-0.9786 -4.494557,-0.12031 -9.030387,-0.39487 -13.507907,0.007 -1.90595,1.03338 -4.494572,-0.44762 -6.625411,0.17898 -2.239132,-0.89098 -4.666516,-1.19396 -7.008879,-1.58203 -1.259747,0.35916 -3.9066,-0.50402 -1.305332,-1.00012 2.951283,0.74229 6.129498,0.37191 9.188627,0.56893 4.259841,0.0542 8.527205,0.47826 12.782502,0.23789 2.915513,-0.44518 5.906366,0.36022 8.877698,0.14273 9.064091,0.063 18.140319,0.31564 27.197932,-0.0448 5.250783,-0.49913 10.512016,0.009 15.752254,0.32944 1.91869,-0.50797 7.23878,-0.0159 5.65102,-3.1851 -0.29428,-7.55325 -0.54686,-15.12109 -0.42257,-22.68051 0.72948,-5.94387 0.69723,-11.94503 0.59444,-17.92153 -0.42939,-4.14182 -1.07514,-8.27438 -0.87179,-12.45625 0.36629,-1.63129 -3.24144,-3.66455 -0.15587,-4.24646 0.41557,-2.82527 -0.42558,-6.16032 -0.0396,-9.22673 -0.11764,-3.37597 0.0324,-6.84235 -0.76821,-10.13707 -1.03341,-1.29381 1.46455,-3.28933 0.48337,-5.23136 0.10183,-3.9 -0.8013,-7.70486 -0.78379,-11.59701 -0.0336,-3.54098 -0.86611,-7.1048 0.002,-10.60728 -0.29928,-4.03883 -0.1598,-8.10969 -0.22512,-12.16423 -0.71797,-2.55981 -0.48089,-5.16625 0.18027,-7.71614 0.0461,-4.8139 -0.31768,-9.63884 -0.11825,-14.46053 0.052,-7.45552 0.47542,-14.91623 0.21504,-22.366304 1.09629,-5.59439 0.46129,-11.3393 0.95504,-16.99688 -0.14907,-2.52936 0.73499,-5.89356 4.03212,-4.51018 1.90459,0.22357 4.06496,-0.1212 6.11051,-0.28861 2.18388,0.10218 4.17295,0.43518 5.80764,-0.17769 2.45461,1.18793 5.11422,-0.40444 7.86112,0.44237 2.24525,-0.25182 4.29659,-0.41253 6.65444,-0.30668 2.41804,-1.96827 5.50516,0.19269 8.04098,-1.14874 2.91269,0.39481 5.1401,2.60034 8.15542,1.73055 2.96976,0.17274 5.95448,0.18563 8.88325,-0.41157 4.69331,-0.22761 9.4118,0.26737 14.09245,-0.31944 2.95444,0.31436 5.81266,1.16552 8.85829,0.93451 2.27945,0.20012 4.67655,-0.92392 6.61803,0.24985 2.89435,0.44451 0.19779,2.99104 -0.4488,4.7574 -0.70241,2.47366 -1.38726,5.06303 -1.82417,7.57665 2.11737,0.88348 7.50087,-1.8526 6.86347,2.22103 -0.39641,12.61031 -0.66389,25.233474 -0.49307,37.850204 0.39495,6.71525 0.4798,13.4742 -0.36034,20.15796 -0.53305,13.05348 -0.9276,26.12383 -0.75418,39.18886 0.62747,13.8515 0.41004,27.72736 0.34509,41.58922 -0.16535,10.88147 -0.6259,21.75647 -0.77225,32.63875 2.92268,0.0521 5.84641,0.007 8.74559,-0.3152 7.25539,0.0439 14.53598,0.1181 21.74625,0.92632 8.7053,0.55266 17.43691,0.77786 26.14717,0.19209 5.50592,-0.18556 11.0018,-0.71084 16.50122,-0.89853 5.95697,0.68947 12.00376,0.43555 17.99728,0.71462 2.201,-0.38588 6.50245,0.52435 2.29188,1.67512 -4.85935,0.14807 -9.83884,-1.13826 -14.62284,0.11176 -0.27116,0.0425 -0.96829,0.57028 -1.09382,-0.003 z m -116.61642,-1.50102 c -1.86688,0.41354 -3.96417,-1.23977 -5.33919,-0.65568 1.64055,1.30411 3.93412,0.64901 5.92681,0.77202 0.48681,-0.015 3.07823,-0.009 1.99412,-0.0398 -0.86058,-0.0255 -1.72116,-0.051 -2.58174,-0.0765 z m -35.56707,-1.35715 c -0.81194,-0.2786 -0.6736,0.46096 0,0 z m 20.1051,-0.32921 c -0.26293,-1.43064 -3.9134,-0.16921 -4.23994,0.038 1.31604,0.34055 3.00966,0.52933 4.23994,-0.038 z m -12.91952,-0.2428 c -0.65446,-0.91348 -4.3646,-1.32916 -2.53014,-0.0245 0.36972,-0.48997 4.41942,1.36748 2.53014,0.0245 z m 6.49033,0.27917 c -1.21161,-0.45145 -3.33618,-0.0224 -0.85091,0.18684 0.21481,-0.0165 2.14211,0.1212 0.85091,-0.18684 z m 12.21084,-0.0457 c -1.18793,-1.2279 -4.01809,-0.007 -4.80893,0.29956 1.58641,-0.0448 3.20705,0.17991 4.76707,-0.12827 l 0.0419,-0.17137 z m 11.53838,-0.40126 c -0.4265,-1.99912 -3.45487,1.26578 -4.27423,-0.96932 -1.49573,0.53997 -4.06259,1.35835 -5.03468,1.63086 3.15278,0.11634 6.30965,0.0871 9.46431,0.133 -0.0518,-0.26484 -0.1036,-0.52966 -0.1554,-0.7945 z m 18.81945,0.52637 c 3.17108,-0.18 6.46805,0.0708 9.51998,-0.92283 0.95583,-1.37097 0.0515,-3.323 0.80208,-4.89527 -0.19345,-2.2173 0.0289,-3.95126 -0.14287,-6.2498 0.69118,-2.09093 -0.53923,-4.38079 0.46987,-6.90907 -0.75616,-2.71228 -0.68747,-5.61773 0.0817,-8.23548 -0.83376,-1.66432 0.77704,-2.96771 -0.27601,-3.83453 0.60124,-2.92306 0.41365,-5.70357 0.48408,-8.73002 -0.37365,-1.66449 1.46278,-2.9114 -0.13388,-4.07629 -0.79834,-1.3225 1.586,-2.83949 0.51456,-2.80611 -1.69591,0.67318 0.89377,-4.60389 0.24706,-4.38269 -1.36301,-0.48995 0.28039,-4.1733 -0.44925,-5.73029 0.27873,-1.95595 0.35043,-5.25924 0.85081,-5.69055 -1.8932,1.10201 0.0616,-4.24147 0.25407,-4.80132 -1.02996,-1.8689 -0.36081,-3.86291 -0.52948,-5.83891 0.0877,-2.14162 -0.006,-4.39013 -0.006,-6.15602 -0.35336,-1.04792 -0.52854,-3.51981 -0.25363,-5.52889 0.11795,-2.48124 -0.78855,-5.04349 -0.12149,-7.51328 0.28186,-1.24148 -1.22285,-3.13058 -0.0522,-4.32777 -1.34876,-0.29956 -0.35588,-3.24456 -0.68816,-4.76335 0.79521,-2.20894 -0.17865,-4.27279 0.58722,-6.41017 -0.57723,-2.72404 1.08586,-5.26353 0.31189,-7.77035 0.22567,-2.00855 0.17613,-4.28158 0.14552,-6.51364 0.13403,-2.26154 0.4363,-4.49577 0.003,-5.83453 0.0951,-1.70834 0.32134,-3.98726 -0.30525,-5.88808 0.47297,-1.69706 -0.029,-3.80872 -0.9575,-5.54487 -0.41756,-1.22003 -3.61782,-4.67483 -1.87354,-1.3734 0.3727,0.97228 3.40179,3.74355 1.52032,3.71197 -0.34236,-0.79395 -2.00836,-4.04041 -2.35122,-3.22392 -0.34528,1.85912 -0.99493,3.63437 0.45045,5.35264 0.48158,1.57927 3.00301,3.89324 2.10202,5.15421 -1.00036,-1.85902 -1.94206,-4.9546 -3.60884,-5.77963 -0.83318,3.2684 -1.27395,-2.84824 -1.25454,-0.91807 -0.26626,2.06858 0.49837,4.89538 -1.30491,6.24421 -0.83323,2.45572 -1.17726,5.14424 -1.44017,7.77929 -0.72105,2.90055 -1.68755,5.49124 -2.09061,8.50137 0.35278,1.70234 -0.86437,2.59795 -0.88523,0.37192 -0.55244,-1.12025 1.01116,-5.34708 -0.35052,-2.27815 -0.50169,1.42293 0.36814,5.32644 -0.75626,5.42514 -0.0895,-0.92728 -0.13373,-3.99329 -0.37374,-1.26089 0.46526,2.95959 -0.61551,5.48098 -1.00435,8.33703 -0.73347,1.98751 -1.90533,4.25335 -3.35028,5.39696 1.44854,0.89428 -0.0103,5.87455 -0.24965,2.77771 -0.62906,-0.45707 -0.30582,4.6136 -1.82403,5.09304 0.0103,2.91656 -1.34299,5.4028 -2.48883,7.86133 -0.22237,1.46452 -1.51696,2.42992 -1.04632,0.27823 0.18243,-1.31446 0.19416,-1.92712 -0.33,-0.33666 -0.0739,2.62424 -0.12709,5.30313 -1.52592,7.68537 -0.15688,2.8358 -2.22663,4.64069 -2.74121,7.39017 -0.77023,2.40328 -2.33295,3.93062 -2.66496,6.30271 -1.73058,1.46865 -1.57508,4.15687 -3.03083,5.76038 0.49169,2.3233 0.2773,4.57929 1.1154,6.69326 -0.97337,1.88809 -1.61805,-0.074 -2.10678,-1.14131 0.81726,-1.25497 -1.22451,-2.54145 -0.38707,-0.4025 0.0851,1.13706 3.01284,4.2317 1.39717,4.31333 -1.1933,-2.24153 -1.20274,0.1066 -0.18451,1.02686 1.47661,1.03806 1.27838,3.51741 0.26033,2.59728 1.31793,2.54489 1.43896,5.40685 1.84672,8.25217 -0.31874,1.50276 1.64792,4.97751 0.079,5.34089 -0.37495,-1.74177 -1.00927,-1.73459 -0.51541,0.17044 1.6816,1.25372 0.99786,4.18411 1.9019,6.20977 0.0111,1.02031 1.82201,4.55592 0.30746,3.90227 -0.48173,-0.82671 -1.46838,-5.41829 -1.01152,-2.15351 0.15018,2.71341 1.6945,5.06166 1.96828,7.70911 -0.79643,2.41617 -1.78232,-5.74581 -1.68434,-1.28949 0.70261,2.64767 1.70239,5.32449 1.7418,8.1278 -0.54359,2.33216 -1.41764,-3.74511 -1.72884,-2.3676 -0.85194,2.17749 1.64878,3.98009 0.77463,6.01277 0.047,1.32871 0.36581,2.58983 1.92656,2.15531 5.47097,0.23339 10.94582,0.0478 16.41749,-0.0557 z m 5.44402,-70.80304 c -3.1138,-0.66954 -1.68708,-5.80203 0.49212,-7.17403 2.45463,-0.93057 6.28135,3.19681 4.42503,5.44168 -1.18896,1.52015 -3.01262,2.38064 -4.91715,1.73235 z m 2.8258,-2.82466 c 1.07814,-1.99347 -4.1925,-2.73987 -3.21127,0.43137 1.07145,0.48378 2.43071,0.76782 3.21127,-0.43137 z m 0.19015,-42.14634 c -0.78909,-2.25378 -3.68145,-3.21869 -4.00701,-5.27102 1.97102,0.74845 3.09176,3.69585 4.64503,5.36532 0.88473,0.87487 1.95925,3.31976 0.32499,1.21219 -0.33216,-0.42714 -0.65044,-0.8653 -0.96301,-1.30649 z m -0.92021,-3.96762 c -0.42238,-1.40369 -3.11753,-3.96239 -1.9619,-4.75286 0.87967,1.93368 2.60559,4.28644 2.89298,6.02868 -0.43581,-0.32247 -0.6637,-0.82459 -0.93108,-1.27582 z m 1.41021,-1.28138 c -1.01243,-2.64567 -4.28378,-5.31795 -4.3288,-7.69499 1.94011,2.17183 3.02057,5.04687 4.82882,7.36215 1.3595,1.16003 0.12327,2.13047 -0.50002,0.33284 z m -0.39684,-2.99767 c -0.30534,-1.5244 -2.90204,-3.4488 -2.23783,-4.56465 1.3966,1.53491 3.19718,4.34227 3.34561,6.12959 -0.57394,-0.31314 -0.80629,-1.01916 -1.10778,-1.56494 z m -0.081,-2.43463 c 0.10572,-1.47582 -3.56292,-4.41369 -2.04619,-4.73078 0.67613,1.3155 3.57843,4.17251 2.18538,4.9203 l -0.13933,-0.18963 z m 1.42939,-0.84083 c -0.34021,-2.05849 -2.92136,-4.15316 -2.53201,-5.90478 1.05672,1.88237 3.58494,5.03411 3.00931,6.73304 l -0.28483,-0.31692 z m -0.2083,-6.91206 c 0.43742,-1.87289 -3.51299,-3.12831 -1.37086,-4.15168 1.16512,1.24221 2.35199,4.40873 1.93132,5.57934 -0.27464,-0.43791 -0.41932,-0.93627 -0.56046,-1.42766 z m 0.79338,134.09489 c -0.24903,-0.77446 -0.58825,0.85433 1e-5,0 z m 6.74261,-0.36184 c -0.61811,-1.21143 -0.48995,1.62756 0,0 z m -63.28284,-0.50641 c 1.24711,-0.25066 1.50187,-1.10313 1.25949,-2.25708 -0.47778,-12.44383 -0.7566,-24.91569 -0.0949,-37.35665 0.31351,-4.80266 0.61674,-9.60188 1.11388,-14.38668 -0.0383,-1.42626 1.11172,-6.5638 -1.45046,-4.73885 -0.5514,4.77229 -0.92287,9.57392 -1.74181,14.31675 -1.91581,13.74062 -0.88552,27.63751 -1.42359,41.45327 0.42212,1.55957 -0.77785,2.62078 -0.97677,0.48594 -0.0738,-3.26892 -1.9009,2.02592 0.45491,2.28016 0.98425,0.91771 1.75556,0.957 2.8592,0.20314 z m -11.42846,-0.21174 c -2.22559,-0.44053 0.97754,-2.42684 -1.27671,-1.70081 -1.31377,0.34813 -3.23048,2.13025 -1.02516,0.82036 -0.17704,1.13214 4.21621,2.06863 2.30187,0.88045 z m -7.17715,-0.22407 c -1.16365,-0.75745 -4.04341,0.29057 -1.20165,0.24131 0.16604,-0.0631 1.49178,0.12621 1.20165,-0.24131 z m 10.59716,0.0147 c 1.3138,-0.051 0.59204,-1.53774 0.77328,-2.38757 0.0535,-10.29932 -0.1202,-20.60592 0.22785,-30.89889 0.57876,-5.43 0.52096,-10.92067 1.13843,-16.35498 0.22593,-2.74254 0.29204,-5.49355 0.35656,-8.24344 -1.54826,-0.41517 -2.85678,0.68083 -3.76168,1.05617 -0.0506,-2.87121 -3.58653,-0.51956 -2.35507,1.59667 -0.22146,1.68002 0.19601,1.94667 1.0537,0.2994 -0.0253,-1.83581 2.29718,-1.45433 0.82898,0.13594 -0.69064,1.2067 0.42151,2.31404 -0.51861,3.82745 0.46791,1.44255 1.25907,3.24996 1.14881,0.53706 0.44721,-1.63451 -0.45825,-4.6638 1.09309,-5.37021 0.19423,2.60006 -0.52342,5.24139 -0.48887,7.8747 -0.32738,15.90365 -0.39245,31.81406 -0.39715,47.72115 -0.39168,1.01851 0.68438,0.0933 0.90068,0.20662 z m -1.85432,-1.07869 c -0.16078,-3.00802 -2.46227,2.26774 -0.0256,0.67419 l 0.0197,-0.28894 z m 16.26119,0.85415 c 1.60749,0.28841 5.15021,0.21438 3.35482,-1.6393 -1.34391,3.04826 -1.24508,-2.09656 -1.16172,-3.21479 0.0615,-5.46971 -0.77171,-10.91172 -0.66977,-16.38931 -0.1807,-9.0664 0.11039,-18.13202 0.75064,-27.1752 0.45158,-2.60344 -0.52802,-5.29714 0.26006,-7.68687 -0.80881,-1.579 2.76688,-3.1213 0.16866,-2.63895 -1.13865,0.25611 -2.81122,0.10351 -3.70127,0.62357 -0.13354,7.84513 -0.71993,15.6729 -0.82401,23.51736 -0.044,8.52164 0.57397,17.03133 0.51065,25.55533 -0.032,2.76878 0.23541,5.55194 0.15235,8.30631 -1.2451,0.81126 -0.7342,-3.46819 -1.2244,-0.40812 -0.85673,1.73632 1.36013,1.43668 2.38399,1.14997 z m 10.53657,-0.009 c -0.0624,-5.48361 -0.2355,-10.99117 -0.33153,-16.48245 -0.37527,-3.6997 -0.68167,-7.46049 -1.07952,-11.12229 -0.60471,-3.49052 -0.25409,-7.1305 -0.33581,-10.68289 0.0652,-6.6343 0.13235,-13.26894 0.27421,-19.90213 -2.55981,-0.83966 -2.99152,1.65212 -2.89605,3.74371 -1.02774,9.77854 -0.64402,19.62541 -0.73164,29.43978 0.10192,7.35257 -0.21246,14.74123 0.74069,22.05065 0.2972,0.97091 -0.64234,2.826 0.97272,2.75062 1.05746,0.19236 2.47869,0.94727 3.38693,0.205 z m -31.62165,-1.00827 c 2.72478,-0.68288 -0.0904,-3.73273 0.4205,-5.49547 -1.74936,1.5692 -0.40955,-3.65453 -1.55995,-4.82818 -0.0594,-1.18698 -1.68464,-5.12145 -1.52111,-1.6907 1.41372,1.99121 0.23726,4.70669 0.40281,6.67466 -0.8184,0.75377 -0.55649,5.82957 1.25225,3.6331 3.00726,0.93548 -3.22068,3.52261 0.0128,2.25767 0.33441,-0.17727 0.66505,-0.36171 0.99269,-0.55108 z m 33.15503,0.88526 c -0.22301,-2.06741 -1.03117,-1.50821 -0.43225,0.18388 l 0.19654,0.0553 0.23565,-0.23911 z m -15.34832,-0.69245 c -1.04642,-2.26765 -0.50013,2.06713 0,0 z m 8.73836,0.0355 c -0.64067,-2.12603 -0.47638,2.0604 0,0 z m 13.8216,-0.39595 c -0.55987,-5.71805 -0.17162,-11.50834 -0.46128,-17.25125 0.11079,-2.68154 -0.58228,-5.21966 -1.08191,-7.77838 -0.90286,-3.0185 -0.44778,-6.27269 -1.24716,-9.33469 -0.44516,-2.81442 -1.06081,-5.61864 -1.45689,-8.42294 -0.18153,-4.77318 0.25855,-9.56014 -0.038,-14.32436 -2.25195,0.25152 -1.19384,4.51684 -1.4362,6.46121 0.12868,9.15272 0.15132,18.3187 0.67998,27.45687 0.9679,7.18519 2.4859,14.34402 2.26717,21.63429 -0.42047,1.6075 0.62283,2.223 2.14271,2.4718 0.44368,0.004 0.81152,-0.48845 0.63154,-0.91255 z m -5.34988,0.147 c 2.09555,-5.0969 -3.01348,2.43093 0,0 z m -25.34776,0.0836 c -0.0241,-0.48446 -0.35173,-2.58566 -1.29934,-2.97612 0.56555,0.77596 -0.5542,3.90915 1.29934,2.97612 z m -13.39486,-0.26113 c -2.51528,-0.16333 -1.26606,0.28426 0,0 z m 29.02187,-1.26365 c -0.49216,-1.99841 -0.21354,2.34288 0,0 z m -31.20065,-0.17428 c -0.96429,-1.15599 -0.84874,1.50614 0,0 z m 40.01827,0.0467 c 1.49153,-3.97581 -2.56485,0.60587 -0.29898,0.43207 z m -37.89046,-1.42623 c 0.0451,-1.17038 -0.30789,-4.61887 -0.45652,-1.70076 -0.28463,0.63074 -2.00725,3.80831 -0.3216,3.3957 1.25886,0.2152 0.62157,-0.90355 0.77812,-1.69494 z m 7.46919,1.55209 c -0.1378,-1.60652 -2.65076,-2.95082 -1.85908,-0.45374 0.30204,0.71502 1.2691,0.87435 1.85908,0.45374 z m 33.03368,-1.05785 c 0.25017,-1.58231 -1.57655,-1.4534 -0.26134,-0.0276 -0.10881,1.55611 0.30556,1.80278 0.26134,0.0276 z m -31.88542,-1.42329 c -0.24702,-0.68208 0.55498,-2.62229 -0.46906,-2.37247 -1.31522,0.46831 -1.89947,-1.24786 -0.84769,-1.19229 -0.6637,-1.23982 -1.4665,-2.40003 -2.19955,-3.59977 0.0368,2.85991 1.66805,5.26588 3.02512,7.65972 0.27081,1.42972 0.37775,2.80616 0.47745,0.46076 l 0.009,-0.46137 0.005,-0.49456 z m 12.3145,1.6303 c -0.76822,-1.22461 -0.0301,1.56173 0,0 z m 8.76434,-0.74458 c -1.7865,-2.43842 1.21285,3.70867 0,0 z m -15.73687,0.17818 c -1.67062,-0.49551 0.8676,1.66845 0,2e-5 z m -7.32892,-2.09461 c -0.59739,-1.51365 -1.83608,-2.28769 -0.74199,-0.12149 0.40456,1.14916 2.50785,3.18821 1.1316,0.82141 l -0.1864,-0.34189 -0.20321,-0.35809 z m -8.23877,0.70486 c 0.90278,-2.40312 0.1419,-5.31324 0.19586,-7.90838 -0.29643,-1.76586 -0.26984,-5.17268 0.81714,-2.85541 0.0909,-2.24128 0.2362,-4.29128 0.50687,-6.54081 0.28285,-1.38643 -1.52379,-5.37511 -1.0467,-1.95956 0.006,1.05103 0.9638,5.21418 -0.2922,3.91595 -0.48814,-5.31863 -0.2456,-10.68996 -0.8244,-15.99563 -0.74786,5.62208 -0.67505,11.34246 -0.88791,17.01102 0.048,4.56157 -0.42333,9.18966 0.37458,13.7041 0.18802,1.18241 0.50401,2.37704 1.15676,0.62872 z m 38.78223,-0.0823 c -1.80919,1.00232 -0.94616,2.43658 0,0 z m 1.74896,-0.0535 c 0.52601,-2.48532 -1.10896,1.78068 -0.17788,1.11987 0.13756,-0.35326 0.30722,-0.7363 0.17788,-1.11987 z m -25.56937,-0.0349 c 0.37147,-3.54709 -1.38101,1.67067 0,0 z m 9.17357,-0.66267 c -0.38578,0.0357 0.17781,1.62523 0,0 z m 17.34271,-7.15952 c -0.27369,-1.00892 -0.42923,-5.00127 -1.06792,-4.22936 0.20998,1.76963 0.83256,3.79735 -0.35713,5.51791 0.86799,1.206 1.59489,2.43452 0.40698,3.14969 -0.23326,1.1446 1.73634,4.58944 1.4052,1.83317 0.11493,-2.0956 -0.12085,-4.19558 -0.38713,-6.27141 z m -24.50515,6.81237 c -1.21716,-1.87391 0.0296,1.56917 0,0 z m 14.21852,-0.75367 c -0.209,-3.00782 -0.54432,3.03841 -0.004,0.50893 z m 8.75432,0.003 c -1.21981,0.46478 -0.49723,1.90986 0,0 z m -23.96959,0.2744 c -0.74443,-1.18429 -0.60715,0.74186 0,0 z m -2.06951,-1.47364 c -0.37771,0.63714 0.21481,1.8755 0,0 z m 25.30048,0.66746 c 0.77001,-1.27911 -1.14733,1.14916 -0.28099,0.38206 z m -37.03742,-0.32237 c -0.44794,-0.18024 0.16371,1.06648 0,0 z m 19.97029,-0.43381 c -0.41054,0.20259 0.21555,1.2806 0,0 z m 16.20283,0.26407 c 1.02945,-2.4374 -1.55565,0.81577 -0.28967,0.39858 z m -28.09541,-2.06902 c 0.7411,-1.30522 -1.33971,-3.56774 -0.41481,-1.18311 0.65235,1.53525 -2.17212,1.03063 -0.42897,2.50522 0.99223,2.05459 0.84636,-0.31211 0.84378,-1.32211 z m 5.13832,0.2103 c -0.33734,-1.2669 -1.76505,-2.67931 -1.59421,-0.35469 -0.51891,1.86717 1.86489,0.38347 2.17187,2.31948 0.63976,0.0908 -0.55467,-1.61585 -0.57766,-1.96479 z m 8.82243,-2.14208 c 0.0878,-1.21305 -0.15236,-4.85269 -0.33707,-1.73311 0.23551,1.61607 -0.49881,5.03441 0.27631,5.46987 0.0633,-1.24431 0.0599,-2.4912 0.0608,-3.73676 z m 5.92735,3.53509 c -0.44797,-0.18015 0.16374,1.06648 0,0 z m -13.30699,-0.4442 c -1.29935,-0.95714 0.95946,-4.01739 -1.1728,-3.83667 -1.09299,0.21164 1.53213,5.50628 1.1728,3.83667 z m -10.89456,-8.15884 c -0.0966,-5.93702 0.48933,-11.84429 0.84478,-17.76014 0.19852,-5.43641 -0.0783,-10.8827 0.21554,-16.31514 0.71185,-1.93713 0.34792,-4.07354 0.44885,-6.11127 -1.02557,0.56226 -3.19405,-0.0587 -3.44873,1.08723 -0.28294,6.57131 -0.72214,13.135 -1.08279,19.70031 -0.4932,1.27837 1.68472,4.96869 -0.26201,4.1614 0.54603,2.82124 -0.58129,5.39867 -0.0726,8.2594 1.06425,2.71768 -0.99492,5.33981 0.20461,7.98899 0.18438,1.28491 2.1814,1.28062 1.91284,3.20596 0.42504,1.41195 1.4057,6.03637 1.18458,2.1828 0.0219,-2.13314 0.0391,-4.26634 0.0549,-6.39954 z m -4.99986,6.34363 c -0.37771,0.63717 0.21481,1.8755 0,0 z m 1.32518,0.32039 c -0.2394,-3.09476 -0.79139,1.97488 -0.0219,0.70442 l 0.0156,-0.30699 0.006,-0.39743 z m 37.45032,0.10439 c -0.85885,-1.25 -1.11778,2.56553 -0.10126,0.36682 l 0.10125,-0.36682 z m -8.81396,-0.29546 c -0.38578,0.0357 0.17782,1.62522 0,0 z m -21.89064,-0.93493 c -1.02621,0.20619 -0.58556,1.66778 3e-5,0 z m 29.78121,0.17485 c 1.33663,-2.1073 -1.03122,0.15189 -0.62535,0.70906 l 0.28124,-0.23689 z m -30.44611,-1.55145 c -1.39772,-0.4979 -0.1798,2.52481 0,1.2e-4 z m -1.3508,0.14998 c 1.12685,-1.04419 -0.94808,-3.89545 -0.44214,-1.32376 0.0959,0.45514 -0.23309,2.69528 0.44214,1.32376 z m 31.23174,0.12694 c 0.95583,-1.83725 -1.38768,1.79398 0,0 z m -8.4933,-0.78352 c -0.58992,-0.49454 -0.4506,2.16614 0,0 z m -14.22216,-0.36076 c -0.78568,-0.21552 -1.35263,2.01437 -0.15857,0.29849 l 0.15857,-0.29846 z m 24.4633,0.16754 c -0.8634,-0.18005 -0.35939,1.8495 1e-5,-5e-5 z m -18.04706,-0.52026 c -0.38578,0.0355 0.17779,1.62532 0,0 z m -12.82111,0.24448 c -0.70691,-0.91869 0.23026,1.1277 0,0 z m 0.813,-3.16477 c -0.49227,-1.21442 -1.51656,-2.75952 -0.94761,-0.39348 0.64023,0.97943 1.32535,5.35839 1.25996,1.87257 -0.027,-0.4805 0.1393,-1.14585 -0.31235,-1.47909 z m 4.81906,2.02094 c -0.66762,-1.97486 0.80552,-0.38139 1.01174,-0.3385 0.63763,-1.49645 0.83265,-2.98862 -0.90896,-4.02008 -2.28269,0.71999 -1.10615,4.5765 -0.8018,5.72295 0.34174,-0.34573 1.0873,-0.78019 0.69902,-1.36437 z m 24.74612,0.0591 c -1.2198,0.46486 -0.49723,1.9098 0,0 z m -0.51183,-1.27983 c -0.78471,0.4272 -0.88115,2.26068 -0.10628,0.35925 z m -31.4408,-0.0321 c -0.97848,-0.64241 0.55236,-1.8268 -0.0564,-2.60609 2.08964,-1.28364 -1.91158,-0.7476 -0.9215,1.1112 -0.0303,0.65338 -0.24301,2.78978 0.97789,1.49489 z m 31.88347,-1.13647 c -0.44794,-0.18016 0.16369,1.06649 0,0 z m -17.39879,-1.37862 c -0.62996,0.50096 0.03,2.5332 0.11699,0.37766 l -0.11701,-0.37766 z m -5.3099,-0.52215 c 0.20639,-1.36967 -0.85837,-3.43064 -1.20873,-0.9511 0.3671,0.82664 1.72056,4.74698 1.20873,0.9511 z m 7.46009,0.19971 c -0.97829,0.61112 0.53619,2.04258 0,0 z m -13.87545,-0.36789 c -0.1038,-1.20449 -1.96184,-5.43053 -1.89768,-1.81783 0.35924,0.42329 2.41804,4.82481 1.89768,1.81783 z m 18.64309,0.77797 c -0.44795,-0.18018 0.16372,1.0665 0,0 z m 1.47986,-0.3789 c -0.90308,-0.10454 0.39245,1.27898 0,0 z m 7.98146,-0.32543 c 0.62422,-4.58891 -2.60665,3.79007 0,0 z m 1.84676,-1.4881 c 0.092,-1.3228 -1.61588,-3.20118 -0.59878,-0.93033 -0.35484,1.44449 1.294,4.38973 0.59878,0.93033 z m -18.19341,-0.36961 c -0.53673,0.70877 -0.17853,2.95478 0.11132,0.72052 0.0344,-0.23449 0.071,-0.52895 -0.11132,-0.72052 z m -7.6905,1.23861 c -0.32763,-0.88312 -0.15912,-2.08919 0.72329,-1.3798 0.72312,-2.68683 -1.37582,-1.74115 -1.24771,0.36536 -0.10387,0.28323 0.0294,2.04819 0.52442,1.01444 z m -7.18201,-0.96546 c -0.002,-0.996 -0.88822,0.94364 0,0 z m 30.33561,-0.12635 c -0.85205,-1.0735 -0.15873,0.98056 0,0 z m -8.48673,-0.51912 c -0.56368,-1.30873 -0.63469,0.85784 0,0 z m -21.35108,-3.16001 c -0.54455,-1.94223 1.96874,0.438 0.62648,-1.42633 -0.84616,-0.61644 -0.81327,-3.48038 -1.14489,-1.03686 -0.19431,1.79199 -0.2447,3.59499 -0.35384,5.39328 0.44516,-0.92046 1.0257,-1.8599 0.87225,-2.93009 z m 9.37716,0.62326 c 0.72169,-1.23367 -1.13797,-3.21196 -0.6118,-1.09187 0.60727,0.73308 -0.29121,4.7657 0.56854,2.33288 0.0293,-0.41299 0.0413,-0.82705 0.0433,-1.24101 z m 13.4625,0.96761 c -0.43059,-1.96524 -0.30661,2.39918 0,0 z m 7.88082,0.40653 c 0.45131,-1.5647 0.41156,-2.90132 -0.30989,-0.77482 -0.34965,0.42656 -0.45521,1.97818 0.30989,0.77482 z m -22.34094,-1.63651 c -0.14183,-2.51448 -1.24645,1.38307 -0.0597,0.46749 z m -1.93354,-0.39116 c 0.43183,-0.60476 1.62795,-3.34003 -0.18458,-2.07507 -0.3742,0.47217 -0.19945,4.55055 0.18458,2.07507 z m 9.79292,0.0963 c -0.75755,-2.78721 -0.61254,0.99361 0.0877,0.57344 z m 5.79035,-0.22613 c -0.41057,0.20274 0.21561,1.28045 0,0 z m 9.83458,-0.64664 c -0.81108,-2.63123 0.27103,3.43808 -1e-5,0 z m -29.08308,-1.01257 c -1.10696,-3.12433 -0.10087,3.80117 0.0559,0.45121 l -0.0559,-0.45129 z m 26.62001,0.44511 c -0.85359,0.21273 0.17557,2.19622 0.12142,0.16674 l -0.12143,-0.16674 z m -35.73396,-1.08751 c -0.69784,-1.83387 0.39587,2.65882 0,0 z m 28.87402,0.57161 c -0.44797,-0.18012 0.16376,1.06651 0,0 z m -21.48012,-1.16919 c -1.09999,-0.95894 0.30299,1.39926 0,0 z m 8.38519,-6.23995 c -1.56265,-1.10701 -0.302,4.0642 -0.88283,5.36408 0.62552,1.86718 0.8191,1.14014 0.81571,-0.36852 0.0794,-1.65809 0.40199,-3.35532 0.0671,-4.99556 z m 20.99088,5.99403 c -0.13823,-1.99098 -1.1237,2.13277 1e-5,0 z m 1.17059,0.36909 c -1.54404,-0.98031 0.87447,1.26149 0,0 z m -38.63062,-1.06223 c -0.84817,-1.87026 1.20614,-3.12215 0.0715,-4.57922 -0.73991,1.17738 -1.05029,5.33969 -0.16086,5.07395 l 0.0893,-0.49473 z m 15.23636,0.666 c -0.68796,-0.82228 -1.21387,1.63542 0,0 z m -5.78585,-1.92145 c -0.20237,-1.43638 -1.04309,-3.15231 -0.78614,-0.58405 -0.0749,1.19177 1.29611,3.84475 0.94321,1.05773 l -0.15708,-0.47368 z m 27.17717,0.56756 c -0.78466,0.42711 -0.88125,2.26083 -0.10628,0.35926 z m 2.2476,0.32123 c -0.43063,-1.96514 -0.30656,2.39915 0,0 z m -1.13005,-1.74684 c -1.79257,-1.92965 0.71908,2.62158 0,0 z m -30.18869,-0.64944 c 0.9697,-1.03757 0.64781,-2.98891 -0.32254,-0.93748 -0.66103,1.0488 -0.61927,2.99092 0.32254,0.93731 z m 31.24323,-5.24023 c -0.73206,0.2479 -0.58024,3.55917 -0.85956,4.80843 0.81428,1.79436 0.96312,0.98964 0.88349,-0.48197 0.0274,-1.44084 0.13211,-2.89126 -0.0239,-4.32646 z m -24.01128,5.43635 c -0.79634,-0.68227 0.85442,-3.73237 -0.5207,-1.99399 -1.35079,0.52336 -0.56375,3.2659 0.5207,1.99399 z m 21.98799,-0.74204 c 0.14528,-1.62769 -1.22811,2.57342 -0.19221,0.55008 l 0.19221,-0.55006 z m -0.61554,-1.04891 c -1.06334,-0.74575 -0.71816,2.3144 0,0 z m 8.1599,0.0342 c -0.44791,-0.18022 0.16389,1.06644 0,0 z m -34.90432,-0.86608 c -1.79207,-3.74513 0.60188,3.22335 0,0 z m -8.33818,-1.7235 c -1.12752,-0.3119 0.23291,3.8693 0.10635,0.96395 l -0.0103,-0.39247 -0.096,-0.57148 z m 13.86979,0.27708 c -0.94453,-1.67211 -2.3588,3.32938 -0.9429,1.50982 0.40547,-0.43649 0.81562,-0.90655 0.9429,-1.50982 z m 22.66701,1.20137 c -0.56739,0.16365 -0.47372,1.36504 0,0 z m -30.15121,-1.24437 c -0.49195,-1.79533 -0.0948,3.24237 0.0609,0.36905 l -0.0608,-0.36905 z m -7.0041,-1.58399 c -1.80499,-1.21653 1.07027,-4.27962 -0.34645,-5.17637 -1.68813,-0.79296 0.26533,-4.74174 -1.04756,-6.01691 0.78585,-2.67109 0.73484,-5.46464 0.73784,-8.22139 -0.82192,0.19578 -2.61508,-0.58919 -2.25173,0.80346 0.0166,5.53283 0.40067,11.06309 0.83088,16.57692 1.21026,1.0947 1.04986,2.91954 1.10849,4.62781 -0.11365,1.19888 1.21661,-2.85228 0.96853,-2.59352 z m 36.70808,1.86996 c -0.54999,-0.16571 -0.89228,2.13501 0,0 z m -0.66132,-0.97856 c -1.32091,-0.0478 -0.89828,2.3847 -0.0207,0.35272 z m -8.15227,-0.0133 c -0.44797,-0.18012 0.16375,1.06651 0,0 z m -18.64139,-1.19949 c -0.4199,-2.91943 -0.58339,2.72845 -0.007,0.45472 z m 4.29277,0.38975 c -0.93377,-0.15079 0.41817,1.54285 0,0 z m -6.40984,-0.20731 c 1.01851,-0.55648 -0.65391,-3.88731 -0.35924,-1.66676 -0.0962,0.46361 0.13466,3.14838 0.35924,1.66676 z m 14.02148,-0.009 c -0.44798,-0.1801 0.16378,1.0665 0,0 z m 15.81071,-0.56084 c -0.73736,-1.1945 -1.0686,2.57083 -0.1092,0.37271 l 0.1092,-0.37274 z m 6.41071,0.40149 c -0.44799,-0.18028 0.16392,1.06645 0,0 z m -28.46468,-0.20931 c -0.37463,-2.5552 -1.99524,1.38648 0,0 z m 1.57895,0.28642 c -0.73434,-1.02729 -0.56878,0.57273 0,0 z m 6.16124,-0.92597 c -0.41059,0.20275 0.21561,1.28047 0,0 z m 5.74647,0.28864 c -0.44797,-0.18011 0.16376,1.06649 0,0 z m 9.69605,-1.632 c 0.0769,-2.12462 -0.71614,-0.74106 -0.75261,0.60749 0.88981,1.11235 0.82539,1.98366 0.80914,-0.0255 l -0.0565,-0.58192 z m -37.25872,-0.4672 c -0.50703,0.85378 0.54944,1.52452 -1e-5,0 z m 7.81743,0.56774 c 0.91202,-0.44111 -0.27372,-4.33411 -0.90921,-2.51561 -0.62665,0.40634 0.0167,4.0763 0.90921,2.51561 z m 5.13686,-0.0746 c -0.97375,-2.36225 -0.42507,2.41025 0,0 z m 2.31391,0.26695 c -1.06854,-0.99301 0.31389,1.44087 0,0 z m 19.62105,-0.37965 c -1.06335,-0.74577 -0.71816,2.31439 0,0 z m -13.56015,-0.30385 c -0.44799,-0.1799 0.1638,1.06636 0,0 z m -6.76983,-0.65751 c -0.9744,-1.78049 -1.30478,1.88827 0,0 z m 20.84226,-2.22129 c -1.55172,-0.66143 -1.61654,3.80307 -0.38518,0.8025 l 0.19988,-0.34775 0.1852,-0.45475 z m -19.62439,1.06626 c -1.19741,-1.43012 0.15057,1.59516 -1e-5,0 z m -2.13789,0.10792 c -0.22789,-0.63415 -0.0167,-3.81746 -0.89695,-1.66791 -0.2044,0.67268 -0.41236,2.68362 0.89695,1.66791 z m 2.45901,-1.31277 c -0.44797,-0.17993 0.16371,1.06641 0,0 z m -8.26998,-0.71262 c -1.05615,-2.03523 0.12756,1.40398 0.25074,0.57531 l -0.25074,-0.57534 z m 6.98366,0.27361 c -1.48476,-1.72248 0.2708,1.99645 0,0 z m 22.38715,-3.90223 c -0.1161,-2.14122 0.20646,-4.48358 -0.98447,-6.39099 -0.66185,1.7698 1.0181,3.88967 0.30727,5.25997 -1.40524,-0.86473 -0.62318,2.62227 -0.42509,0.37721 2.15517,1.08211 -1.02221,2.9389 0.5297,3.92368 0.23868,4.77941 0.88214,-2.61803 0.57259,-3.16987 z m -16.60377,3.61043 c -0.44799,-0.17994 0.16379,1.06638 0,0 z m -13.90228,-1.8646 c -1.09888,-1.86409 2.05457,-0.0162 0.79397,-2.17667 -1.53034,-0.0133 -2.03885,4.55478 -1.17937,3.36265 0.1989,-0.34375 0.61697,-0.77506 0.3854,-1.18598 z m 1.7881,-0.0665 c -1.19157,-0.47482 0.52115,3.38621 0.14743,0.51303 l -0.14742,-0.5135 z m 8.03491,0.61972 c 0.69795,-3.60523 -3.23505,1.89913 -0.219,0.78989 l 0.12801,-0.29332 z m 17.81402,0.61809 c -0.44795,-0.18015 0.16373,1.06651 0,0 z m -33.62421,-0.57448 c -0.56366,-1.30876 -0.63472,0.85779 0,0 z m 14.0703,-1.17583 c 1.74933,-0.76639 0.63533,-3.61471 -0.71612,-1.77022 -1.0975,0.0966 -2.1725,4.24626 -0.72561,2.88204 0.50887,-0.33159 0.98901,-0.70722 1.44173,-1.11182 z m -15.56616,0.64094 c -0.73766,-1.473 -0.0831,1.56069 0,0 z m 36.13233,-0.0727 c 0.95879,-2.27133 -2.7182,1.39445 -0.34739,0.32629 z M 129.75657,204.214 c 0.83854,-1.99947 -2.17888,-0.20674 -0.44491,0.89601 -0.5397,1.135 -1.66099,1.84607 -0.23082,2.96829 0.53794,0.12591 0.47223,-2.99083 0.67573,-3.8643 z m -16.85874,0.68051 c 0.17397,-1.932 -1.16159,-2.17876 -1.36859,-0.17181 1.14033,-0.39298 1.09368,3.06885 1.54391,2.68779 0.14342,-0.83876 -0.005,-1.6927 -0.17532,-2.51598 z m 6.50706,1.71464 c -0.78067,-0.542 -1.32064,2.10396 -0.15066,0.29829 l 0.15066,-0.29835 z m 7.2128,-0.17432 c 1.43215,-2.12726 -2.61963,-0.75712 -0.50176,0.37291 z m 6.94009,-0.004 c -0.44798,-0.17991 0.16379,1.0664 0,0 z m 13.563,-0.39741 c 0.95572,-1.83709 -1.38761,1.79385 0,0 z m -27.21263,-0.38696 c -0.60132,-0.74669 -0.75386,1.17846 0,0 z m -0.74404,-1.22467 c -0.30843,-1.94579 -0.88578,1.37996 -0.0749,0.37685 z m 22.64082,0.0451 c -0.44795,-0.18014 0.16366,1.06653 0,0 z m -13.65279,-0.009 c -0.83268,-1.0722 -0.17722,0.97653 0,0 z m 18.97377,-0.62733 c 0.99914,-1.19281 1.3261,-4.75033 0.0421,-1.56023 -0.39931,0.45369 -0.89195,3.92325 -0.0421,1.56023 z m -33.47081,-5.02735 c -2.27109,-0.60892 -2.69233,1.36332 -1.23655,2.62702 0.34631,0.46142 0.93955,3.41984 0.9477,1.53427 0.10964,-1.38505 0.30626,-2.77148 0.28885,-4.16129 z m 6.51084,3.90636 c -0.96565,-0.47808 -0.30068,1.90558 0,0 z m 7.33437,0.41765 c -0.29803,-1.2277 -2.28614,-1.86636 -1.34558,-0.2962 0.38375,-0.18771 1.57129,1.50343 1.34558,0.2962 z m 26.10417,0.49784 c -0.5815,-3.53131 -0.70163,0.98433 0,0 z m -25.06136,-0.92836 c 0.11666,-3.01166 -2.51505,-0.93288 -0.19457,0.21493 z m 1.26846,-1.16953 c 0.53914,-1.46856 0.451,-3.08027 0.62675,-4.62216 -1.64416,0.31704 -4.54255,-0.24035 -4.49848,2.15943 -0.96292,1.5472 1.5196,1.91074 1.15698,0.89508 -1.49717,-0.76704 2.62745,-1.26378 2.38032,-0.67806 -0.80751,0.41393 -0.93907,2.85518 0.33443,2.24571 z m 19.66994,-1.43745 c 0.70263,-2.138 0.57375,-4.6717 -2.38631,-2.92712 -0.29307,1.0367 -0.34269,4.12931 0.43555,1.55104 1.12128,-0.22795 2.24142,5.00813 1.95076,1.37608 z m 5.00635,-0.96358 c 0.69237,-3.09245 -3.1489,0.69917 -0.57923,1.10188 0.34227,-0.27296 0.48544,-0.69536 0.57923,-1.10188 z m -12.4069,-1.14992 c -0.44797,-0.18013 0.16377,1.06648 0,0 z m -6.95745,-0.29642 c -1.41402,-2.10779 -1.63862,2.11482 0,0 z m 18.611,-0.72021 c -0.31302,-0.9682 -0.9624,1.17662 0,0 z m -37.14705,-0.39102 c 2.41619,-0.70359 1.07748,-4.88976 1.48072,-7.05856 -0.70322,-2.62001 0.42425,-5.23316 0.9514,-7.8364 1.15393,-4.31717 1.46037,-8.81865 2.86035,-13.07107 0.20417,-3.50806 -0.56044,-7.02832 -0.12161,-10.54923 0.20294,-4.39138 0.75915,-8.7848 0.65396,-13.17988 -0.35259,-2.47143 0.69556,-5.11186 0.64628,-7.67944 0.28393,-6.57015 0.6901,-13.1381 1.57625,-19.65845 0.33868,-7.26552 0.61932,-14.56882 0.107,-21.830064 -0.51218,-1.81489 -0.49391,-2.85418 0.55691,-3.89861 0.35566,-2.74993 -0.40605,-5.75353 0.53637,-8.35128 0.71443,-0.38761 -1.38125,-0.56364 0.19278,-1.34547 0.9477,-0.68498 0.61019,-5.62784 1.19194,-2.31122 0.11449,2.98336 -1.05056,5.77607 -0.84697,8.76376 -0.16359,5.38813 -0.25092,10.77816 -0.37154,16.167354 1.00282,1.05588 2.07392,4.07024 3.5707,1.96392 1.29662,-0.66051 0.60748,-1.50393 -0.11269,-2.35019 -0.66735,-1.05844 -3.42417,-4.19001 -1.59717,-3.7845 1.11671,0.86189 3.17787,-1.957304 0.74486,-2.125444 -0.80481,-0.80268 -2.87308,-5.4558 -0.59372,-2.81685 0.87128,0.80023 1.7153,4.698654 3.06558,2.85657 1.15685,-1.01097 -1.3594,-2.3729 -1.48831,-3.55987 -0.94445,-0.87693 -2.2261,-4.81058 -0.23995,-2.32913 0.47406,0.8114 1.34511,-1.09508 1.98866,-1.444 1.09247,-0.41347 2.74301,-5.07232 2.79413,-2.3441 -0.57422,2.46483 -4.79578,3.55749 -3.95756,6.09482 0.64388,1.77947 2.45929,3.61786 3.2132,0.79495 0.19723,-1.22983 1.40295,-2.72313 1.06456,-0.53578 -0.53969,1.54377 -1.75585,2.74648 -2.12248,4.19038 -1.82068,-0.69815 -1.41714,1.213044 -0.21727,1.876034 0.73375,0.50875 2.69176,-0.66741 1.68513,1.30862 0.32692,0.67606 0.77364,2.35128 -0.54284,1.02764 -0.51746,0.69086 -2.73842,2.08674 -1.74595,2.97862 1.17219,0.7242 4.01055,4.90346 1.61976,3.42141 0.12705,-1.13434 -2.52772,1.46577 -1.17418,2.03087 1.22524,1.47104 2.84492,2.80091 1.1148,4.39826 -1.97021,0.96388 -0.10251,4.06104 0.60317,3.94639 1.38764,-7.09112 1.59262,-14.3316 1.78625,-21.530934 0.46058,-3.82948 0.39513,-7.71082 0.91568,-11.52731 1.35375,-1.78369 -0.30087,-5.79351 1.72316,-6.44329 1.54062,2.21469 -1.07111,5.15107 -0.72761,7.76666 -1.00655,10.70538 -0.73037,21.532814 -2.66819,32.142114 -0.77672,10.11906 -2.48891,20.1283 -3.93247,30.16307 0.27549,2.80436 -0.95636,5.22068 -1.33138,7.97087 -1.03658,5.36799 -2.71742,10.65009 -2.98432,16.13836 -0.78548,2.7027 -1.88691,5.57438 -1.41713,8.40016 -0.95902,1.77222 -1.24517,4.45328 -1.22687,6.8846 0.46673,1.73491 -0.91589,4.15469 -0.7605,5.06126 3.18536,0.31447 2.48835,-3.93364 3.32459,-5.98772 2.15543,-8.1887 4.3276,-16.37272 6.23677,-24.62414 0.88114,-2.85459 1.17569,-5.98306 2.00311,-8.72863 2.34167,-8.56462 3.6077,-17.38512 5.14572,-26.12067 1.63378,-10.28732 3.40628,-20.61157 3.37274,-31.061984 0.13996,-5.34324 0.0417,-10.71489 0.73377,-16.02039 -0.35357,-1.55465 -0.44069,-4.80363 -2.10404,-2.13467 -1.02045,-1.26515 1.86769,-2.08042 0.774,-3.83959 -0.56843,-1.83936 0.38743,-2.8569 1.86683,-1.64276 0.28703,2.50236 -0.71763,5.31009 0.78398,7.49535 1.0339,1.15563 1.72379,2.44401 2.72304,0.48221 1.11954,-2.36638 1.25233,0.99502 -0.34723,1.49386 -0.82947,1.26193 0.35447,1.61413 1.14665,0.81852 0.115,3.69918 0.93379,-1.38723 1.06012,-2.5732 -0.31397,-1.1959 1.20782,-3.82487 1.12282,-1.16223 -1.49703,7.42102 -1.10011,15.05106 -2.1921,22.528364 -1.06176,8.59885 -3.22083,17.01669 -4.53986,25.57719 -1.89031,9.69111 -3.35448,19.45678 -4.98353,29.19251 -1.79494,8.42282 -4.21227,16.70239 -5.78302,25.17643 -0.76171,3.51443 -1.76338,7.14233 -1.7861,10.69481 1.16076,0.10763 2.59959,0.2618 2.51353,-1.30215 1.67794,-5.92158 4.24015,-11.62568 4.84799,-17.81371 0.59484,-6.46471 2.59199,-12.66125 4.11462,-18.93659 1.9447,-8.9912 4.00877,-17.99101 5.75393,-27.03621 0.25617,-2.81364 1.06034,-5.55023 1.34222,-8.39329 0.58982,-3.63519 0.88556,-7.3117 1.00246,-10.98923 0.9357,-3.50459 1.3002,-7.1673 2.19384,-10.700264 1.14116,-4.82547 1.89796,-9.74245 3.14972,-14.53599 1.1425,-1.75991 0.13882,-5.00816 1.45811,-6.11149 0.5265,1.5357 -1.07683,6.98521 1.99554,4.759 1.74668,-0.81811 -1.91712,-1.70765 -1.2221,-3.1416 1.147,-0.20029 1.96695,2.58314 2.83739,1.69914 0.73917,-1.42903 2.37308,-1.20043 0.77045,0.32907 -1.7343,0.88837 0.97065,2.09162 0.59822,3.44165 -1.09464,0.42366 -1.4772,3.15502 -0.58724,2.77106 0.86351,-2.56357 2.25788,-5.38745 1.36043,-8.09506 -1.19616,-1.98788 0.87805,-2.03812 1.00294,-0.0261 1.16637,0.37182 1.75447,-2.38887 3.15633,-2.43898 0.0155,-1.10397 -0.34108,-5.98772 1.42757,-4.16533 -0.99763,1.56293 0.78349,5.02649 -2.00345,5.46893 -2.56652,1.98931 -2.63414,4.92195 -3.6292,7.78904 -1.3132,2.86638 -1.24908,6.02205 -2.47028,8.81739 -2.11484,6.312534 -2.74907,12.965264 -4.22825,19.427334 -2.27493,8.47576 -4.92136,16.87186 -6.43158,25.53174 -1.62676,6.80069 -4.0179,13.43778 -4.78684,20.4235 -0.23273,2.78764 -1.41468,5.48285 -1.32289,8.26188 -1.10501,2.66311 -1.31562,5.65715 -2.25051,8.41433 -1.4603,5.17856 -3.55715,10.1976 -4.51877,15.50548 2.07011,1.50732 2.28103,-3.52217 3.45643,-4.84277 2.08882,-4.50384 4.07219,-9.12601 4.94471,-14.03507 -0.18979,-2.16734 1.06736,-4.791 1.60221,-7.12055 1.15772,-2.49272 0.102,-4.3217 1.58781,-6.31423 0.9341,-2.37599 0.47624,-5.08183 1.49685,-7.22917 1.07569,-4.13768 2.65513,-8.1448 3.53941,-12.32461 1.98491,-7.18828 3.91328,-14.40852 5.35208,-21.73413 1.18775,-5.60487 3.22584,-10.96982 4.95196,-16.40686 0.36152,-2.37216 0.93028,-4.860294 1.78403,-7.197174 1.18578,-3.79296 1.97471,-7.72803 3.57678,-11.37529 0.19856,-2.82665 0.38477,-5.69091 0.30729,-8.52513 -0.71771,-0.96281 -0.45021,-5.21976 0.45881,-2.2468 0.81226,2.7167 0.49135,5.34696 0.2476,8.05785 0.23346,0.53954 0.48783,4.80787 1.29811,3.09553 0.21516,-0.99925 1.99492,-3.9211 1.54465,-1.29884 -1.66891,2.49103 -0.92697,5.30057 -2.61989,7.77732 -0.44693,0.91657 -3.41711,1.70294 -1.4153,-0.28085 0.0705,-1.43056 -0.88514,-3.00196 -0.96174,-0.76533 -1.1001,1.48651 -0.26162,3.04926 0.46449,3.89007 0.27088,-0.92472 1.52181,-3.00402 1.55039,-0.99423 -0.97821,0.41817 -1.56895,3.85701 -0.54378,2.96051 2.21159,-4.84968 4.04287,-9.96836 4.75198,-15.26761 -0.43398,-2.87756 2.40065,-4.80983 1.9925,-7.76744 0.50424,-2.88184 1.62794,1.66243 0.57271,2.5824 -1.0915,2.72363 -1.87419,5.38561 -2.18401,8.30326 -0.55491,3.36731 -1.80962,6.52338 -3.12904,9.65075 -2.18094,5.52878 -4.41219,11.055904 -5.78071,16.853954 -2.2909,7.35432 -3.96869,14.87357 -5.4009,22.43637 -2.43752,10.52971 -5.55095,20.88801 -8.1674,31.37374 -1.84603,6.98839 -3.95111,13.93539 -7.04964,20.48323 -1.52654,2.12334 -1.57115,7.03431 -3.9477,7.62264 -0.40033,-2.42857 -3.00507,1.09444 -1.36389,1.14253 1.99944,-0.39769 5.08487,1.0462 6.142,-1.2296 4.47059,-9.79378 8.85084,-19.74435 11.75073,-30.11009 1.36955,-3.59334 1.79108,-7.51417 2.65318,-11.26708 1.77117,-8.19562 3.05758,-16.51002 5.37635,-24.57658 2.7396,-8.63411 5.39305,-17.30316 7.39964,-26.14186 1.86648,-6.166504 3.85903,-12.294684 5.33676,-18.569984 0.81342,-2.53396 1.06747,-5.43453 2.6929,-7.58847 1.26233,1.76577 -2.68038,4.87718 -0.10572,6.70277 0.98728,0.1532 1.88181,-2.52536 3.20868,-2.10174 -0.78357,1.58308 -3.98377,2.56653 -1.67249,4.65646 1.06648,1.60599 -3.93984,3.53542 -1.4846,4.14081 2.16671,-3.38035 4.1649,-7.05739 4.21751,-11.18243 0.1963,-2.16299 0.86636,-4.5294 -2.16163,-4.08039 -3.29606,0.0776 -6.52681,-0.77462 -9.76198,-0.84073 -2.23833,0.84593 -0.26447,4.25092 -0.49369,6.14712 1.14171,-1.32371 -0.0304,-4.55605 1.09861,-5.25092 0.73775,2.59923 -0.10866,5.35426 -0.44349,7.91858 -1.99935,-1.20665 -1.82849,-4.55834 -2.03718,-6.77707 0.49033,-1.62222 -1.13909,-2.02901 -2.47431,-1.78992 -2.83202,-1.44482 -5.83988,0.39718 -8.8068,0.3022 -2.24745,0.48101 -4.37854,-0.18237 -6.79613,0.12503 -2.89794,-0.38965 -5.68744,0.94546 -8.49157,-0.0448 -2.79861,0.16864 -5.44522,-2.71581 -8.0215,-0.86399 -3.21127,0.6614 -6.65089,-0.3231 -9.78136,0.75631 -0.99331,2.18629 -1.55704,4.19082 -2.03244,6.81719 0.0672,2.99227 -6.30387,-1.19279 -2.62332,-0.3255 2.80152,1.51067 0.2833,-1.87284 2.00498,-2.54704 0.15159,-1.41533 2.55739,-3.18734 0.63581,-4.2182 -0.31783,0.764 -0.53603,3.94176 -0.9894,1.43276 0.71578,-1.56174 -4.08521,-2.18848 -2.50039,-0.82298 1.19118,1.1366 0.1386,4.30632 -0.24522,1.26321 -0.24302,-1.73212 -3.4526,-2.37332 -4.253,-1.71113 0.26019,1.03826 -0.21865,3.89479 -0.72745,1.36317 0.4643,-2.54623 -1.79522,-1.22989 -1.33723,0.58859 -0.43604,2.79697 -0.79379,5.79296 0.66907,8.37085 1.65116,5.51991 1.66164,11.34385 2.52552,17.0074 0.25601,2.300894 0.26021,4.615884 0.24176,6.927414 -1.40657,-0.78839 -1.34761,0.31795 -1.25431,1.46867 -0.0466,5.66085 -0.94046,11.27167 -1.35147,16.91082 -0.51708,3.94638 -0.84684,7.92044 -1.24375,11.86473 -0.40122,14.05038 -0.0519,28.11903 -0.66627,42.16172 -0.49978,2.65029 0.50053,5.39122 -0.23877,7.8739 -0.0131,3.05151 -0.31899,6.17172 0.13621,9.18373 0.56064,0.69393 1.23128,0.12046 1.8937,0.25063 z M 172.00754,84.134706 c 0.0167,-1.82142 1.31844,0.70711 0,0 z m 0.0103,-2.49667 c 0.0167,-1.82148 1.31843,0.70715 0,0 z m 5.32195,-0.59162 c 1.42964,-2.16855 2.28787,-4.638 2.45879,-7.2416 1.72518,-1.01835 0.4153,3.53481 -0.0329,4.44818 -0.34916,0.71314 -1.42706,3.73915 -2.42592,2.79342 z m -55.99499,-0.62713 c -2.77075,-0.92988 -1.19897,-4.70762 -2.40841,-6.47826 0.53691,-2.68381 3.30972,1.01182 1.54155,1.58816 -0.87381,2.15976 1.29645,3.92524 1.99674,5.00295 -0.37805,0.0777 -0.7642,-0.0304 -1.12988,-0.11279 z m 26.25385,-0.64425 c -1.27183,-0.90609 -2.51923,-4.32449 -1.17056,-4.92991 0.0917,1.62609 1.22918,5.30555 2.82708,4.71861 -0.63569,-1.64152 0.43438,-3.52779 -0.4105,-4.89234 2.08924,0.36019 0.92666,4.25369 0.8653,5.70883 -0.8192,0.54078 -1.58342,0.0467 -2.11132,-0.60519 z m -30.25574,-0.3665 c -0.96738,-0.92233 -0.30486,-4.86739 0.55276,-2.21882 0.01,0.57546 0.91689,3.99341 -0.55276,2.21882 z m 20.20299,0.467 c 0.12909,-1.23193 -1.08238,-4.80192 0.32294,-4.67957 0.46477,1.05984 1.14268,4.82182 -0.32294,4.67957 z m -6.42095,-0.67839 c -0.32253,-1.28638 0.13601,-6.40769 0.94973,-2.7203 -0.51638,0.7386 1.2602,5.48979 -0.94973,2.7203 z m 22.00188,0.57625 c 1.28185,-1.79937 -0.01,-5.21659 1.40145,-6.42546 -0.13429,1.64225 0.86646,6.83966 -1.40145,6.42546 z m -18.46073,-0.60066 c 0.105,-0.92675 -1.68451,-4.80889 0.15293,-3.46249 0.50914,0.29393 1.09889,4.94822 -0.15293,3.46249 z m -6.08836,-0.23544 c -0.6951,-1.11325 0.0712,-5.39164 0.79571,-2.25154 -0.0794,0.53717 0.47665,3.1158 -0.79571,2.25154 z m 11.98335,-0.94999 c -0.73442,-1.22082 0.45389,-5.1144 0.60896,-1.87618 0.2968,0.86825 0.23342,4.34154 -0.60896,1.87618 z m 42.62016,-0.55925 c -0.38916,-1.82411 1.2532,-2.12779 1.00388,-0.0961 0.0398,1.95802 -1.41377,2.51822 -1.00388,0.0961 z m -22.83318,0.14037 c -0.95536,-1.30847 1.41586,-5.01299 0.86576,-2.009 -0.60908,3.12262 1.60301,-0.79582 0.59548,-1.54483 2.91947,-0.68139 -0.71681,5.65236 -1.46124,3.55383 z m 5.99485,0.52368 c 0.53843,-1.5224 -0.75641,-3.50982 -0.81275,-0.8536 -1.60481,2.29368 -0.7071,-2.4399 -0.27536,-2.87115 1.24174,1.87355 0.91491,-2.55219 1.67226,0.31466 0.0147,0.79638 0.80371,4.00404 -0.58415,3.41009 z m -14.59421,-0.44103 c -0.46988,-1.19985 0.77031,-6.06801 1.0374,-2.51186 -0.25959,0.48869 -0.14971,3.60985 -1.0374,2.51186 z m 3.81672,-0.32197 c -0.47462,-1.06906 -0.23884,-6.17084 0.66103,-2.65044 0.0616,0.72977 0.38488,2.63324 -0.66103,2.65044 z m 2.98259,-0.76665 c -0.70836,-1.60315 0.42699,-2.82741 0.75193,-0.55816 0.36647,1.04513 -0.34107,2.46158 -0.75193,0.55816 z m -3.00271,119.116094 c 0.58673,-0.36483 0.41941,-2.34866 1.40154,-0.88556 0.45684,-1.74426 1.59456,-3.34189 1.1068,-5.12712 1.63357,1.30873 1.36046,-2.63516 0.21322,-0.31544 -2.01525,1.75451 -2.74792,4.47171 -3.4133,6.96056 0.13549,1.3556 0.14547,-0.97594 0.69174,-0.63244 z m -44.58474,-0.0289 c 0.007,-0.94605 2.78461,1.92454 2.49796,-0.30329 0.40772,-1.21415 -1.26236,-4.28134 -1.6062,-1.68609 -1.28158,-0.99512 -0.27358,-4.77088 -0.66474,-6.76233 -0.13234,-4.04236 0.0644,-8.12369 -0.42568,-12.138 0.20141,-2.20775 1.11108,0.35256 1.24258,0.91976 1.17891,-0.0998 1.72122,4.31917 1.96326,2.32975 -0.28667,-2.36073 -1.32364,-5.3018 -3.65131,-6.31617 0.0571,-5.32952 -0.10489,-10.68614 -0.17888,-16.02252 0.91349,-2.02765 0.74416,2.51289 0.73739,3.34665 0.12978,1.84609 2.14201,3.0841 3.58791,4.22407 -0.004,-2.1166 0.26641,-4.25348 -0.0248,-6.35396 -0.81937,-1.50923 -3.02515,-4.57729 -1.95693,-5.71217 0.62367,0.66755 1.6943,4.48605 1.8597,3.68027 0.13657,-2.1682 -1.05829,-3.93381 -2.43931,-5.49075 -0.39777,-2.27787 2.00012,2.0128 2.12766,1.31462 0.5203,-2.2821 -0.6079,-4.04773 -2.23237,-5.58542 -0.8817,0.75306 -0.0478,5.01893 -0.33973,6.98497 -0.42057,3.38729 -0.90792,-1.83746 -0.64192,-2.7507 0.13743,-3.30283 0.24238,-6.65841 1.01552,-9.88003 1.64349,0.29169 -1.32521,4.30729 0.72058,5.2889 0.43945,0.91188 2.07485,3.199 1.56108,0.84875 0.11926,-1.18047 -2.94723,-5.14154 -0.37408,-3.34044 0.81442,1.81794 0.70969,0.3904 0.68738,-0.78624 0.7226,-2.10364 -1.93036,-3.92486 -1.59211,-5.43789 1.20941,0.14982 1.6828,2.59658 1.7585,0.31593 0.0642,-2.79094 1.05639,-6.10416 -1.12069,-8.35244 -0.57156,-3.09815 2.37775,3.18802 2.06411,-0.23944 1.2069,-2.75139 -1.46845,-4.71256 -1.89712,-6.92419 1.21954,0.23172 2.4682,3.4492 2.47678,0.3343 1.15726,-3.06772 -2.27686,-4.53652 -2.8894,-7.24414 0.97837,-1.49977 1.73505,2.44255 2.75559,3.25275 0.63024,-0.61804 0.89464,-4.28266 -0.29912,-5.57596 -0.22445,-1.49476 -3.50185,-3.0947 -2.18474,-4.25761 1.19366,0.71314 2.24105,4.14159 3.2254,3.87842 0.53998,-2.48195 0.54775,-5.31747 -1.35382,-7.2546 -0.4982,-1.08424 -3.84508,-3.51934 -2.1253,-3.82912 1.3028,1.02797 2.51156,4.59913 3.86316,4.25139 1.16688,-2.90522 -1.27886,-4.801134 -2.78329,-6.914264 -0.94472,-0.53119 -2.43675,-3.59272 -0.5738,-1.94098 0.87445,1.03048 2.54456,4.04496 3.34465,3.79753 -0.0436,-2.76559 0.1721,-5.55046 -0.15404,-8.29991 -0.73101,-1.32716 -2.13043,-3.707 -3.82166,-3.38921 -0.81035,1.85479 1.67257,2.12349 1.76761,4.09978 0.61757,0.66788 2.76963,4.6799 0.72625,2.56156 -0.84441,-1.29964 -2.0606,-3.83398 -2.98949,-4.37126 -0.40689,4.98387 -0.35857,9.977 -0.092,14.965354 -0.13062,2.82784 0.50241,5.92146 -0.2381,8.58866 -1.35489,-1.52919 -0.34815,-4.90173 -0.73855,-7.08114 -0.0957,-6.566214 -0.21549,-13.151344 0.52636,-19.686254 0.18021,-4.48054 0.43829,-8.9763 0.21298,-13.45737 -0.94923,-1.78644 -2.84196,0.0686 -1.71019,1.62824 -0.77842,1.21061 -1.42525,-3.29873 -2.01152,-2.339 0.95055,4.13618 0.5778,8.45631 0.79495,12.6715 0.22375,4.81502 -1.02163,9.52661 -1.06609,14.33508 -0.22962,4.403524 -0.94985,8.795324 -0.39719,13.204364 0.15006,11.43991 -0.56061,22.89316 -0.002,34.32619 0.46519,2.71111 0.0622,5.46496 -0.0162,8.17178 0.59552,3.14294 0.23356,6.44606 0.36415,9.64992 -0.0685,9.83968 0.41884,19.67007 0.83923,29.4966 -0.43661,1.17664 1.28848,2.66879 1.8721,1.2558 z m 1.45276,-34.93643 c -1.08857,-0.78933 -1.44122,-3.13277 0.074,-1.09358 1.24797,0.98221 2.15429,3.85145 -0.074,1.09358 z m 1.03944,-1.04681 c -0.48457,-0.76899 -2.83701,-4.88992 -1.10195,-3.66597 0.20892,0.73587 2.58439,3.84292 1.10195,3.66597 z m -1.95909,-22.49184 c -0.51771,-4.04935 -0.20645,-8.18955 -0.17959,-12.27208 0.85544,-3.06722 0.8108,3.21819 0.72839,4.2236 -0.29241,2.43412 0.47164,6.70523 -0.54881,8.04848 z m 0.56715,-15.23598 c -0.19551,-2.70717 -0.71939,-5.49593 -0.31495,-8.17801 1.32944,2.33149 0.48197,5.75659 1.11722,8.48945 0.45983,1.58855 -0.59536,3.3152 -0.67807,0.6827 l -0.0638,-0.47983 z M 110.4229,80.401606 c -0.40395,-1.11415 -0.2652,-5.51236 0.79503,-2.55098 0.16631,0.71203 0.36324,5.20639 -0.79503,2.55098 z m 9.02802,114.881264 c 1.39238,-0.89419 0.74383,-3.45032 -0.49543,-1.22438 -0.54909,0.25164 -0.26369,2.86928 0.49543,1.22438 z m 3.11817,-5.76548 c 0.91933,-1.24493 -1.16073,-4.12659 -0.63298,-1.26722 -0.66183,1.20766 -0.4159,2.53243 -0.46877,3.68772 -1.39066,-0.87478 -1.12301,1.26022 -0.0288,1.36027 -0.23218,1.73946 0.64759,2.35426 0.57272,0.14939 0.13845,-1.316 0.31858,-2.62856 0.55786,-3.93016 z m 17.60463,5.75156 c -0.73858,-0.87066 -3.85209,0.31935 -0.91604,0.22039 l 0.36449,-0.0432 0.55155,-0.1765 z m 4.55614,0.0914 c -2.15114,-0.15035 -0.99289,0.2659 0,0 z m 8.30175,-0.0397 c -0.0723,-0.88317 -1.10865,0.88791 0,0 z m -23.7174,-0.34604 c -1.59828,-1.0498 -0.57619,1.0996 0,0 z m 7.61424,0.18255 c -0.82526,-0.8811 -1.11341,0.46549 0,0 z m -9.30318,-0.68829 c 2.01672,-0.84421 0.75512,-0.91714 -0.42774,-1.06815 1.73407,-1.23019 -1.04893,-2.22855 -0.7966,-0.0367 -0.58809,1.36881 -0.16043,2.19997 1.22434,1.10483 z m 3.06527,-0.26777 c -0.69249,-2.09031 -0.76002,2.50394 0,0 z m 4.59057,0.4033 c 0.69082,-3.17214 -1.45389,1.72002 0,0 z m 12.88291,-1.48765 c -0.72629,-1.39509 -1.09222,2.87025 0,0 z m 2.21738,0.19798 c -0.37482,-1.94953 -1.72606,1.75926 0.13833,0.45054 z m 2.28073,-1.11598 c -0.11187,-2.74261 -2.48179,-0.004 -0.57181,1.03356 0.59062,0.52507 0.55614,-0.78044 0.57181,-1.03356 z m 1.62131,0.89793 c 2.07366,-4.03545 5.68767,-7.18716 6.90255,-11.68144 3.08056,-9.27066 6.9514,-18.26147 9.84611,-27.59841 1.852,-4.69249 2.65297,-9.6981 4.41687,-14.42147 0.84319,-3.46493 1.84788,-6.88661 2.83086,-10.31821 0.78039,-4.53448 2.54396,-8.83561 3.43067,-13.35755 1.30155,-5.83367 2.79949,-11.64556 3.57579,-17.578654 -0.22346,-2.68927 1.10588,-5.24455 1.43502,-7.90481 0.0202,-2.92731 0.758,-5.78826 1.71238,-8.53274 0.65034,-2.05016 -2.34793,0.52843 -1.15636,-1.59029 0.11604,-0.96189 0.66039,-5.45864 1.31466,-3.05245 -0.63682,1.24679 0.10719,5.03524 0.60072,1.83252 0.40674,-1.69616 0.34711,-3.4604 0.47371,-5.19273 -2.99762,-1.74853 -2.29171,1.98519 -2.65987,3.91908 -0.12636,4.24636 -2.36982,7.90561 -4.40415,11.48086 -3.40249,6.14448 -4.68225,13.099174 -5.98196,19.915534 -1.89268,8.65631 -3.84961,17.30208 -6.36922,25.80315 -2.50855,8.58162 -3.85277,17.43701 -5.94461,26.11533 -2.7366,9.98868 -5.67992,19.9465 -9.39615,29.61848 -0.19416,0.47601 -2.56957,4.13133 -0.62702,2.5438 z m -35.09592,-0.59701 c 0.18005,-1.97965 -1.11257,1.93086 -1e-5,-7e-5 z m 11.78684,-0.95938 c 0.72286,-1.21935 -1.31149,-4.97691 -1.21461,-2.1283 -1.56015,1.54682 0.56532,2.10257 0.91571,3.67413 0.17505,-0.49856 0.22238,-1.02711 0.2989,-1.54583 z m 5.08861,1.21369 c -1.60595,-1.29369 0.94194,1.50163 0,0 z m 13.52412,-0.57697 c -0.92822,-3.75447 -1.56672,1.55997 0,0 z m -6.37788,-2.42033 c -0.52215,-1.3071 -2.09187,2.86027 -0.86038,2.33912 0.24448,-0.79412 0.48367,-1.59532 0.86038,-2.33912 z m -30.37612,1.21914 c -0.97513,-1.00677 -0.72151,-3.57797 0.46924,-1.25277 0.57813,-2.32929 -0.88703,-5.29833 -1.4424,-7.73014 1.2603,-0.3391 1.84825,3.62687 1.46086,0.75868 -0.76978,-0.96594 -1.57725,-4.63134 0.0706,-1.9622 0.43877,0.21223 -1.78542,-6.69121 -1.84578,-3.15048 0.0516,4.50172 -0.12835,9.07258 0.56585,13.52123 0.67314,0.29559 1.40865,1.30605 0.72159,-0.18432 z m 15.87064,0.62626 c -1.3392,-1.2271 0.55102,1.27983 0,0 z m -8.72088,-0.90066 c 0.36794,-0.42288 -0.65223,-3.52957 -0.76118,-1.501 -0.5045,0.58286 1.13635,3.1921 0.76118,1.501 z m 34.2856,-1.49215 c 0.23493,-1.76001 -1.92919,-1.94144 -1.88539,-0.33286 1.88012,-0.585 1.36004,0.54427 0.5996,1.75549 0.021,2.63825 1.31064,-0.93893 1.28579,-1.42263 z m -26.93434,1.51339 c -0.007,-1.00454 -0.90419,0.93193 0,0 z m 24.42751,-0.79803 c -1.09196,-1.3426 -1.32318,2.59966 -0.0466,0.37447 l 0.0466,-0.37463 z m -14.81265,0.18236 c -0.64837,-1.66571 -0.33987,1.9047 -1e-5,0 z m -8.54533,-1.45802 c 1.66375,-1.70743 0.3652,-2.11735 -0.76139,-0.45395 -0.80642,1.36781 -0.13721,1.43589 0.76139,0.45395 z m 9.55072,-0.19263 c -0.59218,-1.09702 -0.59505,2.02757 0,0 z m 12.98131,0.39816 c -1.53931,-2.01729 -1.36537,1.34865 0,0 z m -29.96055,-0.0103 c 1.08274,-1.92041 -1.39043,0.30531 0,0 z m 11.50901,-4.65601 c 0.59699,-1.37131 0.99184,-6.19635 -1.18166,-3.32606 -2.26777,1.44646 0.0538,-1.37957 0.92635,-1.93303 -1.56933,-3.11403 -2.7454,1.19266 -2.93417,2.87807 -0.90639,1.35384 0.64593,3.03538 0.24699,0.59474 0.82943,0.72621 2.02377,-0.99897 2.68003,-0.35816 -1.10697,1.214 -1.45743,1.98423 -0.76522,3.38965 -1.01054,0.68251 -0.15799,2.27125 -0.11926,2.93091 0.67051,-1.28294 0.79663,-2.78539 1.14694,-4.17612 z m 11.4646,3.71554 c -1.39269,-1.4413 -1.23807,1.92697 0,0 z m 10.71273,-0.61381 c -1.35755,-1.2142 0.83924,2.46005 0,0 z m -33.20483,-1.45086 c 0.90914,-2.25823 -2.71964,1.57706 -1.0771,-1.10585 1.60283,-1.60617 -0.94589,-2.62301 -0.65924,-0.1473 -0.50663,1.50905 -0.28308,4.82378 1.36773,1.99785 l 0.22799,-0.39425 z m 31.51604,0.6731 c -2.40958,-0.20525 -0.8315,2.6925 0,0 z m -14.26602,0.19904 c -0.593,-2.20165 -0.80678,0.7016 -1e-5,0 z m 21.97621,-0.31851 c 0.55455,-0.84135 1.83923,-3.06361 1.24798,-3.45592 -0.50618,0.45069 -2.89513,6.02403 -1.24798,3.45592 z m -32.20692,-0.17468 c -0.68007,-0.87201 -0.52295,1.23602 0,0 z m 15.1038,0.32625 c -0.15509,-0.82624 -0.94578,0.85162 0,0 z m 12.35182,-1.41136 c 0.87721,-0.97329 0.17649,-3.76463 -0.37405,-1.39589 0.24692,1.5597 -0.23485,2.022 -1.38499,1.36358 0.49402,1.76296 1.26152,2.31955 1.75904,0.0323 z m -32.69877,1.09374 c -0.40841,-0.75103 -1.34802,-3.96398 -0.98234,-1.41533 0.1034,0.22638 0.70295,2.29483 0.98234,1.41533 z m 28.71334,-0.27256 c 0.28837,-2.65226 -1.73269,1.21089 0,-2e-5 z m 1.99627,0.27253 c -0.7343,-1.02717 -0.56881,0.57264 0,0 z m -8.90923,-0.68966 c -0.36109,-1.65773 -1.32776,1.72978 0,0 z m -15.80973,-0.18057 c -1.22923,-1.31307 0.47657,1.49297 0,0 z m 16.90271,-3.35002 c -1.69639,-0.4698 -0.94543,4.14609 -0.43184,1.78167 0.18952,-0.55524 0.72923,-1.2146 0.43184,-1.78167 z m 7.94698,2.33639 c -0.45311,-0.47031 -0.83119,0.76067 -2e-5,1.3e-4 z m -30.30395,-1.77065 c 0.4731,-1.69419 -1.76389,-3.57254 -0.81227,-0.83316 -0.50139,1.41619 0.78013,3.46081 0.81228,0.83311 z m 29.05836,1.012 c 1.46925,0.20969 -0.49092,-3.05078 -0.70911,-0.36682 -0.36919,1.74859 0.0246,-0.10277 0.70911,0.36682 z m -31.20129,-1.37344 c -0.81027,-1.35931 0.28945,1.9179 0,0 z m 18.30604,-0.69267 c -1.01402,0.82534 -1.22343,1.98695 -0.10489,0.34388 z m 15.35253,0.50084 c 1.62819,-1.97722 -2.99685,0.94103 -1e-5,1.2e-4 z m -34.45634,-1.31863 c 0.4663,-0.39932 2.55274,-1.99524 0.56833,-2.24376 -1.25932,-0.35693 -1.429,5.2788 -0.56833,2.24376 z m 36.52681,0.0834 c 1.04254,-1.58348 -2.0599,-3.82733 -0.26542,-1.36467 0.20748,0.9942 -2.1037,1.35225 -0.16752,2.23692 0.25724,-0.22566 0.30595,-0.57608 0.43294,-0.87225 z m -3.18542,0.0528 c 2.44295,-2.425 -2.77042,0.29049 -0.58401,0.32992 l 0.26301,-0.1414 z m -14.73298,-0.43255 c -0.56739,0.16366 -0.47372,1.36507 0,0 z M 124.2556,180.2915 c 0.0669,-1.16281 -2.15911,-4.8856 -1.45801,-2.19878 0.47378,0.38063 0.82172,2.78218 1.45801,2.19878 z m 22.97019,-0.0992 c -0.79475,-1.45846 -0.77809,1.42576 0,0 z m 8.53823,-0.89327 c -0.91871,-0.35666 0.64189,1.14089 0,0 z m -9.03078,-0.77932 c -1.06332,-0.74578 -0.71819,2.31435 0,0 z m -6.57149,0.22386 c -0.44797,-0.18013 0.16377,1.06651 0,0 z m -15.05794,-2.93685 c 0.42835,-0.88131 -0.19974,-4.70038 -1.13328,-2.51168 -0.82985,1.10939 -0.63787,4.92746 0.63685,4.7869 0.22146,-0.74501 0.34268,-1.51475 0.49643,-2.27522 z m 16.0357,1.8011 c -0.97832,0.61121 0.53624,2.04256 0,0 z m 16.68996,-0.061 c -1.47054,-2.89646 -0.54913,1.57314 0.44613,0.84115 -0.058,-0.31864 -0.24947,-0.59327 -0.44613,-0.84115 z m 5.88268,0.66519 c -0.65118,-1.78338 -0.15943,1.983 0,0 z m -8.9538,-0.0584 c -1.35953,0.054 -0.0462,0.62966 0,0 z m -21.66972,-0.89216 c 0.33757,-3.31068 -2.58138,1.50119 -0.17317,0.555 l 0.17319,-0.555 z m 14.86935,-0.66712 c -0.66805,-1.63424 -1.85303,0.45968 -0.63156,0.85399 0.16239,1.75194 1.30837,-0.0898 0.63156,-0.85399 z m 8.22062,0.77865 c -0.19108,-0.87065 -1.19181,1.03347 -0.17448,0.26283 z m 2.53286,-1.6491 c -1.64549,-1.11181 -0.17297,2.97208 0.0878,1.04613 l 0.095,-0.59666 -0.18274,-0.449 z m -18.22161,0.95649 c 0.53487,-2.33825 -1.66461,1.48927 0,0 z m -18.2313,-0.78627 c -0.33898,-1.11218 -0.56629,2.09889 0,0 z m 12.37106,-1.84009 c 0.0664,-0.9078 0.65987,-3.61125 -0.36582,-3.13707 -0.49552,1.69333 -0.71869,3.47627 -0.42037,5.46723 0.48338,-0.62833 0.53601,-1.58165 0.78619,-2.33016 z m 20.97576,2.30247 c -0.46392,-0.92703 -0.95908,0.83973 0,0 z m -23.74078,-0.63647 c 1.10027,-2.13175 -2.0176,0.83507 -0.31384,0.35827 z m 17.33734,-0.89217 c 1.90706,-2.84112 -3.12633,-1.84438 -1.70272,-0.47042 2.0697,-0.91806 0.31681,3.41579 1.51898,0.99741 l 0.18378,-0.52699 z m 7.06291,0.46611 c -0.74396,-0.39648 0.67425,1.11229 0,0 z m -14.72944,-0.41154 c -0.88287,-0.79177 0.55159,1.61965 0,0 z m -27.71199,-0.26034 c -0.74398,-0.39646 0.67432,1.11227 0,0 z m 43.91245,-0.30415 c -1.30158,-0.24897 -0.79601,2.42999 0,0 z m 1.49271,0.368 c -1.14042,-3.59715 -0.67136,1.8048 0,0 z m -16.90147,-0.64086 c -0.6705,-1.27076 0.18268,1.52217 0,0 z m -29.6635,-2.44498 c -0.74476,-0.95985 -0.92624,-4.79467 0.14698,-1.89882 0.35908,1.04016 1.32301,5.08414 1.39413,1.63023 0.16837,-2.95324 -2.39571,-5.19834 -2.99365,-7.78121 1.29182,0.31939 1.75422,2.73363 2.57509,4.01736 0.63356,1.75892 0.50533,0.12061 0.52304,-0.86702 0.1108,-1.74979 0.75686,-3.40097 -1.55597,-3.70547 -1.18929,-0.72558 -2.28759,-3.38551 -1.91501,-0.71405 0.12096,2.93463 -0.10195,5.91017 0.4087,8.80818 1.22787,0.42079 2.83165,4.84634 1.74604,1.40581 l -0.15376,-0.42431 -0.17567,-0.4707 z m 11.13625,0.0408 c 0.79271,-2.99466 -3.28743,2.05131 -1.26857,2.21639 0.49277,-0.6138 1.36969,-1.37085 1.26857,-2.21639 z m 8.11331,1.56918 c -1.07469,0.23731 -0.31199,1.59794 0.0836,0.10527 z m 9.09784,0.3399 c -0.85205,-1.07345 -0.15871,0.98058 0,0 z m 16.04684,0.16311 c -0.33274,-2.78003 -1.635,0.64161 0,0 z m 2.77002,-0.46117 c -0.0781,-1.37157 -0.74455,1.29063 0,0 z m -17.22454,-2.57731 c -1.15123,-3.3164 -0.44381,2.79258 0.0994,2.12727 0.25015,-0.69311 0.12823,-1.44405 -0.0994,-2.12727 z m 15.745,2.22507 c -0.77598,-2.17543 -1.33318,0.89378 0,0 z m -24.82047,-1.07228 c -1.03036,-0.52628 -0.82183,2.02503 0,1.4e-4 z m 17.52062,-2.85493 c 0.4639,-1.14349 1.4366,-5.18154 0.0742,-2.38417 -0.12046,1.94478 -1.21533,3.81279 -1.48843,5.76472 0.40944,1.67345 1.08537,-2.98174 1.4142,-3.38055 z m 8.30515,3.17717 c 0.0839,-2.51089 -1.61502,0.9172 0,0 z m -25.09371,-2.39932 c -0.62885,-1.85561 -2.02257,-2.13071 -1.96126,0.10336 -0.13883,0.93624 -0.94837,3.02483 0.38844,1.42331 0.54223,-0.48948 1.11267,-0.95539 1.57282,-1.5267 z m 13.74995,1.81692 c -0.68002,-0.87205 -0.52303,1.23607 0,0 z m -6.99131,0.12592 c -0.54928,-0.88139 -0.63341,0.46083 0,0 z m -15.50244,-2.57961 c -0.11401,-2.18683 -1.71662,1.07656 -0.64601,1.74146 0.33642,1.97767 1.02575,-1.44372 0.64601,-1.74146 z m 35.27665,1.05442 c 0.65535,-2.48177 -1.13832,0.20291 -0.61065,1.21382 0.34084,-0.32402 0.44884,-0.79351 0.61065,-1.21382 z m 5.36276,0.42667 c -0.41065,0.20295 0.21554,1.28026 0,0 z m -43.01906,-1.56158 c 0.0567,-0.56847 2.04967,-1.21089 1.00356,-2.14815 -1.27684,0.3911 -2.60009,5.8071 -1.02473,2.77812 l 0.0212,-0.62997 z m 26.33119,1.34936 c -0.12127,-1.61967 -1.93615,1.20682 -0.12354,0.39836 z m 8.28786,-0.89776 c 1.47616,-1.9462 -1.1196,-0.24119 -0.25279,0.76272 l 0.17748,-0.28729 0.0753,-0.47543 z m -14.23163,0.0885 c 0.29449,-1.5982 -2.83809,-3.15382 -0.8979,-1.35836 0.20457,0.26402 0.27496,2.24181 0.8979,1.35836 z m -1.99364,-0.91921 c -0.61838,-1.09647 -0.73718,2.05073 0,0 z m 7.23474,0.47019 c -0.48351,-2.10664 -1.22505,1.52768 0,0 z m 18.69899,-1.58259 c -0.98609,0.28334 -0.86812,3.49399 -0.1007,0.6761 l 0.0725,-0.35591 z m -31.3476,0.58898 c 0.20095,-0.77338 -0.96902,-1.23762 -1.07664,-1.71439 0.056,0.38239 0.97683,4.06781 1.07664,1.71439 z m -9.21194,-3.00934 c 0.33069,-2.0397 1.35284,-4.01225 -0.10722,-5.70128 -0.59079,-1.61946 -1.64598,2.35751 -2.97913,2.15542 -0.0904,-0.90494 2.91317,-3.93395 1.47419,-3.80425 -0.52507,1.06207 -2.57721,2.23452 -1.18501,0.18865 2.52958,-1.63215 -2.54486,-4.40007 0.86932,-5.18339 1.49851,-1.5281 -1.95773,-1.61835 -0.9368,-3.71948 1.96948,-0.4954 -0.50427,-3.3805 1.12744,-3.06402 0.17889,2.54607 3.02213,-0.68416 2.07168,-1.52774 -0.75963,-1.43927 -2.21556,-2.33155 -3.14639,-3.3763 -0.69081,-1.55195 3.87329,-1.61413 2.11312,-3.14401 -1.03139,-0.11795 -2.66904,-1.8164 -1.30002,-2.31514 1.22647,1.15601 2.30574,3.96053 3.51068,1.15584 2.08437,-2.58167 -5.41169,-4.45273 -1.13767,-6.19834 0.76259,-0.76888 2.56272,-1.92305 0.72891,-2.21916 -1.05617,-3.04504 1.1682,-0.14807 1.51771,-0.33139 0.27062,-0.79533 1.52174,-1.67195 0.46792,-2.35747 -0.96695,-1.25932 -1.75267,-2.73169 -3.19924,-1.16476 0.0644,-0.84673 0.72713,-1.77466 0.31645,-2.85161 1.02335,0.82379 1.64846,0.67701 2.35065,-0.64752 -0.8785,-1.77673 -2.72454,-2.92603 -3.62871,-4.64079 -0.70508,3.52037 -0.61167,7.22891 -0.8521,10.82984 0.11114,4.8144 -1.09698,9.51304 -1.28006,14.31489 -0.49822,6.18932 -0.65458,12.39777 -0.89763,18.60038 0.49697,1.06851 1.71117,4.50387 1.98914,1.56513 1.95316,-0.49159 -1.124,4.37322 0.72774,1.83983 1.57112,-2.52734 0.71054,1.18724 -0.28606,1.9278 0.39067,1.18952 0.68236,4.57066 1.24681,1.53606 0.15906,-0.61823 0.29616,-1.2419 0.42428,-1.86719 z m 33.22743,3.26443 c -0.0723,-0.8832 -1.10872,0.88785 0,0 z m -25.75133,-0.25018 c 0.76545,-0.95492 -1.5958,-0.73029 -0.82998,-2.12254 -0.93706,-0.0646 0.0179,2.79759 0.82998,2.12254 z m 15.84076,-0.0898 c 1.21161,-2.15353 -1.87476,1.03834 0,-4e-5 z m 13.1774,-6.82491 c -0.0279,-1.05079 -1.72946,-1.46605 -0.69667,0.281 -0.64624,0.57965 -0.14394,2.56855 -1.25681,1.86537 1.02249,1.3225 0.0283,1.99046 -0.29507,2.60102 -0.37178,1.26133 0.0459,3.30428 0.64531,0.88513 0.56096,-1.86968 1.08169,-3.75155 1.60324,-5.63252 z m -4.03404,6.26167 c 1.03635,-1.14688 -2.755,0.57486 -0.43728,0.0957 l 0.43731,-0.0961 z m -35.95571,-1.67203 c -0.75184,-0.97302 1.25591,-2.51263 -0.39735,-3.56782 -0.3623,0.23646 -0.0231,6.49517 0.39735,3.56782 z m 13.21624,-1.12752 c -1.75213,-1.18559 -0.13168,3.64755 -0.0356,1.44343 0.11441,-0.4694 0.2026,-0.97078 0.0356,-1.44343 z m 12.86118,1.32925 c -0.3128,-1.35074 -0.88701,1.68281 0,-1.3e-4 z m -5.44959,-0.001 c -0.37781,-1.59067 -1.74157,-2.43557 -0.49416,-0.36008 0.0872,0.0963 0.53731,1.19278 0.49416,0.36008 z m 24.17378,-0.71979 c -0.56727,0.16342 -0.47389,1.36537 0,0 z m -17.17673,-0.58926 c -0.94588,-2.08559 -1.05479,2.46357 0,0 z m 8.73572,0.68639 c -0.83231,-1.07175 -0.17757,0.97642 0,0 z m -25.58686,-1.10267 c -1.19572,-1.34619 0.0583,2.46437 0,0 z m 10.0901,-0.41785 c -1.13657,-2.15619 -0.2933,1.03276 0.21964,0.7516 l -0.0733,-0.29723 z m 16.67685,0.43345 c -0.7917,-0.92629 -0.77705,1.5667 0,0 z m -8.76294,-0.59065 c -1.42146,-0.89299 0.50887,1.86954 0,0 z m -16.13136,-0.39222 c -1.17865,-2.72897 -2.13383,3.01951 0,0 z m 13.85943,0.28275 c -0.007,-1.00454 -0.9042,0.93194 0,0 z m 10.11469,-0.73737 c -0.68242,-1.36278 -0.46294,1.95851 0,0 z m -22.38307,-0.93527 c 0.53249,-1.87683 -2.96904,0.90652 -0.18328,1.01055 0.0835,-0.3325 0.12669,-0.6731 0.18328,-1.01055 z m 13.90304,0.56464 c -2.4684,-0.88595 1.02565,1.62632 0,0 z m -6.50014,-0.59698 c -2.02914,-3.74567 -0.64195,2.31448 0,0 z m -9.71905,-0.6285 c 0.73601,-0.42986 1.79825,-1.82328 0.20967,-0.834 -0.92411,0.3853 0.65662,-3.0131 -0.70636,-1.16134 -0.42612,1.29995 -1.36204,4.89755 0.49669,1.99532 z m 17.44618,-0.83811 c -0.60132,-1.78833 -1.87512,0.76465 -0.57797,1.07549 0.25301,2.46711 1.0549,-0.36955 0.57797,-1.07549 z m -9.47174,1.64677 c -0.28166,-0.79841 -0.57016,0.8676 0,0 z m 7.36721,-0.4694 c -0.46422,-0.92689 -0.95878,0.83972 0,0 z m -12.60325,-1.27044 c -0.94756,-0.46282 -1.12372,-2.88306 -1.04669,-0.57614 0.15184,0.13963 1.19093,1.68398 1.04669,0.57614 z m 22.74318,-0.46221 c -0.79673,-1.31671 0.48206,1.93645 0,0 z M 143.887,159.24607 c -1.13789,0.35881 -0.16956,1.75081 0,6e-5 z m -15.63864,-1.12976 c 0.3527,-2.09355 1.99058,-4.91904 0.0233,-6.56882 -1.34271,-1.41815 -2.04964,2.20688 -0.69298,2.90748 0.98453,1.5562 -2.48306,1.41024 -1.34965,3.00262 0.59686,1.08934 1.76932,3.71553 1.94469,0.99841 l 0.0746,-0.33969 z m 22.99483,0.73684 c -1.31829,-1.01568 -0.4544,2.68841 0.12027,0.24651 z m 12.54455,0.75986 c -0.65093,-1.45211 -0.23885,1.67472 0,0 z m -10.33345,-0.64031 c -1.15256,-0.89355 0.40586,1.78103 0,0 z m 8.44284,0.0954 c -1.02103,-0.9999 0.35434,1.34954 0,0 z m 2.15166,-1.87239 c -1.43884,-1.6773 0.0497,3.45175 0.14523,0.60842 l -0.14508,-0.60841 z m -27.21702,0.31246 c -1.51838,-0.59254 -0.81109,2.18296 0,-9e-5 z m 1.47447,-0.5485 c -1.47756,-2.63645 -0.0375,3.89127 0.0904,0.41864 l -0.0905,-0.41864 z m 24.39063,1.01862 c -0.90311,-0.10454 0.39251,1.27896 0,0 z m -17.13152,-0.19967 c -0.0722,-2.49255 -1.3891,0.71476 -0.066,0.39229 l 0.066,-0.39227 z m 6.85836,-0.43038 c -1.22374,-0.56475 0.007,1.26523 0,0 z m 1.63632,-0.0663 c -0.46159,-2.39668 -1.85635,0.53678 -0.0499,0.41813 l 0.0499,-0.41878 z m 7.98999,-0.12297 c -0.83232,-1.07173 -0.17754,0.97648 0,0 z m -26.1268,-1.12055 c -1.25393,0.12135 0.25652,1.77633 0,0 z m 15.64336,0.43903 c -0.61819,-1.21138 -0.48981,1.62756 0,0 z m -6.74541,-1.12371 c -0.7437,-0.0893 -1.02469,2.869 -0.11963,0.43854 z m -18.3245,-0.7208 c 0.33689,-2.22237 -1.14345,-2.16139 -1.60327,-0.21301 0.10752,2.21901 0.89903,2.12698 1.60327,0.21301 z m 36.70273,1.28243 c 1.07802,-1.54519 -1.79498,1.24855 0,0 z m -0.41409,-1.18611 c -0.82485,-3.16052 -2.27733,2.28982 -1.16188,1.00715 0.38294,-0.34063 0.75982,-0.68882 1.16188,-1.00715 z m 1.51581,0.43402 c -1.26065,-1.32643 0.8059,2.31526 0,0 z m -26.96164,0.2872 c -0.61983,-1.78528 -1.46882,1.46567 0,0 z m 15.68403,0.10306 c 0.58125,-1.80922 -3.13793,0.21729 -0.66219,0.24763 0.2411,0.17 0.52379,-0.0705 0.66219,-0.24763 z m 1.6002,-1.39562 c -0.3846,-1.34475 -2.24716,-2.33875 -1.19179,-0.19461 0.52886,1.38713 1.50661,2.64844 1.1918,0.19461 z m -8.66856,0.43219 c -1.1528,-2.04561 0.25483,2.74109 -1e-5,0 z m -9.14497,-0.93541 c 1.30883,-1.38957 -1.90656,0.44149 -0.48395,0.52858 l 0.22338,-0.36092 z m 35.42544,0.24069 c -0.17325,-1.27007 -0.60235,1.63629 0,0 z m -9.29952,-0.83597 c -2.00427,-2.6052 1.14744,2.53098 0.25317,0.35573 z m 1.00453,-0.69385 c -1.22689,-0.68558 -1.75186,-3.28141 -0.0761,-1.45795 0.32374,1.13872 2.1288,2.64577 1.1364,0.44873 -0.70186,-1.75838 -2.34244,-4.99639 -2.55186,-1.32678 -0.57233,1.14507 0.82334,1.87174 1.29289,2.7802 1.3551,1.74585 0.61839,0.11471 0.19869,-0.4442 z m -8.61551,-0.14464 c -0.16425,-3.17278 -1.9838,1.4075 -0.072,0.62365 l 0.0719,-0.62379 z m -17.44342,0.17709 c -0.88287,-0.79184 0.55158,1.61966 0,0 z m 8.24005,-0.2162 c -1.02568,-1.14732 0.62953,1.6213 0,0 z m 26.68273,0.40181 c -0.29907,-1.18504 -0.50058,1.24032 0,0 z m -42.87544,-1.97977 c 0.3999,-1.76826 -0.93315,-4.06987 -1.96045,-4.96917 -1.11624,0.98831 -2.69248,3.22123 -0.56961,3.85734 1.06297,-0.81036 1.65464,4.45579 2.46785,1.67735 z m 23.00162,1.05782 c -1.10028,-1.37914 -0.59512,1.83157 0,0 z m -46.36342,-0.26789 c -0.44797,-0.18013 0.16375,1.06648 0,0 z m 30.64535,-0.36034 c -1.08754,-0.34637 -0.26871,1.55582 0,0 z m 3.02409,-3.86621 c 0.3922,-1.05551 -1.26738,-0.51589 -0.86785,-1.17721 0.13285,0.94186 0.88854,4.78495 -0.90525,2.9154 -0.0376,1.15231 1.19318,1.35286 0.90041,2.63875 0.51339,-1.38085 0.54626,-2.93547 0.87269,-4.37694 z m -13.46966,3.73562 c 1.26008,-2.1088 -3.67363,-2.79735 -1.29565,-0.36967 0.23093,0.81011 0.73586,1.42623 1.29565,0.36967 z m 19.99871,0.15501 c -0.44796,-0.18016 0.16375,1.0665 0,0 z m 7.46179,-0.60946 c 0.67469,-0.57135 -1.47894,-0.055 -0.23247,-1.60963 1.97392,-1.0833 -0.25161,-2.4378 -0.65605,-0.26876 -1.0081,0.79966 -0.13323,3.70572 0.88852,1.87839 z m -16.53907,-0.57604 c -0.65078,-0.61969 0.73532,-3.31057 -0.37079,-1.38428 -1.02241,0.59534 1.61497,4.00179 0.37079,1.38428 z m 18.51993,-0.70087 c 0.32359,-1.71922 0.0675,-1.06046 -0.37513,-0.0628 -1.53275,-0.75549 0.20766,2.92613 0.23896,0.55726 l 0.13622,-0.49451 z m -8.93621,0.14066 c -0.44797,-0.18011 0.16376,1.06651 0,0 z m 17.44574,-0.60808 c -1.05608,-2.03521 0.1274,1.4038 0.25079,0.57535 l -0.25079,-0.57538 z m 1.3619,-0.17198 c -0.63953,-0.89717 -0.52705,1.6145 0,0 z m -19.47214,-0.54888 c -0.62627,-1.3025 -0.51411,1.25117 0,0 z m 1.11152,-0.71503 c -1.51654,-2.27816 0.37043,2.41004 0,0 z m -17.09186,-2.49042 c -0.10829,-2.32919 -2.04494,-3.91755 -3.42055,-5.6119 -1.01271,0.64316 -1.22565,1.38261 -0.31467,2.25732 0.4755,1.18097 0.81725,2.0055 2.09579,1.87665 -0.972,1.75924 0.17307,3.20251 1.2619,4.59401 0.1999,-1.02834 0.36391,-2.06571 0.37753,-3.11608 z m 35.70746,2.44923 c -0.70494,-1.26162 -2.85902,-5.85862 -2.98364,-2.06909 -0.86711,1.28677 0.82823,2.76372 0.50032,0.68092 -0.69177,-3.21831 2.21289,2.63733 2.48332,1.38817 z m -9.91772,-0.59865 c -1.23475,-1.67512 -1.06145,2.09202 0,0 z m -7.80501,-0.36996 c -0.73435,-1.02722 -0.5688,0.5727 0,0 z m -1.62126,-0.39582 c -0.007,-1.00455 -0.90423,0.93191 0,0 z m 8.33875,-0.19441 c 0.8599,-2.20533 -2.35711,0.84644 0,5e-5 z m 2.02388,-1.05951 c -1.14757,-2.94036 -1.1073,2.55706 -0.02,0.39801 z m 9.01643,-1.12509 c -2.09983,-3.46257 -0.96902,3.56862 0.3081,1.78514 0.21636,-0.60781 -0.023,-1.24787 -0.3081,-1.78514 z m -27.32094,0.9929 c -1.66419,-1.49604 -0.37084,2.73456 0,7e-5 z m 1.37473,0.5563 c -0.91882,-0.35658 0.64212,1.14082 0,0 z m 8.22081,-0.98762 c -0.87368,0.0976 0.77975,1.8771 0,0 z m -8.51095,-0.31793 c -0.80447,-1.95545 -0.88686,1.46673 0,0 z m 16.22507,-0.82265 c -1.00132,-2.14208 -2.63943,2.71486 -0.50477,0.43895 l 0.26242,-0.19522 0.24231,-0.24373 z m -29.28312,0.12665 c -0.38149,-1.4121 -2.4106,-2.9417 -0.76852,-0.56966 0.22665,0.46745 1.48145,2.11238 0.76852,0.56966 z m 4.34311,-2.32861 c 0.60266,-1.34594 -0.18028,-5.85898 -1.6288,-4.56391 1.12557,1.02715 0.70584,3.7455 -0.14945,1.20585 -0.079,-2.09158 -2.75397,1.58608 -1.36059,2.37369 1.4185,1.20616 3.17566,5.69822 3.13884,0.98437 z m 9.25006,1.72004 c -1.0257,-1.14738 0.62953,1.62126 0,0 z m 27.03208,-1.44029 c 1.013,-1.12119 -0.48308,-5.51623 -1.08471,-2.80839 1.11634,1.43717 0.21764,2.19749 -0.78258,0.59797 -2.41778,-0.93735 -0.49204,3.74126 1.07614,1.4778 1.25897,0.37756 -2.24122,2.58116 0.28091,2.77361 0.22945,-0.66378 0.37027,-1.35482 0.51024,-2.04099 z m -28.45828,1.39012 c -0.1767,-2.26307 -1.31614,0.83259 0,0 z m 8.38788,-0.28183 c -0.68947,-0.43447 -0.40505,1.13832 0,0 z m 10.24162,-0.79712 c 0.0664,-2.2511 -3.38565,0.37702 -0.72391,-0.54907 0.87303,0.40202 -1.38906,1.61489 0.5895,1.50816 0.47773,1.24716 0.29086,-0.76259 0.13442,-0.95909 z m 6.98669,0.55268 c -0.98686,-1.60654 -1.06334,0.5624 0,0 z m -24.8508,-1.27066 c -2.25148,-1.56497 0.89447,2.29236 0,0 z m 9.37315,-0.20403 c -1.11785,-1.42091 0.78464,2.25624 0,0 z m 9.39263,-1.39043 c -1.57943,0.51522 0.20775,2.83618 0.0311,0.33145 z m -18.22935,0.66952 c -1.11404,-0.88523 1.1463,1.53417 0,0 z m 9.48939,-1.67094 c -1.55114,-2.23616 -0.0371,3.50887 0.0618,1.31102 0.0454,-0.43671 0.0231,-0.87991 -0.0618,-1.31102 z m 6.59177,1.46586 c -0.44817,-1.90344 -1.22243,1.38346 0,8e-5 z m -15.22314,-0.73649 c -0.58903,-0.89357 -0.18982,1.13124 0,0 z m -1.53917,-0.11633 c -0.79515,-0.94639 -0.87939,0.98341 0,0 z m 18.1234,-0.96273 c -1.53101,0.14243 -1.23087,-0.22072 -0.80817,-1.2915 -1.56115,-1.87636 -0.18071,4.60348 0.80817,1.2915 z m 1.50505,-0.56905 c 0.906,-1.58995 -1.86746,-2.35748 -1.43926,-1.06424 1.16675,-1.03281 0.48278,3.69196 1.43926,1.06424 z m -18.83169,0.0223 c -0.68011,-0.87197 -0.5229,1.23606 0,0 z m 0.96927,-0.32355 c -1.38208,-2.04258 0.76485,2.15271 0,0 z m 7.2714,-0.0481 c -0.70352,-0.75536 -0.62394,1.9858 0,0 z m 16.47476,0.87601 c -0.54926,-0.88136 -0.63328,0.4607 0,0 z m 3.30989,-0.7503 c -0.69831,-2.30261 -0.97726,1.8732 0,0 z m -1.80819,-0.3795 c -0.84235,-0.87742 -1.29211,-3.39872 0.14641,-1.3794 2.02359,2.29002 -1.53297,-4.24101 -1.4154,-0.5727 -0.73645,1.00554 -0.168,3.51419 1.26898,1.9521 z m -16.23102,-0.13064 c -0.45506,-1.44155 -0.28904,1.84268 0,0 z m -18.40586,-1.82251 c -0.0905,-1.6486 -1.80226,-4.71644 -3.37203,-4.70974 -1.67861,1.29553 0.4132,4.94962 2.09967,3.67046 -0.73573,1.66913 1.19828,4.90717 1.27236,1.03928 z m 45.96241,-0.37496 c 0.37608,-2.15909 -0.19392,-0.2211 -0.50367,0.82344 -0.53824,2.42742 0.65528,0.17035 0.50365,-0.82344 z m -36.03741,1.1768 c -0.65083,-1.45227 -0.23894,1.67477 0,0 z m -12.48151,-0.50741 c -0.54621,-0.85841 -3.66878,-4.51935 -1.73845,-1.55848 0.29201,0.32219 1.60773,3.25301 1.73845,1.55848 z m 10.80975,0.33164 c -0.76827,-1.38211 -0.93565,1.37859 0,0 z m 9.66199,-0.006 c -0.68006,-0.87207 -0.52297,1.23602 0,0 z m 18.89574,0.0447 c -0.44798,-0.18025 0.16373,1.06656 0,0 z m -11.31339,-0.87683 c -0.90368,-1.47231 -1.01513,2.48105 0,0 z m 2.40871,-0.20103 c 0.27823,-1.5345 -1.80513,-2.51629 -0.73975,-0.45417 0.21092,0.59747 0.48677,1.92915 0.73981,0.45417 z m 8.47756,-0.12548 c -0.54344,-2.51456 -2.082,0.0257 -0.26157,0.74078 l 0.19262,-0.20456 0.069,-0.53625 z m -19.21311,0.0469 c -0.652,-1.72652 -0.55065,1.71237 0,0 z m 1.74836,-0.16304 c -0.80985,-1.25349 -0.50531,1.96859 0,0 z m -44.76556,-0.56881 c -0.38577,0.0354 0.17778,1.62534 0,0 z m 35.15318,0.57504 c -0.84044,-0.27753 -1.17072,-0.48378 -1.09036,-1.50247 -0.81066,1.05931 -0.46773,2.82531 1.09036,1.50247 z m 0.86552,-0.76687 c -1.17909,-1.28135 0.42222,1.61622 -4e-5,0 z m 8.00041,-0.81106 c -0.90761,-0.93615 -0.38516,2.39368 0,2e-5 z m 19.59534,0.21707 c 0.42793,-2.95752 -2.2435,-0.94657 -0.94788,0.39845 0.34491,0.0441 0.78889,-0.042 0.94788,-0.39845 z m -10.99371,-1.34758 c -1.69695,-0.0416 -1.44403,2.6091 -0.14012,0.35809 z m -7.44605,0.38898 c -1.27948,-2.10824 0.15299,2.33822 2e-5,0 z m 15.7752,0.61354 c -0.56629,-0.73167 -0.19778,-3.24277 0.58545,-2.08836 -0.30134,2.70853 2.11737,-1.03349 0.20014,-1.85498 -1.46382,-1.91948 2.90375,-2.65205 0.88688,-4.87492 0.79967,-0.56515 1.47905,2.26926 1.69424,-0.41734 -0.44867,-1.06085 -2.03642,-0.87799 -0.57173,-2.30627 1.87011,-0.91625 -0.30358,-3.28453 -0.33034,-0.79194 -1.26444,3.97748 -2.79728,7.90749 -3.55913,12.01573 -0.0249,0.52811 0.84222,0.86137 1.09449,0.31808 z m -34.59069,-1.01373 c 0.40884,-1.30817 -1.15472,-4.47301 -2.14503,-3.90917 -2.38176,1.1018 1.98227,6.3033 2.14503,3.90917 z m 8.92646,0.83892 c -1.11617,-2.89501 -1.6101,0.29307 0,0 z m 18.97641,-0.33853 c -0.65079,-1.45222 -0.23907,1.67476 0,0 z m -17.47224,-1.1737 c -0.3419,-1.22479 -2.02822,-2.13295 -1.5197,-0.15577 0.10786,0.80464 1.23445,0.85245 1.5197,0.15577 z m 17.11294,-0.0428 c 0.28114,-1.14429 -1.20473,0.98545 3e-5,5e-5 z m 10.57025,-1.0068 c 0.4924,-0.75414 -0.41462,-4.37991 -1.24931,-3.21367 -1.38805,0.87301 -0.39692,3.93921 0.1902,1.52939 0.68192,0.65173 0.0329,4.78294 1.05911,1.68428 z m -20.19113,0.57923 c -0.43411,-0.94788 -1.11676,1.46499 0,0 z m 1.25534,-0.57732 c -1.57082,-2.23209 0.72566,2.65326 0,0 z m 7.23242,0.26784 c 1.85107,-1.3399 -1.32211,-0.94649 -0.91127,0.66432 0.23583,-0.29421 0.47883,-0.66646 0.91127,-0.66432 z m 1.96665,-1.92696 c -1.55122,-2.23676 -0.23814,3.17133 0.0907,1.24783 0.12285,-0.40586 0.0911,-0.86406 -0.0907,-1.24783 z m -17.68868,0.70898 c -0.63637,-2.37641 -0.31544,2.57109 -1e-5,0 z m -2.06553,-0.78034 c -1.13989,-0.64832 0.0283,2.39425 0.22633,0.24835 l -0.22642,-0.24836 z m 11.30432,0.54884 c -0.65146,-1.78314 -0.15927,1.98296 0,0 z m -19.46116,-3.03531 c 0.44203,-1.55393 -0.0361,-3.06287 -0.51048,-4.28162 1.21509,0.0236 -1.75062,-4.01973 -2.15253,-0.94056 -1.4757,1.34277 1.21591,2.56504 1.82724,3.6969 0.47089,3.0694 -2.55201,-4.49408 -3.51743,-1.04839 -0.29324,1.88846 1.81715,2.62889 2.74901,2.95755 -1.02829,1.75613 2.22825,3.86494 1.49236,0.77652 l 0.0555,-0.56161 0.0563,-0.59885 z m 17.73684,2.93775 c -0.1691,-1.98241 -1.53172,0.60519 0,0 z m -8.00741,-1.24443 c -1.07371,-2.30409 -1.93887,1.52543 0,0 z m 8.96265,-0.5355 c -1.52445,-1.13227 0.20099,1.93895 0,0 z m 1.50716,-0.69114 c -1.30406,-3.10823 -0.76773,3.14512 1e-5,1.4e-4 z m 18.26849,-1.40838 c -1.96214,-1.18382 -0.39817,3.97638 -0.0276,2.22654 0.11648,-0.71061 0.69307,-1.6424 0.0276,-2.22654 z m -27.7464,-1.3379 c -1.90284,-1.92791 1.3363,3.53375 -1.05631,2.15802 0.63106,2.15649 1.22333,1.48169 1.21752,-0.26639 0.0725,-0.63011 0.10937,-1.29867 -0.16121,-1.89163 z m 15.87511,3.00536 c 0.28117,-1.14434 -1.20472,0.98524 5e-5,-8e-5 z m 20.76876,-1.20977 c -0.3641,0.46924 0.19203,2.22594 -1.5e-4,0 z m -38.87728,0.49147 c 1.11714,-0.5736 0.97885,-2.76353 -0.11515,-1.2117 -0.21062,0.36906 -0.49763,2.79973 0.11515,1.2117 z m 9.2376,0.06 c -0.6182,-1.21139 -0.4898,1.62753 0,0 z m 10.79758,-0.44708 c -0.73026,-1.58007 -1.47428,1.5512 0.002,0.43867 z m -9.54195,-0.66176 c 0.23788,-2.63062 -1.64605,1.57443 0,0 z m 1.72201,-1.66622 c -1.83596,-2.04556 -0.48249,3.00271 0.0807,1.16074 l 0.0877,-0.58548 -0.16842,-0.57526 z m 7.11861,0.92112 c -1.43004,-0.35005 -1.38013,1.79179 0,0 z m 11.83168,-2.05879 c 0.60488,-1.22065 0.50235,-4.49811 -0.76687,-1.72104 0.97628,1.5613 0.19544,1.33736 -0.79574,0.72085 -1.02731,0.99033 1.38494,1.54036 0.47354,3.07708 0.71857,1.06765 0.81646,-1.73451 1.08907,-2.07689 z m -10.64978,1.28412 c -1.28702,-0.51761 0.78498,1.65289 0,-7e-5 z m -10.8368,-0.65411 c -1.1399,-0.64825 0.0284,2.39426 0.22633,0.24836 l -0.22642,-0.24836 z m 8.93279,0.46432 c -0.002,-0.99606 -0.88824,0.94364 0,0 z m -15.42798,-4.00466 c -2.08579,-0.85667 -1.69409,2.72999 -0.18708,1.98091 -1.03316,3.9183 1.13647,-1.23355 0.18708,-1.98091 z m -1.94021,3.08359 c 0.25922,-1.36098 -1.10851,-2.6542 -0.93053,-0.47127 -0.34378,0.81207 0.48283,1.07601 0.93053,0.47127 z m 10.00873,-0.51839 c -2.45678,-3.03365 -0.92599,2.55588 0,0 z m 8.65416,0.55484 c -0.63679,-2.55107 -1.37476,1.35595 0,0 z m -7.04271,-0.37028 c -0.0845,-1.18782 -0.69464,0.73729 0,0 z m 8.28558,-0.79501 c -0.58867,-3.25352 -0.92794,1.94812 0,2e-5 z m -32.29177,-1.20926 c 0.94487,-0.85462 0.51798,-1.66793 -0.23408,-2.47145 -0.75959,-1.73805 -1.65552,-1.56608 -2.96045,-0.69304 0.0907,-1.01499 2.01853,-1.90813 0.30928,-2.83594 -0.57185,-0.34507 -1.5655,-3.80931 -1.595,-1.9174 -0.0532,1.69087 -0.87278,3.69403 0.67911,4.90611 0.85749,0.94258 2.65349,5.95121 3.80114,3.01172 z m 30.38964,0.48548 c -0.42529,-0.55695 -0.70778,1.00628 -0.0743,0.22134 z m -7.14103,0.10026 c 0.94758,-1.31891 -1.67063,-1.11914 -0.48398,0.13314 z m 2.27175,-3.55667 c 0.17512,-1.08115 1.05006,-2.22246 0.23981,-3.21892 -0.10041,-2.38786 -2.58327,-0.10365 -1.79668,0.96134 0.90789,1.38978 1.70984,2.82059 -0.15295,3.76412 -0.25604,1.71737 1.23377,2.47823 1.19351,0.30399 0.17374,-0.60304 0.34565,-1.20662 0.51631,-1.81053 z m 5.98589,1.39609 c -1.34444,-2.71938 -1.01556,3.42611 0.0137,0.57541 l -0.0137,-0.57544 z m 2.01103,-0.97505 c 1.26289,-2.2934 0.0435,-3.01828 -1.21515,-0.8508 -0.88876,0.9045 1.4785,1.72413 0.38346,3.16623 0.414,-0.7041 0.56917,-1.54618 0.83169,-2.31543 z m -20.60731,-0.22013 c -0.82504,-2.28818 -1.33949,2.99295 -0.68064,1.99562 0.57581,-0.70472 1.80718,-1.13221 0.68064,-1.99562 z m 9.21882,1.48575 c -0.79555,-1.42374 -1.04372,-1.56403 -1.13315,0.16263 0.35574,0.27726 1.53783,0.91805 1.13315,-0.16263 z m 19.492,0.24114 c 1.73379,-2.91653 -2.81259,-1.34779 -1.2345,-0.11736 0.2908,0.5535 1.01618,1.02564 1.2345,0.11736 z m 11.2354,-1.40918 c -0.14493,-2.80728 -1.04256,3.15449 -0.0133,0.62496 z m 4.52926,0.5966 c -0.77513,-1.54035 -2.07466,-4.78897 -3.4421,-4.94465 -0.3918,2.33061 2.56404,3.41179 3.61815,5.46269 0.46769,0.21545 -0.087,-0.6764 -0.17605,-0.51804 z M 131.9501,116.9804 c -0.73571,-1.64195 2.63185,-1.60983 0.5875,-3.4789 -1.01167,-2.71027 -2.44409,-0.34081 -3.23701,1.02095 0.72809,0.6458 1.92223,3.98867 2.64951,2.45795 z m 13.60699,0.16323 c 0.002,-1.32846 -0.67681,1.57481 0,0 z m 28.8789,-2.44143 c 0.73384,-1.51619 0.93588,-5.22855 -0.83088,-4.92299 -1.20218,0.74204 -0.0239,2.72912 0.57635,1.38826 1.10519,1.90607 -0.0985,3.24222 -1.51422,4.2513 0.20955,0.59585 1.26708,1.96972 1.08917,2.0981 0.3064,-0.91626 0.48916,-1.8698 0.67958,-2.81467 z m -20.09812,1.75345 c 1.17063,-2.08356 -2.03922,-2.84668 -1.90208,-0.87695 0.48245,0.71777 1.2178,2.70527 1.90208,0.87695 z m -9.66137,-0.11766 c 2.31016,-0.83806 -0.627,-3.63676 -0.75511,-0.95507 -0.01,0.0891 0.93073,1.95265 0.75511,0.95507 z m 18.94488,-2.98204 c -0.19807,-2.14548 -1.96725,1.63281 -2.12152,2.72918 0.77062,-0.85312 1.693,-1.6339 2.12152,-2.72918 z m 7.7881,2.01383 c -0.56842,0.16624 -0.47223,1.36145 0,0 z m 1.69789,-2.1087 c -0.40445,-1.37466 -0.90034,-3.14097 -1.13593,-0.81872 -0.97502,1.71603 0.50642,3.3615 1.13593,0.81872 z m -29.11438,-0.38854 c -0.80349,-2.21323 -1.62451,3.09179 -0.41338,1.04552 0.27856,-0.23998 0.68634,-0.64506 0.41338,-1.04552 z m 1.62571,-2.21031 c -0.99041,-0.86011 -2.59,-3.06855 -2.0884,-0.30782 0.28078,1.03044 1.27398,3.11665 2.1013,1.29698 1.31715,0.0879 -0.95977,3.29909 0.58894,2.13317 0.38544,-1.11857 0.29446,-2.27069 -0.60184,-3.12233 z m 7.45028,2.35907 c -1.21658,-2.58802 -1.63179,2.79436 -0.4878,0.93556 0.18967,-0.24127 0.5644,-0.56454 0.4878,-0.93556 z m 34.63385,0.61648 c -1.55684,-0.99448 -1.65615,-4.82158 -3.22712,-5.07908 0.86941,1.36641 -0.35032,3.11092 1.55322,3.86565 0.41249,0.41058 1.27911,3.14853 1.6739,1.21343 z m -57.7136,-1.03578 c 0.90426,-0.82947 0.9042,-1.61105 -0.10641,-2.3391 -1.16904,-1.91275 -2.91248,-0.87683 -3.57425,-3.36001 -0.48192,-0.99423 -0.24178,2.44352 -0.0495,2.85677 1.72629,0.41539 2.0591,6.15139 3.73021,2.84234 z m 35.71096,-1.78969 c 0.87636,-1.53869 0.74348,-5.48747 -1.40669,-3.12279 -0.85825,1.01152 -0.78407,4.37318 0.43149,1.76502 0.87279,-2.08664 1.61939,0.50635 0.11324,1.2456 -1.18873,1.23365 0.45315,4.0386 0.58362,1.07904 l 0.13594,-0.46836 0.14243,-0.49863 z m -11.06962,1.00793 c 1.52401,-0.88617 -0.71588,-2.94602 -1.79395,-2.0455 -1.28471,0.77645 1.11327,4.22059 1.79395,2.0455 z m 2.52451,-1.69196 c -0.0923,-2.1476 -1.54831,-4.21106 -2.93851,-1.74121 0.378,1.26062 1.63986,1.96201 2.47272,1.93758 -1.02003,1.20209 0.62412,3.07653 0.49491,0.81212 l 0.005,-0.50009 -0.0338,-0.5084 z m 6.07992,1.19069 c -0.6399,-0.89681 -0.52655,1.61401 0,0 z m 24.96861,-0.35976 c -0.51453,-2.41097 -1.47965,1.73677 -0.0618,0.63486 z m -56.52982,-0.89569 c 0.18678,-0.9574 0.37678,-3.51675 -0.92874,-3.45655 -0.48589,0.66381 -1.62242,1.30078 -1.73827,1.97986 0.76545,0.60768 2.00113,3.40908 2.66701,1.47669 z m 15.36596,-0.65343 c 0.99575,-2.60062 -3.00146,-0.92625 -1.5114,0.16123 0.6441,0.98329 1.5835,1.75422 1.5114,-0.16123 z m 29.01751,-2.25396 c 0.0677,-2.40308 -2.32868,3.51116 -0.65067,2.93129 0.30295,-0.95597 0.52889,-1.93534 0.65067,-2.93129 z m 11.14359,2.22992 c -0.14597,-1.30364 -1.53188,-2.83188 -0.69687,-0.53116 0.0329,0.30397 0.68308,1.65022 0.69687,0.53116 z m -13.81394,-1.0088 c -0.54778,-1.37688 -0.78311,2.88995 0,0 z m 14.74541,0.65367 c -0.44795,-0.18014 0.16372,1.06653 0,0 z m -81.64231,-1.34607 c -0.41057,0.20258 0.21556,1.28055 0,0 z m 46.1926,0.45299 c -0.44796,-0.18015 0.16375,1.06652 0,0 z m -24.9912,-0.49765 c -1.11403,-0.88525 1.1463,1.5342 0,0 z m 17.49008,-2.08755 c -1.63238,-3.72277 -1.99805,2.88036 -0.3027,2.59151 0.723,-0.65839 1.68619,-1.29086 0.59672,-2.14462 -0.098,-0.14896 -0.19602,-0.29793 -0.29402,-0.44689 z m 12.67426,1.44871 c 0.15276,-2.59375 -2.51499,0.0354 -0.24679,1.16911 0.12695,-0.37928 0.17817,-0.77705 0.24679,-1.16911 z m 30.13371,0.24867 c 0.0929,-1.47049 -1.92617,-3.4635 -1.2287,-0.68846 0.15079,0.67403 1.21924,2.69958 1.2287,0.68846 z m -33.33817,-0.31838 c 1.62229,-0.93317 -0.96037,-1.91101 -1.12342,-3.00826 1.03704,-0.76683 2.63385,-1.71371 0.49848,-2.25123 -0.3201,1.60001 -2.12481,5.18717 -0.56067,5.91021 0.44436,-0.10159 0.86411,-0.32598 1.18561,-0.65072 z m -7.12662,-0.2807 c -0.46298,-0.81517 -2.35483,-4.60268 -2.06367,-1.7242 0.38249,0.33343 2.02367,3.51916 2.06367,1.7242 z m 27.26164,0.24378 c 0.65517,-1.66923 -1.35433,-3.26422 -1.15295,-0.56587 -0.1746,0.91867 0.65141,1.83197 1.15295,0.56587 z m 10.48698,-0.26839 c -0.77061,-1.33275 -0.25766,2.32327 1.3e-4,0 z m -20.21601,-0.9362 c -0.83019,-0.18975 -0.38634,2.08784 0.1243,0.16709 z m 2.21129,-0.56705 c 0.53825,-2.36798 -1.55362,3.29861 -0.19079,0.66315 l 0.0924,-0.33648 z m -10.75769,-1.19274 c -0.29375,-1.55362 -1.16048,-0.47202 -1.92565,0.14258 0.77442,1.2818 1.14448,2.25967 2.42867,0.8535 -0.16767,-0.332 -0.33535,-0.66401 -0.50302,-0.99601 z m -38.00662,-0.31615 c -0.3235,0.21379 0.0979,2.72647 0.0309,0.3209 l -0.0309,-0.3209 z m 58.28741,-1.16858 c -1.99843,0.41192 -1.79656,2.84101 -0.39746,3.05392 0.15755,-1.01336 0.43594,-2.02134 0.39746,-3.05392 z m -45.02754,1.80399 c 1.58903,-1.09844 -0.43067,-4.287864 -1.63602,-3.80489 -2.76254,0.85969 -0.44553,4.68384 1.01819,4.582 l 0.29358,-0.34982 z m 16.09605,-0.24116 c 0.62911,-2.63498 -2.70436,-0.66169 -0.64885,0.76708 0.53725,1.23551 0.58081,-0.18747 0.64885,-0.76708 z m 19.10109,-0.95025 c 1.55951,-0.14873 2.98676,-4.295834 2.31859,-4.717094 -0.94409,2.145724 -4.72325,3.322964 -3.13423,6.128354 0.17279,1.11335 0.88845,-1.21919 0.81564,-1.41126 z m -8.57763,0.92616 c 0.56693,-3.67763 2.31233,-7.140374 2.52302,-10.860484 -0.6171,-0.35019 -2.97927,1.79665 -1.55759,2.6476 1.59374,1.72509 -0.6729,1.74088 -1.13967,0.0865 -2.15481,-0.15542 -1.565,3.75069 -0.116,2.71526 2.31329,-1.49795 0.75507,3.173984 -0.88705,2.968684 -1.74107,0.6808 0.19979,3.34674 1.1773,2.44245 z m 27.59507,-0.34559 c -0.54938,-1.61575 -0.26561,2.01908 0,0 z m 1.97572,0.17764 c -1.18461,-0.44594 0.51412,1.04224 0,0 z m -42.71249,-0.71973 c 0.32955,-1.15595 -1.99746,-2.63664 -0.89629,-0.5187 0.0495,0.39062 0.50832,1.22538 0.89629,0.5187 z m 30.13751,-0.56177 c 1.19116,-0.60632 0.28376,-1.55778 -0.0712,-2.4184 -0.22463,-0.120174 -1.75401,4.03984 -0.33801,2.82581 z m 11.40041,-1.88464 c -1.58483,-0.31848 0.51639,3.99743 0.17618,0.97318 l -0.027,-0.38913 -0.14931,-0.58407 z m -40.81606,0.0293 c -1.12945,-0.50651 -2.16144,-3.990704 -1.79335,-0.992934 0.47663,1.169994 3.08302,4.487644 1.79335,0.992934 z m 2.33168,-0.45442 c 0.36617,-2.195174 -1.81616,-3.295564 -2.48876,-0.894254 0.71178,0.885874 2.03334,1.592584 2.23701,2.468424 0.25513,-0.4868 0.22869,-1.0451 0.25175,-1.57417 z m 40.68714,1.40174 c -0.78646,-1.21589 -0.94242,-3.330824 -1.03011,-0.678 -0.16563,0.67129 0.55529,1.48491 1.03011,0.678 z m -32.22238,-0.76429 c 2.49926,-1.956744 -3.85647,-3.839494 -2.16112,-0.53611 0.65622,0.98254 1.27945,1.95675 2.16112,0.53611 z m 20.39452,-1.611124 c 0.90599,-2.79999 -2.19358,-1.41222 -1.17754,0.4291 0.61339,1.781454 1.15317,0.708544 1.17754,-0.4291 z m -10.28529,0.786684 c 0.88482,-1.102434 -0.71852,-2.603514 -0.66598,-0.337494 -0.49286,0.663244 0.39591,1.147194 0.66598,0.337494 z m 1.5673,-1.963514 c 0.72194,-1.29689 0.6426,-1.28224 -0.64248,-1.33698 0.79669,-0.92635 0.10926,-3.86144 -0.13314,-1.33202 -0.50697,0.51055 -0.0672,4.819094 0.77567,2.669 z m -22.00069,-1.87387 c -0.74316,-1.14069 -1.8649,-2.05506 -2.29557,-3.05861 -0.25335,1.45128 -0.004,4.80501 1.2714,5.03502 0.46788,-0.5718 1.6817,-1.12159 1.02417,-1.97641 z m -28.16035,0.41875 c -0.37772,0.63701 0.21481,1.87559 0,0 z m 30.28634,0.12606 c 0.47228,-2.39447 -1.31545,0.37188 -0.16505,1.14488 0.27229,-0.24433 0.094,-0.82226 0.16505,-1.14488 z m 6.60319,0.98035 c -0.0846,-1.18787 -0.69465,0.73727 0,0 z m 23.60858,-1.89979 c -1.76257,0.29241 -0.66292,3.1735 -0.21435,0.69442 l 0.11029,-0.333 z m 9.39251,0.85277 c -1.23091,-1.77708 0.97308,2.34226 0,0 z m -31.30079,-1.06691 c 1.71678,-0.72265 -1.24424,-2.922 -1.34062,-1.40102 -0.76666,1.23035 0.22158,3.2861 1.34062,1.40102 z m 32.2011,-2.31725 c -0.71514,0.61553 -0.30741,4.78887 -0.004,1.80907 0.0509,-0.59948 0.15392,-1.21339 0.004,-1.80907 z m -41.54913,2.44788 c 1.03735,-0.21519 1.53335,-0.7035 1.30619,-2.13348 -0.0232,-1.92219 0.50389,-3.97275 -0.14209,-5.79023 -1.54134,-0.25578 -3.56417,2.24439 -1.4852,3.22463 0.17534,-2.51067 2.21093,-1.04922 1.00946,0.7946 0.85558,1.22995 -2.92135,1.56003 -2.02548,2.96872 0.24732,0.31152 1.36778,2.15752 1.33713,0.93576 z m 30.49468,-0.34666 c 1.69278,-1.69925 -1.30848,-3.68897 -1.14291,-0.69652 -0.18391,0.94606 0.36001,2.03095 1.14291,0.69652 z m -71.07045,-1.6908 c 0.11014,-3.06685 -0.72378,1.60217 -0.1255,0.9164 l 0.0601,-0.38443 0.0653,-0.53199 z m 52.22789,-0.5193 c 1.91879,-0.5821 -0.4263,-3.83781 -1.15287,-1.98652 -0.77011,0.83259 -1.69487,1.67715 -0.44012,2.55663 0.56023,1.08801 1.10936,-0.1902 1.59299,-0.57011 z m -13.3212,-2.56709 c -0.56548,-1.22839 -2.13438,-3.40511 -1.74034,-0.63248 -0.28502,0.9442 0.87759,4.2665 1.78245,3.23338 0.98748,-0.67592 0.98652,-1.43933 0.1607,-2.27579 -0.0676,-0.10837 -0.1352,-0.21674 -0.20281,-0.32511 z m 34.06217,2.04167 c 1.49871,-2.30186 -2.7645,-0.0584 -0.48884,0.90233 0.23072,-0.26017 0.34385,-0.59354 0.48884,-0.90233 z m -22.72383,-1.74521 c 0.90339,-0.76104 1.10637,-1.47377 -0.0214,-2.09474 -1.12241,-1.16297 -0.59538,2.62147 -1.23768,3.14878 -0.38339,1.30248 1.04324,-0.90235 1.25904,-1.05404 z m 4.47439,0.35017 c 1.74371,-2.34021 -2.62159,-3.16287 -2.05694,-0.8206 0.5864,0.51156 1.94447,3.02957 2.05694,0.8206 z m 17.34667,-0.0357 c 1.20976,-0.32803 -0.50558,-2.19574 -0.63493,-1.66939 -0.22431,0.90459 -1.36007,3.41781 0.63493,1.66939 z m -70.94054,-1.39034 c -0.38068,0.34179 0.20169,1.74888 0,0 z m 63.4092,-0.49132 c 1.6445,-1.79972 -2.29891,-0.1547 -0.28352,-2.14926 0.36561,-3.46689 -2.50555,1.45028 -1.00271,2.56929 0.35351,1.999 0.91769,0.39559 1.28623,-0.42003 z m 9.32596,-0.29134 c -2.28241,-2.79862 -0.95156,3.04489 0,0 z m -21.14372,-0.51731 c 1.29316,-0.69991 -0.148,-1.50437 -0.6337,-2.27233 -0.59853,0.8138 -2.54157,1.24968 -1.02717,-0.3037 -0.36819,-2.80628 -1.89223,2.25885 0.15255,2.57532 0.63041,0.91585 0.87961,0.69553 1.50832,7.1e-4 z m -43.76459,-1.14139 c -0.57952,-3.73607 -1.73318,-7.46516 -1.25365,-11.28553 0.64469,-1.41025 0.30518,-4.62041 -1.30749,-3.47759 0.0535,4.44789 -0.21984,8.9191 0.13399,13.34862 0.96548,-0.21164 3.26118,4.26304 2.42715,1.4145 z m 30.84452,0.42538 c 2.14578,-1.66823 -2.55204,-1.74431 -0.79974,-3.13204 -0.83588,-1.50475 -1.46397,-1.5371 -1.38523,0.1942 -0.47537,1.13951 0.62368,4.81736 2.18497,2.93784 z m 32.75785,0.0408 c 0.49085,-2.50196 -1.71712,0.76266 0,0 z m -17.40869,-2.3357 c -0.59414,-1.88371 -1.57886,-1.4056 -2.56232,-0.31889 -0.18151,0.49994 1.07298,1.79582 1.49157,1.95661 0.38233,-0.48065 1.34776,-0.91849 1.07075,-1.63772 z m 20.47976,-0.75614 c -0.19414,-4.11308 -4.89524,0.58155 -2.17714,2.35718 0.9059,-0.52452 1.77782,-1.37833 2.17714,-2.35718 z m -66.28798,0.0447 c -0.77723,-2.51316 0.28205,2.7891 0,0 z m 64.76644,-2.3189 c 0.19659,-2.07886 -1.64,1.08919 0,0 z m 8.94246,-1.43872 c -0.41063,0.20297 0.21557,1.28026 0,0 z m -46.41309,-3.68401 c -0.32961,0.0787 0.09,2.40201 0,0 z m -35.46566,0.35518 c -0.4106,0.20277 0.21562,1.28048 0,0 z m 71.19663,-5.79119 c -0.81196,-0.27858 -0.67366,0.46089 0,0 z m -36.63067,-0.84353 c -2.22516,-0.88051 -1.25642,0.47798 0,0 z m 3.62188,-0.40405 c -1.40964,-0.69891 -2.29398,0.94997 -0.15264,0.23977 0.13393,0.1663 0.5773,-0.25391 0.15264,-0.23977 z"
       id="path4496"
       inkscape:connector-curvature="0" />
  </g>
</svg>
