<?xml version="1.0" encoding="UTF-8" standalone="no"?>
<!-- Created with Inkscape (http://www.inkscape.org/) -->

<svg
   xmlns:dc="http://purl.org/dc/elements/1.1/"
   xmlns:cc="http://creativecommons.org/ns#"
   xmlns:rdf="http://www.w3.org/1999/02/22-rdf-syntax-ns#"
   xmlns:svg="http://www.w3.org/2000/svg"
   xmlns="http://www.w3.org/2000/svg"
   xmlns:xlink="http://www.w3.org/1999/xlink"
   xmlns:sodipodi="http://sodipodi.sourceforge.net/DTD/sodipodi-0.dtd"
   xmlns:inkscape="http://www.inkscape.org/namespaces/inkscape"
   width="326.9494mm"
   height="321.18747mm"
   viewBox="0 0 326.9494 321.18747"
   version="1.1"
   id="svg7297"
   inkscape:version="0.92.1 r15371"
   sodipodi:docname="foot 3 small.svg">
  <defs
     id="defs7291">
    <linearGradient
       inkscape:collect="always"
       id="linearGradient8951">
      <stop
         style="stop-color:#d0a4ee;stop-opacity:1"
         offset="0"
         id="stop8947" />
      <stop
         style="stop-color:#c9b5d8;stop-opacity:1"
         offset="1"
         id="stop8949" />
    </linearGradient>
    <linearGradient
       inkscape:collect="always"
       id="linearGradient8583">
      <stop
         style="stop-color:#aaffc9;stop-opacity:0.65490198"
         offset="0"
         id="stop8579" />
      <stop
         style="stop-color:#f9f4eb;stop-opacity:0.31775701"
         offset="1"
         id="stop8581" />
    </linearGradient>
    <linearGradient
       inkscape:collect="always"
       xlink:href="#linearGradient8583"
       id="linearGradient8587"
       gradientUnits="userSpaceOnUse"
       x1="102.82894"
       y1="-377.34641"
       x2="100.8066"
       y2="-17.510143"
       gradientTransform="matrix(1.0472155,0,0,1.0871795,-8.1601576,-6.7583638)" />
    <linearGradient
       inkscape:collect="always"
       xlink:href="#linearGradient8951"
       id="linearGradient8963"
       x1="10.543026"
       y1="-135.43223"
       x2="128.00665"
       y2="-135.43223"
       gradientUnits="userSpaceOnUse" />
  </defs>
  <sodipodi:namedview
     id="base"
     pagecolor="#ffffff"
     bordercolor="#666666"
     borderopacity="1.0"
     inkscape:pageopacity="0.0"
     inkscape:pageshadow="2"
     inkscape:zoom="0.49497475"
     inkscape:cx="1259.7906"
     inkscape:cy="697.42209"
     inkscape:document-units="mm"
     inkscape:current-layer="layer1"
     showgrid="false"
     inkscape:window-width="2560"
     inkscape:window-height="1365"
     inkscape:window-x="-9"
     inkscape:window-y="-9"
     inkscape:window-maximized="1" />
  <metadata
     id="metadata7294">
    <rdf:RDF>
      <cc:Work
         rdf:about="">
        <dc:format>image/svg+xml</dc:format>
        <dc:type
           rdf:resource="http://purl.org/dc/dcmitype/StillImage" />
        <dc:title></dc:title>
      </cc:Work>
    </rdf:RDF>
  </metadata>
  <g
     inkscape:groupmode="layer"
     id="layer2"
     inkscape:label="Layer 2"
     style="display:inline"
     transform="translate(76.637451,418.60526)">
    <rect
       style="opacity:1;fill:url(#linearGradient8587);fill-opacity:1;stroke:none;stroke-width:1.88327336;stroke-miterlimit:4;stroke-dasharray:none;stroke-opacity:1"
       id="rect8577"
       width="326.9494"
       height="320.52383"
       x="-76.637451"
       y="-418.60526" />
    <path
       style="opacity:1;fill:#0000ff;fill-opacity:0.31775704;stroke:none;stroke-width:2.52142859;stroke-miterlimit:4;stroke-dasharray:none;stroke-opacity:1"
       d="m 10.974217,-98.838029 c 1.361647,-6.881151 2.15845,-13.880201 3.893426,-20.682661 0.927802,-2.0628 1.50917,-4.9949 3.456748,-6.18644 1.858411,0.67242 1.738572,-3.31591 2.841682,-4.44025 1.890387,-4.30001 4.114177,-8.44201 6.394832,-12.5409 0.849831,-2.41704 -3.175189,3.07675 -1.523072,0.11445 2.340891,-3.34972 5.649466,-5.92456 7.795186,-9.41407 0.210688,-1.98092 -2.102469,1.15072 -2.607953,1.85514 -2.612588,3.31534 -5.963626,6.2201 -7.217494,10.40006 0.202889,1.44323 -3.490046,4.71019 -2.829988,1.72505 1.974461,-5.20709 6.525092,-8.82893 9.43263,-13.46923 1.123564,-2.27853 3.89567,-4.00918 6.177677,-4.16706 -2.013019,1.70606 1.729076,0.38187 0.724093,2.26467 -0.515284,1.86586 -2.139511,2.00473 -1.59222,0.29703 -2.26618,1.81978 -2.38874,5.01418 -3.285969,7.58588 -0.516533,1.83158 -1.14174,3.63924 -2.078011,5.30167 -0.378616,-1.53899 -0.479083,-3.1593 0.156054,-4.65524 0.20361,-2.2556 -1.725517,2.77455 -2.212671,3.55831 -2.177524,4.94438 -4.568114,9.83079 -6.179998,14.99663 0.09098,1.54285 1.365189,-1.99431 1.653169,-2.58887 0.688972,-1.05173 1.074758,-4.32033 1.877562,-4.04496 0.538522,2.75753 1.513313,-2.09467 1.994836,-2.89808 0.480418,-0.8599 1.268431,-4.53826 1.87546,-3.88033 2.127133,1.37067 2.82844,-3.46343 3.479966,-4.99415 1.065673,-4.20666 4.663557,-6.94159 7.77938,-9.64165 3.556545,-3.07321 7.919408,-4.89222 12.267906,-6.52363 4.6794,-1.95048 8.087736,-6.04921 12.736372,-8.02123 5.022969,-0.82085 9.640893,-3.27059 14.694657,-3.91664 3.023401,-0.48663 5.394743,1.77305 7.720936,3.30666 4.462555,3.49185 8.825259,7.19358 12.542087,11.48361 2.16692,3.44001 1.45275,7.6607 0.97559,11.46172 0.74259,1.51776 0.92938,-2.44123 1.10943,-3.15895 -0.20897,-2.26034 2.35793,-3.70879 3.36622,-1.14162 3.13083,5.75819 2.38173,12.61329 4.5201,18.67504 0.8374,-0.94855 -0.57983,-4.50507 -0.79339,-6.31456 -0.0269,-1.1404 -1.37408,-3.95832 -0.14816,-4.1299 0.57872,0.61068 2.25152,4.24683 1.69989,1.51383 -0.78611,-2.58802 -2.47022,-4.88892 -2.84176,-7.59626 1.67527,-0.25685 2.17368,3.46032 3.0005,4.93064 1.37394,3.92274 3.12183,7.77574 3.8221,11.88973 0.16912,2.19163 0.42444,4.45753 -0.0442,6.61922 -1.33496,-1.30338 -0.75037,-4.16401 -1.40237,-6.04107 -0.987,-1.07517 -0.45945,3.38199 -0.39857,4.39085 0.71265,2.35194 1.19828,4.77702 1.21674,7.27925 0.32938,4.28578 1.52504,8.46633 2.78997,12.55468 0.4998,0.75553 1.39809,-0.86794 1.5091,0.98083 0.54428,0.72851 0.22997,-1.97005 0.35487,-2.65908 1.03622,1.16269 2.02467,2.4792 1.98688,4.12263 0.20565,2.14655 3.01391,3.18911 3.31559,1.09559 0.77758,1.59022 2.50827,4.001092 2.30484,5.324818 -25.46945,0.307432 -50.942354,0.205309 -76.413524,0.229282 -13.364173,0 -26.728344,0 -40.092516,0 0.06514,-0.283479 0.130271,-0.566959 0.195407,-0.850439 z"
       id="path8591"
       inkscape:connector-curvature="0" />
  </g>
  <g
     inkscape:label="Layer 1"
     inkscape:groupmode="layer"
     id="layer1"
     transform="translate(76.637451,418.60526)">
    <rect
       style="opacity:0;fill:#763434;fill-opacity:1;stroke:none;stroke-width:1.76499999;stroke-miterlimit:4;stroke-dasharray:none;stroke-opacity:1"
       id="rect7857"
       width="304.15271"
       height="275.55487"
       x="-343.97586"
       y="34.006786" />
    <path
       style="display:inline;fill:#000000;stroke-width:0.99999994"
       d="m 557.99805,-1284.2441 c 13.69602,-0.212 26.4127,2.8133 32.46484,19.3164 3.4676,9.6625 2.5897,10.5934 -3.71875,2.3925 16.76255,20.9872 14.54375,48.8533 19.34961,73.8594 -2.1984,26.2197 7.79104,51.8371 5.66797,77.8906 -4.6975,19.1617 -9.31106,38.6071 -19.4961,53.8536 -3.46011,19.1382 -17.67224,33.8257 -25.57421,51.4941 -14.91787,30.07181 -34.48849,58.16484 -43.17188,90.99805 -8.29814,25.02905 -21.85408,49.60126 -19.96484,76.73437 -5.30453,-13.38395 -8.26236,18.13423 -9.06446,25.77735 4.97681,18.62343 -6.7895,34.43341 1.39454,52.08203 -2.71903,10.86478 15.86259,25.98038 0.65234,24.37695 -8.07541,10.19781 9.18739,32.03604 7.94336,47.66602 -0.55673,19.93988 1.14886,42.00051 -12.22266,58.52929 -8.09427,13.71319 -13.9102,25.67309 -25.56445,31.87696 -9.21906,17.98945 -32.55873,20.02213 -44.10156,31.40429 1.26043,19.4194 16.52923,34.01628 19.47265,52.99805 -1.9669,-5.34319 -15.75328,-29.47722 -9.94336,-10.06836 6.39375,21.32183 19.83914,41.0864 16.9043,64.37891 0.63137,9.05155 1.35937,35.25825 -2.12891,11.0664 -5.05474,-16.48399 -7.0411,17.21872 0.94141,20.00586 44.82524,47.12553 27.89537,35.75384 33.97266,41.37891 6.56216,7.81228 10.22975,23.06513 2.26172,11.7168 -0.5963,1.73687 1.75425,11.01054 -2.99559,3.30224 -5.49536,-15.80892 -8.82066,-25.04652 -20.30324,-36.5542 -2.35892,4.49329 7.36402,26.86629 7.75781,12.45703 6.91121,18.11184 -10.75007,5.83991 -8.07617,-5.38476 -16.46313,-31.74716 -2.69454,20.62505 -11.50586,-8.14063 -4.71152,15.77053 -5.92608,-13.69883 -10.10938,-21.4082 -5.01218,-14.02991 -2.77094,-29.68204 -4.96484,-44.41797 -5.69692,7.83727 -5.15634,-40.81736 -1.54492,-16.07227 -0.96272,6.62979 4.60036,31.54614 6.51953,11.70899 2.80838,-27.99746 -12.70792,-52.60908 -20.28516,-78.52149 -15.4018,-19.82275 -4.77726,11.54512 2.05469,20.65235 4.98406,18.7646 -1.2897,-3.7502 -7.67578,-5.28711 -0.42954,15.30316 7.10141,30.8214 7.77148,45.24219 -11.25248,-24.68508 -3.29945,-55.94669 -20.98828,-77.94532 -15.71735,-11.75871 -9.40364,30.05297 -14.60351,22.20508 4.98962,-19.90159 5.68164,-46.18017 -15.32422,-57.0039 -14.63692,-18.18369 -33.94333,-31.89862 -53.87891,-43.70703 -23.49208,-5.14772 -43.79579,13.19873 -66.99414,13.94726 -21.03901,10.06711 -35.91629,30.22614 -59.8125,35.12305 -20.75257,7.58498 -38.53209,21.20496 -52.96289,37.70898 -13.42486,4.30152 -11.14978,43.50148 -23.9668,39.13477 1.72259,-8.84032 2.94377,-12.42041 2.88672,-1.38086 11.86759,-13.6907 7.9324,-35.7382 20.44141,-49.49024 -5.8147,20.31784 19.88156,-13.30139 0.62109,-5.51953 18.08349,-12.59807 -20.41555,-0.79846 -20.0332,10.58203 -12.69485,19.47587 -35.642159,35.82313 -38.617188,59.61914 5.955987,-0.66674 12.756132,-12.28592 6.763672,2.72266 -3.970224,6.53575 -11.116948,26.87845 -1.970703,8.93945 7.35846,-18.32356 9.863991,-38.97839 26.248049,-52.10937 6.0852,-6.31586 17.19271,-24.6061 20.14258,-23.41797 -7.99674,18.11191 -28.46967,27.85315 -34.941411,46.83594 6.675051,-2.71299 16.726771,-22.46622 8.708981,-6.40625 -12.597388,20.09469 -22.153023,41.87095 -31.046871,63.79297 -3.794196,-13.12702 -14.774709,19.52361 -19.03125,26.53906 -3.594361,2.56463 5.590665,-20.76226 8.976562,-27.68359 10.843321,-15.06626 16.296666,-30.45468 15.015625,-48.63477 6.236005,-20.58909 27.494034,-33.01436 37.253904,-51.76172 9.05162,-18.2643 28.76783,-18.50201 46.10742,-22.18164 13.36829,-5.61419 35.66925,-6.4523 41.05469,-20.93359 -8.44455,-1.01454 -34.60379,14.25183 -32.67578,6.73828 16.87956,-2.91477 37.31989,-7.81955 30.81055,-30.19141 4.08756,-11.20569 11.60727,-20.46027 12.17187,-35.59765 4.34722,-8.18174 1.87954,27.64398 4.47657,9.26171 2.03289,-9.47869 8.06933,-18.01422 14.79882,-26.46484 13.229,-33.07967 33.28813,-77.77469 36.81836,-114.26953 -0.76963,-18.79529 13.46704,-31.2922 14.58985,-50.09766 9.33367,-17.65406 15.90618,-35.98248 19.13671,-55.92187 12.38165,-20.08657 10.16398,-44.95484 19.85938,-65.99414 6.77165,-21.06995 12.54471,-42.28245 15.70117,-64.21485 7.68329,-23.3607 5.27253,-51.0042 19.54688,-71.3457 20.34328,-12.3177 8.95972,-38.4456 23.79492,-53.6113 15.81494,-5.4147 32.49383,-10.0829 36.54492,-29.8555 4.91218,-22.2402 28.03101,-15.4374 42.49023,-22.3105 0.70065,-21.8568 18.62924,-40.9004 41.85157,-30.3282 19.52288,5.1315 19.28967,-34.6984 43.50586,-31.164 4.57271,-0.4104 9.24716,-0.8415 13.8125,-0.9121 z"
       transform="scale(0.26458333)"
       id="path8558"
       inkscape:connector-curvature="0"
       sodipodi:nodetypes="ccccccccccccccccccccccccccccccccccccccccccccccccccccccccccccccccccccccccccccccc" />
    <path
       style="display:inline;fill:#4d4d4d;stroke-width:0.99999994"
       d="m 553.96484,-1279.0293 c -6.08811,-0.3299 -10.40698,9.4359 5.97657,4.6094 -1.72135,-3.2679 -3.94719,-4.4994 -5.97657,-4.6094 z"
       transform="scale(0.26458333)"
       id="path8556"
       inkscape:connector-curvature="0" />
    <path
       style="display:inline;fill:#4d4d4d;stroke-width:0.99999994"
       d="m 575.30078,-1275.4473 c -2.54571,0.074 -2.65692,2.2051 4.96289,5.4141 0.99644,0.823 3.58229,4.2626 4.68164,1.5117 -2.11933,-5.0183 -7.09881,-6.9999 -9.64453,-6.9258 z"
       transform="scale(0.26458333)"
       id="path8554"
       inkscape:connector-curvature="0" />
    <path
       style="display:inline;fill:#b48b08;fill-opacity:1;stroke-width:0.99999994"
       d="m 549.98633,-1272.6582 c -5.74535,-0.075 -11.21538,1.984 -14.66211,6.998 -17.31885,21.2463 23.41959,23.1878 34.98437,21.7168 10.84765,-14.3893 -5.6397,-28.5224 -20.32226,-28.7148 z"
       transform="scale(0.26458333)"
       id="path8552"
       inkscape:connector-curvature="0" />
    <path
       style="display:inline;fill:#4d4d4d;stroke-width:0.99999994"
       d="m 570.60352,-1270.1875 c -3.75907,0 -1.90736,6.5012 8.34179,5.3633 -3.76625,-4.0179 -6.63313,-5.3624 -8.34179,-5.3633 z"
       transform="scale(0.26458333)"
       id="path8550"
       inkscape:connector-curvature="0" />
    <path
       style="display:inline;fill:#4d4d4d;stroke-width:0.99999994"
       d="m 528.89844,-1264.6016 c -1.86726,0.3759 -9.36634,12.8253 -5.91797,12.5235 1.66242,-1.8572 3.09342,-3.9003 4.5293,-5.9317 1.98765,-5.0374 2.11933,-6.7389 1.38867,-6.5918 z"
       transform="scale(0.26458333)"
       id="path8548"
       inkscape:connector-curvature="0" />
    <path
       style="display:inline;fill:#d64e4e;fill-opacity:1;stroke-width:0.99999994"
       d="m 581.68359,-1255.373 c -5.12343,-0.058 -9.81662,3.9265 -8.34179,12.5292 -19.52372,13.403 -52.47469,-21.128 -61.13672,11.8848 1.7517,22.5566 32.76428,27.3192 43.8457,45.9531 6.01897,4.7248 13.78132,1.6135 19.39649,-2.0019 28.63407,-2.3956 23.33698,-37.5873 17.15625,-56.6367 -0.24392,-7.5693 -5.79649,-11.6707 -10.91993,-11.7285 z"
       transform="scale(0.26458333)"
       id="path8546"
       inkscape:connector-curvature="0" />
    <path
       style="display:inline;fill:#30f1f8;fill-opacity:1;stroke-width:0.99999994"
       d="m 491.00391,-1251.6797 c -6.14787,0.1536 -10.39238,3.6627 -4.26758,11.2676 2.13615,-13.7795 13.98499,1.0484 2.91797,5.4707 -0.98022,9.1198 14.04299,2.6164 0.7832,10.2383 4.67089,2.7963 -1.07361,19.7669 -0.59766,14.3301 -3.39507,-14.0699 -6.06577,13.385 -7.07226,-1.959 -6.75553,1.5418 -14.65057,12.199 -10.87891,-2.0489 3.77991,-8.8057 -6.53626,-33.0344 -7.66797,-10.9648 1.80881,7.7255 2.69708,34.5193 0.30664,12.5801 -4.89163,-23.8808 -7.07496,17.0489 -10.46093,27.6562 0.35933,1.2953 0.58504,3.8235 0.58789,8.043 -0.33676,27.3443 -7.21876,59.4515 14.33789,81.3301 16.42847,15.7185 28.58428,34.4683 37.88672,55.0781 13.73091,23.768 22.87741,50.60456 21.69336,78.33008 2.1643,18.0192 5.77841,-0.16241 12.10156,-3.11524 8.43424,-23.63376 35.84377,-40.78454 30.41992,-68.60354 -5.24481,-23.7176 -19.16733,-44.3433 -30.12305,-65.7461 -10.73408,-17.6583 -24.19154,-33.4122 -34.49804,-51.4336 -5.79428,-10.1484 -19.95868,-28.2335 -17.64258,-35.0605 1.25446,6.8029 19.20393,31.1643 10.42383,10.9863 -4.72823,-22.9063 8.09963,-45.2794 7.43164,-67.5156 -1.48422,-5.8145 -9.53378,-9.0169 -15.68164,-8.8633 z"
       transform="scale(0.26458333)"
       id="path8544"
       inkscape:connector-curvature="0" />
    <path
       style="display:inline;fill:#4d4d4d;stroke-width:0.99999994"
       d="m 474.75,-1249.8672 c -2.64994,0.079 -4.62506,2.5511 -3.07812,9.1856 -2.29871,4.2941 2.84492,8.6752 5.79492,4.2285 9.85702,-4.991 2.34218,-13.5641 -2.7168,-13.4141 z"
       transform="scale(0.26458333)"
       id="path8542"
       inkscape:connector-curvature="0" />
    <path
       style="display:inline;fill:#4d4d4d;stroke-width:0.99999994"
       d="m 486.4668,-1236.877 c -1.44253,-0.6322 -1.1276,17.8227 1.27539,4.1172 -0.51601,-2.8086 -0.9425,-3.9712 -1.27539,-4.1172 z"
       transform="scale(0.26458333)"
       id="path8540"
       inkscape:connector-curvature="0" />
    <path
       style="display:inline;fill:#4d4d4d;stroke-width:0.99999994"
       d="m 478.99023,-1234.4668 c -4.82566,0.3803 -7.31942,22.9229 3.95508,9.7539 v -4.7656 c -1.34375,-3.7414 -2.725,-5.0852 -3.95508,-4.9883 z"
       transform="scale(0.26458333)"
       id="path8538"
       inkscape:connector-curvature="0" />
    <path
       style="display:inline;fill:#4d4d4d;stroke-width:0.99999994"
       d="m 480.86914,-1219.2773 c -2.32712,0.016 -6.08328,1.7261 -6.11719,5.0117 l 3.66016,0.1367 c 5.68259,-3.4877 4.78415,-5.1647 2.45703,-5.1484 z"
       transform="scale(0.26458333)"
       id="path8536"
       inkscape:connector-curvature="0" />
    <path
       style="display:inline;fill:#30f1f8;fill-opacity:1;stroke-width:0.99999994"
       d="m 512.55859,-1215.1562 c -16.52296,8.3022 -10.15744,36.625 -3.62695,51.6113 9.67064,14.3907 -8.35526,-9.4707 -1.97266,5.5761 10.66247,22.2501 28.7029,40.0079 40.63086,61.6329 11.92078,18.9572 21.19165,39.5366 27.51563,60.9824 4.07354,4.1303 5.52175,-9.6347 7.85742,-11.0215 8.35846,-16.9611 20.22616,-34.134 21.0332,-53.3926 -7.04855,-30.2061 -24.64281,-56.8015 -46.93359,-78.0176 -14.36621,-12.8178 -25.25696,-31.6029 -44.50391,-37.371 z"
       transform="scale(0.26458333)"
       id="path8534"
       inkscape:connector-curvature="0" />
    <path
       style="display:inline;fill:#b48b08;fill-opacity:1;stroke-width:0.99999994"
       d="m 443.98633,-1214.5371 c -6.02044,0.014 -10.92962,3.8728 0.41992,5.4316 2.01419,1.7024 7.4755,4.617 8.3457,0.021 -1.14071,-4.0868 -5.15336,-5.4615 -8.76562,-5.4531 z"
       transform="scale(0.26458333)"
       id="path8532"
       inkscape:connector-curvature="0" />
    <path
       style="display:inline;fill:#d64e4e;fill-opacity:1;stroke-width:0.99999994"
       d="m 434.7168,-1210.6309 c -19.26116,4.6146 -25.3683,29.7022 -29.59571,46.2383 0.002,13.1423 7.48826,30.4912 3.16407,36.4707 4.67066,12.2385 11.51203,41.1066 25.73632,18.6914 7.79025,-3.4461 -19.68152,2.7571 -2.51562,-5.8925 22.83522,-4.3304 18.53839,-27.2799 17.57226,-44.5801 -1.38564,-5.8252 1.21708,-21.2493 3.31446,-25.4239 2.91844,-23.9818 -15.5907,-21.614 -17.67578,-25.5039 z"
       transform="scale(0.26458333)"
       id="path8530"
       inkscape:connector-curvature="0" />
    <path
       style="display:inline;fill:#2a2ae9;fill-opacity:1;stroke-width:0.99999994"
       d="m 596.61523,-1193.9434 c -7.60183,11.6832 -43.60974,8.3476 -22.8164,25.9258 10.35647,8.9256 19.42645,33.1842 27.11133,36.1543 l 0.55273,-3.8301 c 0.38706,-17.7697 2.93303,-49.0137 -4.84766,-58.25 z"
       transform="scale(0.26458333)"
       id="path8528"
       inkscape:connector-curvature="0" />
    <path
       style="display:inline;fill:#b48b08;fill-opacity:1;stroke-width:0.99999994"
       d="m 396.0332,-1169.9746 c -6.6153,10e-5 -16.05142,7.1438 -0.25976,7.0254 l 2.56054,-0.1992 2.3379,-1.045 c 0.79305,-4.3055 -1.63172,-5.7812 -4.63868,-5.7812 z"
       transform="scale(0.26458333)"
       id="path8526"
       inkscape:connector-curvature="0" />
    <path
       style="display:inline;fill:#d64e4e;fill-opacity:1;stroke-width:0.99999994"
       d="m 389.75781,-1157.0254 c -11.27558,0.1859 -22.94841,11.1387 -18.76367,25.584 -0.28176,19.2609 10.09389,36.6465 12.18945,55.3242 -14.98138,-10.1643 -0.53826,-37.0763 -21.39062,-38.7148 -15.20313,17.3602 -10.43376,45.7798 -16.77149,67.5781 -6.45363,8.3514 -1.93903,34.7373 8.69727,17.3047 15.94417,-12.7986 36.7614,-37.2979 54.3418,-48.1973 18.86626,-18.8267 -6.68618,-43.9997 -1.94727,-66.0137 -2.96654,-9.211 -9.59012,-12.9767 -16.35547,-12.8652 z"
       transform="scale(0.26458333)"
       id="path8524"
       inkscape:connector-curvature="0" />
    <path
       style="display:inline;fill:#2a2ae9;fill-opacity:1;stroke-width:0.99999994"
       d="m 449.58398,-1108.3145 c -14.3799,-0.2928 -24.91109,28.2199 -41.78906,30.8985 -16.97553,17.1087 -42.25146,39.7689 -59.09961,56.2344 -9.59572,16.0283 -21.09574,34.37204 -23.98437,52.87105 16.49489,-32.32065 53.50271,-44.05465 80.70117,-64.95895 2.18961,-2.1071 5.93322,-3.623 8.36719,-4.1641 1.72312,-2.8452 21.73584,-15.686 24.82812,-23.1211 12.75372,-11.9283 38.84566,-25.8502 18.48047,-44.998 -2.6374,-1.8751 -5.1237,-2.7133 -7.50391,-2.7618 z"
       transform="scale(0.26458333)"
       id="path8522"
       inkscape:connector-curvature="0" />
    <path
       style="display:inline;fill:#2a2ae9;fill-opacity:1;stroke-width:0.99999994"
       d="m 467.51367,-1081.9961 c -3.42704,-0.1739 -6.85828,2.0297 -10.0957,8.2422 -10.99132,12.0023 -26.61256,28.9608 -41.85352,36.1172 1.3146,0.099 0.5423,1.2368 -5.03125,3.7871 -22.95496,15.8689 -47.17127,30.2821 -68.19726,48.70702 -20.83602,18.62786 -24.37969,47.64255 -34.67774,72.23242 -2.31012,10.58638 -18.15261,38.22317 -10.80859,39.33594 1.1379,-2.58996 2.18504,-5.22154 3.0957,-7.90039 0.7834,-11.30661 3.26426,-5.9791 7.87696,-5.25781 16.84358,-9.69517 16.77222,-34.50227 36.2207,-40.37891 21.25186,-12.37013 40.99211,-27.55695 63.83984,-37.01953 7.7209,1.82888 38.87666,-7.25819 15.72657,-8.11523 -10.807,3.08148 -24.4352,0.46354 -5.88868,-2.50196 24.09219,-4.85975 46.08883,9.95715 67.34961,18.63086 13.50936,8.60561 34.54376,45.12761 42.50586,13.91211 1.86709,-22.09583 -7.70746,-42.76132 -9.99805,-64.58592 -7.48199,-21.3458 -14.16665,-44.1918 -31.85937,-59.5879 -5.13457,-6.2899 -11.66255,-15.2851 -18.20508,-15.6172 z"
       transform="scale(0.26458333)"
       id="path8520"
       inkscape:connector-curvature="0" />
    <path
       style="display:inline;fill:#30f1f8;fill-opacity:1;stroke-width:0.99999994"
       d="m 443.42383,-967.28906 c -2.32046,-0.0698 -4.75057,0.1 -7.3086,0.54883 -38.11407,3.57509 -67.03827,31.12403 -99.80468,47.61328 -10.01452,3.61081 -16.1374,32.31615 -0.45508,16.71093 5.1659,-9.04754 30.56585,-22.42368 10.33398,-6.86718 -22.0916,12.65828 -34.78003,35.12175 -48.25781,55.65429 -1.76948,1.25345 -1.23813,6.04588 1.88477,3.00782 15.47961,-22.15087 38.59826,-37.74482 63.29101,-47.92188 10.24692,-5.97838 6.60656,-18.89593 22.09375,-13.02148 9.32391,2.95683 28.25109,8.69953 31.05274,11.75781 -4.93482,10.63752 22.4046,8.86238 29.95507,14.47656 13.70453,6.16335 40.39727,7.4011 43.05469,23.15625 20.74674,17.55644 14.9769,-18.28083 20.13281,-29.93164 1.79982,0.58235 -1.37272,14.01479 2.33008,1.99805 7.94601,-18.08436 4.06753,-34.11977 -15.04297,-43.69531 -18.63546,-9.74979 -30.82869,-32.81154 -53.25976,-33.48633 z"
       id="path8518"
       transform="scale(0.26458333)"
       inkscape:connector-curvature="0" />
    <path
       style="display:inline;fill:#30f1f8;fill-opacity:1;stroke-width:0.99999994"
       d="m 380.47656,-907.41602 c -1.47849,0.0106 -3.54945,1.00436 -6.1875,3.59571 -6.29155,4.04859 -14.82512,11.02327 -1.76953,5.99219 1.75236,0.46088 3.28274,0.52801 4.5957,0.3164 -9.24843,3.2162 -18.28594,8.34516 -27.66406,10.44336 -17.94583,6.00442 -33.01603,18.14578 -42.76562,34.33398 -10.79653,18.06297 -37.93172,26.58198 -32.79102,51.83399 5.92479,22.62697 -5.34245,43.73664 -18.49414,61.43945 -4.83207,5.57452 -12.36941,25.04084 -18.20312,36.76367 2.84121,-3.53368 5.6147,-7.10039 8.07617,-10.76562 8.72772,-16.21032 16.85256,-33.45114 32.20508,-44.76172 21.39865,-10.0176 41.78965,-24.46766 65.4082,-30.69141 22.77826,-11.33249 45.39021,-23.02483 68.58203,-33.50195 -9.09684,0.11206 10.77737,-10.46764 12.13867,-11.44531 -0.0197,-0.0161 -0.0409,-0.0286 -0.0605,-0.0449 0.2091,-0.0811 0.18224,-0.0425 0.0605,0.0449 9.19909,7.51549 27.17235,-5.47138 29.62696,-9.62891 -14.18892,-15.10174 -24.26171,-34.6667 -40.24805,-47.38867 -14.54045,-6.86733 -34.14146,3.56497 -46.59375,0.36133 7.9266,-0.89651 38.38019,0.3547 29.39062,-9.43945 -5.62138,-0.84233 -11.04911,0.0542 -16.39453,1.70507 -0.66936,0.34091 -1.41879,0.6047 -2.26953,0.74219 0.75485,-0.26246 1.51156,-0.5081 2.26953,-0.74219 4.7575,-2.42302 4.97628,-9.19004 1.08789,-9.16211 z"
       transform="scale(0.26458333)"
       id="path8516"
       inkscape:connector-curvature="0" />
    <path
       style="display:inline;fill:#30f1f8;fill-opacity:1;stroke-width:0.99999994"
       d="m 397.18359,-904.91211 c -3.23924,-0.25226 -3.07488,2.61822 5.28711,5.71094 1.20696,1.58147 7.35094,1.26056 3.1836,-1.25781 -3.35737,-3.02675 -6.52716,-4.30177 -8.47071,-4.45313 z"
       transform="scale(0.26458333)"
       id="path8514"
       inkscape:connector-curvature="0" />
    <path
       style="display:inline;fill:#2a2ae9;fill-opacity:1;stroke-width:0.99999994"
       d="m 426.91797,-888.92969 c -1.94764,-0.0528 -3.7904,0.16369 -5.48633,0.72852 1.00229,6.91925 19.83926,25.9693 10.25781,9.20312 12.4594,14.01479 23.49732,30.30781 36.77344,44.125 4.52746,3.42562 24.85271,30.84048 21.85547,11.65235 -1.01987,-12.19257 3.83913,7.0349 5.85547,-8.35938 8.91772,-23.14375 -16.63668,-38.60774 -34.87891,-45.44336 -10.26608,-3.48746 -23.85973,-11.62135 -34.37695,-11.90625 z"
       transform="scale(0.26458333)"
       id="path8510"
       inkscape:connector-curvature="0" />
    <path
       style="display:inline;fill:#2a2ae9;fill-opacity:1;stroke-width:0.99999994"
       d="m 301.88672,-876.80078 c -2.01067,-0.0929 -5.22955,2.21029 -6.14063,8.24219 -6.19635,11.50136 -0.61515,7.88168 3.19727,-0.63477 5.94872,-4.31962 5.22212,-7.50215 2.94336,-7.60742 z"
       transform="scale(0.26458333)"
       id="path8508"
       inkscape:connector-curvature="0" />
    <path
       style="display:inline;fill:#2a2ae9;fill-opacity:1;stroke-width:0.99999994"
       d="m 295.48438,-857.30469 c -0.57499,-0.65422 -15.75257,15.74591 -4.81055,7.01172 l 0.57812,-0.91406 0.38672,-0.61133 c 3.023,-3.78323 4.0067,-5.30314 3.84571,-5.48633 z"
       transform="scale(0.26458333)"
       id="path8506"
       inkscape:connector-curvature="0" />
    <path
       style="display:inline;fill:#2a2ae9;fill-opacity:1;stroke-width:0.99999994"
       d="m 456.67773,-832.08008 c -10.53457,-0.28959 -21.94019,5.88822 -26.29882,16.69727 -4.00967,24.15379 24.83703,33.5096 39.04492,47.38867 6.90886,5.13536 18.87429,19.26136 4.77344,6.63672 -2.62492,2.59801 14.40485,23.33357 13.01171,10.66406 -4.24115,-21.63485 8.88379,-47.28122 -10.11718,-64.25391 -2.50202,-11.58741 -11.11886,-16.87729 -20.41407,-17.13281 z"
       transform="scale(0.26458333)"
       id="path8504"
       inkscape:connector-curvature="0" />
    <path
       style="display:inline;fill:#2a2ae9;fill-opacity:1;stroke-width:0.99999994"
       d="m 411.72852,-819.53125 c -1.10594,0.10129 -3.32602,0.8538 -7.04493,2.53711 -25.28677,10.66753 -51.01062,21.93868 -71.91992,39.91797 -8.43751,6.83146 -10.28436,3.40433 -1.35547,-2.75195 -21.30759,0.0431 -37.98451,16.57995 -54.75195,27.73046 -9.21221,5.6549 -22.95539,25.40415 -18.19531,30.33008 l 0.61914,-0.88672 0.37695,-0.53906 c 8.28228,-14.04843 22.30615,-34.41941 37.41602,-29.31055 18.25688,-5.30751 32.55935,-20.72493 52.34765,-20.3164 2.60795,-1.67978 -20.04114,12.63301 -1.35156,8.50781 17.32937,-8.52677 28.86365,-29.53406 51.05078,-26.45703 13.45187,4.11934 43.83295,-5.91905 24.3457,-20.44336 -19.99876,-0.6827 -32.91749,20.30522 -53.00195,21.25781 -1.14495,0.19087 24.90377,-12.52022 7.3086,-7.1875 -22.78315,10.63246 9.29363,-7.56643 17.19726,-9.65625 5.63243,-1.3724 21.75137,-13.17135 16.95899,-12.73242 z"
       transform="scale(0.26458333)"
       id="path8502"
       inkscape:connector-curvature="0" />
    <path
       style="display:inline;fill:#2a2ae9;fill-opacity:1;stroke-width:0.99999994"
       d="m 420.9375,-818.05078 c -2.66791,0.48896 -23.17733,12.63397 -8.25586,6.57031 7.6114,-5.16694 9.29983,-6.76164 8.25586,-6.57031 z"
       transform="scale(0.26458333)"
       id="path8500"
       inkscape:connector-curvature="0" />
    <path
       style="display:inline;fill:#d64e4e;fill-opacity:1;stroke-width:0.99999994"
       d="m 416.32227,-789.9707 c -3.43435,-0.12805 -7.36971,0.80742 -11.82032,3.11132 -21.3626,0.9978 -39.26614,12.35954 -56.4375,24.64844 -12.84604,9.87065 9.73266,29.14871 11.99414,42.85547 4.991,11.42393 10.40275,16.7764 9.8711,11.1582 4.72849,15.98219 15.77861,15.9301 21.8457,31.57032 11.73729,7.39854 11.33149,28.03939 22.25391,31.67383 6.90357,-2.26957 17.74427,-31.17767 16.23242,-21.25391 -2.66253,4.74576 -15.06991,30.2554 -7.87305,25.11328 5.78892,0.73096 -13.77881,24.66865 -15.07031,34.35547 -1.60078,19.04428 21.96367,25.90376 36.49414,19.16211 10.22185,1.47175 23.89067,-9.56941 19.34961,-14.20508 18.64981,-9.76641 25.69065,-25.47691 28.70312,-46.84375 1.11459,-12.842 7.33131,-28.55677 4.90039,-39.90234 -2.89776,20.0152 -3.20992,-14.17581 -4.11523,-21.04688 1.80813,-24.92201 -18.48688,-36.82222 -29.72266,-56.375 -7.21678,-20.49211 -37.7932,-23.59096 -23.98632,1.04102 2.83627,7.7882 4.34197,19.18535 0.5957,20.29101 0.29858,13.80322 6.45575,40.99776 4.92383,46.1875 -5.88843,-3.90115 -7.29117,19.63952 -12.01172,24.77344 -7.45017,19.27056 0.52247,-16.57205 3.40625,-21.82813 7.2181,-21.47406 4.17804,-44.72884 -1.14649,-66.26171 -0.23563,-13.7408 -6.1212,-27.76729 -18.38671,-28.22461 z"
       id="path8498"
       transform="scale(0.26458333)"
       inkscape:connector-curvature="0" />
    <path
       style="display:inline;fill:#2a2ae9;fill-opacity:1;stroke-width:0.99999994"
       d="m 271.86133,-789.42383 c -1.87138,0.15848 -6.88376,21.14698 0.082,10.48633 0.86018,-7.87674 0.59485,-10.54365 -0.082,-10.48633 z"
       transform="scale(0.26458333)"
       id="path8496"
       inkscape:connector-curvature="0" />
    <path
       style="display:inline;fill:#2a2ae9;fill-opacity:1;stroke-width:0.99999994"
       d="m 266.87305,-763.77344 c -0.92685,-0.49164 -12.3578,24.31723 -2.39258,7.82617 2.08772,-5.56665 2.65209,-7.68851 2.39258,-7.82617 z"
       transform="scale(0.26458333)"
       id="path8494"
       inkscape:connector-curvature="0" />
    <path
       style="display:inline;fill:#2a2ae9;fill-opacity:1;stroke-width:0.99999994"
       d="m 326.08203,-761.76562 c -3.00372,-0.02 -5.74562,1.97632 -7.77148,6.99218 8.34987,7.69901 21.85842,20.766 30.42968,22.92774 l -0.83789,-2.38282 c -1.443,-9.26909 -12.80914,-27.47705 -21.82031,-27.5371 z"
       transform="scale(0.26458333)"
       id="path8492"
       inkscape:connector-curvature="0" />
    <path
       style="display:inline;fill:#2a2ae9;fill-opacity:1;stroke-width:0.99999994"
       d="m 492.49023,-753.39844 c -1.96751,0.25596 -3.0817,5.58568 2.22461,9.51172 l 1.23047,-0.83398 c -0.36437,-6.65207 -2.10888,-8.85287 -3.45508,-8.67774 z"
       transform="scale(0.26458333)"
       id="path8490"
       inkscape:connector-curvature="0" />
    <path
       style="display:inline;fill:#2a2ae9;fill-opacity:1;stroke-width:0.99999994"
       d="m 306.02344,-751.84961 c -10.19594,4.45905 -20.01291,11.41657 -26.07813,20.87109 7.84968,-5.48092 29.33132,-15.65202 26.07813,-20.87109 z"
       transform="scale(0.26458333)"
       id="path8488"
       inkscape:connector-curvature="0" />
    <path
       style="display:inline;fill:#2a2ae9;fill-opacity:1;stroke-width:0.99999994"
       d="m 317.46484,-750.79688 c -7.45445,-0.44523 -18.67232,14.44498 -4.17968,12.35352 -5.52882,-12.02079 13.08019,10.95567 9.28906,-5.59961 -0.55681,-4.75325 -2.62456,-6.60549 -5.10938,-6.75391 z"
       transform="scale(0.26458333)"
       id="path8486"
       inkscape:connector-curvature="0" />
    <path
       style="display:inline;fill:#2a2ae9;fill-opacity:1;stroke-width:0.99999994"
       d="m 286.50977,-748.3125 c -1.529,0.0647 -4.08992,1.32313 -7.94727,4.4082 -7.67826,2.97838 -22.10421,27.39502 -5.01758,13.33789 l 2.00977,-1.67187 c 8.72247,-1.31935 16.41579,-16.30544 10.95508,-16.07422 z"
       transform="scale(0.26458333)"
       id="path8484"
       inkscape:connector-curvature="0" />
    <path
       style="display:inline;fill:#2a2ae9;fill-opacity:1;stroke-width:0.99999994"
       d="m 301.44336,-740.62695 c -4.53433,-0.0212 -10.99735,1.92358 -7.82227,6.24609 l 4.07422,-0.69336 c 10.88792,-3.54399 8.28238,-5.53152 3.74805,-5.55273 z"
       transform="scale(0.26458333)"
       id="path8482"
       inkscape:connector-curvature="0" />
    <path
       style="display:inline;fill:#d64e4e;fill-opacity:1;stroke-width:0.99999994"
       d="m 319.10742,-736.17383 c -3.54899,0.12916 -6.64126,2.19969 -8.68164,7.27539 4.24775,9.6714 31.3333,6.8215 28.45117,13.71094 -8.22809,-1.19592 -28.11997,-3.11278 -30.56836,-6.12109 7.82128,-7.96037 -10.97088,-17.24388 -4.98632,-3.56055 -5.60962,8.83053 -20.25397,-5.5761 -30.11719,3.38281 -21.39723,4.50909 -36.2427,21.9984 -47.45313,39.50195 -6.10418,17.18865 9.78134,20.99407 15.82422,4.94922 16.68693,-5.24042 21.91857,-24.6795 39.8711,-14.78515 16.79297,9.21422 42.07845,-1.48264 54.41796,11.26953 -11.73396,3.94783 1.66771,-3.97245 -11.50976,-3.23242 -20.60528,1.05139 -42.74367,-12.19252 -61.74414,0.61914 -10.27421,20.5265 -42.31636,18.105 -47.92188,42.16211 6.13505,15.15847 31.22499,-4.98393 44.06836,-6.4375 11.66511,-6.05636 8.66666,-1.17473 0.4961,3.17773 10.84696,0.94299 23.6853,-9.86275 19.28515,-12.66992 18.96378,-0.44198 43.59078,-3.83081 56.22071,13.04883 15.37879,11.63482 30.64943,23.78666 46.79687,34.21093 4.66541,1.92556 3.98835,-4.18804 3.16211,-6.52148 -10.31915,3.49822 -5.65279,-22.63246 -17.2832,-26.16016 -5.96821,-8.2939 -26.43191,-22.1153 -21.39063,-27.83203 27.52526,26.42786 34.68472,21.86937 39.14649,46.21875 5.58839,-11.84253 12.83694,11.89353 16.81054,16.2461 0.0876,-1.65535 0.47938,-3.33192 1.25391,-4.20703 0.59323,-1.44328 1.12839,-2.56053 1.62695,-3.4961 0.0753,-2.76564 0.0552,-6.28263 -0.082,-10.76562 0.2109,-11.8379 -3.84938,-14.99186 -7.44726,-15.85352 -4.15068,-9.89034 -8.10863,-17.38027 -11.45313,-16.99805 1.1125,-26.55583 -26.15356,-39.57565 -40.59766,-57.76171 -5.07709,-7.34367 -17.12566,-19.70116 -26.19531,-19.3711 z"
       transform="scale(0.26458333)"
       id="path8480"
       inkscape:connector-curvature="0" />
    <path
       style="display:inline;fill:#4d4d4d;stroke-width:0.99999994"
       d="m 404.88281,-615.42383 c -0.21944,8.05828 -1.28625,9.44981 -2.88086,7.70313 -0.19925,3.76313 1.18863,7.41097 3.33594,1.25586 4.53154,-7.52127 3.82287,-16.98676 -0.45508,-8.95899 z"
       transform="scale(0.26458333)"
       id="path8478"
       inkscape:connector-curvature="0" />
    <path
       style="display:inline;fill:#2a2ae9;fill-opacity:1;stroke-width:0.99999994"
       d="m 295.98242,-733.56055 c -7.99458,-0.1678 -19.07409,8.91434 -1.00976,8.29688 2.29211,0.44122 4.85076,0.68507 6.97265,-0.55469 0.66733,-5.67844 -2.32899,-7.66591 -5.96289,-7.74219 z"
       transform="scale(0.26458333)"
       id="path8476"
       inkscape:connector-curvature="0" />
    <path
       style="display:inline;fill:#4d4d4d;stroke-width:0.99999994"
       d="m 351.92578,-730.4082 c -0.73639,0.74436 7.57353,19.89433 5.53906,10.82031 l -1.36914,-4.00781 -0.99804,-2.08594 c -2.05009,-3.70144 -2.96569,-4.93498 -3.17188,-4.72656 z"
       transform="scale(0.26458333)"
       id="path8474"
       inkscape:connector-curvature="0" />
    <path
       style="display:inline;fill:#4d4d4d;stroke-width:0.99999994"
       d="m 361.49023,-709.09961 c -1.11821,-0.17303 -1.06143,1.66222 1.58008,6.97656 2.08079,2.40537 4.24517,5.70653 7.87696,5.71485 -0.90292,-4.71347 -7.32227,-12.36108 -9.45704,-12.69141 z"
       transform="scale(0.26458333)"
       id="path8472"
       inkscape:connector-curvature="0" />
    <path
       style="display:inline;fill:#4d4d4d;stroke-width:0.99999994"
       d="m 256.58203,-683.01172 c -1.88834,0.139 -4.80713,1.68614 -8.41992,5.48828 -9.07765,7.02682 -13.37794,16.00987 2.37891,5.01367 9.36691,-4.29891 10.19535,-10.80775 6.04101,-10.50195 z"
       transform="scale(0.26458333)"
       id="path8470"
       inkscape:connector-curvature="0" />
    <path
       style="display:inline;fill:#4d4d4d;stroke-width:0.99999994"
       d="m 211.81055,-651.69336 c -11.81953,0.55071 -11.51649,33.59788 -4.26563,11.50586 1.78806,-3.75757 3.47879,-7.56937 4.83789,-11.50586 -0.19374,-0.008 -0.38465,-0.009 -0.57226,0 z"
       transform="scale(0.26458333)"
       id="path8468"
       inkscape:connector-curvature="0" />
    <path
       style="display:inline;fill:#4d4d4d;stroke-width:0.99999994"
       d="m 213.10742,-646.89844 c -0.52446,-0.13739 -1.75661,1.65835 -3.93554,6.7168 -0.0956,1.62663 -9.96769,16.336 -1.96876,9.98828 3.95673,-3.3807 7.2446,-16.35397 5.9043,-16.70508 z"
       transform="scale(0.26458333)"
       id="path8466"
       inkscape:connector-curvature="0" />
    <path
       style="display:inline;fill:#4d4d4d;stroke-width:0.99999994"
       d="m 410.60742,-640.63281 c -3.24886,-0.61442 -1.9344,14.91626 3.08399,8.02343 l 0.73632,-2.86328 c -1.64438,-3.55045 -2.91063,-4.98812 -3.82031,-5.16015 z"
       transform="scale(0.26458333)"
       id="path8464"
       inkscape:connector-curvature="0" />
    <path
       style="display:inline;fill:#4d4d4d;stroke-width:0.99999994"
       d="m 227.61523,-634.05469 c -7.25249,-0.25849 -14.7737,11.51825 2.14063,1.42383 l 0.87891,-0.47656 c -0.95312,-0.627 -1.98347,-0.91034 -3.01954,-0.94727 z"
       transform="scale(0.26458333)"
       id="path8462"
       inkscape:connector-curvature="0" />
    <path
       style="display:inline;fill:#4d4d4d;stroke-width:0.99999994"
       d="m 228.54492,-630.26367 c -3.07415,0.12067 -25.40708,14.35007 -8.72851,8.39453 8.18687,-6.32765 9.93144,-8.44175 8.72851,-8.39453 z"
       transform="scale(0.26458333)"
       id="path8460"
       inkscape:connector-curvature="0" />
    <path
       style="display:inline;fill:#4d4d4d;stroke-width:0.99999994"
       d="m 389.32422,-612.10352 c -3.81486,0.28868 -4.17375,11.65663 6.62109,8.84571 -2.4398,-6.81932 -4.88706,-8.97692 -6.62109,-8.84571 z"
       transform="scale(0.26458333)"
       id="path8458"
       inkscape:connector-curvature="0" />
    <path
       style="display:inline;fill:#4d4d4d;stroke-width:0.99999994"
       d="m 403.00977,-595.68164 c -10.21259,-0.34178 3.59755,33.05845 4.8164,16.98828 -4.72819,-8.24194 6.88148,-4.92219 -0.83594,-15.70703 -1.61115,-0.84965 -2.92399,-1.24589 -3.98046,-1.28125 z"
       transform="scale(0.26458333)"
       id="path8456"
       inkscape:connector-curvature="0" />
    <path
       style="display:inline;fill:#4d4d4d;stroke-width:0.99999994"
       d="m 156.1543,-589.62695 c -3.2192,-0.13686 -11.83709,3.77709 -8.85938,9.40039 l 2.59375,-2.11328 2.55664,-2.16016 c 5.62787,-3.50427 5.6405,-5.04484 3.70899,-5.12695 z"
       transform="scale(0.26458333)"
       id="path8454"
       inkscape:connector-curvature="0" />
    <path
       style="display:inline;fill:#4d4d4d;stroke-width:0.99999994"
       d="m 424.14648,-583.13672 c -7.97131,0.13181 -14.7132,4.18404 -2.91796,7.99024 2.49758,-0.43416 5.02656,-1.1948 7.58984,-0.72266 7.29796,4.21421 20.28983,-9.72199 6.37891,-3.64844 -2.36206,-2.68162 -6.87533,-3.68818 -11.05079,-3.61914 z"
       transform="scale(0.26458333)"
       id="path8452"
       inkscape:connector-curvature="0" />
    <path
       style="display:inline;fill:#000000;stroke-width:0.99999994"
       d="m 116.5332,-553.13477 c -1.63931,10.99688 -11.33698,38.3293 -17.386716,54.47461 -5.1866,5.24338 8.978826,-30.97671 -1.667968,-8.02148 -5.072833,10.52719 -7.410237,22.24295 -13.533204,32.28516 7.660763,-27.46734 22.668068,-52.14319 32.587888,-78.73829 z"
       transform="scale(0.26458333)"
       id="path8450"
       inkscape:connector-curvature="0" />
    <path
       style="display:inline;fill:#000000;stroke-width:0.99999994"
       d="m 441.06641,-481.35156 c -0.69721,0.0474 -1.50154,2.31489 -2.32227,8.08203 -1.70729,7.87132 -2.74219,30.56169 1.95508,31.15039 0.87904,-4.72328 1.03991,-9.53934 1.30859,-14.32422 2.27832,-5.21819 1.15023,-25.05043 -0.9414,-24.9082 z"
       transform="scale(0.26458333)"
       id="path24-3-2"
       inkscape:connector-curvature="0" />
    <path
       style="opacity:1;fill:#30f1f8;fill-opacity:1;stroke:none;stroke-width:3.36929607;stroke-miterlimit:4;stroke-dasharray:none;stroke-opacity:1"
       d="m 410.76765,-647.29207 c -2.88675,-2.54101 -4.13205,-4.62857 -7.70639,-12.91864 -3.54056,-8.21172 -5.46926,-11.37284 -8.98787,-14.731 -1.54787,-1.47729 -2.81431,-2.93864 -2.81431,-3.24745 0,-1.71903 -4.74638,-8.09203 -10.53078,-14.13974 -5.05442,-5.28451 -6.91312,-7.61805 -8.34057,-10.47136 -1.01022,-2.01932 -1.83678,-3.98189 -1.83678,-4.36125 0,-0.37937 -0.22728,-0.68976 -0.50507,-0.68976 -0.27779,0 -0.50508,0.34093 -0.50508,0.75762 0,1.52796 -1.53313,0.6899 -3.4649,-1.89404 -2.37404,-3.17552 -5.45222,-9.2048 -6.4981,-12.72793 -0.97728,-3.29207 -2.77449,-6.82371 -7.20959,-14.16738 -6.65414,-11.01795 -8.51554,-15.79881 -7.85811,-20.18289 0.50244,-3.35048 2.55331,-5.39451 11.31296,-11.27523 17.16515,-11.52368 28.70362,-16.53472 43.2647,-18.78942 3.33351,-0.51617 7.76135,-1.55068 9.83966,-2.29891 4.96812,-1.78863 10.26242,-1.63424 13.73444,0.40049 6.42212,3.76362 10.3321,11.38225 11.56455,22.53363 0.26493,2.39719 1.05843,6.95763 1.76333,10.13432 2.33634,10.52901 3.3096,18.11143 3.60597,28.09328 0.41986,14.14116 -0.587,21.39817 -4.68969,33.8013 -2.58446,7.81325 -5.07486,18.04572 -5.58556,22.94975 -0.28774,2.76303 -0.89682,4.25523 -4.12319,10.10152 -5.80376,10.5166 -9.32208,15.19335 -11.42994,15.19335 -0.35626,0 -1.70612,-0.93161 -2.99968,-2.07026 z"
       id="path8562"
       inkscape:connector-curvature="0"
       transform="scale(0.26458333)" />
    <path
       style="fill:none;stroke:#000000;stroke-width:0.26458332px;stroke-linecap:butt;stroke-linejoin:miter;stroke-opacity:1"
       d="m 14.983306,-121.26673 -0.800193,2.06677"
       id="path8568"
       inkscape:connector-curvature="0"
       sodipodi:nodetypes="cc" />
    <path
       style="color:#000000;font-style:normal;font-variant:normal;font-weight:normal;font-stretch:normal;font-size:medium;line-height:normal;font-family:sans-serif;font-variant-ligatures:normal;font-variant-position:normal;font-variant-caps:normal;font-variant-numeric:normal;font-variant-alternates:normal;font-feature-settings:normal;text-indent:0;text-align:start;text-decoration:none;text-decoration-line:none;text-decoration-style:solid;text-decoration-color:#000000;letter-spacing:normal;word-spacing:normal;text-transform:none;writing-mode:lr-tb;direction:ltr;text-orientation:mixed;dominant-baseline:auto;baseline-shift:baseline;text-anchor:start;white-space:normal;shape-padding:0;clip-rule:nonzero;display:inline;overflow:visible;visibility:visible;opacity:1;isolation:auto;mix-blend-mode:normal;color-interpolation:sRGB;color-interpolation-filters:linearRGB;solid-color:#000000;solid-opacity:1;vector-effect:none;fill:#000000;fill-opacity:1;fill-rule:nonzero;stroke:none;stroke-width:0.26458332px;stroke-linecap:butt;stroke-linejoin:miter;stroke-miterlimit:4;stroke-dasharray:none;stroke-dashoffset:0;stroke-opacity:1;color-rendering:auto;image-rendering:auto;shape-rendering:auto;text-rendering:auto;enable-background:accumulate"
       d="m 14.054688,-119.22852 c -7.08e-4,0.003 -0.0012,0.003 -0.002,0.006 l -0.200304,1.01475 c -2.077249,9.25944 -2.391012,9.89259 -2.911635,12.93295 -0.52143,3.04507 -1.0560234,7.526923 -1.0560234,7.526923 v 0.169922 l 0.7578124,-0.195313 3.669922,-21.398442 0.002,-0.006 z"
       id="path8570"
       inkscape:connector-curvature="0"
       sodipodi:nodetypes="cccscccccc" />
    <path
       style="display:inline;fill:url(#linearGradient8963);fill-opacity:1;stroke-width:0.26458332"
       d="m 14.295239,-119.06974 -3.652493,21.296376 -0.09972,0.02585 c 1.290479,-2.65e-4 115.486234,-0.03221 117.463624,-5.29e-4 -1.4315,-3.707547 -3.42789,-7.468847 -6.09367,-10.140467 -0.62415,1.18885 1.94839,7.10837 2.05258,3.29592 1.82859,4.792092 -2.8443,1.54514 -2.13683,-1.42472 -4.35586,-8.39977 -0.71294,5.45705 -3.04427,-2.15387 -1.24658,4.17262 -1.56792,-3.62448 -2.67475,-5.66425 -1.32614,-3.71208 -0.73316,-7.85338 -1.31363,-11.75226 -1.5073,2.07361 -1.36427,-10.79958 -0.40875,-4.25245 -0.25472,1.75414 1.21719,8.34658 1.72495,3.098 0.74305,-7.40766 -3.3623,-13.91948 -5.3671,-20.77547 -4.07506,-5.24477 -1.264,3.05464 0.54364,5.46426 1.31868,4.9648 -0.34123,-0.99224 -2.03089,-1.39888 -0.11367,4.04896 1.87891,8.15482 2.05621,11.97033 -2.97723,-6.53127 -0.87299,-14.80256 -5.55316,-20.62303 -4.15853,-3.11116 -2.48806,7.95151 -3.86384,5.8751 1.32016,-5.26564 1.50326,-12.21852 -4.054526,-15.08229 -3.872707,-4.81111 -8.980832,-8.43984 -14.255486,-11.56415 -6.215591,-1.362 -11.587612,3.49216 -17.725522,3.69021 -5.566568,2.66359 -9.502854,7.99733 -15.82539,9.29298 -5.490766,2.00685 -10.194952,5.61047 -14.013101,9.97717 -3.551978,1.1381 -2.950051,11.50975 -6.341215,10.3544 0.455771,-2.33901 0.77888,-3.28623 0.763772,-0.36535 3.139969,-3.62233 2.098781,-9.45573 5.408454,-13.09429 -1.538446,5.37576 5.26034,-3.51933 0.164333,-1.46038 4.784592,-3.33323 -5.401601,-0.21125 -5.300451,2.79983 -3.358833,5.15299 -9.430306,9.47821 -10.217441,15.77423 1.575832,-0.1764 3.375051,-3.25065 1.789536,0.72037 -1.050449,1.72925 -2.941347,7.11159 -0.521415,2.36523 1.946937,-4.8481 2.60985,-10.31303 6.94481,-13.78727 1.610043,-1.67107 4.548902,-6.51037 5.32937,-6.19601 -2.115794,4.79212 -7.532582,7.36948 -9.244912,12.39201 1.76612,-0.71781 4.425632,-5.94418 2.304256,-1.69498 -3.333062,5.31672 -5.861314,11.07835 -8.214492,16.87855 -0.891434,-3.08418 -3.27951,3.37286 -4.592479,6.15983 z"
       id="path8917"
       inkscape:connector-curvature="0" />
  </g>
</svg>
