<?xml version="1.0" encoding="UTF-8" standalone="no"?>
<!-- Created with Inkscape (http://www.inkscape.org/) -->

<svg
   xmlns:dc="http://purl.org/dc/elements/1.1/"
   xmlns:cc="http://creativecommons.org/ns#"
   xmlns:rdf="http://www.w3.org/1999/02/22-rdf-syntax-ns#"
   xmlns:svg="http://www.w3.org/2000/svg"
   xmlns="http://www.w3.org/2000/svg"
   xmlns:sodipodi="http://sodipodi.sourceforge.net/DTD/sodipodi-0.dtd"
   xmlns:inkscape="http://www.inkscape.org/namespaces/inkscape"
   width="300mm"
   height="300mm"
   viewBox="0 0 300 300"
   version="1.1"
   id="svg8"
   inkscape:version="0.92.1 r15371"
   sodipodi:docname="icarus_bottle.svg">
  <defs
     id="defs2" />
  <sodipodi:namedview
     id="base"
     pagecolor="#ffffff"
     bordercolor="#666666"
     borderopacity="1.0"
     inkscape:pageopacity="0.0"
     inkscape:pageshadow="2"
     inkscape:zoom="0.35"
     inkscape:cx="96.833042"
     inkscape:cy="-88.157378"
     inkscape:document-units="mm"
     inkscape:current-layer="layer1"
     showgrid="false"
     inkscape:window-width="2560"
     inkscape:window-height="1365"
     inkscape:window-x="-9"
     inkscape:window-y="-9"
     inkscape:window-maximized="1" />
  <metadata
     id="metadata5">
    <rdf:RDF>
      <cc:Work
         rdf:about="">
        <dc:format>image/svg+xml</dc:format>
        <dc:type
           rdf:resource="http://purl.org/dc/dcmitype/StillImage" />
        <dc:title></dc:title>
      </cc:Work>
    </rdf:RDF>
  </metadata>
  <g
     inkscape:label="Layer 1"
     inkscape:groupmode="layer"
     id="layer1"
     transform="translate(-110.30482,44.870146)">
    <path
       style="fill:#000000;stroke-width:0.11373118"
       d="m 297.13621,223.22274 c -1.62138,-0.0773 -3.21616,-0.42111 -4.7805,-0.82825 -1.16648,-0.10589 -2.30868,0.264 -3.47308,0.24184 -0.94956,-0.26203 -0.64242,-1.43762 -0.34674,-1.88858 -0.68576,-0.52293 -1.90997,-0.54071 -1.83283,-1.71935 -0.32311,-1.95778 -0.47382,-3.95694 -1.09619,-5.85276 -0.0344,-0.93755 0.34182,-1.8676 0.0394,-2.79806 -0.28911,-2.25995 -0.32655,-4.5432 -0.52814,-6.81044 -0.0197,-2.06261 -0.11476,-4.12249 -0.23888,-6.18041 -0.0344,-1.27458 -0.0197,-2.54976 -0.0246,-3.82464 0.6598,-0.51662 0.76683,-1.36029 0.70733,-2.13667 0.21918,-1.12717 -0.88696,-1.81456 -0.77097,-2.89597 -0.14825,-2.92897 -0.005,-5.8666 -0.16106,-8.79562 -0.0567,-0.7225 -0.36742,-1.41196 -0.31965,-2.15362 -0.0562,-3.27059 0.0493,-6.54379 -0.0818,-9.81329 -0.10983,-1.00385 -0.5414,-1.97808 -0.45806,-3.01453 -0.16204,-5.09849 -0.36004,-10.19624 -0.59725,-15.29139 -0.0394,-1.00162 0.0783,-2.03585 -0.13742,-3.01457 -0.53395,-0.93109 -0.7487,-1.96635 -0.77047,-3.02895 -0.12609,-1.22149 -0.51913,-2.40476 -0.44329,-3.64295 -0.0394,-4.33216 0.0498,-8.6651 0.14924,-12.99582 -0.0197,-1.26292 0.3098,-2.5052 0.29454,-3.75791 -0.32064,-0.95552 -10e-4,-2.29089 -0.34478,-3.03841 -1.06097,-0.23986 -0.92656,-1.5907 -0.22558,-2.16041 0.772,-1.00985 1.76432,-1.82997 2.50593,-2.86489 -0.0296,-1.25966 1.52021,-1.62345 1.90356,-2.7222 0.64522,-1.10082 2.01762,-0.96685 2.94516,-1.60557 0.60228,-0.91528 2.48013,-0.54824 1.94611,0.68856 -0.22016,0.62956 -1.60103,1.1022 -0.40781,1.54061 0.80618,1.16849 -0.93824,1.86361 -1.84662,2.04802 -1.61799,0.71688 -2.34969,2.46386 -2.81613,4.05535 -0.52908,1.69836 -0.9635,3.44637 -1.19198,5.20546 0.55646,4.72969 1.44121,9.41981 1.85183,14.16595 0.28666,0.8749 -0.30389,1.31813 -0.88218,1.83696 -0.0246,5.5208 -0.21032,11.07184 0.57888,16.5546 0.35217,3.5046 0.62262,7.019 1.16298,10.50187 0.56779,3.95773 1.05609,7.92659 1.39861,11.91042 0.50957,4.98964 1.28074,10.00795 0.85957,15.03296 -0.0344,0.80865 -0.74211,1.39274 -0.54603,2.2167 0.0611,4.52243 -10e-4,9.05061 0.25169,13.56752 0.27976,2.36033 0.24282,4.7781 0.82293,7.09051 0.60848,0.99896 1.56853,1.92626 2.6363,2.38294 1.19376,0.0665 2.37624,-0.24775 3.56124,-0.37137 2.45396,-0.35512 4.93546,-0.73369 7.42114,-0.52914 0.63085,0.26105 0.75777,1.52909 1.64512,0.8156 1.96715,-0.32409 3.8741,0.42653 5.77214,0.81622 1.87189,-0.22312 3.6761,-0.83302 5.55911,-0.99787 3.42727,-0.41571 6.90099,-0.0498 10.32367,-0.49372 0.93937,-0.42407 1.93296,-0.20342 2.73452,0.20588 0.8807,-0.14037 1.46366,0.85012 1.72028,1.22642 1.30109,-0.52717 2.42821,-1.39984 3.646,-2.08881 2.2139,-1.44465 4.72702,-2.41544 6.76607,-4.12292 0.43442,-0.72107 0.24086,-2.42737 1.57277,-2.25616 0.19751,-0.67956 0.065,-1.54381 -0.005,-2.17879 -1.26932,0.56337 -1.74131,-0.99964 -1.452,-1.96576 0.097,-3.03742 0.0995,-6.07854 0.005,-9.11621 -0.53529,-0.23002 -1.5577,0.47382 -1.78357,-0.57233 -0.29996,-1.02462 0.9239,-1.59015 1.66561,-1.06162 0.0941,-1.25798 0.10097,-2.56266 0.17189,-3.83833 0.22411,-4.24783 0.22755,-8.50133 0.21376,-12.75364 0.57558,-0.4758 0.80964,-1.22273 0.67428,-1.94558 -0.001,-1.11771 -0.0832,-2.2997 -0.72767,-3.25438 -0.46397,-0.96897 1.14397,-1.12727 0.934,-1.94675 -0.10639,-2.26981 -0.57169,-4.49972 -0.8808,-6.74578 0.89646,-1.0628 0.25907,-2.48111 0.20489,-3.70136 -0.35808,-3.34581 -0.46003,-6.72082 -0.46397,-10.07962 -0.14825,-0.98783 -0.72304,-1.8772 -0.66374,-2.90094 -0.41521,-5.53927 -0.74407,-11.08464 -1.00059,-16.63321 -0.0443,-1.72669 -0.27729,-3.44677 -0.81224,-5.09288 -0.31818,-1.15318 -0.66079,-2.3034 -1.12771,-3.40648 -0.77629,-0.74476 -0.48762,-1.92823 -0.85307,-2.85548 -0.0197,-1.25779 -1.36394,-2.00142 -1.30272,-3.20355 0.39157,-0.97952 0.14973,-1.97488 -0.21967,-2.91641 -0.36448,-1.23164 -0.98305,-2.41191 -1.98556,-3.24079 -0.50451,-0.9144 -1.30956,-1.82387 -2.43722,-1.38714 -1.30567,-0.17189 -1.21588,-1.92803 -2.37678,-2.22577 -1.18037,0.0828 -2.10954,-1.6897 -0.67763,-2.06708 0.82169,-0.14185 1.58867,0.36005 2.30039,0.71325 1.06914,0.64187 1.94886,1.56572 3.11563,2.05102 0.94592,0.48022 1.93144,0.93552 2.70787,1.67654 0.46545,1.02945 1.16436,2.04398 2.06762,2.70713 1.01128,0.90854 0.98143,2.36999 1.25395,3.60478 0.30143,2.07584 0.57927,4.15602 1.02108,6.20803 0.26449,1.49288 0.47973,2.99674 0.84819,4.46893 0.8518,1.14741 0.68547,2.6563 0.93267,3.99664 0.81791,6.45528 1.31045,12.94519 2.00399,19.41358 0.0532,0.95458 0.3167,1.86725 0.45018,2.79543 -0.12955,1.09777 -0.15367,2.21253 0.1384,3.28877 0.12412,0.87775 -0.22411,1.74141 -0.16205,2.62715 0.0601,3.59797 -0.066,7.20315 0.19012,10.79546 0.097,1.76909 0.55923,3.50385 0.54519,5.27989 -0.60134,0.91006 -0.55745,2.05585 -0.7523,3.09131 -0.46889,5.21996 -0.20736,10.47444 0.17288,15.69108 0.25711,3.33837 0.97621,6.62895 1.10905,9.97801 -0.39108,0.82776 -1.01232,1.65487 -0.55297,2.5999 0.33246,2.54642 0.86922,5.09993 0.73284,7.6783 -0.005,1.24149 -1.23558,1.57903 -2.22444,1.2934 -1.04955,0.10885 -0.77673,1.54115 -1.64734,1.98818 -1.46446,1.26355 -3.48194,1.44712 -5.30679,1.79456 -1.51248,0.23493 -3.07801,0.40535 -4.42105,1.20336 -1.53814,0.77082 -3.29956,1.66443 -5.05491,1.12145 -0.7885,-0.42554 -1.44953,-0.98211 -2.37807,-0.56178 -2.62029,0.3896 -5.28841,0.15564 -7.91146,0.46643 -1.59217,0.36251 -3.24109,0.20638 -4.85385,0.40486 -3.03413,0.18421 -6.06998,-0.0931 -9.09977,-0.18765 -1.00659,0.35758 -1.97925,0.79929 -3.07785,0.60035 -1.23253,0.005 -2.46761,-0.0197 -3.6962,-0.10786 z m 3.82465,-2.0489 c 0.39699,-0.74974 2.08397,-0.33542 2.14524,-0.73383 -1.47066,-0.1192 -2.94576,0.12658 -4.41209,0.23987 -0.75654,0.10244 -2.21755,0.23296 -2.50302,0.48613 1.27813,0.23987 2.59119,0.16155 3.88404,0.24676 0.30735,-0.01 0.62306,-0.0724 0.88583,-0.23888 z m 43.48552,-19.45997 c -0.14629,-0.79161 -0.24726,1.01827 -0.003,0.0394 z M 287.8778,188.39514 c -0.0493,-1.76649 -0.01,-3.53829 -0.18814,-5.29886 -0.16106,3.17366 -0.0744,6.35614 -0.066,9.52896 0.36152,1.05205 0.24479,-0.80648 0.27729,-1.17756 0.005,-1.01709 -0.0147,-2.03792 -0.0246,-3.05254 z m -0.51878,-8.28639 c -0.20736,-1.6234 -0.39305,-3.25335 -0.7491,-4.85277 -0.0872,1.68177 -7.2e-4,3.36541 0.005,5.04796 0.29995,0.45067 1.05786,1.70186 0.80938,0.46348 -0.0197,-0.21968 -0.0443,-0.43886 -0.065,-0.65847 z m -74.4672,40.99392 c -1.02074,-1.04679 -2.62478,-0.68453 -3.89537,-0.43245 -1.42639,0.21179 -2.8777,0.0704 -4.31571,0.097 -4.17198,-0.065 -8.34539,-0.1778 -12.51073,-0.42408 -1.70324,-0.13544 -3.39791,-0.35708 -5.09214,-0.57479 -1.049,0.50668 -1.9699,-0.40683 -2.96669,-0.41766 -2.0099,-0.14284 -3.97808,-0.62824 -5.89458,-1.23248 -0.4354,0.92213 -1.52839,1.42387 -2.48761,1.00542 -1.41944,-0.40339 -2.43594,-1.54159 -3.58009,-2.3993 -0.55943,-1.02221 -0.75748,-2.20365 -1.5447,-3.11401 -0.27582,-0.99768 -0.31818,-2.03206 -0.75811,-2.97753 -0.26794,-1.4789 0.0246,-3.0156 -0.40635,-4.47465 -0.27976,-1.19504 0.47973,-2.33561 0.17584,-3.55488 0.31916,-1.16613 -0.73378,-2.28168 -0.23248,-3.36531 0.64572,-0.77884 0.15171,-1.92695 0.29109,-2.86711 -0.0147,-2.9392 -0.15416,-5.87906 -0.5179,-8.79655 -0.17042,-2.35609 -0.21967,-4.74988 -0.90735,-7.0283 -0.3827,-2.34107 -0.58129,-4.71111 -0.74531,-7.07711 -0.12954,-1.55321 -0.0828,-3.11839 -0.23248,-4.66772 -0.27533,-1.60837 -0.62015,-3.21134 -0.62384,-4.85163 -0.18274,-3.71206 -0.19406,-7.43337 -0.49293,-11.13871 7.2e-4,-3.43644 0.23642,-6.87986 -0.10393,-10.30885 -0.15908,-4.31363 -0.34724,-8.62678 -0.53681,-12.93948 -0.41324,-1.18691 0.19848,-2.39722 0.13002,-3.60487 0.0739,-1.6338 0.12807,-3.27104 0.32557,-4.89587 -0.32557,-0.99777 -0.29601,-2.12992 0.36743,-2.98501 1.20101,-2.30906 2.63788,-4.52509 4.55218,-6.31043 0.82317,-0.55657 0.87484,-1.34674 0.96936,-2.21494 0.54494,-0.87735 0.91247,-2.24789 2.1413,-2.30945 1.25538,-0.21623 0.50445,1.95345 1.53617,1.587 0.70187,-0.79875 2.67881,-0.61961 2.28049,0.74181 -0.58803,0.8181 -1.67097,1.03171 -2.35974,1.75047 -1.2997,0.9506 -2.28867,2.23479 -3.41534,3.36373 -1.17401,0.52209 -0.53766,2.31803 -1.89316,2.47761 -1.15732,0.13446 -0.73846,1.45914 -0.99537,2.25286 -0.41176,2.66403 -0.67005,5.35397 -0.64818,8.05095 0.30832,1.08349 -0.76796,1.72743 -0.69354,2.69236 0.067,2.59828 -0.0296,5.20833 0.19603,7.79794 0.34083,1.59951 0.73161,3.19365 0.8183,4.83394 0.68305,7.44771 0.0635,14.94032 0.6336,22.39417 0.0867,1.57429 0.16697,3.15041 0.35216,4.71693 0.74102,0.86021 0.87834,2.01373 0.83598,3.10228 0.1847,3.47972 0.0394,6.9725 0.28666,10.44794 0.22361,1.10555 0.59621,2.18479 0.60532,3.32507 0.32558,4.56487 -0.0926,9.16571 0.55431,13.71093 0.32704,2.8346 0.40043,5.68944 0.50963,8.53689 0.2108,1.17805 0.36004,2.34679 0.54114,3.52159 0.35512,1.02926 0.36497,2.28927 1.34793,2.97453 0.76728,0.79372 1.82022,-0.1453 2.768,0.35413 1.06969,0.0911 2.09994,0.40979 3.14756,0.63138 3.30793,0.46151 6.66333,0.22854 9.98062,0.57834 0.99522,0.5083 1.88016,1.43777 3.09239,1.31074 1.40412,0.0586 2.80967,0.14826 4.21547,0.0921 0.85036,-0.56153 1.87834,-0.31325 2.77051,-0.0394 2.82495,0.45264 5.69501,0.17386 8.51001,-0.20441 2.01501,-0.23149 4.05781,-0.30488 6.05012,-0.6833 1.69664,-0.74348 3.10027,-2.00171 4.55035,-3.12947 0.56154,-0.44033 1.4018,-1.34034 2.04506,-0.50387 0.55159,1.26011 1.73796,-0.45362 2.73964,-0.11673 0.94857,0.92671 2.03018,-0.29946 2.51843,-1.16578 0.70433,-1.03428 0.74009,-2.29921 0.58824,-3.49815 -0.11722,-1.20779 -0.34625,-2.41589 -0.25464,-3.63393 0.6927,-1.24572 0.36448,-2.7224 0.42407,-4.08274 -0.0552,-5.11474 -0.5802,-10.20821 -0.77988,-15.3163 -0.12362,-4.10136 10e-4,-8.21882 -0.49391,-12.30032 -0.2645,-2.86829 -0.41571,-5.75042 -0.57775,-8.6223 0.70246,-0.72792 0.66788,-1.68054 0.60346,-2.65659 0.003,-1.73541 0.0503,-3.47396 -0.0832,-5.20612 -0.56918,-1.00388 -0.0596,-2.19493 0.89385,-2.66733 -0.43146,-0.90232 -0.77274,-1.78416 -0.70157,-2.83578 0.19751,-1.30157 -1.33103,-1.70171 -1.42378,-2.8966 -0.39353,-1.91115 -0.79928,-3.90198 -0.40633,-5.84888 0.45017,-1.17391 0.15711,-2.45568 0.22952,-3.67954 -0.0148,-1.2143 -0.0296,-2.42855 -0.0443,-3.64285 0.66907,-0.41373 1.48431,-0.89676 1.03315,-1.82603 -0.23444,-1.97985 -0.59735,-3.99546 -1.45165,-5.80676 -0.72832,-1.32689 -1.21869,-2.84061 -1.20406,-4.35959 0.3566,-1.04275 0.51697,-2.12101 0.20244,-3.19484 -0.31375,-1.10352 -0.36645,-2.27882 -0.82279,-3.33699 -0.67073,-1.44564 -1.51272,-2.85281 -2.80214,-3.83198 -1.14332,-1.03398 -2.75869,-1.58616 -3.47676,-3.0387 -1.03822,-0.99729 0.26498,-2.42919 1.42229,-1.70221 1.08107,0.23396 1.63522,1.55277 2.54031,1.77062 1.31719,0.0512 2.08885,1.28843 2.95379,2.1088 1.16175,1.27789 2.28345,2.79839 2.42821,4.57025 -0.32261,0.86528 -0.098,1.67673 0.37974,2.41125 1.06088,2.90774 1.11836,6.04708 1.25666,9.10361 -0.01,1.03038 0.11969,2.06368 0.41817,3.0457 0.13348,2.09446 0.20834,4.19242 0.32064,6.28792 0.0887,2.84854 0.16352,5.70657 0.0148,8.55201 -0.4978,0.88149 0.0916,1.57158 0.3428,2.35767 0.58238,3.00719 0.80747,6.07298 0.91159,9.13094 0.0296,1.60676 0.2768,3.19582 0.41768,4.79238 0.0645,2.1586 -0.44773,4.27961 -0.55505,6.43017 -0.5143,6.16439 0.12954,12.34385 0.0576,18.51548 -0.0197,1.61395 0.005,3.237 0.34675,4.8211 0.3433,2.41032 0.86351,4.86001 0.51081,7.29816 -0.33542,0.891 -0.35758,1.82499 -0.32163,2.76224 -0.004,1.01478 -5e-5,2.0296 -4.4e-4,3.04437 0.90632,0.0296 1.54996,0.9206 1.46781,1.79038 0.10048,2.16982 -0.72447,4.26379 -1.81544,6.09962 -0.15121,1.01985 -0.91602,1.91577 -1.39008,2.63078 0.0443,1.12215 -1.24297,1.49412 -2.03778,1.95631 -2.35235,1.14736 -4.92428,1.71624 -7.41016,2.49007 -1.42358,0.36398 -2.90065,0.10491 -4.34053,0.23888 -0.45363,0.0763 -0.90327,0.20588 -1.36181,0.23543 z m 8.49916,-3.55173 c 0.48022,-0.55524 -1.06979,0.59183 -0.0808,0.0567 -0.004,-0.0344 0.0813,-0.0247 0.0808,-0.0567 z m 87.2835,-23.0254 c -0.30143,-0.72107 -0.39502,-1.58104 -1.42831,-1.31852 -2.25025,-0.27286 -4.51188,-0.46496 -6.77829,-0.51189 -1.0227,-0.27188 -2.44884,-0.46101 -2.83391,-1.57115 -0.80313,-0.86755 -0.30044,-1.88134 -0.38122,-2.8736 -0.29306,-2.12436 -0.74526,-4.23237 -0.81131,-6.38377 -0.25661,-2.71274 -0.67527,-5.41051 -0.96202,-8.12143 -0.17042,-1.08142 -0.67034,-2.09062 -0.70127,-3.19938 -0.12264,-0.87361 -0.47284,-2.2003 0.58631,-2.62192 0.85017,-0.48515 0.17682,-1.54774 0.29651,-2.32166 -0.30291,-4.79396 -0.49377,-9.59502 -0.57085,-14.39788 0.22312,-0.95366 -1.40378,-1.99276 -0.17189,-2.74999 0.66492,-0.37728 1.21469,-1.13874 2.05023,-0.96394 2.6657,0.01 5.35279,0.096 7.9916,-0.35462 2.86429,-1.05753 5.93187,-1.35532 8.86108,-2.18465 0.94784,-0.1783 1.91301,-0.59986 2.87907,-0.48219 0.69014,0.43048 0.6631,1.7192 1.73703,1.23597 2.34487,-0.20834 4.74934,-0.5677 6.81996,-1.76052 0.86519,-0.57681 2.29182,0.27927 1.62542,1.30182 -0.60321,0.60587 -1.44609,0.92163 -2.21425,1.27449 -1.25696,0.37137 -2.54824,0.63621 -3.8409,0.85081 -2.63019,0.38122 -5.32634,0.25611 -7.91304,0.92779 -3.89257,0.74166 -7.87985,0.68147 -11.79625,1.21464 -0.99517,0.41423 -1.96281,0.89991 -3.07496,0.95074 -0.71994,0.0512 -0.27779,1.10811 -0.86553,1.5247 -0.45954,1.0822 0.0768,2.32394 -0.0552,3.48642 0.0965,4.06475 0.18667,8.13439 0.61675,12.18048 0.14087,1.73077 0.25612,3.46494 0.28912,5.20138 -0.91543,0.82495 -0.39058,2.04304 -0.34674,3.11401 0.34871,3.36019 0.89558,6.69476 1.46741,10.02224 0.18963,1.452 0.24824,2.91774 0.44476,4.3689 0.77348,0.31079 1.68984,0.0394 2.45998,0.41619 4.92069,0.3305 9.85851,1.2471 14.79392,0.60897 3.90853,-0.68152 7.69077,-1.91197 11.53585,-2.86479 1.63261,-0.45017 3.33329,-0.91207 5.03806,-0.70147 1.29528,0.51047 0.65256,2.24464 -0.54189,2.38457 -0.95133,0.29602 -2.23596,1.50805 -3.0978,0.5081 -0.67089,-0.88661 -1.69098,0.0709 -2.54046,0.10688 -2.77663,0.73019 -5.54025,1.51366 -8.34042,2.15081 -0.84475,0.55583 -1.79525,1.29872 -2.81499,0.64064 -0.99655,-0.0655 -1.97784,0.22509 -2.96744,0.3167 -1.22036,0.18076 -2.34738,0.77378 -3.57601,0.88189 -0.30931,0.005 -0.63956,-0.066 -0.86819,-0.28567 z m -122.03353,-1.70595 c -0.83958,-0.89509 0.43097,-1.98842 1.37141,-1.95823 3.08614,-0.60813 6.22138,-0.93872 9.34914,-1.25252 3.76879,-0.33098 7.54359,-0.58819 11.31401,-0.89622 1.56109,-0.10491 3.12618,-0.20292 4.67146,-0.45855 1.01083,-0.29651 1.80239,-1.13737 1.29374,-2.21203 -0.30733,-3.57296 -0.56021,-7.15084 -0.95931,-10.71518 -0.20933,-2.22159 -0.46397,-4.44052 -0.76117,-6.65072 -0.13742,-0.86973 -1.49411,-1.18633 -1.0847,-2.30463 0.56961,-0.98803 0.329,-2.09693 0.10441,-3.14717 -0.58572,-3.77553 -1.12052,-7.56353 -1.39008,-11.37661 -0.45511,-1.00023 -0.6108,-2.08751 -0.55416,-3.177 0.07,-0.6869 0.01,-1.23518 -0.79136,-0.95636 -2.93768,0.26252 -5.85433,0.73939 -8.80409,0.87277 -3.08219,0.19997 -6.17143,0.24381 -9.2587,0.30636 0.4487,1.15377 -0.68739,1.76412 -1.65847,1.46752 -2.95448,-0.0493 -5.90926,-0.0916 -8.86423,-0.0813 -0.13446,5.0809 0.22312,10.1596 0.83312,15.20165 0.28666,2.54188 0.61735,5.07992 1.05896,7.59998 0.62512,1.11053 -0.21475,2.25301 -0.20982,3.31157 0.60547,3.94054 1.39023,7.86995 1.50021,11.86693 0.0926,0.85515 -0.19751,1.85352 0.82672,2.10727 0.80501,0.65975 0.16796,2.13263 -0.89045,1.94537 -1.39496,-0.0493 -1.87213,-1.61862 -1.80288,-2.78834 -0.12609,-3.19834 -0.44722,-6.38948 -1.02196,-9.53994 -0.84845,-5.21626 -1.47638,-10.46454 -2.15968,-15.70399 -0.0517,-1.02748 -1.64034,-1.32444 -1.19977,-2.53942 -0.13249,-1.05595 -0.17485,-2.75028 1.22001,-2.90528 0.1916,-0.73088 -0.0803,-1.65748 -0.0498,-2.47061 -0.10589,-2.04635 -0.16549,-4.09466 -0.25562,-6.14169 -0.77392,0.20194 -1.64803,-0.58267 -1.19697,-1.36487 0.52584,-0.79894 1.60833,-0.48909 2.40383,-0.59163 -0.12806,-0.95005 1.26996,-1.83771 1.87361,-0.8084 0.0344,1.45141 1.84692,0.62503 2.78786,0.9043 0.51598,-0.0148 1.24863,0.17633 0.76766,-0.51845 -0.10491,-1.49745 1.60626,-1.11269 2.54883,-1.04728 4.22557,0.11624 8.45675,0.0695 12.68031,-0.0911 3.075,-0.18322 6.12577,-0.64788 9.18132,-1 0.98542,-0.32507 1.94277,-0.64173 2.87874,0.003 0.92226,0.28764 0.97093,1.39506 0.21326,1.86892 -0.36448,0.92568 -0.0852,1.94804 -0.12313,2.91735 0.12609,4.37186 0.30045,8.7772 1.10589,13.07729 1.12412,0.26449 1.55307,1.38506 1.44747,2.48022 0.17731,3.05176 0.12855,6.14557 0.80012,9.14311 0.0562,1.04403 -0.33493,2.07013 -0.12855,3.11691 0.2507,2.9963 0.73206,5.97551 0.99418,8.96579 0.46151,0.59568 2.05851,0.99916 1.13225,1.97931 -0.90282,0.78215 -2.1978,0.70039 -3.31542,0.86426 -3.53247,0.37974 -7.07991,0.58976 -10.63135,0.66857 -3.73919,0.13002 -7.474,0.49741 -11.14019,1.25774 -1.5375,0.26843 -3.12032,0.36792 -4.62246,0.78446 -0.45904,0.2768 -1.07289,0.41669 -1.48396,-0.0148 z m 4.61132,-4.23897 c -0.38467,-0.90188 0.18175,-2.27418 -1.12535,-2.61167 -0.97857,-0.76097 -0.70363,-2.05265 -0.61513,-3.11141 -0.23789,-1.19892 1.40319,-2.08515 1.95936,-0.78736 0.40043,1.00246 0.58795,2.5866 2.07855,2.16977 0.91017,-0.23445 2.30084,0.48465 2.84622,-0.52943 -0.0147,-0.93119 -1.70062,-0.93636 -1.11303,-2.09752 0.56224,-0.75338 1.86292,-1.34162 2.68428,-0.54617 0.70236,0.51908 1.36536,1.12406 1.65211,1.97645 0.32853,0.42063 1.38147,0.30931 1.83751,0.16204 0.48614,-0.73412 1.49726,-1.97866 2.41722,-1.1577 0.25316,1.16184 1.66557,0.82106 1.95276,-0.132 0.29848,-1.24548 2.05467,-1.16638 2.65005,-0.21425 0.63443,0.95345 0.72954,2.15115 0.84228,3.263 0.01,0.84263 -0.0793,1.86721 -0.7816,2.42683 -1.1947,0.48564 -1.74491,-0.94139 -1.18825,-1.81997 0.26745,-0.74709 -0.0197,-1.98808 -0.9799,-1.2707 -1.41865,0.21081 0.15268,1.52041 -0.39255,2.36191 -0.35069,1.40235 -2.07648,1.07225 -3.16164,1.04684 -0.98537,0.01 -2.25971,-0.39403 -2.34073,-1.55425 0.35462,-1.06117 -0.86347,-1.08452 -1.57292,-1.00369 0.0493,0.87435 -0.33689,2.32428 -1.594,2.10954 -0.79436,-0.20737 -0.55435,-1.43802 -1.5539,-1.09546 -0.937,0 -1.87405,0 -2.81105,0 0.099,0.78289 0.46889,1.77693 -0.10787,2.43924 -0.4285,0.38418 -1.19154,0.44575 -1.58262,-0.0246 z m 12.62411,-2.74761 c -0.132,-0.94233 -2.15209,0.0842 -0.63651,0.005 0.19554,-0.001 0.48072,0.16746 0.63651,-0.005 z m 106.56847,2.47583 c -1.17313,-0.4024 -0.3566,-1.83957 -0.72329,-2.71023 -0.30045,-0.76614 -0.0946,-2.22459 -1.2803,-1.90434 -0.67615,-0.0576 -1.80125,-0.18717 -1.37339,0.85849 0.37137,0.90937 0.94287,2.77933 -0.56405,2.89877 -1.3134,-0.12067 -0.94838,-1.82633 -1.58848,-2.64797 -0.72841,-0.81875 -0.81993,-1.91922 -0.47432,-2.93197 -0.23099,-0.88327 0.40241,-2.48279 1.52618,-1.73974 0.42013,0.65162 0.9112,2.35585 1.85464,1.1911 0.92465,-0.82495 2.01694,-0.0394 3.01477,0.0965 1.08137,-0.0246 1.45328,1.05087 1.0069,1.87755 0.87317,0.26548 1.92956,0.0763 2.87321,0.13741 0.28124,-0.32507 0.10196,-1.80081 1.15967,-1.58498 0.62646,0.29454 1.26361,0.85396 1.85357,0.16943 0.68507,-0.0147 1.16185,1.03556 1.693,0.15811 0.68472,-0.54539 1.82726,-0.50825 1.59641,-1.69443 -0.0591,-0.89868 -0.16747,-2.64068 1.23203,-2.31063 1.14367,0.58996 0.55966,2.25537 0.95311,3.30448 0.19356,1.47208 0.50159,2.94319 0.56552,4.42381 0.0975,1.22814 -1.78672,1.59355 -1.92542,0.28173 -0.17042,-0.81431 0.0246,-1.9265 -0.36596,-2.56641 -0.46101,0.71757 -1.66767,0.31818 -1.78278,1.43382 -0.51657,0.97015 -1.18903,2.5239 -2.55041,2.19731 -1.16741,-0.0729 -1.07649,-1.75629 -2.05131,-1.88987 -1.14155,-0.0147 -2.28316,-0.0296 -3.4247,-0.0443 0.0246,0.83353 0.49203,1.80229 0.0394,2.55957 -0.2768,0.37729 -0.80554,0.73866 -1.26247,0.43835 z m 20.69895,-1.2702 c -0.88366,-0.67823 -0.37925,-1.93439 -0.59518,-2.8774 -0.0631,-1.52307 0.01,-3.05732 -0.2246,-4.56896 -0.89188,-2.05216 -0.56745,-4.34092 -0.65724,-6.5138 0.004,-3.33482 0.1581,-6.66678 0.2379,-10.00012 -0.64518,-3.21331 -1.16668,-6.47326 -1.254,-9.75168 0.0443,-0.87701 1.38447,-0.83638 1.01457,-1.7619 -0.0714,-1.15949 0.0567,-2.38955 -0.43589,-3.46894 -0.12658,-1.12166 -0.13101,-2.36802 0.24331,-3.42629 0.79678,-1.19169 2.2241,0.01 2.02103,1.1554 0.64729,7.36785 0.35118,14.77615 0.17978,22.15922 -0.0704,1.7921 -0.14235,3.60483 0.24626,5.36786 0.50308,3.63285 0.40683,7.31092 0.56036,10.96727 -0.0734,0.77273 0.23888,1.71801 -0.0926,2.3754 -0.31719,0.30192 -0.81894,0.68325 -1.2438,0.34379 z M 191.74476,175.70502 c -1.15091,-0.45953 -0.70034,-1.91419 -0.50486,-2.83223 0.80274,-3.62905 2.52239,-7.09469 2.51145,-10.87235 -0.0832,-0.99551 -0.74998,-2.16243 0.18668,-2.99659 0.81228,-0.22361 2.11706,-0.96069 2.80593,-0.0512 1.35634,1.87095 2.34561,3.9732 3.55433,5.93802 1.21529,2.07895 2.53967,4.10766 3.54913,6.29673 0.0754,0.92257 -0.17337,1.86288 0.13002,2.74595 -0.33196,1.18578 -1.92266,0.71895 -2.01092,-0.37236 -0.58026,-0.99463 -1.28779,-1.89055 -2.13427,-2.55695 -0.29305,-0.60129 0.13989,-1.50416 0.87431,-1.40772 0.0344,-0.69477 -0.72733,-1.31212 -1.11264,-0.50347 -1.09339,0.46643 -2.31665,0.23296 -3.46928,0.35413 -0.96596,-0.1123 -2.24483,-0.0246 -2.28355,1.21051 -0.35314,1.09894 -0.63217,2.21996 -0.89356,3.34373 0.83234,0.51578 0.57238,2.02866 -0.52056,1.90434 -0.23839,-0.0197 -0.46643,-0.11032 -0.68236,-0.20095 z m 6.94363,-8.32254 c 1.35595,-0.24774 -0.30488,-1.57404 -0.48712,-2.26517 -0.71304,-1.19041 -1.30852,-2.45672 -2.15411,-3.5636 -0.7852,0.51327 -0.15859,1.72999 -0.47086,2.52189 -0.14087,1.16756 -0.49332,2.29344 -0.76688,3.43342 1.293,-0.0197 2.59453,0.0611 3.87897,-0.12658 z m 110.2756,8.23478 c -1.22908,-0.33394 -0.0985,-1.72344 -0.75674,-2.34526 -1.04339,-1.47042 -0.73265,-3.36073 -1.24931,-5.00511 -0.89795,0.13249 -1.85091,-1.18987 -0.81392,-1.69536 0.74531,-0.69807 0.19455,-1.69339 0.0916,-2.5246 -0.21278,-1.1016 -0.46545,-2.20508 -0.48515,-3.33196 -0.97069,-0.71767 -0.48269,-2.28576 0.64237,-2.51248 2.33871,-1.26798 5.18922,-1.05309 7.64481,-0.25957 1.23691,0.40044 2.61512,1.24243 2.70555,2.68157 0.11722,1.57001 -1.18894,2.68211 -2.19927,3.6894 -0.83618,0.56868 0.85819,0.57828 1.19726,0.93906 1.5772,0.66715 3.06721,1.93907 3.31151,3.7256 0.43639,1.98157 -0.16992,4.39594 -2.06968,5.40284 -1.97891,1.05225 -4.29822,0.87706 -6.45735,1.16278 -0.5186,0.0512 -1.04103,0.0916 -1.56169,0.0729 z m 3.88912,-2.19868 c 1.38595,-0.15614 3.07343,-0.18224 3.95625,-1.44959 0.72132,-1.25355 0.62488,-3.04634 -0.42752,-4.08146 -1.2444,-0.91858 -2.73176,-1.39811 -4.14869,-1.97585 -0.79269,0.51952 -1.71856,0.95118 -2.38654,1.63615 -0.19701,0.96153 0.25071,1.99374 0.23593,2.99984 0.097,1.03163 0.15712,2.06826 0.132,3.10476 0.87863,-0.0877 1.75875,-0.16106 2.63861,-0.23395 z m -2.88829,-8.32048 c -0.0443,-1.2671 1.3002,-1.6533 2.24617,-1.99645 0.88686,-0.2108 2.32714,-0.97221 1.52243,-2.04737 -0.82564,-0.88918 -2.16081,-0.84317 -3.27113,-1.03955 -0.56371,-0.01 -1.72546,-0.20341 -1.18224,0.66227 0.37187,1.38979 0.12461,2.84518 0.36694,4.24562 0.065,0.22853 0.0724,0.45411 0.31768,0.17534 z m -15.84278,-55.66781 c -2.74619,-0.39009 -5.59162,-0.94937 -7.89635,-2.58794 -1.22917,-1.40988 -3.05525,-2.04624 -4.51198,-3.17188 -0.99458,-0.51633 -1.70398,-1.6401 -2.79854,-1.85726 -0.967,0.0823 -1.91144,-0.86642 -1.13525,-1.73757 0.17978,-1.152882 -0.42161,-2.252572 -0.61365,-3.374422 -0.38911,-1.49101 -0.86568,-2.98994 -0.9006,-4.54139 0.363,-0.60655 1.10421,-1.08229 0.52174,-1.86513 -0.96395,-4.29497 -0.5677,-8.72297 -0.55406,-13.084336 0.12757,-0.638377 -0.22804,-1.493322 0.2778,-1.964531 0.7027,-0.648129 1.65182,0.258581 2.35063,-0.417672 0.59341,-0.530905 -0.65345,-1.129977 0.0394,-1.766482 0.47382,-0.834702 1.68886,-1.06314 2.18046,-1.719544 -0.21721,-0.807218 -0.0197,-1.659405 0.6033,-2.233407 0.83407,-1.040041 1.70068,-2.111061 2.0657,-3.418746 0.66434,-1.0196 2.16529,0.03448 1.62443,1.076537 0.01,0.815937 -1.13007,1.650491 -0.8738,2.282711 0.81943,-0.320642 2.20168,-0.984434 2.62522,0.234447 0.32803,1.013837 -0.85761,1.458351 -1.51953,1.921631 -0.70369,0.407821 -1.44697,0.755404 -2.09505,1.252472 -0.6364,1.593454 -1.99788,2.736878 -3.31019,3.771895 -0.63404,0.742942 -2.27517,0.471849 -1.95724,1.723631 -0.12461,2.02142 -0.24726,4.108744 0.43934,6.051604 1.09087,4.7016 1.2704,9.54885 1.36423,14.35572 -0.1,0.7751 -0.11674,1.52863 0.69492,1.955912 1.93838,1.79382 4.14977,3.31516 6.5565,4.40697 0.83352,0.33837 1.74151,0.39994 2.5702,0.75609 0.90726,0.31079 1.50859,-0.83825 2.38329,-0.0956 0.90252,0.32803 1.70186,1.07757 2.69319,1.05156 3.04052,0.0148 6.09844,0.0552 9.10961,-0.4354 1.00926,-0.11328 2.02438,-0.17189 3.03018,-0.31522 0.61533,-1.01271 1.90558,-0.89942 2.8018,-0.4221 0.7882,-0.48368 1.57553,-1.14161 2.56134,-0.58627 0.86667,0.3103 1.49899,1.13707 2.491,0.76146 2.75072,-0.22952 5.48218,-0.7162 8.10819,-1.5773 1.29281,-0.38615 2.60202,-0.8049 3.9626,-0.83623 0.48565,0.49205 0.95508,0.99187 1.69581,0.52835 1.66866,-0.45215 3.33669,-0.90676 5.01033,-1.34015 0.18371,-0.8774 0.75013,-1.54213 1.6229,-1.7881 1.95094,-0.964292 4.09584,-1.628472 5.7416,-3.115152 0.68778,-0.60311 1.66064,-1.13564 1.24109,-2.17992 -0.18224,-0.81775 -1.12096,-1.58321 -0.36201,-2.44869 0.34675,-0.93085 2.02817,-0.21081 1.54592,-1.4287 -0.39206,-1.18667 -1.96807,-0.73019 -2.42776,-1.6992 -0.28124,-1.10412 0.18077,-2.29251 -0.28124,-3.38368 -0.40535,-0.75506 -0.94266,-1.44954 -1.13318,-2.3128 -0.23887,-0.37827 -0.16105,1.15751 -0.58793,1.43441 -0.95922,1.04694 -2.07984,-0.48613 -1.54539,-1.49514 0.35266,-1.44826 0.21524,-2.98906 0.69576,-4.416728 0.0719,-1.576659 -0.68546,-3.059095 -0.59794,-4.641813 0.33344,-1.292514 -0.84347,-2.075451 -0.99202,-3.229759 -0.0704,-1.18598 -1.53696,-0.961087 -2.29374,-1.491254 -0.89711,-0.241343 -1.12525,-1.583259 -0.13496,-1.856173 1.16554,-0.109343 -0.54607,-0.563511 -0.85558,-0.827363 -0.67389,-0.327045 -2.02384,-0.920797 -1.38443,-1.853119 0.98631,-0.653548 0.39404,-1.899074 0.0197,-2.785985 -1.17091,-0.363492 -1.32556,-1.566217 -1.31985,-2.647975 -0.53731,-3.149427 -1.40895,-6.23251 -1.92124,-9.38627 -0.27385,-1.052207 -0.838,-2.407421 0.26942,-3.192377 1.02019,-1.000046 1.94689,0.472835 1.94325,1.452835 0.21918,0.771411 0.67517,1.540409 0.004,2.219469 0.18667,1.173961 0.59725,2.33615 0.87499,3.504202 0.86223,3.21848 1.79269,6.435384 2.60827,9.655933 -0.0512,0.619414 -0.73486,1.363391 0.23593,1.545777 1.13574,0.604884 2.37314,0.987093 3.54154,1.511841 0.94404,0.505687 0.15712,1.758356 0.14776,2.176618 0.98438,0.473327 2.29142,0.777223 2.62118,1.980194 0.53623,1.025067 -0.85765,1.84588 -0.0246,2.863854 0.55731,0.935525 0.62064,2.371368 1.81269,2.762392 1.15031,1.259613 1.32472,3.039 1.74879,4.620831 0.47531,2.38156 0.64252,4.81065 0.93163,7.21788 0.12954,2.05895 0.0394,4.12903 0.26647,6.18217 0.80993,0.8378 0.57267,2.32901 -0.42555,2.90725 -1.00926,0.49815 -0.61587,1.56148 -0.87086,2.438742 -0.44919,1.08949 -1.99994,0.31867 -2.71993,1.20386 -0.63858,0.8974 -1.55519,1.52509 -2.43451,2.16953 -0.81717,0.5077 -1.83174,0.30586 -2.56513,-0.18224 -3.36023,0.51652 -6.64245,1.44909 -9.91408,2.36087 -0.9433,0.68157 -1.97916,0.0956 -2.75165,-0.40043 -1.1249,0.0631 -2.13627,0.66827 -3.25118,0.83042 -6.05485,1.47583 -12.35292,0.75003 -18.47879,1.68078 -1.81244,0.20637 -3.63945,0.20539 -5.46105,0.20194 -0.69512,0.66591 -1.54504,1.41545 -2.58656,1.07545 l -0.14284,-0.0148 z m 45.84038,-8.84828 c 0.36497,-0.52913 -0.85219,0.48762 0,0 z m -147.3642,6.45273 c -1.17647,0.1448 -1.48957,-1.67955 -0.35117,-1.95207 4.27645,0.23001 8.55915,-0.15072 12.82703,-0.41423 1.60015,-0.1187 3.2005,-0.30389 4.80178,-0.36595 0.74457,0.1586 1.22278,0.99778 2.02502,0.49253 0.99074,-0.22656 1.97108,-0.52607 2.87942,-0.98118 2.9236,-0.87376 5.97924,-1.43614 8.70667,-2.85656 1.37752,-0.66291 2.4187,-1.795642 3.45879,-2.880902 -0.0493,-1.45278 -0.24972,-2.90306 -0.26351,-4.35318 0.17141,-1.40629 0.37729,-2.82313 0.18865,-4.23981 -0.1719,-2.44899 -0.16944,-4.93295 -0.7063,-7.33801 -0.38123,-1.58882 -0.97395,-3.117802 -1.68039,-4.585413 -0.49353,-0.815296 -0.65025,-1.75742 -0.39797,-2.628668 -0.75511,-0.706594 -1.56321,-1.309015 -2.13416,-2.192281 -0.87386,-0.637244 -1.84839,-1.186865 -2.45141,-2.121257 -0.6336,-0.900307 -1.23296,-1.827655 -1.95674,-2.658515 -0.627,-1.032406 -0.44624,-2.387177 -1.25858,-3.334177 -0.6244,-0.861447 -0.51352,-1.946358 -0.77088,-2.926358 -0.53075,-2.755742 -1.03689,-5.519562 -1.50898,-8.283333 -0.21081,-0.885137 -1.45751,-1.913209 -0.2044,-2.600987 1.08629,-0.350194 0.5704,-1.530952 0.53213,-2.37442 -0.2039,-1.191201 -0.42751,-2.406978 -1.02388,-3.468739 -0.21721,-0.943503 -1.12929,-1.516274 -1.95926,-0.896909 -1.21642,0.192582 -1.52125,-1.222525 -0.74536,-1.904196 0.29404,-0.434417 -0.1384,-0.869573 -0.21376,-0.146283 -0.50401,1.051516 -1.48322,1.826326 -1.71053,2.994672 -0.89809,1.093234 -2.40431,1.304089 -3.67728,1.725799 -2.52233,0.706297 -5.13912,0.991476 -7.69972,1.489775 -0.95528,0.395014 -1.35103,-0.9338 -2.19209,-0.830318 -2.47046,-0.10097 -4.94034,0.06649 -7.40656,0.193074 -1.58405,-0.501845 -3.27311,-0.422104 -4.91266,-0.373343 -0.87426,0.01477 -1.71472,0.310299 -2.56125,0.423582 -1.07151,-0.110328 -0.75821,-1.682554 -1.94842,-1.439931 -1.8079,-0.296014 -3.63216,-0.584542 -5.45302,-0.733239 -0.14136,1.024722 0.005,2.216119 -0.0296,3.303099 0.0197,3.101995 0.1192,6.205468 0.10836,9.306232 -0.18027,1.681176 -0.78249,3.280688 -1.03172,4.950535 -0.297,1.046591 -0.62015,2.646991 0.5943,3.233109 2.54045,0.999652 5.25285,1.480171 7.95367,1.814652 0.91799,-0.395506 2.6833,0.517066 1.77698,1.555481 -0.85923,0.421611 -1.83785,-0.08767 -2.73806,-0.148254 -2.71048,-0.492536 -5.53345,-0.812735 -8.01239,-2.092591 -0.42555,-0.154164 -0.97217,-0.957147 -1.12116,-0.931584 0.0512,1.215433 -0.14087,2.658368 -1.26646,3.362252 -1.2569,1.05728 -3.19937,1.061909 -4.13007,2.543016 -0.53307,0.656158 -0.92951,1.258628 -0.36398,2.001176 0.15219,1.229667 0.0842,2.480957 0.26153,3.712594 0.34183,3.141448 1.02487,6.232558 1.66468,9.322438 0.41422,0.81145 0.70255,2.07304 -0.45067,2.38432 -0.40733,0.94794 0.16007,2.01048 0.20736,3.00349 0.20145,1.0389 0.47185,2.06392 0.79441,3.07165 -0.0197,1.254 5e-5,2.61503 0.69393,3.70452 0.82313,0.951972 2.10954,1.270892 3.20484,1.802582 0.89583,0.34182 1.75161,0.80506 2.50012,1.3929 1.5011,0.53194 3.10711,0.64729 4.65339,0.9998 3.25778,0.61119 6.58585,0.85371 9.89481,0.61784 0.94887,-0.0537 1.90233,-0.12708 2.85149,-0.0394 1.14387,0.49495 0.35807,2.41629 -0.79525,2.13722 -0.9173,-0.25366 -1.84105,-0.25465 -2.77608,-0.12511 -3.17849,0.20687 -6.36057,-0.13742 -9.4836,-0.71777 -2.37058,-0.41423 -4.75908,-0.78388 -7.09351,-1.36221 -1.25149,-0.55755 -2.30399,-1.55415 -3.68265,-1.81574 -1.18883,-0.22804 -0.55646,-1.7453 -1.58567,-2.25252 -0.75354,-0.624732 -0.1783,-1.577642 -0.38714,-2.381112 -0.20242,-1.08349 -0.41422,-2.16736 -0.66034,-3.24139 -0.33689,-1.06846 -0.61143,-2.16898 -0.53356,-3.2994 -0.11575,-2.37413 -0.58292,-4.71417 -0.98867,-7.05002 -0.12313,-0.9437 -1.6994,-1.20696 -1.01679,-2.39935 0.63497,-1.00955 -1.43201,-1.57966 -0.74753,-2.65536 0.20785,-1.761261 -0.35167,-3.540254 0.067,-5.292059 -0.0147,-1.428997 1.72338,-1.648767 1.93592,-2.89055 0.0443,-1.181989 1.42032,-1.301232 1.93212,-2.216858 0.82002,-0.565482 1.94586,-0.733781 2.43022,-1.749884 0.86962,-0.81569 0.53627,-1.999847 0.58972,-3.053925 -0.0862,-0.910108 0.34674,-1.680091 1.24794,-1.887449 0.40486,-0.682507 0.1778,-1.625223 0.50076,-2.388458 0.32261,-1.417766 1.19731,-2.71033 1.07447,-4.214242 -0.0344,-1.197898 -0.27189,-2.382646 -0.66365,-3.508978 -0.35068,-1.845879 -0.0296,-3.722099 0.0296,-5.577189 -0.0655,-1.007435 -0.0655,-1.98177 0.8518,-2.586704 0.74185,-0.96414 2.06934,-0.14185 3.07135,-0.169433 1.15658,0.318179 -0.15613,-0.967194 -0.12018,-1.569911 -0.0296,-0.688369 -0.43244,-0.963254 -0.9565,-0.415208 -0.55987,0.675021 -1.94695,1.770029 -2.432,0.436387 -0.231,-1.146576 0.97079,-1.749441 1.77166,-2.269362 0.38811,-0.243313 0.85494,-0.539426 0.14874,-0.659014 -0.91962,-0.695954 -0.18223,-1.903802 0.81569,-1.910057 0.88834,-0.583114 1.55238,-1.546516 2.67265,-1.720627 1.61587,-0.409791 3.27744,-0.619218 4.92546,-0.85529 4.56228,-0.487611 9.15917,-0.312761 13.73867,-0.378268 3.9007,0.0032 7.817,-0.099 11.70272,0.300939 2.10481,0.300448 4.2368,1.094269 5.7318,2.655561 0.66916,0.757176 0.47579,1.90853 -0.0921,2.553162 0.16992,1.237055 1.55464,1.677136 2.04338,2.741015 0.39846,0.813375 1.29582,1.239321 1.46333,2.175929 0.36054,1.270202 0.61134,2.572961 0.84022,3.87252 0.34182,2.608523 0.10688,5.292207 0.84386,7.844926 0.46841,2.27409 0.77368,4.582363 1.21524,6.857981 0.47283,1.136232 0.53085,2.396634 0.89006,3.543457 0.80067,0.859771 2.00501,1.218633 2.81194,2.102638 1.58454,1.169282 2.95024,2.630835 3.95507,4.325505 0.70846,0.883169 1.02694,2.035113 1.86134,2.824255 0.97321,1.691912 0.72645,3.716484 0.92119,5.584581 0.12364,2.47169 0.40979,4.9359 0.49156,7.40824 -0.19455,2.82322 -0.25317,5.65998 -0.11033,8.4865 0.18913,1.28616 -0.16402,2.570452 -0.0882,3.859182 0.21671,0.95591 -0.21869,2.91005 -1.54416,2.14017 -0.87139,-0.48466 -0.14579,-2.12392 -0.96172,-2.31163 -0.80525,0.73428 -1.84805,1.2609 -2.3529,2.27286 -0.33542,1.0298 -1.35718,0.88204 -2.17287,1.18455 -1.20706,0.55623 -2.36196,1.24213 -3.63719,1.63828 -0.84224,0.32557 -1.32296,-0.40782 -1.55366,-1.04989 -0.94715,0.29897 -1.93355,0.63128 -2.90848,0.9076 -1.11588,0.28468 -2.25217,0.67541 -3.41392,0.62246 -0.95769,-0.3295 -1.91429,-0.73644 -2.94546,-0.46594 -4.95054,0.43147 -9.92137,0.77521 -14.89293,0.67069 0.0704,0.0197 -0.31227,-0.0345 -0.22558,-0.0148 z m 8.32117,-61.38967 c 1.13632,0.07881 1.95325,-0.675859 2.7447,-1.315763 1.5246,-0.857605 3.24139,-1.415353 4.62788,-2.491496 0.70182,-0.821847 0.23395,-1.962365 -0.73511,-2.17125 -0.1453,-0.504701 -0.19111,-1.367823 -0.904,-0.778552 -1.30577,0.292567 -0.62971,-1.85046 -1.69876,-1.603995 -0.93981,0.512632 -1.62232,-0.260059 -2.52341,-0.263014 -1.2216,-0.05615 -2.44757,0.01477 -3.66724,-0.0039 -0.85258,0.231492 -1.70782,-0.0197 -2.14583,-0.771657 -0.9013,-0.263015 -1.86193,0.0024 -2.78909,-0.06206 -0.53406,0.09949 -1.78978,-0.111314 -0.87332,0.525536 0.65922,0.929072 -0.46396,1.654824 -1.34102,1.476921 -2.58016,0.0197 -5.16031,0.166477 -7.72426,0.461014 -0.73516,-0.333448 -1.21238,-1.393288 -2.10417,-0.597201 -1.4519,0.574396 -2.67905,1.614042 -3.73283,2.742247 -0.4556,0.994086 1.5639,0.601584 1.6334,1.643644 0.33837,1.173665 -1.27399,1.485638 -1.97237,0.802342 -0.29453,-0.187657 -0.94281,-0.251686 -0.30192,0.07388 0.98532,0.563265 2.03895,1.173222 3.18779,1.245527 0.80348,0.04433 1.12456,1.081462 1.9932,0.733288 2.3923,-0.162537 4.78549,0.268925 7.17449,0.09802 2.63355,-0.356596 5.30058,-0.348223 7.94447,-0.548981 1.14623,7.41e-4 1.666,1.514599 2.85282,0.864303 l 0.17731,-0.02955 0.17682,-0.02955 z m 9.66711,-7.273387 c -0.31424,-0.252671 -1.35394,-1.105597 -1.27808,-0.730924 0.34231,0.352163 0.76338,0.707824 1.27808,0.730924 z m -22.75568,-2.066684 c -0.62001,-0.0197 -2.03359,-0.157119 -2.14023,0.117224 0.71428,0.02463 1.43727,0.02955 2.14023,-0.117224 z m 112.28894,62.051589 c -1.15693,-0.78496 0.3827,-1.94232 1.31832,-1.60129 3.04378,-0.17682 6.12789,-0.0394 9.12089,-0.72344 1.11245,-0.18174 2.31054,-0.29601 3.23685,-1.00403 0.26154,-0.88662 1.74299,-1.91676 1.98315,-0.47481 -0.0296,0.55145 -1.11968,1.79678 0.12313,1.37901 1.56036,-0.25563 3.10619,-0.74408 4.70383,-0.65109 1.28207,0.7062 -0.38911,1.91434 -1.29419,1.58636 -2.01916,0.28567 -3.9993,0.86436 -6.03141,1.03024 -0.65827,-0.45362 -1.2866,-0.84637 -2.09411,-0.42062 -2.73723,0.49007 -5.50681,0.88661 -8.29496,0.80884 -0.92217,-0.0148 -1.86001,0.11082 -2.77175,0.0709 z m -10.45419,-0.79392 c -1.08412,-0.50825 0.0394,-1.93804 0.95724,-1.58622 1.1316,0.0552 2.29448,0.38714 3.40491,0.003 1.40683,-0.0148 0.74979,1.9762 -0.45363,1.63877 -1.26129,0.10491 -2.53937,-0.19406 -3.78918,-0.0197 0.0503,0.0566 -0.16254,-0.0246 -0.11969,-0.0345 z m -106.98083,-0.39305 c -0.74831,-1.18159 1.05979,-1.43633 1.86538,-1.3298 2.66222,-0.20243 5.47854,0.0493 7.95285,-1.1379 0.81485,-0.5877 2.26389,0.51268 1.14076,1.15002 -2.44047,1.29394 -5.27152,1.36497 -7.97111,1.43476 -0.92774,-0.0148 -1.86534,0.1123 -2.78633,-0.004 l -0.1059,-0.0443 -0.0956,-0.068 z m -10.39247,-0.85076 c -1.08762,-0.51534 -0.69127,-1.92414 -0.83253,-2.88981 -0.0344,-1.2633 -0.0567,-2.52686 -0.0857,-3.79031 -1.04724,-0.41472 0.10145,-1.6531 -0.77028,-1.94592 -0.57745,-1.03551 -0.35217,-2.31585 -0.56061,-3.458 -0.1054,-1.5703 -0.10984,-3.14662 -0.26104,-4.713918 -0.75901,-0.679799 -0.0956,-2.444853 0.92134,-1.524942 0.9039,0.954092 0.54563,2.39683 0.6994,3.58724 0.0798,1.88898 0.27483,3.77022 0.41471,5.65516 -0.26892,0.50426 -0.22656,0.98749 0.4226,1.01541 0.8379,0.70561 0.48515,1.9536 0.65335,2.9172 0.0493,1.27808 0.067,2.557 0.10196,3.83548 1.83819,0.0714 3.70066,-0.0754 5.52232,0.17633 1.0124,0.54002 -0.0498,1.80406 -0.92814,1.33689 -1.69216,-0.005 -3.40343,0.12067 -5.08214,-0.11722 0.0759,0.0197 -0.29257,-0.0931 -0.21524,-0.0837 z m 28.37257,-0.35462 c -1.02866,-0.81259 0.4984,-1.77821 1.33493,-1.75136 2.29615,-0.57007 4.69825,-0.59519 7.03962,-0.39797 1.30631,0.0798 1.1746,2.07949 -0.19307,1.56178 -1.08171,-0.30734 -2.19667,-0.21425 -3.30364,-0.15564 -1.51298,0.0818 -3.01358,0.36103 -4.45229,0.83337 -0.1448,0.0246 -0.30931,0.01 -0.42555,-0.0896 z m 86.44289,-0.66527 c -0.63661,-0.86613 -0.33197,-2.01679 -0.59612,-3.00379 0.0296,-0.73397 -0.64217,-1.87562 0.39551,-2.13977 0.99743,-0.36596 1.01161,0.94577 1.10732,1.58838 0.13397,1.0658 0.27779,2.15096 0.21524,3.22208 -0.13004,0.4684 -0.76477,0.69359 -1.12166,0.33295 z m 33.54193,-0.43245 c -0.73185,-1.14559 1.05349,-1.55139 1.87824,-1.59143 2.57641,-0.46742 5.22794,-0.53446 7.76544,-1.1879 1.26286,0.27631 0.59139,1.89863 -0.52352,1.69284 -2.66408,0.59652 -5.418,0.62513 -8.08465,1.20958 -0.3428,0.065 -0.74451,0.12165 -1.03551,-0.12314 z m -106.08258,-1.73723 c -0.69664,-1.27685 1.35123,-1.48292 2.17933,-1.6925 0.96631,-0.31522 3.17268,-0.29109 2.35599,-1.80652 -0.55193,-1.72428 -0.66699,-3.54972 -0.87351,-5.33915 0.0616,-1.12811 -0.49253,-2.51223 0.20835,-3.48002 1.28655,-0.520215 1.28187,1.12643 1.23227,1.96399 0.11772,2.66571 0.41422,5.35525 1.3167,7.88147 0.0877,1.1617 -1.31492,1.50332 -2.18863,1.78781 -1.26331,0.37532 -2.54558,0.73507 -3.85499,0.89174 -0.14579,-0.0197 -0.28222,-0.0941 -0.37531,-0.20686 z m 117.8184,-1.03068 c -0.43934,-0.87558 -0.1118,-1.87893 -0.19061,-2.81494 0.01,-0.50663 0.0148,-1.0133 0.0246,-1.51992 0.43245,-0.83731 1.94355,-0.48367 1.56233,0.53657 -0.14924,1.1715 -0.0394,2.36171 -0.22755,3.52942 -0.18569,0.41767 -0.85121,0.69492 -1.16791,0.26892 z m -46.31907,-6.49754 c -0.67576,-1.92395 -0.70566,-3.98989 -1.08157,-5.973385 -0.2502,-0.915774 -1.08658,-2.526467 0.32212,-2.882621 1.04467,-0.03941 0.89529,1.290791 1.09876,1.996399 0.35019,2.114217 0.55912,4.252217 1.00472,6.349927 0.01,0.62513 -0.94912,1.04783 -1.34413,0.50968 z m 47.49515,-0.21622 c -0.891,-0.73851 -0.49933,-2.04595 -0.70625,-3.05201 -0.10343,-1.72865 -0.16303,-3.460461 -0.32606,-5.185028 0.0739,-1.322165 2.12028,-0.75565 1.70778,0.440327 0.14874,2.27552 0.0394,4.566651 0.31473,6.832811 0.0498,0.55943 -0.33837,1.2443 -0.99005,0.9637 z M 188.65443,76.074967 c -0.78949,-0.0049 -2.65984,0.133969 -2.09845,-1.17342 0.86829,-0.471849 1.96049,-0.08669 2.92336,-0.24282 5.67244,-0.06748 11.35892,0.04433 17.0161,-0.441805 1.17923,-0.137911 2.31113,-0.519232 3.40161,-0.971135 1.28985,-0.02463 0.68595,1.812436 -0.35709,1.76269 -2.48426,0.944045 -5.18967,0.820616 -7.79917,0.988767 -4.35964,0.166971 -8.72514,0.209821 -13.08626,0.07733 z m -7.53379,-0.165985 c -2.69427,-0.474313 -5.49316,-0.705411 -7.97909,-1.944633 -0.97453,-0.704081 -2.46563,-0.674135 -3.21833,-1.570453 0.0557,-1.527504 1.81785,-0.740332 2.64073,-0.341328 1.79634,0.786925 3.61518,1.577742 5.57271,1.85701 1.16638,0.234941 2.39319,0.271881 3.51917,0.643303 0.58391,0.412746 0.2246,1.52445 -0.53519,1.356199 z M 304.2217,75.47555 c -1.11988,-0.798353 0.44476,-1.924144 1.35728,-1.621037 1.50042,-0.04925 3.00339,0.426044 4.49598,0.105403 0.6069,-1.338222 2.78155,1.48e-4 1.57552,1.063928 -0.87903,0.743977 -2.11953,0.435895 -3.17627,0.499334 -1.3366,-0.0049 -2.7359,-0.160074 -4.03338,0.04433 -0.0803,0.0048 -0.13643,-0.147269 -0.21918,-0.09063 z m 18.12604,-0.661428 c -0.89612,-0.917152 0.64005,-1.667531 1.45702,-1.433478 2.79584,-0.360045 5.60452,-0.855241 8.24831,-1.856568 0.69817,-0.716148 2.68501,-0.462984 1.825,0.780375 -0.82608,0.702505 -1.95951,0.849626 -2.95271,1.21425 -2.66699,0.777223 -5.42076,1.299756 -8.19163,1.482634 -0.14283,-0.02463 -0.27483,-0.09506 -0.38614,-0.187163 z M 212.64648,74.262629 c -0.76018,-1.128549 1.07265,-1.561636 1.76077,-2.047918 0.94163,-0.358074 2.22272,-1.790617 3.1447,-0.864599 0.23691,1.079443 -1.04634,1.310542 -1.7127,1.788352 -0.88848,0.508839 -1.77732,1.114166 -2.79568,1.305763 -0.14826,-0.0099 -0.29602,-0.07093 -0.39699,-0.181746 z m 79.40094,-0.58405 c -0.87464,-0.327537 -2.5733,-0.30291 -2.58069,-1.532133 0.51179,-1.107715 1.8677,-0.15909 2.70945,-0.02955 0.96286,0.470865 1.96408,-0.0019 2.93984,0.185687 1.38192,0.272372 0.68887,2.049297 -0.53809,1.722548 -0.85293,-0.0197 -1.70083,-0.156135 -2.53051,-0.348716 z M 311.5996,69.32362 c -0.79889,-1.095993 0.64897,-2.21144 1.72713,-1.892621 1.80205,-0.03941 3.6391,-0.05122 5.35811,-0.665959 2.5703,-0.714129 5.21261,-1.210459 7.71327,-2.149381 1.14702,-0.538835 2.15805,-1.320244 3.2536,-1.942023 1.19115,-0.265969 1.20041,1.505636 0.13741,1.69408 -1.94414,1.466429 -4.26359,2.313592 -6.62362,2.829229 -2.39251,0.580947 -4.75269,1.337188 -7.19523,1.682801 -0.93429,0.115253 -1.88139,0.153179 -2.81952,0.06156 -0.47579,0.255134 -1.03571,1.079295 -1.55115,0.382701 z m -13.53811,-0.0049 c -1.32354,-0.228538 -0.45018,-2.391561 0.65173,-1.500858 2.21218,0.305865 4.44052,-0.09063 6.64422,-0.275328 0.99094,-0.350193 1.78367,1.083778 0.62887,1.417176 -1.22125,0.302417 -2.50785,0.254641 -3.75618,0.424074 -1.38664,0.109343 -2.78963,0.14579 -4.16864,-0.06502 z m -8.17818,-1.044276 c -1.03993,-0.202925 -1.9098,-1.086537 -2.33634,-2.014229 -1.07117,-3.166715 -1.06511,-6.552165 -1.12766,-9.857332 0.0246,-0.786187 -0.0724,-1.59045 0.0665,-2.363536 0.73639,-1.059052 2.03295,0.03448 1.96616,1.055802 0.39896,1.355116 0.86775,2.716684 1.01842,4.122679 -0.0552,1.42018 0.45609,2.836518 0.1123,4.249114 0.066,1.021323 -0.19259,2.422295 0.28075,3.19937 1.18809,0.620349 2.64733,-0.152687 3.7245,0.398461 0.66843,1.077375 -0.65842,1.616949 -1.53779,1.381024 -0.72502,0.01478 -1.4555,-0.02463 -2.16652,-0.171403 z m -98.77998,-0.562758 c -0.85303,-0.104418 -3.11121,-0.162045 -2.19987,-1.520461 1.0426,-0.389596 2.19947,0.130523 3.28734,0.135941 0.89952,0.127566 1.74111,0.355611 2.51036,-0.181254 0.93484,0.19997 2.15263,0.0099 2.83814,0.794264 0.23691,1.306503 -1.56129,1.063781 -2.38062,1.024181 -1.35379,0.03941 -2.71196,-0.09161 -4.05535,-0.252671 z m 13.91036,-1.649308 c -0.76284,-1.132096 1.10885,-1.464903 1.86563,-1.678959 1.94957,-0.549671 4.00009,-0.910651 5.76337,-1.953942 0.90898,-0.673642 2.25759,0.677484 1.04236,1.28493 -1.02512,0.523763 -2.13855,0.870262 -3.22563,1.249171 -1.59394,0.461999 -3.20996,0.862776 -4.80553,1.308128 -0.22853,0.0197 -0.48367,-0.02955 -0.6402,-0.209328 z m 100.59007,-3.236162 c -0.84973,-1.105351 1.02541,-1.699203 1.88252,-1.604045 2.09559,-0.161551 4.19937,-0.216716 6.30048,-0.20194 1.19588,0.390089 0.0547,1.95606 -0.90745,1.508049 -2.04792,0.142343 -4.11608,0.04925 -6.1509,0.337388 -0.35906,0.122641 -0.86238,0.419641 -1.12465,-0.03941 z m -11.53856,-0.396 c -1.02566,-2.96e-4 -2.42456,-0.03941 -2.84765,-1.18066 -0.0562,-1.246856 1.48628,-0.733042 2.09426,-0.369895 1.22701,0.131507 2.47648,0.05369 3.70019,0.04433 1.30148,-0.359059 1.42698,1.857553 0.0621,1.572768 -1.00335,0.04433 -2.0067,-0.03941 -3.00882,-0.06502 z M 187.78343,62.113031 c -1.0261,-0.235432 -2.45933,-0.0025 -3.13903,-0.928776 -0.18963,-1.304927 1.47357,-1.019699 2.23627,-0.715163 2.16233,0.326059 4.35549,0.239372 6.53408,0.222626 0.83928,-0.375312 2.76343,-0.745306 2.49884,0.753187 -0.70408,1.035657 -2.16992,0.590059 -3.23208,0.716001 -1.63172,0.02463 -3.27202,0.03448 -4.89808,-0.04925 z m 15.54958,-0.549621 c -0.90602,-1.200066 1.08048,-1.524746 1.90636,-1.583752 1.61208,-0.438357 3.20691,-1.005809 4.66669,-1.821892 0.40191,-0.601092 1.04388,-2.193463 1.82194,-1.038416 0.44427,1.254688 -0.72758,2.395698 -1.83277,2.768401 -1.89612,0.832141 -3.87051,1.594538 -5.93685,1.842579 -0.21819,0.0049 -0.44377,-0.03941 -0.62537,-0.16697 z m 115.48989,0.05024 c -0.97538,-0.932077 0.61365,-1.868143 1.46628,-2.016889 1.78505,-0.570209 3.65187,-0.932668 5.30521,-1.85578 0.95124,-0.189626 2.04698,-1.836176 2.90867,-0.841794 0.40191,1.106681 -0.86898,1.45648 -1.58985,1.894247 -1.91789,1.037528 -4.01132,1.713288 -6.12288,2.218926 -0.63177,0.23691 -1.24508,0.84938 -1.96743,0.60129 z M 178.6781,60.843816 c -1.08245,-0.403387 -2.13091,-0.929317 -3.03377,-1.656695 -0.4689,-1.351964 1.48632,-1.193121 2.04255,-0.440821 0.67423,0.629659 1.5536,0.496428 2.27561,0.259075 0.96548,0.216223 1.05118,1.816129 -0.0493,1.857946 -0.40733,0.08373 -0.83018,0.05566 -1.23607,-0.0197 z m 123.12081,-4.299748 c -1.32537,-0.615031 0.1251,-1.977584 1.11426,-1.569075 0.99557,-0.489088 2.48476,0.799486 1.07708,1.40772 -0.70516,0.185686 -1.47032,0.175835 -2.19134,0.161552 z m -8.0179,-0.376298 c -1.2736,-0.387627 -0.25218,-1.971871 0.78732,-1.458253 1.19814,-0.03941 2.40865,0.08373 3.59536,-0.135941 0.78358,-0.890457 2.46569,0.482194 1.23086,1.174651 -1.15348,0.715804 -2.56947,0.396492 -3.85081,0.49628 -0.58804,5.91e-4 -1.17932,0.0023 -1.76273,-0.07684 z m 13.93194,-0.909617 c -0.77718,-1.216369 1.1448,-1.40964 1.94635,-1.367725 1.56396,-0.23691 3.14844,-0.374328 4.70599,-0.623157 0.68719,-0.472343 2.43003,-0.451656 1.78904,0.777271 -0.7288,0.932668 -2.05525,0.782198 -3.1083,0.946262 -1.6136,0.140865 -3.21655,0.579962 -4.84227,0.461015 -0.17436,-0.02955 -0.34626,-0.08915 -0.49057,-0.193568 z M 181.81251,55.151765 c -0.97335,-0.184209 -2.2834,0.264492 -2.99999,-0.528147 -0.83338,-0.782198 0.25563,-2.520113 1.05629,-1.286013 0.92326,0.673642 2.30256,0.143328 3.40919,0.313253 1.16475,0.116239 2.48155,-0.237403 3.54424,0.228537 0.71162,1.076143 -0.79302,1.606556 -1.64275,1.331081 -1.12239,9.8e-5 -2.24606,-0.02955 -3.36698,-0.05812 z m 13.60623,-0.925526 c -0.93592,-1.00832 0.83106,-1.575378 1.6325,-1.462045 1.12846,-0.156135 2.28932,-0.240358 3.35148,-0.685513 1.38392,-0.233462 1.19444,1.967881 -0.14629,1.714619 -1.47446,0.314731 -2.97906,0.444268 -4.46819,0.668421 -0.13791,-0.0527 -0.25415,-0.148253 -0.36941,-0.235433 z m 124.53867,-1.134902 c -0.93715,-1.059644 0.92276,-1.592913 1.7349,-1.557401 1.27972,-0.294044 2.58597,-0.705312 3.60222,-1.571783 0.38369,-1.32049 2.38206,-0.159582 1.32454,0.796333 -1.11432,1.424072 -2.99931,1.837654 -4.65458,2.288276 -0.61478,0.09457 -1.44333,0.441313 -2.00708,0.04433 z M 206.19647,52.553684 c -0.95916,-0.927053 0.67227,-1.639704 1.45338,-1.754416 1.48051,-0.519134 3.21326,-1.129633 3.89542,-2.669795 0.85785,-0.810862 1.89218,0.651084 0.97577,1.325121 -1.26779,1.838738 -3.54193,2.5078 -5.57124,3.129578 -0.24627,0.05762 -0.51667,0.07684 -0.75333,-0.02955 z m 81.52259,-0.143821 c -0.86499,-0.969312 0.65439,-2.087223 0.16353,-3.218973 0.28321,-1.231883 -0.66139,-2.288867 -0.56829,-3.427021 0.54957,-1.231735 2.07279,1.97e-4 2.70451,-1.072252 0.16106,-0.798894 -1.19715,-0.981084 -1.08348,-1.915524 -0.25168,-1.043094 -0.40831,-2.139529 -0.002,-3.171492 0.41422,-1.268824 1.44899,-2.530161 2.84233,-2.673834 0.89794,0.506574 1.81066,0.956703 2.88459,0.611435 0.83351,-0.04433 1.63783,-0.468402 1.58055,-1.365656 0.71284,-0.796333 1.90798,-0.592128 2.86937,-0.764565 2.24867,-0.260059 4.49567,-0.751414 6.77114,-0.582671 0.87002,0.360537 1.78052,1.344773 2.70945,0.538047 1.02122,-0.07585 1.75077,0.908287 2.7882,0.870855 0.83337,0.38467 1.46061,-0.19406 2.00984,-0.630842 1.10476,-0.134462 2.16278,0.379746 3.25932,0.465448 1.67023,0.280253 3.29033,0.819383 4.9657,1.055161 1.05324,0.06797 2.35408,0.0099 2.91134,1.080379 0.7621,0.6599 1.6495,1.214102 2.03535,2.200161 0.65025,0.88095 1.2276,1.769093 1.54972,2.835385 0.429,1.040385 1.17263,2.136132 0.87524,3.307728 -0.62026,1.302957 -2.16628,0.0049 -1.96971,-1.063534 -0.45756,-0.877405 -1.23144,0.611534 -1.84765,0.741071 -0.72014,0.65133 -2.48086,1.387673 -2.48278,-0.208343 0.2576,-1.251339 1.83376,-1.351669 2.57661,-2.240106 0.47284,-0.378268 0.51199,-1.054619 -0.2044,-0.604737 -1.12067,0.6765 -2.07284,1.63537 -3.28788,2.160857 -0.77914,0.204895 -1.60158,0.180268 -2.37122,0.472835 -1.9137,0.64409 -3.98388,0.278283 -5.91172,0.856374 -2.66649,0.5873 -5.42042,0.474805 -8.12967,0.516818 -2.18296,-0.37876 -4.37116,-0.720581 -6.57008,-0.993643 -0.98621,0.759738 -2.26754,0.20391 -3.32709,-0.06157 -0.81791,-0.420134 -1.42924,0.07684 -2.14505,0.294044 -0.90178,-0.30291 -1.75417,-0.618379 -2.54656,0.141851 -0.7491,0.309313 -1.3325,0.699894 -1.01167,1.580303 0.0596,1.188294 0.12855,2.420424 -0.20046,3.573403 -0.30932,0.623157 -1.19371,1.271828 -1.83653,0.692112 z m 23.69308,-7.552409 c 1.07471,-0.797466 2.55139,-0.122149 3.69072,-0.725506 -0.87666,-0.348224 -2.04353,0.131507 -2.91177,-0.43097 -0.98591,-1.028416 0.77112,-2.030186 1.73294,-1.619214 2.37378,0.08619 4.74771,0.167955 7.12208,0.236418 0.4024,-0.510219 1.20125,-1.388855 1.81352,-0.667634 0.77959,0.69231 1.48411,-0.525192 0.33148,-0.569963 -0.86525,-0.308328 -1.86446,-0.52992 -2.4324,-1.32054 -0.99374,-0.538983 -2.174,-0.371865 -3.25,-0.602914 -3.12874,-0.37088 -6.20763,-1.149482 -9.35307,-1.359401 -1.76166,0.229522 -3.47101,0.74905 -5.22621,1.024574 -2.18942,0.404865 -4.4151,0.583509 -6.63112,0.730137 -1.44707,0.366447 -2.60714,1.367873 -3.82173,2.170658 -0.5717,0.863712 0.83435,1.167854 1.3325,1.626454 0.82894,0.536176 1.81618,0.682262 2.78386,0.665565 0.9874,0.06699 1.9671,0.212283 2.95222,0.30291 0.48417,-0.688911 0.68783,-2.309455 1.89972,-1.696395 0.79623,0.402895 -0.064,1.750032 1.0626,1.754071 2.68644,1.053733 5.63629,0.860954 8.45916,0.722108 0.16746,-0.02955 0.34478,-0.09604 0.44575,-0.240358 z m -19.92621,-4.751451 c 0.88952,-0.388119 -0.22262,-1.441014 -0.49155,-0.497167 -0.30537,0.353149 -0.4157,1.456825 0.21475,0.725999 0.0571,-0.10294 0.22361,-0.121656 0.2768,-0.229029 z"
       id="path4496"
       inkscape:connector-curvature="0" />
  </g>
</svg>
