<?xml version="1.0" encoding="UTF-8" standalone="no"?>
<!-- Created with Inkscape (http://www.inkscape.org/) -->

<svg
   xmlns:dc="http://purl.org/dc/elements/1.1/"
   xmlns:cc="http://creativecommons.org/ns#"
   xmlns:rdf="http://www.w3.org/1999/02/22-rdf-syntax-ns#"
   xmlns:svg="http://www.w3.org/2000/svg"
   xmlns="http://www.w3.org/2000/svg"
   xmlns:sodipodi="http://sodipodi.sourceforge.net/DTD/sodipodi-0.dtd"
   xmlns:inkscape="http://www.inkscape.org/namespaces/inkscape"
   width="280mm"
   height="280mm"
   viewBox="0 0 280 280"
   version="1.1"
   id="svg5557"
   inkscape:version="0.92.1 r15371"
   sodipodi:docname="learning_by_heart.svg">
  <defs
     id="defs5551" />
  <sodipodi:namedview
     id="base"
     pagecolor="#ffffff"
     bordercolor="#666666"
     borderopacity="1.0"
     inkscape:pageopacity="0.0"
     inkscape:pageshadow="2"
     inkscape:zoom="0.7"
     inkscape:cx="1039.5132"
     inkscape:cy="538.09687"
     inkscape:document-units="mm"
     inkscape:current-layer="layer1"
     showgrid="false"
     inkscape:window-width="2560"
     inkscape:window-height="1365"
     inkscape:window-x="-9"
     inkscape:window-y="-9"
     inkscape:window-maximized="1" />
  <metadata
     id="metadata5554">
    <rdf:RDF>
      <cc:Work
         rdf:about="">
        <dc:format>image/svg+xml</dc:format>
        <dc:type
           rdf:resource="http://purl.org/dc/dcmitype/StillImage" />
        <dc:title></dc:title>
      </cc:Work>
    </rdf:RDF>
  </metadata>
  <g
     inkscape:label="Layer 1"
     inkscape:groupmode="layer"
     id="layer1"
     transform="translate(471.35288,-54.606968)">
    <path
       style="fill:#000000;stroke-width:0.26458332"
       d="m -404.718,306.12811 c 0.99428,-1.85613 0.82714,1.78693 0,0 z m 1.48829,0.3181 c 1.47453,-1.62406 5.04206,-0.7508 7.33492,-1.54246 5.35486,-1.01551 10.65172,-2.32946 16.07361,-2.97997 10.44807,-1.74576 21.06184,-1.99815 31.53971,-3.50552 17.19971,-2.25007 34.18231,-5.84384 51.22854,-8.9993 4.31858,-0.80331 8.73185,-0.90067 13.05672,-1.61704 3.91162,1.60344 8.05663,-0.2128 12.0645,-0.45167 8.22094,-0.8342 16.53968,-0.96586 24.61985,-2.87373 9.84408,-1.90296 19.62242,-4.23675 29.57153,-5.53228 1.50033,0.41262 4.90348,-1.50463 5.19145,0.48513 -3.88569,0.64996 -7.8703,0.73757 -11.74367,1.5667 -10.45819,1.71209 -20.73586,4.40724 -31.22691,5.91454 -7.50579,0.93282 -15.10756,0.98467 -22.55772,2.38614 -3.58044,0.21764 -7.17654,-0.48828 -10.75332,0.12088 -10.75494,0.98348 -21.23573,3.75443 -31.86618,5.54703 -15.61438,2.92027 -31.33433,5.40379 -47.19644,6.47102 -8.47188,0.96832 -16.96071,2.04046 -25.26031,4.02923 -3.30806,0.47445 -6.75347,1.40141 -10.07628,0.9813 z m -18.95079,-4.27773 c 2.43498,-0.92194 5.55762,-1.05929 8.2574,-1.58541 3.88234,-0.37019 7.8671,-0.46695 11.71659,0.18753 -1.75441,0.58286 -5.04365,-0.24559 -7.40089,0.002 -1.08093,0.0481 -5.41181,-0.0215 -4.70332,0.59046 1.3036,-0.19482 6.46109,1.19966 2.61273,0.79125 -3.46108,-0.23988 -6.9493,-0.0436 -10.39276,0.12008 l -0.0898,-0.10553 z m 26.27309,-2.02706 c -3.72935,-1.31975 -7.81375,-0.94189 -11.6912,-1.535 -6.51598,-0.62938 -13.10363,-1.69895 -19.64769,-0.90684 -1.05163,0.2472 -2.9035,2.26892 -1.39902,0.0767 0.76603,-1.10852 -3.61133,0.52866 -4.11851,0.92285 -0.37832,-0.81452 2.26633,-1.63851 -0.45367,-1.3119 -3.53516,0.2201 -7.12475,0.36209 -10.57939,1.17428 -0.93905,0.3606 1.06239,1.28216 -0.99523,0.78705 0.45846,-2.29406 5.18571,-1.65854 7.40424,-2.09283 3.9813,-0.29351 7.98027,-0.45387 11.95831,-0.70104 0.28787,-1.095 3.73168,-2.21233 2.86518,-2.22101 -4.20092,-0.30231 -8.3877,0.34671 -12.52104,0.94649 -1.13431,-0.28025 -1.91343,1.62427 -2.45823,0 -1.04984,0.3804 -2.47366,2.31692 -1.33706,0.0169 3.99159,-1.69863 8.46972,-1.56324 12.70785,-2.18243 4.69031,-0.50141 9.27209,-1.73043 14.00727,-1.88199 4.70314,-0.24239 9.52262,0.0974 14.06225,1.40012 2.42796,1.19984 6.59023,1.9093 7.53022,4.41392 -2.71364,-0.98465 -5.24147,-2.7128 -8.09185,-3.50292 -4.28109,-1.02053 -8.75959,-1.6767 -13.15916,-1.29041 -0.4335,0.72162 3.84125,0.56233 5.14093,1.04129 3.40391,0.60886 7.01706,0.60049 10.21538,2.00088 -0.67381,1.46915 -4.43218,-0.88138 -6.24873,-0.51818 -5.10903,-0.65381 -10.31834,-1.93414 -15.46117,-1.00443 2.32222,1.42331 5.48261,1.59873 8.26728,1.51066 5.35132,-0.061 10.60472,1.23228 15.69762,2.74084 -2.04971,0.43261 -5.52459,-1.23492 -8.13534,-1.51991 -6.46777,-1.08859 -13.07378,-0.62985 -19.60186,-0.59951 -1.31419,-0.12616 -3.25187,0.54881 -0.75763,0.57085 8.69021,0.35536 17.47248,0.46073 26.01273,2.25801 1.49779,-0.14606 4.38433,2.88046 1.31964,1.65932 l -0.53207,-0.25153 z m -2.53224,-1.31691 c -0.86209,-0.29152 -0.71138,0.49126 0,0 z m -3.46336,-0.50833 c -2.63859,-0.41546 -5.31076,-0.50179 -7.97436,-0.62919 3.32901,0.51581 6.67319,1.08128 10.05417,0.97869 -0.69322,-0.11654 -1.38684,-0.23275 -2.07981,-0.3495 z m -8.4343,-0.83652 c -1.98785,-0.23571 -0.6751,0.39863 0,0 z m -6.68381,-2.60374 c -1.026,-1.09444 -6.54961,0.50812 -2.77043,0.37014 0.29356,-0.11511 4.90907,0.2445 2.77043,-0.37014 z m -3.50573,-1.35845 c -1.05178,-0.22348 -0.88496,0.41617 0,0 z m 35.97748,6.09143 c -1.878,-0.93867 -2.00797,-1.64692 -1.24311,-2.99167 -0.5573,-0.81341 -1.88406,-3.10856 -0.21494,-2.06856 0.67771,-1.34095 -2.29477,-3.54982 -0.70164,-4.04699 1.57296,1.58768 1.3533,4.07128 2.02997,5.82417 3.22255,-1.26172 6.25795,-3.07695 9.70854,-3.7435 5.67322,-1.73967 11.39379,-3.47576 17.35249,-3.86679 6.71103,-0.95557 13.32662,-2.57041 20.11209,-2.97899 9.6671,-1.0561 19.40733,-1.43763 29.00636,-3.08546 12.23917,-1.73675 24.58535,-2.65417 36.77262,-4.77038 7.572,-1.18568 15.23663,-1.57823 22.86808,-2.17072 7.11722,-0.15505 14.27038,-0.28121 21.36047,0.43869 2.84824,0.96507 -2.60048,0.6142 -3.64555,0.71572 -8.01926,0.0738 -16.08679,-0.21766 -24.02405,1.16839 -13.93884,1.93843 -27.86385,4.01568 -41.74266,6.3359 13.48919,-0.79091 26.99715,-2.31079 40.49385,-3.38183 5.90794,-0.49911 11.77066,-1.43979 17.61767,-2.35172 1.31863,2.05105 4.85398,-0.54689 7.18137,-0.22384 3.2679,-0.43112 6.52144,-0.98849 9.73159,-1.71817 1.03316,1.76453 -3.65797,1.76721 -5.11471,2.20154 -7.04065,0.84486 -13.9064,2.70046 -20.95662,3.4832 -7.8367,1.2348 -15.84797,0.59546 -23.65408,2.14095 -9.85499,1.34721 -19.54138,3.76433 -29.46588,4.61573 -9.97912,1.11596 -19.91434,2.58852 -29.88006,3.80807 -5.37896,0.92985 -10.75641,1.86194 -16.21355,2.20086 -6.14762,0.51058 -12.29299,1.2234 -18.27153,2.78814 -4.60376,0.79813 -9.25326,1.35472 -13.88621,1.93664 -1.75279,-1.34628 4.04416,-1.59615 5.4447,-1.89868 4.37739,-0.55743 8.84665,-0.98384 13.02039,-2.49369 2.83522,-1.58079 6.25231,-1.64176 9.33622,-2.5422 6.56297,-1.74723 13.34691,-2.28864 20.11434,-2.40519 8.68211,-0.28692 17.24204,-1.8387 25.79768,-3.20663 2.97031,-0.82969 5.01941,1.21037 7.96976,0.27725 8.65089,-1.04031 17.14837,-3.03841 25.77075,-4.26991 0.15889,-0.37739 -4.75577,0.25735 -6.57724,0.34505 -10.30403,0.89049 -20.6382,1.56304 -30.84727,3.29731 -10.9091,1.82664 -21.94966,2.54783 -32.94742,3.60669 -10.68892,1.02481 -21.31614,2.87589 -31.57534,6.08957 -2.89417,0.72719 -5.79205,1.48126 -8.56027,2.58112 0.70952,-2.0254 5.33533,-2.24281 7.66294,-3.10116 10.17924,-2.99173 20.5851,-5.27804 31.1689,-6.19963 10.89388,-1.06879 21.84335,-1.66782 32.65058,-3.49252 3.60935,-0.56639 7.24235,-1.0181 10.82488,-1.73397 -15.30649,0.91949 -30.52996,2.9008 -45.77291,4.53115 -3.05894,0.29069 -6.1201,1.13044 -9.20245,0.86379 -2.36249,-0.73671 -5.03541,0.19705 -7.49061,0.40886 -5.39377,0.94588 -10.59679,2.7319 -15.82325,4.31309 -1.81726,1.12293 -6.35664,1.54889 -5.27158,4.39516 1.3734,2.01555 0.15408,1.76283 -0.91331,0.37516 z m 28.44305,-4.75314 c -0.86196,-0.29153 -0.71154,0.49124 0,0 z m 3.51124,-0.36128 c 8.19887,-0.66528 16.36094,-1.69289 24.45846,-3.14788 2.32862,-0.39169 -3.35666,-0.0464 -4.19279,-0.058 -7.77606,0.10066 -15.555,1.15391 -23.01483,3.35822 0.83383,0.17694 1.8644,-0.11847 2.74916,-0.15239 z m 28.24736,-3.6294 c -1.98783,-0.23571 -0.67515,0.39864 0,0 z m 2.24587,-0.25803 c -1.0521,-0.22343 -0.8846,0.41615 0,0 z m -26.92136,-1.65304 c 9.71174,-1.28216 19.47968,-2.18868 29.20148,-3.3404 -8.79554,0.1254 -17.5757,1.15418 -26.28753,2.35826 -1.82274,0.34284 -6.01836,0.85074 -6.54167,1.43183 1.21525,-0.0932 2.42146,-0.27972 3.62772,-0.44969 z m 36.57314,0.3455 c -0.86196,-0.29153 -0.71154,0.49124 0,0 z m 6.42166,-0.76765 c 1.17953,-0.0814 6.25969,-0.74959 2.53698,-0.59236 -2.31183,0.19105 -5.97918,0.46976 -7.43178,1.12746 1.63192,-0.17545 3.26333,-0.35559 4.8948,-0.5351 z m -3.43959,-3.84321 c 14.68873,-0.93867 29.13968,-3.8933 43.69728,-5.90949 1.85509,-0.37479 6.70009,-0.75498 6.71506,-1.1883 -11.61976,0.86947 -23.0335,3.42537 -34.64286,4.41795 -8.42646,0.82334 -16.80854,2.07103 -25.16951,3.37336 3.13683,-0.165 6.26686,-0.46644 9.40003,-0.69352 z m 11.57861,-0.17357 c -1.98776,-0.23567 -0.67521,0.39858 0,0 z m 28.17503,-1.58094 c -1.05202,-0.22346 -0.88464,0.41617 0,0 z m 21.4974,-1.65418 c 3.10773,-0.53589 6.2623,-0.82017 9.34592,-1.47519 -2.06518,-0.63475 -5.40416,0.6354 -7.96855,0.79863 -3.62275,0.55851 -7.27033,0.94585 -10.90826,1.37245 3.18782,-0.005 6.37648,-0.23216 9.53089,-0.69589 z m -139.99599,17.53775 c -0.886,-4.08843 -1.05097,-8.31652 -1.98718,-12.40926 -2.2364,-13.21557 -4.34907,-26.45804 -6.12394,-39.74384 -0.606,-4.36884 -0.55363,-8.81029 -1.2436,-13.1629 -0.18803,-1.86727 0.54946,-4.72772 -0.1295,-7.18858 -1.23143,-10.75187 -3.24658,-21.3923 -5.54386,-31.96143 -2.62702,-12.6996 -3.97214,-25.61933 -4.79245,-38.54962 -0.44947,-6.55701 -1.43543,-13.0689 -3.11764,-19.42514 -0.7769,-4.16083 -1.51732,-8.32381 -2.18884,-12.49339 -0.88639,-4.13376 -1.23188,-8.37513 -1.58126,-12.57736 0.36969,-3.04109 0.1554,-6.37117 -2.39393,-8.48389 -2.11583,-2.66625 -5.25467,-4.148878 -7.97623,-6.056578 -8.02814,-2.83115 -16.56686,-3.65395 -25.0162,-4.10114 -4.41335,-0.31953 -8.9142,-0.50737 -13.28104,0.3238 -2.43864,1.5908 -1.1724,-2.07251 0.83185,-1.27628 6.25995,-0.65656 12.54916,-0.33187 18.79704,0.28226 4.40652,0.17602 8.80274,0.58012 13.0783,1.71437 2.84907,0.0527 5.44003,1.30533 7.64435,3.03958 3.62503,1.95378 6.57955,4.899808 9.56161,7.656308 1.48845,1.05872 -0.52801,4.06947 0.50252,4.39781 4.13358,-3.10779 8.27307,-6.37191 13.29887,-7.91162 9.07583,-3.318438 18.95395,-2.122828 28.33972,-1.144858 10.0154,1.114378 19.8874,3.157598 29.78165,5.007948 12.07249,1.61972 24.29712,1.58051 36.45335,1.37483 0.9939,-0.1425 4.8832,-0.3243 2.40224,0.95756 2.0404,-0.43928 2.09978,0.96961 0.0738,0.7943 -10.04689,0.28281 -20.16183,0.75236 -30.1642,-0.4855 -13.82963,-2.1135 -27.6224,-4.57141 -41.54397,-6.01001 -6.6093,-0.3965 -13.26746,-1.00397 -19.88057,-0.45932 -4.77169,1.26468 -9.0578,3.90003 -13.42256,6.14647 -2.20523,1.13792 -4.22061,2.58079 -6.18582,4.08423 0.006,1.89839 0.78812,2.69898 2.555,3.05432 1.08351,1.40153 0.60576,2.20854 -0.3581,2.13269 -0.0711,1.24112 2.41815,4.35329 -0.0318,2.6021 -1.05525,0.96986 2.46302,5.42285 0.0475,3.29881 -1.82415,-2.05752 -0.009,2.47773 1.00733,2.86617 1.13206,0.94315 1.25371,3.26157 -0.12559,1.17178 -1.28908,-1.89314 -0.84698,3.80328 1.00933,3.55404 2.09208,2.57835 -0.50282,5.86308 2.28894,8.11413 -0.79661,0.6942 -2.41237,-3.12211 -2.02452,-0.24435 0.18388,0.47755 0.80685,4.37479 0.98693,2.77309 -0.0407,-1.4472 1.02804,-2.65254 0.7077,-0.31102 0.67817,2.75083 0.35513,5.74871 0.81889,8.4337 3.2605,1.77408 -0.9816,5.89561 1.34431,7.14306 2.32542,2.03683 -1.50134,4.21512 -0.56922,6.48552 0.26541,2.04641 2.59788,0.5772 2.09476,3.14886 -1.6333,1.67146 -2.08951,3.77871 -1.30428,6.29005 0.25726,0.53757 0.1331,3.65162 0.62327,2.62269 1.82339,-2.24541 -1.83842,-4.05439 0.34304,-6.34263 1.85014,-1.21384 -1.11345,2.86896 0.62748,3.3503 1.82322,1.37321 -1.10319,3.25023 -0.5196,4.70416 1.13942,0.97286 1.28575,2.36854 -0.16023,1.31626 0.037,1.06019 0.0253,5.81583 1.22892,4.44628 -0.5732,-4.58342 2.73205,3.9511 -0.15731,2.23329 -0.88156,-2.26077 -0.13129,3.97554 0.70246,4.59111 -0.25475,-1.60435 0.63593,-3.49013 1.04685,-0.83841 0.98462,1.03898 1.80492,4.15293 0.069,1.6853 -0.91792,-1.96296 -1.35637,2.65215 -0.48885,3.33405 0.59711,-0.12636 0.83336,-1.80224 1.2058,0.11443 1.00065,1.66976 0.27648,1.87804 -0.61651,2.82297 -0.0632,1.46125 3.85391,3.26909 2.59708,4.29826 -1.88838,-3.35127 -1.77239,4.331 -0.89525,0.85453 1.32841,0.237 -0.66722,3.90534 0.39034,5.39475 0.12604,1.41262 0.59072,4.11285 1.69944,1.46052 0.06,1.19903 0.1632,3.07262 0.24348,4.3717 -1.98126,-3.70185 -0.46227,5.55517 0.27983,1.24061 1.65373,-1.48199 -0.99389,2.89577 0.43611,3.62296 1.2674,1.60141 -0.0864,2.06898 -0.74239,0.46552 -0.28282,1.84873 2.32065,1.98928 1.04176,4.07585 1.14539,0.85534 1.82315,5.85608 0.49872,2.64402 -1.31879,-3.71801 -0.0336,5.55195 0.0149,2.68142 0.29046,-2.85149 1.15726,1.67249 0.90857,2.57253 0.40221,1.42074 -1.83008,-0.41668 -0.99358,1.58886 0.21512,1.87611 0.34572,2.38634 0.63774,0.26544 1.4716,-0.22078 -0.636,3.53829 0.23063,4.69604 -2.03238,0.92382 2.24582,4.37594 -0.41095,5.44845 0.98681,1.4999 2.93925,4.24725 0.59024,4.96068 -0.36125,2.26731 3.74238,4.8347 2.12304,6.75179 -0.19019,1.17945 1.68501,4.94923 -0.60253,2.62456 -1.22082,2.58075 2.24797,3.17143 2.3507,4.86287 -0.29901,-2.81245 1.95815,-0.67573 0.82253,0.87206 -1.09796,1.88337 1.10328,5.25764 0.0401,6.15816 -1.28286,-1.79245 -1.31401,-3.96998 -1.54466,-5.84774 -1.14966,2.4862 -0.61154,5.78209 0.97958,8.03398 0.23658,1.71 1.60415,-1.48349 1.32559,1.26566 -0.90793,2.89716 -0.0448,5.32339 1.18005,7.90302 -1.91655,1.77566 2.15736,5.14087 0.67833,5.81097 -0.5495,-1.10002 -1.96108,-3.4472 -1.576,-0.9564 0.04,2.16281 3.40411,2.92371 2.08122,5.64492 -0.72247,2.9297 -0.62078,5.97351 0.14829,8.89304 0.75012,1.46979 -0.44802,2.05348 -1.07694,0.44947 z m -0.21241,-12.2291 c -1.49652,-0.96683 0.68619,5.56816 0.3364,1.56907 -0.006,-0.52777 0.0457,-1.14617 -0.3364,-1.56907 z m -1.17292,-6.32352 c 0.57664,-1.15239 -1.1152,-5.57104 -0.80557,-2.1598 -0.006,0.47034 0.53853,4.40214 0.80557,2.1598 z m -1.3929,-8.92368 c -1.34995,-3.1371 0.0222,5.29577 0.41403,1.38907 0.0581,-0.49854 -0.16284,-0.97642 -0.41403,-1.38907 z m -1.93937,-11.43453 c -0.92307,-2.39595 0.17719,3.68161 0.32288,1.11983 -0.0353,-0.38884 -0.13745,-0.77473 -0.32288,-1.11983 z m -0.75549,-8.14761 c -0.25217,-1.86959 -1.50239,-2.29053 -0.77534,-0.10448 0.11564,0.78396 1.23132,1.78884 0.77534,0.10448 z m -1.58975,-8.27434 c -0.3976,0.67729 0.23582,1.98611 0,0 z m -1.85864,-23.94171 c -0.43554,0.27751 0.2593,1.329 0,0 z m -3.96324,-21.41471 c -0.47545,-0.18894 0.17796,1.12951 0,0 z m -4.43267,-32.92477 c -1.55977,-3.7586 -0.28803,4.2081 0,0 z m -0.6345,-8.76364 c -1.39017,-1.34542 -0.18299,4.59452 -0.11887,1.69469 0.0975,-0.55825 0.19617,-1.12639 0.11887,-1.69469 z m -0.78605,-6.30835 c -0.96069,-1.96202 0.0937,2.29373 -0.1159,2.80262 0.35463,-0.0769 0.66569,-2.19651 0.1159,-2.80262 z m -1.0933,-6.57119 c -0.7926,-2.3069 0.33371,2.52613 0,0 z m -1.72171,-9.95815 c 0.61797,-1.3367 -0.78358,-4.24218 -0.82606,-1.29488 -0.15319,1.16293 0.5399,4.48216 0.82606,1.29488 z m -2.73945,-16.03878 c -1.25707,-1.35308 -0.38797,3.16922 0.0307,0.43372 l -0.0308,-0.43372 z m 0.2666,-2.05276 c -0.86565,-4.88032 -2.01291,2.76558 0,0 z m 107.86398,-8.26006 c -1.0521,-0.22343 -0.8846,0.41615 0,0 z m -96.9388,-4.46392 c -1.18325,0.0434 -6.51653,3.19326 -2.72837,1.39297 0.917,-0.44661 1.86111,-0.85331 2.72837,-1.39297 z m 25.5013,-2.42674 c -2.65895,-0.15416 -0.4679,0.3524 0,0 z m -4.03489,-0.35064 c -2.77262,-0.225438 -5.55572,-0.164598 -8.33438,-0.155058 3.43336,0.260398 6.87587,0.364208 10.31875,0.342448 -0.6614,-0.0625 -1.32326,-0.12462 -1.98437,-0.18739 z m 175.53439,180.95896 c -0.89172,-0.82916 -3.52242,-3.02266 -3.20093,-0.50494 -1.38874,-1.79232 -3.50805,-2.25726 -5.86502,-2.5121 0.47378,-2.43469 -2.02036,-3.57042 -2.67506,-1.96941 -0.003,-1.55407 -2.55656,-2.13125 -0.63282,-2.63411 0.27303,-1.97869 -4.10706,-5.03984 -2.24351,-1.40454 1.00103,3.17092 -1.73583,-0.75661 -1.17281,-2.13234 -0.96775,0.27969 -1.70077,-0.11431 -0.44633,-0.99174 -0.81362,-0.85703 -2.52985,-2.799 -1.66786,-0.44529 -0.34319,3.11192 -0.82392,-2.34026 -1.53363,-3.05123 -1.85897,-2.04762 -1.62777,3.26698 -2.51873,-0.27071 -1.61485,-0.0331 -2.35895,-1.64798 -0.20762,-1.3403 0.91497,-1.78844 -3.40912,-5.18118 -3.41864,-2.09954 -0.0593,-1.39483 -1.82926,-2.18969 -2.00643,-2.87092 3.57828,0.45953 -1.58683,-4.64685 -0.36335,-0.75297 -0.92492,1.0366 -1.03304,-3.65291 -2.87877,-3.45273 1.31296,-0.76385 3.98722,1.61168 1.89036,-0.81041 -0.74021,-1.31693 -2.32371,-2.99802 -2.11213,-0.29325 -0.87145,2.43606 -0.242,-3.14162 -2.16851,-2.42102 -0.0703,-0.67056 1.50828,-1.20877 -0.10585,-2.1632 -1.09275,-2.33692 -0.5038,2.73739 -1.28602,-0.30459 0.66665,-1.8262 -0.5027,-2.66018 -2.07009,-2.98283 -0.23577,-1.45527 -0.40948,-3.89852 -1.46791,-4.5602 -0.1506,3.63089 -0.98033,-0.99064 -1.23709,-2.04752 -2.73219,-0.26 -0.97552,-4.15063 -3.35973,-5.20152 -0.15026,0.0627 0.15896,2.91273 -0.77502,0.42219 -0.27309,-1.61179 -1.26078,-3.27717 -2.09254,-2.40959 -0.33142,-2.45297 -3.42808,-1.57055 -3.4309,-4.07753 -2.72,-0.55113 -3.75649,-3.18749 -6.52338,-3.62969 -3.14515,-0.69793 -3.55974,-3.86912 -5.70163,-5.61518 -1.79458,-1.34363 1.59819,2.77696 -0.23006,2.34378 -0.57941,-2.48255 -3.65955,-1.71695 -4.39074,-2.81384 1.43079,-1.09601 -0.47057,-2.0024 -0.85558,-0.90213 -0.61459,-1.6063 -1.84237,-2.42974 -3.32553,-2.94539 0.13801,-1.88543 -2.24809,-1.66626 -1.09601,0.21346 -0.87183,-0.62222 -4.70204,-2.22921 -1.63214,-1.89361 1.4226,0.28782 -1.25836,-1.22179 -0.2991,-2.29933 -1.98785,-2.27643 -0.74919,0.56712 -0.65138,1.69431 -1.19277,-1.07862 -3.20262,-2.35971 -3.69495,-3.95038 -2.09394,-0.82288 -2.51311,-4.29509 -3.39852,-6.34538 0.41408,-2.8761 -1.945,-4.61611 0.85323,-7.01351 2.36524,-1.62642 4.36639,-3.32235 7.25904,-2.72735 5.76065,-0.95794 11.01177,2.19784 16.20244,4.16807 0.88967,0.2291 4.80365,1.9504 2.71447,2.22314 -3.04259,-1.89313 -6.54404,-3.03912 -9.90516,-4.12783 -2.63768,-1.28001 -5.95101,-2.41034 -8.7745,-1.04705 -2.05414,-0.70136 -5.38464,1.56971 -6.51757,3.57505 -0.69303,3.02431 -0.28818,6.1258 1.80509,8.42964 1.96707,2.62019 4.81756,4.31335 7.42139,6.25246 2.55809,1.38477 4.17671,3.91417 6.77114,5.22274 4.10868,1.99349 8.00621,4.39176 11.84411,6.85637 3.94123,3.45244 8.13223,6.8021 11.15294,11.14914 1.61657,1.32511 0.44503,4.63895 2.2558,4.32471 2.19198,1.71115 1.9721,4.43155 3.57583,6.54265 1.46204,2.44027 2.62124,5.49731 5.64941,6.39361 0.40417,1.58973 2.00592,3.57573 3.36632,5.43311 2.11582,2.73537 4.31086,5.48781 7.06459,7.60563 1.44258,3.04204 4.61293,4.64091 6.85901,6.96996 3.0967,2.51342 6.51559,4.69381 9.6431,7.10274 0.91803,-0.13144 5.18504,4.82895 1.60528,2.09244 z m -4.17585,-3.30658 c -2.32258,-1.6172 0.0469,1.15122 0.59274,0.48614 l -0.23021,-0.2175 z m -2.54439,-0.64869 c -2.38822,-2.12668 -1.33448,1.52725 0.68192,0.70647 -0.16878,-0.28478 -0.44777,-0.48193 -0.68192,-0.70647 z m -4.15507,-3.2772 c -0.91625,-3.04158 -1.05772,1.53081 0,0 z m -14.11117,-14.55581 c -0.58616,-0.93168 -0.66889,0.49126 0,0 z m -10.79941,-14.75732 c -0.97533,-0.37391 0.68541,1.20647 0,0 z m -3.84203,-7.41715 c -0.43551,0.27757 0.2593,1.32896 0,0 z m -2.24843,-3.83646 c -0.90583,-1.21665 -4.71812,-4.74021 -1.90517,-1.69507 0.49029,0.56058 3.86804,4.21294 1.90517,1.69507 z m -4.2768,-4.37807 c -0.69764,-1.06153 -3.16397,-2.80452 -1.13892,-0.81699 0.3336,0.16897 0.78258,0.96095 1.13892,0.81699 z m -2.38125,-2.22072 c -0.79407,0.47668 -3.64186,-2.42955 -2.54264,-1.25142 0.6943,0.51575 1.67213,2.09717 2.54264,1.25142 z m -3.70417,-2.31288 c -0.93679,-1.24789 -2.30328,-1.21834 -0.55267,0.0112 l 0.35424,0.0821 0.19843,-0.0934 z m -2.30188,-1.29843 c -0.67655,-1.48814 -1.68062,-1.23527 -1.5083,0.29168 0.49709,0.0846 1.14042,0.14211 1.5083,-0.29168 z m -2.11937,-0.96854 c -0.47639,-1.42926 -3.30795,-3.00378 -1.46528,-0.36665 0.24589,0.23343 2.08221,1.52498 1.46528,0.36665 z m -7.22041,-4.6146 c -0.58617,-0.93166 -0.66888,0.49125 0,0 z m -4.49396,-3.83986 c -2.28896,-1.25392 1.45734,1.53956 0,0 z m -6.88312,-4.57877 c -1.11109,-2.32199 -1.37963,0.68449 0,0 z m -2.65011,-2.84977 c -1.22978,-1.47066 0.83739,2.48962 0,0 z m -59.1301,61.12675 c 0.58119,-1.58969 2.93108,-2.04449 4.36697,-3.03094 1.22284,-0.91277 2.79732,-0.15751 4.19914,-0.22341 3.23959,0.30552 6.66229,0.52471 9.60026,-1.14601 2.8067,-1.20979 5.86955,0.59121 8.65489,-0.74806 3.33124,-2.02286 6.79313,0.62337 10.17646,-0.55879 2.84577,-1.73261 6.27143,-0.24687 9.36701,-0.29833 2.97103,0.49482 5.86719,-0.64731 8.81965,-0.55685 0.4094,1.52106 -4.18116,1.21157 -5.66685,1.61018 -3.54302,0.39084 -7.08009,-0.73609 -10.59271,-0.43492 -2.32182,1.20163 -5.039,1.45869 -7.50336,0.50937 -3.15398,-0.47093 -6.10715,2.15358 -9.29431,1.18006 -3.34716,-0.95611 -6.15064,2.27983 -9.5323,1.77859 -3.00965,0.006 -6.48415,-1.50065 -9.11691,0.57454 -1.05606,0.31817 -2.4909,1.94301 -3.47794,1.34457 z m -17.47746,-4.20788 c -1.6572,-0.0666 -3.13486,-3.05117 -0.572,-1.67349 3.21568,1.78872 6.05129,-1.57141 9.03528,-2.21316 2.43352,1.18703 5.58894,1.35971 8.49756,1.22488 3.42705,0.4655 -0.92094,1.52368 -2.28105,1.04741 -3.04081,-0.33144 -5.69549,-0.28887 -8.57831,0.55281 -2.20473,0.43107 -3.80066,2.76159 -6.10148,1.06155 z m 84.02017,-1.74682 c 2.49703,-1.39657 6.47381,-0.50781 9.3742,-1.95847 2.41791,-0.79525 5.058,-1.39093 7.31724,-2.13947 2.81207,1.18728 -2.46736,1.67064 -3.46588,2.05233 -4.23882,1.31011 -8.63461,2.69334 -13.11913,2.22013 z m -52.56789,-0.55751 c 0.13758,-3.74949 4.35115,-4.9222 7.0559,-2.77625 2.86384,1.78317 5.42015,-0.58268 8.16468,-1.11603 3.25759,-0.36613 6.88849,1.14412 9.81367,-0.93701 0.96663,-1.15527 3.95694,-1.03474 1.48791,0.32241 -2.53104,1.93583 -5.74714,2.15953 -8.78585,1.62596 -3.28868,-0.99744 -5.74626,2.56542 -8.91721,1.73992 -1.94499,-0.48413 -4.05033,-1.69774 -5.91136,-1.86594 -1.18635,0.6617 -1.85789,3.83891 -2.90774,3.00694 z m -32.2052,-2.41366 c -0.34159,-3.10563 3.79383,-2.54414 5.43841,-4.14443 1.99804,0.17149 4.37462,-0.50929 5.78051,-0.60186 -1.30464,3.29799 -5.81934,-0.10548 -7.36425,2.95175 -2.23354,-0.32119 -2.42737,0.99921 -3.85467,1.79454 z m 68.50121,-1.1283 c 1.43574,-1.37696 4.51936,-3.00024 6.94699,-3.16608 2.72526,1.51132 5.76138,1.58715 8.8382,1.37707 1.50734,0.21387 4.73437,0.0132 5.0822,1.44123 -2.87268,0.1465 -6.01726,-0.58066 -9.0417,-0.32565 -3.00108,-0.0642 -5.78153,-2.881 -8.53062,-0.15881 -0.97479,0.32851 -2.31217,1.56064 -3.29507,0.83224 z m -53.92482,-2.2136 c 1.65939,-1.85412 5.93195,0.29717 8.27053,-1.21413 3.1049,-0.86512 6.5542,-1.96486 9.89969,-1.25622 2.90336,0.18076 5.92958,1.09027 8.77177,0.50982 2.07338,-2.80499 5.49851,-0.60551 8.23974,-0.58832 3.00961,0.63815 -1.22592,1.59576 -2.40013,0.73254 -2.12228,-1.09924 -4.32431,-0.44813 -5.73098,1.17658 -4.01524,-0.28239 -8.02259,-0.68511 -12.02214,-1.0895 -2.56869,0.82476 -5.31527,0.8097 -7.66535,1.94481 -2.39899,-0.0538 -5.12585,0.55637 -7.36313,-0.21558 z m -16.53989,-4.81034 c 2.25753,-2.1334 5.75591,-1.32115 8.27287,-2.64003 0.88196,-2.16653 5.54764,0.64062 3.26207,0.95301 -2.15381,-2.1541 -3.76632,2.40335 -6.34156,0.71276 -1.57902,0.0293 -4.02914,2.00102 -5.19338,0.97426 z m 68.87721,-0.32776 c -0.96047,-0.66047 -6.02112,-0.93882 -3.7835,-2.04144 2.92982,0.83216 5.91724,1.33628 8.96929,0.80135 3.46014,-0.28786 6.8548,-1.28319 10.35426,-0.81168 1.67801,-0.0193 3.44579,0.51559 4.97986,-0.39255 3.1572,-1.21395 6.56355,-2.22959 9.97257,-1.88313 2.14897,1.76865 -3.0835,0.92158 -4.1213,1.25529 -3.08547,0.10421 -5.62093,2.46422 -8.76692,2.02663 -3.37655,-0.10264 -6.75648,-0.0891 -10.07419,0.59261 -2.49942,0.24147 -5.01699,0.54851 -7.53007,0.45292 z m -11.37708,-2.0747 c -3.85446,-2.71849 2.49275,-3.06366 4.31681,-3.96112 2.4295,-1.15091 5.79113,1.44793 7.58659,0.009 -2.25073,-1.47724 0.55593,-3.27118 0.14759,-4.4691 -1.29629,-0.38357 -4.86775,-1.60143 -1.45865,-1.95481 2.47088,0.21211 3.79687,3.64799 6.54068,0.87413 3.03248,-0.81391 6.27813,-0.31515 9.33642,-0.82681 -0.23328,-2.88993 3.66581,0.87959 5.42898,-0.44804 2.02675,0.13269 6.34325,-2.18807 7.18868,-0.26435 -3.64584,0.746 -7.36461,1.6029 -11.1163,1.33381 -1.97015,1.54546 -5.09911,0.17152 -7.58845,0.73542 -2.39159,-0.48045 -3.80435,1.85379 -6.09485,1.59783 0.3288,1.78721 -2.31441,4.46605 0.92604,3.437 2.9411,-0.59513 5.86321,-0.1267 8.29838,1.66422 3.01671,0.66728 5.45869,-2.0939 8.28061,-2.74229 2.13846,-0.13222 0.95988,1.67325 -0.63507,1.37152 -2.76726,0.71103 -5.48165,3.83308 -8.42277,2.21646 -2.73898,-2.44721 -6.39862,-1.51631 -9.68395,-1.27682 -3.12941,1.22728 -6.01869,-1.29758 -9.09041,-0.0779 -1.83611,0.62518 -5.3616,1.0288 -2.35232,3.03904 1.23423,2.4606 -1.05826,0.52364 -1.60801,-0.25668 z m 13.04961,-5.90201 c -0.67657,-2.68661 -1.27858,3.11224 0,0 z m -46.80675,5.49338 c -0.93414,-0.76067 -1.89119,-0.95432 -2.88725,-0.18163 -1.02598,1.49227 -5.55161,0.2492 -2.29855,-0.35536 2.55302,-1.28834 5.03403,-1.24758 7.40516,0.29721 2.16034,0.17784 3.68275,-1.50688 5.27916,-2.677 1.94006,0.69826 3.93101,2.57249 6.03604,1.48304 3.00774,-2.26972 5.92908,1.1837 9.05562,0.56363 2.7686,1.2088 -3.429,1.64563 -4.45186,0.18877 -2.94929,-1.56714 -6.03116,2.21268 -8.88246,-0.2846 -1.09875,-0.98083 -2.07222,-0.61216 -3.01059,0.3765 -1.78103,1.45653 -4.25147,1.95428 -6.24527,0.58944 z m -24.9585,-3.09419 c 1.58597,-2.82064 5.51081,-1.75516 8.21116,-2.24171 2.6425,-0.62121 5.96551,-0.45425 8.26042,0.71867 -1.80275,1.15626 -5.36118,-0.84172 -7.73359,0.30322 -2.93319,0.11072 -5.88676,0.062 -8.555,1.39824 l -0.18299,-0.17841 z m 17.1292,-1.51727 c 1.60493,-2.54614 5.70561,-0.43319 7.94054,-2.42263 2.28366,0.3229 4.08762,0.51622 6.23403,-0.56995 1.65663,0.079 3.07152,1.59383 3.37485,-0.81003 1.18883,-3.46541 3.95531,2.17567 5.54409,-0.51316 0.45905,2.87271 -3.19472,1.45486 -4.44246,0.47226 -0.44381,4.24646 -4.5047,0.6266 -6.62976,2.8003 -1.96515,0.36906 -4.25457,-1.14833 -5.92876,0.81289 -2.02079,-0.68776 -4.60217,0.70671 -6.09253,0.23032 z m 38.10958,-3.51588 c -1.20378,-2.06906 -5.07885,1.51622 -4.89093,-1.94825 1.13334,0.65226 2.47325,0.88224 3.6119,-0.41302 1.04805,0.80929 1.64834,2.15708 3.20432,1.6559 2.3969,0.0862 4.8349,-0.30695 7.18393,-0.23916 -1.32383,2.09699 -5.48802,1.02825 -7.93783,1.35136 l -0.64222,-0.14135 -0.52917,-0.26552 z m -59.75589,-2.67513 c -1.51814,0.46935 -3.74772,-1.08559 -1.08074,-1.42912 1.30954,-0.22951 0.17729,1.67386 2.16709,0.92173 9.46318,-0.19608 18.81042,-1.88972 28.17219,-3.05084 3.10304,-1.50289 6.89731,0.0695 10.27705,-0.27725 10.36273,0.37393 20.68104,-0.9083 31.00863,-1.54425 1.33952,-0.41225 3.96919,0.15133 1.12929,0.47999 -12.17471,0.92608 -24.3878,2.24154 -36.61041,1.49036 -2.9508,-0.6603 -5.27964,1.38587 -8.32188,1.20437 -3.61409,0.68788 -7.36767,0.50659 -11.00875,1.13991 -5.20659,0.7129 -10.47026,1.28131 -15.73247,1.0651 z m 2.22244,-1.21937 c -0.84461,-3.38434 -0.42033,-6.99896 -1.42718,-10.38169 -1.37839,-6.03653 -4.08835,-11.72594 -5.16132,-17.82616 1.74272,-1.03378 1.41827,3.52783 2.22526,4.79876 2.12632,7.01989 4.93801,13.99414 4.96801,21.44 -0.19722,0.74436 1.3906,3.40284 -0.60477,1.96909 z m 72.52131,-6.31697 c -0.44326,-2.71762 -2.80753,-5.42005 -2.10548,-8.12244 -0.43813,-2.44542 -1.80178,-4.81044 -2.53207,-7.25298 -0.9721,-3.07619 -2.84151,-5.8657 -3.46218,-9.03099 1.77387,1.13193 2.37508,4.83246 3.52231,6.99099 1.21851,3.17116 2.45099,6.34481 3.73289,9.48578 -1.08029,2.33124 1.46106,4.82483 1.64407,7.29952 0.32764,0.71123 -0.29959,1.95765 -0.79954,0.63012 z m -38.3589,-3.17048 c -0.97016,-0.79654 0.84288,-3.66954 -0.99953,-3.0977 -2.81811,-0.64311 3.18092,-2.24266 1.82281,0.72616 -0.79714,2.27277 1.22804,1.28472 2.3191,1.38658 0.14846,1.34082 -2.36139,1.71138 -3.14238,0.98496 z m 7.16148,-0.37192 c -2.72056,-0.86525 0.93175,-2.16393 0.63594,-2.31579 -0.74739,-0.83845 -3.17469,1.02588 -1.7281,-1.00101 2.28114,-1.74811 6.1017,4.26379 1.73093,3.46465 l -0.63877,-0.14786 z m -24.89587,-2.74812 c 2.08793,-1.65327 5.05894,-1.89023 7.59476,-2.66255 7.82591,-1.78089 15.92974,-1.39303 23.834,-2.65925 2.96962,-0.26465 5.97085,-0.68609 8.95052,-0.38623 -1.11037,1.02685 -5.88156,0.29949 -8.23139,0.97028 -6.71505,0.97047 -13.49679,1.25309 -20.24164,1.90278 -4.02307,0.62553 -7.96794,1.74067 -11.79439,3.08374 z m -10.14957,-1.1734 c -1.45237,0.0648 -3.3116,-0.33531 -1.21416,-1.49909 0.43618,-1.54975 -3.87043,-1.75108 -0.75456,-2.19472 2.88356,-0.50226 1.46886,3.25649 3.7899,2.83877 0.20995,0.8063 -1.2853,1.30772 -1.82118,0.85504 z m 5.57063,-1.60137 c -1.1043,-2.77508 2.5496,-2.66734 1.91393,-0.48712 -0.51543,0.34919 -1.28608,0.76927 -1.91393,0.48712 z m 155.94809,-3.34516 c -1.38758,-2.29587 -1.86158,-5.06442 -3.59861,-7.19668 -1.68398,-2.1449 -3.35287,-4.23068 -4.40366,-6.7962 -2.56969,-4.54629 -5.92488,-8.97995 -10.91966,-11.01033 -5.33263,-2.67379 -10.40252,-5.84832 -15.74668,-8.49851 -3.53484,-1.03027 -6.38185,-4.10673 -10.26775,-3.83951 -4.57939,-0.1789 -9.28503,-0.24126 -13.79443,-0.0251 1.90825,-1.72432 5.79788,-0.48415 8.43184,-0.84307 3.8515,0.2196 8.1186,-0.50917 11.44393,1.91831 2.19361,1.91931 5.27642,1.94954 7.6503,3.71389 5.10394,2.86733 10.2363,5.68544 15.40998,8.42656 2.66748,1.51746 4.70816,3.79111 6.27938,6.40809 1.67383,2.28631 2.84718,4.87137 4.25283,7.30632 2.08523,1.89916 3.17876,4.5594 4.47614,6.90085 -0.23613,0.96116 3.37918,5.59962 0.78639,3.53539 z M -344.393,216.16666 c -1.11099,0.22928 -4.13025,-0.7633 -1.18511,-1.15227 1.61301,-0.79928 4.00637,0.0441 1.47039,1.38448 l -0.21147,-0.006 z m 5.76698,-0.58706 c -1.29586,-0.80968 -2.82818,-4.95434 -1.41802,-5.34151 0.0747,2.52299 2.85576,2.41661 3.77528,4.07117 -0.20256,1.06004 -1.34477,1.76212 -2.35726,1.27034 z m 1.11219,-1.24666 c -2.17513,-1.81547 -0.83581,1.29086 0,0 z m 104.54842,-0.15615 c -1.92031,-0.0673 -2.5994,-2.71425 -5.10001,-3.20693 -3.13556,-1.40693 -5.27378,-4.33914 -8.25862,-6.03357 -1.46772,-1.03869 -1.89186,0.3319 -2.991,-1.50981 -2.51762,-1.39676 -4.5223,-3.74168 -7.55389,-4.05832 -2.51383,-1.35447 2.87098,-1.57164 3.45694,-0.0448 1.27614,0.99685 3.92293,2.51339 2.28379,-0.20786 -0.53721,-1.58186 -2.26826,-3.19401 -2.3767,-4.35582 -1.38876,1.05174 0.61389,5.79804 -1.23864,2.65855 -0.99048,-2.2796 -2.34917,-4.75321 -3.20292,-7.01713 1.99963,0.17689 -1.5741,-4.32153 -2.14573,-5.7859 -0.65712,-2.98732 -0.98908,-6.12684 -2.99111,-8.70318 -1.51685,-2.16458 -2.13966,-5.39477 -4.21939,-6.895 0.49184,-2.52291 -1.76042,-5.05406 -2.61955,-7.49275 -0.56771,-0.94979 -1.59639,-4.01563 -1.41239,-1.44615 -0.94577,-2.76606 -2.14645,-5.82562 -3.6536,-8.52621 -1.49565,-3.07021 -2.93888,-6.18192 -4.20483,-9.3462 -0.98324,-0.42192 -0.12869,-2.51174 -1.12665,-3.38851 -1.0552,2.4484 -0.6773,-4.51912 -1.81601,-4.05612 0.78405,3.28544 -1.42211,-1.47271 -1.64321,-2.52029 -0.50256,-1.97337 -2.2869,-4.66298 -1.44451,-6.44401 0.64182,0.68218 1.24082,5.27626 1.7762,3.7096 -0.31788,-2.79968 -1.96384,-5.07498 -3.27503,-7.47057 -1.21115,-2.34937 -1.46275,-3.98995 -2.83034,-6.08911 -2.09355,0.3613 -2.20253,-1.22704 -0.13609,-1.56845 -1.71204,-0.19169 -3.40674,0.40225 -4.27229,-0.71809 -2.8905,-0.33842 3.37297,-3.18235 2.03009,-0.5739 2.69455,-0.0301 6.30305,-1.03924 6.79529,2.75511 2.23207,7.3945 4.79933,14.71622 8.43112,21.55592 4.01397,7.46761 7.61695,15.13893 11.20281,22.81751 3.17569,6.97688 7.157,13.60517 9.7656,20.82921 1.18947,3.27718 1.98078,6.87417 4.1524,9.66312 1.03458,-0.14236 0.15082,-5.32708 1.61619,-3.08405 0.0348,0.95476 -0.31132,4.66978 0.26398,1.72293 -0.0784,-2.05331 0.9339,-6.47956 2.41261,-6.67798 -0.83933,2.59185 -2.50351,5.69587 -1.2778,8.34785 -0.27655,3.30078 3.43983,4.02404 5.74436,5.31148 1.31248,1.57873 4.27326,-0.90065 4.71946,0.27298 -2.30532,2.19424 -5.31791,0.11325 -7.91345,-0.10597 -1.23432,-0.411 -4.45211,-2.30866 -2.72661,0.42791 1.41971,2.22072 1.7547,5.98703 4.28764,6.9835 2.03209,0.39201 1.14568,1.14267 -0.40365,0.86587 2.55467,1.93794 4.57442,4.75559 7.69255,5.79325 1.07503,-0.0155 2.96898,2.72644 3.03998,0.58358 0.82992,-3.25484 2.04763,-6.58142 4.37229,-9.06565 1.68427,0.0621 -1.85846,2.81567 -1.96205,4.16556 -0.79751,2.24931 -3.74665,7.47652 0.65915,7.26714 1.27942,0.64723 4.40027,-2.89778 2.63301,-0.0247 -1.26052,0.592 -3.35003,1.68129 -4.53939,0.686 z m -14.31558,-11.34235 c -2.14613,-4.42905 -3.94625,-9.0214 -6.42285,-13.28682 -1.92934,-2.37964 -1.6231,-7.21234 -4.11588,-8.46958 0.43616,2.56697 1.30411,5.43604 2.4794,7.86063 2.20153,4.34005 4.12416,8.82248 6.07203,13.27184 0.0975,0.42398 2.54896,2.17014 1.9873,0.62393 z m 0.78382,-7.42708 c -0.95483,-1.00816 -5.69587,-2.52615 -2.1836,-0.71843 0.63122,0.14518 1.66714,0.86551 2.1836,0.71843 z m -7.67873,-1.7933 c 0.602,-1.79779 -2.44673,-4.80116 -1.29574,-1.54913 0.27831,0.54404 1.1974,4.49459 1.29574,1.54913 z m -2.21184,-1.6964 c -1.31229,-1.87801 1.04138,2.47795 0,0 z m 6.75241,0.16624 c -1.76013,-1.46361 -2.04048,0.42766 -0.0841,0.52917 1.13883,0.0282 0.64526,0.0299 0.0841,-0.52917 z m -7.00615,-4.36826 c -0.94645,-1.73191 -0.90191,-3.77827 -1.91914,-5.49941 -2.11592,0.33479 0.43494,4.30329 1.22419,5.82101 0.18492,1.38622 2.08179,2.927 1.12051,0.52672 l -0.18823,-0.39022 z m -2.82407,-8.00627 c -0.80962,-3.49765 -2.53195,-6.64476 -4.38483,-9.68652 -0.33579,-2.35308 2.63818,3.2453 3.11255,4.33409 1.65867,1.47365 0.76111,5.99698 3.17061,5.76566 -0.57065,-3.09737 -2.81149,-6.13672 -4.0625,-9.18921 -1.02549,-1.44837 -1.60414,-5.57799 -3.43567,-2.69209 -0.30962,-1.21045 1.64223,-2.29477 0.38571,-3.48518 -1.07675,-2.18187 -2.02583,-4.4373 -3.28616,-6.52015 -0.84426,2.85734 2.0933,5.5939 2.60337,8.46937 -0.88601,0.70285 -1.89816,-4.04683 -2.87133,-5.3477 -1.8389,-2.11256 -0.11639,2.86401 0.51977,3.61599 2.63354,5.39021 5.06411,10.89526 7.99973,16.12907 0.9444,1.19224 0.43504,-1.07212 0.24875,-1.39333 z m -10.5766,-21.52414 c -0.52003,-1.7969 -1.08889,-3.57902 -1.66899,-5.35727 -0.80599,1.93768 -0.52057,3.89951 0.88322,5.51787 0.58741,1.56166 1.72049,2.58459 0.89618,0.23265 z m 1.50454,-0.45854 c -0.26843,-2.91661 -2.18706,-5.53038 -3.29691,-8.24121 -3.5904,-7.3053 -7.63515,-14.40224 -10.70943,-21.94719 -0.76384,2.9576 2.81399,4.60885 1.93432,7.7136 -0.0627,2.86493 3.25982,3.54364 3.09125,6.70526 0.36868,2.7831 1.029,5.33885 2.2336,7.80486 0.73228,1.15458 1.57852,4.42953 2.52773,4.29777 -0.0295,-1.24167 0.25201,-5.02528 0.80821,-1.71888 2.18687,-0.17939 1.33741,6.72766 3.41123,5.38579 z m -6.65996,-9.95113 c -0.0818,-0.88576 -1.80108,-5.64778 -0.0905,-3.58763 0.34101,1.68064 1.4708,5.02824 0.64999,5.90232 -0.26422,-0.75032 -0.41179,-1.53521 -0.55948,-2.31469 z m -3.29172,-6.77517 c -0.8531,-1.36892 0.55666,2.0784 0,0 z m -2.7909,-7.57475 c 0.34717,-1.99368 -2.01709,-2.3243 -0.83884,-0.17084 0.52304,1.11318 1.23262,2.70751 0.83884,0.17084 z m -2.90341,-10.80452 c -0.38893,-1.14037 -0.77785,-2.28075 -1.16678,-3.42112 -0.18259,1.97019 0.12606,3.94836 1.4287,5.52822 1.44048,3.25873 0.20592,-0.93605 -0.26196,-2.1071 z m -1.55879,-3.46123 c 0.88832,-1.52897 -2.03071,-6.93367 -2.84991,-4.3788 1.01518,1.09349 1.556,5.0413 2.54848,4.7024 l 0.30147,-0.3236 z m -48.06727,95.20028 c 1.09277,-0.70113 1.71308,-1.22994 0.29699,-1.70778 0.0566,-2.75969 5.30919,-0.55768 2.08423,0.53168 1.33749,-0.0319 2.06698,1.70001 -0.0938,1.39333 -0.74881,-0.0339 -1.59319,0.10065 -2.28744,-0.21723 z m 7.45434,-0.11932 c 0.2784,-1.67465 -1.53495,-3.44871 -1.2671,-4.5425 2.71727,-1.09032 5.82142,-0.53684 8.69769,-0.82224 3.6915,-0.0881 7.45535,-0.46357 10.80588,-2.13141 1.88395,0.88883 -3.42396,2.46174 -4.78717,2.59652 -2.20734,0.95145 -6.86477,-0.49239 -7.56287,1.68092 0.32569,0.83786 2.4623,0.90299 0.40036,1.67978 -0.15018,0.71727 0.52116,2.5757 -1.07385,1.55724 0.46055,-2.0685 -4.29232,-1.63393 -1.54871,-3.64887 1.81587,-1.25885 -5.53899,-1.15597 -3.16814,0.89688 0.37396,0.52272 0.95897,3.97467 -0.49609,2.73368 z m 4.98107,-2.83357 c -0.5201,-0.94449 -1.09626,1.00909 0,0 z m 3.43959,2.0305 c -0.0175,-2.52491 5.21967,-2.0035 3.85348,0.0737 -1.34837,-1.95824 -2.79649,2.11908 -3.85348,-0.0737 z m 5.92378,-0.69641 c -2.8516,-1.52041 2.03941,-3.4916 1.10325,-1.20179 -0.69665,0.76389 4.7159,0.14041 1.82852,1.33072 -0.97267,0.0677 -1.9802,0.12071 -2.93177,-0.12893 z m 55.45954,-0.87809 c 0.64653,-1.57259 4.54728,-2.35381 1.61669,-0.50055 -0.3489,0.0437 -1.52619,1.37372 -1.61669,0.50055 z m -6.34638,-1.05131 c 0.38382,-3.96051 1.59596,1.25547 0,0 z m -3.70778,-1.33614 c 0.0581,-3.1814 1.42478,0.1765 0.13395,1.18286 -0.15943,-0.37107 -0.10452,-0.7933 -0.13395,-1.18286 z m 9.69611,0.40677 c 0.3931,-1.64695 3.80901,-3.47886 1.52472,-0.87669 -0.36413,0.29848 -0.98015,1.21406 -1.52472,0.87669 z m -5.72736,-1.43437 c 0.22296,-1.53837 4.70839,-4.74183 2.07411,-1.59466 -0.5476,0.36725 -1.57332,2.27886 -2.07411,1.59466 z m -15.85602,-1.81871 c -3.26071,-0.92886 0.44529,-0.90092 1.83813,-0.57287 3.30811,-0.87684 2.25082,-5.37821 4.85627,-6.97746 1.36996,-1.33788 2.09853,-2.9568 0.1243,-4.05266 -2.59384,-1.98132 2.29548,-0.4543 2.13538,1.36565 0.3064,3.00515 -3.74107,4.3348 -3.96522,7.44879 -0.87283,2.25068 -2.4766,3.51886 -4.98886,2.78855 z m 12.27338,-0.44776 c -0.0819,-1.41654 2.32832,-2.64571 0.99829,-0.66589 0.10305,0.60799 -1.22494,2.47009 -0.99829,0.66589 z m 10.72639,0.19537 c 0.014,-1.21648 3.33897,-4.39123 1.78526,-1.62607 -0.35111,0.29948 -1.32942,2.51964 -1.78526,1.62607 z m -142.73049,-1.19238 c -0.68011,-0.97151 -1.67086,-3.35864 0.10856,-1.41926 0.82599,0.91413 1.68046,4.50913 -0.10856,1.41926 z m 129.63842,0.93864 c -0.21936,-1.86728 2.23408,-2.84257 0.72242,-0.41814 -0.13588,0.2262 -0.4508,1.00737 -0.72242,0.41814 z m -101.88026,-0.28996 c 1.74095,-1.20134 5.44307,-0.65367 7.90671,-1.40822 14.24634,-0.71869 28.53542,-0.26817 42.77621,-1.13245 4.91868,-0.85785 9.97324,-0.57934 14.95537,-0.6753 0.91381,-0.22612 6.50352,0.23664 3.36303,0.92083 -8.87551,0.10646 -17.74295,0.51465 -26.60524,1.00418 -11.25543,0.47752 -22.52989,0.17723 -33.78247,0.66211 -2.83979,0.10337 -5.83515,1.41889 -8.61361,0.62885 z m 137.48642,-1.25951 c -0.1814,-1.77546 -0.85944,-5.01966 0.28358,-5.99574 0.0676,1.27128 0.96904,6.37243 -0.28358,5.99574 z m -9.1676,-0.07 c 0.25118,-2.08378 1.32049,-5.42891 2.6231,-6.38678 -0.49669,2.21171 -1.10391,5.43953 -2.6231,6.38678 z m -16.12257,-1.49714 c -0.18871,-1.57406 1.2835,-2.60606 0.86547,-0.43757 0.1022,0.57133 -1.18828,2.05194 -0.86547,0.43757 z m -5.84955,-0.66038 c -0.32338,-1.63824 4.75381,-4.91387 2.33187,-2.10648 -0.73145,-0.0551 -2.51947,4.7703 -2.33187,2.10648 z m -86.32178,-4.84893 c -1.7168,0.19305 -2.74584,-2.15576 -0.34723,-1.18419 3.09629,1.58482 5.60768,-1.07443 8.49465,-1.62303 2.90925,-0.4402 5.87628,0.0957 8.77764,0.0151 2.69149,-1.06558 5.48662,-1.95961 8.42966,-1.66916 2.56334,0.36761 5.45327,-0.53166 7.612,-0.56432 -2.16828,2.47293 -5.72727,1.51367 -8.63746,1.50105 -1.3616,-0.28201 -2.62298,0.13148 -3.86897,0.65173 -3.8986,1.63904 -8.1958,0.85553 -12.30752,1.03946 -1.68931,0.26999 -3.05852,1.70632 -4.77343,2.06039 -1.11965,0.3299 -2.28638,0.0683 -3.37934,-0.22698 z m -25.17342,-4.85803 c 0.37622,-0.73212 2.75849,-1.24467 0.40805,-1.3728 -2.69816,0.30752 -1.9646,-5.78964 -0.51786,-1.92548 0.27073,1.49383 3.90994,0.62277 2.40107,3.06232 -0.20906,0.62092 -2.24007,1.25568 -2.29126,0.23596 z m 4.67431,-1.51688 c 0.84624,-2.00733 5.46338,-2.07681 7.85117,-1.4468 0.39452,-0.82054 1.46079,-2.1135 1.36995,0.0683 -1.82647,2.11317 -5.16174,-0.57828 -7.53302,1.31041 -0.52829,0.0845 -1.18986,0.43659 -1.6881,0.0681 z m 16.80468,-0.65383 c 1.50627,-2.58 4.94058,-1.0572 7.33243,-1.10254 1.12391,0.30955 2.12299,-0.0134 3.05893,-0.65623 1.88622,-0.96929 3.8114,-2.36872 6.04649,-1.69865 1.54063,0.58314 4.57979,-0.67336 5.24768,0.51298 -2.78833,2.0074 -6.40554,-0.8258 -9.17545,1.23703 -2.56929,2.01921 -5.77713,1.80017 -8.80963,1.31335 -1.31516,-0.99034 -3.32391,1.81314 -3.70045,0.39406 z m 33.20157,-1.992 c 0.21814,-1.65625 4.13831,-0.55709 5.64937,-1.82075 1.00393,-0.54151 2.04503,-0.45484 3.10062,-0.12321 4.08254,1.1261 8.251,0.0832 12.34817,-0.21576 0.95374,0.1115 5.75916,0.32412 4.04212,1.56638 -2.97854,-0.58664 -5.98788,-0.62221 -8.96039,0.0561 -3.05096,0.44405 -6.11744,-5.1e-4 -9.0921,-0.6926 -2.26518,0.7111 -4.7118,1.80218 -7.08779,1.22987 z m -56.74431,-5.16819 c -1.94157,-3.27839 6.15184,-1.13836 3.46117,0.12928 -1.14845,-1.80092 -2.30004,0.76159 -3.46117,-0.12928 z m 19.40061,-1.25924 c 1.04252,-3.68932 5.66513,-1.20597 8.35376,-1.96406 2.61887,-0.91247 5.82652,-0.88851 8.30834,0.10121 -2.75908,1.01236 -6.22701,-0.30667 -9.00259,1.20345 -2.73053,-0.49398 -5.50734,-0.59678 -7.65951,0.6594 z m -13.81516,-0.44299 c 1.4742,-2.59172 5.49753,-0.38241 8.03657,-0.82836 1.06069,-0.29225 3.35755,-2.89819 2.30243,-0.14226 -2.30948,2.39862 -5.80089,0.39168 -8.60422,0.76781 -0.46299,-0.0522 -1.46639,0.96037 -1.73478,0.20281 z m 43.16301,-0.64916 c 0.99931,-1.34927 5.56133,-2.3463 6.60178,-1.19654 -2.08175,0.41544 -4.5875,1.73037 -6.60178,1.19654 z m -39.14409,-4.70457 c -1.75534,-2.74338 -4.90291,-0.51604 -6.91549,-0.69559 1.20176,-2.02241 5.44331,-2.52873 7.17974,-0.42023 0.77422,0.74875 2.02349,0.11128 3.00497,0.25523 2.89344,-0.0477 5.82963,-0.44418 8.68931,0.0875 0.14407,1.50626 -4.22578,0.40613 -5.79979,0.82133 -2.04927,0.0301 -4.12043,0.22672 -6.15874,-0.0483 z m 27.05365,-1.01101 c -0.80572,-1.47987 3.50629,-0.92392 4.65362,-1.78331 1.31324,-0.37657 4.02118,0.97748 1.14025,1.21665 -1.94026,0.0196 -3.89097,0.86817 -5.79387,0.56666 z m 17.96324,-3.7911 c -2.28127,-0.31922 -1.86508,-3.24957 0.0817,-1.13979 2.86159,0.78879 5.69381,-2.34297 8.47731,-0.65531 3.15801,1.51574 6.77055,0.5561 10.13952,0.78738 1.37399,-0.46249 5.51887,0.93901 2.02693,0.98387 -4.02744,-0.002 -8.28064,0.82202 -12.14492,-0.63444 -2.76908,-1.89107 -5.67602,1.461 -8.58059,0.65829 z m -53.68199,-0.18801 c -2.67797,-0.66794 1.9263,-2.81412 2.681,-1.02041 2.66464,-0.81767 5.64239,-1.21363 8.45069,-1.63215 1.26617,0.8824 4.76975,-1.23644 4.27867,0.59251 -2.66208,1.20917 -5.78887,-0.0995 -8.51097,1.2201 -2.41491,0.0358 -4.47965,1.40104 -6.89939,0.83995 z m 17.64669,-0.88864 c 1.70467,-2.03329 5.59222,-2.53268 8.36916,-2.51244 3.32304,-0.0476 6.62596,1.67348 9.90495,0.71203 1.32508,-0.42308 4.26448,-1.1171 4.81684,-0.0517 -1.55155,1.45301 -4.6389,0.54705 -6.76786,1.35801 -4.34152,-0.11889 -8.85845,-2.09157 -13.06852,-0.17276 -0.99427,0.10385 -2.38328,1.29736 -3.25457,0.66688 z m -35.64226,-0.13519 c -0.46559,-3.65576 3.72187,-3.50389 6.21273,-3.14823 3.09984,-0.27929 6.22138,-0.12012 9.32024,-0.35551 0.52511,-0.68751 4.67812,-2.46926 3.1825,-0.58328 -2.34242,2.15849 -5.50459,1.79143 -8.46011,1.82055 -2.46494,-0.18749 -5.29064,0.47416 -7.16539,0.88111 -0.81059,-2.96266 -1.91241,1.34676 -3.08997,1.38536 z m -9.75344,-7.58082 c -1.52969,-0.9732 -0.66609,-2.26066 0.44498,-0.69686 0.62579,0.66497 0.41112,2.12943 -0.44498,0.69686 z m 8.13552,-4.21133 c -2.18945,-3.68303 2.40545,-4.78824 5.1685,-4.23191 1.857,0.89665 4.94956,-2.0272 5.64213,-0.48622 -2.21564,2.6143 -5.71963,0.66531 -8.23859,1.99845 -1.72,-0.008 -1.41974,3.4871 -2.57204,2.71968 z m 11.56945,-4.33134 c 1.15418,-3.12795 5.69994,-2.04483 8.35109,-1.86335 2.57032,0.91654 -2.47084,0.87987 -3.3003,0.81511 -2.07142,-0.82572 -3.76847,1.47547 -5.05079,1.04824 z m 48.26071,-15.6196 c -2.34704,-0.8992 2.639,-2.63801 -0.61448,-2.4693 -2.17565,-0.4784 -2.46204,4.1653 -3.60886,0.76371 -0.44606,-2.80876 -1.48897,-5.00945 -4.78984,-4.78307 -3.53999,-0.57991 -7.13005,-0.67855 -10.70628,-0.84788 1.39515,1.8525 -4.74134,3.73806 -1.59595,3.97491 2.30851,-1.97202 4.42087,2.10733 6.69594,-0.14917 2.03884,1.40625 4.61479,0.0991 6.37575,1.68731 1.00858,-1.58234 4.88606,0.39946 2.30541,0.64103 -1.7116,0.0946 -3.29885,0.85853 -4.88223,-0.48081 -1.55755,0.88374 -3.77914,-1.67453 -3.9482,0.72108 -1.54434,-1.58665 -5.66537,2.23663 -6.66684,-1.17675 -0.88445,2.75288 -3.31929,-2.06591 -3.31672,-3.92197 -0.18298,-1.43326 3.66616,-0.82887 0.77324,-1.10647 -3.38178,-0.0888 -6.76518,-0.0759 -10.14779,-0.10971 -0.33664,2.82007 2.3408,1.8292 3.95634,2.3477 -1.70328,1.415 -1.46467,2.14424 0.33872,2.5471 -1.48083,1.39544 -3.13518,-0.49048 -3.19564,-1.7198 -0.64249,0.6124 -0.36897,3.6483 -1.80734,1.39508 -0.79287,-2.08946 -4.03078,1.99654 -4.45147,-1.13011 1.13732,-1.49554 -2.55908,-1.7233 -0.73245,0.12251 0.0869,2.43778 -5.04508,2.24328 -6.58425,0.92271 -0.79303,-0.98827 -3.79679,0.39888 -2.44501,-2.02746 1.32239,-0.16824 2.70467,1.13442 3.97972,1.09873 1.35511,-1.47074 2.86481,-2.06924 1.71632,-4.32945 -2.21391,-1.60826 -5.65934,-0.78879 -8.3722,-0.90316 -2.2584,-0.43661 -5.75448,1.61241 -7.13733,0.58675 1.47204,-1.98448 6.20101,-0.25383 6.33428,-2.79084 -0.23797,-4.122 -4.50089,0.75146 -6.22951,-1.91927 -1.94991,2.19018 -2.17471,-2.47679 -1.96415,-3.64202 1.50262,-0.50133 0.62715,3.52167 2.98043,2.92951 0.77882,0.20984 2.66543,-3.43438 2.63935,-0.39721 -2.64253,1.28618 2.92595,0.45799 2.14972,-1.43295 1.44413,-0.62313 3.61465,0.44196 2.57392,-2.07579 -0.7605,-2.75839 1.28469,-1.7174 1.27711,0.36261 0.68283,3.18967 5.9202,-3.11797 5.92449,1.22993 -0.64051,1.19896 -2.99581,1.63917 -0.39606,1.31713 3.29026,-0.244 -2.79779,2.82066 -2.92863,-0.44067 -1.30646,-1.25073 -2.58099,0.82485 -1.62675,2.20548 -1.51466,0.89274 -0.89177,-2.97506 -2.35885,-1.00488 -1.37511,0.4277 -0.70908,1.66075 -0.54026,2.69761 -0.16901,1.50036 1.45551,0.96802 2.43377,1.16811 6.26716,0.56697 12.46922,1.87288 18.79267,1.72963 7.42037,0.30237 14.92807,-0.16207 22.27125,1.13049 6.14924,1.46778 12.54097,1.31193 18.81749,1.74604 5.89344,0.33525 11.80123,0.42405 17.68491,-0.10571 1.58072,-0.62159 4.69154,1.14163 1.4179,1.02512 -4.48021,0.1079 -8.94628,0.62213 -13.43624,0.33421 -7.05541,-0.12965 -14.09072,-0.69064 -21.13135,-1.12043 0.35625,1.54102 0.51391,4.10539 2.29242,2.07139 1.86912,-1.21814 5.8425,1.51632 2.61117,2.65015 1.04694,-0.0223 3.91386,-0.99022 1.9855,0.78387 -0.84172,0.44109 -1.8952,0.3336 -2.71314,-0.10502 z m -42.67165,-3.1177 c 1.08924,-3.47959 -3.25763,1.51874 0,0 z m 7.40213,-1.92065 c 0.20192,-3.74221 -4.39988,-2.68245 -6.86945,-3.22881 -0.0904,3.17534 4.32818,2.2312 6.26401,3.68054 0.22815,-0.003 0.6285,-0.14866 0.60544,-0.45173 z m 13.18628,-0.47722 c 0.61673,-1.02551 -3.28587,-0.46559 -0.60972,0.33058 l 0.25478,-0.0804 0.35494,-0.25019 z m -29.04749,-9.14976 c -0.83151,-1.11658 -1.2602,0.89885 0,0 z m 6.95373,-1.81121 c -0.3044,-0.9712 -2.08735,1.66974 -0.25748,0.28438 z m -5.76495,14.64159 c -1.02422,-1.24928 -5.39134,-0.39659 -3.43873,-3.22502 1.17219,-1.05934 3.028,-2.5906 3.04124,0.17437 -0.30868,2.18679 2.19345,2.26647 3.04517,2.88994 -0.29932,1.47012 -1.98894,1.2124 -2.64768,0.16071 z m -1.85429,-1.91632 c -0.57773,-2.16264 -1.55341,0.934 0,0 z m -12.89439,-7.34716 c -2.33624,-1.39658 1.87065,-5.96733 1.48764,-2.81351 -2.64335,1.24188 0.25668,3.04062 1.98035,1.56669 3.17107,0.47528 -3.04276,2.32362 -3.46799,1.24682 z m 24.04589,-3.87697 c -0.67461,-3.09424 4.99318,-2.72629 4.60224,-0.60383 -1.67711,-0.47311 -3.48979,-1.12794 -3.9048,1.13045 -0.32252,0.0847 -0.62866,-0.24007 -0.69744,-0.52662 z m 13.19422,0.0878 c 0.39477,-1.55308 3.11935,-4.87303 -0.40434,-3.88928 -1.39924,1.04922 -3.84232,-0.0291 -1.16816,-0.75531 4.21343,-2.15497 5.04776,2.45228 2.27909,4.76892 -0.26083,0.40815 -0.7782,0.54986 -0.70659,-0.12433 z m 66.675,-12.29769 c 0.0848,-2.23294 4.93933,-1.47298 3.18165,-0.25492 -1.00113,-0.42156 -2.48827,1.25361 -3.18165,0.25492 z m -2.71521,-1.66049 c -0.57829,-2.3264 6.00498,-0.96572 2.08664,-0.20524 -0.68006,0.0398 -1.41504,0.4683 -2.08664,0.20524 z m -0.67146,-1.21826 c -1.21024,-1.61974 3.5311,-1.73839 1.14702,-0.10981 -0.31731,0.24352 -0.85696,0.65121 -1.14702,0.10981 z"
       id="path6113"
       inkscape:connector-curvature="0" />
  </g>
</svg>
