<?xml version="1.0" encoding="UTF-8" standalone="no"?>
<!-- Created with Inkscape (http://www.inkscape.org/) -->

<svg
   xmlns:dc="http://purl.org/dc/elements/1.1/"
   xmlns:cc="http://creativecommons.org/ns#"
   xmlns:rdf="http://www.w3.org/1999/02/22-rdf-syntax-ns#"
   xmlns:svg="http://www.w3.org/2000/svg"
   xmlns="http://www.w3.org/2000/svg"
   xmlns:sodipodi="http://sodipodi.sourceforge.net/DTD/sodipodi-0.dtd"
   xmlns:inkscape="http://www.inkscape.org/namespaces/inkscape"
   width="230mm"
   height="230mm"
   viewBox="0 0 230 230"
   version="1.1"
   id="svg4708"
   inkscape:version="0.92.1 r15371"
   sodipodi:docname="lockyer telescope small.svg">
  <defs
     id="defs4702" />
  <sodipodi:namedview
     id="base"
     pagecolor="#ffffff"
     bordercolor="#666666"
     borderopacity="1.0"
     inkscape:pageopacity="0.0"
     inkscape:pageshadow="2"
     inkscape:zoom="0.49497475"
     inkscape:cx="848.22815"
     inkscape:cy="53.423364"
     inkscape:document-units="mm"
     inkscape:current-layer="layer1"
     showgrid="false"
     inkscape:window-width="2560"
     inkscape:window-height="1365"
     inkscape:window-x="-9"
     inkscape:window-y="-9"
     inkscape:window-maximized="1" />
  <metadata
     id="metadata4705">
    <rdf:RDF>
      <cc:Work
         rdf:about="">
        <dc:format>image/svg+xml</dc:format>
        <dc:type
           rdf:resource="http://purl.org/dc/dcmitype/StillImage" />
        <dc:title></dc:title>
      </cc:Work>
    </rdf:RDF>
  </metadata>
  <g
     inkscape:label="Layer 1"
     inkscape:groupmode="layer"
     id="layer1"
     transform="translate(608.26274,279.96123)">
    <path
       style="fill:#020000;fill-opacity:1;stroke-width:0.26458338"
       d="m -563.75999,-52.819325 c -0.0321,-2.41367 -2.28038,-3.67686 -1.32,-6.2604 -0.0438,-2.83143 -1.82084,-5.2185 -2.2307,-7.9236 -1.54973,-1.83657 -3.45745,-3.34756 -5.71636,-4.29579 -1.3831,-2.84215 -5.53732,-3.90513 -5.45476,-7.67255 -0.0999,-1.21946 2.1986,-4.7757 0.40276,-4.73082 -0.86505,1.91314 -1.80754,0.40225 -0.45448,-0.75089 1.14871,-1.27587 1.83866,-2.86299 1.21305,-4.12892 2.56015,-1.79313 1.95065,-5.34879 4.43758,-7.35115 1.74045,-2.4887 3.16619,-5.202405 4.95027,-7.673235 0.2446,-1.30646 2.77472,-2.21379 1.597,-0.30702 -2.30003,2.09638 -3.01057,5.134885 -4.684,7.605285 -2.57267,2.14524 -3.43121,4.99843 -4.14762,8.09031 -1.87381,2.06636 -0.98493,4.5348 -0.60641,6.93904 -2.46589,1.43075 0.14762,5.81991 2.48242,5.14646 1.8881,-0.27329 3.08519,2.79985 5.29036,3.15898 2.74949,0.83689 5.12676,2.35962 7.87731,3.21155 0.96557,0.26783 5.55415,1.43683 2.75959,2.03872 -3.06169,-0.22022 -5.90624,-2.01428 -8.87311,-2.20534 -0.33228,-2.38847 -4.21153,-1.5709 -5.48181,-3.56753 -0.87716,-1.01194 -4.68581,-2.18178 -1.929,-0.39755 1.7187,1.57063 3.31539,2.93904 5.75471,3.32911 0.82377,2.28955 2.42302,4.28766 2.91556,6.74398 0.0805,2.30105 2.59608,4.07213 1.41268,6.20194 1.31091,1.1533 1.419,5.17525 -0.15983,4.8856 l -0.0353,-0.0863 z m 17.06815,2.11738 c -0.57715,-2.014 0.4552,-3.99285 1.93427,-5.02203 -1.16847,-0.61442 -1.77702,-3.36257 0.17404,-1.98842 1.12034,2.2659 1.3288,-1.46872 -0.11247,-1.82663 -0.146,-2.62762 3.49331,2.45428 2.66571,-0.75333 -1.12002,-3.90599 -4.10675,-0.61088 -5.95521,0.65996 -0.31375,-0.95996 0.1897,-2.69032 -0.71878,-3.93716 1.1482,0.60939 2.32364,2.41151 3.37803,0.22003 2.72945,-2.09187 3.84185,2.02238 4.67199,3.91566 0.98872,1.86983 -2.75219,2.17612 -1.94286,4.51178 -0.65009,0.97105 -2.06222,-1.01903 -1.99129,0.96502 -1.30044,0.16252 -1.02055,4.43653 -2.10343,3.25512 z m -4.35868,-10.97497 c -1.99509,-2.97729 -3.39475,-6.339 -5.40006,-9.29523 -0.94451,-1.77936 -3.64278,-2.84871 -3.83217,-4.60975 2.13615,-0.152 3.101,2.98936 4.81467,4.14162 2.19528,1.28937 2.24703,3.47328 3.21668,5.52614 0.22135,1.63803 3.66475,3.94444 2.19029,4.86726 -0.37143,-0.1334 -0.70936,-0.35339 -0.98941,-0.63004 z m 5.5292,-5.52421 c -0.73865,-0.73736 -2.55634,-4.4405 -0.50132,-3.04573 0.42792,2.00925 2.87308,3.76683 2.73244,5.59934 -1.05576,-0.0886 -1.58023,-1.82193 -2.23112,-2.55361 z m -1.77261,-5.5645 c 0.18436,-1.52201 -2.44758,-5.07143 -0.62856,-5.33779 0.82035,1.75147 1.8357,4.06128 1.71903,5.83735 -0.38498,0.24128 -1.09018,0.0153 -1.09047,-0.49956 z m -13.49573,-5.1385 c 0.30839,-1.31671 -1.03415,-4.68686 0.50698,-4.91889 -0.002,1.51267 1.10656,4.52142 -0.22852,5.32905 -0.14914,-0.0814 -0.27462,-0.23559 -0.27846,-0.41016 z m 15.78407,-0.27681 c 1.83219,-2.53778 1.92248,-5.52646 2.44327,-8.44664 1.03923,-2.47132 2.41699,-4.80036 3.82055,-7.09099 1.85611,-2.45089 3.80394,-5.20439 3.12881,-8.459815 0.12547,-2.37073 0.55153,-4.76654 -0.16014,-7.09711 -0.0453,-1.06607 1.79667,-4.30255 1.61607,-1.36445 -0.40984,3.34832 0.68379,6.64565 -0.15807,9.97007 -0.44467,2.015385 0.0412,4.806685 -1.89455,6.066375 -1.50201,1.54912 -2.54908,3.60942 -3.90536,5.3462 -1.32709,2.44938 -0.93634,5.40802 -1.74979,7.9931 -0.40971,0.58906 -2.54527,5.01429 -3.14079,3.08326 z m 79.64999,22.84531 c -2.36246,-1.18097 -0.94376,-4.11639 -1.22683,-6.18627 0.76218,-2.56972 -1.91242,-4.07897 -0.95093,-6.39834 0.83787,-4.87473 0.41265,-9.85019 0.70911,-14.7684 0.10167,-2.63102 -0.90909,-5.2202 0.0669,-7.79578 0.862,-2.71393 1.05967,-5.53077 0.87212,-8.3542 0.55638,-2.801265 -0.10011,-5.759615 1.05178,-8.427975 0.57582,-3.90262 0.73119,-7.87041 0.88779,-11.81144 -0.52738,-6.18156 0.41033,-12.38441 -0.0407,-18.55985 -2.08485,-0.18402 -1.70843,-4.33338 -1.14971,-4.25147 0.21993,4.68226 5.14072,1.67985 7.89266,1.52857 3.92723,-0.43905 7.92392,0.37153 11.80436,-0.47713 1.17202,-1.41229 0.29845,-4.43546 0.30072,-6.50051 -0.29251,-3.84225 -5.44047,-0.9849 -7.94299,-2.06202 -3.95785,-0.21045 -7.91826,0.53113 -11.73753,1.49976 -1.17335,0.89934 0.0922,4.27361 -0.74223,4.55921 -0.32729,-2.34497 -0.99934,-5.06654 -0.60368,-7.22722 1.57462,-0.89456 0.78526,2.27393 2.67435,1.04082 2.55249,-0.59697 5.12456,-1.05378 7.76589,-0.93284 3.32333,-0.081 6.7571,0.30606 9.98683,-0.44693 0.33287,-2.21309 -3.90442,-1.98417 -5.56504,-2.96299 -3.40832,-0.9133 -6.73798,-2.23269 -10.23861,-2.73331 -3.5627,0.75901 -5.4629,4.67567 -5.877,8.01205 -0.24313,1.90936 0.79765,4.97286 0.0166,6.23046 -0.41891,-1.93089 -1.20623,-3.97732 -0.92851,-6.00473 0.62799,-2.34597 0.11976,-5.41169 1.9657,-7.19034 1.49699,-1.37092 3.45184,-2.42028 5.17093,-3.12849 1.38985,2.02818 4.16174,2.37043 6.40556,2.88922 3.86025,0.82749 7.87209,1.65836 11.31681,3.62142 2.35895,1.09305 6.33524,0.32024 7.79816,2.11422 -1.39457,1.60942 -2.90954,3.23607 -4.11967,5.05492 -0.39702,1.2515 -3.30289,3.29352 -1.90119,0.81814 0.78996,-1.84917 4.27561,-3.84731 3.11101,-5.5619 -2.3313,-1.35249 -6.70323,-2.17453 -5.68293,1.88436 0.46478,2.45853 -0.20851,5.21497 1.08697,7.43798 -0.61432,0.92128 -2.13501,1.4748 -0.57349,2.86812 1.0336,2.12194 0.98689,4.51185 0.70804,6.78993 0.11559,4.3796 1.00899,8.68272 1.92707,12.94357 -0.53275,4.57052 0.007,9.25805 0.71855,13.79862 0.46182,2.68197 0.86827,5.363145 1.62775,7.993685 -0.39371,0.72282 -1.7944,-0.23725 -1.21845,1.51413 0.23736,4.22271 0.36491,8.45085 1.03738,12.63306 0.72719,6.55106 1.81718,13.06389 2.99673,19.5465 0.0704,2.16008 2.06885,4.50131 1.57933,6.38448 -1.41575,-0.23968 -1.07125,-3.99202 -2.00827,-3.57264 -0.0622,1.9309 1.6755,4.21938 0.73639,5.86684 -1.89086,-1.17446 -1.35092,-4.71458 -2.11117,-6.81596 -1.09723,-6.18295 -1.83565,-12.42494 -2.61356,-18.64931 -1.01456,-2.0148 0.28064,-4.12176 -0.74027,-5.86599 0.92117,-1.56772 -0.14189,-3.80592 0.10876,-5.64788 -0.0275,-4.67251 -1.07847,-9.27549 -0.89604,-13.953445 -0.49371,-4.8314 -0.87103,-9.67164 -1.58314,-14.47943 -0.35781,-4.75239 -1.17502,-9.46638 -1.13709,-14.24407 0.38054,-2.12515 -2.18419,-1.8479 -0.78644,-4.09142 -0.12134,-3.87196 -5.35049,-1.3804 -7.82919,-2.05764 -2.43439,-0.0524 -4.9108,0.10019 -7.23662,0.87576 -0.94958,1.95009 -0.33426,4.39508 -0.80812,6.54037 -1.47584,9.38293 -1.26121,18.91126 -2.14882,28.35066 -0.33181,4.826895 0.0582,9.671445 -0.56219,14.482055 -0.52267,7.07661 -0.43792,14.18194 -0.78628,21.26862 0.12894,3.21392 0.2229,6.41374 0.24445,9.63722 -0.0168,0.60215 0.79688,4.56784 -0.82203,2.97517 z m -0.0259,-34.15654 c 0.18638,-1.1429 -0.0106,-3.66182 -0.2275,-1.08954 -0.2219,1.14253 -0.20236,5.36574 0.14041,2.19637 l 0.047,-0.55315 0.0401,-0.55368 z m -82.68444,8.80143 c 0.63133,-3.71422 1.85726,-7.30959 2.50957,-11.00673 1.49383,-2.03804 1.13341,-5.06834 2.47353,-6.94091 0.96609,2.38252 -1.20584,5.21747 -1.76825,7.68167 -0.64601,3.51779 -1.70683,6.96464 -2.327,10.4962 -0.17572,0.49847 -0.87297,0.1833 -0.88785,-0.23023 z m -12.66146,-4.10494 c 0.15542,-3.19099 0.85055,-6.34805 0.96785,-9.55414 1.97782,-1.95648 0.53827,-5.64107 2.45246,-8.055925 1.21421,0.84644 -0.84807,4.275235 -0.46641,6.145255 0.49932,3.11308 -2.24868,5.13102 -1.83385,8.42903 -0.31986,0.5065 0.25101,4.87913 -1.12005,3.03578 z m -4.68839,-23.483895 c 1.00241,-2.70344 5.29946,-2.74094 5.33645,-6.03019 1.23615,-1.59164 2.99673,-2.6545 4.15138,-4.34184 1.64062,-1.44837 4.2676,-1.94839 5.04494,-4.21496 0.96764,-0.0644 2.05359,0.44978 2.3932,-1.22194 0.27657,-1.83062 2.70779,-1.75638 1.19389,-0.13501 -1.31401,2.00845 -2.8734,4.00686 -5.30349,4.62399 -2.7981,1.1245 -4.43631,3.80837 -6.37967,5.79458 -0.53152,3.24131 -4.35001,3.68294 -5.93965,6.14705 -1.05132,1.19938 -0.96579,0.0836 -0.49705,-0.62168 z m 9.59831,3.21794 c 0.22389,-2.82295 3.87957,-0.12687 5.12212,-2.29583 2.8133,0.6114 5.85778,0.93463 8.17583,2.61452 -0.80338,1.11653 -3.39208,-0.99811 -4.83873,-1.18353 -2.46574,-1.2153 -5.11842,0.39912 -7.37684,1.11302 -0.68662,0.93078 -1.48762,1.17963 -1.08238,-0.24818 z m 23.24852,1.5766 c 1.05266,-2.19462 4.36582,-2.84928 6.10723,-4.72584 1.77923,-1.30669 3.2845,-2.96335 4.67815,-4.63065 2.18475,0.75578 -2.22696,3.52016 -3.13383,4.54655 -2.37299,1.66404 -4.93811,4.66256 -7.65155,4.80991 z m -62.18944,-21.19022 c -3.3316,-1.02806 -0.0996,-4.73069 -0.81283,-7.29945 -0.46085,-2.26931 1.98163,-6.7269 -1.46471,-7.09825 -0.0867,-1.91775 3.65044,0.24028 5.08697,-0.75947 2.45062,-0.17061 4.99202,-0.49824 7.40794,0.0257 1.27112,1.14376 -1.73208,4.9654 -0.75492,1.55927 -2.12794,-1.69026 -6.21533,-0.48412 -8.79574,0.0555 0.15201,2.5073 -0.15301,5.16163 -0.73228,7.63734 -0.9306,1.58272 1.61487,1.87257 0.91645,3.67133 2.02041,0.89197 4.95364,2.01505 7.12365,1.56501 0.15742,-1.13874 0.50579,-3.6134 0.5217,-1.10046 0.98011,1.99828 0.77446,3.73797 -1.70488,2.37786 -1.99537,-0.51856 -4.69445,-2.30489 -6.30646,-0.32346 -0.21437,0.008 -0.34599,-0.18262 -0.48489,-0.31096 z m 2.52782,-3.35916 c 1.38433,-2.81553 0.16509,-5.60083 0.20061,-8.53774 1.22309,-2.12909 0.15244,4.96611 2.11863,2.17777 -0.29321,-1.04547 -0.40249,-3.84247 1.47355,-2.68421 -0.30156,1.63359 -0.0948,3.29141 0.40522,4.63526 -1.68849,1.13384 1.28605,2.47576 -0.74419,3.86024 -0.45444,0.82163 0.89373,2.08185 -1.24308,1.74672 -0.66791,-0.23408 -2.88319,0.13354 -2.21074,-1.19804 z m 55.93964,13.11988 c -0.8219,-2.26503 -3.6205,-4.15506 -3.29345,-6.53179 1.18984,-0.94842 0.22089,-1.99325 -0.56416,-0.4776 -1.68991,0.87102 -4.4636,-1.6626 -1.34364,-1.88857 1.4503,-0.88588 -0.3326,-2.63872 1.47248,-3.5242 -0.004,-1.72641 2.53045,-2.03914 1.11034,-0.0521 -1.17262,2.02296 2.32466,3.23342 2.19681,0.61241 0.37712,-2.58419 2.4718,0.78817 0.77907,1.72081 -2.74092,2.03467 0.53592,5.55454 2.86307,5.73747 3.60471,-0.66428 4.49601,-4.44751 5.65934,-7.3117 1.61283,-1.48321 0.10991,-4.93939 -1.21727,-1.93941 -1.35953,-1.0076 0.75619,-4.46383 2.34319,-4.55677 -0.41645,-2.81221 -4.77263,-5.59904 -7.1622,-3.52128 -1.39694,0.95908 -4.73469,2.05297 -4.71667,-0.54745 -1.99761,-0.0505 -1.82297,3.19271 -3.55282,4.02498 0.82148,2.46678 -1.85784,5.2018 -1.45274,7.24217 0.92889,-0.57849 1.98598,-5.19653 2.4347,-2.32617 -0.29082,2.25622 -3.1118,5.68469 -4.25228,2.00339 -1.57809,-1.16896 2.49439,-3.12021 0.3293,-3.03839 -1.61633,1.35698 0.44006,-3.7749 0.5194,-5.13693 1.81988,-1.32781 3.94806,-3.15315 6.10725,-4.60154 1.14142,0.66443 1.22311,0.20977 1.88162,-0.67405 1.62715,0.83833 3.8842,-0.21412 5.76399,0.9535 1.44137,0.0213 4.04421,2.85445 4.38398,1.80761 -2.22003,-2.12076 3.78914,-3.64196 2.46586,-5.55802 -1.26982,-1.57639 1.79793,-2.42811 2.8362,-1.32091 1.96016,-1.59472 3.61567,-3.84218 5.26713,-5.87762 1.84746,-1.4683 3.60484,-3.23617 2.29962,-5.76921 2.44631,-2.12011 4.33451,-5.1523 7.07794,-7.1414 1.85072,-1.5064 3.20746,-3.4959 4.87377,-5.18453 0.57897,-1.5843 -0.73486,-4.63879 -2.01047,-1.90491 -2.87759,3.04287 -5.56906,6.36009 -8.97799,8.83114 -1.68841,0.61966 -3.96878,3.01417 -4.69769,-0.084 1.11924,-2.68205 3.54491,-4.42993 5.54333,-6.44858 1.73255,-1.62143 2.67335,-3.9413 4.69165,-5.26651 -0.37079,-1.94086 -3.69474,-1.90554 -5.34495,-2.8215 -2.93641,-0.95721 -5.68535,-2.57291 -8.42325,-3.34424 -1.02816,0.61341 -2.04078,0.0877 -1.57214,-1.29461 -5.84047,-3.82697 -11.61539,-7.88935 -17.40167,-11.84284 -2.90166,-3.31807 -6.29462,-6.1889 -9.4013,-9.2853 -1.58124,-2.14276 -4.79067,-3.5151 -5.13941,-6.31677 1.81626,0.0936 2.60551,2.82933 4.13965,3.81496 4.17012,3.44069 7.51554,7.72634 11.71477,11.13185 4.57708,4.07144 9.92767,7.12629 14.95998,10.57634 3.0785,1.86467 3.21722,-3.67741 4.49752,-5.44427 1.97445,-4.70106 3.16188,-9.71217 5.30551,-14.33665 2.24642,-3.09938 4.09267,-6.45462 5.93189,-9.80353 3.60658,-5.28055 8.2666,-9.72954 12.39268,-14.5907 3.84034,-4.13442 8.28643,-7.67696 11.7892,-12.12939 4.2343,-4.38073 8.40323,-8.92088 13.55342,-12.25697 3.82783,-2.6907 7.76188,-5.23641 11.82476,-7.54903 2.67941,-1.33103 1.96243,-4.11894 1.01364,-6.29085 -0.25945,-0.94341 -1.2892,-5.01963 -1.70997,-3.09255 1.13134,2.27187 -3.95189,2.26782 -5.54309,2.71202 -3.05861,0.74331 -5.93612,2.1535 -9.0864,2.51098 -3.1751,1.31487 -6.34579,2.66226 -9.72089,3.39626 -5.00595,1.58553 -9.87618,3.57522 -14.922,5.04445 -4.8175,1.54374 -8.94934,4.5461 -12.72466,7.82934 -5.85966,4.40727 -10.32577,10.29781 -15.48297,15.4496 -4.60028,4.9389 -8.86788,10.20233 -12.74682,15.72433 -2.61432,3.85231 -4.47045,8.14459 -6.76878,12.18318 -0.46183,2.10108 -2.47218,0.53553 -0.91945,-0.76935 1.24437,-2.04075 2.58065,-4.10138 3.21446,-6.42614 -1.34841,0.7333 -2.32495,2.90451 -3.39789,4.27242 -1.25101,2.3541 -1.64041,-0.55723 -0.25635,-1.38823 3.43354,-5.07343 7.40308,-9.7538 10.87079,-14.80459 2.74385,-3.5266 4.61083,-7.7445 8.09346,-10.66346 3.94339,-3.13925 6.75338,-7.41136 10.49173,-10.77692 5.13883,-5.22234 10.76487,-10.27998 17.73715,-12.87879 3.71969,-1.96578 7.8814,-2.66079 11.87833,-3.80483 6.26398,-1.81447 11.83181,-5.73512 18.42181,-6.43971 3.28066,-0.35437 6.47103,-1.21959 9.46512,-2.60156 3.25564,-1.82454 3.16583,2.83964 3.91581,4.84321 1.30288,4.31496 3.37421,8.35467 4.50401,12.73087 1.83187,6.2839 4.33107,12.42266 5.24425,18.93226 -0.6091,2.28803 -1.17135,-2.25097 -1.41828,-3.04704 -0.81725,-2.69655 -0.9643,-5.87704 -2.28271,-8.26863 -1.77174,0.71542 -2.43349,3.15501 -3.62348,4.63817 -4.0992,5.84784 -7.20475,12.61261 -7.76069,19.80446 -2.51392,2.48669 -0.55844,-3.01459 -0.35402,-4.28802 0.34504,-1.05116 0.68956,-4.74537 -0.0707,-1.84648 -0.92026,3.6708 -1.84861,7.36395 -2.51904,11.07493 -2.00478,1.13061 -0.12518,-3.21956 -0.13677,-4.25405 1.555,-6.58235 3.2118,-13.29701 6.76647,-19.12881 0.98861,-2.10178 2.45666,-3.9587 3.77659,-5.85082 2.69128,-0.91456 3.16144,-4.31024 1.91775,-6.57895 -0.93224,-1.91036 -0.81117,-4.58028 -2.26265,-6.05568 -3.16113,0.93076 -5.96919,3.00772 -8.87657,4.58699 -4.11787,2.43418 -8.11848,5.14828 -11.3441,8.7209 -6.20086,5.48078 -12.64698,10.70868 -18.48533,16.5854 -7.46439,8.34298 -12.75292,18.35678 -17.56148,28.39266 -2.7193,5.96505 -5.35754,11.99028 -7.38557,18.23087 2.01771,2.0719 5.12018,2.9814 7.84913,3.91553 2.47676,0.72682 5.25851,2.49216 6.71803,-0.61804 2.27298,-2.14203 3.31555,-5.13567 5.49896,-7.33486 2.45768,-2.64567 4.29118,-5.78414 6.85377,-8.3381 1.00751,-2.9656 4.88682,-0.99843 5.45545,1.25224 1.52396,1.41945 3.06048,-2.23477 4.36474,-3.08635 1.55856,-2.14394 3.64657,-3.8425 5.16145,-6.06007 1.56277,-0.89356 -0.51117,-3.07806 1.98181,-3.47871 2.61636,-1.62957 6.0152,-1.8034 7.6393,-4.81878 2.01746,-2.20176 4.2448,-4.21992 6.19746,-6.40008 3.06814,-3.07126 6.0947,-6.19532 8.62187,-9.73871 3.88156,-4.93282 9.34053,-8.33049 13.07744,-13.39763 0.34405,-2.67327 -0.56653,-5.41015 -0.88288,-8.08411 -1.00963,-5.09352 -2.31968,-10.11295 -3.69328,-15.11989 -0.84224,-3.61175 -1.79655,-7.24183 -2.2724,-10.90851 2.31017,-2.28502 0.86987,2.32088 1.56354,3.57008 -0.0328,1.26829 1.47893,5.09847 1.3462,1.83193 0.18272,-2.38678 -0.92569,-4.79139 -0.71011,-7.0688 1.6004,0.82273 1.05099,4.10703 1.57952,5.96051 0.6291,5.78449 2.33672,11.37318 3.66782,17.01963 0.70856,2.70114 1.50845,5.37798 2.1276,8.10174 1.56405,-0.31439 2.97072,-2.61658 4.97627,-2.81031 1.49768,0.17258 3.33628,3.05377 4.73042,4.50531 2.38635,2.80012 4.25087,6.74591 3.01728,10.43476 -1.88284,2.52145 -5.68247,2.56954 -7.54857,5.35075 -2.49314,1.47679 -4.32974,3.97602 -3.16437,6.9328 0.40515,5.31059 0.72531,10.63104 1.58084,15.89575 0.54457,1.41193 -0.0397,4.84629 1.20772,5.04716 2.23613,-1.48853 3.58143,2.57624 3.89259,4.33736 -0.66152,2.31942 2.67762,2.50633 2.28949,0.0753 -0.32072,-2.94084 0.91454,-5.28332 4.15834,-4.50798 3.79435,-1.644 5.24609,2.14768 5.38566,5.20999 -0.89009,2.36589 4.11332,3.685 1.00751,5.37992 -1.357,1.61237 -3.69774,1.04894 -2.84232,-1.22309 -0.78256,-1.40232 -0.91617,-3.96783 0.81883,-4.00474 0.73839,-2.43017 -2.06069,-3.08041 -2.25933,-0.5407 -0.63673,2.91457 -0.74602,6.07156 0.16542,8.92252 -1.6924,1.19985 -0.11819,3.24691 1.21658,1.6019 0.41445,-1.0765 1.94337,-4.28673 1.43319,-1.35231 -0.58419,1.76572 -1.24324,5.66716 -3.74971,3.3037 -2.58406,0.86344 -6.15234,-0.68393 -5.10165,-3.92683 0.34317,-2.31553 -0.92342,-4.18262 -3.40047,-3.0575 -1.93292,1.15723 -2.37673,-1.77795 -0.17264,-1.19519 1.1783,0.34016 4.5416,-1.0952 1.88031,-1.45289 -0.9655,0.29822 -5.66619,0.18051 -3.34815,-1.18736 3.41817,0.71527 0.27936,-7.75914 -1.05712,-3.44036 -0.11898,3.09084 -1.20814,6.13547 -0.39352,9.24263 0.37469,2.69575 2.83284,1.31024 2.73675,-0.74384 1.80008,-1.54583 0.96674,3.27108 -0.5098,3.64598 -2.5231,1.12754 -3.78261,-2.96733 -6.43038,-2.70456 -2.60578,-0.50546 -5.30068,-0.26531 -7.91463,0.0375 -2.26645,1.35887 -2.42236,4.4234 -2.62058,6.80309 -0.39904,2.33258 -1.03931,4.5696 -0.93853,7.07809 0.21141,3.17636 -0.69953,6.28497 -0.35073,9.45271 -0.57632,1.09728 0.72208,5.04263 -1.08121,4.31347 -0.56329,-2.72894 0.38529,-5.62278 0.12004,-8.42899 0.0274,-3.96629 -0.2827,-7.9816 0.58733,-11.88163 -0.46359,-2.58143 1.96311,-5.81472 0.0554,-7.88016 -2.80486,-0.26123 -5.68616,-0.41764 -8.4777,0.0279 -1.12487,1.7137 -0.56474,4.21531 -1.27014,6.13451 0.91054,2.63597 1.01187,5.34042 0.94842,8.14366 0.25228,2.7689 -0.38423,5.4531 -0.72496,8.09068 2.54862,0.85068 -1.27943,2.38459 -0.1836,4.28608 -1.37469,1.96689 0.22499,-3.37456 -2.0507,-2.85363 -3.09283,0.32382 -5.93019,-1.25009 -8.91389,-1.62761 -0.89,0.44781 0.006,5.20013 -1.21662,2.66116 0.19323,-1.59805 -0.25367,-3.84145 -1.9762,-2.28742 -0.54013,-2.34696 -3.78665,-1.36701 -5.51764,-2.3531 -1.88375,-1.41397 2.61618,-0.49101 3.36308,-0.15479 4.06263,1.36199 1.77375,-4.28292 3.10471,-6.38729 -0.30395,-1.23661 1.06261,-3.62898 0.86871,-1.01216 -0.0777,2.28303 -2.28196,6.81494 -0.26485,7.84721 1.04862,-3.20724 1.18778,-6.60613 1.58204,-9.92742 1.62332,0.13712 0.084,3.47218 0.21734,4.83582 -0.48563,2.48028 -1.90043,6.58629 2.20608,6.17166 2.48545,0.54397 8.13089,3.03415 7.88833,-1.4082 -0.2082,-2.99881 -0.48568,-6.04814 0.14827,-9.02436 0.2822,-3.21726 -2.10329,-6.0691 -1.08834,-9.30988 -0.40339,-3.02153 -4.22076,-2.70882 -6.10412,-1.94696 1.18496,2.48607 -3.78323,0.3328 -4.0757,2.7285 -0.70567,2.20316 1.48517,0.10844 2.13097,-0.43041 -1.23511,2.56895 -3.6543,4.48741 -5.72616,6.42206 -1.75211,1.51046 -3.39245,3.18644 -4.7907,5.01478 -3.91491,2.33206 -6.7009,6.0923 -9.70883,9.42409 -2.50727,0.77048 -0.36603,5.79087 -3.97941,4.25115 -2.15336,1.4755 -4.43173,3.06087 -6.22048,4.98779 -2.04126,1.80688 -4.47201,3.08623 -5.51881,5.76847 -1.16824,0.64219 -2.61172,1.13792 -3.81138,1.86396 -2.46867,-2.94026 -4.74191,1.65443 -6.83553,2.92026 -1.24311,1.59496 -4.42329,2.22774 -3.5247,4.52861 -1.57875,0.0502 -3.68568,-0.58504 -4.81522,1.3973 -0.82833,1.9768 3.60391,6.61293 -0.48055,7.34993 -0.25429,-0.72921 1.47644,-2.83208 -0.28667,-1.42014 -1.1234,0.91112 -3.00044,-1.96715 -2.49771,0.61619 0.99264,1.1034 1.55767,2.81683 1.75565,3.91256 1.60262,-0.5367 3.67586,1.42869 1.0018,1.16916 -2.17212,0.18815 -2.42826,-1.63617 -3.03737,-2.93266 -0.54915,2.48929 -2.01631,4.99461 -0.8527,7.21361 -0.19891,2.94313 5.49813,0.59437 3.7747,3.14492 -2.23975,0.27733 -4.3911,-0.87547 -5.1654,-3.02348 -2.00414,1.09615 -4.09931,2.48427 -5.65064,4.23783 -1.98711,0.49916 -0.43946,5.10266 -2.46375,2.5282 -0.26087,-0.37794 -0.48806,-0.77755 -0.7173,-1.17477 z m 1.65081,-1.26996 c 0.8203,-2.15224 -2.3546,-4.65438 -3.78924,-5.12253 0.28263,1.87864 1.63015,5.42771 3.50657,5.4602 z m 17.51401,-25.37836 c 2.10537,-1.96233 3.08858,-4.58446 5.6691,-6.18433 1.68632,-0.84008 2.64552,-4.0808 -0.20613,-3.49639 -3.08019,1.98702 -4.72417,5.49367 -7.53631,7.80853 -1.51257,1.15884 0.99994,2.51918 2.07334,1.87219 z m 13.09969,-7.06945 c 1.49249,-2.35561 3.22627,-4.25504 5.54693,-5.79675 2.11276,-1.76438 3.64212,-4.19813 6.00001,-5.58679 3.32631,-0.0663 0.0657,-4.28077 0.25173,-6.11055 -1.61993,-2.10958 -3.82051,-3.98364 -6.40587,-4.73436 -2.35582,0.25084 -1.36384,2.82292 -0.96013,4.06631 -2.3161,3.26094 -5.83152,5.49681 -8.2384,8.69683 -1.28593,0.62066 -3.94153,1.84381 -3.79641,3.29404 0.79041,-0.14709 2.80651,-3.07378 2.13195,-0.59723 -2.44722,2.54885 2.41082,4.31002 2.98814,6.73241 0.60682,2.2556 1.34674,1.31626 2.48205,0.0361 z m -7.71952,-13.99915 c 3.46749,-3.00995 6.39811,-6.59293 9.51695,-9.95425 1.83486,-2.75475 4.82417,-4.63267 6.12751,-7.7672 1.39264,-2.34543 3.52915,-4.02454 5.5303,-5.8436 0.81639,-2.01498 4.55152,-4.1427 2.38542,-6.23878 -2.93428,0.94655 -4.28028,4.42528 -6.50319,6.4466 -2.25985,2.52997 -4.54977,5.06145 -6.11801,8.09985 -0.96737,1.68823 -3.00123,3.05647 -2.80283,5.15294 -2.73039,0.22015 -3.59972,2.93086 -5.36034,4.51118 -1.51593,1.73079 -3.48317,3.30848 -4.57161,5.27109 0.26471,0.74706 1.26566,0.79982 1.7958,0.32217 z m 24.08247,-3.03584 c 1.80477,-1.74152 3.70904,-3.50569 4.70935,-5.85287 4.43751,-3.83727 8.80171,-7.80903 12.65769,-12.24124 2.0165,-2.63435 -1.00536,-5.38802 -0.0294,-8.20904 -0.22604,-2.52905 2.05667,-5.33924 4.74846,-4.34563 1.77372,0.49594 1.95584,2.97478 -0.303,1.96561 -2.6376,0.5093 -1.39032,3.52443 -1.70253,4.9007 -0.91916,-0.58403 -1.31064,-3.09851 -1.55585,-0.61259 0.0584,3.80981 3.98506,2.64526 6.54059,2.69226 1.43413,-1.64826 3.29852,0.98897 5.09602,0.15315 3.21716,1.14198 6.70601,0.6295 10.04376,1.01095 2.66941,-0.2803 5.30905,-0.0703 7.96974,0.0955 2.26564,-0.42874 7.47127,1.07037 6.71308,-2.72619 -0.63109,-3.00122 -4.81165,-1.28968 -7.00132,-2.11616 -3.84786,-0.7355 -7.74799,-0.99533 -11.66135,-0.91871 -4.56439,-0.27058 -9.23455,0.34713 -13.72184,-0.70698 -1.06874,-1.52481 2.62891,-0.58784 3.4826,-0.68463 1.89741,-1.38956 -1.50002,-4.69866 -2.7966,-6.2271 -1.41681,-1.23256 -4.26519,-3.89063 -5.66933,-2.52907 -2.22078,1.09958 -3.2826,3.67074 -5.49224,4.86801 -5.37882,4.38242 -9.15499,10.31817 -13.8183,15.3907 -2.17474,2.72031 -4.68693,5.15491 -6.76529,7.94281 -2.13859,1.93096 3.21859,1.86553 4.01474,3.74166 1.38732,1.5765 1.89552,3.70857 3.06026,5.40942 0.55499,0.16281 1.03841,-0.74582 1.48072,-1.00054 z m -31.04607,-15.34314 c 3.75385,-10.32415 8.47541,-20.2792 13.5926,-29.99114 0.7177,-1.68736 2.75452,-4.02939 2.84746,-5.19831 -4.69706,4.32911 -6.96867,10.47088 -10.20182,15.83727 -2.37252,5.13221 -3.6441,10.7056 -6.15202,15.78877 -0.7978,0.79673 -2.405,6.78456 -0.0862,3.56341 z m 26.69016,-1.40208 c 1.63826,-2.3258 -2.74084,1.05375 -0.19599,0.22561 l 0.19594,-0.22561 z m 4.77061,-5.30245 c 1.32935,-0.76039 1.24454,-2.76941 -0.20101,-0.99079 -1.03139,0.90902 -1.45416,3.06709 0.20101,0.99079 z m 67.11447,6.25346 c -0.67002,-1.1889 -1.15036,-2.49613 0.26959,-3.20464 -1.63579,-3.08448 0.30541,-6.48636 0.79782,-9.62551 1.48009,-3.14984 -5.27831,-2.50381 -3.72639,0.61294 -0.34398,3.82819 -1.59205,8.43166 1.27567,11.62634 0.24003,0.20085 1.60638,1.68759 1.38331,0.59087 z m -34.88462,-11.81423 c 3.31662,0.28136 6.63838,0.31353 9.95853,0.19007 2.09287,0.43695 6.25854,1.2409 5.04208,-2.32242 -0.48965,-3.96815 -0.64835,-7.97448 -1.5772,-11.88223 -0.64861,-1.60437 -0.19848,-4.76897 -1.63258,-5.52007 -3.54514,3.92971 -7.83996,7.1415 -11.17851,11.26915 -1.00935,2.30129 -2.97919,4.05991 -4.02242,6.29494 0.14121,1.92882 1.88702,2.06454 3.4101,1.97056 z m -3.27529,-4.97316 c 3.5674,-5.25643 8.55575,-9.33895 12.24348,-14.50195 1.64435,-1.69105 3.70377,-2.98969 5.274,-4.83338 2.61493,-2.56676 4.95843,-5.40482 7.64675,-7.89267 2.13228,0.0813 1.50265,-3.63156 -0.16616,-1.5174 -2.22129,1.57644 0.91157,-2.94995 2.30157,-2.17529 1.73239,0.59609 4.44046,-4.41873 4.93057,-1.7245 -1.26271,0.5605 -1.34177,1.66227 0.34362,0.9383 0.99254,-0.23526 2.6529,-1.48574 1.31071,-2.42989 -1.72418,0.85671 1.10507,-2.1368 -0.32898,-3.16127 -1.10415,-2.47129 -2.0917,-5.60353 -4.80136,-6.71325 -0.71214,-2.82761 -5.83849,1.60236 -2.03468,0.36295 2.21853,0.70887 4.07659,3.1904 4.90271,5.45354 -1.11213,1.28171 -2.12878,-3.14279 -3.59899,-3.96673 -2.77259,-0.71185 -3.62654,3.68633 -6.20628,4.51275 -2.78776,1.38966 -5.55732,2.88994 -7.30939,5.74221 -4.26574,3.79711 -8.14931,7.99895 -11.71615,12.4535 -3.24497,3.80248 -6.89981,7.22016 -10.3824,10.79046 -2.4725,2.79114 2.95384,3.75661 3.88562,6.10629 1.31304,0.88279 1.95142,5.70604 3.70536,2.55633 z m 22.51215,6.07123 c 1.30986,0.0802 1.55688,-1.97372 2.98083,-0.679 0.89468,-1.04565 1.83084,-3.35383 -0.0603,-3.80799 0.34954,-4.98086 -1.19876,-9.84053 -1.37335,-14.80347 -0.0801,-2.66779 -0.3026,-5.33151 -0.63832,-7.97908 -1.61611,1.01538 -0.28631,4.99183 -0.22568,7.06579 -0.0392,3.91378 1.38243,7.66965 1.47515,11.55597 -0.83129,1.89257 1.31084,5.4141 -0.54916,6.28671 -0.89094,-2.07589 -0.14259,-4.66598 -0.68535,-6.93677 -0.69161,-5.47283 -1.50493,-10.9366 -1.87283,-16.43968 -0.4292,-3.46938 -2.98127,1.12061 -4.19252,2.00366 -2.4888,1.66132 -0.4953,4.41032 -0.37149,6.73603 0.84555,4.89603 1.90225,9.78279 2.00219,14.76637 -0.36601,2.44788 1.80137,2.2063 3.51088,2.23146 z m 21.04299,4.46882 c -0.35912,-2.77224 -2.40089,1.4466 0,0 z m -116.54507,-38.13201 c 2.0962,-2.74021 4.63656,-5.10237 6.84138,-7.74398 -1.41396,0.0751 -3.14495,2.45746 -4.57011,3.52348 -1.06862,1.22922 -3.65759,4.16873 -2.99298,4.97771 0.26429,-0.22665 0.53948,-0.45426 0.72171,-0.75721 z m 10.29334,-11.406 c 1.76392,-1.95141 3.40659,-4.00625 5.39189,-5.74668 2.73467,-2.84004 6.07062,-4.99465 9.0746,-7.52807 4.59423,-3.5721 10.33752,-4.91057 15.75796,-6.67811 0.84784,-0.40933 4.28712,-1.40927 3.61488,-1.90938 -2.88656,1.13351 -6.04642,1.26304 -8.89234,2.54193 -5.12298,2.04839 -10.33754,4.28655 -14.38399,8.14668 -3.92318,3.43268 -7.64291,7.11087 -11.19459,10.92863 -0.82742,0.68318 0.32705,0.7627 0.63159,0.245 z m 43.50965,-4.39606 c 3.49986,-2.85462 6.45111,-6.35864 10.36493,-8.7014 4.03216,-2.46083 8.10215,-4.92387 12.40558,-6.87573 1.00056,-2.15762 -1.59925,-1.66875 -2.36442,-0.29688 -5.80731,3.6696 -11.70735,7.27866 -17.01581,11.65521 -2.1797,2.09416 -4.53817,4.09462 -6.44013,6.41939 1.06649,-0.3423 2.0706,-1.50911 3.04985,-2.20059 z m 19.95741,6.85847 c 1.05304,-2.21726 2.79769,-4.24035 3.36706,-6.60996 -2.10988,2.29465 -3.77785,5.32891 -4.78594,8.29772 0.55611,0.36991 1.07096,-1.35411 1.41888,-1.68776 z m 21.18964,-4.91916 c 0.28752,-2.36522 -0.88612,-4.6605 -1.36179,-6.95211 -1.32539,-4.03272 -1.93879,-8.25803 -3.26703,-12.28212 -0.068,2.72249 1.02992,5.79533 1.75326,8.5524 1.21583,3.41561 1.08374,7.09502 1.80116,10.61012 0.10254,0.62628 0.91499,0.74019 1.0744,0.0717 z m -43.39305,-21.13904 c 3.01219,-1.0388 6.09641,-2.17963 8.74024,-3.95633 -2.89815,-0.0414 -5.64792,1.5607 -8.34426,2.55465 -1.10314,0.2476 -4.37289,2.2383 -1.39082,1.63463 0.3336,-0.069 0.66406,-0.15188 0.99484,-0.23295 z m 12.53706,-4.16375 c 2.14614,-1.30839 -3.85991,0.027 -0.78378,0.24234 l 0.40158,-0.10643 z m 4.78407,-1.25996 c 1.15939,0.17424 3.72247,-1.78995 1.13696,-1.14404 -1.16669,0.14535 -4.64265,1.93994 -1.55858,1.233 l 0.42162,-0.089 z m -118.43115,136.54952 c 0.0564,-3.18111 1.05026,-6.29553 1.21205,-9.48607 0.0797,-2.14007 0.24704,-5.74732 3.37594,-4.36211 2.2349,0.73846 7.2396,-1.09895 7.33068,2.16942 -0.71652,2.35274 -1.98111,4.63722 -1.70297,7.17539 -0.54625,0.90007 -0.65055,5.64551 -1.40922,2.68803 0.26561,-2.52432 0.6079,-5.05034 1.24423,-7.52691 1.30612,-2.60367 -0.52519,-3.57832 -2.9799,-3.34724 -2.41713,-0.56526 -5.32101,-0.0971 -5.1797,3.0215 -0.5747,2.84548 -0.3589,5.77029 -0.73235,8.63076 1.87098,0.994 4.34282,0.72269 6.47674,0.8662 1.81827,-0.47857 2.5842,2.12882 0.38774,0.90976 -2.52798,-0.56769 -5.16443,-0.24332 -7.71049,-0.47242 z m 3.1424,-3.02629 c 0.55316,-1.38213 5.86818,-1.85355 4.53672,-0.0316 -1.35253,-0.23458 -3.59592,0.61575 -4.53672,0.0316 z m 56.18818,16.7456 c 2.8142,-1.48116 -0.0726,-4.48185 0.73571,-6.07775 1.50483,1.64121 2.81427,5.81785 -0.23552,6.47326 -0.21544,0.0547 -0.60564,-0.10557 -0.50019,-0.39551 z m -56.49706,-19.42855 c 0.61007,-1.31405 3.74257,-1.35023 4.44295,-0.42792 -0.9066,0.90185 -3.66301,0.67763 -4.44295,0.42792 z m 45.85058,12.84505 c -1.708,-2.32206 1.435,-3.66783 1.20733,-0.50814 1.14801,1.61839 -0.33969,1.3301 -1.20733,0.50814 z m -45.29834,-15.64409 c -0.73858,-1.69803 0.0316,-3.5127 2.01739,-2.28977 1.61355,-0.96272 3.78561,-0.72571 2.74328,1.70517 -0.43162,1.85708 -3.13049,0.71177 -4.51034,0.94035 l -0.25032,-0.35575 z m 46.46182,12.99115 c 0.0599,-1.04578 -0.36062,-4.28088 -1.61162,-2.08152 -0.3076,1.86056 -3.30248,1.75837 -1.66186,0.0403 1.22106,-0.35733 1.65269,-4.45907 3.01359,-2.81712 -1.23863,3.82206 1.75913,-3.27179 1.69452,0.0557 -0.70128,1.96146 -1.39915,3.58122 -0.93248,5.80501 l -0.27341,-0.48947 -0.22869,-0.51291 z m 63.79772,-14.00623 c -0.30195,-1.68811 0.33658,-2.06293 0.47996,-0.22723 0.5471,1.51066 -0.31929,3.06133 -0.47996,0.22723 z m 27.24281,-19.16317 c 0.50161,-2.85717 -0.11428,-5.81069 -1.16544,-8.4886 -0.002,-3.16808 1.8644,0.79038 1.68628,2.01126 -0.1891,1.50906 2.11112,7.30148 -0.52084,6.47734 z m 8.23391,1.10766 c 0.58374,-3.79185 -0.0259,-7.71048 -0.80924,-11.43727 -1.24686,0.82815 1.23805,5.65428 -0.64264,5.86301 -1.00312,-3.09512 -0.0816,-6.72418 -0.79165,-9.96355 0.17353,-3.25113 -1.1003,-6.4797 -0.51773,-9.7092 1.36245,-1.80145 1.23226,3.33746 1.51061,4.46904 0.92175,6.02292 1.89707,12.03991 2.65563,18.08438 0.18594,2.00086 4.93948,1.83417 5.07297,0.45782 -2.10211,-1.71672 0.72014,-5.89701 2.85828,-4.86101 2.76847,1.25041 2.27766,5.17176 4.5768,6.46294 2.53209,0.53921 5.06928,-0.0829 7.59351,0.25808 2.61867,-0.75727 1.55668,-4.56256 2.16255,-6.72885 0.46783,-5.17091 0.44199,-10.36452 0.18933,-15.54432 0.17591,-11.8766 0.53448,-23.75143 1.1661,-35.61247 0.55869,-8.03743 0.69002,-16.09862 1.09811,-24.14068 0.64443,-2.77262 -0.4298,-5.45558 -0.23947,-8.20277 0.41302,-6.34318 -0.50224,-12.68709 -0.018,-19.03272 0.24463,-3.15558 0.12002,-6.32121 0.0887,-9.47606 1.52118,-2.15691 2.7322,-0.0457 2.31202,1.69988 0.70358,5.63918 -0.25206,11.28977 -0.13406,16.93486 0.67916,3.6682 0.21746,7.43669 0.44515,11.1521 0.0462,9.3753 -1.14141,18.71061 -1.0358,28.08747 -1.00808,7.79719 -0.67194,15.68674 -1.21732,23.51397 -0.68721,5.83891 -0.87663,11.76159 -0.12086,17.60201 0.15515,6.05212 -0.22963,12.11833 0.15615,18.15998 1.09552,3.1415 5.81737,1.5119 8.51563,1.90634 1.7553,-0.93283 3.03785,0.49668 4.86417,0.14351 -2.25119,2.04198 -5.53657,0.87343 -8.32379,1.02767 -3.06874,0.14006 -6.0005,0.89933 -9.13241,0.64207 -3.34384,-0.66308 -7.04575,-1.63135 -10.52076,-1.17786 -2.33859,-0.0388 -4.6991,-1.10326 -7.16787,-0.75785 -1.56682,-0.23304 -3.23286,1.35147 -4.59413,0.17948 z m 11.51609,-1.38477 c 0.002,-2.42599 -3.09568,-6.21431 -4.64477,-2.52522 0.54907,1.75404 1.48846,-2.36877 2.61634,-0.0659 1.55971,0.44852 0.0368,4.09768 2.02843,2.59114 z m 13.62511,-4.28401 c 0.0738,-1.44482 -0.28407,-4.41757 -0.51112,-1.35169 0.0383,1.5642 -0.67015,5.0279 0.16953,5.53337 0.45,-1.33396 0.32961,-2.79471 0.34159,-4.18168 z m 2.351,-80.98962 c -0.10015,-3.79194 -0.0428,-7.60169 -0.43659,-11.38188 -0.68395,1.51406 -0.16503,5.15593 -0.32425,7.46762 0.10535,0.69031 0.31027,6.06584 0.76084,3.91426 z m -0.61184,-18.72601 c 0.274,-1.27693 -0.0302,-5.31768 -0.29636,-2.05485 -0.19892,1.12638 -0.16905,5.80625 0.24784,2.54759 l 0.0485,-0.49274 z m 7.07539,104.16481 c 0.13672,-3.40942 -0.0702,-6.88998 -0.55628,-10.29587 -0.12622,-3.1796 0.10266,-6.41331 -0.75065,-9.51378 0.0635,-6.8822 1.67313,-13.64073 2.02185,-20.51038 0.29036,-4.8719 0.9572,-9.72557 1.06027,-14.60399 -0.72569,-3.13618 0.086,-6.39517 -0.0547,-9.60091 0.30001,-9.08891 0.93306,-18.18089 0.45658,-27.277 -0.30938,-3.01108 0.55513,-6.17538 -0.4808,-9.05194 0.11635,-2.53777 0.23637,-5.09174 0.15476,-7.64535 0.20682,-3.1554 -0.15084,-6.30811 -0.25245,-9.44988 1.27447,0.1115 0.98738,4.1289 1.15807,5.79058 -0.31143,8.37771 0.40581,16.74555 0.36015,25.12481 0.37254,9.18738 -0.46082,18.35808 -0.55436,27.53975 0.34638,6.32024 -0.72698,12.60558 -0.95436,18.91351 -0.47413,6.69213 -1.71835,13.32604 -1.57801,20.05597 -0.12008,3.87492 0.0511,7.75762 0.72993,11.57717 0.18835,2.92865 0.3332,5.88485 -0.006,8.80624 0.004,0.4266 -0.63539,0.53886 -0.75427,0.14107 z m -43.44398,-15.90778 c 0.005,-2.82669 0.18562,-5.78879 -0.8673,-8.46119 1.00281,-1.61108 1.13746,2.76256 1.35164,3.67737 -0.028,0.79693 1.06422,6.52615 -0.48434,4.78382 z m -2.10094,-5.33431 c -0.30339,-1.21513 0.80579,-4.24889 0.67877,-1.37921 0.008,0.71373 -0.81676,4.04892 -0.67877,1.37921 z"
       id="path4502"
       inkscape:connector-curvature="0" />
  </g>
</svg>
