<?xml version="1.0" encoding="UTF-8" standalone="no"?>
<!-- Created with Inkscape (http://www.inkscape.org/) -->

<svg
   xmlns:dc="http://purl.org/dc/elements/1.1/"
   xmlns:cc="http://creativecommons.org/ns#"
   xmlns:rdf="http://www.w3.org/1999/02/22-rdf-syntax-ns#"
   xmlns:svg="http://www.w3.org/2000/svg"
   xmlns="http://www.w3.org/2000/svg"
   xmlns:sodipodi="http://sodipodi.sourceforge.net/DTD/sodipodi-0.dtd"
   xmlns:inkscape="http://www.inkscape.org/namespaces/inkscape"
   width="300mm"
   height="300mm"
   viewBox="0 0 300.00001 299.99999"
   version="1.1"
   id="svg8"
   inkscape:version="0.92.1 r15371"
   sodipodi:docname="logbook_1.svg">
  <defs
     id="defs2" />
  <sodipodi:namedview
     id="base"
     pagecolor="#ffffff"
     bordercolor="#666666"
     borderopacity="1.0"
     inkscape:pageopacity="0.0"
     inkscape:pageshadow="2"
     inkscape:zoom="0.35"
     inkscape:cx="-1668.5314"
     inkscape:cy="191.47967"
     inkscape:document-units="mm"
     inkscape:current-layer="layer1"
     showgrid="false"
     inkscape:window-width="2560"
     inkscape:window-height="1365"
     inkscape:window-x="-9"
     inkscape:window-y="-9"
     inkscape:window-maximized="1"
     units="mm"
     fit-margin-top="0"
     fit-margin-left="0"
     fit-margin-right="0"
     fit-margin-bottom="0" />
  <metadata
     id="metadata5">
    <rdf:RDF>
      <cc:Work
         rdf:about="">
        <dc:format>image/svg+xml</dc:format>
        <dc:type
           rdf:resource="http://purl.org/dc/dcmitype/StillImage" />
        <dc:title></dc:title>
      </cc:Work>
    </rdf:RDF>
  </metadata>
  <g
     inkscape:label="Layer 1"
     inkscape:groupmode="layer"
     id="layer1"
     transform="translate(-40.415936,188.35914)">
    <path
       style="fill:#000000;stroke-width:0.42000207"
       d="M 161.1135,36.471803 C 153.9324,29.247071 147.02488,21.708587 140.98349,13.495776 138.00627,9.776213 134.2746,6.735378 131.29126,3.03461 c -2.16252,0.683507 -3.48352,0.984845 -5.81566,0.402657 -1.87651,0.688087 -4.09485,0.942962 -6.30415,0.919033 -2.59455,-0.241824 -4.94248,0.982297 -7.55504,0.761601 -6.19927,0.109152 -12.421516,0.175003 -18.552086,1.20383 -2.466687,0.27959 -5.117225,0.287968 -7.234156,-0.937216 -2.019724,0.980147 -3.917756,-1.221588 -0.996348,-1.416976 1.307956,0.133404 5.271613,-1.018546 1.914183,-1.277585 -2.103219,-0.632815 -4.694092,1.140879 -6.313184,0.40399 -1.593865,-4.101278 -2.530719,-8.43986 -3.819044,-12.6473454 -0.895077,-3.0237906 -0.825962,-6.2196176 -1.537454,-9.2658406 -1.717225,-3.606442 -1.330332,-7.776116 -1.829268,-11.653727 -0.982765,-8.518137 -0.408436,-17.114381 -1.304155,-25.638447 -1.075041,-18.420513 -1.287921,-36.876424 -1.848652,-55.315454 -0.09275,-5.56453 -1.362295,-11.02052 -1.603523,-16.56732 -0.55506,-3.14935 2.784344,-4.3688 5.345223,-4.2296 9.851075,-0.37083 19.739828,0.53397 29.569124,-0.5205 9.78512,-0.89698 19.61314,-1.03099 29.41752,-1.58639 6.50107,-0.75118 13.04631,-0.55804 19.57194,-0.3586 8.39036,0.0301 16.71155,-1.27527 25.09431,-1.50193 12.14278,-0.5602 24.30042,-0.75014 36.44455,-1.25816 3.07925,-0.3376 3.52306,3.38358 5.51823,4.93073 5.21908,6.17871 10.54057,12.26797 16.02845,18.21053 5.47133,5.9713 10.637,12.20632 15.70578,18.518945 5.49024,6.6143 11.16104,13.086012 16.26201,20.012818 6.43348,8.424383 12.25036,17.325268 19.06048,25.456723 1.88312,2.004401 3.28257,4.497948 4.13785,7.104788 -0.72669,2.543518 -4.52531,0.946229 -6.60252,1.257183 -4.30223,-0.16231 -8.6171,-0.439475 -12.89184,-0.820986 -4.96129,0.421991 -9.90329,1.596155 -14.90059,1.274438 -2.63318,-1.172692 -5.49505,0.406137 -8.09884,0.984551 -5.46314,0.814588 -11.0629,0.696469 -16.43258,2.150378 -3.39956,0.917379 -6.96556,0.872176 -10.334,1.946666 -2.16492,0.211146 -5.07983,1.687637 -6.8692,0.483996 2.24688,-1.752613 5.74874,-1.294683 8.40618,-2.488656 1.12507,-0.701877 -2.76688,0.153019 -3.58099,0.195367 -4.12913,0.620593 -8.19539,1.643474 -12.39184,1.718455 -9.50509,0.413135 -19.00274,1.079461 -28.42982,2.400828 -9.51867,1.341907 -19.17369,1.192948 -28.70129,2.478447 -10.64988,1.066806 -21.387,1.376732 -31.94005,3.284301 -11.36381,1.745747 -22.995576,1.626786 -34.195549,4.407935 -2.508559,0.99495 -5.261882,1.387431 -7.719533,2.377104 0.306837,0.642658 2.499994,0.897269 1.000864,2.443314 -0.485577,4.476442 1.179918,8.769053 2.232375,13.0384535 -0.345228,3.0721005 1.978593,1.2697275 2.811056,-0.2385736 2.428815,-2.461451 0.435629,5.37671609 1.82807,1.3631691 0.382469,-3.2097282 0.876614,-6.543836 0.33055,-9.74044 -2.358225,0.281007 -1.608403,4.562039 -3.093337,5.1530698 0.238418,-1.9231418 -0.686555,-1.7365008 -2.079256,-1.2104988 -2.592417,-1.163584 2.056408,-3.533475 1.756278,-5.578655 0.952265,-1.61137 0.184617,-5.660762 2.209416,-5.817803 1.900018,-2.362029 1.652224,3.587726 3.66924,1.23793 2.210297,-0.767099 4.509542,-3.637145 6.45803,-3.555264 -1.18324,1.384405 -1.04769,3.512426 -3.354318,3.36278 -2.380908,1.098598 -4.522428,2.960165 -3.258258,5.778535 0.245522,3.771849 0.222061,7.6118898 1.409107,11.241766 0.633382,0.773181 -0.400937,3.55775599 0.638929,3.37016899 2.51972,-0.86497499 4.61216,-2.60949199 7.05114,-3.61266199 0.90545,1.733816 -4.168062,2.343162 -4.397525,3.86225899 3.826095,-0.309402 7.753585,-1.38585099 11.567471,-0.60822799 -0.33357,1.07843299 -4.245996,1.20262099 -1.06684,1.23748599 2.00616,0.237018 5.16939,-0.827463 6.4494,0.632673 -0.56931,0.96123201 -4.45311,0.91146601 -1.38964,1.03368701 8.02981,-1.34973701 16.20162,-1.32703401 24.30663,-1.80005101 5.67092,-0.675524 11.29533,-1.74333999 17.00468,-2.11542999 10.58222,-1.020446 21.27037,-0.761618 31.80553,-2.264986 4.10027,-1.092768 8.42287,-1.070653 12.63195,-1.510226 8.14572,-0.6409611 16.35825,-0.6189109 24.43023,-2.0008518 11.34019,-1.1225837 22.76494,-1.2668098 34.08639,-2.5925302 2.7516,-0.615101 5.74567,0.258266 8.36888,-1.119823 2.42058,0.08998 5.02514,0.164173 7.53306,-0.258923 5.74941,-0.705551 11.49417,-1.48263 17.22444,-2.315827 3.70536,-0.703036 1.12508,-5.744724 -1.833,-4.689896 -10.53606,0.484807 -21.09817,0.364894 -31.64611,0.477002 -12.22425,0.159902 -24.47741,-0.02866 -36.66927,0.99067 -1.25224,0.08588 -6.00204,0.644953 -3.83209,2.048642 5.74639,0.382887 11.49001,-0.578235 17.22868,-0.821842 12.45572,-0.735758 24.94684,-1.475801 37.42651,-1.004833 1.26917,-0.143061 4.95866,0.541944 2.00287,1.531979 -2.5195,0.564317 3.99845,-0.02778 0.71359,1.172531 -1.13631,0.783157 5.06153,0.498772 2.14109,1.585732 -1.58335,0.481681 -0.77688,-1.226995 -2.8179,-0.850917 -11.09989,-0.5773 -22.22231,0.04208 -33.32219,0.368621 -20.40664,0.793574 -40.83639,1.889161 -61.0941,4.5647254 -3.88904,0.6476507 -7.81458,1.2360219 -11.6159,2.278688 14.44643,-1.0947935 28.9136,-2.9845091 43.4439,-2.8549685 1.22784,0.099674 4.52534,-0.082265 4.40419,0.4393874 -4.67271,0.1450431 -9.35808,-0.0926 -14.02981,0.2651465 -13.49881,0.6876118 -26.96261,1.9495239 -40.38338,3.5292512 -9.00877,0.843608 -17.95995,2.29178 -26.85833,3.917462 -0.92749,0.119618 -3.52176,1.16643599 -1.32806,-0.20041 0.83445,-0.40443 3.66178,-0.669814 1.05185,-0.654511 -7.05032,0.30823 -14.05571,1.58228399 -21.12095,1.43374299 -1.20079,-0.116278 -3.02458,-2.34517999 -0.47248,-1.90888799 8.67861,-0.794046 17.4406,-0.608936 26.08787,-1.712752 7.21592,-1.476683 14.59305,-2.0808082 21.89783,-3.0079114 11.35337,-1.1555419 22.65113,-2.7682586 33.94621,-4.3783956 21.84358,-2.514047 43.86065,-2.93236 65.82657,-3.202422 3.75498,-0.09387 7.56423,0.108463 11.28107,-0.350023 -2.41622,-0.485036 4.49254,-1.218704 0.87401,-1.638309 -10.19645,-0.426063 -20.40557,0.231727 -30.58988,0.724677 -10.42862,0.616937 -20.83255,1.579806 -31.24947,2.353574 -22.07913,1.818311 -44.03724,4.8083187 -65.99326,7.7117528 -3.24805,0.2531512 -6.44648,1.3963642 -9.71087,1.1624002 -0.16115,-1.3144723 3.83972,-0.188344 5.27268,-0.997335 18.33727,-2.5835798 36.71538,-4.878282 55.10524,-7.055381 -8.26736,-0.712509 -16.56172,-1.342816 -24.86359,-1.320942 -6.12703,0.18549 -12.22432,1.155323 -18.19574,2.485009 -1.62305,0.556562 -1.19113,2.7603463 0.59281,1.7837787 5.41032,-0.5716027 10.79688,-1.4932967 16.23241,-1.7514027 0.28938,0.837738 -3.54979,0.674627 -4.83413,0.897415 -5.82731,0.584013 -11.6628,1.2220347 -17.4308,2.2358763 -1.71252,1.627744 -4.5137,1.1218767 -6.78401,1.4886394 -7.01784,0.3531041 -13.95814,1.4525773 -20.89786,2.4838643 -2.82619,0.191825 -5.43743,1.330437 -8.14161,0.134901 -1.08916,-3.49e-4 -6.016356,-0.430713 -2.86814,-1.345197 11.30856,-0.9965352 22.75419,-0.7178224 33.95872,-2.7487766 2.41471,-0.8879377 4.85956,-1.1993272 7.34497,-1.7917624 -1.81535,-0.600173 -4.82399,0.33811 -7.025,0.6695462 -0.92195,0.2714452 -4.12898,1.1442664 -1.5429,-0.038017 1.55194,-0.3793842 2.66882,-0.9837512 0.36412,-0.7372272 -9.50127,0.5405463 -19.03695,0.5534793 -28.51347,1.4689515 -2.94292,0.8506199 -6.308836,0.6518339 -8.841126,2.5524091 -1.01159,-1.0767148 2.02654,-1.3989181 1.64458,-2.7967487 6.001926,-1.9718609 12.458686,-1.9424509 18.656116,-3.0476919 2.40849,0.103202 4.63257,-1.752697 6.87318,-1.07908 4.09488,-0.09107 8.13199,-0.897309 12.19135,-1.389305 -8.66776,0.174901 -17.32582,0.61148 -25.97375,1.210652 -4.18177,0.138727 -8.3852,0.456548 -12.561506,0.135407 -2.18808,-1.436355 2.742686,-1.901857 3.888436,-2.094213 6.24796,-1.007599 12.52507,-1.904517 18.76589,-2.907205 -3.87401,-0.330382 -7.77138,0.640029 -11.61708,1.106949 -1.00282,0.123829 -4.8158,1.241507 -2.5114,-0.294589 -1.31144,-0.216067 -4.82103,1.079657 -4.99363,0.288491 1.90669,-1.193698 5.62771,-0.375237 6.67526,-2.125282 -2.3953,-0.928641 -5.21155,0.08323 -7.58244,-0.839154 2.22232,-0.908903 5.03985,-0.38082 7.49736,-0.742254 4.20242,-0.181461 8.40018,-0.657125 12.59939,-0.742915 1.53232,1.91537 4.68952,0.794093 6.92777,0.729424 2.63478,-0.49409 5.88144,-0.354943 7.57996,-2.580837 4.24345,-0.24254 8.55962,-0.293912 12.64579,-1.610653 -7.42833,-0.271537 -14.75321,1.321891 -22.13251,1.914047 -4.56109,0.372474 -9.14638,1.050921 -13.72708,0.738623 -2.12332,-1.15015 -4.82472,-0.341314 -7.17739,-0.198732 -0.926,0.453691 -4.41902,0.321701 -1.9087,-0.466505 8.34533,-0.908967 16.75949,-1.060399 25.1122,-1.932854 6.06902,-0.657158 12.20477,-0.399918 18.23503,-1.452883 4.91617,-0.742 9.94666,-0.952584 14.77003,-2.175721 -2.34105,-0.596398 -5.32,-0.08351 -7.88667,-0.126582 -14.58214,0.637606 -29.13801,1.848957 -43.63942,3.486095 -1.43104,0.259136 -6.10439,0.04955 -2.43097,-0.508866 12.20404,-1.120513 24.41486,-2.223565 36.64771,-2.989447 6.38255,-0.36474 12.7853,-0.611361 19.16877,-0.744296 2.84701,0.84908 5.85186,-0.139153 8.73935,-0.387785 10.15626,-1.492442 20.43713,-1.797367 30.6001,-3.239693 22.28074,-2.571385 44.64223,-4.494281 67.04174,-5.648253 3.84028,-0.08111 7.72029,-0.47387 11.54235,-0.01579 1.74172,1.477869 -5.10057,1.770336 -1.531,0.704836 -0.81167,-0.911593 -4.99205,-0.380749 -6.9862,-0.276493 -1.77273,1.703622 -4.60761,0.787806 -6.88938,1.109665 -0.98384,-0.09605 -4.18841,0.580691 -1.46249,0.662583 6.83395,0.01315 13.71891,0.0666 20.49603,-0.921016 2.12725,-0.04694 4.65926,-1.853466 6.48737,-1.03813 -2.02547,1.426157 -4.81449,1.243974 -7.21028,1.677052 -7.56989,0.73832 -15.21649,1.09459 -22.8091,0.565395 -2.24326,-0.02567 1.14883,-1.794639 -1.42585,-1.344984 -12.22336,0.473822 -24.39963,1.777856 -36.58487,2.812669 -6.11423,0.622744 -12.26147,1.04188 -18.33844,1.95868 5.66705,0.26814 11.41828,-0.196988 17.11165,-0.351324 14.29079,-0.751166 28.57952,-1.709108 42.89441,-1.853061 7.61858,0.644275 15.35105,1.701538 22.96103,0.374093 2.13053,0.536224 -2.08191,1.115554 -2.94161,1.031258 -4.64677,0.353647 -9.34292,-0.08477 -13.96616,0.510207 1.95109,0.655761 4.61814,0.536257 6.86009,0.77442 3.03608,0.199497 6.16376,0.321088 9.14953,0.290896 2.58407,1.098959 5.8331,0.605356 8.67306,1.026358 2.66874,0.07076 5.40423,1.264631 7.9577,-0.05466 4.41289,-1.507107 8.85683,-3.403162 12.2859,-6.636989 1.07268,-2.483124 -1.15935,-4.971651 -2.96386,-6.466881 -5.9978,-4.463043 -12.96401,-7.387648 -19.10105,-11.648221 -5.93556,-4.07331 -12.09204,-7.807612 -18.11453,-11.744815 -2.13255,-0.574947 -1.17915,-4.091659 0.58801,-1.71993 3.53329,3.131188 7.88754,5.126821 11.72488,7.846182 6.52033,4.348336 13.14765,8.541314 20.03277,12.290346 4.29865,2.48254 8.55526,5.5888 10.85596,10.105741 2.64212,1.840973 1.94969,5.504376 -0.54455,7.093502 -1.30187,0.939441 -1.6138,1.713369 0.15223,0.525926 0.6793,-1.302134 2.54969,-1.447374 1.12889,0.237736 -1.91373,1.469789 -3.2683,3.281533 -5.33252,4.552371 -4.23052,2.018064 -8.81717,3.040098 -13.20794,4.628527 -2.81923,0.86742 -5.86826,1.229611 -8.31542,3.007552 -1.71299,1.81252 -6.60381,-0.826853 -3.03317,-2.119011 3.02083,-0.536083 -1.94069,-2.316161 1.11859,-2.973934 1.63723,-0.994692 4.59295,-1.971686 5.44829,-2.921412 -1.14334,0.428025 -6.22515,1.90574 -4.37064,-0.268448 2.49884,-0.983011 5.2452,-1.291824 7.65875,-2.478968 -2.26011,-0.894959 -4.92944,-0.892671 -7.3794,-1.078854 -8.9701,-0.05154 -17.94943,0.05982 -26.90798,0.523592 -1.7449,0.0095 -1.61241,1.677254 -3.65506,0.846949 -20.4116,-0.06577 -40.79746,1.460965 -61.07008,3.748843 -1.57416,0.260412 -2.0483,-0.148829 -0.23611,-0.345035 0.89125,-0.04289 4.2628,-0.672194 1.46469,-0.550121 -11.1892,0.793403 -22.32497,2.240083 -33.46218,3.560389 -2.10154,0.272862 -4.20295,0.546883 -6.30444,0.820208 7.63592,-0.123647 15.27422,-0.313474 22.9036,-0.561382 2.03192,0.650226 -2.99465,0.619231 -3.80668,0.652079 -11.82679,0.102911 -23.67393,0.64859 -35.41981,2.068017 -1.69907,0.250142 -3.39814,0.500284 -5.09722,0.750425 6.06386,0.470827 12.15584,0.726903 18.22333,0.146905 11.07009,-0.48378 22.0866,-1.724231 33.04396,-3.342477 21.01428,-2.761 42.1713,-4.856077 63.38423,-4.891979 4.08722,0.150428 8.28904,-0.110771 12.2721,0.908624 -10.40103,-0.540137 -20.8694,-0.25254 -31.28749,0.09658 -15.87709,1.02554 -31.71403,2.684695 -47.4887,4.746951 -1.96776,0.330453 -4.07137,0.491081 -5.93731,1.072327 7.10228,0.320801 14.15121,-0.996404 21.22021,-1.471906 19.52964,-1.903189 39.13418,-2.875635 58.74512,-3.403109 2.48507,-0.05388 4.95419,-0.308112 7.37945,-0.709228 5.58216,-0.172372 11.1955,-0.342005 16.76566,0.09462 2.64152,0.778634 0.0253,2.32585 -1.50382,1.305 -8.73893,-0.510241 -17.50659,-0.07733 -26.25459,0.0043 -18.06497,0.359161 -36.1446,1.221565 -54.09599,3.312632 16.11601,-0.495543 32.22922,-1.3827 48.3412,-2.096812 6.52871,-0.252629 13.05724,-0.727209 19.58333,-0.90511 0.73294,2.229126 4.17483,1.167841 6.28031,1.640269 0.89088,0.673813 3.1156,0.923732 3.34053,1.620215 -5.70992,0.532902 -11.47856,0.34386 -17.20677,0.159052 -1.64271,0.205647 -1.67077,-0.614601 -0.62958,-0.986198 -5.99573,0.184518 -11.99029,0.711521 -17.9519,1.376365 -1.14914,0.600673 3.09224,0.503972 4.04068,0.688773 10.06754,0.577418 20.15524,1.152633 30.24123,1.016994 1.50616,-0.0038 2.87082,-0.660814 4.23922,-1.202541 1.4552,1.394683 3.54802,3.069341 2.71456,5.339146 -1.07296,3.029195 -4.77412,2.485779 -7.314,2.943776 -6.31916,0.877201 -12.6398,1.7509 -18.97217,2.5175718 -2.14813,0.3149086 -2.38956,3.0465475 -4.48145,3.8345872 -8.95325,5.37710299 -18.59257,9.476761 -28.02172,13.927707 -8.78121,3.95034 -17.47437,8.159167 -26.62595,11.203109 -4.76186,1.757987 -9.52242,3.552451 -14.41833,4.888592 -2.94032,0.970791 -5.51629,2.979729 -8.55104,3.595272 -0.34873,-1.421824 2.6732,-1.554228 3.13582,-3.026458 1.60834,0.249844 3.78401,-3.073913 0.98559,-1.640499 -1.23409,0.91642 -2.8351,0.104536 -0.73894,-0.612149 2.26911,-1.215115 4.8546,-1.909804 6.89347,-3.502924 0.67413,-1.012672 1.49692,-1.71365 -0.25344,-0.899257 -3.00213,1.14384 -5.67504,3.170041 -8.79263,3.938502 1.35638,-1.894371 4.64611,-2.341537 6.74439,-3.606135 6.23123,-2.906964 12.61623,-5.455868 19.13357,-7.645341 3.77776,-1.234639 7.31401,-3.244871 11.20838,-4.068547 0.49625,-0.627009 2.52689,-1.63987 3.34174,-1.260003 0.21143,-1.099242 2.23646,-1.65044 -0.0469,-1.097116 -9.4194,2.832578 -18.64305,6.312223 -27.74612,10.030471 -5.27962,2.160618 -10.50978,4.489152 -15.92643,6.281237 -2.61658,0.21589 1.78978,-1.595835 2.67745,-1.89463 11.3623,-4.582812 22.63668,-9.415673 34.27934,-13.259381 0.98341,-0.275923 3.58862,-1.446538 1.0353,-0.764915 -9.12169,2.599148 -18.1253,5.649486 -26.95473,9.112819 -3.52629,1.312559 -6.78377,3.375766 -10.44526,4.284026 1.48711,-1.610288 4.48768,-2.336421 6.6205,-3.430716 3.48507,-1.508237 7.07121,-2.787507 10.50739,-4.403602 -5.7612,0.812756 -11.34316,2.624968 -16.90594,4.294128 -4.18408,1.140303 -7.59889,3.939313 -11.48204,5.763478 -2.05927,1.660658 -3.96839,-1.278591 -6.18644,0.353471 -1.48682,-0.02844 -0.61135,1.179213 -0.38522,2.047094 0.981,3.485965 2.73655,6.663357 4.56003,9.763988 1.39095,2.279447 1.05817,5.390188 3.05806,7.293782 2.71343,0.680923 4.88146,-2.542457 7.69248,-2.711809 4.66345,-1.803687 8.87912,-4.510902 13.07322,-7.182814 9.11213,-5.06769 18.80276,-9.095451 27.56795,-14.781139 4.22848,-2.418285 8.97363,-3.719717 13.27008,-6.013179 11.82623,-5.643298 23.49493,-11.621579 35.40936,-17.0768066 1.63821,-1.0332112 1.10904,1.8649055 2.46545,0.2188468 2.11798,-0.6227678 4.28511,-1.1386832 6.46196,-1.8630513 2.51308,-0.077629 4.30469,-1.2330309 6.59679,-2.0192929 2.47665,0.427876 -1.99334,2.3245004 -3.00223,2.4093716 -2.40316,0.1878378 -4.84617,0.6161987 -6.86211,2.0341665 -2.35297,1.2757989 -5.27191,0.31073 -7.44445,1.7385589 1.01087,0.178059 5.38259,0.09264 2.49435,1.468243 -2.30418,0.814499 -4.70621,1.525955 -7.08749,1.972695 -0.78128,-0.979255 4.59139,-1.507554 1.89785,-2.058544 -2.73219,1.108019 -5.50809,2.309092 -7.93813,3.96044499 0.9244,-0.02875 5.404,-2.38645299 3.46449,-0.238337 -1.238,0.638816 -3.43177,0.72767 -2.43917,2.45377401 -2.15708,1.555528 -5.20349,1.411346 -7.25043,3.184697 -2.38413,0.104195 -4.76997,3.153795 -6.85064,2.00222 2.33381,-1.569652 4.27483,-3.322921 7.29384,-3.480538 1.08832,-0.45825 5.31104,-0.904693 4.59214,-1.919651 -3.36936,-0.866511 -6.29095,1.562038 -9.24112,2.763271 -3.41016,1.705801 -6.85576,3.35038 -10.20489,5.17181 1.2955,0.0091 5.0474,-2.181857 4.73667,-0.462047 -2.50343,1.401458 -5.20223,2.323331 -7.88255,3.374162 -1.71735,1.857189 -4.66587,1.834774 -6.85993,2.990133 -2.06793,0.679016 -4.46615,1.507666 -5.04359,3.412777 -2.30605,0.708579 -5.86633,0.405556 -6.90999,2.847798 -3.0292,1.423918 -6.23126,2.591838 -9.48129,3.420015 -2.44344,1.308184 4.15933,-0.262892 1.09627,1.251423 -1.98947,0.02298 -4.13044,2.350687 -5.60605,1.921111 -2.1839,-0.433686 -4.49588,1.768638 -6.60234,2.651658 -1.24585,0.584461 -4.43574,2.749335 -1.10713,1.740581 1.03897,-1.531317 3.49256,-2.751348 5.81437,-2.944857 1.68122,1.039038 -6.0886,2.024743 -1.90224,2.024148 -0.67354,1.559682 -4.83987,1.419745 -6.5091,3.054542 -2.30999,0.673687 -4.62714,1.252942 -5.8971,3.196916 -2.62806,0.52918 -5.11854,1.753029 -7.86946,2.317687 -2.60606,1.644823 -5.47878,1.077494 -7.27247,-1.438546 -0.98899,-0.918842 -1.95704,-1.864184 -2.90843,-2.819015 z m 2.19762,-2.01358 c -0.45835,-1.663343 -1.38222,-3.129642 -2.31969,-4.557426 -0.19387,1.044203 -0.20714,4.230878 -1.46389,1.93159 -0.67233,-1.305681 -0.54665,-5.15777 -2.31384,-2.269143 0.27595,2.288726 3.35233,3.894279 4.96037,5.709748 1.70795,1.605953 1.60199,0.989808 1.13705,-0.814769 z m -8.27806,-8.702179 c -0.30403,-1.364449 -1.82802,-3.786265 -1.09786,-0.954184 -0.24088,1.294989 2.68057,5.844285 1.68434,2.555507 -0.18457,-0.537697 -0.38178,-1.07099 -0.58648,-1.601323 z m 2.36528,1.624741 c -0.0462,-1.187046 -0.89914,-1.862823 -0.63494,-0.394009 -1.36735,0.888772 0.75006,3.034553 0.63494,0.394009 z m -4.56875,-2.593504 c -1.30838,-1.618431 0.51058,2.582759 0.1589,0.311755 l -0.1589,-0.311698 z m 4.37601,-0.108646 c -3.6121,-2.058008 0.85787,2.001998 0,0 z m -5.91515,-2.232939 c -0.21219,-1.328032 -1.87254,-5.015284 -2.43063,-4.399157 0.62928,0.878691 1.62866,2.422209 -0.23199,1.885634 -0.0942,0.675602 3.73687,6.179746 2.66262,2.513523 z m 41.38805,-2.306157 c 2.13549,-1.271845 4.978,-2.316551 6.6131,-3.888882 -4.4074,1.348935 -8.62364,3.347437 -12.72454,5.444647 -1.04154,0.872648 -1.12907,2.417277 0.65764,1.154086 1.85483,-0.826468 3.65182,-1.775741 5.4538,-2.709851 z m -35.56348,2.018588 c -1.23201,-1.309413 -3.80108,-1.300839 -1.85725,0.519375 0.49838,-0.04378 1.75763,0.08473 1.85725,-0.519375 z m 41.49162,-2.488265 c 6.17542,-2.411756 12.62729,-4.1991 18.46229,-7.406907 -6.29216,1.844879 -12.49334,4.085116 -18.64227,6.38551 -1.29165,0.742258 -2.95971,0.747811 -3.39103,1.24848 -0.92586,-0.314989 0.116,1.115361 -1.30816,0.332403 0.36809,1.17897 -1.33213,-0.217813 -1.46691,1.239261 -0.82354,0.402414 -2.59737,1.559745 -0.57566,0.724527 2.31699,-0.813533 4.62129,-1.666084 6.92174,-2.523274 z m -46.5433,0.08088 c -0.97263,-1.90248 -0.74067,2.14618 0,0 z m 2.11611,-0.905693 c -0.7064,-1.275822 -2.1276,-3.492844 -3.22795,-3.64432 1.03415,1.252596 2.14651,3.726218 3.27022,4.223634 l -0.0423,-0.579412 z m 8.876,-0.229678 c 2.90731,-0.259703 5.72236,-0.770225 8.14821,-2.546415 2.85084,-2.053748 6.22102,-3.091971 9.58727,-3.963273 7.40821,-1.926589 14.94549,-3.403816 22.16705,-5.997261 6.17224,-2.129385 12.11457,-4.899027 18.43143,-6.61433401 4.63978,-1.47582399 8.79971,-4.16111799 13.50926,-5.47513299 1.38687,-0.5382174 5.75642,-1.2321371 5.21696,-2.086624 -9.17558,1.0942432 -18.51884,0.5419278 -27.61092,2.376995 -9.244,1.297945 -18.63232,0.681515 -27.87279,2.03315 -6.41317,1.086383 -12.89138,1.709601 -19.39189,1.946673 -8.38051,0.522004 -16.80158,0.82763199 -25.12628,1.94309399 -0.52125,1.85286501 3.30695,3.46091201 4.48463,5.17048201 1.99805,1.672823 3.01363,4.082174 4.96338,5.829817 2.53001,2.55671 4.80112,5.417454 7.62571,7.654789 1.82465,1.083056 3.96586,-0.0425 5.86798,-0.27196 z m 48.78669,-5.231714 c 7.31518,-2.544307 14.65674,-5.085214 21.60079,-8.544188 4.70173,-1.883882 9.31639,-3.99928001 13.65078,-6.632793 2.48856,-0.377061 3.60238,-2.485551 6.03184,-3.703941 1.38487,-0.9946065 4.41463,-2.4795141 4.74865,-3.2650195 -2.49271,0.5415528 -5.03766,0.8003364 -7.3243,2.1432853 -1.34111,0.449567 -4.22915,2.4055802 -1.25847,1.0384292 1.52821,-0.6101569 5.14743,-2.5848472 5.61758,-2.1087679 -2.33797,1.4731284 -4.70284,3.0377869 -7.26825,4.1786399 -6.51479,3.03942099 -13.11726,5.893609 -19.68376,8.820052 -7.31516,3.057093 -14.91159,5.398588 -22.1039,8.759792 -3.29278,1.566228 -6.80479,2.835444 -9.81436,4.893237 2.666,-0.838552 5.3875,-2.033367 8.10929,-2.907772 2.56044,-0.902098 5.12681,-1.790959 7.69411,-2.670954 z m 3.30647,5.232945 c 1.12112,-2.428505 4.25374,-2.523008 6.41477,-3.577818 2.00514,-0.410039 1.19409,-1.488077 -0.3676,-0.790455 -3.29967,1.049103 -6.18159,3.027629 -8.98717,5.003908 0.98073,-0.206831 1.97763,-0.351544 2.94,-0.635635 z m -68.71219,-2.148359 c -0.3377,-1.597143 -2.46326,-2.576618 -1.31137,-0.173484 0.35229,1.165186 2.99573,3.581675 1.68485,0.927666 l -0.17577,-0.368497 z m 47.92821,0.876223 c 9.21396,-3.568486 18.41938,-7.170224 27.5328,-10.984713 1.3676,-0.721759 2.72026,0.251039 2.49912,-1.160188 2.42546,-0.242121 3.4258,-1.447748 5.86747,-2.400799 1.44297,-0.323799 3.07104,-1.82269901 0.68194,-0.660279 -2.38728,0.220444 2.99782,-1.73810001 3.95504,-2.02009101 1.5004,-0.633237 2.51624,0.01437 3.12762,-1.28200299 1.86715,0.31578199 2.67042,-1.523941 4.80949,-2.079166 -1.69948,0.189904 -4.32185,1.494829 -6.34832,2.182419 -3.17937,1.34699799 -6.56543,2.347526 -9.53429,4.106036 1.8469,0.4233 -2.7843,1.803219 -0.86687,0.317379 -0.53446,-0.743239 -2.32543,-0.21919 -0.67407,-0.04308 -0.71891,0.499333 -1.07032,0.794224 -0.05,0.86174 -1.46789,1.147764 -2.58227,-0.123019 -3.52655,1.346093 -6.22262,3.050295 -12.87781,5.046067 -19.33684,7.501511 -1.36347,0.537581 -2.37469,0.605887 -2.9157,0.960658 -1.64479,0.692308 -4.14519,2.614956 -6.3311,3.383038 -1.34397,0.565136 -3.21638,1.709461 -0.69083,0.661923 0.60149,-0.227048 1.20236,-0.458385 1.80105,-0.690482 z M 227.95866,2.81056 c 2.27393,-1.245549 1.31836,0.744991 -0.41999,0.339324 z m -32.84269,13.050475 c 1.43385,-0.474223 4.8934,-2.368653 1.46667,-1.024348 -1.53204,0.734238 -5.0109,1.778539 -5.2421,2.603868 1.2595,-0.52395 2.51734,-1.052771 3.77543,-1.57952 z m -47.47579,-1.548048 c -2.23153,-2.457753 1.29742,3.215536 0,0 z m 2.02662,-0.507945 c -0.19844,-1.553554 -3.39348,-3.117686 -1.71758,-0.634857 1.00534,0.04734 2.97095,3.204158 1.71758,0.634857 z m -4.26009,-2.696151 c 0.14053,-1.561398 -1.3122,-3.267307 -1.27315,-0.62314 -0.32896,1.649714 1.77697,4.014528 1.27315,0.62314 z m 83.36739,0.775573 c 3.29499,-1.502305 -3.70491,-0.391557 -2.00632,0.538397 0.68983,-0.08788 1.35336,-0.308142 2.00632,-0.538397 z M 142.27828,9.740589 c -0.1872,-1.230561 -1.03028,-2.403012 -0.58131,-0.465405 0.0421,1.147129 1.34151,3.940624 0.77255,1.225489 l -0.0881,-0.371218 z m -2.44302,-0.721008 c -1.66615,-0.654438 1.16238,1.914253 0,0 z m 2.63356,-2.960319 c -1.7277,-1.87622 -3.25156,-4.175423 -5.56241,-5.34227501 -2.27147,-0.949437 -1.58822,3.52715101 -0.7694,2.16168701 1.10466,-2.50870401 3.06575,0.505433 3.24643,1.81962 1.97545,-0.531316 3.07474,3.835304 4.04563,2.954165 -0.20572,-0.591262 -0.56814,-1.111909 -0.96025,-1.593197 z m -4.10366,1.292574 c -0.69672,-0.414951 0.25464,1.980874 0,0 z M 137.23825,5.96057 c -0.42065,-2.565298 -2.30226,0.580841 -0.11732,0.982685 0.17041,-0.303016 0.0902,-0.656631 0.11732,-0.982685 z M 94.187994,4.903604 c 0.91342,-0.373329 2.94622,-0.909528 0.69473,-0.574698 -1.94812,0.354636 -4.580101,0.266807 -6.159747,0.863252 1.787012,0.391707 3.745457,0.378859 5.465017,-0.288554 z M 214.85344,4.240242 c 10.16982,-2.78527 20.01421,-6.709485 29.54053,-11.2089999 1.10622,-0.409396 3.83157,-2.0811378 1.06278,-1.3116181 -1.72578,0.4280903 -4.69401,-0.6622402 -4.42667,1.9094583 -2.68059,1.4149107 -5.8551,1.5537417 -8.61577,2.8343167 -3.07044,1.020281 -5.80257,2.89195599 -8.88429,3.82714499 -2.44426,0.75327701 -4.88975,1.63657701 -7.35218,2.39654701 -2.01587,0.808276 -4.46886,1.485773 -6.12638,2.628422 1.6165,-0.27836 3.2063,-0.698701 4.80198,-1.075271 z M 99.123034,4.212472 c -2.25836,-0.271381 -0.71381,0.625172 0,0 z m 8.505076,-0.658228 c -0.81644,-0.543702 -4.62345,0.09041 -4.55598,0.742914 1.51733,-0.02403 3.15559,-0.118646 4.55598,-0.742914 z m 3.87628,0.26264 c -1.56888,-0.504033 -0.9039,0.800678 0,0 z M 223.75864,3.650707 c 1.1352,-1.30674 -2.77847,1.139629 -0.27782,0.15806 l 0.27778,-0.15806 z M 110.14812,3.230714 c -0.45304,-1.409183 -2.65444,0.877974 -0.36111,0.296623 z m 6.51005,-0.510004 c -1.59685,-0.433747 -4.10701,-0.502098 -5.32794,0.02952 1.70727,0.333523 3.67965,0.527834 5.32794,-0.02952 z m 16.80006,-0.330008 c -0.65388,-1.88699401 -1.54679,0.07423 -0.10889,0.840012 l 0.077,-0.246753 z M 97.675904,1.906329 c 1.23166,-0.05227 3.640476,-0.97021401 0.97911,-0.679163 -2.55345,0.271695 -5.15168,0.493338 -7.617031,1.230042 1.589221,0.567321 4.598241,-0.353722 6.637921,-0.550879 z M 122.53817,2.13303 c -1.25335,-0.683793 -4.2811,0.47111 -1.3099,0.347407 0.40876,-0.09098 1.00787,0.0084 1.3099,-0.347407 z M 84.828235,0.95157499 c 1.917013,-8.84e-4 2.150873,-1.423218 0.107209,-1.099917 -1.323494,0.13644 -3.274675,-0.686705 -4.240948,-0.556072 0.307276,1.627637 0.763573,3.85879001 2.767681,2.01431301 0.446345,-0.15047 0.902093,-0.275505 1.366058,-0.35832401 z M 104.28628,1.941274 c 3.53665,-1.55958401 -2.16917,-1.47922701 -2.76,-0.826742 1.21615,1.126758 -3.915216,0.958312 -0.61894,1.204008 1.11005,-0.02214 2.36415,0.160895 3.37894,-0.377266 z m 20.98192,0.02952 c -1.87224,-1.45617601 -0.58955,1.529684 0,0 z m 5.25003,-0.06473 c -0.85539,-0.898256 -5.73354,-0.0042 -2.32338,0.298813 0.74743,-0.02632 1.69231,0.16962 2.32338,-0.298813 z M 91.247992,1.570094 C 94.025144,1.010835 87.72793,1.202032 86.679412,1.255037 85.207961,1.085094 83.768829,2.006508 86.048407,1.923891 c 1.738359,0.03243 3.481266,-0.09625 5.199585,-0.353797 z M 234.2587,1.13078 c 1.13518,-1.30674001 -2.77846,1.139655 -0.27776,0.158059 l 0.27778,-0.158059 z m 2.09998,-0.84001401 c 1.13192,-1.44696199 -3.12043,1.50898001 0,0 z m -136.828576,-0.80085 c -0.8571,-0.55844799 -6.69317,0.187433 -6.37792,0.659578 2.1308,-0.07751 4.2978,-0.164559 6.37792,-0.659578 z M 87.252235,-2.544249 c 0.249947,-1.683839 -0.741796,-5.7833801 -1.696918,-2.261133 -1.956574,0.311986 -2.873818,5.33490299 0.247026,4.25610999 1.204742,0.255621 1.756025,-0.140631 1.452184,-1.38991799 -8.8e-4,-0.201542 -1.15e-4,-0.404898 -0.0021,-0.605059 z m -4.549813,-0.524736 c 0.249417,-1.751688 -1.011403,-2.8559623 -1.775046,-0.707143 -1.729207,1.727354 2.861322,4.23562999 1.800044,1.128421 l -0.02496,-0.421278 z m 37.315748,1.072642 c 1.74069,-0.28952 6.25697,-0.427262 6.42676,-0.97772 -5.98319,0.101627 -11.99571,0.196401 -17.941,0.918209 -0.77108,0.04288 -3.75235,1.36207099 -1.47478,1.04834 4.34148,-0.03198 8.67069,-0.604439 12.98902,-0.988829 z m 11.02504,-0.511046 c -2.25838,-0.271379 -0.71378,0.625177 0,0 z m 107.4155,-0.771855 c 2.33164,-1.784897 -3.722,1.503606 -0.44085,0.233062 z m -94.70749,-1.24686 c 6.21133,-0.851757 12.47513,-1.5484288 18.57842,-3.0006094 -2.277,-0.1986871 -5.4473,0.4818892 -8.04657,0.6687962 -7.3129,0.9098797 -14.66987,1.6096052 -21.92676,2.8767582 -1.75215,1.665473 2.4984,0.381356 3.47217,0.433296 2.64109,-0.324636 5.28196,-0.651078 7.92274,-0.978241 z m 100.90364,-1.249167 c 2.23246,-1.1938795 4.81515,-1.038695 7.03726,-2.1876212 0.37273,-0.2738768 2.68788,-1.0608121 1.63466,-0.958058 -4.26765,-0.040974 -8.03493,2.2166095 -11.75337,4.0316462 -3.61412,1.814144 2.73236,-0.744467 3.08145,-0.885967 z M 117.91817,-5.9880807 c 1.55919,-0.5326762 -2.37348,-0.1698216 -2.93717,-0.1906929 -3.73883,0.2758495 -7.56254,0.2637569 -11.24203,0.8371246 3.21614,1.091541 6.71817,0.319688 10.02396,0.05344 1.39287,-0.182756 2.7814,-0.405204 4.15524,-0.6998717 z m 17.32508,-1.9794266 c -2.25829,-0.2713985 -0.71394,0.6251807 0,0 z m -33.70518,-0.9818393 c -1.13084,-1.6924854 -0.98987,1.6351487 0,0 z m 1.98625,-0.253761 c -1.54655,-0.4725024 -0.65403,0.7608688 0,0 z m 16.65671,-1.2105474 c 3.24903,-0.140833 6.56235,0.09844 9.75888,-0.553962 2.38005,-1.303798 5.26866,-1.313464 7.90152,-1.851168 1.02495,-0.121824 4.67899,-0.74541 1.80209,-0.572374 -8.4179,0.32322 -16.73003,1.767734 -25.09356,2.631689 -2.85875,-0.02359 3.51162,-0.581926 0.0105,-0.541668 -3.51227,0.333195 -7.06116,0.608378 -10.50231,1.4010337 3.37329,0.080083 6.78609,-0.4047297 10.18207,-0.3829317 1.97989,-0.05696 3.96082,-0.101459 5.94087,-0.13063 z m 13.16346,-0.889446 c -1.54651,-0.472474 -0.65411,0.760801 0,0 z m 7.46378,-0.182312 c 0.60738,-0.410713 -4.79536,0.02585 -4.00624,0.404534 1.34208,0.0069 2.69518,-0.112552 4.00624,-0.404534 z m 49.24521,0.146581 c -1.4014,-0.338049 -2.23562,0.406103 -0.2222,0.176827 -0.0121,0.120994 0.72419,-0.153081 0.2222,-0.176827 z M 80.117947,-12.615665 c -0.506773,-1.378819 -2.111946,2.241361 -0.185064,0.520567 l 0.135347,-0.254326 0.04971,-0.266218 z m 55.545303,0.868187 c -2.25835,-0.27138 -0.71382,0.625172 0,0 z m 70.66531,-0.769197 c 1.38538,-0.158385 4.64176,-0.229585 4.76919,-0.57933 -6.43085,0.232448 -12.86828,0.659777 -19.25925,1.407733 2.18497,0.135105 4.99722,-0.211616 7.42784,-0.325235 2.3546,-0.160104 4.70855,-0.329946 7.06222,-0.503168 z m -84.74415,0.37361 c -1.54651,-0.472535 -0.65403,0.760772 0,0 z m 17.22886,-0.03573 c -1.40139,-0.338087 -2.23567,0.406113 -0.22223,0.176825 -0.0118,0.120954 0.72417,-0.153039 0.22223,-0.176825 z m 5.03125,0.03573 c -1.54651,-0.472531 -0.65403,0.760772 0,0 z m -19.52133,-0.4444 c -2.25834,-0.27138 -0.71384,0.625172 0,0 z m 17.43007,-0.01235 c -1.40138,-0.338102 -2.23561,0.406139 -0.2222,0.176785 -0.0117,0.120995 0.72419,-0.1532 0.2222,-0.176785 z M 127.68323,-13.0085 c -2.25828,-0.271403 -0.71397,0.625188 0,0 z m 16.16129,0.02481 c -1.54653,-0.472498 -0.65402,0.760879 0,0 z m 55.974,-0.939917 c 2.68128,-0.354518 5.50703,-0.191583 8.06866,-1.096632 0.2619,-1.413993 2.96391,-2.434953 0.15527,-2.189649 -11.88373,0.08699 -23.74054,1.038088 -35.58413,1.934909 -1.36619,-0.104049 -3.19114,0.896244 -0.69408,0.833576 5.42006,0.09195 10.84631,0.441674 16.22001,1.162966 2.46838,0.736118 5.17652,-0.278082 7.74791,-0.28274 1.36188,-0.123463 2.72405,-0.24417 4.08639,-0.36243 z m -68.1533,0.482647 c -2.56062,-0.303476 -0.16893,0.650589 0,-6.06e-4 z m 88.2084,-0.0174 c -1.27018,-0.221846 -6.46758,0.0942 -2.75576,0.154072 0.41435,-0.0235 3.99156,0.07592 2.75576,-0.154072 z M 81.91978,-14.410207 c -0.111056,-2.158133 -0.947669,2.556308 2.6e-5,0 z m 24.76332,0.544184 c -1.5606,-0.315304 -2.88297,0.315944 -0.58463,0.178343 0.12207,0.0071 1.28241,-0.0458 0.58463,-0.178343 z m 45.15513,0.0076 c -1.49204,-0.337843 -2.72346,0.380663 -0.35521,0.172008 -0.12784,0.06376 0.88458,-0.07628 0.35521,-0.172008 z m 78.52009,-0.02233 c -1.35079,-0.06156 -4.44273,-0.154011 -4.80935,0.1098 0.67997,0.03261 6.34397,0.134557 4.80935,-0.1098 z m -84.75505,-0.79028 c -1.65924,-0.336561 -4.45161,-0.03101 -5.76314,0.494037 1.92065,-0.05339 3.87133,-0.155286 5.76314,-0.494037 z m 9.59007,0.391545 c -1.40136,-0.338102 -2.2357,0.406143 -0.22222,0.176806 -0.0118,0.120973 0.7242,-0.153182 0.22222,-0.176806 z m -25.72512,-1.313575 c 2.45959,-0.391798 5.21478,-0.201886 7.45749,-1.233515 1.5704,-1.541433 4.68478,-0.799532 6.86479,-1.251809 1.38594,-0.09508 2.77187,-0.190166 4.15782,-0.28525 -5.57158,-0.383955 -11.17636,-0.898261 -16.73479,-0.02473 -6.84194,0.806227 -13.69618,1.576786 -20.50177,2.638164 -2.05013,-0.872444 -4.50648,0.235456 -6.69036,0.395053 -1.73779,0.297012 -3.47559,0.594023 -5.213376,0.891035 10.226036,-0.186866 20.463736,-0.243676 30.660196,-1.12895 z m 29.98784,0.0831 c 1.62467,-0.329832 5.6303,-0.285322 5.76155,-1.150507 -5.25531,-0.890295 -10.43162,0.864513 -15.63339,1.278664 -2.47362,-0.470342 1.22054,1.740244 2.18714,0.740802 2.55846,-0.313404 5.12346,-0.591337 7.6847,-0.868959 z m -73.878094,-0.825158 c -0.09894,-3.254663 -2.444704,1.034589 -0.137492,1.406285 0.191197,-0.44703 0.109515,-0.938405 0.137492,-1.406285 z m 75.907404,1.213947 c -2.56059,-0.303493 -0.16901,0.650602 0,-6.06e-4 z m -77.587406,-1.275312 c -0.506771,-1.378796 -2.111949,2.241385 -0.185065,0.520568 l 0.135348,-0.254327 0.04971,-0.266219 z m 64.050356,0.321945 c 1.14796,-0.240999 3.5736,-0.322747 3.99417,-0.738815 -6.39658,-0.03477 -12.75153,0.883976 -19.11426,1.456227 5.05137,0.07263 10.10866,-0.01619 15.12009,-0.717412 z m 16.89707,0.533346 c -2.5606,-0.303488 -0.16898,0.650599 0,-6.06e-4 z m -82.713915,-1.65934 c -0.686164,-0.991919 -0.433771,2.856919 0.03198,0.334853 l -0.03196,-0.334853 z m 85.653195,1.27665 c -1.54647,-0.472535 -0.65416,0.760764 0,0 z m 5.88077,-0.03721 c -2.56059,-0.303487 -0.16904,0.650595 0,-6.05e-4 z m -2.10078,-0.382688 c -1.56897,-0.504078 -0.90372,0.800605 0,0 z m 13.60456,-0.357119 c 10.68929,-0.835138 21.42562,-0.946611 32.10514,-1.883211 2.84812,-0.589143 -2.22799,-0.478444 -3.00128,-0.43589 -12.09624,0.415535 -24.20252,1.050642 -36.2321,2.416562 -0.8741,0.07297 -3.5214,0.57552 -0.97436,0.416681 2.7036,-0.1232 5.40298,-0.327047 8.1026,-0.514142 z m -38.48092,-0.436238 c 5.0307,-0.415224 10.07154,-0.727577 15.12008,-0.780338 -7.29087,-0.696167 -14.64434,-0.144111 -21.88562,0.815396 -1.60392,0.134598 -2.43313,0.745106 -0.2519,0.478023 2.34204,-0.127228 4.67978,-0.324598 7.01744,-0.513081 z m 30.66015,-0.431949 c 10.06847,-1.149258 20.15449,-2.134232 30.24015,-3.118192 -13.31617,0.192676 -26.61229,1.228007 -39.83079,2.822105 -1.25092,0.04152 -3.72694,0.575298 -1.17932,1.092903 2.49821,0.501452 5.05813,-0.335814 7.57576,-0.436629 1.06497,-0.118019 2.12978,-0.238289 3.1942,-0.360187 z m -2.42375,0.80529 c -1.54656,-0.472503 -0.65407,0.760861 0,0 z m -58.58155,-0.4444 c -2.25827,-0.271402 -0.71395,0.62518 0,0 z m 39.27018,-0.01235 c -1.40139,-0.338103 -2.23566,0.406154 -0.22221,0.176806 -0.0118,0.120994 0.7242,-0.153203 0.22221,-0.176806 z m -35.70017,-0.420048 c -1.40136,-0.338104 -2.23565,0.406147 -0.22222,0.176806 -0.0117,0.120974 0.72419,-0.153181 0.22222,-0.176806 z m 3.36005,-0.420017 c -1.40138,-0.338087 -2.2357,0.406112 -0.22225,0.176826 -0.0117,0.120955 0.7242,-0.15304 0.22225,-0.176826 z m -40.063362,-0.760446 c -0.3315,-2.276369 -0.931406,2.031537 0,0 z m 43.428252,0.341418 c -1.49205,-0.337821 -2.72344,0.38064 -0.3552,0.172008 -0.12784,0.06376 0.88456,-0.07631 0.3552,-0.172008 z m 64.46541,0.0099 c -2.25825,-0.271451 -0.71392,0.625247 0,0 z m 30.45012,-0.01235 c -1.4014,-0.338086 -2.23566,0.406121 -0.22223,0.176826 -0.0121,0.120974 0.72422,-0.153059 0.22223,-0.176826 z m -107.52848,-0.421573 c -2.56062,-0.303475 -0.16893,0.65059 0,-6.06e-4 z m 54.50325,-0.325545 c 0.98,-0.188323 1.96001,-0.376659 2.94001,-0.564993 -5.04705,0.247953 -10.09146,0.562898 -15.12006,1.067037 4.06458,0.01619 8.15362,0.174781 12.18005,-0.502044 z m 2.19701,0.325569 c -2.56058,-0.303494 -0.16895,0.650597 0,-6.05e-4 z m 26.26387,-0.0049 c -1.02272,-0.296034 -3.59558,0.207551 -1.16073,0.176441 0.0552,0.003 1.93241,0.0035 1.16073,-0.176441 z m 35.69442,-0.0174 c -2.1757,-0.06195 -6.47534,-0.143181 -7.34152,0.100018 2.71185,0.03716 5.43242,0.10561 8.1401,-0.04503 l -0.24398,-0.02654 z m -121.16566,-0.396127 c -1.49206,-0.337839 -2.72346,0.38065 -0.35521,0.172008 -0.12783,0.06376 0.88457,-0.07631 0.35521,-0.172008 z m 5.86636,0.03474 c -1.54654,-0.472505 -0.65402,0.760875 0,0 z m 7.46379,-0.146846 c 0.57774,-0.120164 3.00642,-0.380315 1.32782,-0.329858 -2,-0.04367 -4.02426,0.03483 -5.94784,0.630078 1.54719,0.05524 3.09385,-0.05883 4.62002,-0.30022 z m 53.55026,-0.240839 c 1.33,-0.189881 2.66,-0.379754 3.99,-0.569633 -3.64917,0.243843 -7.36286,0.176643 -10.92004,1.125183 2.32381,0.08043 4.63334,-0.24488 6.93004,-0.55555 z m 49.98021,-0.442936 c 1.42655,-0.08275 3.4489,-0.539687 0.91574,-0.462566 -9.47353,0.147635 -18.98518,0.09 -28.40969,1.17799 0.12793,0.34828 3.77448,0.07346 5.31732,0.11889 7.39436,-0.127959 14.80597,-0.179862 22.17663,-0.83431 z m -113.50063,0.375906 c -1.49204,-0.33784 -2.72342,0.380665 -0.35518,0.172008 -0.12782,0.06376 0.88457,-0.07631 0.35518,-0.172008 z m 26.14025,-0.515738 c 1.60999,-0.24723 3.22001,-0.494462 4.83001,-0.741693 -5.52914,0.201118 -11.08955,0.04019 -16.58739,0.70938 -2.2059,1.045999 2.65567,0.796113 3.48966,0.777624 2.76622,-0.09958 5.52982,-0.334955 8.26772,-0.745311 z m 106.89047,0.364411 c -5.4753,-0.280826 -11.01122,-0.576644 -16.46641,0.07118 5.52045,0.443805 11.11369,0.186684 16.66129,0.18138 1.76882,0.03875 0.97,-0.243908 -0.19495,-0.252849 z m 43.81235,-0.407545 c 0.72004,-0.654512 4.53857,-1.927357 1.59268,-1.273011 -0.91067,0.240618 -4.60106,1.826463 -3.39585,2.017082 0.61215,-0.162574 1.36129,-0.241552 1.80317,-0.744071 z m -173.23979,-0.452562 c -4.02585,-0.470497 -8.08145,0.151258 -12.11321,0.339474 4.10761,-0.0532 8.23744,0.199135 12.32686,-0.167047 l 0.0156,-0.07882 z m 130.89747,-1.090875 c 3.24243,-0.266685 6.51173,-0.393133 9.72719,-0.876678 -9.98137,0.03595 -19.97116,0.702713 -29.94618,1.185857 -1.17036,0.06391 -2.34076,0.127796 -3.51114,0.191705 5.70769,0.207467 11.42851,0.614038 17.12333,-0.0395 2.20215,-0.155185 4.40463,-0.308992 6.6068,-0.461384 z m -115.81554,0.432721 c -2.25841,-0.271409 -0.71374,0.625249 0,0 z m 67.62612,-0.0174 c -1.02271,-0.296033 -3.59566,0.207544 -1.1608,0.176439 0.0552,0.003 1.93241,0.0034 1.1608,-0.176439 z m 19.83927,-0.123283 c 3.3974,-0.383175 -3.28592,-0.106418 -4.44564,-0.07868 -1.86025,0.134295 -4.93712,0.02449 -6.0197,0.417953 3.48714,0.132188 6.9874,-0.08643 10.46534,-0.339269 z M 147.398,-22.571383 c 4.76966,-0.392982 9.52714,-1.121054 14.31354,-1.211809 2.09159,1.192314 4.99834,-0.319375 7.39747,-0.259744 22.48463,-2.811864 45.08334,-4.598193 67.70329,-5.869288 1.37332,-0.03242 4.95613,-0.40051 1.56584,-0.476839 -14.88735,-0.155813 -29.76943,0.544849 -44.61516,1.612643 -8.88168,0.616771 -17.80981,0.833572 -26.63526,2.061759 -1.32455,0.294265 -2.10034,1.215628 -2.61953,-0.248776 -4.7784,0.13804 -9.46773,1.401433 -14.06893,2.624823 -1.00531,-0.0077 -2.76608,1.981285 -2.67603,0.346869 -3.92905,0.114618 -7.79034,1.172234 -11.62044,2.012352 -1.18752,0.729755 2.76735,0.09186 3.52423,0.128565 2.57949,-0.212067 5.15569,-0.465098 7.73098,-0.720562 z m 7.90033,0.289129 c 1.21269,-0.239766 4.00004,-0.334391 4.41002,-0.840853 -4.75035,0.198101 -9.53533,0.627685 -14.21053,1.429703 3.24026,0.271064 6.56154,-0.283623 9.80051,-0.58885 z m 122.01057,-0.08034 c 1.13462,-0.758161 -3.16805,-0.288925 -4.06082,-0.382119 -1.96785,0.173911 -6.77236,0.07314 -7.16296,0.715349 3.71212,0.372294 7.54495,0.292224 11.22378,-0.33323 z m -46.73274,0.08458 c -1.32112,-0.268733 -4.15177,0.217288 -1.14751,0.174761 0.0733,0.01538 2.3046,-0.02403 1.14751,-0.174761 z m 8.82755,-0.412032 c -1.5606,-0.315303 -2.88298,0.315949 -0.58463,0.178345 0.12208,0.0071 1.2824,-0.0458 0.58463,-0.178345 z m 10.08584,-0.419249 c -1.02271,-0.296032 -3.59566,0.207545 -1.16079,0.176441 0.0552,0.003 1.93241,0.0035 1.16079,-0.176441 z m -135.88439,-0.415361 c -2.56064,-0.303484 -0.16907,0.650611 0,-6.06e-4 z m 146.81134,-0.01478 c -1.108,-0.221086 -6.20339,0.08537 -2.72605,0.153931 0.50462,-0.02553 3.71448,0.08572 2.72605,-0.153931 z m 41.25254,-0.1131 c -0.40631,-1.295268 -3.13315,1.175825 -0.45366,0.294403 l 0.28025,-0.131946 z M 81.94699,-24.957551 c 9.733342,-2.740122 19.92143,-3.025812 29.91984,-4.131203 7.36778,-0.654224 14.59025,-2.440313 21.99636,-2.742354 9.79323,-0.587259 19.54902,-1.62089 29.32212,-2.449156 7.29925,-0.395302 14.56388,-1.198102 21.8079,-2.154625 7.8267,-0.862603 15.6904,-1.358718 23.55594,-1.628969 5.39933,-0.623611 10.72094,-1.818054 16.14141,-2.313478 8.37281,-1.034488 16.68079,-2.666168 25.13436,-2.944202 6.90708,-0.202394 13.7591,-1.101502 20.57608,-2.170899 5.22125,-0.742492 10.52665,-0.07323 15.74373,-0.773531 2.53264,-1.243418 -2.19339,-3.985272 -2.83022,-5.694142 -10.26212,-13.267895 -19.63544,-27.2376 -30.73483,-39.846824 -5.61601,-6.724906 -11.01628,-13.631846 -16.93062,-20.104146 -5.37526,-5.95264 -10.78812,-11.87257 -15.91122,-18.04563 -1.62132,-2.02024 -3.86936,-3.65314 -4.9349,-6.04474 -2.82768,-0.44539 -5.73858,0.27253 -8.59847,0.2839 -6.93977,0.37816 -13.89609,0.83654 -20.84417,0.50302 -9.28254,0.10452 -18.49151,1.43704 -27.75376,1.86131 -7.70796,0.19102 -15.44124,-0.50449 -23.12424,0.38896 -10.93734,0.58193 -21.89467,0.84293 -32.80762,1.8331 -9.458106,0.63385 -18.943367,0.0352 -28.404612,0.45209 -3.676184,-0.56899 -3.905873,3.11937 -2.383631,5.51444 0.763936,6.04623 0.259351,12.28576 1.986138,18.19071 0.464262,2.25522 2.761212,3.8831 1.461012,6.52832 -1.137614,5.846147 -1.204067,11.853121 -1.255698,17.791064 1.336186,2.823843 1.084993,5.870364 0.664334,8.993922 -0.671499,8.541324 0.193061,17.079514 0.882652,25.588825 0.689591,8.145223 1.119216,16.308439 1.384212,24.477674 2.01773,-0.270635 4.009097,-0.702126 5.937903,-1.363436 z m 49.72624,-10.794357 c -3.16784,-1.257522 2.98671,-1.524024 4.20258,-1.938375 -0.75946,-2.587035 -4.09331,-2.728975 -5.5135,-4.867535 -0.78684,-1.059415 -3.22999,-3.47568 -1.76078,-0.623959 0.65938,2.319158 1.22788,4.844756 0.89354,7.241838 -1.86953,-1.477837 -1.43761,-5.00228 -2.53865,-7.222618 -3.53776,-11.522626 -5.83109,-23.375312 -8.43383,-35.13164 -2.08893,-9.6195 -2.9305,-19.459081 -4.89814,-29.096023 -0.66331,-2.39089 -2.78657,-3.95958 -3.81025,-6.19246 -1.3122,-1.98441 -2.24216,-4.72586 -0.56242,-6.62758 -2.17447,-3.43568 3.4458,-3.2873 5.43474,-4.15924 2.80855,-0.42019 5.73046,-0.92255 8.54528,-0.38417 1.04028,2.60814 1.57022,5.50293 2.8633,8.07059 3.39132,8.21422 6.73179,16.55633 8.41255,25.315169 0.68673,3.789633 0.96541,7.70456 2.2406,11.354627 3.31596,1.23814 -0.99356,4.960867 1.6357,6.609488 3.38503,7.29892 5.78274,15.018571 8.09789,22.711933 1.16496,3.309515 1.3148,6.859461 2.43189,10.169188 2.32533,3.027629 -1.75703,3.672952 -4.03476,3.900713 -3.94061,0.61864 -7.95854,0.220012 -11.8963,0.878237 -0.43601,0.02375 -0.87395,0.03583 -1.30944,-0.0081 z m 11.02506,-1.935894 c -1.77696,-2.156375 -3.97597,-4.064516 -6.35023,-5.543111 -1.31946,0.59935 1.58305,3.067272 1.86505,4.355174 0.74516,1.855611 2.93979,1.398088 4.48518,1.187937 z m 4.3501,-1.100224 c 0.0572,-2.44719 0.15634,-6.042916 -2.5326,-7.140041 -1.22018,-0.952119 -2.35529,-2.006147 -3.52724,-3.015831 0.63671,1.612492 1.61904,3.151778 1.81224,4.88865 -2.49201,1.099748 -2.19379,-5.702488 -4.03558,-4.263048 0.0222,2.524544 2.47146,4.196915 3.5226,6.366743 1.50678,1.662224 1.77533,5.466581 4.76058,3.163527 z m -12.18696,-2.924702 c -0.26649,-1.219852 -2.30674,-1.769706 -0.84624,-0.131521 0.71899,1.061084 2.09794,1.921199 0.84624,0.131521 z m 5.50635,-1.155016 c -0.52513,-0.867072 -2.66912,-4.610292 -2.59845,-1.902341 0.0891,0.710587 4.54227,5.024107 2.59845,1.902341 z m -8.05229,-3.990002 c 1.17982,-2.071091 -4.30137,-5.488403 -2.78355,-2.071464 0.56926,0.736385 2.51688,5.58672 2.78355,2.071464 z m -2.06156,0.623553 c -1.78658,-2.085923 -2.90865,-4.645217 -4.57455,-6.818591 0.11858,2.594531 1.58883,4.824152 3.57974,6.409939 -0.0595,0.245382 1.78129,1.215475 0.99481,0.408652 z m 13.04899,-3.773569 c -0.69586,-1.118735 -2.57836,-5.259459 -2.79588,-1.72691 0.80807,1.414288 2.75439,3.014682 3.76427,3.564601 -0.27747,-0.635208 -0.62614,-1.236083 -0.96839,-1.837691 z m 0.44929,-5.170688 c -1.75665,-5.271909 -3.37949,-10.659246 -5.99592,-15.577272 -0.8109,-0.359774 -3.23203,-1.895774 -1.63991,0.05064 2.08383,1.452886 2.24586,3.930157 1.05106,6.033999 -0.55017,0.939192 -0.52743,1.788764 0.34562,2.505334 1.74218,2.235733 2.43839,5.064238 4.11873,7.356434 1.25974,1.950066 2.34913,4.051773 3.88356,5.799554 -0.47471,-2.084502 -1.15469,-4.120057 -1.76314,-6.168696 z m -10.29398,4.834825 c 0.22818,-1.491293 -2.43335,-4.790331 -2.30371,-1.673211 -0.0937,0.641508 2.19593,3.514287 2.30371,1.673211 z m 4.20002,-1.053939 c -1.89103,-1.628888 -0.98008,2.081418 0,0 z m -9.83698,-1.140229 c -1.76632,-1.434745 1.80187,2.48006 -1e-5,9e-6 z m 6.16141,-1.459997 c 0.21347,-2.173351 -1.9955,-1.530173 -0.94436,0.179053 0.34452,1.376512 1.50973,2.120019 0.98174,0.139738 l -0.0375,-0.318795 z m 5.32937,0.346602 c 0.54713,-1.524833 -1.10144,-2.789416 -1.72428,-4.1121 -0.73644,0.850229 -1.60079,3.392866 0.13985,4.347691 0.48061,0.529504 1.22813,0.312051 1.58443,-0.235591 z m -9.138,-0.870322 c 1.32588,-2.920036 -2.78802,-3.472993 -2.85439,-5.821802 -0.94179,-1.204237 -1.91108,-4.209888 0.62317,-2.629542 2.46984,1.292081 0.62489,-2.522527 -0.35884,-3.431414 -0.95532,0.619697 -2.12562,3.087915 -3.71519,2.206603 0.0756,-2.044281 1.16001,-3.967628 1.76003,-5.930883 -1.40599,-1.893326 -3.42026,-3.511869 -4.08106,-5.818425 0.75624,-1.90193 3.6808,2.203276 1.95884,-0.744272 -3.06538,-1.246529 -2.10843,-5.393238 -4.35845,-7.675888 -0.39922,1.490396 0.61518,4.370099 0.88859,6.363047 1.90871,6.862909 2.84211,13.968383 4.76028,20.827781 1.11305,1.456352 3.21759,2.78038 4.75829,3.572199 0.31117,-0.219086 0.45368,-0.593227 0.61873,-0.917404 z m 1.60418,-2.658091 c -0.3693,-1.21245 -3.15418,-3.097859 -1.42171,-0.688441 0.20078,0.34222 1.27126,1.673803 1.42171,0.688441 z m 4.20001,-0.504823 c -1.81502,-1.008816 -0.87839,2.097292 0,0 z m -3.98963,-2.356757 c -1.84996,-2.319424 -1.25957,1.94087 0.52514,1.519718 0.15136,-0.5462 -0.27314,-1.068284 -0.52514,-1.519718 z m 3.49819,-0.363071 c -0.64806,0.06572 -2.42099,3.088514 -1.04136,1.459761 0.39231,-0.424407 1.0405,-0.842596 1.04136,-1.459761 z m -1.38901,-0.238607 c 0.84047,-2.568819 -3.4632,-2.682601 -1.6827,-0.228463 0.36671,0.815886 1.44844,1.666648 1.6827,0.228463 z m 2.44541,-1.03804 c -1.13222,-1.605634 0.35383,1.921469 -3e-5,2.1e-5 z m -1.40497,-1.847102 c -0.016,-2.398245 -2.88175,-0.304135 -0.76589,0.652329 0.46146,0.456691 0.90623,-0.237466 0.76589,-0.652329 z m -3.36,-0.494352 c -0.63387,-0.948722 -1.28117,1.726826 -0.12339,0.372831 z m -1.58901,-1.707432 c -1.81485,-1.205429 0.17014,2.707045 0.20083,0.251598 l -0.20092,-0.251598 z m 3.19356,0.377901 c 1.01146,-2.359592 -2.13244,-1.095469 -0.8986,0.506626 0.37708,0.0916 0.67962,-0.273407 0.8986,-0.506626 z m 2.98595,-1.33593 c -1.54622,-0.413776 -0.95146,3.184692 -0.22175,0.869851 l 0.10746,-0.345248 z m -4.27539,-1.169645 c -0.90981,-1.270382 -4.25014,-1.931566 -1.95219,0.273827 0.53241,1.087381 1.84033,1.091361 1.95219,-0.273827 z m 2.99866,0.370389 c 0.82309,-2.419831 -2.97705,-0.887144 -0.80016,0.573004 0.16832,0.316007 0.82706,-0.906941 0.80016,-0.573004 z m -1.64664,-2.575746 c -1.26161,0.33744 -0.66641,2.730695 0,0 z m -1.94219,-0.858121 c -1.13222,-1.605654 0.35383,1.921465 -3e-5,-3e-6 z m -2.45728,-1.034471 c -2.99238,-2.202849 1.87572,2.413441 0,0 z m -3.16695,-0.453403 c -1.84762,-2.128599 0.90724,2.440746 0,-4.9e-5 z m 7.57929,0.03596 c -1.37318,-1.894312 -1.01618,0.352974 0.28988,0.83999 0.0382,-0.312625 -0.18099,-0.5697 -0.28988,-0.83999 z m -3.42509,-1.119295 c -3.71907,-2.285859 2.3716,3.834326 0,0 z m 5.27016,0.454942 c 0.0682,-0.610017 0.85524,-4.361925 -0.40026,-2.651369 -1.99358,0.616745 -0.87847,4.557396 0.40026,2.651369 z m -9.17809,-2.312161 c -1.70688,-0.983903 -1.85923,-3.844067 0.63606,-2.377866 1.21279,1.19463 2.71283,1.313579 1.24226,-0.496359 -0.63758,-1.021161 -1.33128,-2.005774 -1.99779,-3.008067 -0.741,1.175702 -2.69728,2.280961 -1.9306,3.803418 0.81278,1.221218 1.96493,3.732046 3.16818,3.761005 -0.20255,-0.654428 -0.68382,-1.172647 -1.11811,-1.682131 z m 6.07302,1.361599 c -0.45385,-1.185578 -2.37723,-2.435029 -1.03285,-0.414535 0.14025,0.33087 0.9935,1.327418 1.03285,0.414535 z m 2.7866,-5.315117 c -0.88453,-6.222517 -1.86105,-12.468957 -3.54451,-18.530446 -0.71755,-2.391861 -3.10122,-4.763491 -5.47757,-5.043801 0.59258,1.93731 5.38035,5.1543 1.94332,6.362208 -0.32612,1.624354 2.64561,2.752099 0.94832,4.791727 -0.52016,3.422452 5.54098,1.77366 4.06523,5.463915 -0.96559,2.289206 -0.40805,4.445597 0.39844,6.553022 -0.8196,0.780572 -3.54429,-1.054085 -2.87073,1.547794 0.35534,1.199743 1.5508,2.723945 2.43268,3.233285 1.03266,-1.288764 2.56113,-2.513861 2.10482,-4.377704 z m -4.89304,-1.076439 c -0.0302,-1.720413 -3.99325,-3.941121 -2.57525,-0.96391 0.50675,0.760876 2.59174,3.728396 2.57525,0.96391 z m -6.91275,-2.094586 c 1.14142,-2.170081 -0.15139,-3.699985 -1.67758,-1.659014 -1.22702,-0.979379 0.82765,-4.368828 -2.41971,-3.594344 0.24346,2.274316 1.5889,5.206967 3.27767,6.433296 0.35009,-0.333009 0.59146,-0.7602 0.81962,-1.179938 z m 1.79804,-0.200165 c -1.37533,0.657765 -0.1212,1.688555 0,0 z m 1.38472,-1.583293 c -2.28048,-0.66543 0.7715,1.915188 0,0 z m 3.12369,0.152291 c -2.42747,-1.790402 0.7744,2.211415 0,0 z m 1.87273,-1.302715 c 0.3271,-3.275334 -3.26551,0.421172 -0.52592,1.441908 0.7631,0.96955 0.42354,-1.128155 0.52592,-1.441908 z m -2.10001,-1.6203 c -2.34497,-2.657587 -0.411,1.742711 0,0 z m -3.42103,-1.588476 c -1.88443,-1.370818 -0.86682,3.141987 0.25703,0.577677 l -0.0491,-0.266632 -0.20796,-0.311013 z m -2.03246,-1.19435 c 1.15884,-2.760121 -3.48251,-2.12 -2.48828,0.307109 0.71191,0.555291 1.90351,0.339085 2.48828,-0.307109 z m -5.67656,-3.496916 c -0.75226,-2.062364 3.33708,-1.351439 1.10399,-3.241862 -2.29817,-2.072196 -2.29054,3.962114 -1.28342,4.938048 0.20183,-0.538899 0.158,-1.132078 0.17944,-1.696186 z m 3.15001,0.305205 c -0.63387,-0.948706 -1.28114,1.726821 -0.12339,0.37283 z m 4.78537,-1.455528 c -0.25299,-1.894074 -1.64396,2.176757 0,0 z m -3.52537,-0.174883 c -1.02133,-1.483934 -0.42306,1.319289 0,0 z m 2.73318,-1.810765 c 0.79517,-0.526777 2.0614,-1.068458 0.4978,-1.520572 -1.6551,-2.458115 -4.28632,1.734461 -1.99088,2.422234 0.55121,-0.206456 1.00545,-0.586116 1.49308,-0.901662 z m -2.85951,-3.53563 c -2.37344,-1.481557 -1.54867,1.364408 -0.64585,2.496179 0.39335,-0.754928 1.7267,-1.724649 0.64585,-2.496179 z m -2.39367,1.566377 c -0.42318,-1.319274 -1.02144,1.483991 0,0 z m -1.81664,-2.520014 c 0.44845,-1.72281 3.00067,-4.088 2.74929,-5.29911 -1.25606,2.57846 -4.35116,4.4081 -4.25873,7.442551 0.38574,0.925819 1.4182,-1.763501 1.50944,-2.143441 z m 8.11665,0.89143 c -0.64349,-2.20416 -2.24816,-0.26213 -0.34041,0.356935 l 0.24338,-0.10355 z m -2.30589,-2.95734 c -1.69013,-1.46651 -2.57664,2.47292 -0.21022,1.73458 0.49562,-0.47877 0.95783,-1.21599 0.21022,-1.73458 z m -4.36006,-3.71759 c 0.74813,-3.12869 -1.75887,0.69758 -2.06235,1.89754 -0.15751,0.46385 -1.4361,2.6491 -0.56002,1.52585 0.93342,-1.09341 1.8898,-2.18023 2.62237,-3.42339 z m 2.88594,1.95208 c -0.68187,-1.42457 -1.68155,2.59407 -0.17534,0.40584 z m 5.34005,0.17138 c -3.34626,-1.56228 1.90484,2.66922 0,0 z m -2.82003,0.0652 c -0.89864,-1.56516 -0.77545,2.02474 0,0 z m -6.8275,-4.71828 c 0.41999,-1.49038 2.77366,-3.8764 1.26505,-5.11477 -0.9672,2.49267 -4.83963,3.63002 -4.48061,6.30743 0.12129,1.51528 0.78887,4.26013 1.78553,1.41976 0.49592,-0.86008 0.96878,-1.73334 1.43003,-2.61242 z m 8.5478,-1.83414 c -1.72613,-4.01307 -3.12343,-8.19144 -5.18926,-12.04578 -1.02738,-1.23377 -5.12054,0.91809 -2.09605,1.41964 2.38913,-0.48517 -0.1804,4.67084 2.49612,2.83654 3.27615,0.27048 -0.89032,4.19348 1.5904,5.4853 0.79934,1.08586 -1.43341,1.44091 0.42403,1.73647 0.91726,2.32402 2.71284,4.27492 4.49542,6.00559 0.31908,-1.09105 -1.25774,-3.91937 -1.72066,-5.43776 z m -1.80711,3.90978 c 0.74759,-0.42448 -1.28992,-3.31638 -1.29735,-1.59305 -0.54771,1.02495 -0.028,2.57565 1.29735,1.59305 z m -2.86429,-3.40186 c 0.84532,-3.19971 -3.43239,0.4381 -1.10318,1.02825 0.57397,-0.0205 0.85522,-0.60248 1.10318,-1.02825 z m -5.92596,-2.51287 c 1.7135,-1.26353 0.51541,-4.12023 -1.22175,-2.023 -2.93829,1.03004 1.19113,-2.8434 -1.88103,-2.58515 -2.8933,-0.27262 0.68576,3.59341 0.55146,5.08464 0.30168,2.21709 1.63941,1.72866 2.28981,-0.0579 z m -5.2008,-2.4213 c -0.34265,-1.61486 -1.63251,-2.35916 -0.65058,-0.22619 0.53835,1.50847 1.7592,2.60878 0.65058,0.22619 z m 10.71786,-0.96655 c -0.42316,-1.31933 -1.02141,1.484 2e-5,0 z m -2.52645,-2.92503 c -0.94833,-1.35184 -1.47411,3.09993 -0.1161,0.71567 l 0.0832,-0.33994 0.0329,-0.37567 z m -4.1936,0.82501 c -3.30727,-1.54992 1.21155,1.47553 0,0 z m -3.27136,-2.61801 c -1.02521,-1.54229 -1.12072,-0.26861 -0.79809,0.93453 0.65209,1.4881 2.30129,-0.0369 0.79809,-0.93453 z m 4.95139,0.0732 c -0.60113,-2.71196 -1.77916,2.72093 -0.10824,0.61335 l 0.0792,-0.28599 z m 41.16017,82.394151 c -2.24242,-1.004961 -1.29648,-4.1264 -2.95668,-5.977847 -5.75441,-12.115838 -10.06481,-24.834156 -14.45014,-37.48853 -2.12685,-6.27405 -4.87591,-12.311054 -7.13301,-18.532894 -1.15175,-3.51121 -2.96738,-6.84705 -3.23306,-10.60518 -0.45708,-4.53409 -2.52714,-8.65038 -3.72727,-12.99019 0.447,-1.33396 1.56999,0.97663 2.47132,-0.36565 4.88452,-0.99582 9.90279,-1.14502 14.8471,-1.75306 7.92635,-0.80422 15.91982,-0.21406 23.83671,-1.10199 12.47206,-0.66752 24.98515,-0.31385 37.44529,-1.15988 3.44641,-1.2472 4.40983,2.81407 4.82021,5.1109 5.78834,9.21284 12.84628,17.62305 17.81712,27.349134 5.7514,10.382161 12.08038,20.429191 18.07773,30.668131 3.31082,5.503064 7.22231,10.614032 10.64172,16.040816 1.4472,2.880886 -3.93754,1.59513 -5.69107,2.087434 -10.88908,0.423785 -21.83022,0.889351 -32.5268,3.139857 -7.7529,1.383969 -15.66061,1.606851 -23.50925,2.04961 -6.5815,0.06828 -13.1576,0.483225 -19.67085,1.461545 -4.75236,0.634229 -9.52744,1.123331 -14.32086,1.242872 -1.00609,-0.323424 -1.90989,2.216602 -2.73821,0.824922 z m 13.72769,-3.019525 c 5.82043,-1.290012 11.83603,-1.40505 17.77079,-1.766006 8.44006,-0.336327 16.8953,-0.698108 25.28953,-1.665703 4.92308,-0.990395 9.90478,-1.719414 14.87203,-2.448842 8.12964,-0.881713 16.34595,-0.715456 24.46189,-1.665649 1.62747,0.08279 0.24075,-0.988644 -0.17227,-1.687189 -1.5713,-2.072598 -2.97632,-4.349384 -5.03515,-5.963774 -1.34736,-3.801838 -4.04947,-6.960602 -5.88703,-10.542494 -5.67072,-10.59814 -12.2283,-20.68706 -18.06842,-31.18874 -2.49255,-3.977239 -4.88609,-8.052979 -7.78985,-11.742929 2.54145,4.89789 5.98371,9.29907 8.58631,14.169117 0.93266,2.047387 -2.80493,0.658699 -3.90932,1.657178 -5.94669,0.910142 -11.95444,1.429543 -17.85732,2.641566 -5.65657,1.240365 -11.42406,1.90284 -17.2188,1.819575 -8.44041,0.187514 -16.86716,-0.434278 -25.30027,-0.563802 -6.74081,0.250168 -13.37739,2.002977 -20.13798,1.864613 -0.97691,-2.154671 -1.28598,-5.106746 -2.31982,-7.47444 -1.7747,-5.076677 -4.0689,-9.989157 -5.1164,-15.297857 -0.51399,-2.2486 -2.33952,-6.44529 1.77995,-5.36048 12.1491,-0.46954 24.24435,-1.75472 36.3775,-2.46446 6.6462,-0.60489 13.19066,-2.03555 19.86623,-2.3877 5.16124,-0.44796 10.3465,-0.63489 15.5179,-0.34976 2.26272,-0.31737 -0.48761,-2.60461 -0.98072,-3.76429 -0.39279,-1.01037 -1.10785,-1.4071 -2.16767,-1.14737 -13.5761,0.29056 -27.17425,0.24063 -40.71552,1.34924 -8.78883,0.33425 -17.61364,0.22585 -26.34596,1.4455 -2.89015,0.37806 -5.81858,0.53605 -8.69694,0.92289 0.14313,2.19439 1.67112,4.54186 2.10902,6.87586 1.27043,4.07334 1.13311,8.52257 3.16669,12.35902 1.90013,5.471324 4.09591,10.828525 6.25297,16.20102 4.45582,11.969806 8.19278,24.210824 13.33397,35.919969 1.52835,3.638477 3.23938,7.195414 5.03748,10.707205 4.42989,-0.07589 8.91083,0.245716 13.29712,-0.451268 z m -11.87496,-21.598625 c -1.04077,-3.103597 3.09356,-2.514015 4.99203,-2.296025 0.99658,1.185326 3.10958,-1.026492 2.05831,1.348293 -1.85389,0.126075 -4.64129,-1.638817 -5.2883,0.736801 -0.82551,0.42366 -1.0963,2.240865 -1.76224,0.210925 z m -6.18311,0.144354 c -2.40787,-1.353536 1.67215,-3.090419 0.944,-0.820458 2.03376,0.201725 -7.2e-4,1.620149 -0.944,0.820458 z m 2.51037,-0.215291 c -2.0105,-3.265916 4.58107,-0.771092 1.63183,0.243765 -0.53824,0.03697 -1.16789,0.08717 -1.63183,-0.243765 z m 15.26007,-2.005221 c 0.4407,-2.129517 2.08242,0.687164 3.31919,-0.767117 1.5954,-0.395502 3.24449,-0.274017 4.87087,-0.278887 -1.10796,1.040543 -2.85386,2.383483 -4.17225,1.019775 -1.16339,0.352422 -3.14481,1.305082 -4.01781,0.02624 z m 11.11808,0.08781 c -0.54839,-0.929629 -2.8372,0.532658 -2.03519,-1.664298 1.35413,1.090128 1.27063,-1.81766 2.66738,-1.401186 0.38817,2.698877 4.5784,0.613575 5.2829,2.06583 -1.9354,0.409671 -4.44761,0.0015 -5.74592,1.386474 l -0.16923,-0.387017 z m 10.40702,-1.021796 c -1.58178,-1.597049 1.20692,-1.744927 2.14369,-1.212752 1.62791,-0.265068 3.85275,-1.961707 4.56323,0.182756 3.08524,1.196775 -2.28701,0.632619 -2.94436,0.307267 -1.02863,0.742348 -2.52932,0.932781 -3.76256,0.72272 z m -36.85517,-0.584798 c -1.63304,-0.821934 -4.78811,0.851946 -5.60618,-0.612197 1.20083,-2.91528 4.47229,0.4312 6.83446,-0.28505 1.00172,0.865079 3.78418,-1.283196 2.10235,0.939031 -0.90297,0.792656 -2.27085,-0.06687 -3.33063,-0.04178 z m 45.99022,-0.561176 c -0.6531,-0.934368 -1.44756,-1.298318 -0.68356,-2.39354 -2.38314,0.882353 -4.46225,-2.152872 -1.66267,-3.204149 1.78504,0.348952 3.04426,3.238773 5.08867,1.196907 1.93905,0.71821 -0.0972,2.7914 1.89742,2.693094 -0.0856,1.214834 -4.17782,3.06276 -4.63986,1.707688 z m 2.08474,-1.286545 c 1.42652,-2.496737 -3.79158,-1.151719 -1.12899,0.484642 0.43369,0.312835 0.8991,-0.186927 1.12899,-0.484642 z m 5.89531,0.808414 c 0.36553,-3.546949 5.09927,1.548127 5.88002,-1.271616 1.29264,-1.887779 0.82338,3.152489 -1.26087,1.847815 -1.72807,-0.304195 -3.60592,-1.849944 -4.2555,0.457117 -0.37096,-0.172981 -0.33165,-0.70119 -0.36365,-1.033316 z m -48.40522,0.354612 c -2.91323,-0.87767 1.81602,-1.124886 2.80372,-0.973332 1.85517,0.551279 2.92262,-0.955897 4.1094,-1.105972 2.37564,1.531389 3.91874,-1.017962 6.47216,-0.743292 1.45813,-1.275922 3.41124,-0.355297 4.13007,0.335237 1.462,-2.624721 3.43929,-0.08652 5.68865,-0.965255 2.14786,-0.383517 4.40206,-1.068668 6.08469,0.708335 2.36189,-0.01296 4.44387,-3.552093 5.75601,0.0099 0.59399,2.208463 -2.46659,1.040942 -3.2049,0.368372 -2.05071,1.255123 -3.88254,-0.07652 -5.59056,-0.585268 -3.12459,0.568968 -6.40573,0.312174 -9.38031,1.53411 -1.55315,0.193606 -1.19682,-2.315419 -2.9738,-0.568146 -2.64417,0.245211 -4.79328,1.777386 -7.56573,1.664763 -2.11191,0.05401 -4.21813,0.572027 -6.3294,0.320557 z m 56.38522,-0.467417 c 1.79063,-1.578109 1.0643,-5.468679 -1.8113,-3.693358 -2.53205,0.435321 -5.03116,0.870447 -7.49013,1.329245 -2.40693,-1.962424 0.63431,-1.066577 0.86835,-1.17185 1.2068,-1.545051 3.64867,-0.123403 5.52957,-0.945528 1.87699,-0.239317 5.63296,-1.362785 6.46836,0.467811 -1.30278,-0.437981 -2.47203,2.762251 -1.11338,2.59484 1.50922,-0.103484 3.08315,0.09765 4.5286,-0.419067 1.24768,-2.320285 1.47217,2.775454 -0.93051,1.255276 -2.13771,-0.687417 -4.15834,1.717076 -6.04956,0.582631 z m 12.81006,-1.232674 c -1.48883,0.137432 -3.21709,-1.216605 -0.62487,-0.986449 2.42562,-0.677263 5.01736,-1.322104 7.58098,-0.708194 0.93795,0.272672 2.49833,-1.261202 1.9075,0.684695 -2.02262,0.896596 -4.55033,-1.043172 -6.1971,1.213105 -0.88174,0.06778 -1.78178,-0.158301 -2.66651,-0.203157 z m -2.73,-2.466288 c -0.13523,-0.810383 -3.08722,-0.318411 -1.53742,-1.707897 1.60656,0.05748 1.2491,-4.565214 3.07229,-2.005422 -0.1672,1.341585 2.84196,2.738086 0.0121,2.601028 -0.7326,-0.07154 -0.95915,3.223181 -1.54796,1.112291 z m 6.55533,-1.248449 c -0.62976,-1.644661 0.77646,-3.82003 1.81927,-1.47886 1.96069,-1.841125 1.58877,1.346417 -0.39338,1.267677 -0.29618,0.79642 -1.03039,1.297629 -1.42589,0.211183 z m -49.98076,-3.464199 c 0.12308,-1.668296 0.20143,-5.060408 2.59801,-3.774617 1.86389,-0.371758 3.25605,-0.05296 3.44726,-2.179146 0.73196,0.78095 0.0822,2.750476 1.66256,1.389436 1.51559,-0.299722 1.16211,2.466476 2.5348,0.357144 1.85335,0.0574 3.65267,-2.118497 5.30062,-0.722879 0.85402,0.514429 2.17123,0.315054 0.65396,1.641431 -1.31772,1.583531 -1.82706,-0.144456 -2.07517,-1.192668 -1.15768,0.134577 -0.2276,3.069802 -1.54938,1.212384 -1.60297,1.136933 -4.75364,2.259584 -5.37791,-0.170248 -2.0398,-0.565936 -0.64532,4.473143 -2.37428,2.77904 0.50465,-2.554109 -2.74558,-0.331543 -3.26048,-2.109013 -0.86113,0.474524 -0.11315,3.649353 -1.55999,2.769146 z m -3.49446,-2.194318 c -1.54748,-3.294384 5.00777,-1.487916 1.9797,0.320314 -1.33576,0.252806 -0.82683,2.379561 -1.9797,-0.320314 z m -13.25811,-4.041423 c -0.59514,-1.974718 1.01726,-2.302496 1.98332,-1.090618 0.9145,-1.234465 2.36469,0.491541 3.5212,-0.725079 2.44963,-0.301957 5.0037,-0.282998 7.35803,-0.805118 1.92705,0.510528 1.81273,5.017668 -0.32026,2.33524 -1.87548,1.172473 -3.59824,-2.00461 -4.89066,0.472346 -2.50217,-2.021387 -4.97316,1.879685 -7.49578,0.430762 l -0.0809,-0.267855 -0.075,-0.349468 z m 20.30474,-0.827881 c -2.2471,-1.459046 0.927,-3.851355 1.08111,-1.204843 1.12993,0.488615 1.01007,-2.228286 2.882,-1.254111 2.5904,-0.07326 5.08316,-1.103747 7.71921,-0.918181 0.0678,0.550881 1.78674,2.617458 1.52084,0.708197 0.5032,-2.114735 3.48825,0.355561 5.0809,-0.225734 1.87882,0.625263 0.38542,1.098721 -0.61906,1.091632 -0.81021,1.84623 -4.03077,-0.238018 -5.14357,1.617669 -0.99071,-0.781356 -3.31516,-2.853556 -2.66022,-0.129132 -1.64074,0.456966 -2.83904,-1.112516 -4.37007,-0.04362 -1.26513,-0.890283 -2.07351,-0.640635 -2.07745,0.592018 -1.40427,-0.534508 -2.49634,1.661453 -3.41369,-0.233886 z m -3.38691,0.271148 c 1.32964,0.0761 1.358,-3.462699 2.30016,-1.256995 0.85551,1.582593 -1.4959,2.199951 -2.30016,1.256995 z m -34.18469,-7.201559 c 5.0565,-0.836272 10.18671,-0.903708 15.29221,-1.091618 1.87291,-0.805002 1.35956,-4.478299 2.19965,-6.387961 0.88745,-2.232455 -0.49142,-3.950675 -2.82692,-3.071645 -6.57471,0.78654 -13.30019,1.44661 -19.44383,4.09441 -1.13983,0.245518 -4.39479,1.778541 -4.5284,0.352518 2.51859,-1.065259 -2.72924,-3.939368 -1.83268,-5.625398 2.65501,-1.05233 3.87145,3.418603 5.48229,4.617398 0.69233,-0.435371 3.5097,-0.720995 3.0019,-1.583166 -1.34037,-1.612612 -2.51064,-3.513632 -4.7515,-4.005532 -1.29217,-0.11806 -5.62113,0.53811 -2.26596,-0.72201 8.06029,-2.44059 16.59038,-2.20915 24.88901,-3.13598 1.79526,0.295 4.88541,-1.46731 5.92366,-0.38372 -2.43305,1.2592 -5.32379,1.13627 -7.98723,1.62129 1.74343,1.40177 2.88584,3.51145 5.07027,4.30731 0.92243,2.151305 -0.20614,4.801073 -0.531,7.077046 -0.94542,1.376821 -0.76793,4.20232 1.05769,2.880325 -1.35616,-1.895016 3.59999,0.322146 4.80013,0.06616 3.24601,0.326488 6.53953,0.485965 9.78947,0.288425 -2.53399,-0.482623 -4.62077,-2.162053 -7.25279,-2.395142 -1.87413,-0.68214 -5.17455,-0.674253 -6.04839,-2.220167 3.54199,0.295166 6.92205,1.842994 10.50314,2.061214 2.34203,0.732741 4.24476,2.769751 6.66127,2.894151 6.93577,-0.165307 13.72374,-1.699559 20.50232,-3.038388 -0.004,-1.99969 0.2872,-4.462991 -1.72458,-5.660835 -2.39031,-1.571569 -5.18778,-2.321529 -7.83707,-3.337329 -1.11734,1.49659 -2.38821,3.052768 -4.35746,3.360796 -2.0321,1.215557 -4.82401,0.571948 -7.14455,0.548761 -1.92428,-0.566762 -5.55981,-2.032667 -5.48479,-3.958567 2.45834,1.94176 5.40031,3.539453 8.68164,3.269041 2.41126,0.07266 5.06843,-0.670581 6.57446,-2.652431 1.3295,-2.76857 -3.82483,-1.31836 -3.64269,-2.67071 1.33104,0.26547 4.70166,-2.38051 3.4225,0.14838 2.26436,1.21298 2.48102,-3.56555 3.6174,-5.02104 0.97513,-1.30382 0.74133,-2.28359 -0.48423,-2.92542 1.7382,-3.02451 -3.2103,-3.60472 -5.28445,-3.96939 -4.16222,-0.50729 -8.45216,-0.89736 -12.60688,-0.20181 -2.47796,0.84288 -5.26141,2.1913 -5.73362,5.07061 -1.06466,2.65707 3.29139,2.58913 2.71789,5.57738 0.78481,1.84315 -1.12982,4.5902 -2.61964,2.24033 -2.21565,-0.0371 -1.50057,-1.10808 -0.50895,-2.19122 -1.12586,-2.02217 -5.55602,-1.54289 -5.88209,-4.03558 1.31395,-0.13435 4.88381,3.32659 4.6645,0.91046 -0.30482,-1.6688 -0.63907,-5.05714 0.92293,-5.76529 0.92225,2.15707 2.67839,-2.16848 4.49268,-2.18986 0.84427,-0.45117 2.25206,-1.05776 0.46677,-0.78351 -2.05568,0.16442 -4.22077,-0.0429 -6.16298,0.70806 -1.51143,2.31143 -4.15991,3.80677 -5.27407,6.35819 0.64274,1.81001 -0.64618,2.00366 -1.08837,0.21699 0.41505,-3.02472 4.00888,-4.27275 5.15036,-7.02268 -1.05295,-1.51794 -4.53608,-0.0761 -6.47293,-0.32423 -9.69062,0.70746 -19.36764,1.73655 -29.09029,1.84624 -2.67951,-0.4159 -4.58531,1.27967 -3.15122,3.84889 1.06429,4.67502 2.67595,9.18697 4.49497,13.612556 1.12265,3.072081 2.10284,6.193124 3.13753,9.295309 2.85646,0.06341 5.68246,-0.531902 8.50292,-0.901596 z m 38.5947,-1.29282 c -3.45183,-1.504009 -7.12836,-2.303564 -10.7999,-3.073284 -2.83303,-0.685244 -5.66178,-1.481575 -8.4237,-2.372081 1.52477,-1.242475 4.92062,0.830477 7.1637,1.045271 4.33465,1.240786 8.90437,1.782868 13.03855,3.642633 1.88303,0.97211 -0.0891,1.248424 -0.97865,0.757461 z m -15.54006,-0.762082 c -0.79217,-0.375357 -5.82716,-1.118641 -2.86478,-1.496266 2.12052,0.399442 4.90618,0.451232 6.37575,2.071225 -0.87653,0.639598 -2.51733,-0.450936 -3.51097,-0.574959 z M 194.77851,-93.411 c -7.46155,-0.897016 -14.60383,-3.385808 -21.78369,-5.496637 -0.96424,-0.147648 -5.1188,-1.756593 -2.12642,-1.436783 7.87508,1.982429 15.56967,4.777672 23.61489,6.036791 1.95197,0.189133 5.25862,-0.248273 6.29821,1.20868 -1.99194,0.187999 -4.01265,-0.185591 -6.00299,-0.312051 z m 8.08507,-1.098561 c -2.72435,-1.830545 3.30854,-1.411645 4.43114,-1.304393 1.29544,0.631745 -3.61284,2.117946 -4.43114,1.304393 z m -19.84511,-9.671779 c 2.26581,-0.70276 4.72889,-0.7441 7.09656,-0.79267 1.22713,1.07952 -3.34803,0.92178 -4.31276,1.05262 -0.89392,-0.0533 -2.00454,0.21183 -2.7838,-0.25995 z m 2.10002,-2.24331 c -2.03583,-1.37282 2.88764,-1.97268 4.0416,-1.56264 2.31856,0.0299 1.63303,2.17625 -0.37622,1.76973 -1.21448,0.0756 -2.48882,0.16095 -3.66538,-0.20709 z m 3.20249,-2.3661 c -0.35861,-1.92391 2.97643,-0.24995 0.35986,0.11279 -0.0271,-0.0371 -0.35146,0.0159 -0.35986,-0.11279 z m -2.3625,-0.5425 c 1.45426,-1.71514 1.76959,1.65267 0,0 z m -0.41999,-1.21043 c 1.0023,-2.20912 1.08067,0.86584 0,0 z m 6.10551,-0.72408 c -2.26147,-2.99297 6.51597,-1.00396 3.18347,-0.69079 -1.59356,-0.32923 -2.4077,-0.16335 -0.46052,0.44552 0.84769,0.76844 -2.5271,1.24801 -2.72295,0.24527 z m -10.41055,-0.23389 c -3.23474,-1.29619 3.27071,-3.1115 3.3064,-0.82934 -2.13532,-1.02471 0.8225,1.5731 -1.59477,1.07418 -0.57675,0.10783 -1.17555,-0.0717 -1.71163,-0.24484 z m 36.43516,16.670821 c 2.29818,-0.363972 4.63828,-0.661414 6.81487,-1.524508 -4.06353,-6.827923 -8.22757,-13.597473 -12.7078,-20.161123 -0.93622,-1.41148 -1.68201,-2.9311 -2.40661,-4.45787 -8.78111,-0.76447 -17.62958,-0.18286 -26.35789,0.9076 -1.02277,-0.07 -4.24522,1.0234 -1.40843,0.92151 7.98239,-0.26327 16.40281,-1.4175 23.94687,1.89378 0.3996,2.53313 2.76885,4.15142 2.90872,6.65471 1.03057,3.40809 -2.58935,4.12558 -4.21411,6.24143 -1.26226,0.8033 -2.97792,1.59546 -0.64365,2.28433 1.96718,1.18024 5.27094,1.72276 5.40052,4.528235 0.54657,0.849607 -0.72705,3.405059 0.67354,3.327259 2.67824,0.05065 5.34451,-0.250822 7.99397,-0.615353 z m -74.13032,-2.968756 c -0.49031,-1.372737 -2.43342,-3.277065 -3.04405,-3.533385 0.80857,0.5378 2.22844,5.503431 3.04405,3.533385 z m 7.98004,-2.11205 c 1.95442,-0.975695 -1.02586,-2.707795 -1.86476,-3.724715 -1.62217,-1.00354 0.83399,-0.6854 1.50584,-0.46591 1.32907,0.75499 2.84895,5.08614 4.3777,2.84905 -0.25027,-0.96441 -3.86305,-4.18904 -1.21762,-3.03045 1.73138,1.63846 3.63612,4.438424 6.31462,2.62219 0.18996,-1.12355 -4.90356,-3.13909 -2.3222,-3.35401 2.11136,0.8585 3.9355,4.27189 6.4166,2.85429 -0.70822,-1.54405 -2.3649,-2.39435 -3.5905,-3.5264 -5.34033,0.47569 -10.74014,0.55618 -16.0172,1.53835 -0.45695,0.36679 1.11877,1.36896 1.48582,1.99333 1.31031,1.4335 2.69217,3.391006 4.9117,2.244275 z m 48.12735,-5.114585 c -1.36491,-0.36256 0.44423,3.10863 0.12915,0.40012 l -0.12915,-0.40011 z m -21.24723,0.26329 c -1.08745,-0.75316 -0.80263,1.9908 0,0 z m 28.27332,-2.87072 c 2.38582,-1.66622 -0.51099,-5.10299 -1.19831,-7.2284 -0.47537,-2.90249 -4.19206,-2.64932 -6.40151,-3.3526 -4.12614,-0.79002 -8.3471,-0.66118 -12.48347,-0.0477 4.86564,0.16845 10.10405,-0.0118 14.36439,2.68943 2.49307,1.52659 1.50757,4.69478 0.016,6.53309 -0.52659,1.22375 -1.41622,4.04717 0.27335,2.29463 0.13806,1.93829 1.28622,1.38837 1.16971,-0.35671 1.08039,-0.89079 3.30496,-2.10141 4.50364,-1.89836 -0.99355,1.94407 -4.45636,1.42538 -4.05651,4.4115 -0.27538,1.12159 1.09992,-1.07942 1.55966,-1.37102 0.66733,-0.65083 1.39076,-1.29737 2.25367,-1.67383 z m -102.57821,61.366905 c -1.40238,-4.454946 -1.94545,-9.139871 -3.16928,-13.650579 -1.750636,-7.575283 -2.546796,-15.325189 -4.093706,-22.939956 -0.87099,-1.496802 1.00455,-3.946156 1.21146,-1.112529 1.33686,8.242452 1.7402,16.654792 3.991456,24.735029 1.06209,4.174702 2.07493,8.392722 3.61263,12.412597 -0.0838,0.704106 -1.24678,1.853335 -1.55256,0.555438 z m -9.461656,-45.531552 c -1.03288,-7.29951 -1.16282,-14.705543 -1.50134,-22.064343 0.36328,-1.67535 -0.96738,-5.19988 0.70829,-5.80545 1.24094,2.23419 0.51893,5.20509 0.79459,7.72557 -0.0648,6.21588 0.26514,12.432202 1.19568,18.580302 0.3182,0.864684 -0.11578,3.124342 -1.19722,1.563921 z m 27.171276,67.841498 c -1.33927,-0.268951 -4.5908,0.193041 -1.36501,0.169417 0.0431,0.01377 2.57584,-0.02025 1.36501,-0.169417 z m 145.53068,-0.0021 c -0.97651,-0.230428 -5.14615,0.09672 -2.17568,0.16134 0.21006,-0.0264 3.25976,0.07714 2.17568,-0.16134 z m 33.49516,-1.421949 c 6.22705,-2.099839 12.78571,-4.50096 17.30658,-9.487562 1.31588,-1.246228 -0.0922,-2.535829 -1.02766,-0.922075 -2.17444,0.859053 -4.48434,1.457801 -6.44806,2.813811 -5.892,3.072105 -12.27792,5.119886 -18.04508,8.455036 0.56793,0.582462 3.94158,-1.162166 5.48986,-1.683089 4.68314,-1.83164 9.06964,-4.349858 13.75572,-6.157754 1.0145,1.004913 -3.44887,2.06297 -4.63546,2.786518 -4.17401,1.863565 -8.52435,3.544696 -12.47401,5.778867 2.07754,-0.207174 4.08057,-1.001056 6.07811,-1.583752 z m -175.45583,1.018326 c -1.40139,-0.338102 -2.23564,0.40615 -0.22221,0.176786 -0.0119,0.120994 0.72419,-0.153202 0.22221,-0.176786 z m 4.62492,-0.419075 c -1.49206,-0.337837 -2.72343,0.380651 -0.3552,0.172007 -0.12781,0.06376 0.88457,-0.0763 0.3552,-0.172007 z m 175.00671,-0.09226 c -0.54404,-0.824545 -2.45376,0.940353 -0.344,0.268999 l 0.344,-0.268951 z m -171.24034,-0.29289 c -1.56899,-0.504067 -0.90369,0.800595 0,0 z m 31.40391,-2.913913 c 4.13174,-0.725834 8.31749,-1.30341 12.39006,-2.25405 -10.05313,1.203527 -20.03137,3.022641 -30.0698,4.320064 1.50785,1.125364 4.65951,-0.08713 6.78231,-0.266368 3.63269,-0.598346 7.26532,-1.198444 10.89743,-1.799646 z m 143.60505,2.012634 c 0.5977,-0.419752 4.57889,-1.449807 3.00948,-1.927718 -0.71896,0.173566 -7.15247,2.933007 -3.00948,1.927718 z m -102.33498,-1.233589 c -1.49203,-0.337827 -2.72339,0.380653 -0.35518,0.172009 -0.12774,0.06376 0.88459,-0.0763 0.35518,-0.172009 z m 4.18716,-0.422474 c -2.56058,-0.303494 -0.16903,0.6506 0,-6.05e-4 z m -22.77713,-1.186613 c 12.86658,-0.653651 25.70626,-1.994853 38.6033,-1.85822 17.72144,0.0781 35.44928,-0.186402 53.15519,-0.941458 1.72913,-0.02645 1.76894,-0.328385 0.002,-0.297321 -3.58025,-0.221623 -7.24043,0.253388 -10.76723,-0.500186 -1.02805,-0.790046 -0.19473,-1.455305 -2.03279,-0.986501 -23.47701,0.927324 -47.0356,0.132393 -70.44894,2.442806 -7.63686,0.721186 -15.31347,1.214709 -22.88632,2.468221 -1.67305,0.720282 2.49298,0.516895 3.15888,0.367059 3.73676,-0.261169 7.47656,-0.478495 11.21609,-0.6944 z m 127.41047,-0.576279 c 0.9674,-2.119191 -2.6869,1.3762 0,0 z m -63.4652,-0.766893 c -1.23292,-0.290396 -3.84896,0.219201 -1.15499,0.174863 0.0623,0.01053 2.13178,-0.01335 1.15499,-0.174863 z m -70.9883,-0.410245 c -2.56058,-0.30349 -0.16882,0.650594 0,-6.05e-4 z m 79.59081,-0.01235 c -1.32115,-0.268738 -4.15172,0.217305 -1.14747,0.174761 0.0733,0.01538 2.30461,-0.02401 1.14747,-0.174761 z m -70.76279,-0.405243 c -1.40138,-0.338101 -2.23567,0.406155 -0.22221,0.176786 -0.0121,0.120994 0.72418,-0.153201 0.22221,-0.176786 z m 4.40253,-0.434875 c -1.32116,-0.268738 -4.15176,0.217302 -1.14751,0.174761 0.0735,0.01518 2.3047,-0.02382 1.14751,-0.174761 z m 5.46752,-0.412008 c -1.56061,-0.315304 -2.88297,0.31595 -0.58462,0.178343 0.12208,0.0071 1.28241,-0.04584 0.58462,-0.178343 z m 3.57492,-0.832174 c -1.49205,-0.337824 -2.72338,0.380652 -0.35518,0.172008 -0.12774,0.06374 0.88457,-0.07628 0.35518,-0.172008 z m 32.55103,-0.847082 c -1.02271,-0.296034 -3.59567,0.207545 -1.16078,0.17644 0.0552,0.003 1.93238,0.0035 1.16078,-0.17644 z m 30.33935,-0.49914 c -1.13562,-0.611433 -4.60748,-0.29051 -6.60339,-0.420573 -6.54161,0.02923 -13.10993,0.01498 -19.6232,0.642329 2.34321,0.589275 5.13941,0.271273 7.65684,0.376145 6.18829,-0.0862 12.40484,-0.01722 18.56975,-0.597901 z m -1.99009,-4.113822 c -1.49204,-0.337842 -2.72342,0.380661 -0.35521,0.172009 -0.12773,0.06373 0.88457,-0.07628 0.35521,-0.172009 z m -37.39384,-0.805164 c -1.54657,-0.472539 -0.65404,0.760765 0,0 z m 58.49403,-5.20628 c -1.77452,-0.544341 -4.62912,-0.252975 -6.82653,-0.329999 -0.83935,0.0946 -4.42421,-0.128849 -3.79258,0.397572 3.51609,0.360005 7.11531,0.41927 10.61911,-0.06758 z M 73.097851,-101.87745 c 0.417094,-2.11184 -0.78257,-1.48575 -0.540014,0.17502 -0.09611,2.339077 0.398467,1.37976 0.540014,-0.17502 z m 210.721079,74.389594 c -6.29544,-0.617703 -12.66553,0.03802 -18.9416,-0.71986 -1.35727,-1.901497 6.27454,-1.437481 2.42213,-0.578255 2.24585,0.739365 4.9041,0.364729 7.3183,0.506914 4.18318,0.07951 8.41194,-0.144193 12.5612,0.377953 -0.56623,1.040557 -2.38432,0.450595 -3.36003,0.413248 z"
       id="path4496"
       inkscape:connector-curvature="0" />
  </g>
</svg>
