<?xml version="1.0" encoding="UTF-8" standalone="no"?>
<!-- Created with Inkscape (http://www.inkscape.org/) -->

<svg
   xmlns:dc="http://purl.org/dc/elements/1.1/"
   xmlns:cc="http://creativecommons.org/ns#"
   xmlns:rdf="http://www.w3.org/1999/02/22-rdf-syntax-ns#"
   xmlns:svg="http://www.w3.org/2000/svg"
   xmlns="http://www.w3.org/2000/svg"
   xmlns:sodipodi="http://sodipodi.sourceforge.net/DTD/sodipodi-0.dtd"
   xmlns:inkscape="http://www.inkscape.org/namespaces/inkscape"
   width="300mm"
   height="300mm"
   viewBox="0 0 299.99999 299.99999"
   version="1.1"
   id="svg4518"
   inkscape:version="0.92.1 r15371"
   sodipodi:docname="logbook_2.svg">
  <defs
     id="defs4512" />
  <sodipodi:namedview
     id="base"
     pagecolor="#ffffff"
     bordercolor="#666666"
     borderopacity="1.0"
     inkscape:pageopacity="0.0"
     inkscape:pageshadow="2"
     inkscape:zoom="0.35"
     inkscape:cx="289.15013"
     inkscape:cy="-266.13276"
     inkscape:document-units="mm"
     inkscape:current-layer="layer1"
     showgrid="false"
     units="mm"
     inkscape:window-width="2560"
     inkscape:window-height="1365"
     inkscape:window-x="-9"
     inkscape:window-y="-9"
     inkscape:window-maximized="1" />
  <metadata
     id="metadata4515">
    <rdf:RDF>
      <cc:Work
         rdf:about="">
        <dc:format>image/svg+xml</dc:format>
        <dc:type
           rdf:resource="http://purl.org/dc/dcmitype/StillImage" />
        <dc:title></dc:title>
      </cc:Work>
    </rdf:RDF>
  </metadata>
  <g
     inkscape:label="Layer 1"
     inkscape:groupmode="layer"
     id="layer1"
     transform="translate(0,2.99999)">
    <path
       style="fill:#000000;stroke-width:0.3348749"
       d="m 11.832002,236.81103 c -0.531032,-2.22447 0.432499,-4.85785 0.178372,-7.27653 0.225271,-7.06006 2.653699,-14.12498 1.203611,-21.18174 -1.081124,-1.9854 1.219895,-3.85407 0.485972,-6.21499 0.498263,-5.97105 1.245855,-11.92735 1.318525,-17.92939 0.06416,-2.76868 0.176306,-5.57597 -0.19919,-8.31119 1.113221,-0.78854 1.941787,3.39814 2.163478,0.27183 -0.505281,-1.3634 1.15381,-3.77662 1.285008,-1.12091 -0.02351,2.6469 -1.816284,4.89316 -1.763422,7.57473 -0.768962,9.05794 -0.772297,18.17165 -1.556202,27.22391 -0.143474,1.41826 0.447348,4.5381 0.780043,1.33982 1.477705,-9.26805 2.046382,-18.65904 3.733982,-27.89935 1.058161,-6.51486 1.289219,-13.12134 2.012343,-19.66972 0.35819,-7.55682 0.815002,-15.11639 2.02036,-22.59432 0.838626,-7.41082 2.143691,-14.78471 2.360299,-22.25107 0.828517,-7.8759 1.693259,-15.74834 2.757796,-23.595613 0.564464,-4.6782 0.335673,-9.46535 1.458379,-14.05445 0.936874,-2.78626 1.738863,1.11192 0.798679,2.20038 -0.548947,2.64933 0.573775,5.34072 0.07298,8.08484 -0.141566,4.18275 -0.909675,8.31252 -0.971608,12.498903 0.09627,3.30248 -2.08642,6.00427 -2.296301,9.14692 -0.904685,11.85012 -2.409852,23.64007 -3.964498,35.41828 -0.808322,8.27332 -1.062707,16.5897 -1.910347,24.86117 -0.143498,4.19443 -1.083875,8.30978 -1.335008,12.48328 0.656911,3.98976 -1.355192,7.74473 -1.144051,11.72921 -0.381821,4.0448 -1.146604,8.04565 -1.659587,12.07594 -1.427468,4.4946 -0.04076,9.1724 -0.113428,13.74466 0.372809,1.9874 -2.134268,5.8234 0.576377,6.36375 2.65309,0.6189 5.286203,-2.28183 7.625072,-0.75576 3.041534,0.31853 6.193569,0.12082 9.207391,-0.38569 -0.854755,-0.42725 -4.987068,-0.27947 -1.804093,-0.91566 14.61884,-1.50905 29.332496,-1.12415 44.005563,-1.20944 11.106477,0.0377 22.233443,-0.14305 33.306163,0.87783 6.19304,0.31389 12.43502,0.53208 18.59454,-0.29504 3.9335,-0.0984 7.85133,0.40691 11.78189,0.43191 -0.0461,-2.71877 -0.1501,-5.32453 0.34402,-8.03126 0.83259,-13.17868 1.52666,-26.40905 0.63224,-39.60408 -0.51316,-14.87382 -0.19808,-29.76805 -0.86751,-44.63576 -0.87405,-8.57612 -2.15763,-17.13993 -1.97803,-25.78339 -0.15088,-8.6087 0.32498,-17.237523 -0.25718,-25.831763 -1.00651,-2.86637 -0.41245,-6.35633 -2.443,-8.7709 -2.43904,-1.399806 -5.42573,0.21154 -8.07679,0.22142 -13.10087,1.32958 -26.30176,0.78097 -39.414359,1.93465 -8.145629,0.53902 -16.289729,1.50816 -24.465668,1.02667 -6.616263,-0.14687 -13.174276,1.00218 -19.790177,1.02972 -5.41577,0.23592 -10.889428,0.0281 -16.241275,0.98997 -0.861968,-2.10505 3.953007,-1.52565 5.421521,-1.81743 8.262641,-0.34019 16.541693,-0.42207 24.783036,-1.11986 9.172864,-0.19627 18.368524,-0.0777 27.500299,-1.12393 14.250143,-1.34029 28.616853,-0.5933 42.849983,-2.1218 2.65424,-0.56954 5.29111,-1.197222 8.04107,-0.896305 1.54443,-0.285489 4.54761,0.867965 5.25612,0.407878 -0.0611,-1.521496 -2.28382,-3.356282 -0.88642,-4.406303 2.69566,-1.145573 3.6901,-4.288226 7.1779,-3.733461 2.58256,-0.07658 5.30187,-0.683957 7.8044,0.128227 2.60533,1.148313 2.99126,5.144919 6.3762,4.586246 3.92389,-0.495951 7.92619,-1.168209 11.88316,-0.833001 1.78096,-0.05434 2.71012,-3.917739 4.81556,-4.996909 2.19991,-1.926566 4.78954,-4.343312 7.98876,-3.561646 3.23819,0.001 5.94285,1.588101 8.29284,3.678555 3.06925,0.683059 -0.22358,6.997132 3.45702,4.996033 3.88064,-0.231482 7.76446,-0.44538 11.62897,-0.877488 5.65068,0.132718 11.29487,0.696511 16.95694,0.551846 1.70142,0.367119 5.8744,-0.858737 6.10402,0.897878 -2.57722,0.616656 3.34947,0.04469 4.33691,0.150908 2.20943,-0.569699 3.47317,0.961857 2.21567,2.86801 -0.53107,2.492402 2.45575,-0.868797 1.8446,1.583182 -1.9287,2.68852 1.02031,5.24532 1.25927,7.99218 2.13858,5.24537 3.39864,10.78256 4.57165,16.3069 0.98083,3.265453 3.04461,6.083133 3.9393,9.392013 3.66357,8.68682 6.81755,17.5992 9.47741,26.64349 2.79215,11.65059 6.08506,23.22804 7.74414,35.11288 0.0588,6.13287 2.59797,11.85171 3.40277,17.88211 0.75692,3.5126 1.31184,7.09455 2.3538,10.52916 1.74447,2.2695 0.60107,4.5648 1.68747,7.03648 1.82486,5.31197 2.835,10.84191 4.15616,16.28511 1.10845,2.39656 -2.04177,3.54297 -4.0812,4.12695 -2.77212,1.75863 -6.22106,0.86107 -9.31273,1.1058 -4.07554,-0.0224 -8.29503,-0.20795 -12.09211,1.55673 -1.97047,0.37359 -2.32272,1.77261 -0.0375,1.24622 4.82431,-0.82413 9.64439,-1.94733 14.54613,-2.18688 2.17792,0.93743 0.31787,2.52119 -1.10035,1.29875 -7.53094,0.44161 -14.72538,2.9301 -22.13357,4.15151 1.08294,-0.11879 3.99647,0.63757 1.27779,0.76887 -8.70297,-0.28255 -17.40455,-0.70329 -26.11457,-0.8052 -15.6413,-0.2605 -31.28272,-0.57758 -46.92409,-0.7977 -1.01447,-0.31161 -5.17382,1.10847 -3.87967,-0.29061 9.06118,-0.15248 18.13211,0.16326 27.1904,0.44468 1.17169,0.23557 5.6986,0.0797 2.1302,-0.40956 -9.04469,-0.71618 -18.13824,-0.47542 -27.20359,-0.42106 -1.3676,0.11161 -5.89934,0.59514 -2.67869,-1.127 1.01449,-0.77089 3.09296,-0.73543 3.6083,-1.38774 -1.73137,-0.78185 -5.16852,0.64021 -5.94633,-0.10892 3.33296,-0.72393 6.78895,-0.5372 10.16995,-0.85743 -2.14881,-0.34231 -4.01198,-0.49108 -5.96156,-1.0438 -1.94929,0.97227 -6.13673,-1.50605 -4.64973,-3.25112 0.11174,-2.52467 -2.11974,-4.71342 -3.40485,-6.81306 -1.36457,-1.7828 -2.45265,-3.92117 -4.43158,-3.93884 -1.90006,-1.57151 -3.23956,-3.80697 -4.8824,-5.49882 -0.73088,3.7139 -0.5528,7.58833 -0.45251,11.36612 1.15998,1.77958 -0.86319,5.13189 -2.39393,2.89976 0.0587,-1.22065 2.33203,-0.11183 1.26432,-1.89719 -0.16968,-4.52811 -0.0902,-9.1056 0.41164,-13.60676 2.28704,-0.79534 1.39316,-4.31205 1.52647,-6.37089 -0.36502,-3.46322 -4.78962,-5.17984 -4.17995,-8.90589 -0.008,-1.29785 0.8198,-3.48978 -1.01332,-3.3464 1.72572,-2.2436 0.67013,-5.2598 0.68249,-7.88762 -0.6131,-1.83234 2.53108,-1.30005 1.71949,-3.64619 -0.20534,-1.17138 0.40153,-6.68194 1.3599,-3.1237 0.43282,3.04384 -1.37487,5.8364 -1.20897,8.74903 1.09008,3.70238 -0.63359,7.46506 -0.0947,11.18129 0.63669,1.62475 2.07259,2.7483 3.12614,4.10335 0.26711,-3.21712 0.41734,-6.44713 0.58019,-9.66513 2.38828,-0.55912 0.86746,4.26265 1.00142,5.94094 0.0738,2.89073 -0.83386,6.22171 1.23071,8.64126 2.31192,2.90917 2.78024,6.73841 4.51147,9.96817 1.01446,3.41705 3.94525,5.76353 5.21112,9.07519 1.0615,2.08251 0.34928,5.82839 3.89741,4.95916 2.61265,-1.2129 5.37401,-0.0415 8.11462,-0.25304 12.29974,0.16259 24.60614,0.45607 36.90543,0.19807 3.61121,-0.83096 7.39057,-0.75755 11.09423,-0.60118 7.73703,0.96731 15.56305,0.5791 23.33574,0.31317 3.53715,-0.0741 7.03828,-0.52022 10.51054,-1.14692 1.81103,-0.70527 6.02872,0.87661 6.38834,-1.05574 1.38804,-2.34613 0.80855,-5.11198 1.01326,-7.76472 1.68312,0.97508 0.17651,5.09953 1.34667,7.09693 1.68289,1.22596 3.95309,0.40111 5.91239,0.37926 1.93346,0.10824 -0.75907,-2.19323 -1.36647,-2.58254 -0.20458,-2.26123 3.0588,0.77803 1.67703,-1.78185 -1.03469,-2.31222 -1.23354,-5.23527 -2.20618,-7.33666 -2.13229,-0.74692 2.77491,-1.39288 0.61774,-2.98631 -1.70194,-2.30152 -1.32815,-5.32897 -1.71191,-8.04241 0.0427,-1.87685 -2.89493,-2.46611 -1.32293,-4.09654 -0.89503,-2.00656 -1.01946,-5.28509 -2.58414,-6.44636 -1.07425,1.81165 0.81502,4.42992 0.33404,5.49764 -2.1841,-1.27719 -1.13387,-4.72413 -1.6486,-6.93313 -0.25194,-2.90598 -0.31255,-5.84076 -0.51829,-8.73693 -1.36329,-2.88858 -1.73338,-6.09604 -1.80775,-9.2558 -1.88549,-2.06187 -0.80195,-5.28566 -1.09846,-7.90615 -0.1417,-1.45884 -0.48585,-2.33272 -0.69817,-0.41118 -1.2112,5.45727 -0.63263,11.33395 -3.33819,16.41359 -1.11624,2.77767 -3.64037,4.65389 -5.21781,7.07636 -1.93573,-1.30767 1.70849,-3.15098 1.68422,-5.02952 1.47876,-1.48143 3.41976,-3.90177 2.97083,-5.97563 -0.52871,1.41326 -2.44468,0.44938 -2.88036,2.40608 -0.86314,0.74965 -1.79252,1.84914 -2.6908,0.52892 -2.57738,-2.34147 -6.22555,-2.93598 -8.84742,-5.16601 -1.47853,-3.40829 1.68602,-5.14878 4.33319,-6.14488 0.4832,-2.35721 4.16842,-2.34264 3.43025,-5.18143 1.50679,-3.00747 0.095,1.69027 2.1488,1.74356 2.33143,1.70421 4.05676,-1.79324 6.60286,-0.2988 -0.81926,1.36852 -5.57828,-0.0494 -2.88979,2.43922 -0.15563,1.46268 2.76028,3.52522 2.90436,1.53668 0.54413,-3.80941 0.0597,-7.66402 0.25677,-11.4759 0.20234,-1.60809 -0.057,-4.55975 -0.63897,-6.64488 -0.76719,-3.40068 -2.44244,-6.47563 -4.40965,-9.30283 -0.40644,-1.33778 -2.10357,-2.46357 -0.65567,-3.4515 -0.59848,-1.01629 -1.07658,0.969 -1.33515,-0.96024 -1.40988,-4.09371 -4.89302,-7.07869 -8.43275,-9.36596 -2.35407,-2.4315 -5.0672,-4.75002 -8.35845,-5.78888 -2.78036,-0.30574 -5.65638,-1.51487 -8.60218,-1.63791 -5.39397,-1.21613 -11.08707,-1.32358 -16.43642,0.18751 -2.54336,0.80911 -5.67441,0.35347 -7.86392,1.89717 -2.80733,0.67855 -5.67471,1.80281 -8.00219,3.5089 -0.52464,1.21757 -0.64148,1.26118 -0.33507,2.24251 -1.79294,-0.35655 -3.19777,1.84327 -4.49435,1.86169 0.71253,-2.54361 3.53448,-3.95972 5.37793,-5.73322 3.08229,-2.18865 6.69651,-3.70759 10.48187,-4.01327 6.83679,-1.21997 13.92126,-3.1422 20.82104,-1.19996 3.94354,1.03787 8.17884,1.21842 11.88043,3.02359 2.13438,1.62904 4.86826,2.23707 6.73884,4.19171 3.18662,2.93787 5.7424,6.45043 8.34077,9.88681 1.87373,2.04722 2.44248,5.4627 3.91179,8.00505 0.68146,1.23679 1.43151,5.21123 2.19187,4.9451 -0.70388,-4.39297 -2.1203,-8.64369 -3.16179,-12.96493 -2.25102,-7.02724 -4.4931,-14.07551 -7.23014,-20.9297 -1.71839,-3.62891 -2.79945,-7.52852 -4.80104,-11.02799 -1.66791,-4.134873 -1.94938,-8.670813 -3.40115,-12.883253 -0.13474,-1.50151 -1.58822,-3.41611 -0.99108,-0.59941 -0.62972,2.66316 -1.19598,-1.58201 -1.34849,-2.50837 -1.00638,-2.55368 -0.98114,-6.4017 -3.88088,-7.52414 -3.67081,-0.45883 -7.40443,-0.45349 -11.09482,-0.24168 -3.46441,0.72456 -7.08689,0.18976 -10.60708,0.18011 -2.89483,0.0236 -5.62352,-1.01133 -8.53413,-0.78587 -2.96081,-0.128 -5.98444,0.20682 -8.8987,-0.38106 1.66115,-1.96445 5.36784,-0.29706 7.86062,-0.60907 6.52854,0.04 13.05025,0.3944 19.57279,0.56999 3.48832,-0.65831 7.11869,-0.17808 10.63881,0.14709 1.92008,0.82164 2.24695,-0.27853 1.37645,-1.85495 1.41209,-1.959937 -0.34767,-4.555819 -2.86808,-3.585855 -2.46756,0.384545 -4.93529,1.171848 -7.46876,0.619036 -4.72211,-0.739492 -9.55727,-1.115998 -14.32649,-0.726625 -5.22649,0.71506 -10.53028,0.399591 -15.7953,0.584902 -1.33669,0.689437 -1.0411,3.288462 -1.29326,4.718782 -0.17581,1.58608 0.85077,4.44089 -0.22671,5.12967 -0.0696,2.08774 -1.48802,4.80644 -1.96632,7.18171 -0.79816,2.70291 -0.87875,5.56225 -1.66835,8.25422 -1.34734,1.30367 -0.0326,1.09702 0.64899,1.55338 -0.76234,3.086183 -1.32422,6.231243 -1.66322,9.403783 -0.0617,2.3878 -1.51349,4.97063 -0.42889,7.19987 -0.56994,2.71456 0.73779,5.4622 -0.15088,8.05836 -0.35999,2.93767 1.06308,5.85955 0.92435,8.66946 -1.39985,-1.9267 -0.69367,-5.52769 -1.70001,-7.98939 -1.14573,-4.56067 -0.74093,-9.35264 -0.74325,-14.01546 0.30952,-2.9973 0.37842,-6.0938 0.82556,-9.02415 0.37889,-3.164553 1.0309,-6.390873 2.06116,-9.471053 0.9445,-4.87309 3.53372,-9.40191 3.3241,-14.48422 0.0562,-1.61465 0.11114,-3.22931 0.16672,-4.843982 -3.53286,0.09432 -7.0639,-0.153827 -10.53323,-0.841176 -2.55893,-0.468465 -4.61455,-0.115876 -7.22317,0.211316 -2.37143,-0.192902 -4.17673,0.431165 -4.30124,3.010452 -0.97704,2.57628 -3.25853,5.36077 -2.33987,8.04324 -1.20086,2.24143 -1.87811,4.15484 -2.72237,6.69427 -1.31446,3.59009 -3.90149,6.83564 -4.12822,10.727333 -1.03445,1.97999 0.60683,5.56385 -1.84438,5.92457 0.37278,1.55062 -1.61044,4.39249 0.8322,4.07565 0.19046,2.69211 -2.57037,5.11256 -1.45718,7.88497 0.62433,2.77931 -1.13115,5.62895 -0.29903,8.48789 0.30196,4.14041 0.46871,8.34203 1.80704,12.30818 -0.7879,2.41556 0.31307,5.09046 1.10137,7.48291 1.15276,2.17296 1.36065,5.48925 3.57792,6.74829 1.73156,-2.75011 5.81708,3.88017 2.27823,2.82901 -1.16025,-0.68176 -3.88798,-2.36324 -2.24477,0.35872 2.27758,3.69544 4.81514,7.23016 7.6751,10.49046 3.48233,4.65773 7.7574,8.66808 11.93577,12.69397 1.2206,1.2524 2.95698,1.62225 4.13037,2.96747 0.034,-1.94862 -0.54003,-4.0497 0.2506,-5.8777 1.5674,0.19447 2.44255,3.06145 3.68988,1.82315 1.22612,0.89218 2.43748,1.5422 3.47019,1.61557 -0.86936,1.16935 0.29043,5.77687 -2.09213,3.25684 -1.22612,-1.53526 -4.09367,-0.55436 -3.66739,-3.42035 0.17639,-1.75223 -0.85467,-1.87687 -0.61658,-0.12508 0.21875,2.22791 -1.03653,3.66239 1.65541,4.62218 2.20606,1.01335 3.22137,2.88027 5.25126,3.37512 0.85832,0.39631 2.85969,1.81388 1.74016,1.79281 2.19582,0.62571 4.60261,2.11067 4.97218,4.29041 0.85805,0.7143 3.78103,3.2239 2.23171,0.53577 -1.0581,-1.83409 1.54212,-1.95754 0.56148,-3.65891 1.88231,-0.82009 4.65455,0.52784 3.4097,2.82456 0.81048,1.90242 1.7026,3.88895 2.78405,5.61947 2.24004,1.22372 4.35921,2.73688 6.76938,3.59544 -1.28667,-2.43512 -4.62979,-4.12517 -4.01224,-7.35563 2.19614,-0.39629 2.05327,5.43971 3.41187,2.37743 3.11694,0.54466 5.08433,3.76777 7.60476,5.54011 1.19729,2.33188 -2.93853,-0.17449 -4.07377,-0.10375 -2.06971,0.71849 2.47518,2.02405 3.11597,2.61661 3.24809,1.22969 6.20828,3.05354 9.49039,4.20713 2.66707,0.89047 5.14474,1.96962 7.39684,3.57851 2.39651,1.26107 5.03106,1.7729 7.65358,2.28096 1.71318,0.91919 4.79269,0.40035 5.7556,1.99247 -1.35819,0.009 -4.27655,-1.64458 -4.73035,-1.01038 2.42377,1.78958 5.21013,2.17201 7.72917,0.8372 1.14615,-0.0539 4.9581,1.72982 4.34881,-0.51257 -0.90765,-0.30029 -6.15986,0.51749 -3.46439,-0.76561 0.77089,0.21446 4.96388,-1.09 2.78387,-1.03051 -2.46489,-0.22971 1.57618,-1.1751 -0.7948,-1.75432 0.68085,-1.91754 4.47634,-1.1151 5.41206,-1.43962 0.61984,-0.76509 0.79772,-2.97039 -0.57334,-1.57955 0.10824,-2.47412 -0.72245,-5.22637 0.27446,-7.54435 1.12319,-1.79984 -0.33763,-5.27883 -2.41582,-6.10271 -1.9717,-1.88814 -4.01385,-3.14128 -6.02555,-4.85501 -0.77713,-2.46624 -3.80898,-0.75202 -5.41811,-2.87847 -3.28844,-2.12075 -7.15055,-3.27456 -10.15597,-5.82706 -3.64063,-1.91365 -7.52589,-3.36666 -10.98368,-5.63773 -5.66521,-3.57864 -11.83927,-6.55453 -16.56102,-11.4174 -4.62757,-3.5685 -9.30175,-7.19491 -13.07295,-11.71536 -2.45084,-2.97373 -5.08034,-5.81183 -7.40183,-8.88347 -1.79986,-2.29362 -2.7133,-4.71982 -3.48278,-7.42787 -0.54543,-0.98495 -2.97978,-5.0191 -0.76008,-3.77341 1.85257,3.00757 3.42128,6.20098 4.64667,9.49708 1.30122,2.83149 4.04889,4.46958 5.63415,7.10997 1.14487,2.74935 2.40702,0.98162 3.25488,-0.78328 2.08863,-2.53622 6.10122,-0.17202 7.04757,2.39808 1.08532,2.00669 0.78831,5.0118 -1.72362,5.64391 -0.14147,-1.16462 0.77819,-3.63252 0.67379,-5.27322 -0.9586,-3.59106 -0.13856,4.26478 -2.37751,2.18477 0.23512,-2.32566 -3.37633,-0.0743 -2.15344,-2.81234 0.61449,-4.60603 -4.02397,0.89357 -1.2785,2.15369 2.66196,1.41229 3.13846,4.61414 5.78964,6.09124 1.71192,1.60825 4.19976,2.42957 5.37944,4.53094 1.98657,1.79728 3.74258,3.53072 5.93,5.11024 3.6623,2.69025 7.78125,4.64118 11.74621,6.82323 1.54555,0.54044 -1.63373,-1.91918 0.76137,-1.99744 2.8173,1.27324 6.25112,1.11364 8.76288,2.9747 1.03033,0.77282 4.30707,4.52602 1.21681,3.61162 -0.39766,-0.9838 -1.78475,-0.96186 -1.93104,-2.03391 -0.77885,1.17935 -1.67464,-2.34358 -1.39499,0.38618 2.15905,2.87291 6.02698,3.5733 8.85318,5.62542 1.46336,1.46433 4.77776,0.83406 5.6664,2.02468 -1.02275,1.10259 3.27158,1.63749 4.12203,2.7624 1.33803,1.90101 3.07268,-0.20593 4.01071,2.26752 1.75246,2.65553 4.16373,4.86159 5.70175,7.64348 -0.91164,1.88715 0.65326,4.79839 -0.36763,7.16903 0.15,3.0021 -1.0915,5.78898 -3.31865,7.4387 -0.24213,1.09675 -2.75858,1.0959 -0.6862,2.38838 -0.80325,2.2927 -4.7012,1.24643 -6.83453,1.58193 -2.07096,0.15607 -3.47707,1.28343 -5.3709,-0.35845 -2.57091,-1.11764 -5.18121,-2.22396 -7.94955,-2.82191 -2.76069,-0.76759 -5.61422,-1.71406 -7.63443,-3.84664 -5.28799,-3.32177 -11.37107,-5.02857 -17.26094,-6.96325 0.88189,1.4151 1.3799,3.07576 2.16799,4.4812 1.00639,0.32146 4.94385,-2.53559 3.70463,-0.29012 -3.39821,1.32422 -6.99356,2.47898 -10.6943,1.99347 -3.51338,-0.19223 -7.11187,-0.37271 -10.45806,-1.54422 -2.41318,-1.88312 -0.37814,2.74144 -0.34282,3.90691 0.36568,0.95234 0.94575,5.44141 -0.31128,4.29364 0.90039,-2.76386 -0.33791,-5.69643 -1.47814,-8.1412 0.16178,-1.79704 -3.28554,-1.23192 -4.59689,-2.38798 -1.23887,-0.0853 -1.24785,0.95539 -1.88183,-0.70143 -0.75029,-0.94708 -5.77258,-3.6316 -3.30156,-0.82728 2.0132,2.4472 4.12667,4.84645 6.32399,7.10764 -1.39801,1.29494 -2.71254,-2.97276 -4.0498,-3.73849 -2.43495,-3.15352 -4.97394,-6.24102 -8.13546,-8.70427 -2.02551,-2.08976 -4.56493,-3.63654 -6.13144,-6.13754 -1.85804,-2.09409 -2.56044,-4.6041 -4.10751,-6.70832 -1.45991,-2.88382 -2.21561,-6.05654 -3.48088,-9.02363 -0.88255,-1.21472 0.24127,-4.45654 0.55998,-1.39576 1.38575,0.45548 5.05217,-1.44119 2.43657,-2.65447 0.58151,-0.57509 2.33882,0.59249 1.14031,-0.99555 -1.58597,-0.44115 -2.91292,5.18719 -3.08397,2.70765 -0.0177,-1.0171 1.73231,-2.47682 0.59133,-3.19637 -0.69659,-0.912 -3.52261,-2.08755 -1.36419,-0.46226 0.96606,0.43561 2.27699,1.66371 0.42635,0.79565 -1.97108,-1.27353 1.3763,2.55068 -0.83888,0.81416 -1.33394,-1.25839 -2.58092,-5.05823 -4.24636,-3.25453 -0.10501,-1.73083 2.01034,-4.07682 -0.80516,-4.04387 -2.03542,-1.55947 0.26551,-2.12152 1.26766,-0.45486 3.13866,-0.0463 -1.25969,-3.09736 -1.85096,-3.16657 1.05053,3.48195 -5.35042,-3.80054 -1.31683,-1.83389 0.99472,0.87531 3.55323,2.48154 1.61682,0.2057 -1.60446,-1.56387 -2.9499,-3.26542 -4.8756,-4.7129 -0.41973,-2.15003 2.04338,0.9421 2.83648,1.56726 -1.60639,-2.87551 -3.63191,-5.91508 -5.30175,-8.88206 -0.10698,-2.23786 2.67462,2.25077 1.71133,0.0319 -0.60875,-2.55587 -3.15692,-3.86319 -3.01767,-6.55063 -3.29844,-0.81165 1.54759,-3.73714 -0.40664,-5.61419 -1.76952,1.29482 0.35336,-1.73567 -1.0293,-2.30552 3.20158,0.16168 -2.47033,-4.83163 0.77154,-2.77158 0.32012,-0.49117 -0.51489,-4.44491 -1.28194,-2.41179 -0.11925,-1.30818 -0.93826,-4.52036 1.09086,-4.00352 -0.71888,-0.96085 -1.34574,-3.34892 0.19223,-1.89679 0.85051,-2.18576 -0.29682,-3.59764 -0.61725,-5.36405 2.58722,-0.66512 -2.35891,-4.56273 0.61858,-3.54188 0.65098,-0.79499 1.34884,-2.44105 0.0583,-1.03008 -0.10678,-1.36918 1.55718,-3.62949 -0.60889,-3.85913 -0.23302,-1.55612 -0.77811,-2.88652 1.27516,-2.01615 -0.93307,-1.70179 -0.75752,-2.82011 0.47613,-4.16882 1.60968,-1.04697 -1.61074,-3.04757 0.35989,-3.86409 2.72917,1.44831 -2.4097,-3.626753 1.13137,-3.230353 -0.3216,-1.36755 -1.2067,-1.9638 0.32405,-2.67643 0.51603,-1.6455 2.052,-4.46447 0.8247,-5.35579 0.80121,-1.04056 1.95079,-3.88711 1.91312,-4.33174 -2.00605,0.79783 1.48957,-2.40882 1.57655,-3.21663 0.10105,-2.2459 1.88104,-3.99247 2.96482,-5.90094 -4.16092,0.44177 -8.54039,0.38342 -12.44269,-1.21207 -2.23829,0.223 -3.01017,-1.651065 -5.02377,-1.699055 0.81238,-0.968571 3.33875,0.399299 3.50062,-0.818629 1.28768,-2.546882 -4.9189,-1.223655 -2.06098,-2.725029 1.62017,0.147763 3.65695,-0.511851 1.32092,-1.776063 -2.49602,-2.311874 -5.86101,-0.407271 -8.8336,-0.722807 -1.91804,-0.437969 -2.45866,0.84414 -2.89492,2.104399 -2.77929,0.0238 -3.06195,2.09353 -1.83925,4.157619 1.97826,5.120465 0.91448,10.717705 1.90972,16.021925 0.80876,5.60454 1.12604,11.330343 3.10371,16.696933 0.91292,2.91214 2.65456,5.58049 2.79491,8.69994 0.69784,1.29727 0.97348,4.95164 1.9225,4.9542 -0.25399,-3.40517 -1.85518,-6.56976 -2.24429,-9.97399 -0.64446,-4.67212 -1.76197,-9.245813 -3.05958,-13.773433 -0.71292,-3.20342 -1.43697,-6.50953 -1.3284,-9.79216 1.51548,-1.33382 -0.71277,-4.46208 -0.85359,-6.45195 -0.55992,-2.83206 -1.11401,-5.790095 -0.62004,-8.664842 1.58206,-0.248706 0.63944,3.771662 1.19147,5.171172 0.14891,4.35562 2.48282,8.3041 2.58598,12.65029 -1.82652,1.2089 0.0139,4.5478 0.0364,6.57699 1.1554,4.37282 2.80233,8.662123 2.96411,13.237253 0.12064,2.49149 0.74683,4.88483 3.60364,4.76786 2.4325,1.33001 1.69349,4.60028 2.13115,6.19828 3.41899,1.88507 1.664,5.75331 -1.76642,5.89156 -0.72924,0.41526 -2.65508,0.15966 -1.92803,1.39133 0.7455,2.68764 -0.006,5.48339 -0.66182,8.09883 0.32618,3.61154 1.06488,7.19964 1.12023,10.8482 0.0366,4.09339 0.58567,8.14261 0.97202,12.20513 -0.16376,2.77573 2.66391,4.18787 3.83108,6.49323 2.69223,2.43682 0.2451,6.66814 -3.11343,6.2734 -1.39196,0.36701 -1.93776,-0.57228 -1.33439,-1.34052 -3.08904,0.33472 -0.4467,-3.95959 -3.72646,-3.68926 -1.6341,-0.49337 -0.69616,-0.2271 -0.55358,0.68636 -1.31807,-0.21716 -3.77499,-1.49879 -3.49552,1.30935 -0.11549,2.41322 -2.53812,2.1803 -3.79155,1.12983 -0.57303,3.26789 0.12282,6.65162 0.0483,9.96523 0.26573,13.42703 0.29263,26.86723 -0.38832,40.28229 -0.21585,3.13628 0.21262,6.34781 -0.39961,9.43474 -2.23405,1.67735 -5.46417,-0.32975 -8.12477,0.12239 -2.93542,-0.0328 -6.03394,-0.33244 -8.81853,0.75021 2.98546,0.24021 4.75063,3.42282 7.78043,2.84723 1.16431,0.30631 5.00188,-1.0574 4.72347,0.66398 -2.44112,0.83641 -5.22397,0.28966 -7.79919,0.50251 -6.95291,-0.0487 -13.90222,0.19918 -20.8242,0.86021 -4.07398,0.53856 -8.00379,-1.28109 -12.078876,-0.71427 -18.370648,0.36806 -36.749054,-0.17539 -55.118491,0.22322 -5.98648,0.37486 -12.080633,0.85943 -17.815582,2.70304 -1.765168,1.54445 -0.524759,-1.73503 1.189856,-1.06558 1.330507,0.422 4.613183,-1.35238 1.926674,-1.66423 -3.097109,-0.41228 -5.431164,1.9026 -8.543494,1.4983 -1.751243,0.0905 -3.502734,0.17651 -5.25408,0.26521 -0.05223,0.96406 -0.193104,3.78183 -1.52974,1.71527 z m 23.597406,-3.30959 c 1.913085,-0.2364 5.426392,-0.46759 6.431453,-0.66287 -4.102166,0.13676 -8.285689,-0.11835 -12.313671,0.76943 -2.069091,1.35024 3.161893,-0.0225 5.882218,-0.10667 z m -17.664662,0.16169 c 2.941424,0.58391 1.812769,-2.43759 -0.463889,-1.77568 -1.422934,0.27194 -4.0471,-0.8103 -1.22275,-0.9423 1.819684,-0.004 -2.674163,-1.21501 -2.427822,-2.63121 -0.311828,-1.63598 2.942741,0.91558 1.519187,-0.68234 -1.126337,-1.80186 0.649011,-4.78 0.222387,-7.06791 -0.09355,-1.45954 0.264684,-4.0589 -0.455308,-4.82204 -1.011376,5.25464 -1.533087,10.61303 -1.808211,15.95568 0.233638,0.88384 -0.280527,2.94261 1.212476,2.21715 1.129814,-0.18976 2.280348,-0.23649 3.42393,-0.25135 z m 78.146543,-0.9043 c 1.257686,-0.13003 2.141504,-0.26908 0.369904,-0.4753 -5.608373,-0.66177 -11.296189,-0.26817 -16.934786,-0.28858 -3.713286,0.1518 -7.474178,0.0112 -11.149921,0.57616 2.336355,0.66126 5.158977,0.25731 7.681521,0.40866 6.67696,-0.009 13.362371,0.0883 20.033282,-0.22097 z m 16.874211,-0.42028 c 0.78262,-0.079 2.44157,-0.19335 2.68508,-0.25102 -3.41397,-0.093 -6.82367,0.1316 -10.21977,0.4644 2.51392,0.04 5.02854,0.0112 7.53469,-0.21333 z m -46.240654,-0.56727 c -2.111829,-0.81216 -5.392989,-0.11722 -7.924053,-0.25672 -2.888481,0.1152 -5.792569,0.0851 -8.667092,0.39388 5.289214,0.37415 10.62651,0.10847 15.927654,-0.0525 l 0.466842,-0.0415 z m 37.868764,0.21378 c -1.29723,-0.57686 -5.527474,-0.22276 -1.99793,0.17786 0.26838,-0.0476 2.41593,0.45948 1.99793,-0.17786 z m 101.37703,0.10285 c -1.55757,-0.26979 -0.97803,0.47954 0.15068,0.0604 l -0.15068,-0.0609 z M 22.079349,231.31543 c 3.186237,-0.484 -4.663849,-0.86489 -4.117853,0.26164 1.397771,0.54478 2.706914,-0.39638 4.117853,-0.26164 z m 105.105751,0.33488 c -0.98572,-0.79842 -4.41766,0.20951 -1.53818,0.30316 0.11945,-0.051 2.67936,0.10914 1.53818,-0.30316 z m 118.5457,-0.009 c 1.57788,-0.24437 6.40722,-0.70001 5.89665,-1.59306 -1.7364,0.28993 -4.43893,1.57609 -5.77013,1.08144 0.48104,-0.30308 3.80189,-0.71625 1.91484,-0.75041 -7.28174,-0.47907 -14.58509,-0.8092 -21.86035,-1.2416 -0.46826,0.76974 -3.94969,1.27773 -1.94785,0.30467 0.80634,-1.001 -3.16102,0.16236 -4.0596,-0.14642 -14.44766,0.3589 -28.90977,-0.0546 -43.35181,0.42908 4.09047,0.54789 8.28428,0.19829 12.41335,0.44093 7.16612,0.12419 14.31812,0.5852 21.46889,0.99667 9.42526,0.29133 18.86977,0.0227 28.27784,0.73603 2.34145,0.0541 4.68795,-0.0157 7.01817,-0.25728 z M 30.071396,231.3327 c 1.501249,-0.21917 1.678563,-0.32427 0.05475,-0.27385 -1.871167,0.004 -3.726968,0.2626 -5.580182,0.4928 1.843977,0.0249 3.698801,0.082 5.52544,-0.21895 z m 26.879484,-0.22254 c 3.484396,-0.11543 6.987766,-0.0892 10.454502,-0.45692 -2.522164,-0.77489 -5.482587,-0.36191 -8.172463,-0.49099 -7.26647,0.10173 -14.553502,0.22604 -21.773809,1.07643 -1.445146,-0.0427 -6.450765,0.35667 -2.473914,0.3754 7.322506,-0.1134 14.643876,-0.38122 21.965684,-0.50392 z m 28.291161,0.29068 c -2.050557,-0.0481 -6.098939,-0.11071 -6.917782,0.0772 2.303139,0.0202 5.90478,0.10307 7.440376,-0.0555 z m 29.720129,-0.0853 c -2.88541,-0.56063 -5.9993,-0.1801 -8.97097,-0.23811 -1.13825,-0.0505 -3.0173,0.19268 -0.86466,0.30227 3.25985,0.1527 6.60943,0.46245 9.83563,-0.064 z M 33.33006,230.7486 c -1.55755,-0.26979 -0.978064,0.47954 0.150728,0.0604 l -0.150728,-0.0608 z m 86.82268,-0.11677 c -2.38891,-0.29609 -4.79889,-0.21895 -7.19982,-0.19425 2.85976,0.17449 5.7217,0.47559 8.58752,0.41257 -0.45664,-0.10734 -0.92566,-0.14394 -1.3877,-0.2185 z m 7.86954,-0.0651 c -2.49372,-0.57756 -5.13133,-0.50775 -7.66765,-0.36685 2.57569,0.32416 5.60028,0.95085 7.9764,0.57302 z m -87.820906,-0.1426 c -1.337309,-0.28145 -1.11315,0.52579 0,0 z m 35.318961,-0.31877 c -2.808664,-0.304 -5.680435,-0.37471 -8.494513,-0.22859 2.797211,0.25713 5.723507,0.57559 8.494513,0.22859 z m 35.500675,-0.0263 c -1.55755,-0.26979 -0.97803,0.47952 0.15075,0.0604 l -0.15075,-0.0609 z m 63.5364,-0.12306 c -2.35261,-1.2488 -1.16062,1.07641 0,0 z m -70.1438,-0.12733 c -0.79399,-1.27566 -0.92889,0.71843 0,0 z m 3.41703,-0.24583 c -0.8399,-0.56532 -4.27426,0.4075 -1.55067,0.33121 0.67354,0.007 3.68291,0.0698 1.55067,-0.33121 z m 13.96855,-0.15338 c -0.98321,-0.56168 -6.20252,0.36782 -2.77381,0.40591 0.92543,-0.10645 1.87099,-0.1682 2.77381,-0.40591 z m -5.42078,0.009 c -1.33997,-0.31051 -0.6682,0.61319 0,0 z m 127.34314,-0.15119 c -3.7325,-0.29141 -7.47835,-0.21064 -11.21828,-0.18369 4.68267,0.2905 9.37262,0.45805 14.06473,0.43316 -0.9487,-0.0831 -1.89849,-0.16707 -2.84645,-0.24935 z m 6.69752,0.22187 c -1.08418,-1.08325 -0.94221,0.47348 0,1.2e-4 z M 50.073197,229.10358 c -1.339971,-0.31051 -0.668198,0.6132 0,0 z m 29.14499,-0.0276 c -2.791058,-0.24976 -0.868447,0.48995 0,0 z m 34.655643,-0.007 c -3.00851,-0.17291 -0.83731,0.4563 0,0 z m 9.20208,0.0341 c -1.33997,-0.31051 -0.66821,0.61319 0,0 z m 96.03235,-0.11341 c -2.29391,-0.27855 -5.10761,-0.15944 -7.60331,-0.22519 -7.2575,-0.0157 -14.51879,-0.0804 -21.77358,0.12733 9.49594,0.38133 19.04286,0.41872 28.55522,0.17471 l 0.36234,-0.0236 0.45933,-0.0528 z m 29.38527,0.0939 c -1.33796,-0.28127 -1.1124,0.52566 0,0 z M 91.085414,228.72103 c -1.840686,-0.0469 -5.719687,-0.1134 -6.314558,0.079 2.106734,0.0225 5.512759,0.10667 6.817175,-0.0568 z m 93.000536,-0.29388 c -2.60166,-0.22778 -5.35461,-0.159 -7.91891,0.29157 2.59686,0.25717 5.31122,-0.0541 7.91891,-0.29157 z m -128.731493,-0.664 c 14.525236,-1.15155 29.05871,0.57963 43.590748,0.52048 2.909585,0.24008 5.113435,-0.88845 7.718345,-0.007 1.40596,0.19986 6.33865,-0.15495 2.56161,-0.56981 -13.772691,-1.01697 -27.60152,-0.98059 -41.404721,-1.05654 -10.355329,0.0388 -20.734945,0.22587 -31.047717,1.19143 -2.474044,1.29455 3.561009,0.65365 4.694222,0.71479 4.634585,-0.14462 9.267146,-0.40574 13.887513,-0.79464 z m 25.590024,0.32448 c -2.765689,-0.15136 -5.546345,-0.0494 -8.314931,0.0263 2.733657,0.25984 5.606601,0.50307 8.314931,-0.0263 z m 147.785419,0.30653 c -1.15889,-0.2283 -3.26324,0.18347 -0.91488,0.13945 0.0588,0.0112 1.83748,-0.0202 0.91488,-0.13945 z m 23.02865,-0.39131 c -1.88244,-0.38369 -5.29773,0.0323 -7.74731,0.10016 -1.13617,0.0406 -6.3419,0.45647 -2.63372,0.3999 3.46063,-0.0883 6.94173,-0.084 10.38103,-0.50004 z m 1.42323,0.41224 c -1.33821,-0.2812 -1.11212,0.52564 0,0 z M 68.582022,227.98114 c 0.301487,-0.46386 -3.482229,-0.20593 -4.748704,-0.25336 -1.759831,0.0485 -6.631275,0.14664 -6.608641,0.45313 3.78463,0.0355 7.582618,0.11835 11.357345,-0.19986 z m 134.686488,0.0712 c -1.84068,-0.0469 -5.7197,-0.1134 -6.31456,0.079 2.10674,0.0225 5.51276,0.10667 6.81717,-0.0568 z m 23.61922,-0.31722 c -1.55756,-0.26979 -0.97803,0.47954 0.15068,0.0604 l -0.15068,-0.0609 z m 10.47122,-0.12598 c -2.83707,-0.11992 -5.68671,-0.55708 -8.52137,-0.36146 0.81632,1.37717 4.73619,0.36494 6.66361,0.66737 1.46151,0.007 6.46918,-0.0202 2.53383,-0.25967 l -0.32654,-0.0225 -0.34953,-0.0238 z m -55.5055,-0.19851 c -1.33821,-0.2812 -1.1121,0.52564 0,0 z m 24.96131,-0.0254 c -1.18876,-0.16708 -6.58597,0.0658 -2.87034,0.11655 0.42188,-0.0202 4.13391,0.0642 2.87034,-0.11655 z m 17.90726,0.0112 c -1.5053,-0.25598 -2.67868,0.29389 -0.33444,0.1307 -0.15293,0.0622 0.88602,-0.0671 0.33444,-0.1307 z m 21.08367,-0.009 c -1.37986,-0.20279 -4.4343,0.16011 -1.24694,0.13047 0.0629,0.0225 2.50601,-0.0348 1.24694,-0.13047 z m 7.29237,-0.42412 c -1.26316,-0.88175 -6.80845,0.32506 -2.69152,0.29187 0.76022,-0.0887 2.38854,0.24709 2.69152,-0.29187 z m -57.84214,-0.57686 c -1.1625,-0.2212 -3.98411,0.15922 -1.26326,0.13249 0.0368,0.007 2.19779,-0.004 1.26326,-0.13249 z m 79.609,-1.09781 c 1.9259,-1.39937 -2.05533,0.55699 -2.97173,0.0231 -2.86952,0.7419 2.78184,0.77812 2.97173,-0.0231 z m -10.2928,0.099 c -1.50528,-0.25599 -2.67868,0.29388 -0.33447,0.13069 -0.1527,0.0622 0.88605,-0.0671 0.33447,-0.13069 z m 13.7026,-9.22451 c -0.0339,-1.10791 -1.51422,-6.25802 -1.6689,-2.92606 0.42797,2.20532 1.62953,6.16153 2.42085,6.92415 -0.20637,-1.34043 -0.48052,-2.66965 -0.75195,-3.99809 z m -29.8649,-0.71998 c -1.77274,-0.88507 -4.2521,-2.12184 -5.84801,-2.31526 1.71271,1.09606 3.87019,2.28625 5.84801,2.31526 z m 20.3907,-2.33343 c -0.0483,-1.063 -4.43525,0.89022 -1.07625,0.42198 0.37397,-0.0714 0.79206,-0.14035 1.07625,-0.42198 z m -107.74503,-2.47201 c -1.38836,-2.80938 -1.74506,-6.44284 -4.21683,-8.53529 -1.25505,2.10878 -0.95412,5.3256 0.95564,7.05375 0.52019,0.67863 3.70481,2.78159 3.26119,1.48154 z m 55.8761,-0.0838 c -0.49099,-0.31783 -4.91562,-0.34395 -2.55954,-0.0847 0.59304,0.0586 3.73287,0.69074 2.55954,0.0847 z m 4.03757,-1.45678 c 0.1911,-1.32329 -2.64369,-5.22754 -0.0314,-3.14775 0.75921,1.34519 0.50017,5.06677 2.83697,3.57559 -0.26918,-1.91967 -1.90437,-3.36072 -1.94736,-4.99881 -1.60745,-0.64579 -5.26986,-3.81503 -4.37196,0.0308 1.12305,1.91954 -0.20638,7.08202 3.58949,5.04083 z m -7.12417,-1.10295 c 1.06869,-1.78859 -1.50639,-2.27673 -1.11327,-0.2203 -0.46296,1.07151 -0.65979,2.99417 0.64668,1.21607 l 0.26428,-0.47732 0.20233,-0.51849 z m -2.33867,0.443 c 1.45819,-2.51652 -1.95975,-4.06204 -0.0918,-6.3884 0.91373,-1.61824 -1.42301,-4.31491 -3.09596,-2.66718 -0.49411,-1.1147 -1.60473,-2.52322 0.51815,-2.14545 -0.70142,-1.35579 -2.70547,-0.3053 -3.87022,-1.27755 -1.63109,2.2798 -0.21944,-1.59778 -2.27469,-1.3317 -4.07504,-1.92966 1.96581,3.96786 -1.00771,4.08877 -2.55833,-1.33627 1.77179,2.6474 1.42305,-0.0784 -0.25176,-1.02231 -0.96157,-4.62973 0.3271,-1.9011 0.31899,2.36844 1.62688,0.65921 2.27544,-0.16708 0.74806,3.17283 -3.94411,4.98029 -6.11358,2.68452 -2.81408,-1.30953 -1.02257,-4.91667 -3.25503,-6.46631 -1.61568,-1.85695 -5.75675,-2.04289 -6.40224,-3.86624 0.40725,-1.24942 0.48629,-3.36046 -0.31391,-2.26842 -1.9532,-0.61134 -4.23728,-4.29261 -5.35063,-1.67212 -1.92736,0.13317 -5.5964,0.98623 -3.03931,3.43987 2.47614,1.72226 4.0198,-4.90199 4.46811,-1.12826 2.26414,-1.06565 1.88826,3.72288 3.13334,4.99069 0.58444,1.27494 0.62043,4.23298 2.14331,1.74276 1.00785,-0.6315 0.76256,-2.76467 1.57212,-2.96345 0.58474,2.41284 1.58563,5.17579 2.18628,7.179 0.16928,1.73461 -4.47346,3.58368 -1.9457,1.45593 1.58402,-1.30482 0.70831,-5.86778 -0.47748,-6.0733 -0.13528,1.74514 -4.54897,3.21016 -2.13044,4.68542 0.76346,-0.56995 3.90985,-3.42648 2.39243,-0.80076 -0.78265,1.01252 -2.30023,1.8274 -1.67143,2.81412 -1.74824,-1.83847 -2.84675,-4.00649 -4.7495,-5.53517 -0.9541,-1.45471 -2.46175,-0.30774 -0.64721,0.83363 2.0377,2.46824 4.41311,5.28642 7.75256,5.75313 1.7552,-0.38639 2.6988,-2.77565 3.37524,-3.88006 2.26863,1.26242 -4.19307,5.60546 -0.27865,4.93192 1.86959,-0.2591 0.17858,-5.61096 1.61941,-2.33401 0.0779,1.28536 1.09248,4.2059 1.64003,1.33162 1.47051,-0.31264 -1.59034,3.61687 0.048,4.14713 1.35166,-1.25379 1.95862,-2.91069 1.63145,-4.30057 2.19206,0.27763 0.67727,3.25118 -0.38686,4.34699 0.447,1.19581 3.13222,3.07591 1.80192,0.52411 0.58579,-1.11584 0.96031,-3.20676 1.64585,-3.89429 1.13852,1.40975 -1.91352,5.71509 0.71427,5.00443 0.23084,-1.26127 1.00128,-3.12042 1.19228,-3.99449 1.86947,1.30607 -2.10427,6.0511 1.67606,4.5354 1.2225,-0.98667 0.64158,-2.54677 0.53059,-3.16738 4.05996,-0.50899 -2.27781,5.96373 2.27299,4.81773 0.42641,-0.15674 0.6173,-0.61495 0.76228,-1.00544 z m 5.76014,-0.71791 c 0.64298,-1.72904 -1.76465,-3.51341 -2.00828,-0.937 -1.95296,2.13539 0.81746,3.62819 2.00828,2.4443 0,-0.50244 0,-1.00488 0,-1.5073 z m 9.94972,-2.21644 c -2.22746,-0.74288 -4.83823,-1.85551 -6.82384,-2.40253 2.5127,1.59922 5.46648,2.46045 8.29471,3.34955 -0.0588,-0.37208 -1.0936,-0.66824 -1.47087,-0.94702 z m -13.93187,-0.55809 c -0.48311,-1.5183 -2.22964,-2.08506 -0.64771,-0.18908 0.20031,0.30523 1.37034,1.3036 0.64771,0.18908 z m -14.43595,-0.0838 c -0.34351,-1.04409 -0.78375,1.14912 0,0 z m 17.74834,-1.04652 c -0.44412,-1.54604 -2.31039,2.04492 -0.19537,0.49982 l 0.14304,-0.23869 z m -18.27616,-0.73197 c -1.26186,-2.69767 -2.42858,3.03219 -0.0157,0.66757 l 0.0653,-0.31374 z m 15.41969,-0.36655 c -0.48929,-0.99355 -0.26093,-2.96947 -1.31136,-0.82575 -0.20165,0.71185 2.85129,2.99561 1.31136,0.82575 z m 1.18212,-0.70141 c -0.96299,-1.15698 -0.43415,0.28783 0.24944,0.50233 l -0.004,-0.14754 z m 1.67435,-0.95097 c -0.32778,-1.47485 -4.07061,-1.04786 -1.86727,0.051 0.79903,-2.14399 1.14336,2.23617 1.86727,-0.051 z m 1.33951,0.44866 c -0.78378,-1.14907 -0.34341,1.0441 0,0 z m -4.68823,-1.75809 c -0.53487,-0.98575 -1.01457,1.37768 0,0 z m -1.51748,-0.99505 c -0.77161,-1.44283 -3.56171,-1.52496 -1.0866,0.0225 0.318,0.1783 1.6497,1.14669 1.0866,-0.0225 z m -11.73009,-1.72814 c -1.98302,-2.89098 0.0853,2.92851 -6e-5,0 z m 1.31733,-0.59443 c -1.08958,-2.01504 -0.70636,1.2103 0.46379,1.14711 -0.0395,-0.42176 -0.29217,-0.77453 -0.46379,-1.14711 z m 9.2376,0.53847 c -1.6423,-0.58448 -4.4421,-4.23894 -5.18942,-1.5588 1.27216,-1.67355 5.21919,2.97335 5.18942,1.5588 z m 2.37232,-0.12374 c -0.54669,-1.27793 -4.34172,-1.11986 -1.38169,-0.28207 0.27903,0.16977 2.11627,1.71859 1.38169,0.28207 z m -23.79068,-1.77822 c -0.28088,-1.61956 -1.77761,2.06288 -0.14754,0.53332 z m -0.71113,-1.19741 c 0.60086,-2.08282 -0.88324,-2.64106 -1.732,-0.64877 0.0635,0.90388 1.26481,2.1525 1.732,0.64877 z m 10.41751,-0.0806 c -1.99978,-1.65899 2.84644,1.32768 0.74992,-0.58097 -2.65284,-2.24365 -0.84659,2.53902 -0.22631,1.09657 l -0.21772,-0.25018 -0.30589,-0.26549 z m 5.69786,0.88573 c -0.83698,-1.08402 -3.98166,-2.02582 -1.50693,-0.26579 0.40179,0.13653 1.10755,0.64153 1.50693,0.26579 z m 0.3323,-0.78654 c -0.58947,-1.13302 -4.18391,-2.16294 -1.58808,-0.47715 0.38773,0.10015 1.32947,1.10674 1.58808,0.47715 z m -19.75504,-1.39931 c 1.7645,-0.018 2.83148,-2.63102 1.83508,-3.6247 -1.09595,1.57371 -4.83422,2.57194 -2.78437,4.7595 0.48699,-0.12284 0.83216,-0.67103 0.94929,-1.1348 z m 15.16974,-1.6084 c -1.65657,-2.31178 -3.12468,1.48884 -0.4753,1.5347 1.57221,0.46703 1.85938,-0.8701 0.4753,-1.5347 z m -0.93755,0.57985 c -2.41197,-1.92553 3.44373,1.60461 0.41651,0.25834 z m -2.58161,-0.61544 c 0.15879,-2.84866 -3.75195,-0.50099 -1.13046,0.64501 0.57454,0.49645 1.2773,0.17135 1.13046,-0.64501 z m -11.62432,-1.38072 c 1.12983,-0.74789 1.85935,-2.43103 -0.12833,-1.41173 -1.16132,0.34491 -3.72681,2.98854 -1.17314,2.4991 0.48673,-0.29369 0.90133,-0.68811 1.30158,-1.08737 z m 9.41587,-0.72202 c -0.76654,-0.64603 -4.61698,-2.89294 -2.75548,-0.5723 -2.68379,0.32092 0.92689,1.28864 1.85274,2.22319 0.31557,-0.50871 1.03219,-1.00028 0.90274,-1.65089 z m 3.38869,0.91685 c -0.0748,-0.57969 -2.1726,-3.60995 -2.17925,-1.8066 -0.53783,0.85997 1.84638,2.82027 2.17925,1.8066 z m 3.57805,-0.67169 c -1.33374,-1.11182 -2.43572,-1.57048 -0.56153,-0.15248 0.0243,-0.0539 0.53882,0.52151 0.56153,0.15248 z m 69.785,-0.68239 c -1.26832,-1.61053 -1.34941,-0.0344 0.10959,0.46577 z m -76.14762,-1.05029 c -0.33451,-0.94818 -2.50816,-2.66538 -3.00751,-2.56274 -1.71217,1.79019 2.90691,4.8229 3.00751,2.56274 z m 75.0918,-3.43272 c 0.61154,-0.94677 -1.51509,-5.11577 -1.41224,-3.11277 0.25686,2.04251 0.36988,4.17947 1.22388,6.07094 0.46929,-0.7154 0.13788,-2.06905 0.18818,-2.95817 z m -1.26715,0.78874 c -0.4507,-3.0829 -0.61207,0.77589 0.0806,1.7053 0.10218,-0.56916 -0.0157,-1.14122 -0.0806,-1.7053 z m -77.50828,-0.15473 c -0.10126,-1.40041 -4.16429,-3.5887 -1.97781,-1.05575 2.53546,1.15393 0.21264,1.77622 -0.83714,0.44931 -1.89263,1.56118 2.97517,2.3655 2.81495,0.60644 z m -10.38111,0.33968 c 0.77798,-0.62678 3.04749,-1.33969 0.82962,-2.0049 -1.10066,-0.1637 -4.13504,2.77576 -0.82962,2.0049 z m 6.52928,-0.70125 c 1.49946,-1.30412 -0.0277,-5.24856 -1.29389,-2.56368 1.27512,0.63458 1.84474,1.69111 -0.0314,0.65034 -2.44345,0.25663 0.26146,2.93891 1.32526,1.91334 z m -7.53391,-1.5089 c 1.61383,-0.82406 4.52894,-2.05863 1.55602,-3.03863 -1.06419,-0.14462 -2.981,1.06536 -3.42049,1.77611 0.35469,1.38199 0.35445,2.52435 1.86447,1.26252 z m 5.50584,-2.17599 c -0.66699,-1.27995 -1.20866,-3.45307 -2.08003,-2.44243 -1.57584,-1.65662 -2.7359,2.38023 -0.10422,1.98371 1.49513,-1.94976 0.59403,0.85993 1.92415,1.36677 -2.56794,-1.35069 -1.65484,3.05912 -0.15484,0.84825 0.33908,-0.50682 0.55767,-1.14454 0.41481,-1.7563 z m 57.54027,-1.25401 c -1.45484,-1.38656 -3.47363,-0.64307 -5.05237,-1.89672 -0.91465,0.83178 4.58613,4.09804 5.05237,1.89663 z m -64.42781,0.46765 c 0.5885,-1.98219 -3.30984,-1.53512 -1.01239,0.17921 0.2509,0.44654 0.85175,0.16505 1.01239,-0.17921 z m 90.32519,-1.30661 c -1.11126,-5.91856 -1.06515,-12.03107 -2.82747,-17.83208 -0.55423,-1.56382 -0.14507,2.86896 -0.16933,3.43834 0.5735,2.96588 0.83242,5.98228 1.07037,9.00041 0.3081,2.0485 1.19112,4.54955 1.90312,6.09344 l 0.0755,-0.15158 -0.0521,-0.54837 z m -87.47879,-0.73601 c 1.27146,-2.93906 -3.11584,1.50093 -0.51561,0.57893 l 0.27042,-0.26065 0.24515,-0.31828 z m 75.52261,-1.32087 c 0.56712,-1.82688 2.12742,-4.01913 1.86097,-6.68153 1.08223,-2.8817 0.13968,-6.02427 -3.30845,-6.2432 -1.78432,-1.10483 -3.99162,1.61939 -4.77438,3.23897 -1.94269,1.24805 -6.06342,2.14139 -3.98646,5.31988 2.57527,2.10469 6.0282,2.7937 8.58526,4.94683 0.63747,0.47033 1.2243,-0.15495 1.62306,-0.58095 z m 4.24943,-3.3011 c -0.17112,-1.69336 1.17128,-4.2203 0.65442,-5.22426 -1.14692,-0.11925 -2.60473,-0.40235 -2.18347,1.23782 0.0703,1.54187 -0.73944,3.56342 0.24186,4.73765 0.53509,0.0999 1.1094,-0.23559 1.28719,-0.75121 z m -83.93841,-1.96088 c -0.38575,-1.91642 -2.40038,-1.35155 -1.1555,0.29056 1.3161,1.20798 3.2364,2.74367 1.1555,-0.29056 z m -3.03393,-0.52966 c -0.55122,-0.55066 1.41741,-0.10555 0.12776,-1.42916 -2.82232,-2.89502 0.52256,3.39421 -0.12776,1.42916 z m 1.04568,-2.03027 c -0.45271,-1.65318 -2.61637,-2.59831 -1.11849,-0.36126 0.1501,0.1545 1.00211,1.03938 1.11849,0.36126 z m -19.42107,-0.58605 c 0.70053,-1.59818 3.15901,1.82872 2.66603,-1.00805 0.037,-1.90092 -0.92091,-2.46507 -2.26956,-1.13571 -0.54454,0.51353 -3.66577,-0.16259 -2.57801,0.86648 0.52173,0.40884 1.92726,2.68407 2.18154,1.27728 z m -10.38115,-1.4711 c -0.70568,-1.49911 -2.60791,1.07438 -0.25796,0.21131 l 0.18865,-0.0952 0.0692,-0.1161 z m 9.12537,-1.27679 c -3.00851,-0.17291 -0.83732,0.45627 0,0 z m -9.76535,-2.77755 c 1.29357,2.55198 4.07969,0.5597 6.57454,0.91373 1.33026,-0.32019 6.40211,0.93392 2.84621,-0.39928 -2.24694,-1.93546 -1.11491,-4.96369 -0.80621,-7.21098 -0.4015,-3.08838 -0.32257,-6.32719 -1.34074,-9.28682 0.26458,-1.7649 0.74208,-4.39011 0.21778,-6.5739 -0.26341,-3.10494 -2.38293,-6.04643 -1.59076,-9.20981 1.19226,0.473 2.15804,1.35565 1.77116,-0.81901 0.18846,-1.37769 0.0241,-2.58547 -1.23778,-2.78789 0.11311,-1.49839 2.63905,-1.62015 0.63232,-2.94052 -0.90201,-0.90567 -0.6094,-3.27517 -2.33263,-2.09623 -1.61355,0.5843 -5.06489,1.06561 -4.19221,3.40771 3.41728,0.56186 2.12069,4.87194 -0.99357,3.98866 -2.33769,-1.52186 -1.90984,-4.93614 0.52325,-6.08172 1.5849,-1.74085 4.04929,-2.18809 5.77911,-3.16562 0.96922,-2.52279 -1.78054,-4.89018 -1.71216,-6.73172 1.11854,-2.70221 -2.04783,-5.44799 -2.46356,-8.24345 -0.37873,1.2363 0.34885,5.24357 0.47441,7.54191 -0.0655,1.08804 1.31461,5.63175 -0.63501,3.90065 -0.90256,-4.92206 -1.19456,-9.96054 -1.24064,-14.95976 0.48299,-2.817713 -0.72058,-5.751203 -0.8088,-8.641803 -0.57252,-4.19182 -0.82426,-8.45052 -1.81141,-12.56325 1.66315,-0.83619 0.63972,-5.02264 -0.9681,-5.68987 -0.83563,0.11633 -3.2443,-1.0705 -3.24068,-0.009 0.99475,5.84145 1.76549,11.71931 1.98593,17.64793 0.32809,9.901843 -0.97482,19.839493 0.31318,29.711553 0.92164,7.6567 1.73809,15.33577 1.71442,23.0585 0.10184,6.39581 0.17541,12.79205 0.26307,19.18809 0.66758,-0.7324 1.2356,-1.73892 2.27889,-1.94772 z m 4.89802,-6.23472 c 0.276,-2.8906 -0.634,-5.7183 -1.08693,-8.56715 -0.88381,-5.36776 -0.96345,-10.8751 -0.36586,-16.27376 1.49389,-0.21872 0.6152,3.92814 0.86801,5.40021 -0.29719,5.31613 0.59643,10.57059 1.64549,15.75995 0.28733,0.95373 0.75553,4.34367 -1.06071,3.68075 z m -5.19569,-10.57597 c -2.18802,-3.3169 3.612,-2.18498 1.55838,0.36101 -0.53752,0.11363 -1.12477,-0.0202 -1.55838,-0.36101 z m 1.27253,-0.60278 c -0.35082,-1.08943 -0.84311,1.16185 0,0 z m -2.95314,-27.96248 c -0.95404,-1.70043 -0.46921,-4.59031 1.81014,-3.04544 0.2781,1.16626 0.14101,5.73636 -1.81014,3.04544 z m 1.27876,-1.17165 c -0.35751,-3.6552 -1.46701,2.10169 -0.0457,0.94601 l 0.0334,-0.42591 0.0119,-0.5201 z m -1.30132,-10.27984 c -0.79205,-1.15887 0.64496,-3.46749 1.5045,-1.92742 0.65599,1.23919 -0.81483,4.65213 -1.52865,2.32191 l 0.0243,-0.39449 z m 0.12953,-10.273363 c -0.6376,-0.95119 -0.42501,-2.33785 -1.0386,-3.12022 1.49973,-0.79435 3.56481,4.39099 1.0386,3.12022 z m -1.3288,-7.01799 c -1.60455,-1.85666 2.19335,-3.83849 0.89364,-0.79532 -0.0605,0.36966 -0.55311,1.78873 -0.89364,0.79532 z m 14.05377,73.449073 c -2.29877,-1.41652 -0.31212,1.3808 0,0 z m 108.02556,-5.27144 c -0.93926,-0.19335 0.007,5.62028 0.23535,2.09907 -0.007,-0.69797 0.0402,-1.44024 -0.23535,-2.09907 z m 1.86776,1.50409 c -0.55127,0.35169 0.32831,1.68181 0,0 z m -51.46275,-2.56739 c -0.18728,-2.17897 -0.94347,3.7543 -0.0281,0.35387 l 0.0279,-0.35387 z m 50.35934,-2.55373 c -0.15831,-1.03967 -1.12635,-3.47159 -0.6749,-0.82745 -0.20368,1.17524 1.56975,4.50691 0.85307,1.53326 l -0.0826,-0.3335 -0.0954,-0.37231 z m -52.79688,-0.23671 c -0.38214,-0.26775 0.007,3.06284 0.06,0.75346 l -0.0157,-0.40146 z m -1.59936,-0.50231 c -0.64787,-4.35746 -0.96199,2.23494 0,0 z m -48.1608,-10.89598 c -1.26446,-0.0988 0.95633,1.94305 0,0 z m -1.33951,-14.06476 c -1.26445,-0.0986 0.95635,1.94307 0,0 z m -15.7768,-1.05602 c -0.81472,-1.26484 -0.92961,0.67828 0,0 z m 103.14148,-1.30735 c -1.11429,-1.2252 -1.98859,-1.75668 -0.48032,-0.20188 -0.002,-0.0597 0.46112,0.57015 0.48032,0.20188 z M 155.21755,123.152 c 0.57119,-2.01352 2.3032,1.817 1.3089,-0.60446 -2.02191,-3.0473 -6.63367,0.54594 -1.99663,1.24306 0.32112,-0.066 0.61318,-0.31053 0.68773,-0.6386 z m 2.77605,-1.19181 c -0.0177,-2.03067 -2.2082,0.59251 -0.27481,0.9507 0.29132,-0.23337 0.25193,-0.62701 0.27481,-0.9507 z m -0.66976,-1.29244 c -0.96928,-1.44175 -4.36197,-1.96023 -1.68397,-0.0763 0.52248,0.071 1.18065,0.33896 1.68397,0.0763 z m -0.66975,-4.04053 c 0.26151,-0.76864 -1.97698,-4.35155 -2.0616,-2.52818 -1.05723,1.52759 1.48103,5.85282 2.0616,2.52818 z m -3.01388,-2.68427 c -0.77079,-1.67189 -0.25151,1.54734 0,0 z m 36.95138,-2.34412 c 0.28507,-2.84039 -0.98688,2.82873 -0.18017,0.98701 l 0.0914,-0.45592 z M 28.953673,102.30604 c -0.551269,0.3516 0.328281,1.68183 0,0 z m 163.508517,-2.00925 c -1.01774,-0.978523 -0.60272,2.92289 -0.10126,0.37412 z m -28.00882,-1.926013 c -0.22784,-1.88347 -0.68583,1.991493 0,0 z m 1.24234,-4.11349 c -1.22224,-0.21401 -2.08784,2.91227 -0.39701,0.84989 l 0.20332,-0.30202 z m 3.33849,-6.09973 c -1.01633,0.36674 -0.462,2.01833 0,3e-5 z m 0.66976,-1.67438 c -1.09071,0.2194 -0.46062,2.25046 0,0 z m 1.3213,-3.85104 c -0.85767,-0.21109 -0.80063,2.9864 -0.0951,0.61924 z m -0.98643,-3.18132 c -1.09069,0.21962 -0.46062,2.25045 0,0 z m 49.4919,-2.07191 c -2.79114,-0.24976 -0.86821,0.49001 0,0 z m -2.51542,-0.66145 c -1.33821,-0.28118 -1.11211,0.52564 0,0 z m -44.13885,-2.71922 c 0.77255,-1.32695 -1.26262,-0.536863 -2.01979,-0.710429 -1.86178,0.110261 -3.81783,-0.107118 -5.59281,0.470079 1.58072,2.14065 5.42345,0.0341 6.53814,2.11325 0.5162,-0.51504 0.832,-1.19572 1.07446,-1.8729 z m -8.39914,-0.575174 c -0.87699,-1.350376 -3.84959,0.303654 -0.98775,0.430084 0.29525,0.004 1.26887,0.2212 0.98775,-0.430084 z m -1.79549,-1.815204 c -0.83344,-1.087725 -3.64876,-0.549151 -1.03413,0.166628 0.22563,0.06422 0.9559,0.30954 1.03413,-0.166628 z m 8.70678,-0.02672 c 1.06359,-0.311112 4.93986,-0.603945 1.7762,-1.168996 -1.35644,0.214909 -5.10424,-0.438059 -5.02344,1.222375 0.96725,0.266918 2.4042,0.595232 3.24724,-0.05345 z m -5.7836,-0.202333 c -1.33994,-0.310506 -0.66819,0.613197 0,0 z m 12.98341,-0.753393 c 2.92186,-0.610121 5.89278,-0.625616 8.8085,-0.135188 2.85326,-0.355397 5.64609,1.185479 8.40132,0.450095 0.82215,-2.441852 0.41774,-5.92901 -2.26715,-7.172696 -2.25281,-1.150245 -4.38598,-3.266411 -6.94095,-1.208901 -1.40351,1.119995 -4.23091,0.508168 -4.94631,2.173654 1.50256,0.808929 2.85287,0.582837 4.11696,1.385971 -0.95275,0.762174 -3.09072,0.235366 -2.25087,1.695151 -1.7241,0.75135 -3.78083,0.259687 -4.94938,-0.799563 -0.8847,1.379548 -4.81931,5.299218 -0.66845,3.757175 -0.0119,0.234311 0.70873,-0.383804 0.69633,-0.145518 z m 8.42769,-2.281401 c -1.11489,-1.775187 1.45438,-2.415422 0.7268,-0.186614 0.0498,0.419353 -0.56214,0.558785 -0.7268,0.186614 z m 5.7425,-0.825344 c -2.5379,-1.551654 1.43719,-2.214728 1.6819,0.167975 0.36538,1.247795 -1.31553,-0.09813 -1.6819,-0.167975 z m -6.45926,-3.6254 c 0.53678,-2.059104 3.60083,-0.456249 1.02009,0.305835 -0.33172,0.01797 -0.80392,0.01572 -1.02009,-0.305835 z m 15.30571,6.440547 c -1.15889,-0.228293 -3.26327,0.18347 -0.9149,0.139455 0.0588,0.01123 1.8375,-0.02021 0.9149,-0.139455 z m 25.45648,-0.328516 c -3.0085,-0.172915 -0.83731,0.456271 0,0 z m -14.74331,-0.344146 c -1.37984,-0.202782 -4.43432,0.160115 -1.24695,0.130472 0.0633,0.02246 2.50567,-0.03503 1.24695,-0.130472 z m -27.38726,-7.307416 c 1.61853,-0.08983 1.70283,-1.302792 0.0253,-0.540798 -1.75235,0.731476 -2.8135,1.292103 -0.0253,0.540798 z M 135.89184,234.15099 c 1.1318,-1.66371 4.09924,-1.82077 5.29405,-2.81213 -2.36124,-1.38777 2.43112,-1.85123 3.35691,-0.7249 2.27216,0.99797 4.11608,-1.0983 6.15869,0.97794 2.23958,-0.35527 -4.77144,-2.56773 -1.37329,-2.82872 2.54987,0.58917 5.1853,1.56825 7.7625,1.26518 3.13158,-0.76103 6.56362,-0.21356 9.46896,1.05195 -0.66141,1.78983 -4.30131,-0.58959 -6.07277,0.0366 -2.31628,-0.37008 -3.78615,1.56412 -6.01895,0.73403 -1.45026,1.5652 -4.40071,1.36936 -5.14546,1.13801 -1.63293,2.45418 -4.57763,-2.26364 -7.0898,-0.38547 -1.94846,-0.18773 -4.9653,2.78571 -6.34084,1.54748 z m 8.23116,-7.37651 c -0.27529,-1.40616 0.6534,-3.93431 1.65711,-1.38586 2.25568,0.67994 5.55403,-0.722 6.14059,-2.77892 2.73758,1.6812 -1.99685,3.88486 -3.62345,4.31802 -1.6016,0.28671 -2.9176,0.16551 -3.34392,1.98404 -1.25172,0.38308 -0.70491,-1.54144 -0.83033,-2.13728 z m 48.13599,-2.69163 c 0.76907,-2.66251 -1.85264,-5.09258 -2.89237,-7.48718 -2.36197,-3.9391 -4.55257,-8.01475 -7.41338,-11.61956 0.0957,-2.0031 2.43163,2.89458 3.12225,3.70548 2.81431,4.84546 6.06595,9.50229 8.12617,14.73785 0.59571,0.83039 -0.51723,1.80788 -0.94267,0.66341 z m 14.54592,-1.89174 c -1.77482,-2.3801 -3.5078,-4.81876 -4.94268,-7.4186 2.09127,0.21559 2.40792,4.41309 4.37072,5.83881 1.09514,0.7345 3.56703,4.45148 0.95993,2.03629 z m -6.45475,0.19649 c -0.83701,-1.93831 -3.53488,-3.04678 -4.05788,-4.65152 2.00027,0.75494 4.38746,3.42688 5.13533,5.49968 -0.51803,0.12172 -0.80463,-0.53707 -1.07745,-0.84816 z m -5.87722,-1.53393 c -1.16269,-3.30239 -2.80945,-6.46384 -4.83432,-9.31869 -1.66073,-0.56664 -0.10067,-2.2677 0.48105,-0.22647 1.95625,3.41893 3.99641,6.85175 5.37993,10.54488 -0.10204,1.32947 -1.01282,-0.626 -1.02666,-0.99972 z m -13.03809,-1.05339 c -1.64612,-3.58806 -4.9224,-6.07725 -7.30322,-9.14739 1.76529,0.68834 4.15825,4.26485 5.89188,6.22854 0.42523,0.32925 3.20373,4.35844 1.41134,2.91885 z m 3.12986,-1.1447 c -1.80462,-2.80529 -4.01191,-5.39592 -6.33938,-7.7346 2.07817,0.24769 3.30314,3.54642 4.91181,5.08895 0.54724,0.3166 3.70639,5.51685 1.42757,2.64565 z m 73.33327,-4.3891 c -0.0404,-1.88716 1.74157,-2.58515 2.39988,-0.63839 2.85481,1.73568 -2.48277,2.2728 -2.39988,0.63839 z m -8.74095,-0.54769 c -1.81579,-1.19485 2.19596,-3.46881 -0.45097,-4.24302 -1.38395,-1.32166 -0.69471,-1.85136 0.86588,-1.05065 0.20952,-1.13924 1.48047,-4.37426 1.78177,-1.45123 -1.12743,2.15483 -0.18258,5.3881 -1.4692,7.12951 l -0.32272,-0.12957 -0.40469,-0.25522 z m 0.92716,-1.00747 c -0.65916,-1.23109 -0.70899,1.64344 0,0 z m 4.68825,-1.88419 c -1.16891,-0.61007 -1.57065,-4.01655 -0.30413,-3.41146 1.09929,0.73087 2.57302,4.49986 0.30413,3.41146 z m -11.88807,-2.41926 c -1.21548,-0.65748 -2.0192,-2.69779 0.0638,-1.43715 1.63687,0.56804 -1.1118,-1.31388 1.22318,-0.52393 1.61009,-0.34866 3.58826,0.87057 1.58017,2.1578 -0.16932,2.30031 -1.96099,0.51369 -2.86695,-0.19672 z m 16.47167,-1.75338 c -0.0415,-1.50506 -2.56195,-5.40566 0.65826,-3.544 1.98073,-0.3571 3.36727,4.30462 1.25249,3.40315 0.0512,-1.29167 -1.22309,-2.8597 -1.02435,-0.59054 0.0135,0.43591 -0.35785,1.28642 -0.8864,0.73139 z m -78.92581,-0.63426 c -1.39166,-3.64521 -3.62092,-6.96931 -5.93453,-10.10242 -1.57884,-0.74688 -0.88853,-2.84223 0.2971,-0.90167 1.88652,3.65493 4.50612,6.90506 6.15354,10.68154 0.49567,0.63427 -0.45196,1.32321 -0.51611,0.32255 z m 75.82099,-0.94387 c -0.86915,-2.09757 2.24098,-2.35585 0.95876,-0.11026 -0.0797,0.58366 -0.84374,0.71045 -0.95876,0.11026 z m -9.85609,-0.82166 c -2.4589,-3.11164 4.30615,-2.06802 1.95443,0.56747 -0.69469,0.14754 -1.40436,-0.1646 -1.95443,-0.56747 z m 0.73657,-1.14012 c -1.36412,-0.54086 0.88582,1.51754 0,0 z m 5.87011,0.53442 c -0.13856,-1.57613 -4.05046,-4.42191 -0.86821,-4.88698 2.89884,-0.3468 -0.26789,3.64516 2.79264,3.47995 0.67015,1.31282 -0.95936,1.90538 -1.92443,1.40703 z m -8.55606,-2.4304 c -1.56672,-1.90705 2.07707,-2.60783 1.20677,-0.11722 -0.0959,0.67407 -0.86202,0.37711 -1.20677,0.11722 z m -75.06639,-1.83299 c -0.89497,-3.90505 -3.15187,-7.35873 -5.1775,-10.7727 -1.0156,-1.70272 -2.58649,-4.40035 -4.50641,-2.52368 -2.94683,-0.44037 -1.90734,-6.27069 0.9416,-3.05984 3.47082,4.09398 6.05834,8.89264 8.34943,13.72661 0.79419,0.58124 1.40931,6.00024 0.39288,2.62961 z m -9.38163,-14.70032 c -0.0532,-0.80356 -1.43417,0.36342 -0.7619,-1.43423 -1.63591,-0.66096 0.49051,4.00105 0.7619,1.43423 z m 71.60279,14.69859 c -1.32438,-0.40186 -2.27274,-2.80127 -0.23548,-1.30279 3.29998,0.24972 -3.08496,-3.40146 0.67455,-3.65918 2.24178,-1.69526 2.26772,0.72405 0.31441,1.26898 -0.98263,0.25268 2.54628,3.0204 0.0225,3.39241 1.10632,-0.007 3.10375,1.83661 0.79873,1.18229 -0.55497,-0.23552 -1.07309,-0.54857 -1.57375,-0.88171 z m -59.24585,0.6052 c 0.20062,-2.9391 -2.38288,-5.0543 -3.67586,-7.46151 -1.25303,-2.32519 -3.69443,-4.48483 -4.50952,-6.72073 2.30397,1.32271 3.2219,4.78337 5.0694,6.87488 0.9978,2.30915 4.38902,4.94882 3.25362,7.42147 -0.0139,0.0914 -0.20393,-0.12172 -0.13764,-0.11408 z m 69.27393,-3.85268 c -2.40587,-2.91209 4.06717,-3.33818 3.55094,-0.17606 -0.85485,0.74974 -2.52989,0.47772 -3.55094,0.17606 z m 13.46229,-2.71998 c -1.53773,-0.98182 -4.37567,-0.56145 -2.19027,-3.12026 1.49356,-1.25132 0.73357,3.72322 1.87182,1.00293 0.68512,-2.77313 3.31195,5.12457 0.31845,2.11729 z M 30.412812,191.04273 c 0.425607,-9.51792 3.069128,-18.79098 3.250111,-28.33106 0.380885,-9.90096 1.611061,-19.75404 3.15423,-29.53243 1.025801,-5.70824 2.516235,-11.39401 2.527126,-17.22827 2.510772,-0.21379 4.896486,-1.08467 7.444684,-0.97154 18.435421,-0.58434 36.872144,-1.18586 55.294007,-2.11942 8.96891,-0.25951 17.94528,-0.56743 26.91793,-0.40572 0.80653,1.05399 -3.30917,0.7019 -4.45711,0.80922 -6.88697,-0.17404 -13.78961,-0.1554 -20.63834,0.68656 -12.200852,1.29814 -24.488608,0.57621 -36.718134,1.36057 -8.206812,0.46249 -16.425888,0.90114 -24.598198,1.7886 0.397067,1.29432 -1.898398,5.94764 -1.116095,2.54245 1.169115,-1.70707 -0.909297,-3.23966 -1.184998,-0.79608 -0.424563,6.13397 -2.517785,12.03168 -2.924611,18.18177 -1.015906,8.18086 -2.003489,16.37189 -2.373107,24.61467 -0.312195,6.47286 -1.868906,12.80501 -2.055013,19.28957 -0.159306,3.26473 -0.531435,6.60266 -0.684907,9.8097 8.958303,-0.80911 17.998817,-0.83893 26.966033,-1.71002 5.134244,-0.31233 10.222436,-1.12516 15.378699,-0.99952 17.328272,-0.27217 34.725641,-0.0804 51.956971,-2.19016 1.1833,-0.16977 2.36461,-0.35295 3.54694,-0.52921 0.1424,-8.61081 0.62413,-17.22973 0.075,-25.83239 -0.40709,-14.5479 -0.53654,-29.10778 -1.39047,-43.63909 -0.8997,-1.79578 1.80225,-4.19112 1.79598,-1.25274 0.3251,13.69427 0.01,27.40621 0.70472,41.09376 0.31762,9.53156 0.80631,19.08446 0.34727,28.61599 -0.53036,3.09118 -4.67734,1.66016 -6.90278,2.46756 -8.93925,1.04798 -17.95118,1.25386 -26.927681,1.82145 -10.970983,0.42737 -21.971272,-0.12733 -32.927546,0.63959 -6.81607,0.47452 -13.605016,1.36854 -20.435395,1.5918 -3.933016,0.0202 -7.939748,-0.0817 -11.782483,0.87343 -0.992312,0.73015 -2.586937,1.33622 -2.242677,-0.64904 z m 0.895282,-1.16177 c -0.517483,0.0496 0.247727,2.17907 -3.95e-4,0 z m 0.343095,-3.01561 c -0.363032,-0.53905 -0.01684,3.39203 0.05632,0.8736 l -0.0137,-0.45517 -0.04327,-0.41843 z m 0.316358,-4.19057 c -0.551273,0.35169 0.328292,1.68184 0,0 z m 98.132883,-67.64471 c -0.38215,-0.26775 0.008,3.06284 0.0599,0.75346 l -0.0157,-0.40145 z m -81.778346,0.77266 c 1.760899,-0.27794 1.046104,-0.32142 -0.306666,-0.27916 -1.583473,0.0411 -3.150219,0.28354 -4.716456,0.5 1.676512,0.0272 3.367125,0.093 5.023122,-0.22075 z m 46.289463,-1.89589 c -1.31011,-0.31771 -0.67259,0.60693 0,0 z m 51.791863,77.75023 c -0.70701,-1.61891 1.27645,-3.06877 0.94819,-0.58102 1.74229,1.38029 -0.8536,-3.01939 1.37428,-0.89828 0.98892,1.44802 -1.47012,2.67933 -2.32247,1.4793 z m 69.16379,0.39422 c 0.2737,-1.52019 -0.41012,-2.48719 -0.83766,-3.84432 1.6489,-2.24476 5.08787,4.95583 1.11877,3.93684 l -0.2812,-0.0925 z m 29.41014,-1.01388 c -2.27408,-1.45272 0.54964,-1.94804 1.7581,-0.85629 2.43812,0.94961 -0.99972,1.55852 -1.7581,0.85629 z m -7.59111,-2.03953 c -2.00988,-1.04063 0.89112,-4.97429 0.83383,-2.14686 0.26319,0.97443 1.68689,5.43881 -0.83383,2.14686 z m -14.23639,-0.93574 c -1.18561,-2.09862 0.85548,-0.38957 1.69426,-1.12657 -0.0112,1.0416 -0.93393,3.40863 -1.69426,1.12657 z m 15.95045,-1.3521 c -1.50934,-2.64271 2.42135,0.13384 0.34801,0.27666 l -0.34801,-0.27662 z m -21.35124,-0.41574 c -1.99198,-2.52813 4.90666,-1.97081 2.2578,0.31271 -0.73437,0.31812 -1.62358,0.1518 -2.2578,-0.31271 z m 2.19641,-0.52191 c -0.95683,-1.13655 -1.78543,1.10767 -0.0543,0.13002 z m -48.65625,-1.06289 c -0.91798,-0.81461 -2.42724,-3.9258 -0.40028,-1.71128 1.13174,0.71857 3.33244,4.74196 0.79849,2.20591 z m 57.05956,0.43593 c -2.59186,-2.86873 4.14441,-1.81296 1.75248,0.44522 -0.60655,0.24915 -1.27299,-0.0797 -1.75248,-0.44522 z m 11.8662,-0.16169 c -2.01756,-2.56045 3.44655,-0.42647 0.97982,0.43469 l -0.46716,-0.13429 -0.51266,-0.30038 z m -36.83199,-1.60003 c -3.13238,-3.77056 5.98457,-2.09218 2.40198,0.77893 -0.92012,0.66707 -1.82784,-0.0294 -2.40198,-0.77893 z m -48.54254,0.42506 c 1.00269,-2.4046 0.90064,-5.33329 1.00623,-7.97098 -1.75173,-1.85572 0.92012,-3.20917 1.78997,-0.74226 2.04348,2.43184 -2.32213,4.45131 -0.90139,7.23531 0.0528,0.82128 -1.07378,2.3253 -1.89481,1.47793 z m 2.71215,-7.47557 c -0.59888,-0.19874 0.25179,1.50845 0,0 z m 53.68614,6.16099 c 0.39928,-1.91774 2.59772,-2.86853 3.34022,-0.59254 -0.70657,0.77632 -2.39496,0.84526 -3.34022,0.59254 z m -171.455954,-0.3991 c 2.20511,-2.97268 4.894577,-5.58221 7.314629,-8.38869 0.88786,-0.80228 3.733331,-2.84978 0.813954,-1.76571 -2.86706,0.0202 -5.264968,1.236 -6.942888,3.40182 -1.293302,-0.7132 -3.778294,2.32351 -3.997896,1.13464 1.503371,-2.22484 4.635741,-1.29832 5.73236,-3.97483 2.333385,-1.34725 5.263575,-0.81564 7.595114,-2.19186 0.980447,-0.58578 3.746603,-2.89835 1.824551,-0.52575 -3.907742,4.07792 -8.084624,7.91692 -11.656524,12.30378 -0.176867,0.2084 -0.724806,0.59539 -0.6833,0.007 z M 253.09806,181.9206 c -1.15682,-0.41434 -5.36832,-0.82835 -2.11561,-1.75142 0.35365,0.94252 4.72712,0.56628 3.17432,2.12461 -0.38697,-0.009 -0.73076,-0.19223 -1.05871,-0.37319 z m -62.46421,-1.9064 c -0.75026,-1.54945 -3.47288,-4.99259 -1.16339,-5.88421 1.35743,0.87693 0.21958,3.02132 2.03524,3.06988 0.29986,0.51394 0.16434,5.15475 -0.87185,2.81433 z m 65.62878,-0.21423 c -1.15801,-0.27489 -5.09927,-2.61789 -1.7662,-1.68462 0.78276,0.0337 4.58317,2.34354 1.7662,1.68462 z m -110.07337,-0.74396 c -1.60821,-1.51858 -0.0583,-5.28545 1.95876,-2.56638 1.13722,1.49565 0.0898,3.77472 -1.95876,2.56638 z m 1.69661,-1.23693 c -1.53283,-3.35055 -2.14313,2.42993 0.0177,0.3958 z m 69.63175,0.57109 c -2.19025,-2.092 3.63162,-4.59507 3.23041,-0.85992 0.24246,1.32073 -2.48477,1.11456 -3.23041,0.85992 z m -51.69952,-0.91669 c -1.71709,-2.30909 -3.23598,-4.80513 -4.47576,-7.40191 1.45291,-0.27622 2.51805,4.07536 3.87042,5.34842 0.1671,0.32146 1.83523,2.57073 0.60534,2.05349 z m 35.85776,-1.71757 c -0.97276,-0.59114 -5.48811,-3.00526 -2.87575,-3.38758 1.27162,2.81285 5.4313,-2.06964 4.82866,1.68929 -0.21812,0.73527 -0.9998,2.18311 -1.95291,1.69829 z m -17.81484,-1.70507 c -2.08895,-2.50759 3.23483,-2.18455 0.82047,0.44928 -0.32292,-0.029 -0.57212,-0.27136 -0.82047,-0.44928 z M 15.837843,171.62389 c 1.961495,-8.2568 1.740139,-16.82638 2.379974,-25.24638 0.64021,-9.55262 0.393927,-19.13952 1.103946,-28.68944 0.34448,-6.35632 0.242409,-12.74344 0.854101,-19.080573 -0.802085,-1.43259 -0.652309,-4.44078 -1.134296,-6.60536 -0.542156,-4.60336 -0.6193,-9.26032 -1.36107,-13.83779 -0.03157,-1.04746 -1.225469,1.71245 -1.276749,-0.37367 0.145675,-1.02065 -0.416564,-2.91398 1.233172,-2.30112 2.248235,0.42241 4.322291,-0.4977 6.505784,-0.67239 4.74074,-0.73651 9.514238,-1.25362 14.321201,-1.16604 8.80281,-0.188405 17.693346,0.36232 26.390121,-1.317159 7.352465,-1.219523 14.846369,-0.425843 22.237774,-1.260753 6.650511,-0.374642 13.241639,0.847823 19.850729,1.312875 1.91941,0.529232 3.00369,-2.63572 4.37341,-0.677603 3.95419,-1.401308 8.18938,-0.452296 12.26911,-0.356183 1.13499,-0.06894 5.7423,0.497681 2.78997,1.455653 -4.32892,0.08713 -8.66792,-1.46879 -12.99307,-0.422945 -2.99515,0.488069 -5.93305,2.128475 -9.01109,1.149885 -8.173284,-1.365311 -16.522484,-1.409909 -24.764595,-0.740211 -5.873177,0.233457 -11.807903,-0.110262 -17.585075,1.214741 -7.091833,1.09361 -14.304552,0.59804 -21.452041,0.82669 -4.402952,0.19245 -8.897215,-0.16236 -13.230206,0.74326 -0.806307,1.21016 -1.144114,1.95902 -2.473817,0.75998 -1.865244,0.32696 -6.904874,-0.63388 -5.881623,2.50933 0.675752,5.27205 0.588697,10.66228 1.800488,15.85313 1.702457,2.21836 0.210013,5.22351 0.46308,7.832943 -0.448681,12.81682 -1.44023,25.60809 -1.684343,38.43329 -0.412315,9.52111 -0.555015,19.09378 -1.951484,28.5353 0.229104,0.75808 -1.563114,4.60798 -1.773401,2.12054 z m 200.686637,-0.10846 c -0.65542,-1.70021 1.13866,-4.607 2.24965,-1.75439 2.36583,1.31934 -1.46931,3.8869 -2.24965,1.75439 z m -24.82013,-0.031 c -0.36153,-1.69643 -0.82713,-4.56541 1.79058,-3.73366 1.50857,-0.93932 -0.35134,-6.33121 1.73106,-4.78488 0.66683,2.63783 -0.62361,5.05759 -0.8421,7.33048 -1.30461,0.57392 -1.5706,-3.21371 -1.53692,-0.70904 -0.0273,0.53437 -0.0935,2.73884 -1.14262,1.8971 z m -25.14065,-0.48241 c -0.006,-2.14471 -2.41126,-4.53514 -1.68704,-6.21863 0.91373,1.62522 2.01688,4.86832 1.68704,6.21863 z m 36.78851,-0.85303 c 0.43685,-1.11416 -2.46286,-0.98722 -0.15051,-1.50553 2.65795,-1.35069 2.29656,4.08933 0.0795,1.9205 l 0.0708,-0.41488 z m 35.90485,0.41248 c -0.79561,-0.63054 -2.7436,-1.28234 -1.01878,-1.45992 -0.2426,-2.75198 -1.12797,-0.56862 -2.22398,0.0912 -3.2e-4,-2.23494 3.46901,-4.22598 4.31771,-6.72916 1.21887,-1.84415 0.75546,-5.19387 4.04682,-3.53036 2.07693,0.19964 3.96737,2.17019 1.48428,3.50986 -2.68586,2.2933 -3.53537,5.94565 -5.90022,8.46534 -0.27704,0.27421 -0.66653,-0.0543 -0.70583,-0.34702 z m 3.03536,-4.12733 c 1.16785,-2.15025 2.63855,-4.12261 4.38443,-5.83613 -1.48887,-0.54228 -3.86883,-2.20372 -4.61239,0.12104 -0.37237,2.21248 2.09593,-2.78032 2.88854,0.1929 -0.94396,0.91468 -2.25102,1.33958 -1.67735,3.19987 -1.71329,0.24619 -0.79817,2.84708 -3.14128,2.53395 -2.03016,0.73651 0.56707,4.73817 1.21052,1.43996 0.32616,-0.54453 0.64109,-1.09617 0.94753,-1.65172 z m -2.23265,-1.3228 c 1.44007,-0.62631 -0.007,-2.60803 1.93451,-2.11846 -0.0135,-3.26079 -5.00512,4.67448 -1.93451,2.11846 z m -169.384787,5.3698 c -1.348881,-1.38348 3.073442,-0.37489 2.73584,-2.59799 -0.149627,-1.50111 3.518353,-2.96606 1.718185,-0.937 -1.347233,1.23529 -2.025275,4.31475 -4.454025,3.53499 z m 111.661377,-0.47125 c -0.75327,-0.86785 -2.72255,-1.13345 -0.14277,-1.41458 1.08068,-2.23483 2.46429,4.1748 0.14277,1.41458 z m 13.45956,-0.89763 c -0.43076,-1.1522 0.84677,-6.19353 1.65544,-3.22507 0.28208,0.82465 -1.15906,7.11188 -1.65544,3.22507 z m -159.361887,0.29973 c 2.534877,-0.90913 5.687094,-0.79079 8.371865,-1.71865 3.780735,-0.86691 7.686709,-1.19938 11.393244,-2.40652 2.7209,-0.45066 1.152257,1.01923 -0.522538,0.931 -5.012329,1.16544 -10.059146,2.2017 -15.113556,3.1625 -1.306863,0.0665 -2.923642,0.62229 -4.129015,0.0317 z m 33.068878,-0.74513 c -2.337677,-2.49833 4.053588,0.85741 0.566416,0.23729 l -0.566416,-0.23741 z m 157.112509,-0.39178 c -1.06152,-1.93663 0.83644,-2.20478 0.65503,-0.36775 0.0584,-0.17291 -0.50632,0.72991 -0.65503,0.36775 z m -2.31659,-0.53458 c 1.34272,-2.52025 1.25018,-5.59423 2.85966,-7.97262 1.18431,-2.66902 3.38188,-4.85756 4.66978,-7.55104 1.4469,-0.78717 1.9854,-4.09252 3.48574,-3.71491 0.38096,1.71749 -4.87679,4.91002 -0.85997,3.59445 2.36517,0.06 -1.56647,0.81856 -0.55182,2.24709 -0.97095,1.14209 -0.66797,0.57206 0.31533,1.11265 -1.92629,1.47212 -5.39872,1.47638 -6.23343,4.20534 -1.78774,2.45564 -1.40086,5.80213 -3.13814,8.26986 -0.16932,0.1929 -0.53287,0.0653 -0.54715,-0.19088 z m 7.36724,-12.69729 c 1.27705,-0.43839 2.35393,-2.35883 0.10891,-1.55641 -0.42732,0.181 -1.33133,2.6478 -0.10891,1.55641 z m -22.94794,12.29635 c 0.27751,-1.5938 -3.11784,-6.10648 0.0744,-5.51087 -0.15327,2.0274 3.50004,4.3832 0.22322,5.71449 l -0.16513,-0.0615 -0.13249,-0.14193 z M 69.073833,166.31648 c -0.414801,-1.11598 0.280468,-5.13439 1.389617,-4.22897 -1.030035,1.05339 -0.136109,4.75744 -1.247892,4.60967 z m 121.402637,-0.0402 c -3.64625,-0.50761 -1.61883,-6.07513 1.41906,-3.66688 2.54743,0.90455 2.41011,5.81287 -0.79301,3.93564 l -0.31275,-0.13025 -0.31331,-0.13855 z m 36.91979,-0.009 c 1.30732,-1.94168 1.939,1.50656 0,0 z M 73.270252,166.01615 c -2.320017,-0.32955 -3.30369,-4.18093 -1.158771,-5.4809 1.014279,-0.74149 3.672997,1.95619 2.533282,-0.35479 -1.335654,0.15922 -3.627158,-1.295 -0.926555,-0.94023 0.109475,-0.2812 -1.122789,-3.33519 -1.513149,-2.98305 -0.159822,1.41774 -1.915788,3.01355 -0.950877,0.5357 1.134486,-3.98691 2.584476,2.09811 3.663556,1.07578 0.415209,-3.00879 1.122784,1.07369 0.459987,1.98726 1.681456,0.81951 0.598722,3.08384 0.706853,3.82969 1.695362,-0.7052 0.477795,-2.83882 0.848858,-3.40843 2.974368,1.97079 -0.601076,4.38239 -2.318643,5.39475 -0.102492,0.39459 -1.265429,1.12568 -1.344541,0.34422 z m 0.334894,-1.84182 c -0.12533,-1.3188 -3.434859,-0.54172 -1.117658,0.40783 0.351768,0.15989 1.113302,0.12306 1.117658,-0.40783 z m 1.321572,-0.46885 c 0.129125,-2.71634 -1.500737,1.77705 0,0 z m 145.489492,1.46697 c -0.1655,-1.02426 1.07241,-4.77759 -0.3549,-1.89407 -1.62055,-0.54957 -0.85234,-5.92261 0.40265,-2.76796 0.69352,1.17101 -1.49574,-4.10117 0.4449,-1.31593 1.62992,2.62121 -1.35462,-5.48406 0.78784,-1.88691 0.3413,2.54583 1.76378,0.3351 0.60195,-0.99673 -0.61686,-2.76747 0.84933,-1.67373 1.54604,-0.47543 0.77551,-1.91075 -1.76813,-3.56685 0.0806,-4.43383 -1.92717,0.88887 -2.89662,3.64303 -3.97222,5.52769 -0.6447,1.83957 -1.956,4.43963 -2.94856,5.27501 -1.29947,-1.66639 2.45656,-3.17005 2.08614,-5.3733 0.94104,-2.50164 2.64902,-4.75043 4.62382,-6.54491 0.87432,-0.76251 2.91625,-5.16816 3.18112,-2.24118 -0.56945,3.43636 -1.32145,6.93448 -2.99985,10.00736 -0.95079,2.38335 -2.84531,4.53226 -2.69993,7.30571 -0.0716,1.11465 -0.69296,0.50671 -0.77968,-0.18549 z m 5.34438,-15.23031 c 0.28715,-1.33326 0.25848,-1.80824 -0.47581,-0.36557 -1.19464,1.08503 -0.06,5.02343 0.24415,1.67577 0.0862,-0.43509 0.16438,-0.87178 0.23166,-1.3102 z m 3.75131,15.44071 c 1.51892,-1.84433 2.13182,-4.53675 3.38719,-6.70457 1.58543,-3.06408 3.07171,-6.28261 3.66007,-9.67934 1.21,1.45247 -0.662,4.48493 -1.19246,6.33132 -1.38211,2.87753 -2.88245,5.69899 -4.09268,8.65663 -0.35744,0.50284 -0.99978,2.05162 -1.76212,1.39596 z M 58.870642,165.01063 c 0.754657,-0.47334 3.824169,-2.1302 1.905111,-0.0993 -0.442847,0.2655 -1.650394,0.83776 -1.905111,0.0993 z m 122.015568,-0.16752 c -0.91985,-2.26229 3.42096,-1.53014 1.30211,0.0361 -0.32927,0.35542 -1.16204,0.72517 -1.30211,-0.0361 z m 46.47643,-0.37056 c -1.0661,-2.41028 3.26928,1.34795 0,0 z M 61.884516,163.58633 c 0.448858,-1.13506 1.898003,-1.68756 1.111327,-2.88333 1.123569,0.42511 1.951479,1.49395 3.078331,0.96494 -0.06014,1.72742 -3.114091,0.96136 -4.189658,1.91839 z m 98.341584,0.19627 c -0.38101,-3.18658 -0.38844,-6.54275 -1.86558,-9.49668 -0.77927,-1.35819 0.24228,-2.34057 0.62141,-0.38762 0.91476,3.24274 1.52086,6.66127 1.45991,10.01893 l -0.21581,-0.13474 z m 67.42147,-0.75348 c 1.08314,-0.72791 -0.20975,-1.89814 0.67964,-2.02408 -1.08227,-0.7747 2.28396,-1.34617 -0.009,-1.54393 0.66334,-1.4563 5.04952,-3.10265 2.601,-0.37127 -0.73999,0.47516 -1.95964,1.64211 -1.00338,2.36063 -1.09954,0.82741 0.67352,2.93915 -2.26752,1.57865 z m -47.75266,-1.16523 c -3.26426,-1.35208 2.57209,-3.1855 1.81993,-0.064 -0.39423,0.29385 -1.53482,0.77287 -1.81993,0.064 z m -113.364002,-0.007 c 0.02043,-1.01656 -3.044265,-4.41648 -0.643377,-2.7982 0.721,1.29262 0.847953,2.15084 1.966725,1.51043 0.191262,0.50747 -0.857758,1.77364 -1.323348,1.28777 z m 2.637139,-0.78113 c -1.448773,-0.44992 1.134176,-1.27436 -1.028634,-1.25604 -1.164293,-0.16999 -2.74158,-4.3911 -0.560806,-1.95991 1.638193,2.5165 -0.665854,-2.91513 -2.520985,-2.09998 -1.103982,0.30043 -5.217899,0.18819 -2.148147,-0.51513 3.369533,-1.35087 5.054512,1.88806 7.564256,3.19291 0.38757,0.87403 -2.994977,0.34936 -0.803357,1.21991 1.272819,-0.307 2.017535,1.4045 0.316502,0.72752 0.431506,0.74053 -0.221421,0.85757 -0.818829,0.69072 z m 186.963793,-0.88391 c -1.58296,-2.46137 2.1874,-5.65661 -0.53819,-7.46531 -1.2996,-0.42234 -2.29198,-2.5624 -0.22838,-1.12096 2.12966,0.36124 1.65592,5.04665 3.8145,2.35387 0.72643,-1.40524 4.08897,-0.99437 1.53349,-0.0328 -2.02277,1.57097 -5.81233,2.83334 -3.76411,6.06061 1.33279,1.16543 -0.49342,1.33403 -0.81731,0.20458 z m -52.37199,-0.093 c -1.85668,-2.66101 3.41877,-2.66339 1.92886,-0.30233 -0.48321,0.44895 -1.34725,0.75876 -1.92886,0.30233 z M 37.103769,159.76794 c 0.633545,-1.24093 2.244216,-2.37489 0.367079,-3.09033 2.098924,-0.33474 4.921558,1.03637 7.388564,1.04322 4.150919,0.59682 8.366289,1.9269 12.566212,0.90672 1.019919,-0.44437 4.726849,-3.74853 2.529853,-0.89184 -2.144928,2.47078 -5.695407,1.84633 -8.603977,1.84624 -3.798596,-0.5776 -7.592548,-1.71329 -11.472594,-1.53326 -1.363218,-0.3836 -1.818919,2.48421 -2.775137,1.71925 z m 161.409701,-0.78506 c -1.85001,-0.15697 -1.80395,-3.06062 0.0684,-1.98502 0.34647,1.22516 2.21741,2.05556 0.93653,0.42793 2.13089,-1.85841 2.58956,2.73213 -0.01,2.17399 -0.37365,-0.12508 -0.71314,-0.34351 -0.99527,-0.6169 z M 76.660805,158.57092 c -0.745076,-1.05375 -1.331925,-5.00307 0.159104,-2.05307 0.01033,1.83456 1.095296,1.59271 0.578814,-0.13114 -0.06609,-1.4067 0.53003,-3.47393 1.529207,-1.43351 2.250171,2.29797 -0.126677,-2.83952 -1.443149,-2.89462 -1.185209,0.0887 -4.324433,-3.68289 -2.031736,-2.52032 2.081684,1.8395 5.305687,3.5554 5.361559,6.7509 -1.324608,1.53443 -3.153661,-2.28639 -2.6547,0.7692 0.577034,0.91137 -0.917656,3.10912 -1.499088,1.51262 z m 22.729688,0.30278 c -2.643622,-0.90195 -3.71992,-4.12805 -3.250902,-6.62045 1.605148,-1.70743 3.855869,-3.79438 6.643839,-2.80203 2.38589,0.20188 6.58825,0.91867 5.86708,4.22218 -1.61313,1.11014 -1.13578,5.12161 -4.23854,4.90693 -1.60995,0.099 -3.51971,1.22605 -5.021477,0.29337 z m 5.145787,-1.11728 c -1.07721,-0.4013 -4.43417,-0.64318 -5.378151,0.17875 1.656921,0.58378 3.722571,0.36939 5.378151,-0.17875 z m 2.5966,-3.00706 c 0.27129,-1.1577 -2.17853,1.24133 -3.12378,0.67309 -1.95719,1.74794 1.30804,0.80949 1.91108,1.9355 0.47958,-0.82853 0.63179,-1.82724 1.2127,-2.60859 z m -8.927702,1.84853 c -0.204646,-1.85433 2.465082,-1.17084 3.696872,-1.34436 -1.77255,-0.50794 -3.548684,-1.091 -5.064491,-2.16719 -0.735724,0.28028 1.575326,6.11565 1.367619,3.51155 z M 104.748,154.3793 c -1.10156,-0.92022 -3.95481,0.0705 -1.16732,0.2443 0.35145,-0.0489 0.92833,0.1069 1.16732,-0.2443 z m -3.35338,-1.20839 c -0.87159,0.29618 -2.682017,-0.50563 -0.83033,-0.87937 1.83168,0.11363 5.7639,-0.2395 5.26422,1.62316 2.64179,0.31207 2.61392,-2.42753 0.29968,-2.88924 -2.61854,-1.16479 -7.144041,-2.22952 -8.412054,1.2811 0.43746,0.98914 3.386674,2.8015 3.678484,0.86435 z m 85.475,5.75572 c 0.0157,-1.30309 -1.1718,-2.36651 -1.40717,-2.71313 0.87813,0.0905 3.58281,-0.99785 2.97673,0.77837 0.001,0.90142 -0.24121,3.2102 -1.56956,1.93476 z m 0.92787,-0.76022 c -0.79395,-1.27562 -0.92898,0.71829 0,0 z m 69.57314,0.63053 c 0.0649,-1.75232 2.03205,-0.1152 3.14434,-1.07355 1.13998,-0.49095 3.00124,-0.31069 0.89474,0.68822 -1.28548,0.33557 -2.72825,0.70601 -4.03908,0.38533 z m -83.55809,-0.87189 c -2.07307,-1.7413 3.16706,-4.39371 0.66742,-1.77719 -1.694,1.39953 2.7026,0.96412 0.41934,2.08122 -0.38008,0.0561 -0.80723,-0.0274 -1.08676,-0.30403 z M 47.471119,156.87574 c -3.295795,-2.28787 4.991106,-2.63987 2.001679,0.19178 -0.63148,0.43137 -1.393453,0.0739 -2.001679,-0.19178 z m 21.906213,-0.61277 c -0.203523,-1.53081 1.089192,-2.84306 0.831538,-0.5472 0.119513,0.96496 -1.10065,2.68297 -0.831538,0.5472 z m 114.652818,-0.88934 c -0.93183,-0.8229 -3.16426,-2.08206 -1.27696,-3.42381 -2.02775,-3.8837 4.13446,-0.66444 2.69893,1.8664 0.12361,1.02296 -0.18647,1.98424 -1.42197,1.55741 z m 62.20298,-1.15633 c -2.86426,-0.57087 -6.37457,-1.73582 -4.84005,-5.40378 0.31493,-1.03841 -0.15158,-4.8667 1.14104,-4.09903 0.1655,2.5187 -1.81687,6.22766 0.87632,7.83788 2.4741,0.46629 6.52233,3.0317 7.82384,-0.41778 1.27908,-1.62931 0.17022,-4.06164 1.44162,-5.15743 -1.49069,-2.80219 -6.61649,-0.0474 -7.40865,-2.99354 2.51107,0.98679 5.5506,1.09067 8.14248,1.19424 2.19328,-0.49184 3.42399,-4.16779 5.71676,-2.96067 -1.18501,1.84685 -4.26499,2.17094 -4.8787,3.93946 1.81401,0.93708 4.56352,-2.45885 5.38531,-1.31366 -1.8183,2.11304 -5.78118,1.52504 -6.84952,4.1944 -0.33128,2.35546 -1.22588,6.85676 -4.51376,5.69387 -0.68609,-0.14125 -1.36315,-0.32302 -2.03669,-0.51396 z m -179.325488,0.13653 c 0.392349,-1.51348 3.331099,-2.38569 1.264973,-0.2448 -0.213651,0.069 -1.16662,0.94095 -1.264973,0.2448 z m -5.025677,-0.28162 c 0.06957,-2.27842 -1.047854,-5.17344 -0.629122,-7.05905 1.76227,0.44289 3.262771,1.00706 3.092223,-1.32996 0.392811,-2.17853 3.158951,-3.01369 3.923854,-4.13853 -1.468653,-1.29723 -0.701155,-2.09349 0.627773,-0.55978 2.21308,1.73526 4.380238,4.46301 5.079702,6.93423 -2.259715,-0.97508 -2.451646,-6.00374 -5.546271,-4.39164 -3.747061,1.08912 -2.895214,5.6641 0.443316,6.56301 1.37383,0.62867 1.034252,5.48513 0.182391,2.27956 -0.293996,-2.37664 -4.449704,-4.75389 -6.192306,-3.45491 -1.923036,-2.26164 -0.120457,2.60021 -0.380146,3.66236 0.04433,0.49371 0.411372,2.20105 -0.601419,1.49471 z m 3.245173,-7.87653 c -0.598886,-0.19874 0.2518,1.50842 0,0 z m 125.169752,6.62536 c -1.2509,-1.34573 1.35565,-1.55159 0.67772,-3.09302 0.97552,-0.90671 3.59539,-3.42817 4.03155,-0.86671 -0.65231,1.24532 -4.34165,1.35684 -1.46032,2.55267 2.73786,2.17164 -2.20705,2.01521 -3.24895,1.40706 z m -12.77758,-2.10536 c -0.13249,-1.77537 0.78184,-2.59737 2.10437,-1.39089 3.16694,-0.3627 1.2188,4.54508 -1.24979,3.2963 -1.58129,0.38793 -0.72705,-0.96785 -0.85458,-1.90541 z m -96.21206,0.22052 c 2.409646,-1.92403 5.923853,-1.95246 8.664878,-3.42248 2.730715,0.16685 5.298834,-4.28915 7.721561,-1.11605 -1.418196,1.83041 -4.629604,0.49901 -6.367829,2.14076 -2.613122,1.30115 -5.475028,1.78846 -8.259156,2.43785 -0.41556,0.0332 -1.610093,0.68901 -1.759454,-0.0402 z m 174.8047,-0.65272 c 0.41308,-1.57728 3.22003,-0.72333 4.41438,-2.20146 2.36189,-0.0546 -1.83869,1.90952 -2.5028,2.3311 -0.78373,0.25636 -2.26013,1.71815 -1.91158,-0.1298 z M 40.703688,150.08384 c -2.607804,-1.12518 2.437849,-4.08538 2.269109,-0.8374 0.553103,1.68713 -1.403292,1.46912 -2.269109,0.8374 z m 128.005932,-0.37287 c -1.80886,-2.06157 -1.42619,-5.1479 -2.72303,-7.66696 -0.0524,-1.42907 -2.04152,-5.5 0.88245,-3.86135 1.41484,1.58695 2.1447,4.14423 1.68012,5.51924 0.51936,1.66349 2.26766,5.33412 0.49149,6.51812 -0.24576,-0.0202 -0.34796,-0.30191 -0.33103,-0.50905 z m -113.537755,-1.2954 c -0.822851,-2.52395 3.675687,-1.69809 1.632442,0.48086 -0.573973,0.12351 -1.224439,-0.0528 -1.632442,-0.48086 z m 99.807585,0.018 c -0.65058,-3.54181 -0.0686,-7.22196 0.33908,-10.77703 1.07164,-2.50024 -2.4283,-4.68577 0.22421,-6.84135 0.69421,-1.21418 -2.61159,-3.75482 0.16828,-3.02312 1.48881,2.39256 1.97727,5.80847 0.8869,8.47632 -0.81519,2.90432 -1.16877,5.98093 0.26779,8.42541 -1.67721,0.97262 -0.54487,2.66341 -1.0824,4.13384 l -0.38813,-0.0618 -0.41587,-0.33225 z m 0.8988,-4.58323 c -0.65712,-0.30752 0.26364,1.48334 0,0 z m -0.34189,-10.73693 c -0.55126,0.35163 0.32828,1.68186 0,0 z m 32.88773,15.40424 c -1.37208,-0.87225 -2.08402,-3.34251 0.41941,-2.53516 2.72701,-0.0557 2.12154,4.15868 -0.41941,2.53516 z m -6.4311,-0.13945 c -0.48803,-1.8283 1.29739,-3.46502 2.48831,-1.18928 0.83397,1.278 -1.7864,1.73699 -2.48831,1.18928 z M 74.609769,146.92021 c 3.322534,-4.29523 7.331341,-8.03363 10.651178,-12.34604 0.569034,-1.62266 2.803748,-1.51719 0.965654,-0.0366 -2.572992,3.18274 -5.231271,6.30397 -8.097988,9.23578 -1.042904,0.68265 -2.539015,3.7671 -3.518844,3.14678 z m -22.770114,-0.49382 c -0.957514,-2.34823 2.743266,-2.55889 2.258964,-0.0299 -0.594677,0.58122 -1.691325,0.75036 -2.258964,0.0299 z m 157.941795,-0.80171 c -1.54977,-2.89741 -1.04762,-6.42292 -0.60307,-9.55754 0.66669,-2.4017 0.39322,-5.18132 2.35487,-6.70627 -1.92678,-2.35535 4.66136,-0.38967 2.57639,-2.97172 -0.0391,-1.27443 -1.85669,-4.12121 -0.80487,-5.08792 1.78877,1.75533 0.21064,6.52431 3.58465,6.0326 2.26721,-0.32097 -0.61288,-5.03286 0.97798,-5.58783 0.58418,2.76029 0.51286,5.65619 1.18227,8.42458 0.19761,2.58082 2.03355,5.1681 0.99987,7.72277 -0.71679,2.38989 -0.27808,5.34966 -3.21662,6.17206 -1.50955,2.37275 -4.70952,2.52957 -7.05147,1.55927 z m 1.45728,-0.16192 c -0.31668,-1.44303 -2.29927,-4.85974 -1.34636,-1.42282 0.0761,0.54936 0.62465,1.93436 1.34636,1.42282 z m 3.61445,-1.69885 c 1.54354,-1.22909 4.01535,-1.53659 3.61785,-4.29369 0.59988,-3.7245 0.11857,-7.63604 -1.76813,-10.9314 0.26002,-1.37943 -3.50323,0.18819 -4.12469,0.85054 -2.0944,2.01388 -1.97799,4.88032 -2.37765,7.59412 -0.9991,2.71268 -0.21994,6.45245 2.43554,7.59333 0.77994,-0.004 1.91619,0.15158 2.21708,-0.8129 z m 3.12459,-15.00932 c -1.08905,-0.66499 0.90183,1.55035 0,0 z m 16.86962,16.92068 c -2.76936,-0.39434 -2.38003,-4.03404 -3.38628,-6.02573 -0.92377,-3.17968 4.3794,-4.27826 3.85457,-6.71218 -1.91629,-1.82466 -4.44341,-5.51945 -1.90625,-7.78841 0.477,-1.05853 1.05721,-4.08792 2.38708,-3.7442 0.24038,1.28198 -1.32531,2.96184 -1.30948,3.79363 0.88595,-0.36858 5.03237,-1.18288 3.64801,-0.0609 -2.79994,-0.47918 1.05378,1.95068 1.00624,-0.37909 0.60531,-0.73404 1.61096,-2.48398 1.2764,-0.34745 -0.40058,1.13091 -1.67568,2.13274 -0.43146,3.17733 1.13709,1.15786 0.53458,2.90621 -0.3948,0.81349 -1.74916,-3.99385 -5.42565,-0.99009 -4.7295,2.28557 0.3099,0.88567 1.51678,3.29466 1.9492,1.25838 1.74467,-2.0561 5.31094,-0.92169 7.27865,-3.08553 2.18935,-1.4342 5.78241,-1.33034 5.58549,1.99457 2.52328,2.06754 2.21529,6.52687 -1.317,7.28951 -3.21584,0.98773 -5.25222,3.99564 -8.05084,5.7287 -1.59486,1.27254 -3.3122,2.48562 -5.46003,1.80229 z m 3.7269,-1.39078 c 2.61219,-1.84655 4.95296,-4.05602 7.54669,-5.90862 2.70206,-0.74715 6.29303,-3.3283 3.66704,-6.30453 -1.14547,-2.08537 -2.24217,-4.70852 -5.01079,-2.71943 -2.0638,2.58528 -6.62224,0.83475 -7.75886,3.98057 -1.25332,2.52434 -5.76968,3.38786 -4.51274,6.97447 0.24295,2.83251 2.02151,6.07049 5.33173,4.40891 l 0.38066,-0.19357 z m -3.79986,-1.40779 c 0.78988,-1.13951 2.3112,-2.52436 0.83031,-3.77 -1.45009,-3.52455 2.69118,-4.43875 4.542,-6.49977 0.47651,2.16919 3.3899,-2.69446 3.59643,0.85878 1.0796,0.95021 0.35814,-2.14569 2.08435,-1.36787 1.23636,-2.29386 1.88729,4.25205 2.12156,1.15829 -0.73608,-1.40133 -0.43272,-3.49713 1.01274,-1.36093 1.07497,1.52994 0.13968,4.49817 -0.98602,2.95853 0.21513,1.21943 -0.26481,3.09852 -0.69986,0.81849 -0.92179,-0.31479 -1.21804,3.21515 -1.74092,1.18966 -1.70772,1.44698 -3.21372,2.97335 -5.06331,4.00065 -2.46018,-0.38376 -3.18209,3.86584 -5.68785,2.40397 l -0.009,-0.38947 z m 1.4892,-0.17045 c -1.33998,-0.31051 -0.66821,0.6132 0,0 z m 1.45554,-2.62842 c 1.30785,-1.33866 -1.98558,-1.48058 -0.84659,0.40282 0.39787,1.24625 0.25199,-0.68629 0.84659,-0.40282 z m 3.96962,-2.44352 c -1.14032,-2.29366 -1.54299,1.23945 -0.42598,1.74258 0.26874,-0.53972 0.38836,-1.14451 0.42598,-1.74258 z m -2.32796,1.11623 c -0.38863,-0.79395 -1.78682,-4.97939 -0.22456,-2.44026 0.0252,1.30852 1.8351,3.84422 0.78665,1.13271 -0.52692,-1.15656 -0.87102,-3.43345 0.94189,-1.98148 -0.23977,-2.61849 -4.64656,0.12823 -2.5277,1.8698 -0.0508,0.57358 0.0777,2.66947 1.0237,1.41923 z m -2.00646,-0.98463 c 0.43154,-2.54502 -2.52486,-1.30007 -1.07893,0.45515 0.35298,0.33584 1.08834,0.0436 1.07893,-0.45515 z m 5.05911,-0.98761 c -1.0535,-0.38969 0.61984,2.79931 0.22209,0.44156 l -0.22209,-0.44127 z m 1.17025,-0.48181 c -1.27097,0.11049 0.60411,2.20388 0,-7e-5 z m -0.37787,-1.83582 c 0.0606,-2.1646 -1.80586,-1.24676 -0.60943,0.34826 0.40489,0.57484 0.27042,1.64539 0.65589,0.0939 l -0.0465,-0.44226 z m 1.79582,-0.0341 c -0.63071,-1.50906 -1.31074,2.22625 9e-5,0 z m 1.93748,0.3039 c 0.37904,-2.18668 -2.02991,-1.78073 -0.80165,0.16798 0.15428,0.50383 0.78674,0.2695 0.80165,-0.16798 z m -12.50899,-6.07475 c -0.5964,-1.24607 2.82932,-3.61027 0.70893,-2.89139 -2.85725,-0.33979 -2.28443,3.44705 -1.0133,4.2986 0.18504,-0.44641 0.23902,-0.93318 0.30437,-1.40721 z M 47.567884,144.66304 c -2.233267,-0.28964 -1.008054,-3.75591 0.187063,-2.74425 0.128069,-2.03164 3.581808,3.11779 -0.187063,2.74425 z m 204.525566,-0.60902 c 1.85016,-1.18081 2.97355,-4.83021 4.6347,-4.84577 -0.8782,1.84862 -2.37706,4.90506 -4.6347,4.84577 z m 12.26724,-1.89878 c -0.8443,-5.73016 -1.31173,-11.51114 -1.85614,-17.26941 -1.24149,-3.53118 -0.42506,-7.38159 -1.24638,-11.01002 -0.86878,-6.80082 -1.7515,-13.60768 -2.8584,-20.371203 -0.69963,-2.90623 -2.00016,-5.72373 -1.66576,-8.78994 0.69256,-3.30996 -1.68987,-5.70427 -4.95374,-5.40445 -2.88506,-0.4874 -5.93223,-0.26566 -8.72846,-1.09428 2.77337,-0.85703 5.94345,0.0759 8.85698,0.0739 3.30373,-0.5543 6.18961,1.24532 5.51165,4.84847 -0.0202,2.87171 0.59501,5.65026 1.71245,8.27872 1.59411,5.50917 1.09091,11.376383 2.59249,16.898393 1.6126,2.64376 0.62768,6.03125 0.97054,9.0044 0.0297,3.43187 0.83296,6.78876 0.93401,10.22173 0.25466,3.12406 0.45257,6.27561 1.17015,9.31862 -0.009,1.73209 0.6385,5.60786 -0.25322,6.06368 l -0.10555,-0.34605 z m -2.3341,-30.13874 c -0.55127,0.35171 0.32831,1.68183 0,0 z m -12.60152,30.64106 c 1.1597,-1.78286 3.31923,-2.93832 4.51019,-4.51905 1.90997,0.23411 -1.15256,3.12727 -2.17664,3.41256 -0.3843,0.46433 -1.9422,1.65217 -2.33355,1.10649 z m -63.06955,-1.20364 c -0.80661,-1.0041 -5.19728,-2.34477 -1.55731,-2.30253 1.69679,0.46307 1.90216,-0.73451 1.00316,-1.80346 1.84517,-1.6877 3.19599,5.08554 1.08948,4.64973 l -0.28538,-0.23575 -0.24988,-0.30799 z M 74.395595,141.00198 c -2.60983,-1.83586 -2.621155,-5.49605 -3.040166,-8.36725 0.618409,-2.26009 -0.765048,-2.97333 -2.781043,-3.02783 1.168877,-1.39599 4.867407,0.15203 3.567171,2.69754 0.02679,2.45477 0.367061,5.18128 2.019408,7.10201 1.058972,0.34985 2.244644,-0.66555 1.592292,1.26432 2.413591,0.16101 -0.482485,1.53919 -1.357662,0.33121 z m 99.369265,-1.21002 c -2.69129,-0.48953 -0.94,-2.67884 0.33639,-3.66618 1.37098,0.74488 2.77433,4.00114 0.52395,3.95607 l -0.37326,-0.12104 -0.48706,-0.16932 z M 65.293078,138.38764 c -2.327228,-0.88389 -3.33627,-3.28896 -5.464399,-4.57001 -1.086288,-0.41057 -4.687534,-1.90842 -1.455534,-1.40165 2.871154,0.43788 4.000006,3.49329 6.251816,4.5317 1.480427,0.25289 2.814523,3.67524 0.668117,1.43996 z m -18.980243,-0.33669 c -1.741003,0.27972 -1.969702,-2.41351 -0.302356,-0.95072 0.787621,0.64567 5.558927,0.69031 2.487185,1.35173 -0.744019,-0.007 -1.485524,-0.14956 -2.184829,-0.40101 z m 132.961445,-0.0299 c -1.76114,-1.2857 -1.52941,-3.83429 1.07224,-2.8643 0.73608,0.68535 0.72471,4.87827 -1.07224,2.8643 z m -129.11039,-0.0157 c 2.464614,-1.94614 -2.808487,-0.84768 -3.764824,-2.14814 -1.038245,-0.1143 -3.104324,-2.21704 -0.73086,-1.11622 2.28381,1.26306 5.348391,2.25562 7.115498,-0.25122 -0.660401,0.89181 -0.666339,4.27762 -2.619814,3.51558 z m 25.985701,-0.3719 c 0.147495,-2.62215 0.589214,-5.26533 0.469166,-7.92202 -0.2301,-1.20673 0.570559,-4.41789 0.619508,-1.40857 -0.05702,3.22682 -0.122995,6.47159 -0.377463,9.68338 -0.16757,0.53476 -0.77754,-0.0777 -0.711211,-0.35279 z m 27.594289,0.25142 c -2.35169,-0.13069 -2.2178,-1.70209 -2.31352,-3.49751 0.0184,-1.34022 4.08959,-0.0326 5.51651,-0.23824 1.22687,-0.24816 2.15271,0.84457 0.39085,0.85315 0.20478,1.15249 0.28988,2.61454 -1.61835,2.90998 -0.62632,0.2651 -1.38302,0.41964 -1.97549,-0.0274 z m 2.14928,-0.87326 c 2.8197,-2.58562 -4.31488,-3.47804 -2.95686,-1.13623 1.02995,-1.7221 4.57691,0.55416 2.03589,1.31831 l 0.43188,-0.0447 0.48903,-0.13744 z m -64.432602,-0.44947 c -3.67304,-1.04164 1.836239,-1.21786 2.236858,0.30307 -0.726266,0.26778 -1.522923,-0.15023 -2.236858,-0.30307 z m 156.830352,-0.37125 c -1.2483,-1.06406 -4.76048,-3.34137 -3.67226,-4.63774 1.4613,1.11923 4.53487,3.30149 4.10731,4.7666 z m -74.91784,-1.52978 c -0.91674,-0.53056 -2.25666,-2.6617 -0.22824,-1.21885 1.27675,0.58039 3.04241,3.65001 0.54732,1.49994 l -0.31908,-0.28105 z m 75.76627,-1.29922 c -0.83516,-0.8103 -3.37909,-4.11248 -1.60744,-4.09007 0.79202,1.40809 3.56646,3.7073 2.56967,5.03111 -0.42335,-0.1947 -0.70221,-0.57511 -0.96223,-0.94104 z m -158.811872,-0.7509 c 0.682754,-2.63516 0.654872,-5.22348 0.37499,-7.87563 1.533961,0.0265 -0.05726,-2.90066 1.22614,-3.05142 0.629488,-1.07126 1.452817,-3.19841 2.467921,-3.80633 0.461386,0.74486 -1.956882,3.86962 -0.141499,2.42782 0.964388,-0.36117 1.798099,-4.16337 1.830124,-1.26848 -0.426188,2.42252 -4.536692,1.72522 -3.084517,4.59934 -0.469359,1.85902 -2.105989,2.86626 -1.31835,5.14173 -0.06892,0.99083 0.372588,3.62767 0.636725,1.15402 0.09854,-0.8299 -0.278458,-5.39138 0.711133,-2.49844 0.02967,2.11821 -0.03115,6.43172 -2.532085,6.73322 -0.563984,-0.28275 -0.111654,-1.1023 -0.17058,-1.55583 z m 47.281569,1.41819 c 0.03418,-3.24393 4.130088,-1.5795 6.217386,-2.25679 8.760337,-0.41385 17.535207,0.17853 26.290057,0.51233 2.70838,0.37176 -2.10684,0.60587 -2.95535,0.46305 -8.82502,-0.0584 -17.683124,-0.85755 -26.487679,-0.004 -1.244793,0.018 -2.153524,0.71036 -3.064414,1.28557 z m -40.782756,-1.04243 c 1.102446,-2.62849 1.165099,-5.48978 1.159618,-8.30453 -0.09544,-2.58566 1.003623,-5.05906 2.243963,-7.22432 -0.02475,2.91674 -1.29446,6.26319 -0.933213,9.41716 0.403166,2.00123 -1.087726,5.17234 -2.470368,6.11169 z m 4.559157,-0.0202 c 0.586512,-1.04811 5.699577,-2.43689 2.707287,-0.49752 -0.665238,0.69283 -1.844888,0.96722 -2.707287,0.49752 z M 188.88583,132.8509 c -1.83291,-0.72355 1.32997,-1.33423 -0.76293,-2.33267 -0.37535,-1.79443 1.8748,-1.47914 1.26789,0.30795 1.04924,0.95157 2.68215,3.21929 -0.50496,2.02472 z m 14.06474,-1.24658 c -1.49681,-1.83028 -3.96946,-3.74595 -3.1109,-6.39413 1.59473,1.98798 3.16135,4.33347 4.85911,6.38335 1.46184,1.29349 0.50332,2.26608 -0.8248,0.86334 -0.32716,-0.26245 -0.63474,-0.54859 -0.92341,-0.85256 z m -0.0836,-1.86591 c -0.88431,-1.02108 -2.52121,-2.47478 -0.93923,-0.54942 0.16019,0.14282 0.78747,1.02745 0.93923,0.54942 z m -146.67522,1.30088 c 0.4426,-1.10668 1.788043,-5.50023 1.446662,-1.92084 0.007,0.40204 -1.088905,3.55356 -1.446662,1.92084 z m 127.92222,-0.30013 c -0.40244,-0.68912 -3.33814,-1.45869 -1.08828,-1.89176 1.99594,-1.0081 2.95243,2.2112 1.12224,2.13368 l -0.0338,-0.24192 z m -130.746976,-0.8562 c 1.096463,-2.24316 1.676885,1.22958 0,0 z m 151.954626,-0.94488 c -0.43039,-0.92312 -2.9489,-3.73912 -1.13204,-3.94118 0.57546,1.45363 3.02779,3.95288 1.9691,5.12603 -0.39345,-0.3044 -0.62166,-0.75173 -0.83706,-1.18485 z M 55.206967,128.42463 c -0.165707,-1.4669 -0.377804,-3.57943 1.498789,-2.51562 2.374764,0.46159 -1.725573,0.33804 -0.755921,1.68458 0.525585,1.11586 -0.279123,3.22136 -0.742868,0.83104 z m 111.958343,0.30395 c -1.62759,-1.02516 0.86156,-3.22718 -1.77959,-3.37173 -0.39891,-1.51981 2.75562,-0.60273 3.68309,-0.97686 1.21566,1.73701 1.31766,7.04629 -1.90342,4.34837 z m 0.8746,-0.51926 c -1.21212,-1.64417 -0.61975,0.78441 0,0 z m 73.33758,0.66483 c -0.0415,-1.11621 2.59485,-5.9243 2.19016,-2.7139 -0.14304,0.4967 -1.777,4.73098 -2.19016,2.7139 z M 59.047936,128.63819 c -0.118705,-2.48085 1.965937,-3.90199 1.491262,-6.51411 0.228286,-1.1272 -0.427639,-3.78044 -0.855287,-1.26931 0.189982,1.39583 -0.797076,3.45217 -0.839732,0.90129 -0.683782,-1.15761 -1.070268,-3.32522 -0.858278,-4.29815 1.479205,0.28655 0.482114,4.43577 1.410562,1.61152 0.03366,-1.09327 0.540178,-3.58439 1.26171,-1.1385 1.046542,2.29075 0.256949,5.28822 0.160631,7.81846 -0.117829,0.5033 -1.611386,4.72404 -1.770857,2.8888 z m 165.850284,-0.57102 c -0.10173,-1.38572 0.0312,-2.93307 0.36435,-3.31588 -0.56435,-1.32478 0.47067,-6.41762 0.88322,-2.68926 -0.25165,1.96227 0.51138,5.73052 -1.05813,6.56393 z m -17.00824,-0.21154 c -0.12813,-0.96624 -3.17479,-3.92607 -1.30235,-3.86393 0.54456,1.06621 3.13941,4.05697 1.60964,4.46552 -0.2093,-0.11992 -0.30766,-0.37038 -0.30729,-0.60159 z m -98.11836,-0.073 c -9.57676,-0.55951 -19.181785,-1.55343 -28.777503,-0.84762 -0.633615,-0.93267 -1.339636,-5.19087 -0.001,-2.92793 0.218973,1.12188 0.03359,2.62461 1.634042,2.04128 9.79294,-0.47651 19.552531,0.77052 29.331271,1.09931 2.94738,0.25497 5.98168,0.044 8.86401,0.73237 -3.44136,0.54612 -7.01754,0.0409 -10.5015,-0.0611 l -0.54937,-0.0364 z m -42.983507,-3.04124 c -0.589762,-2.41599 -1.821954,-5.15642 -1.407987,-7.49149 1.315147,2.759 1.182046,6.12494 2.637056,8.91137 0.621978,3.70013 -1.1317,-0.79281 -1.229069,-1.41988 z m 153.866047,0.69327 c 0.43406,-1.2612 -1.03679,-5.26865 0.71448,-4.83472 0.57619,1.71127 0.61454,6.41604 -0.60251,6.47767 -0.10734,-0.54013 -0.10959,-1.09471 -0.11183,-1.64295 z m -149.144311,1.53688 c -0.847062,-2.40704 1.37092,-4.74494 2.807139,-6.51099 1.679221,-1.31431 3.59313,-2.88773 3.748294,-4.59781 -0.171927,1.65012 1.436066,2.75092 1.471633,0.49215 0.818375,-3.44013 0.131617,2.38583 2.205026,1.74847 1.911491,0.50183 4.221571,2.46062 5.579019,2.67145 -0.276167,-1.00585 -0.963211,-2.988 -1.79032,-2.12277 -0.628443,-1.02114 0.145496,-5.48128 0.587869,-2.11258 1.658316,1.0293 2.892645,2.6754 4.243439,4.09971 -0.443511,-1.19583 -2.187486,-2.81088 -1.361203,-3.86616 1.10742,0.36267 3.027132,4.49128 1.768694,1.35377 -0.473068,-2.99615 2.289367,0.43027 2.560967,0.69292 -0.898476,-1.1149 -1.36134,-4.13532 0.506277,-1.78042 0.88749,1.96746 0.136019,-0.63958 0.228886,-1.43228 1.317141,-0.2414 1.036522,4.29036 1.562454,2.73143 -0.0092,-1.26284 1.842695,-3.95953 1.063861,-1.20394 -0.227177,1.71283 -0.204803,3.44366 -0.271915,5.16693 -2.158633,0.52793 -4.495991,1.25689 -6.664196,0.65533 1.450578,-1.08813 6.846123,0.15405 5.573212,-2.83691 -1.382254,-1.54743 -0.06997,2.38843 -1.592943,0.41324 -0.703802,-0.96834 -3.177961,-4.24046 -1.73335,-1.08036 1.017545,1.25247 0.891512,3.70786 -0.601432,1.38117 -1.880941,-3.2226 1.111585,2.98359 -1.094708,0.64239 -1.048608,-1.15869 -2.454423,-3.39996 -3.508981,-3.70119 0.788605,1.91484 2.474979,4.67275 0.05129,5.93759 -2.45717,0.94463 -4.780704,-2.61286 -7.518448,-1.16228 -2.458332,0.94914 -4.083866,3.09185 -6.342206,4.34511 -0.440442,0.17066 -1.052784,0.43594 -1.478341,0.0759 z m 1.750599,-0.80695 c 0.292895,-1.31629 0.449947,-4.1055 2.590997,-2.55604 1.338635,-0.47199 -1.007286,-2.90376 1.514042,-2.77235 0.388877,0.86359 -0.967271,2.34058 1.067369,1.27605 1.795602,-1.22527 4.302902,-0.12172 5.719528,0.14888 -0.406142,-0.7932 -4.045187,-2.19341 -1.607421,-2.30906 -0.727896,-2.2472 -4.722032,-1.70027 -6.293507,-0.26766 -1.971276,1.67667 -3.790343,3.88044 -4.305194,6.4615 0.132493,0.6518 0.934511,-0.071 1.314186,0.018 z m 4.52156,-5.37267 c -0.06553,-1.93843 1.75267,-0.17292 1.980799,-1.59673 0.991216,1.25507 -1.142378,2.56364 -1.980799,1.59673 z m -2.669925,3.69831 c -0.510481,-1.1709 -1.261627,1.11616 0,0 z m 11.373098,-1.78136 c 1.436702,-2.08964 -5.497682,-3.72189 -1.830977,-1.54078 0.862612,-1.09905 1.14697,1.41985 0.143519,1.43802 0.510699,0.28845 1.26586,0.83734 1.687472,0.10285 z m 7.662873,-4.09339 c -0.953157,-1.22837 0.314939,1.5113 0,0 z m 115.987526,6.36379 c -0.84638,-1.26338 -0.48311,-4.20693 0.69754,-1.40369 0.82442,1.09536 0.87276,4.83781 -0.44154,2.12398 l -0.13229,-0.34765 z m 18.1924,1.64483 c 0.62858,-1.52145 1.08244,-3.06044 0.32436,-3.64081 1.51875,-1.98304 1.10975,2.33992 2.08713,0.002 0.2662,-0.8094 1.13769,-3.45164 1.378,-1.07271 -0.64433,1.46188 -1.37787,3.66814 -2.36656,4.51646 -0.5454,-1.13785 -1.0255,0.5573 -1.42293,0.19492 z M 49.774519,125.93151 c 0.03454,-1.18182 4.602662,0.0416 1.516231,0.29858 -0.501685,-0.009 -1.102046,0.0472 -1.516231,-0.29858 z m 125.559991,-0.72099 c -1.72317,-1.18002 0.90129,-2.92918 1.26936,-0.87856 2.61411,1.00529 -0.0771,2.75905 -1.26936,0.87856 z m -77.049851,-0.26337 c -0.565033,-2.9389 -0.03984,-6.04021 0.43047,-8.98107 1.180842,-2.2313 0.233142,2.30896 -0.04579,3.08813 0.172421,0.82777 -1.088348,2.95431 0.468642,2.60116 1.277559,-0.10802 4.414719,0.528 1.898889,-0.87201 -0.29414,-2.47738 3.48994,1.90948 2.60872,-1.47766 -1.16918,-2.84371 0.80162,-4.09173 3.1012,-2.2532 3.25725,1.68671 -2.21258,3.23064 -2.5576,5.15155 -1.57692,0.59175 -5.452922,-1.00136 -5.133772,1.71808 2.587722,-0.4947 7.163332,0.8818 8.184822,-2.27649 0.2397,-2.9363 2.85087,-1.2164 4.11016,-0.69864 0.27609,-1.63349 0.15131,-2.15479 -1.38325,-1.59107 -0.18812,-1.19524 1.78861,-4.25818 2.7964,-3.93417 -1.8346,1.45439 1.16632,7.41511 -2.56049,5.9547 -2.07595,-2.86354 -4.44239,3.94154 -0.89169,2.48164 2.33722,0.35769 4.79205,0.0573 4.1263,-2.96729 0.48131,-1.47954 -0.32899,-5.09515 1.3699,-5.27716 0.0799,2.10258 -1.51682,4.55166 -0.96808,7.00286 0.45795,3.22861 -4.18221,1.4088 -6.22669,1.95881 -3.10531,0.0256 -6.28862,0.0876 -9.32815,0.37183 z m 7.658231,-5.68722 c 3.16362,-1.35156 -2.28312,-3.69009 -1.46277,-0.46781 -0.34793,1.80838 0.41504,1.34386 1.46277,0.46781 z m -48.41174,5.26614 c 1.414842,-1.84451 1.673723,1.26372 0,0 z m -7.265058,-0.84557 c 1.010812,-0.99723 5.448414,-0.0326 1.974775,0.32168 -0.590844,-0.0658 -1.603742,0.23209 -1.974775,-0.32168 z m 66.872768,-0.81104 c 0.54578,-2.08567 0.88012,-6.29355 2.64834,-6.74794 -0.18356,1.95749 -3.37743,5.89749 -0.8034,6.65326 -0.0222,-2.40554 1.6925,-4.46979 3.42702,-6.14385 1.43881,-0.58812 3.14072,1.96844 2.99296,-0.76018 1.20867,1.17919 0.98858,6.66866 -1.47558,3.22931 -2.51705,-1.80765 -0.68324,1.43581 0.70864,1.75846 2.2224,1.46201 0.54072,2.99913 -1.51631,2.46651 -1.68322,-0.57239 -5.68071,1.43681 -5.98167,-0.45557 z m 5.8603,-0.72335 c -1.26153,-1.11613 -0.51052,1.17086 0,0 z m 0.99638,-1.01324 c -1.47248,-1.85688 -1.88587,0.99709 0.12697,0.99027 1.33413,0.64039 0.21846,-0.6849 -0.12697,-0.99027 z m -2.35932,0.71632 c -0.91819,-2.97908 -1.74619,1.07832 0,0 z m 2.53501,-4.18805 c -1.0841,-1.08332 -0.94227,0.47343 0,9e-5 z m 39.82522,4.73612 c -1.65611,-3.51983 4.94785,0.48102 0.78119,0.10555 -0.24409,-0.0436 -0.567,0.0768 -0.78119,-0.10555 z m 16.93609,-0.39635 c -1.42356,-0.58165 -3.46621,-2.00991 -0.66453,-1.57218 1.96218,-1.11106 4.09422,2.94359 1.2167,1.80303 l -0.55217,-0.23076 z m -5.76328,-3.20354 c -1.00836,-1.19634 -2.28869,-2.75184 -0.45873,-3.58857 -1.422,-0.21648 -0.88579,-3.03288 0.17007,-0.81256 1.53169,-0.13182 3.42193,0.0546 2.35817,2.25539 0.71586,1.57748 -0.34323,1.24483 -1.1322,1.61267 0.12003,0.85281 -0.50001,1.8821 -0.93736,0.53307 z m -4.9527,-1.3395 c -0.95976,-0.45787 -2.40452,-1.63461 -0.26389,-1.21093 1.53017,0.23979 2.5024,3.18393 0.26389,1.21093 z m 12.79565,-1.67438 c 0.16513,-2.03247 3.26165,1.02738 0.61923,0.62604 -0.30287,-0.0703 -0.55193,-0.32261 -0.61923,-0.62604 z m -14.15411,-1.70504 c -0.54214,-2.42644 2.69945,-0.51551 0.32259,0.21491 l -0.17858,-0.0644 z m 15.10852,-1.50391 c -1.11465,-1.86833 1.43312,-2.89437 2.58023,-3.76957 2.13807,1.29392 -0.31743,3.64581 -1.61519,4.23395 -0.36487,-0.029 -0.70921,-0.20638 -0.96504,-0.46438 z m 1.48673,-0.47468 c -1.18607,-1.22624 -0.77676,1.10751 0,0 z m 1.4606,-1.8418 c -1.46293,-1.65899 -0.0945,1.6577 -6e-5,0 z m -18.82016,0.65102 c 2.26361,-3.30331 1.91992,1.93424 0,0 z m -14.23032,-0.37195 c -1.12627,-1.51076 1.21559,-3.20443 0.76834,-0.56936 0.0332,0.42683 -0.2952,1.17681 -0.76834,0.56936 z m 21.66474,-0.94883 c -2.81848,-1.31874 1.28588,-1.46104 1.36238,0.20548 -0.32957,0.4953 -1.1639,0.3169 -1.36238,-0.20548 z m 2.9765,-3.73795 c -1.70658,-1.18546 3.96574,-0.0916 1.35462,-1.31957 -2.78534,-3.40021 4.8788,1.29084 0.69288,1.41007 -0.6746,0.12979 -1.39309,0.1536 -2.0475,-0.0905 z m 8.70323,-0.9653 c -0.94333,-1.29998 -1.65061,-2.91126 -2.96492,-3.46656 1.7093,-0.0463 3.81029,-0.8882 4.58814,1.42679 1.58709,0.5794 0.85192,1.97429 -0.54491,1.46716 0.49589,0.96922 -0.47615,1.1064 -1.07831,0.57261 z m -35.50578,-2.89421 c -1.35878,-1.30553 0.56071,-4.501413 1.02481,-1.55752 0.12518,0.61053 0.0585,2.65362 -1.02481,1.55752 z m 21.33888,-1.83677 c -1.47548,-3.382513 3.75306,-0.446253 1.04348,0.84688 -0.52929,0.13093 -0.89042,-0.42768 -1.04348,-0.84688 z m 6.79181,-2.402013 c -0.0177,-1.26951 -0.58569,-1.42749 -1.74674,-1.72619 0.90399,-1.72973 6.63294,2.28268 1.74674,1.72619 z m -0.0724,-5.31902 c -2.32778,-1.09445 1.88114,-3.43003 1.2157,-0.5093 0.37072,0.99873 -0.72586,0.73635 -1.2157,0.5093 z m -7.70212,-1.59774 c -1.442,-1.35053 0.13211,-1.10594 0.6226,-2.15079 -1.39292,-0.69465 -1.40874,-3.20116 0.18511,-3.87876 0.83078,-2.02403 3.39354,-0.5527 1.18295,0.77875 -2.07722,0.30058 1.35432,5.36126 -1.83208,5.65967 -0.006,0.018 -0.30965,-0.40963 -0.15861,-0.40887 z m 17.83208,-0.51273 c -1.48356,-0.71501 -0.98196,-4.82118 0.0674,-1.62385 0.66786,0.69995 2.90912,2.17723 0.50876,1.8117 z m -7.76256,-3.85944 c -2.49521,-1.22338 -0.41995,-3.36243 0.87416,-4.07325 0.7489,1.11802 2.59929,5.3554 0.10283,4.86435 -0.34822,-0.23485 -0.66634,-0.51042 -0.97702,-0.7911 z m 1.65112,-1.15325 c -0.78378,-1.14908 -0.34339,1.04409 0,0 z m -1.33951,-0.33487 c -0.78379,-1.14904 -0.34333,1.04404 0,0 z m -33.26816,1.73173 c -1.57683,-1.3074 0.55218,-5.60571 1.19498,-2.25805 1.81381,0.9942 0.95527,4.32477 -1.19498,2.25805 z m 1.45502,-0.69128 c -1.09806,-2.71616 -2.07688,0.84922 -0.0647,0.42441 z m 34.89133,-4.34237 c -1.2859,-1.23818 1.60551,-3.21501 0.6404,-0.75636 2.14248,-1.77781 1.23546,2.39757 -0.6404,0.75636 z m 6.60307,-0.33878 c -2.00476,-1.39915 2.67894,-3.32226 1.53709,-0.33168 -0.01,1.13091 -0.94648,0.93841 -1.53709,0.33168 z m -11.18391,-2.38014 c -0.5758,-2.50233 3.3032,-1.35449 1.42149,0.29057 -0.48133,0.0779 -1.04103,0.0595 -1.42149,-0.29057 z m -34.15294,-2.33435 c -0.78408,-1.26154 -0.87353,-4.863498 1.08883,-2.37965 2.03846,1.13879 0.95682,5.39861 -1.08883,2.37965 z m 1.43685,-0.57687 c -1.61861,-3.553064 -0.53131,3.12267 0,0 z m 39.77427,-0.41115 c -1.29226,-2.166201 4.66229,0.024 1.01548,0.53707 -0.4427,0.26577 -0.78079,-0.29721 -1.01548,-0.53707 z"
       id="path4509"
       inkscape:connector-curvature="0" />
  </g>
</svg>
