<?xml version="1.0" encoding="UTF-8" standalone="no"?>
<!-- Created with Inkscape (http://www.inkscape.org/) -->

<svg
   xmlns:dc="http://purl.org/dc/elements/1.1/"
   xmlns:cc="http://creativecommons.org/ns#"
   xmlns:rdf="http://www.w3.org/1999/02/22-rdf-syntax-ns#"
   xmlns:svg="http://www.w3.org/2000/svg"
   xmlns="http://www.w3.org/2000/svg"
   xmlns:sodipodi="http://sodipodi.sourceforge.net/DTD/sodipodi-0.dtd"
   xmlns:inkscape="http://www.inkscape.org/namespaces/inkscape"
   width="109.96986mm"
   height="167.69453mm"
   viewBox="0 0 109.96986 167.69453"
   version="1.1"
   id="svg3715"
   inkscape:version="0.92.1 r15371"
   sodipodi:docname="millie robot scan.svg">
  <defs
     id="defs3709" />
  <sodipodi:namedview
     id="base"
     pagecolor="#ffffff"
     bordercolor="#666666"
     borderopacity="1.0"
     inkscape:pageopacity="0.0"
     inkscape:pageshadow="2"
     inkscape:zoom="0.35"
     inkscape:cx="56.388493"
     inkscape:cy="291.18878"
     inkscape:document-units="mm"
     inkscape:current-layer="layer1"
     showgrid="false"
     inkscape:window-width="2560"
     inkscape:window-height="1365"
     inkscape:window-x="-9"
     inkscape:window-y="-9"
     inkscape:window-maximized="1" />
  <metadata
     id="metadata3712">
    <rdf:RDF>
      <cc:Work
         rdf:about="">
        <dc:format>image/svg+xml</dc:format>
        <dc:type
           rdf:resource="http://purl.org/dc/dcmitype/StillImage" />
        <dc:title></dc:title>
      </cc:Work>
    </rdf:RDF>
  </metadata>
  <g
     inkscape:label="Layer 1"
     inkscape:groupmode="layer"
     id="layer1"
     transform="translate(-90.913878,-58.182496)">
    <path
       style="fill:#333333;stroke-width:0.33680636"
       d="m 160.35187,224.53248 c -4.96432,-6.35065 -10.95235,-12.1652 -13.26706,-20.14165 -3.07916,-7.41956 -4.19281,-15.61198 -8.91927,-22.31311 -4.61828,-6.92051 -7.82838,-14.57896 -10.12929,-22.54781 -3.50149,-9.6305 -6.81964,-19.40618 -10.40723,-28.93332 -0.96831,-4.77405 3.17508,-14.83153 -5.60937,-10.8513 -6.37117,1.40923 -16.336682,6.66142 -21.105772,5.2202 1.02949,-2.3821 14.677892,-5.72828 21.801082,-8.98906 8.28117,-3.31378 1.78669,-13.79701 2.98516,-20.340261 -1.00179,-10.95258 -0.47087,-22.04173 -2.43639,-32.90174 9.31654,-6.997621 21.83269,-4.439151 32.31651,-2.087511 7.77457,2.653081 19.8804,1.396571 22.81484,10.941811 1.72345,8.60987 2.35824,17.43718 2.70418,26.210859 -0.8938,11.538252 12.49017,11.531232 20.58637,10.763402 2.43518,-0.97156 13.68916,0.59567 7.21817,2.78778 -7.37566,0.40833 -14.46071,0.9023 -21.75551,-0.58564 -7.22099,2.23309 2.02449,12.0437 -5.72649,15.80431 -8.25462,5.60383 -1.65418,17.98469 -0.50833,26.16424 2.79754,8.82913 5.48509,17.76323 8.86608,26.36179 5.04833,6.08069 6.19787,13.70241 9.17331,20.70131 3.01545,2.96418 1.71089,12.91566 -1.77422,5.54939 -4.60586,-8.02085 -4.46859,-18.28882 -10.94927,-25.31096 -9.2762,-1.01801 -16.9587,5.15195 -24.42775,9.56039 -7.81225,5.59108 -1.03841,14.23101 1.95036,20.4713 2.17526,6.18576 10.01339,9.78951 10.77287,15.77567 -1.48999,0.22752 -2.87064,-0.72417 -4.17298,-1.31009 z m -11.53561,-37.53913 c 6.99944,-4.98945 14.94134,-8.25686 22.88017,-11.15403 4.68578,-6.74828 -3.70534,-14.31994 -3.87414,-21.50149 -2.33776,-7.61955 -3.30452,-15.69184 -3.7931,-23.42599 -4.7003,-3.16493 -11.51856,-0.35206 -17.22076,-2.17813 -6.97897,-0.73832 -14.04185,-0.97155 -21.00203,-1.36945 -7.2463,3.72533 0.55891,11.76239 1.10126,17.3862 3.63074,11.94251 7.76394,23.77067 14.10174,34.58376 2.1096,2.52646 3.2966,9.4767 7.80686,7.65913 z m 4.37848,-61.63675 c 6.52286,0.38026 19.95145,1.05421 18.05544,-8.87832 -1.70274,-7.2582 -3.34789,-14.50327 -3.75866,-21.971781 -0.78716,-7.78188 -1.20887,-15.64481 -3.0555,-23.2727 -4.76967,-6.21557 -13.64103,-4.98347 -20.30416,-7.67392 -8.88451,-1.9711 -18.41831,-3.163391 -27.20626,-0.10189 0.70877,15.11221 1.62431,30.225971 1.99703,45.342051 0.49036,7.45558 1.13328,19.05287 11.71512,15.69824 7.69835,-1.50537 14.95921,0.69466 22.55699,0.85832 z m 3.0419,-21.47141 c -10.2774,0.29794 -9.2855,-14.79114 -3.08068,-19.534621 7.43679,-4.83193 11.6302,5.347609 8.16842,11.1254 -0.96354,3.167359 -2.72878,6.086161 -5.08774,8.409221 z m -29.6496,-1.10685 c -7.51395,-3.91649 -4.18438,-20.976241 5.04993,-16.827511 4.86514,4.04323 4.4272,16.538081 -3.03597,17.158511 l -1.0239,-0.092 z"
       id="path3704"
       inkscape:connector-curvature="0"
       sodipodi:nodetypes="ccccccccccccccccccccccccccccccccccccccccccccccccccccc" />
  </g>
</svg>
