<?xml version="1.0" encoding="UTF-8" standalone="no"?>
<!-- Created with Inkscape (http://www.inkscape.org/) -->

<svg
   xmlns:dc="http://purl.org/dc/elements/1.1/"
   xmlns:cc="http://creativecommons.org/ns#"
   xmlns:rdf="http://www.w3.org/1999/02/22-rdf-syntax-ns#"
   xmlns:svg="http://www.w3.org/2000/svg"
   xmlns="http://www.w3.org/2000/svg"
   xmlns:sodipodi="http://sodipodi.sourceforge.net/DTD/sodipodi-0.dtd"
   xmlns:inkscape="http://www.inkscape.org/namespaces/inkscape"
   width="300mm"
   height="300mm"
   viewBox="0 0 300 300"
   version="1.1"
   id="svg8"
   inkscape:version="0.92.1 r15371"
   sodipodi:docname="new_swing.svg">
  <defs
     id="defs2" />
  <sodipodi:namedview
     id="base"
     pagecolor="#ffffff"
     bordercolor="#666666"
     borderopacity="1.0"
     inkscape:pageopacity="0.0"
     inkscape:pageshadow="2"
     inkscape:zoom="0.24748737"
     inkscape:cx="1292.7786"
     inkscape:cy="-139.27728"
     inkscape:document-units="mm"
     inkscape:current-layer="layer1"
     showgrid="false"
     inkscape:window-width="2560"
     inkscape:window-height="1365"
     inkscape:window-x="-9"
     inkscape:window-y="-9"
     inkscape:window-maximized="1" />
  <metadata
     id="metadata5">
    <rdf:RDF>
      <cc:Work
         rdf:about="">
        <dc:format>image/svg+xml</dc:format>
        <dc:type
           rdf:resource="http://purl.org/dc/dcmitype/StillImage" />
        <dc:title></dc:title>
      </cc:Work>
    </rdf:RDF>
  </metadata>
  <g
     inkscape:label="Layer 1"
     inkscape:groupmode="layer"
     id="layer1"
     transform="translate(127.46151,119.99212)">
    <path
       style="fill:#000000;stroke-width:0.06935167"
       d="m -35.942998,166.5853 c -0.922238,-1.50569 -4.951806,-1.57294 -6.163362,-0.43489 -0.587411,-2.14585 -3.74455,-0.31286 -4.075705,-2.04275 0.946961,-0.85332 2.709753,0.32846 0.661753,-0.9553 0.136399,-1.33784 -0.09079,-2.77937 -1.07499,-3.91846 -1.410274,-0.94214 -0.875903,-3.89713 -2.623952,-4.71039 0.300015,-2.89544 -1.392159,-5.99536 -3.45039,-7.79862 -0.969134,-2.18111 -4.379666,-5.35816 -3.094351,-7.41164 -0.534681,-1.13407 -1.913565,-4.13341 -1.45416,-0.88842 -1.667316,1.1893 -0.618098,-2.59651 -0.97341,-3.72193 -2.708371,-5.30973 -5.620188,-10.52714 -8.705771,-15.62613 -0.955233,-2.05535 2.160276,0.0846 0.726351,-2.14455 -0.762799,-1.09614 -1.63702,-3.70111 -1.996102,-1.03534 -2.004105,0.0241 0.501008,-3.14645 -1.114712,-4.22137 -0.602881,-1.10814 -0.915248,-1.91307 -1.018437,-0.10499 -1.856605,-0.0863 -0.171598,-2.83815 -1.230945,-3.91443 -1.34135,-1.98514 -2.347207,-4.0515 -3.484721,-6.19857 -1.551707,-2.724525 -3.284517,-5.314575 -4.623924,-8.159435 -1.719766,-2.314231 -2.646854,-5.569863 -4.41958,-8.125183 -3.33433,-5.672448 -6.465912,-11.460482 -10.047947,-16.985037 0.1716,-2.704485 2.568986,2.068627 3.241222,3.014378 0.83005,1.098917 2.640287,4.339932 3.064863,4.228186 -0.77679,-2.078964 -1.825176,-4.282117 -3.2156,-5.504204 -0.203049,-2.772245 -3.044465,-4.574896 -3.595385,-6.657191 -0.6976,-1.64849 -2.11615,-3.070158 -3.02281,-4.661249 -1.75569,-2.264576 -3.295037,-4.628873 -4.755557,-7.060051 -1.38964,-2.608164 -3.64924,-5.23136 -4.14799,-8.046134 1.13178,-0.790111 2.47181,3.652872 1.48006,0.781947 -0.29481,-1.624532 -2.01134,-1.704803 -1.73158,-3.386619 -1.0165,-2.002601 -2.58886,-3.25281 -3.26896,-5.312741 -1.18576,-1.406104 -2.73233,-7.484419 -4.37733,-3.815381 -1.76488,1.831466 -2.6454,-1.901817 -0.50561,-2.674606 1.7595,-1.168042 4.48736,-5.451615 6.28916,-3.422835 0.19172,3.651253 -0.17044,7.4106 0.40917,11.026377 0.66125,1.33839 1.9031,3.783305 1.34816,0.600637 0.21646,-2.737925 -1.64219,-6.184511 -0.38457,-8.43831 1.30313,2.114324 0.71828,5.689469 1.32029,8.343862 0.41571,1.874805 -0.24949,4.000138 1.0009,5.615512 -0.0284,-2.833022 0.26172,-5.997674 -0.54617,-8.628016 -1.09947,-1.984193 1.64234,-2.804576 1.27294,-0.401519 0.27271,4.021298 -0.10222,8.137737 0.85727,12.080498 0.68516,1.234229 2.04182,3.905042 1.39338,0.881992 -0.30778,-2.921109 -0.79397,-5.854082 -1.41738,-8.698644 1.75304,-1.658226 1.47592,3.634927 1.79462,4.856205 0.50827,3.084589 0.27384,6.515796 1.924317,9.270326 1.5644,2.521232 1.47095,5.484316 3.64397,7.674356 0.51331,0.501216 1.68477,3.210026 1.474,1.282354 0.0816,-3.810617 -0.29294,-7.747735 -1.6832,-11.297718 -0.66086,-2.607401 1.64016,-0.373144 1.70582,0.950469 0.94087,2.887784 0.37057,6.320309 1.6049,9.276061 1.19461,2.367881 0.492564,5.153008 1.660328,7.345869 0.146852,-2.056555 -0.5474,-5.300692 -0.735533,-7.769566 -0.567265,-2.135578 -0.06568,-5.238044 -1.836765,-6.517346 2.432777,-1.242091 -1.41417,-4.200457 -2.18537,-6.337307 -3.25167,-5.038347 -6.070677,-10.34496 -8.909497,-15.618178 -0.31216,-2.435711 -3.66198,-5.055646 -2.82723,-7.089213 2.09289,1.974294 2.98705,5.073499 4.26265,7.651182 3.16082,5.638638 6.199317,11.353985 9.785327,16.742304 2.796388,4.818578 5.998297,9.407118 8.248443,14.531102 4.0657,8.158066 9.01478,15.826478 13.144263,23.95182 2.445008,3.978236 4.211789,8.310371 6.390729,12.426811 1.540976,2.303435 2.234188,5.232315 3.523781,7.747425 3.383941,6.96578 6.588648,14.01522 9.950418,20.99116 3.133805,7.96332 7.369102,15.40673 11.387211,22.93771 2.137471,4.71171 4.919862,9.06653 7.484837,13.54698 -0.764417,0.59305 -0.665998,2.6892 -2.352137,1.97881 z m 0.781823,-2.10008 c -0.771682,-1.67731 -2.342711,-5.18721 -3.406385,-5.76468 0.673686,1.65733 -0.693022,5.33414 1.04969,5.92832 0.607427,-0.0909 3.906096,1.03199 2.356695,-0.16373 z m -4.104051,-1.93309 c -0.206402,-1.96155 0.0719,-6.73847 -1.387512,-7.19594 -1.775728,0.0543 0.845572,-2.16649 -1.014173,-3.13248 -2.235865,-4.44442 -4.738332,-8.7486 -7.030156,-13.16392 0.446008,1.77353 -1.116744,5.28325 1.364666,4.4746 0.951043,3.61818 0.203396,7.48798 0.832326,11.18144 -0.110405,1.23693 1.489463,4.43449 1.053855,1.60776 -0.113088,-2.38259 0.311438,-4.92785 -0.913136,-7.09187 2.191911,-1.0436 1.939307,4.13663 1.955003,5.79298 -0.154184,1.82513 -0.235993,5.95568 1.253671,5.83621 0.368381,-2.06877 -1.235635,-4.58621 -0.634099,-6.13618 2.318789,2.01546 1.322849,5.89094 1.826314,8.68891 1.418488,1.23189 3.374515,1.39324 2.693211,-0.86185 z m -5.032048,-0.25656 c -0.926119,-1.27118 0.174303,1.58094 0,0 z m -3.175265,-9.38323 c -0.375047,-2.42137 0.121968,-5.77619 -0.799537,-7.75005 -0.784852,1.9046 -0.297904,6.18759 0.805633,8.5996 l 0.01434,-0.24956 -0.02035,-0.60001 z m -1.805662,-4.66391 c -0.277282,-2.83364 0.07329,-5.88798 -0.663707,-8.57411 -0.579814,-1.76483 0.752112,-3.64785 -1.022759,-5.42097 -1.202047,-3.03995 0.06552,2.56656 -0.05284,3.78793 0.08929,2.88577 0.947749,5.77677 0.562455,8.6533 -0.810878,0.66747 1.688333,5.35987 1.245533,2.83121 l -0.02898,-0.60373 -0.03959,-0.67363 z m -2.039575,-4.54252 c -0.08654,-3.97927 -0.613123,-8.02564 -1.718839,-11.83094 0.447758,-1.63142 -0.218313,-3.42915 -1.305273,-5.29889 0.634008,4.57478 0.0069,9.26011 0.991333,13.81026 -0.08719,1.85249 0.691163,3.41139 1.561009,4.9886 0.632137,2.18192 0.374577,-1.30932 0.47177,-1.66903 z m -3.025014,-4.14377 c -0.405821,-3.6997 -0.292779,-7.45267 -0.840665,-11.13218 -2.41418,-0.13598 0.292571,-3.22575 -0.06869,-3.78342 -1.707486,-3.29726 -3.1798,-6.72393 -4.776488,-10.06261 0.197036,1.96317 -0.255893,4.01746 1.477864,4.47624 0.771865,3.92298 0.504247,7.98411 1.002874,11.95395 -0.160728,2.91773 0.674849,5.64289 2.34783,8.02728 0.346595,0.58001 1.207958,2.36472 0.857339,0.52074 z m -3.922132,-8.97949 c -0.323214,-2.97851 -0.218775,-6.33032 -1.085619,-9.03867 0.283621,3.07538 1.056341,6.22704 0.625336,9.30929 -1.358834,0.25282 0.385099,1.65973 0.530425,2.5131 0.15194,-0.59176 -0.06452,-1.95809 -0.07007,-2.78372 z m -1.302267,-2.65426 c 0.0069,-4.43116 -0.778316,-8.82815 -1.437255,-13.19414 -0.848555,-2.17617 -0.842542,-5.29808 -2.555694,-7.57686 -0.692934,-1.38612 -1.7968,-5.21949 -1.554691,-1.46281 0.01619,4.1951 -0.09574,8.46387 0.383389,12.61264 0.698576,1.39327 1.877441,3.79126 1.426292,0.68458 -0.324092,-3.5306 -0.150552,-7.2809 -1.401062,-10.61132 1.686881,-2.4159 1.688685,3.00473 1.702861,4.29141 0.101987,3.43833 0.742054,6.89428 0.774778,10.29896 0.920571,1.33571 1.278451,3.05272 0.656464,3.92616 0.741643,1.54546 2.379125,5.28112 2.000386,1.46729 l 0.0046,-0.43602 z m -3.895194,-5.76883 c -0.274464,-1.38592 -2.503541,-4.18275 -0.94293,-1.23652 0.104531,0.0694 1.30148,2.76639 0.94293,1.23652 z m -2.362378,-11.36102 c -0.199811,-2.76286 0.241855,-5.9042 -0.537964,-8.41317 -0.333251,-1.47456 -0.541503,-3.415235 -1.775454,-4.958155 -0.749987,-1.30585 -2.272809,-6.194522 -2.277689,-2.01777 -0.344999,4.52205 -0.417453,9.149725 0.324462,13.625855 0.599157,1.15969 1.751472,3.6065 1.412626,0.78405 0.156334,-2.83915 -0.541827,-5.64981 -0.763585,-8.19396 1.861831,-2.644775 1.369864,3.85248 1.477309,5.19154 0.269306,2.28835 -0.253973,4.86647 0.586761,7.01664 0.493747,0.56468 1.250834,2.58171 1.572197,2.19584 0.04579,-1.7428 -0.0012,-3.48832 -0.0185,-5.23087 z m -5.483367,-4.43958 c -0.262877,-5.14015 0.342501,-10.314905 0.03608,-15.437293 -0.87325,-1.315888 -2.725992,-5.667522 -1.988795,-1.637737 0.01619,4.856755 0.79032,9.656425 1.448957,14.44582 -0.462272,0.40159 0.117019,4.12104 0.503761,2.62921 z m -1.485728,-4.67129 c -0.778617,-5.108865 -0.739741,-10.35965 -1.947791,-15.389025 -0.565092,-1.144545 0.215306,-2.589454 -1.241606,-3.925277 -0.860253,-1.375693 -2.443135,-5.412277 -2.016917,-1.541809 -0.128582,4.108785 -0.745777,8.30693 0.289195,12.350776 0.238178,1.87474 1.568959,4.602 1.249446,1.35964 -0.05573,-3.448179 0.260934,-7.074248 -0.405821,-10.403675 2.382243,-0.749941 0.879934,4.355427 1.349676,5.863772 0.02613,2.877283 0.02313,5.813153 -0.02081,8.653593 0.633592,1.10442 2.23472,5.670745 2.708625,4.882365 0.0481,-0.61532 0.05897,-1.23525 0.03561,-1.85036 z m -5.940019,-9.700785 c -0.550476,-4.306465 -0.07007,-8.675536 -0.37689,-12.987255 -1.383579,-1.212629 1.910188,-1.165474 -0.113319,-2.527152 -3.513143,-5.689169 -6.532008,-11.664433 -9.521895,-17.639558 0.70681,1.232309 -0.657897,4.161443 0.701237,4.487756 0.834999,2.805292 0.05689,6.151533 0.953568,9.087397 0.344975,2.323594 1.447453,4.818092 1.045656,7.122885 -0.0666,2.281828 2.581685,4.824475 3.560784,7.202 0.673462,0.737059 2.210923,5.063557 1.969021,2.174476 -0.08233,-4.132675 -0.169747,-8.336879 -0.987332,-12.386345 -2.065065,-0.774038 1.504368,-2.791139 1.115244,-0.200505 0.413036,4.956018 0.730746,9.932572 0.920405,14.905379 0.178766,0.183392 0.960112,1.925312 0.733451,0.760832 z m -3.44462,-5.396015 c 0.12997,-3.072957 -0.394281,-6.315384 -0.902158,-9.42007 0.140839,-2.048252 -1.716112,-5.842819 -0.09112,-6.702448 1.249099,2.672085 0.42453,6.045499 1.129305,8.96085 -0.133902,1.814006 2.379236,6.631219 -0.135983,7.161668 z m -3.066898,-6.272392 c 0.436093,-2.565334 0.202818,-5.415468 -0.293727,-8.072799 -0.445182,-1.103172 -0.749478,-5.867195 0.647652,-2.899856 0.323306,3.509767 1.569283,7.156025 0.566919,10.633716 -0.09759,0.394072 -0.57307,0.663286 -0.920844,0.338939 z m -1.733781,-1.96539 c -0.566502,-1.213554 -0.03885,0.958886 0,0 z m -0.717609,-5.125812 c -0.507415,-2.049362 -0.598371,-7.050522 -1.110503,-7.377066 0.03492,1.797285 -1.086151,3.895352 -0.03677,5.512368 0.345414,0.518631 0.908124,1.82203 1.147343,1.864698 z m -2.083127,-6.605757 c 0.245139,-2.471441 0.65496,-5.869161 -0.394674,-7.889708 -1.62289,-0.917329 1.927302,-1.265241 -0.147546,-2.690239 -0.753988,-1.229442 -2.275333,-4.053837 -1.3142,-0.929054 0.342709,4.371893 0.908263,8.725077 1.56926,13.058465 0.10985,-0.513798 0.194493,-1.032521 0.287137,-1.549464 z m -3.125383,-2.687371 c -3e-4,-1.281268 -1.11559,-6.063099 -0.81893,-2.454791 -0.36512,0.446894 0.91682,4.77332 0.81893,2.454791 z M -103.05069,48.029734 c -0.46269,-0.683128 0.38655,0.828455 0,0 z m -6.54463,-15.841301 c 0.18409,-1.978596 -0.40644,-4.702692 -0.62919,-5.692383 -1.22147,1.104212 -3.94554,3.116827 -1.34441,4.127817 0.9282,0.972231 2.51744,6.449817 1.9736,1.564566 z M -31.453808,165.3386 c -1.003692,-1.33818 4.382062,-1.4033 2.432443,-2.03051 -0.962342,0.7269 -5.961367,1.38644 -3.216552,-0.18871 1.888824,-0.58563 4.177685,-1.03276 5.808999,-1.77745 -1.55071,0.68563 -4.671781,-1.28233 -1.557386,-1.09105 1.733739,-1.27345 -2.135122,-2.89477 -1.677658,-4.87061 -0.765935,-2.2229 -4.249467,-3.84004 -3.124873,-6.04506 -1.104116,-1.77458 -3.307164,-3.97269 -2.128029,-5.05593 -2.93456,-5.48179 -6.222707,-10.77665 -9.37386,-16.13581 -0.583355,-0.35892 -1.706941,-4.66627 -1.90777,-2.84754 -1.824179,0.8784 -1.248895,-3.44386 -2.649948,-4.51706 -4.222169,-8.35809 -7.947496,-16.963 -12.317192,-25.246945 -1.818011,-3.05279 -2.834899,-6.510132 -4.804267,-9.472406 -0.595827,-2.761075 -2.752634,-5.066076 -3.726137,-7.765912 -3.116111,-6.040134 -5.957249,-12.214262 -8.963856,-18.306522 -2.61827,-5.048731 -5.455894,-9.978269 -8.180082,-14.966155 -0.881021,-1.02704 -2.526089,-6.177805 -0.291554,-3.223509 2.121077,4.921397 5.011984,9.461072 7.297373,14.308419 3.519827,6.439063 6.303288,13.237301 9.712456,19.732838 2.123482,4.65378 4.932082,8.94517 7.230954,13.500501 3.376841,8.144026 7.355402,16.022451 11.160887,23.971321 1.361022,2.33555 2.179192,5.53959 4.166705,7.22515 2.358282,2.31592 3.236751,5.73299 4.941268,8.52316 3.24549,6.56672 7.34049,12.65264 10.749786,19.12866 1.726196,3.59282 3.339178,7.261 5.454189,10.65745 -0.401674,1.88787 3.573135,1.71854 1.124953,3.20884 -2.277763,0.69074 -3.005218,4.33237 -6.160849,3.2848 z M 75.94614,155.63364 c -2.734274,-0.60598 -5.691391,-0.7403 -7.955542,-0.10129 -2.134134,-0.25483 -3.776008,-0.87744 -5.628725,-0.33968 -2.473231,-1.10139 -5.189897,-2.23093 -7.342445,-4.24535 -1.536827,-1.43816 -1.497556,-4.15603 -3.894019,-3.41976 -0.649711,1.68179 -4.688847,-0.2968 -6.287609,-0.76876 -2.600243,-0.7591 -5.183722,-1.14027 -7.785329,-1.94599 -2.628784,-1.09133 -6.776714,-0.82767 -7.38619,-3.75572 -0.939193,-1.01365 -2.143057,-2.67516 -1.029913,-3.40819 -1.787304,-1.83269 -0.178535,-6.16301 1.81273,-6.55245 1.243375,-1.24956 3.496173,-3.05841 5.423111,-2.6846 2.823507,-0.62251 5.679523,-1.12843 8.510308,-1.67041 1.122591,-0.22572 6.578863,-0.73572 3.665964,0.73736 -2.646669,0.40239 -5.594149,0.21368 -7.900855,1.56757 -2.116803,-0.16073 -4.889483,0.4064 -6.96718,1.42402 -2.084452,1.43499 -4.0034,2.65602 -4.373479,5.35787 1.87326,3.91024 1.327939,-4.19623 3.222357,-3.31445 1.32265,2.79017 -3.559835,5.74976 -1.391761,7.52212 1.098778,3.51656 5.164058,3.21796 6.5757,0.0726 1.813775,-0.86106 0.20934,-3.89611 2.702601,-3.13468 0.143105,2.59714 -3.165895,4.61005 -4.021271,6.37628 2.811729,1.70355 5.922088,0.60852 7.088809,-2.46973 0.267282,-1.35014 2.907182,-4.05573 2.128013,-1.11124 -0.700733,1.42955 -3.128789,3.59422 -3.009855,4.6494 3.232443,0.27028 3.74835,-3.97042 5.94786,-5.35749 1.365619,0.81979 -2.088108,3.78893 -1.560028,3.80082 1.544383,-1.12029 2.236219,-3.42617 4.015947,-3.82101 0.245807,2.35309 -3.45508,4.0559 -4.699371,6.19048 -0.155849,0.66872 3.958107,1.63984 3.429962,-0.71661 0.868102,-1.51889 1.917195,-5.38642 3.848297,-4.94786 -0.695101,1.65173 -3.427978,5.26964 -3.003002,6.23636 1.276386,-2.05079 3.376756,-6.36947 5.734614,-5.44523 -1.406989,1.59306 -5.205024,4.43748 -4.161101,6.0773 2.245994,0.83812 4.205813,1.34343 4.892915,-1.52194 1.502915,-1.51094 2.639958,-5.94016 4.78443,-5.41425 -1.373346,2.64163 -3.514998,4.96594 -4.924303,7.66562 -0.483566,1.17044 -3.363691,0.8121 -0.973377,1.88391 1.041249,1.91183 3.285182,3.85292 6.084996,4.27574 3.101164,0.50311 6.302983,0.91312 9.420321,0.46137 -2.611244,-1.48746 2.070225,-2.92347 -1.102487,-3.47355 -1.9825,-0.76017 -6.09498,0.90472 -6.872184,-1.01525 0.875037,-1.21001 4.289575,0.91578 4.52029,-0.77808 1.218033,-3.05761 2.588088,-6.31886 5.396995,-8.26859 1.732862,1.01783 -2.645441,3.11465 -2.790321,4.91962 -0.415961,1.58313 -3.354931,5.06952 0.318047,3.97712 2.641656,-0.46202 1.380376,3.16838 1.333326,3.61076 1.103051,0.54655 -0.418367,1.63929 1.684031,1.35322 1.731438,0.54481 4.67355,0.58079 2.010899,-0.63154 0.184802,-2.64667 1.636876,-5.60667 3.035448,-8.11394 0.866566,-1.11115 3.552885,-5.64772 4.516728,-3.30056 -1.796753,1.78537 -4.041443,3.39249 -4.876796,6.09522 -1.142142,1.66081 -0.718158,4.24611 0.742769,5.021 2.300188,-1.04122 2.925825,1.68609 5.216191,0.86837 1.708078,-0.17992 4.5621,1.23606 2.952913,-1.63506 -0.937016,-2.39063 1.65013,-2.13828 1.076248,0.0987 0.01943,0.48439 1.383165,-3.59459 2.717649,-1.35996 0.215791,2.69081 3.220777,-0.9708 4.324897,1.66079 2.75982,-0.19634 4.914617,-1.84143 7.079787,-3.40549 2.24524,-0.84131 5.33159,-1.76986 8.19372,-1.41394 3.35246,0.68107 3.23012,-5.06525 1.99443,-6.71066 0.88949,-3.07932 2.36964,2.17304 1.68395,3.65523 -1.04914,3.58077 2.58028,0.6851 2.05637,-1.47137 1.10952,-2.06728 -1.88798,-4.11771 -0.12248,-5.30931 2.2479,1.71689 0.6601,5.73502 0.95077,7.6636 2.73735,0.092 4.88007,-1.02667 3.90813,-4.08346 -0.49521,-1.12855 -0.7323,-5.84342 0.59365,-2.86559 1.19876,1.96116 -1.08496,7.61728 2.72308,5.16511 1.52028,-1.46612 -0.55025,-4.99945 -1.39141,-6.74662 -0.75871,-2.98462 2.63861,1.25125 2.29128,2.75751 -0.36603,2.78839 1.5009,5.38816 4.34856,3.37459 0.0446,-2.31686 3.44416,-2.12702 4.4789,-4.00247 0.52162,-1.30479 -1.27656,-2.21858 -0.65451,-4.09759 -0.19255,-1.62162 -2.18785,-4.86999 -2.47635,-4.65422 -2.29755,0.84767 -0.80539,-1.23305 0.0753,-0.97878 -1.43155,-0.3785 -0.6117,-2.19748 -2.56437,-2.03463 -0.14188,-1.67846 3.6878,-0.53246 2.83602,0.83193 2.06327,-0.0821 -0.09,2.60603 1.98408,3.41134 0.78429,2.53076 2.72743,5.25469 1.7642,7.94479 -1.23394,2.03937 -3.60463,2.28195 -4.77286,4.40827 -1.78942,1.94051 -4.76846,-0.84964 -5.49995,2.21622 -1.45135,1.75793 -2.70066,-0.24574 -0.58218,-0.87843 -0.0249,-1.07766 -3.45127,1.98628 -4.64589,0.90038 -2.73429,0.10245 -4.35715,1.85087 -6.59141,2.42391 -2.51449,0.43843 -5.23774,-0.33792 -7.77656,0.79421 -1.33915,1.06485 -4.58899,1.13226 -4.87467,2.67988 1.00581,1.92163 -3.607227,0.69196 -4.799737,1.55395 -2.900528,0.67223 -5.412482,1.83808 -8.498174,1.33947 -2.704349,0.0574 -5.399569,-0.31854 -8.134421,-0.29037 -0.635227,0.85308 -1.856875,0.66863 -2.775462,0.64203 z m 14.505261,-1.49773 c 0.390273,-1.25796 -1.053934,-3.89316 -1.152241,-1.03631 -0.675527,1.4533 -0.08721,1.07847 1.152241,1.03631 z m 1.566087,-0.56914 c -0.12923,-0.2079 -0.270358,0.60006 0,0 z m 1.543605,-0.36942 c 0.92852,-1.0223 -2.883477,0.3481 -0.34232,0.04 l 0.34233,-0.0391 z M 77.26912,153.0283 c 0.19514,-1.43173 -0.983481,0.3014 0,0 z m 14.981673,-1.63353 c -0.315945,-1.20555 2.40974,-2.12674 2.33219,-4.03834 1.08646,-1.85124 1.6294,-5.86676 3.94853,-6.03382 -1.27586,2.84565 -3.00412,6.10583 -4.31811,9.18187 -0.42076,0.57182 -1.23539,1.05634 -1.96261,0.89029 z m -9.015363,-0.58318 c -0.707603,-2.86861 1.190113,-5.55526 2.545593,-7.88355 -0.01272,-2.05767 3.714347,-1.88101 1.444931,0.11262 -2.226896,2.13835 -2.813385,5.36263 -3.554426,7.93538 l -0.225389,-0.0275 -0.210751,-0.1369 z m 15.023703,-0.10129 c -0.40258,-3.21141 1.66325,-6.20822 3.489507,-8.71092 -0.217,-2.55236 3.0759,-0.3389 0.5674,1.03899 -1.88401,2.20313 -2.908587,4.92008 -3.385917,7.70771 l -0.35119,0.0976 -0.31972,-0.13344 z m -10.440576,-0.17021 c 0.249121,-2.65564 1.899677,-5.39378 3.171199,-7.85153 0.23541,-2.78482 2.328437,-0.7226 0.763618,0.83091 -1.725777,1.84351 -1.870356,6.31309 -3.934817,7.02062 z M 71.79832,149.15304 c 0.238687,-3.00392 2.350227,-6.08847 4.659966,-8.14396 2.533174,-2.76133 1.940294,4.25044 0.348948,1.08463 -2.602419,1.50393 -2.906313,6.1732 -5.008914,7.05933 z m -6.758632,-0.85058 c -0.403173,-2.7911 2.657821,-5.76209 4.322482,-8.03393 1.439805,1.70897 -2.943882,4.44629 -3.283707,6.71288 -0.263,0.44171 -0.3137,1.43612 -1.038775,1.32105 z m 36.339832,-0.34787 c -0.0441,-2.98628 2.49466,-5.22965 4.3109,-7.36504 0.22993,-1.93933 3.11367,-0.16096 0.77024,0.85547 -2.47793,1.55351 -3.22163,5.02026 -4.9134,6.65651 z m -41.093577,-0.39662 c 0.40922,-2.87693 2.700579,-6.18904 5.495996,-7.42958 1.954818,0.67193 -0.408228,2.54001 -1.242547,1.98868 -2.046934,1.18164 -2.354533,5.08885 -4.253449,5.4409 z m -22.905485,-4.1514 c 0.648871,-1.7783 3.044682,-3.54962 3.916625,-5.46045 1.729096,1.22165 -2.162912,5.40719 -3.91663,5.46045 z m 90.583462,-1.86378 c 0.66554,-1.75982 1.66076,-4.74304 -0.016,-6.91181 1.93013,-1.68288 2.79807,4.90452 1.28078,6.20498 -0.31951,0.24805 -0.76735,0.98874 -1.26477,0.70683 z M 32.456171,141.3816 c 0.866615,-1.43316 3.308156,-3.05785 3.850753,-5.14961 2.007777,0.92538 -1.678201,5.3151 -3.663776,5.30703 l -0.186977,-0.15726 z m 54.866104,-1.36054 c -1.652149,-0.91488 -3.721891,0.2116 -5.242858,-0.4579 -2.138827,-1.45627 -4.844584,-0.46894 -7.275801,-0.33113 -3.187562,0.3246 -6.13479,-0.16997 -9.052273,-0.19888 -2.388635,-0.98303 -5.284835,-0.55957 -7.94031,-0.44701 -2.753314,-0.3552 -5.595271,-1.02311 -8.44665,-0.79878 -2.213983,0.44067 -4.026529,-0.19172 -6.050164,-0.894 -2.783937,-0.93375 -6.862492,-0.0513 -8.630619,-2.61272 -1.972454,-1.33931 -1.369386,-5.75256 0.267839,-2.00769 0.504078,3.42032 4.337852,2.42783 6.868854,3.21167 1.982044,0.31006 4.377194,1.93766 3.774998,-1.30393 1.648713,-2.34573 0.0796,3.62611 2.038225,0.75646 0.909198,-1.86396 3.146001,-0.36125 0.883132,0.65841 -3.446456,2.47357 2.410533,0.25677 4.024325,1.21281 3.134138,0.28739 6.206565,1.0593 9.358253,0.46988 1.564214,0.4802 4.432398,0.0685 1.647431,-0.52688 -0.84282,-2.48259 0.999365,-2.59115 1.354357,-0.74648 0.135936,-0.36239 -0.186931,-4.0959 -1.656361,-2.77682 -2.108328,-1.4808 1.209923,-3.17145 -0.0081,-4.98895 1.654672,-1.54391 1.587876,3.02083 0.346816,3.6892 0.219122,1.44452 2.084244,-1.35164 2.147511,0.9881 0.745676,2.1964 -0.904818,5.85595 2.606834,4.9263 2.892855,0.63209 6.032367,0.54194 8.940433,0.005 2.609624,-1.07834 4.833446,1.32203 7.329973,0.78504 2.926185,0.2355 5.724475,0.0756 8.761443,-0.24632 1.56701,-0.36227 7.361737,-0.16003 2.91306,-1.02459 -3.60799,-0.0599 0.24274,-2.23865 0.77364,-4.07823 1.44106,-1.5956 -3.91474,-0.87371 -5.028474,-0.65864 -2.950539,0.20814 -0.475313,-2.00824 1.203364,-1.29429 1.95886,-0.19033 5.2628,-0.30297 6.06054,1.2201 2.860587,0.84774 5.910737,0.0289 8.710137,1.00736 0.87575,1.46448 -5.67563,4.67316 -1.20855,4.07606 2.80925,-0.71497 5.82115,-1.39317 8.6469,-1.59102 2.45746,-1.75656 5.55047,-0.25855 8.14853,-1.91366 2.3793,0.10847 -0.32322,-2.2433 1.97284,-1.64067 1.32504,2.9153 -3.95473,3.30387 -5.89079,3.76002 -2.93879,-0.20999 -5.6878,1.44535 -8.74975,1.68278 -2.59181,0.11679 -5.02435,1.3099 -7.54175,0.62428 -2.4932,1.58917 -5.566957,-0.0513 -8.344947,0.70489 -2.579054,0.21253 -5.162718,0.50279 -7.712058,0.75997 z m 14.688495,-1.87108 c 1.33789,-0.62277 5.82512,-3.84836 2.4786,-3.97836 -2.5538,0.6459 -5.894087,-2.12401 -7.184197,0.65684 -2.73367,2.2473 2.49989,1.48029 2.53182,3.22563 0.722237,0.0923 1.451597,0.32773 2.173777,0.096 z m -71.006872,1.83364 c -0.336874,-1.61757 2.558364,-2.98441 3.403793,-4.42964 2.24487,0.52642 -2.556828,4.47554 -3.403793,4.42964 z m 55.065226,-1.8725 c 0.153143,-1.81171 -1.442477,-4.57235 1.38005,-5.52786 1.202728,0.93965 -2.237775,2.52035 0.258693,2.53509 0.802583,1.40901 5.850486,-0.0326 4.092719,1.79453 -2.050283,1.25756 -5.180042,-2.65502 -4.963702,0.8976 -0.171413,0.21878 -0.477499,0.42303 -0.76776,0.30064 z m -8.930441,-0.84681 c -0.989663,-1.59544 -3.129232,-1.71445 -2.254446,-3.9442 1.180853,-2.70751 1.957208,0.39421 1.1492,1.49847 1.341271,1.00993 2.181303,2.04807 4.142607,1.15347 1.52087,-0.84753 4.713575,1.11169 1.662258,1.04922 -1.589718,-0.28716 -3.148157,0.60836 -4.699619,0.24304 z m -24.251994,-1.15717 c -1.109282,-2.34749 5.786352,-1.41547 2.378521,-0.40946 -0.804345,-0.37631 -1.621275,0.68776 -2.378521,0.40946 z m 6.500837,-0.0881 c -0.914299,-1.61775 -0.772551,-2.06007 -2.39363,-0.92218 -2.129479,-1.5491 1.677043,-2.75321 0.646078,-4.74113 2.238161,-0.43244 0.225412,3.81272 1.719216,1.32664 1.538659,-1.25016 3.875528,0.64537 1.427438,0.99224 1.038307,1.41563 -2.139569,1.80441 -0.461576,3.12191 -0.142436,0.37083 -0.639469,0.42719 -0.937526,0.22248 z m 0.103445,-2.50518 c -0.621315,-0.91064 -1.099847,1.10442 0,0 z m -6.648204,0.72106 c -1.451346,-2.32665 5.727958,-1.17258 2.162043,-0.0648 -0.842896,-0.63969 -1.500836,0.64067 -2.162043,0.0648 z m -6.969467,-1.0063 c -0.223007,-2.58832 2.948322,-4.27129 4.065048,-6.53157 -0.214982,-1.87277 2.237953,-2.27516 3.696119,-2.79421 -1.469213,2.16381 -4.217601,4.68232 -5.851631,7.42105 -0.208923,0.77039 -0.892295,2.36224 -1.909536,1.90473 z m 42.878126,-0.4088 c -3.078856,0.17275 -1.074127,-2.24395 -1.788303,-3.53919 -1.386065,-1.65418 2.50056,-0.98837 1.383054,1.02175 -1.561314,1.70878 3.444259,1.71491 0.405249,2.51744 z m -11.483575,-0.84527 c -0.45138,-3.0851 4.588892,-1.18129 6.441808,-1.77148 2.347569,-0.94822 2.213799,2.37862 0.32189,1.04175 -2.355835,0.75714 -4.677671,-0.66497 -6.763701,0.73054 z m 50.282669,-0.85336 c -0.87027,-1.77141 -1.74612,-3.6825 -2.10696,-5.33265 -2.51463,-0.74111 -2.14903,-2.85643 -1.97512,-4.78893 -0.94438,-1.96082 -0.7256,-4.47509 -1.9376,-6.39665 0.54146,-3.06436 -1.61954,-4.78553 -2.07859,-7.55066 0.32427,-1.81074 -1.85049,-1.17183 -1.35225,-3.42917 -0.15442,-2.48203 -1.1665,-4.021995 -1.88639,-6.234215 -0.70489,-1.56995 0.37252,-4.43262 -1.56307,-4.64224 0.5172,-1.566297 -3.09429,-4.853727 -0.63587,-5.144471 1.8419,1.558599 1.05274,4.498651 2.7453,5.524231 0.62956,1.7647 0.1796,6.24903 2.39727,6.10387 0.97405,1.027785 5.35906,2.763135 3.56466,4.084785 -1.11823,-0.66699 -3.44973,-3.330655 -3.97511,-2.63598 0.50067,1.99464 0.10966,4.09514 1.6835,5.09542 0.7046,2.83089 1.80934,5.30802 2.5115,8.07203 0.80904,1.94199 0.99534,6.30202 2.14309,6.94981 3.31151,-1.0439 2.35244,4.33314 1.56093,5.31133 1.25875,0.50786 2.38761,3.84149 1.24674,5.12355 l -0.34215,-0.11008 z m -1.44329,-6.46806 c 1.41404,-1.69424 -1.66033,-4.88801 -1.31504,-1.71776 -1.6251,0.62938 0.88149,1.66297 1.31504,1.71776 z m -54.201734,6.29193 c -1.176857,-0.5921 0.116187,-2.81878 -1.96391,-1.20051 -1.124238,2.33347 -1.697049,-0.40811 -1.465677,-0.75031 -1.723749,-2.65995 2.338332,-4.17844 1.143134,-7.03105 0.05587,-2.8614 0.949507,-5.81049 0.491497,-8.586 -0.05604,-2.75825 1.119534,-5.62418 0.719189,-8.50822 0.927197,-2.57283 -0.615821,-4.49023 0.277895,-7.385995 -0.238356,-2.53118 1.300958,-5.6002 0.713034,-7.676462 -0.57861,-2.391401 -0.360734,-5.25333 -0.08686,-7.755344 0.170557,-2.327503 0.732311,-4.921328 0.03023,-7.017429 -0.0491,-2.890213 -0.02012,-5.759126 -0.02447,-8.64728 0.103814,-3.27293 0.679352,-6.393296 0.874443,-9.66463 0.496307,-2.235483 -0.492038,-4.188733 0.05518,-6.259233 0.254545,-3.011741 1.516854,-5.615118 0.793323,-8.523854 -0.360335,-2.777935 0.173217,-5.728645 0.245674,-8.292014 -0.03474,-2.885124 -0.02058,-5.787108 -0.103074,-8.705535 0.335921,-2.389597 -0.548924,-4.770406 0.447027,-7.059912 -0.753881,-1.495371 0.687691,-3.426165 0.389059,-5.104581 0.730981,-1.097922 -0.113296,-5.0724129 1.803365,-4.2591749 0.835242,2.5208849 -1.92714,5.5674999 -0.641168,7.6282639 -0.255278,1.991801 -1.34983,4.018824 -0.894443,6.194803 -0.130132,3.216779 0.215745,6.487535 -0.07407,9.67462 2.100148,1.65425 -1.023383,5.17026 -0.239979,7.708883 0.287351,3.046871 0.889554,5.928665 -0.306776,8.938394 -0.149187,2.257292 -0.598638,4.561206 0.08534,6.660613 -0.386451,2.99405 -1.747097,6.480066 -0.401982,9.008282 -0.30367,2.586564 -1.25582,5.665441 -0.760359,8.011815 1.29254,2.434254 -0.264181,6.123573 -0.05652,9.049771 -0.777558,2.191797 0.0849,3.934736 0.19706,6.008566 0.2234,3.107923 -0.348581,6.205898 -0.686852,9.312208 -1.152172,3.04389 0.314647,5.218295 -0.181496,8.301225 -0.231781,2.75381 -0.938757,5.51262 -0.920864,8.21833 0.07343,2.96026 -0.412576,5.90922 -0.478921,8.90387 -0.620732,2.06323 0.02105,4.29536 0.487188,5.33064 -0.344052,-2.71459 1.095906,-2.30091 2.433142,-0.80135 0.403658,1.44428 -0.175575,3.66231 0.490914,0.98254 -0.810499,-3.31233 2.725622,-3.26548 5.089371,-3.54505 3.338454,-0.40414 6.756351,-0.80656 10.078237,-0.20583 0.379716,2.19645 -2.760638,0.34546 -4.090628,0.92355 -2.706513,-0.20143 -4.875837,0.59083 -7.461651,0.57832 -4.093732,-1.05886 -0.519843,5.84839 -3.723718,5.06032 -0.567166,-1.96111 -1.146325,1.45506 -2.280882,0.48473 z m -2.279055,-2.21125 c 1.59354,-0.55367 0.0022,-4.6161 -0.615419,-1.23721 0.368636,0.38979 -0.160821,1.92083 0.615419,1.23721 z m 53.321879,2.19982 c -4.1019,-0.0483 -0.73396,-4.52209 -1.85623,-6.18187 -0.52612,-2.06097 -3.58053,-3.33301 -2.40966,-5.78239 -0.45922,-2.38719 -1.05656,-4.52004 -1.9399,-6.97092 1.22189,-2.12205 -5.15734,-1.51635 -2.27778,-2.87902 1.26497,-0.14524 6.24365,1.2349 3.43885,1.9218 -1.6518,-0.42428 1.49525,1.93659 0.87146,3.09779 -0.10275,1.38561 2.7713,0.23994 1.25801,2.01453 -1.55495,-0.77575 0.01,3.24079 0.90139,2.41895 2.82082,0.73736 -3.32386,1.78662 -0.48295,3.11192 2.14102,1.74782 2.55342,4.87189 1.35891,7.48928 0.25084,1.32805 6.24315,0.3545 3.32979,1.82737 -0.73084,0.007 -1.4647,-0.0116 -2.19189,-0.0675 z m -64.055951,-0.50595 c -1.321933,-0.76969 -1.742005,-3.41509 0.01203,-2.88298 2.176581,-1.61745 2.470329,0.70406 0.850915,2.12221 -0.01249,0.47782 -0.263272,1.14783 -0.86288,0.76077 z m 46.484261,-1.36536 c -2.09802,0.17276 -1.32371,-1.72827 -3.41462,-2.33571 -2.459157,-1.5268 0.32159,-4.53496 0.73563,-6.33555 1.07461,-2.28747 2.65763,-4.93872 4.15013,-6.85314 0.96883,-1.57962 2.63448,-3.24559 2.16779,-5.11046 -1.98789,-2.67731 -4.97555,-3.81979 -7.09715,-6.25874 -1.86052,-2.265605 -0.69559,-5.854015 -3.376407,-7.571845 -0.71361,-2.01187 -1.41971,-4.166877 -1.34371,-6.429441 0.81989,-2.160114 1.65624,-4.588054 1.44393,-7.008386 -2.19446,0.80505 -3.38508,-2.362169 -2.08759,-4.027404 1.59339,-0.221318 0.0208,2.378705 2.18196,1.257148 -0.0652,-1.873117 3.756717,-3.873382 2.878817,-0.96083 -1.896607,-0.748345 -2.306727,2.865976 -3.256717,2.370425 1.742557,0.28524 4.161017,-1.220399 4.640337,-3.283013 0.4219,-3.289951 2.05438,0.721518 0.25341,1.750871 -0.53672,2.427617 -4.700727,1.658366 -3.500357,4.856228 -0.0851,3.102697 -2.72451,6.457934 -0.4991,9.325392 1.124057,0.77078 -0.45869,2.7632 1.828227,1.54685 2.53025,-1.48765 5.68085,0.33001 8.2489,-1.44614 2.12104,0.35483 5.57066,1.17963 6.12181,2.88409 -2.50321,0.52355 -4.833,-3.01265 -7.06017,-1.20546 -2.38303,0.84637 -5.98949,-0.73926 -7.43418,1.37705 0.6927,3.26015 1.26416,6.818555 4.77138,8.215405 1.7019,1.68956 4.43577,2.68029 4.48641,5.42645 0.31619,2.46222 -2.23989,4.20932 -3.39809,6.13102 -0.46031,2.05311 -5.26102,5.28423 -1.66751,6.36374 3.05744,0.52564 -0.0785,1.72083 -1.45944,0.73729 -1.91632,0.92684 -2.25585,3.84728 0.34088,4.20974 0.49207,0.28618 3.58178,2.39487 1.34543,2.37442 z m 1.56354,-0.2197 c 0.12745,-1.30946 3.80097,-2.0733 4.89697,-1.61405 -0.56528,1.33836 -3.57731,1.71398 -4.89697,1.61405 z m -70.23064,-0.87457 c -1.474881,-0.79531 0.588824,-2.65275 0.659901,-3.80664 2.840963,-0.23854 -1.605337,-1.4456 0.186837,-3.28516 0.06568,-1.72587 2.483814,-1.90801 1.368556,-4.15656 0.317929,-2.11759 1.690458,-4.10361 1.374585,-6.17205 0.673342,-2.72472 2.575045,-5.17757 2.096392,-7.97484 0.420102,-2.763615 1.225147,-5.478835 1.217752,-8.264475 0.207119,-2.61128 2.641084,-5.978937 1.522177,-8.081698 0.821488,-2.066175 2.440969,-3.635343 2.32834,-6.338278 0.565882,-2.635777 0.806341,-5.675617 2.003408,-7.877983 0.125876,-3.265298 1.529344,-6.320309 0.967802,-9.543541 0.256061,-2.913524 1.985087,-4.986359 1.972599,-7.929577 0.716016,-2.960979 0.913878,-5.930908 1.864407,-8.765525 0.286059,-2.15054 -0.09762,-3.977242 0.866692,-6.392371 -0.270305,-2.092539 1.327539,-3.773846 0.475044,-5.387878 1.293907,-2.683209 1.953523,-5.596132 2.575108,-8.485836 0.416808,-3.019095 1.565902,-5.882574 1.748882,-8.914782 1.161647,-1.360082 0.553126,-5.484593 2.38891,-5.34077 0.0017,2.289552 -0.247452,4.452835 -1.05281,6.716648 -0.646709,2.713527 -1.56852,5.119683 -2.086971,7.923611 -0.589191,2.36499 -0.408723,4.856158 -1.364427,7.130794 0.840854,2.518133 -1.231126,5.033907 -1.368662,7.580578 -0.634508,3.75072 -1.678518,7.425725 -2.329094,11.16909 -1.303416,4.683683 -1.280655,9.631051 -2.582161,14.326944 -1.088288,2.837068 -0.392521,6.215107 -1.931587,8.77755 -1.102189,3.642027 -1.205196,7.53983 -2.667134,11.073371 -0.06815,3.226053 -1.67522,6.103753 -2.111174,9.274513 0.228766,2.14046 -0.836604,4.35938 -1.091572,6.636335 0.540129,2.91496 -1.620059,5.64111 -1.868036,8.33715 -0.780677,2.82757 -1.465427,5.54241 -1.443556,8.3234 0.199233,1.56489 -0.580802,3.67769 -0.879141,5.11404 1.480631,1.76738 -0.51691,2.44369 -1.588538,1.5987 -0.388783,1.06381 0.741298,3.20327 -1.252535,2.73524 z m 2.097498,-6.12195 c 0.722464,-2.01504 -0.239022,-1.758 -0.467751,0.0925 l 0.182467,0.0287 0.285275,-0.12118 z m 73.483412,5.13298 c -1.07135,-1.18758 2.7433,-1.58797 0.1315,-2.2251 -1.58262,-0.10222 -6.42881,-0.52612 -3.86952,-2.96903 2.16262,-1.89409 4.20043,-3.1054 6.35531,-4.90673 2.20797,-0.25127 -2.15391,-3.18505 0.45862,-2.97659 1.54554,1.55698 2.11883,3.53701 -0.50234,4.26135 -1.75619,2.63411 -3.90988,2.57331 -5.85538,4.8824 1.64647,0.27754 7.08158,0.49962 4.95652,3.31724 -0.50208,0.22826 -1.08765,0.82023 -1.6747,0.61646 z m -48.707137,-0.31156 c -1.844745,-1.10937 -4.66716,-1.13548 -5.516125,-3.42526 -0.330577,-2.65345 1.542049,-1.63758 1.456169,0.49529 1.538035,-0.43128 3.424473,2.57013 5.580466,1.39175 0.963843,0.76973 -0.885704,1.65161 -1.52051,1.53822 z m 34.76764,-0.83928 c -1.95567,-0.83585 -4.6438,-0.18454 -6.194753,-0.94066 2.173033,-1.96481 5.396903,0.0208 7.99503,-0.0231 1.49888,0.97735 -1.291177,1.50257 -1.800277,0.96266 z m -32.61774,-0.70856 c -0.218544,-0.97526 1.398812,-1.91431 -0.529586,-1.50231 -0.443434,-2.71631 3.876465,-0.31313 1.48776,1.35913 -0.234501,0.22178 -0.677099,0.42425 -0.958174,0.14315 z m -10.015177,-1.46686 c -4.373449,0.0775 1.838508,-2.90124 0.684384,0.12534 l -0.310387,0.009 -0.373999,-0.13576 z m 35.037116,-0.0622 c -0.266512,-2.22461 -0.32183,-0.72258 -1.239268,0.0631 -2.719614,-2.23816 3.684919,-4.16586 2.217051,-0.63289 0.109596,0.63118 -0.450651,1.08837 -0.977783,0.56971 z m -23.780786,-1.51424 c -1.388944,-3.69036 2.793003,-0.69499 0,0 z m 53.872244,-0.29324 c -0.96457,-1.78621 3.05885,-1.75421 0.7629,-0.11194 l -0.47667,0.18687 -0.28624,-0.0749 z m -63.821525,-0.51246 c -2.428974,-0.45834 -0.83292,-5.03049 0.630003,-2.63238 -2.395762,1.25035 2.160262,1.55053 -0.262576,2.87525 l -0.367424,-0.24273 z m 32.877187,-0.91601 c -2.79292,-1.52953 -0.11325,-4.33547 -0.930148,-6.50257 -0.812303,-1.39637 -0.443496,-3.49126 -0.414468,-5.28904 -0.529204,-0.75919 -0.387759,-1.84612 -0.389167,-2.85515 0.203095,-1.85263 -0.723567,-3.40741 -0.319051,-5.30691 -0.286197,-3.040245 -1.041427,-6.131025 -0.887376,-9.289482 0.36483,-2.360111 -1.249103,-5.143803 0.08987,-7.18528 -0.145117,-1.931395 -0.05458,-3.811103 -0.106173,-5.28048 -0.29529,-2.379375 0.433742,-5.036474 -0.58535,-7.313284 -2.389766,0.679683 0.310698,-2.567832 -1.079764,-4.222589 -0.05305,-2.668963 -1.109774,-5.161334 -0.638166,-8.082836 -0.21711,-3.023166 0.06672,-6.094319 -0.289597,-8.958861 -0.364508,-2.506662 -0.724448,-5.454876 0.07266,-8.355125 -0.518943,-1.737897 0.267782,-3.922387 -0.501326,-5.278931 0.532109,-2.933667 -0.83369,-6.019412 -0.820226,-8.927016 0.387912,-3.117128 -0.358966,-5.733825 -0.275869,-8.877849 -1.06388,-1.008655 0.0018,-3.053762 -0.522856,-4.506928 -0.14454,-1.579736 2.67042,-3.176817 1.708839,-0.485629 -0.79012,3.452529 0.238953,6.940695 0.353153,10.41198 -0.302426,3.053161 0.02174,6.040989 0.586752,9.046302 0.714737,1.429137 -0.280238,3.045135 0.608932,4.309405 -0.805381,1.512901 0.613403,2.88494 -0.08675,4.450708 -0.971359,2.928625 0.329136,5.760976 0.25148,8.712612 0.132653,3.599358 0.01457,7.195154 -0.0559,10.797357 1.444537,2.148228 1.243912,5.165149 1.085397,7.686219 -1.067627,2.302966 2.043132,2.620583 1.209412,5.372361 0.186838,2.961234 0.615299,5.919229 0.145118,8.866472 -0.497452,3.186599 0.422354,6.319846 -0.02727,9.499899 0.08832,2.55551 1.553094,4.83292 0.829035,7.674505 0.335336,3.15045 0.743657,6.31526 0.660386,9.49277 1.465864,2.29414 -0.298543,5.9422 1.892716,7.66002 0.298827,1.51961 1.054418,3.57818 -1.564295,2.73735 z m 0.797772,-1.00849 c 0.549926,-1.65775 -1.516569,-2.76642 -1.069756,-0.63709 0.179737,0.2241 0.818796,0.8829 1.069756,0.63709 z m -37.203543,0.46571 c -0.59888,-1.76033 -1.149245,-6.30169 1.13858,-5.77122 -0.719541,-2.30962 2.460359,-2.83723 2.117423,-3.99958 2.184865,-0.3922 4.195412,-0.88507 6.311078,-0.2487 1.19307,-1.02658 2.372797,1.82 2.67362,-0.27481 1.180946,1.15227 2.767023,4.29694 1.981528,5.68494 -0.891223,-0.1043 -0.163456,2.77865 0.148009,0.29414 2.034638,-0.29047 -0.26513,3.40218 -0.727672,1.54028 -1.305458,1.92252 -2.969686,-0.18894 -1.435724,-1.08106 -0.100762,-1.55217 2.427156,-0.94469 0.487232,-2.58504 -0.09669,-0.0261 -1.353456,1.36954 -1.952979,-0.38954 -1.0407,-1.59805 -1.638791,-1.66079 -0.72331,0.3394 1.757693,0.12651 1.633847,1.97095 0.259369,1.64288 -0.941596,2.16684 -1.590502,-0.176 -1.05423,-1.2035 -0.775717,0.44266 -2.367454,2.78457 -2.665154,0.0553 -0.799033,1.97423 -3.127047,1.69875 -3.315473,0.53739 0.464482,1.953 -0.893132,2.89486 -2.143563,1.87235 -0.131034,0.88775 0.739346,4.3225 -1.09873,3.58673 z m 5.749669,-6.72472 c 1.465127,-1.11108 2.380864,-2.20241 -0.19144,-2.13678 -1.499476,0.0724 -2.299053,1.48844 -1.193711,2.93235 0.142018,1.21201 0.990657,-0.58384 1.385151,-0.79557 z m 66.72832,6.6874 c -0.35483,-1.02676 0.88658,-3.35554 -0.95571,-1.8228 -0.75446,-0.78102 0.88716,-1.76638 -0.54471,-2.22163 1.21375,-0.69885 1.86179,-3.61716 -0.13239,-1.70572 -2.16406,-0.0588 2.60148,-2.61707 0.55266,-2.71413 -2.20285,1.82677 -0.60524,-2.75352 0.19954,-0.6891 -0.94259,-2.09228 1.22501,-2.48959 1.18136,-0.13436 1.03719,1.95135 0.0798,4.50216 -0.37533,5.64985 1.883,-2.39149 2.08304,4.04063 0.0746,3.63805 z m -19.53185,-0.20305 c -0.62924,-1.67162 3.90097,-2.86632 1.49555,-0.56142 -0.38734,0.31145 -0.96133,0.96095 -1.49555,0.56142 z M 63.319814,119.3394 c -2.046211,-2.36467 3.704733,-0.84837 0.552915,0.0909 l -0.552913,-0.0909 z m 3.274648,0.0185 c -1.727826,-2.1782 2.752042,-0.15263 0,0 z m -8.577124,-0.81867 c -1.390447,-1.87541 3.238127,-5.19422 1.915292,-1.38807 -0.655839,0.35256 -1.144145,1.52158 -1.915292,1.38807 z m 51.256292,-1.04996 c -0.0378,-1.10902 2.57926,-2.76704 3.59225,-2.87987 0.45597,1.25122 -2.62633,3.2328 -3.59225,2.87987 z m 15.86746,-9.30871 c -0.14884,-1.13144 -3.44955,-5.37209 -0.9619,-4.32588 0.42634,0.8415 3.17245,4.65628 0.9619,4.32588 z m -17.50267,-6.74323 c -1.18208,-1.20576 0.22902,-4.283825 1.78078,-2.394635 -0.69666,0.82253 -1.45405,0.47973 -0.76601,1.976585 -0.11151,0.42324 -0.64176,0.59608 -1.01477,0.41805 z m 6.98771,-3.815585 c -2.46726,-1.5765 2.1584,-1.43108 0.60875,0.27904 l -0.16642,0.0139 -0.44208,-0.29317 z m -8.84234,-0.37312 c -1.05833,-0.42479 -4.54116,-1.4093 -1.87729,-1.91459 0.70256,0.0518 5.05775,2.06629 1.87729,1.91459 z m 3.50626,-0.17738 c -0.77339,-1.41834 1.41742,-4.10994 1.14763,-1.20539 -0.0977,0.49284 -0.3303,1.8548 -1.14763,1.20539 z m -9.482897,-4.28096 c 0.286317,-1.09603 -1.21234,-5.214366 0.931287,-4.375412 -0.24537,0.929285 0.9033,4.236652 -0.931287,4.375412 z m 17.587707,-0.60725 c 0.29827,-1.677357 -0.55179,-3.763213 0.77187,-5.515495 -3.13633,-0.903985 0.66257,-2.164115 2.00754,-1.09406 0.8812,-1.082913 3.36464,-1.042812 3.54607,-3.378941 1.39583,-1.679087 0.52999,-3.697714 0.64275,-5.454737 -0.37215,-2.908667 -0.47419,-5.455916 -1.89824,-8.162552 1.84224,-0.851303 2.79197,4.072291 2.99131,5.587667 -0.98297,2.040968 1.48318,4.96698 -0.11009,7.262822 -0.91322,2.857096 -3.5936,5.561928 -6.10955,5.002132 -0.96664,1.02748 -0.6178,3.004896 -0.47272,4.481951 0.0507,0.722903 -0.49023,1.965183 -1.36894,1.271213 z M 99.997963,87.695129 c -0.1428,-1.07593 0.780747,-6.113468 1.877677,-3.925833 -0.74631,0.889924 -0.27029,4.536691 -1.877677,3.925833 z m 13.106297,-1.06173 c 0.14014,-1.497337 -3.08675,-3.226261 -1.05709,-4.105917 1.07733,0.454316 3.10658,4.340395 1.05709,4.105917 z m 4.26126,-2.233864 c -2.49498,-1.592548 2.52104,-4.860483 1.01097,-1.861184 -1.46963,0.03978 1.21603,2.107294 -1.01097,1.861184 z m -4.36916,-2.837161 c -3.46332,-0.564722 1.3654,-2.289321 0.94866,0.0023 -0.20966,0.304203 -0.71304,0.207212 -0.94866,-0.0023 z m 1.5763,0.166047 c -0.1972,-1.144545 0.68665,-2.594196 0.37569,-3.944611 1.83203,-0.792308 1.29807,4.401287 -0.37569,3.944611 z m -5.00921,-0.696981 c -1.02374,-1.51792 -0.99152,-3.568068 1.41664,-4.059803 0.5297,0.964229 -0.69254,1.200603 -0.001,2.162403 1.02295,0.707203 0.27366,1.527147 -1.41554,1.8974 z m 9.35382,-0.844759 c -0.81365,-1.294704 -0.56705,-3.205516 1.44806,-2.948976 -1.12119,-2.870601 2.03039,-1.193041 0.86976,0.657528 -1.144,0.640738 -2.18052,0.460583 -1.16863,1.954822 -0.14438,0.447633 -0.78408,0.597237 -1.14919,0.336626 z m -5.34876,-2.370448 c -2.33904,-1.208304 -0.1468,-2.855569 0.7802,-0.489492 0.0315,0.394535 -0.43382,0.720062 -0.7802,0.489492 z M 95.898483,76.848165 c -0.30239,-1.892034 0.77731,-3.929926 1.81512,-4.76282 -0.32131,-1.759197 1.5542,-1.439198 1.37946,0.118869 1.342567,-1.362603 -1.16869,-4.380704 1.397507,-5.138253 0.37577,1.963633 1.41729,-1.635309 2.83326,0.188248 0.54805,1.268271 -1.78319,4.244745 1.3158,4.638008 -0.54424,2.471718 -4.61657,-1.783988 -2.37713,-3.619131 0.0185,-0.756439 -2.407017,2.103755 -1.09059,2.620744 -0.54887,2.853349 -4.520927,2.297462 -4.304017,5.414451 -0.0162,0.468539 -0.56585,0.915271 -0.96941,0.539745 z m 12.844837,-0.0185 c 1.14786,-1.351017 -0.006,-2.826893 -0.48256,-4.56294 -0.33079,-2.402917 1.28803,-2.795047 1.54986,-0.437573 -0.46114,2.219688 3.18904,5.399049 -1.0673,5.000513 z m 8.30108,-2.523776 c -2.22562,0.164197 -2.20829,-4.58114 -0.0694,-1.760908 0.88071,0.400664 1.95004,3.073073 0.0694,1.760908 z m -12.08347,-2.314067 c -1.05584,-1.537878 3.76775,-5.085109 2.46823,-2.343113 -1.16568,0.270069 -1.24986,2.837785 -2.46823,2.343113 z m 13.75694,-0.676885 c -1.47002,-1.026901 1.63855,-5.485379 2.45926,-3.644616 -1.1415,1.208952 -1.84796,2.106415 -1.33568,3.560367 -0.26397,0.353347 -0.80109,0.168591 -1.12358,0.08418 z m -10.23252,-2.054311 c -0.14884,-0.954123 -0.97612,-4.112809 0.97403,-3.459282 -0.8404,1.242901 2.15247,3.515803 -0.97403,3.459282 z m 5.11358,0.02891 c -1.63169,0.425015 -4.63595,-4.677878 -1.71597,-2.520562 0.22911,0.615693 4.58821,2.127923 1.71597,2.520562 z m 2.02492,-1.063349 c -1.72984,0.03955 -3.3375,-3.221589 -0.84159,-1.597589 1.02271,0.23154 4.22154,2.253891 0.84159,1.597589 z m -12.00618,-1.02126 c -0.30329,-1.708296 2.49885,-3.466775 3.84486,-4.098656 1.59268,-2.421349 1.44561,2.307869 -0.60055,1.116979 -0.87357,1.065545 -1.91218,2.640494 -3.24431,2.981677 z m 17.73512,-0.737753 c 0.42232,-2.801061 -0.8903,1.036221 -1.73334,-0.611506 0.26487,-1.839607 3.11457,-4.026872 2.81541,-1.049126 -0.0591,0.614906 0.0867,2.448823 -1.08207,1.660632 z m 1.21803,0.03561 c 0.13888,-1.337719 2.01736,-3.895074 -0.23001,-3.710618 0.99279,-1.546435 -1.83914,-4.715713 0.009,-4.990569 1.54,1.701103 0.3398,4.243796 2.18076,5.100812 0.0347,-2.657446 -1.29385,-5.580868 -2.75857,-7.912904 -1.72566,-0.624364 0.35566,-2.70349 -1.86101,-3.322443 0.66433,2.175331 0.68751,6.208239 -1.78644,6.705385 0.33574,-1.923671 1.78176,-3.894334 0.81902,-6.056946 -0.8801,-1.672889 0.0206,-3.7664 1.57481,-1.623977 2.47882,2.930892 4.26394,6.386173 6.46878,9.522542 0.33701,3.656642 -2.79181,-3.246705 -2.94174,-2.876314 0.47389,2.309511 2.88249,5.604596 0.48218,7.446608 -0.64947,0.311835 -0.85937,2.45398 -1.95722,1.718424 z m -10.14167,-0.205589 c -1.24153,-1.135294 -0.17766,-6.383536 0.55319,-2.806957 -0.33519,0.73921 0.96268,3.075755 -0.55319,2.806957 z m 3.54933,-0.339471 c -2.15787,-2.641419 5.21745,-1.923416 1.27999,-0.05365 -0.41352,0.09505 -0.86278,0.193336 -1.27999,0.05365 z m -8.28752,-0.271619 c -0.78302,-1.833917 2.91562,-1.94046 0.9665,-0.209987 -0.17199,0.230107 -0.7083,0.522863 -0.9665,0.209987 z m -1.19155,-2.462838 c -0.27067,-1.550111 -1.02459,-3.082276 -1.36158,-4.482853 -0.22655,-1.904291 -0.7794,-3.129662 -1.37033,-4.885436 -1.02373,-1.776518 0.0526,-3.850579 -1.47168,-5.312394 0.15233,-1.162121 0.67271,-3.097378 -0.45101,-3.503893 -0.5635,-2.421951 -0.85253,-5.248728 -1.48163,-7.815033 0.1275,-2.748934 -1.800117,-3.946762 -2.059527,-6.570721 -0.16424,-2.684758 -1.95741,-4.903382 -1.80911,-7.667556 -0.98976,-2.865537 -1.32307,-5.861853 -2.0932,-8.644112 -0.69395,-1.54352 -1.63049,-6.1128659 0.77696,-5.5428019 1.07608,3.1046859 0.4,6.4990759 1.45267,9.6321609 0.935,6.057548 3.33404,11.728932 4.788717,17.650798 0.79247,2.892155 0.83892,6.05098 2.11671,8.771537 0.59936,2.463764 0.585,5.050582 1.29839,7.550746 0.60713,2.021125 0.78053,3.87574 1.53854,5.772423 0.072,1.302012 2.10847,4.808634 0.12608,5.047135 z m 13.11426,-1.378537 c -3.38915,-0.984696 3.47827,-2.089625 1.19894,-0.0451 l -0.66878,0.06938 z m -11.47508,-0.281886 c 0.45781,-1.975798 1.77321,-4.691661 2.63427,-6.422112 1.40584,1.148847 -1.26815,6.403564 -2.63427,6.422112 z m 7.07062,0.03446 c -1.76062,-0.119563 -1.47678,-2.087637 0.12375,-1.245561 2.02976,-1.95799 1.43512,1.913773 -0.12375,1.245561 z m -7.83274,-2.011389 c -1.17614,-1.505177 1.82898,-3.568855 0.77078,-4.976138 1.1873,-1.470302 2.13858,-4.174047 3.49012,-4.945102 0.52606,2.650994 -2.75506,5.56905 -3.23857,8.503758 -0.27158,0.442684 -0.22888,1.62474 -1.02233,1.417482 z m 8.08188,-0.210681 c 0.12677,-2.12221 2.01443,-5.175186 1.4242,-6.747684 -0.45052,2.670467 -2.65634,1.505871 -0.96237,-0.585373 -0.29916,-1.440377 0.17185,-4.704797 1.12839,-1.758087 0.53055,1.711719 -0.84647,-4.47684 1.06384,-1.865623 0.41175,2.900341 -0.3178,5.710051 -0.8924,8.437709 -0.45188,0.729936 -0.46093,3.043031 -1.76166,2.519058 z m -3.08931,-0.586345 c 0.013,-0.778779 2.19193,-5.114502 0.40775,-2.664407 -2.19115,2.427432 -0.49814,-1.813682 -0.0976,-2.912691 0.086,-2.112081 0.46784,-3.876782 1.69575,-5.611811 1.86602,1.095054 -1.31155,3.783235 -0.6298,5.748626 -1.43188,2.117932 1.59573,0.554916 0.73741,2.987227 -0.40233,0.746911 -0.96948,2.954134 -2.11355,2.453056 z M -97.896073,55.474193 c -0.76229,-3.097586 -0.70288,-6.665146 -1.96157,-9.575478 -0.722577,-1.712088 1.50959,-2.922659 1.31156,-0.357903 0.46604,3.198741 1.20067,6.361173 1.51066,9.579779 -0.0398,0.3672 -0.56297,0.727555 -0.86065,0.353602 z m 0.87154,-17.095188 c -0.0541,-2.025172 4.923433,-1.683342 5.567386,-2.622826 -1.701476,-1.395535 3.197376,-0.707319 0.904609,-1.490862 -1.635216,-1.056294 1.541092,-2.864403 1.4583,-0.411671 -0.523279,2.700484 4.916634,-0.284153 2.878279,2.895323 -1.139711,-1.319865 -3.815173,-0.03561 -5.865553,0.403416 -1.674691,0.172522 -3.330261,1.346969 -4.943021,1.22662 z m -0.0301,-2.964309 c -1.85955,-0.374277 -1.10211,-4.065978 0.50156,-2.279585 -1.76835,1.84999 3.10846,1.162653 0.48137,2.374912 -0.0428,0.423443 -0.96082,-0.426334 -0.98293,-0.09528 z m -3.083337,-0.919387 c -2.22878,-3.480743 -3.67783,-7.42961 -5.28851,-11.17094 1.79338,-1.464382 2.32228,4.03707 3.37982,5.347014 0.0627,1.481473 4.137917,5.590997 1.90869,5.823926 z m 10.160035,-2.727126 c -0.397102,-2.89345 1.899943,-5.392365 0.544163,-8.379939 0.04718,-1.381313 -1.842822,-6.816323 0.448789,-3.862559 0.624642,1.304255 0.327839,5.618702 1.080578,5.347084 1.757045,-2.795141 1.213207,-6.179655 0.110081,-9.138761 -2.129981,-2.076744 -4.11119,3.292495 -5.252039,4.873665 -1.76033,2.392973 -3.12718,4.931064 -3.82037,7.802013 0.061,1.586234 -2.57112,3.807818 -1.52359,0.973919 0.96402,-2.648196 1.60603,-5.200001 3.21382,-7.515594 1.98477,-2.145568 2.47366,-5.371944 4.957153,-7.058964 2.218115,-1.629966 3.265807,-4.528689 5.234319,-6.5257859 2.182941,-2.405693 3.3665,-5.6502698 6.065504,-7.5920948 1.950566,-2.511866 3.728541,-5.145978 5.724713,-7.615823 2.925134,-3.4451563 5.558366,-7.2202513 9.223195,-9.9616693 3.72517,-3.350634 7.570893,-6.576981 11.051683,-10.177759 1.918881,-1.812993 3.561775,-2.745888 5.904865,-4.138486 2.647518,-2.311921 5.747426,-3.985524 8.739501,-5.793145 1.126289,-1.122158 3.746784,-1.316773 4.73382,-2.87388 1.115572,-1.021782 3.166576,-1.161932 4.467555,-2.728174 0.636573,-0.665043 2.913387,-0.84637 2.423264,-2.724931 1.017995,0.172315 2.666035,0.01873 1.737657,-1.509945 0.992667,-0.0222 2.822163,0.167619 2.722706,-1.743473 0.956519,-0.216416 2.288477,-0.2018 1.977056,-1.698002 2.401229,-0.139799 4.918208,-1.643641 7.409901,-2.667201 2.288354,-0.499096 4.3234688,-2.149411 6.1874918,-2.209662 2.1952969,-1.342992 4.7229437,-0.846449 6.95758504,-2.063676 2.32226036,-1.383844 4.63570636,-2.737026 7.30332136,-3.910217 3.3764968,-2.05053 7.3854498,-2.330391 11.1507348,-3.193239 1.105415,-0.958871 3.242771,-0.851435 4.857139,-1.873764 3.087249,-0.63551 5.923272,-1.920209 9.081225,-2.029999 2.54519,-0.151709 5.076508,-1.552586 7.39189,-1.459149 2.86488,-1.076123 5.871457,-1.46425 8.893894,-1.812098 3.037322,-0.0086 5.817111,-0.889512 8.763772,-1.106842 3.996981,-0.648316 8.075697,-0.819844 12.076405,-1.24921 2.866897,0.343391 6.094918,-0.163665 9.085693,-0.369836 4.654858,-0.134919 9.338806,-0.217573 13.979123,0.179437 0.38989,1.720953 -1.993745,5.327332 1.77255,4.226197 1.66842,-1.812775 -1.86064,-2.702769 0.37538,-4.162778 2.06981,-2.271356 3.62071,-4.839498 6.071287,-6.181151 2.27342,-1.129244 2.78572,-3.905809 -0.49566,-3.222646 -5.702467,-0.737968 -11.463051,-0.809715 -17.188213,-1.275082 -6.730996,0.125946 -13.466011,0.295525 -20.176368,0.803578 -4.000323,-0.09285 -7.924233,0.732149 -11.753201,1.784473 -2.968588,0.539574 -5.94563,0.809211 -8.904144,1.4172 -4.785001,0.878428 -9.664945,1.450099 -14.211856,3.272054 -3.951482,1.05456 -7.958955,1.954262 -11.74797,3.505243 -3.401822,0.92536 -6.435554,2.814723 -9.8923428,3.534903 -4.4524493,1.245396 -8.6789101,3.163047 -13.0987945,4.509885 -2.870678,1.203741 -5.4796307,2.824529 -8.4341337,3.853301 -3.310067,1.012388 -6.186637,3.004071 -9.110063,4.785337 -4.199972,2.794224 -8.232063,5.837894 -12.125662,9.043859 -2.471041,2.313888 -6.027657,2.912775 -8.437173,5.370317 -2.41937,1.968517 -4.732199,4.09316 -7.119666,6.131857 -2.665263,2.700297 -5.56461,5.148931 -8.672233,7.309575 -2.354773,1.954167 -4.345765,4.261659 -6.385322,6.53141 -2.803442,2.585794 -5.303629,5.467138 -7.633607,8.467454 -2.864634,2.487954 -5.579526,5.1460243 -8.474179,7.5578733 -1.693772,2.145314 -1.958569,5.059393 -4.053698,6.833899 -2.08766,2.8193298 -4.254504,5.6542478 -5.451384,8.9555538 -1.950843,2.6392679 -4.609793,5.0148279 -5.534683,8.2428229 -1.46089,0.183392 -1.56547,4.660857 -2.614587,2.564918 0.756157,-2.892988 2.762107,-5.182263 4.309397,-7.817346 2.42447,-2.1218399 3.51301,-5.0232459 5.003451,-7.7560139 1.598908,-2.1045188 2.823401,-4.5639568 4.895173,-6.2649218 0.783751,-2.785936 2.283932,-5.657952 4.801696,-7.253391 2.66702,-2.7662093 5.955075,-4.9502133 8.229294,-8.0936593 2.78922,-3.563859 6.305277,-6.46909 9.190772,-9.950883 2.185068,-2.436835 5.001859,-4.07148 7.44053,-6.199883 2.922219,-2.510005 5.55751,-5.348389 8.653026,-7.659051 2.293188,-2.310905 4.990548,-4.410086 7.992602,-5.724082 2.911731,-1.287665 4.980501,-3.840786 7.610751,-5.587859 3.759041,-2.790376 7.470545,-5.676798 11.635095,-7.853693 3.359501,-2.424696 7.681682,-2.954462 11.0859437,-5.255643 3.963156,-1.846762 8.2466369,-2.856267 12.2617835,-4.60348 3.330616,-1.121282 6.798806,-1.790673 9.9467868,-3.397481 4.706633,-1.664492 9.366014,-3.457282 14.280731,-4.44686 3.625819,-1.251909 7.290777,-2.373459 11.110585,-2.859822 3.373062,-0.706819 6.802236,-1.1932 10.190386,-1.715027 3.933906,-0.395051 7.63919,-1.971228 11.609251,-2.160672 4.856066,-0.04662 9.674956,-0.707272 14.536399,-0.684562 5.207697,-0.185196 10.424785,-0.411957 15.614416,0.201499 4.703574,0.150715 9.376554,0.683108 14.054721,1.106042 0.91141,1.046157 0.52918,1.539212 1.34008,-0.01411 1.77541,0.992781 5.0397,1.501551 5.795,3.346359 -1.04089,0.515971 -4.5086,-2.182422 -3.25036,1.241183 -0.47021,2.787658 1.88891,0.709728 1.83875,-0.446944 4.28312,0.117204 -1.44293,3.085805 -2.58961,4.021429 -2.59802,1.73033 -4.8136,3.956406 -6.77816,6.367432 1.11306,2.2714 -1.255757,0.716051 -2.495187,1.062266 -1.1684,0.179321 -2.67756,-0.511529 -3.41552,0.695801 -1.00656,0.339671 -1.58638,-1.96972 -3.060699,-0.797911 -0.945511,0.877584 -2.212547,-1.672586 -3.201424,0.520419 -0.850331,-1.280156 -2.276537,0.426172 -3.426382,-0.572587 1.819468,-0.540204 2.200352,-2.409262 2.009143,-4.371223 -0.563364,-0.50037 -2.098519,-0.03635 -3.025931,-0.175436 -4.387964,-0.09412 -8.735995,0.604247 -13.118075,0.643879 -2.259634,3.42508 3.986363,0.174418 3.208955,2.643387 -1.333406,0.263573 -2.967621,-0.08744 -4.233014,0.308417 -0.964803,0.963994 -2.569388,-0.857013 -4.365853,0.171343 -0.93468,1.476556 -1.822407,-0.538163 -3.025141,0.922829 -0.712765,-1.511253 -1.841336,1.051244 -2.664682,-0.223401 -1.44228,1.492539 -3.70252,-0.333976 -5.950362,1.204389 -1.558804,-0.259193 -2.755106,0.740239 -4.06595,0.239968 -2.083539,0.487758 -4.102624,1.460467 -6.090958,1.389573 -2.674407,0.08513 -5.301137,1.650235 -7.57911,1.693014 -1.831098,0.669553 -3.130123,0.896013 -4.94911,1.394406 -2.235238,0.869372 -4.780364,1.184963 -6.68947,2.677124 -2.689016,0.46418 -5.51879,1.025285 -8.190242,1.834464 -2.419441,1.484222 -5.170685,1.892385 -8.0193488,3.088167 -2.721985,0.811431 -5.6657855,1.206047 -8.08704236,2.490166 -2.96598314,1.440486 -5.90340114,2.912074 -8.56891614,4.875344 -0.456692,1.703365 -2.3234227,0.203303 -3.5399747,1.966013 -4.054375,2.935709 -8.823625,4.631028 -13.041686,7.280477 -3.099545,2.216586 -6.701921,3.702793 -9.452166,6.416131 -2.617953,1.750484 -5.08537,3.756739 -7.501896,5.775931 -2.259185,1.184755 -3.824291,2.993964 -6.009604,3.956443 -0.859481,1.269344 -2.911059,2.247162 -3.837166,3.715325 0.01642,1.766529 -1.82868,1.230831 -2.602972,3.041414 -2.327526,2.488832 -4.407254,5.231846 -7.126775,7.3181873 -1.098385,0.936408 -0.545758,2.667881 -2.116036,2.307018 -1.659198,1.610794 -3.067453,3.398436 -4.749407,5.088462 -1.980238,2.607493 -3.927035,5.2518958 -6.019667,7.7691268 -1.334736,2.082479 -2.963037,3.9731719 -4.354641,6.0322479 -0.103606,2.116082 -2.427871,2.183079 -3.036186,4.690203 -1.479738,2.15438 -3.063266,4.861455 -4.456234,6.584667 -1.596734,2.277781 -1.898186,6.194131 -3.566195,7.752129 z m 4.90928,-11.650881 c 1.311864,-1.61394 2.90085,-3.360324 2.250422,-5.578139 -0.127657,-1.879083 -0.351242,-5.2016879 -1.020148,-6.0142549 -2.177552,1.6107019 1.292553,3.9242369 0.317871,6.3308319 0.793835,1.442527 -1.367136,4.936476 -1.042303,1.72934 0.206055,-1.558229 -0.233923,-5.76944 -1.251227,-5.503973 -1.200765,1.640396 -3.061347,3.093585 -0.909281,4.439538 0.921191,1.287188 0.527003,4.740434 1.287882,5.184644 l 0.366622,-0.586877 z m 4.389584,-6.755639 c 1.069107,-1.130229 0.0046,-2.800089 0.121414,-4.1487239 0.13552,-1.302266 -2.316564,-4.024952 0.259176,-3.806246 0.912311,1.529737 0.477166,4.9193629 1.324769,5.6853059 2.230372,-2.1433699 0.943161,-5.3098039 1.157796,-8.0388949 0.195418,-3.9044638 -3.234355,1.51667 -4.130038,2.855014 -0.672167,1.384203 -2.039325,1.995941 -0.432717,2.779622 0.553159,1.4678509 0.119564,5.9829429 0.93583,5.8506599 0.247498,-0.396825 0.503969,-0.787983 0.763886,-1.176737 z m 4.819527,-6.6240499 c -0.08418,-1.503789 0.63595,-5.4803148 -0.938027,-5.4934968 0.127426,2.2080328 0.0488,4.4227478 0.174603,6.6315198 0.299879,-0.344327 0.660789,-0.671241 0.763377,-1.138023 z m 2.092654,-2.732445 c 0.152634,-1.8298698 0.4033,-4.0713888 -0.111468,-5.7193018 -1.188509,-1.281337 1.711394,-3.189375 1.229372,-0.599989 0.241948,1.508854 -0.56264,6.8968938 1.460659,3.042638 -0.673578,-2.114186 -0.494742,-5.508043 -1.184207,-7.006144 -1.818978,2.345634 -3.596213,4.717956 -5.290263,7.162247 0.858658,-1.063927 2.578724,-2.252019 2.592392,0.332417 0.630331,0.917121 -0.398721,5.7377338 1.303515,2.7881328 z m 3.771557,-4.9772478 c 0.981505,-2.246236 -1.021582,-5.687156 0.23878,-7.403643 2.043534,0.581257 -0.277401,6.905271 1.84881,5.087727 -0.02081,-2.679832 0.05504,-5.363508 -0.06845,-8.0402653 -2.136133,1.7260803 -3.9682,4.0723433 -2.948121,6.9346423 0.3817,0.410954 0.12812,4.811293 0.928984,3.421539 z m 4.436531,-5.815137 c -0.201199,-1.822429 0.0481,-5.7526783 -0.936593,-6.4392293 -1.628694,1.172851 0.44842,3.5290773 -0.307742,5.3992333 0.152403,0.768285 -0.310286,2.991395 0.260703,2.769151 0.471754,-0.570619 1.318155,-0.841081 0.983632,-1.729155 z m 1.595301,-0.637389 c 1.105669,-1.913981 -0.09204,-4.8065063 0.273607,-7.0525353 0.638287,-2.248527 -3.476765,0.661667 -1.307354,1.14466 0.688378,1.210039 -0.298723,6.8133673 1.033747,5.9078753 z m 2.26291,-2.446557 c 0.870341,-1.7765193 1.002531,-5.6390543 -0.516642,-7.1041533 -1.551175,1.019154 0.245163,4.348697 -0.380613,6.194363 -0.02775,0.9082403 -0.106612,2.2904543 0.897255,0.9097903 z m 2.379796,-2.1427703 c 1.189711,-2.029474 0.123958,-5.339036 0.129739,-7.576494 -3.769711,1.334953 0.17206,5.082135 -0.863144,8.004955 -0.07562,0.780028 0.713725,-0.772789 0.733452,-0.428461 z m 2.949809,-3.293258 c 1.776889,-1.696709 -0.771124,-6.470475 1.530223,-6.943478 0.313061,1.690914 0.05134,3.446181 0.09158,5.164716 1.592502,-1.473156 1.96331,-3.285605 1.526546,-5.359123 0.0017,-1.633609 0.148471,-3.550575 -1.457444,-1.390151 -2.007088,0.989178 -2.252481,2.751672 -1.722588,4.719273 0.49421,1.195627 -0.262992,5.825771 -0.97933,2.88253 0.398374,-1.362903 -0.617265,-6.969472 -0.634124,-3.080576 0.443424,1.178112 -0.499875,5.425077 0.652463,5.025801 0.35751,-0.312367 0.68262,-0.661783 0.992744,-1.018992 z m 4.969061,-5.620687 c 1.368996,-1.184683 0.344668,-3.45526 0.68503,-5.064071 0.639741,-2.696527 -2.802591,0.02331 -1.488531,1.549959 0.326879,0.620061 -0.570642,5.185496 0.803501,3.514112 z m 2.324217,-3.487034 c 0.37257,-1.316977 0.447363,-6.135779 -0.523756,-2.828916 -0.02373,1.530702 -0.03499,3.061558 -0.05157,4.592345 0.675957,-0.415198 0.473391,-1.086997 0.575327,-1.763429 z m 1.372207,0.384059 c 1.889696,-1.074555 0.250387,-4.055226 0.535886,-5.850484 -1.186626,0.462085 -0.642151,5.32906 -0.535886,5.850484 z m 3.176535,-2.300398 c -0.127218,-1.904768 1.373535,-7.644893 -1.551582,-4.219428 0.416713,1.443679 -0.716039,6.04711 1.339537,4.4137 l 0.212068,-0.194284 z m 1.959628,-1.177477 c 1.104597,-1.479139 0.754013,-4.656791 0.373062,-5.928149 -2.209861,0.882121 -0.434372,3.966942 -1.213221,5.770101 -0.130756,1.146254 -0.0039,0.926628 0.840159,0.158048 z m 2.679791,-2.162668 c -0.74051,-1.008109 0.793869,-4.757117 -1.061561,-4.474736 0.07752,1.740599 0.07683,3.486312 0.101363,5.229503 0.327101,-0.242625 0.66974,-0.465528 0.960207,-0.754767 z m 1.236264,-0.860322 c 1.455513,-0.526221 0.890564,-2.003413 0.98628,-3.160751 0.120603,-1.480483 0.09803,-3.137459 -1.559027,-1.508697 -0.744693,0.878978 1.135618,3.28197 0.139359,4.973099 l 0.43345,-0.303651 z m 2.65566,-2.10632 c 1.416476,-0.494268 0.132537,-2.564557 0.562412,-3.916437 -0.992041,-1.335709 -1.442824,1.124157 -1.17834,2.1133 0.192758,0.454134 -0.538873,3.095611 0.615928,1.803137 z m 2.503881,-1.94467 c 0.435919,-0.726955 0.856425,-4.234104 -0.08619,-3.808133 -1.383093,0.436359 -0.74686,1.049273 -0.761372,2.169071 0.137579,0.841763 -0.48378,3.3622 0.847554,1.639062 z m 2.304154,-1.931166 c 0.461629,-1.21243 -0.235766,-4.66245 -0.793876,-2.08423 0.102265,0.842686 -0.201338,2.496052 0.142713,2.855805 0.128582,-0.245007 1.121987,-0.509038 0.651158,-0.771575 z m 1.824732,-0.772301 c 2.777263,-0.270962 3.763039,-4.090194 2.425554,-5.199804 -1.167868,0.512273 0.162925,5.455798 -1.82609,3.674907 1.727507,-2.763934 -1.605448,-3.030245 -1.292331,-0.513335 0.369942,0.855681 -1.023384,3.504755 0.692867,2.038232 z m 4.489946,-2.862413 c 3.62803,-2.077324 7.629044,-3.520458 11.008078,-6.008221 -0.457317,-1.166296 0.265825,-6.882492 -1.27551,-4.029911 -0.0079,1.432482 -0.01573,2.864964 -0.02345,4.297445 -1.673178,0.805872 -0.780974,-1.865545 -1.006379,-2.756244 1.024901,-2.430008 -2.859926,-1.173635 -2.126422,0.442296 0.332201,1.250426 -0.177795,6.09871 -1.356717,3.971507 0.303001,-1.047419 1.105256,-5.777847 -0.790684,-3.56318 -1.214903,0.75115 0.498851,6.263673 -1.513556,4.72235 -0.08797,-1.375452 0.610454,-4.783891 -1.366548,-2.321011 0.184409,1.146311 -0.308545,5.855715 -1.525004,3.906392 0.619851,-1.187199 0.719349,-4.292824 -0.580325,-2.044885 0.185867,0.817143 -0.563755,4.380732 0.556512,3.383462 z m 12.52831,-6.874658 c 1.360158,-0.448445 -0.578864,-2.555043 0.119748,-4.145607 -0.914089,-2.115906 -0.718644,1.718267 -0.74341,2.513674 0.297615,0.69935 -1.018377,2.975887 0.623655,1.631933 z m 1.365285,-0.847615 c 2.1875057,-0.138295 2.5283408,-6.316764 0.109504,-4.644663 -0.78837,0.985979 -0.01434,2.999045 -0.342481,4.335184 0.05802,0.167805 -0.295103,0.849916 0.232987,0.309479 z m 4.6579777,-2.808563 c 1.580129,-1.050363 0.36945,-5.439485 -0.3580609,-2.127837 -0.275127,3.017135 -1.24504,0.105225 -1.208667,-0.773365 -0.9021761,0.211514 -0.7681131,4.38597 -0.03825,3.957678 0.53552,-0.351373 1.071255,-0.702606 1.6049719,-1.056476 z m 2.286967,-1.420863 c 1.302474,-1.386677 -0.372152,-4.30886 -0.524764,-1.625452 0.412548,0.558059 -0.795,2.914444 0.524764,1.625452 z m 2.1371195,-0.901191 c 2.06994494,0.06378 3.7671651,-4.059195 0.7038196,-2.532067 -1.6583591,-0.929793 -2.1250391,4.439406 -0.7038196,2.532067 z m 4.712995,-2.022455 c 1.351285,-1.859467 -0.202864,-3.230081 -1.2817421,-1.164563 -0.045582,1.388627 -0.3185397,1.707942 1.2817421,1.164563 z m 2.43482,-0.697802 c 1.482497,-0.809135 1.354891,-4.917471 -0.871161,-2.605659 -0.09794,0.70779 -0.353392,2.578835 0.111561,2.804485 l 0.320531,-0.0991 0.439203,-0.09974 z m 2.366522,-0.516899 c 0.963463,-0.293732 1.727529,-4.688497 0.289178,-3.817879 -1.183337,0.402352 -1.046151,4.196108 -0.289102,3.817879 z m 2.9808858,-1.056524 c 2.447325,-0.523404 0.736465,-6.429446 -0.8957168,-3.22235 0.5306518,1.043326 -1.590497,4.91415 0.8957168,3.22235 z m 2.706802,-1.043554 c 1.086399,-1.233885 0.606377,-5.551334 -0.695418,-3.126751 0.6227,0.538829 -0.58131,3.771564 0.695418,3.126751 z m 1.871186,-0.841528 c 2.184286,0.124466 1.155599,-2.191679 0.902061,-3.494862 -1.547244,-0.982325 -1.771828,4.591864 -0.902061,3.494862 z m 3.660396,-1.044817 c 2.863129,0.245032 4.670905,-1.667034 3.63167,-4.438791 -2.129148,0.270846 -2.267622,1.785866 -2.326751,3.593387 -1.942433,1.729248 0.398103,-3.898143 -2.331615,-1.949096 -0.332057,0.386774 -1.436582,4.656914 1.026696,2.7945 z m 4.956341,-1.277845 c 1.468272,-1.039614 -0.158484,-5.615983 -0.166787,-2.35167 0.173956,0.558114 -0.491242,2.653427 0.166787,2.35167 z m 2.194411,-0.873299 c -0.59751,-0.751259 1.187909,-4.773977 -0.228974,-2.683745 0.288295,0.506103 -1.0707,3.516563 0.228974,2.683745 z m 1.221699,-0.520879 c 0.159849,-1.936952 -0.704798,0.856976 0,0 z m 3.153083,-0.90626 c -0.355094,-0.964257 2.375224,-2.942316 0.325729,-3.07709 -0.11991,0.885024 -0.916743,2.787176 -0.325729,3.07709 z m -2.873754,-0.337867 c 0.643617,-0.695993 0.133185,-2.983846 -0.203858,-0.538508 -0.0234,0.127496 -0.417317,1.247048 0.203858,0.538508 z m 5.092341,-0.408108 c 1.67265,-0.853118 0.186421,-4.396425 -0.214358,-1.323332 0.0932,0.27756 -0.642006,1.973904 0.214358,1.323332 z m 2.024083,-0.60315 c 1.727943,-1.378177 -0.01873,-3.832416 -0.276538,-1.016772 0.04394,0.300101 -0.486756,1.669211 0.276538,1.016772 z m -5.221377,-0.774082 c 0.213295,-2.218416 -1.052014,2.258297 0,0 z m 7.183856,0.371834 c 1.285268,-0.886115 0.04348,-4.15118 -0.254563,-0.930381 0.09486,0.312549 -0.801986,1.490641 0.254563,0.930381 z m 1.89758,-1.065643 c 0.899343,-2.781343 -1.02877,-1.438631 -0.309694,0.53756 l 0.309682,-0.537571 z m 1.457238,0.261018 c 1.566776,-0.702416 2.202063,-3.646622 -0.104346,-2.101024 0.404322,0.421969 -0.811013,2.447914 0.104346,2.101024 z m 2.509047,-0.533037 c 0.967506,-0.626649 0.85415,-4.188272 1.852131,-1.642912 -1.322559,3.875206 3.216391,-2.259338 0.494811,-1.332722 -2.460278,-0.628354 -2.621417,1.999405 -2.652386,3.089719 l 0.305451,-0.114128 z m 4.403011,-0.884267 c 1.678574,-0.121089 1.644028,-4.074042 0.118153,-2.077206 0.246001,0.641746 -2.261836,2.839346 -0.118153,2.077206 z m 2.798348,-0.679895 c 1.748367,-0.808337 0.384841,-3.487293 -0.566276,-0.865422 -0.329238,0.783864 -0.62121,1.422061 0.566276,0.865422 z m 2.560873,-1.128602 c 0.90124,-3.005923 -2.103316,0.778809 -0.295275,0.832039 0.09843,-0.277347 0.196852,-0.554692 0.295275,-0.832039 z m 1.258067,0.564655 c 1.377407,-1.588344 -0.02569,-2.696495 -0.156727,-0.51106 -0.667624,0.202402 -0.06908,0.905521 0.156727,0.51106 z m 2.990195,-0.381034 c 1.424466,0.260122 1.61632,-3.026149 -0.0728,-2.004775 -1.307544,0.19847 -2.741556,3.365234 0.0728,2.004775 z m 42.039285,-0.520477 c 1.04698,-1.549963 -0.82625,-1.607143 -1.3765,-0.391339 -0.99355,-0.591053 0.52916,-5.982998 -1.47856,-2.582505 1.58786,1.25366 -0.94933,4.276421 2.42741,3.27602 0.29325,-0.03989 0.57711,0.158161 0.42765,-0.302176 z m -39.819373,0.07678 c 0.923522,-2.329136 -0.55132,-2.075035 -0.126015,0.156056 l 0.126038,-0.156033 z m 1.816915,-0.399931 c 0.455089,-4.636287 -1.611116,1.624356 0,0 z m 30.562783,0.114105 c 0.912636,-1.822451 1.098725,-3.902338 -1.673049,-3.072295 -2.093871,-1.028876 -1.927378,2.990405 -1.100057,3.045626 0.778095,-0.61877 1.000311,-4.489719 1.807808,-1.753604 -0.185935,1.198008 -1.023864,2.306649 0.965298,1.780273 z m -28.514396,-0.160057 c 0.04671,-1.246409 1.966225,-2.732588 1.611821,-0.517475 0.360281,1.364955 2.452378,-2.722396 -0.122685,-1.440918 -1.84863,-0.474184 -3.139972,0.662077 -2.230157,2.065382 0.247727,-0.03039 0.496222,-0.05525 0.741012,-0.106982 z m 6.361948,-0.563447 c 2.098376,-2.446655 -0.94876,-1.827371 -2.460014,-1.587257 -1.120462,2.314346 0.731106,1.703744 2.46,1.587243 z m 29.597813,-1.366664 c 1.25841,-1.247134 -1.85963,0.206795 0,0 z m 2.840367,-0.942401 c 2.42158,-1.689075 -1.811027,0.378976 0,0 z m -3.079127,-0.557399 c 0.75525,-0.18589 -0.56585,-3.307167 1.13737,-1.695003 0.688487,2.603529 0.46267,-0.789625 -0.17909,-1.190846 1.402587,-1.418615 -2.27501,0.87347 -1.56283,1.89082 0.2228,0.287425 -0.15407,1.454539 0.60454,0.995029 z m 5.555347,-0.852333 c 1.76458,-1.113939 0.18381,-4.535821 -0.61802,-2.002027 -0.32412,0.957164 2.22304,0.183438 0.44786,1.63924 -0.66169,0.316713 -0.63522,1.32894 0.17016,0.362787 z m -1.97037,-0.49352 c 1.48385,-1.804957 -1.902517,-1.934987 -0.91878,0.518696 0.3063,-0.172847 0.61264,-0.345653 0.91878,-0.518696 z m 4.5959,-1.595962 c 1.55072,-1.228847 -0.52207,-2.593046 -0.79185,-0.848567 0.10376,0.824971 -0.46002,2.153646 0.79185,0.848567 z m -2.59858,-1.846843 c 2.94681,-2.324413 -2.7802,0.788622 0,0 z m -2.59145,-0.185218 c -0.61869,0.317649 -0.35426,0.410256 0,0 z m 4.91745,-0.635075 c 2.36387,-0.742332 -1.37198,-2.080742 -0.49163,0.138712 l 0.49164,-0.138712 z m -2.32117,-1.317488 c 0.47728,-1.22706 2.90271,-0.559225 3.12579,-1.75159 -1.40339,-1.351551 -2.85371,1.205783 -3.72249,1.956288 l 0.59669,-0.204714 z M -92.473087,30.749351 c -0.622166,-2.277342 -1.129396,-5.059462 -1.629436,-6.962412 2.607449,0.0046 1.723491,4.866612 2.480555,6.757397 -0.111007,0.332325 -0.593144,0.420159 -0.851119,0.20513 z m 1.632025,-2.333978 c -0.600012,-1.807716 -0.09921,-4.141069 -0.837034,-6.040458 -2.205327,-0.6625 0.713933,-3.584094 0.915409,-0.708914 0.426704,2.121262 1.106341,4.666916 0.607853,6.704113 l -0.342201,0.201431 -0.343888,-0.156334 z m -13.769248,-6.369661 c -2.33604,-2.716256 4.713857,-2.444152 1.981,-0.918948 -1.81449,-0.945173 -0.17969,2.129935 -1.981,0.918948 z M 84.180633,11.964623 c -1.785294,-0.216925 -4.334021,-0.757456 -3.763435,-3.0888439 -1.582994,-1.926516 2.502939,-3.078716 2.096571,-1.159762 -2.661933,-0.350966 -0.104092,4.7225339 0.583051,2.3490099 -1.020856,-1.5574889 0.814986,-4.7826399 -1.589382,-5.0227369 -0.516371,-1.653972 3.146096,-4.8482728 2.027328,-1.61401 -1.253963,0.555379 1.483066,1.421691 0.331041,2.916669 -0.737572,2.108219 1.156731,4.2330429 1.036157,5.6641459 l -0.332443,0.0518 -0.388899,-0.09621 z M 63.356413,10.04227 c -2.303638,0.248978 -4.700277,-3.9666499 -1.344123,-4.9754899 0.278608,-0.380428 -1.082587,-2.07043 0.957095,-1.673606 0.187508,-2.5314538 1.69803,0.510583 0.443928,1.364107 2.024507,-0.300249 1.197331,4.033439 0.616319,5.5049209 l -0.336435,0.05735 -0.336886,-0.277747 z M 62.421906,8.6373691 c -1.065513,-2.440613 -1.719835,-0.825841 0,0 z m 1.024721,-1.016795 c 1.052837,-2.219017 -2.127412,-1.331914 -0.340538,0.0046 l 0.286374,0.427375 0.05416,-0.432624 z m 28.665348,0.768442 c 0.0079,-1.754317 -1.410572,-3.602712 -1.500283,-5.101275 0.96888,-0.128119 4.134061,0.197499 1.551101,-0.7578718 -2.283998,-0.933309 -1.063781,-3.735133 -0.549137,-5.03548 -2.309564,0.589258 -3.655081,-4.53313 -0.741455,-3.922271 1.232795,-3.244305 -3.369305,-2.632266 -2.179097,-5.7858883 1.001761,-1.763451 -3.82728,-3.484836 -0.684245,-5.338897 0.803854,-1.157239 0.592619,-3.740015 -0.684704,-1.904217 -2.520476,-0.491878 -2.814938,-3.739453 -0.600773,-4.680271 0.695598,-1.550705 -3.021277,-2.569802 -0.01711,-2.676178 2.397044,1.465189 0.327666,3.985413 -0.451497,5.135041 1.697338,2.919132 -0.310862,-2.242923 1.872032,-0.596229 1.137871,1.299204 2.000254,3.442522 0.927742,5.081815 -0.919736,1.013581 -1.606951,1.438805 -0.08894,1.197736 0.871936,1.086035 0.08658,2.408792 1.225031,2.899486 -1.156191,1.056503 0.01619,4.0478703 -0.07137,1.597289 1.736778,0.352376 2.379648,4.7488803 1.267829,6.0815813 -2.478399,-0.835046 0.0997,3.53842 -0.07319,0.564074 1.800184,-0.204899 -0.175761,2.491653 1.535394,2.560431 -1.321478,0.817146 -1.064302,4.929006 0.2631,3.534188 -0.630041,-0.812844 -0.898062,-2.253128 0.83055,-1.134207 -0.43927,2.7572128 1.90605,4.9421418 2.20361,7.5237798 -1.34061,0.578297 -3.0545,-1.147367 -3.774766,0.832779 l -0.260137,-0.07632 z m 2.512718,-2.335852 c -0.59667,-2.547966 -3.894359,-1.792429 -1.58429,0.251152 0.48227,-0.264218 2.68885,0.766083 1.58429,-0.251152 z m -21.332271,1.329163 c -0.943508,-1.330828 -0.80312,-5.2069388 1.725501,-3.189097 -1.884419,0.688586 -0.438168,1.861299 0.563144,0.949081 -1.001446,-1.427126 1.037369,-4.5063028 0.98483,-1.470811 0.13263,1.674184 1.244937,4.282671 -1.502693,2.78922 -1.068942,-0.449322 -0.863472,1.149609 -1.770782,0.921607 z m -8.42623,-4.455379 c -2.603184,-1.8407628 -0.812638,-5.7939538 -0.299839,-8.2782538 1.240172,-1.925474 2.198612,0.389956 0.629931,1.092766 2.963462,1.079166 -0.336787,4.54911 0.678702,6.765652 -0.13929,0.3762658 -0.644688,0.5683298 -1.008794,0.4198358 z m 0.07653,-1.4360058 c -0.401551,-1.015824 -0.112648,0.825748 -7.8e-5,-9.3e-5 z m -0.111196,-1.906327 c -0.238821,-1.496227 -0.344279,1.657002 0,0 z m 0.649803,-1.742638 c -0.0222,-3.101749 -1.644476,-0.170672 0,0 z m 8.964925,4.21556 c -2.560276,-1.128565 0.496827,-3.654584 0.155432,-4.340419 -2.318456,-1.595739 -1.20043,-4.474874 0.939206,-1.730311 2.324393,-0.805953 -2.112712,-3.830488 0.877795,-3.171059 1.49955,1.652839 0.428956,3.866976 -0.153605,5.586673 -0.209479,1.005139 0.151662,4.249185 -1.818828,3.655116 z m 0.482528,-1.875268 c 1.417989,-2.235576 -1.553275,0.250181 0,0 z m 7.335188,0.456491 c -2.382555,-0.984372 -1.074304,-3.952567 -1.095985,-5.028496 -0.329522,-2.237472 2.931283,0.238294 0.86282,1.467157 2.128198,-0.331053 2.356679,2.449009 0.920222,2.283054 0.830823,0.582598 0.366837,1.822632 -0.687057,1.278285 z m -16.217001,-7.333428 c -2.874537,-1.364827 -0.661836,-3.033531 1.182308,-3.6850223 0.8028,-1.760654 -2.269109,-3.331856 -0.21075,-5.299606 -1.403682,-2.438601 0.07861,-5.633684 3.098023,-5.071952 -2.181221,-0.09174 -3.666995,-4.564265 -0.872741,-6.11945 1.723839,0.561153 -2.227141,3.629316 0.263488,4.673398 -1.210277,-3.629663 4.211042,1.758163 0.708289,2.546386 -1.972865,-0.918772 -3.51225,2.584293 -2.129404,2.914514 -0.598292,-2.262886 1.879712,-1.996884 1.042433,0.176222 -0.378914,0.948388 -2.762169,2.933135 -1.106965,3.255447 -1.242282,-2.650508 2.570112,-0.071 0.562756,1.546804 0.105572,1.8800783 -1.688282,2.5891773 -0.841338,4.4608883 -0.13441,0.914577 -1.06777,0.752508 -1.696101,0.602418 z m 0.691727,-1.232846 c -1.314447,-1.91442 -1.159424,0.951075 0,0 z m 14.779917,0.968813 c -3.26667,-1.364805 1.490223,-4.8273943 -1.839764,-5.3456783 -0.689223,-1.556656 1.519705,-2.529997 1.325379,-3.778934 3.005647,-0.486393 -1.068689,2.737487 0.950857,3.23683 0.09223,1.505894 0.712002,2.360805 -0.611828,3.6003063 -0.449749,1.840486 2.398603,-0.221087 1.214477,2.154777 0.02858,0.12627 -1.069833,0.500431 -1.039121,0.132745 z m -6.766726,-1.186269 c -3.357822,-1.074796 1.756299,-6.9109563 1.717321,-3.3867353 -0.630698,0.791036 -2.778898,1.224932 -1.138175,2.4449383 -0.696371,-2.7878323 2.855215,0.578829 0.106473,1.050051 l -0.685621,-0.108231 z m 0.628812,-5.0837223 c -1.335955,-1.286563 -0.500419,-4.131471 1.269563,-3.207367 0.266607,-1.619929 -0.159433,-2.383595 -1.01608,-1.038279 -2.092392,-1.146619 -0.815777,-3.658663 -0.840876,-5.334894 1.709452,-3.93e-4 3.357649,-1.289956 0.8224,-1.870524 -2.374609,-0.883877 2.127305,-1.844537 2.236119,0.300156 1.921918,2.755629 -4.823865,1.734824 -1.205143,3.604511 0.03735,0.679734 -2.16649,1.516708 -0.760817,1.831124 2.265911,-1.839304 2.8933,4.662563 -0.114429,3.834779 -0.0574,0.665252 1.300741,2.646415 -0.39073,1.880494 z m 6.054872,-4.720522 c -2.385652,-1.594525 -2.079836,-5.696347 -0.630597,-6.248081 -1.57469,-1.644904 1.172992,-3.049631 1.001402,-0.366214 1.666844,2.831423 -0.500616,3.133853 -1.157228,2.811742 -0.671655,1.331746 3.078281,3.520944 0.786423,3.802553 z m -12.093343,-6.242438 c -0.722083,-1.437401 3.712076,-1.308004 1.021189,-2.381165 -2.700528,-2.684307 1.882726,-5.193632 -0.475857,-7.611713 0.339701,-1.464859 3.845164,-1.947487 1.716536,-4.0721 -0.723743,-2.321876 -0.787849,-6.478292 2.676532,-5.582678 0.06214,-0.68904 -2.855731,-5.07986 0.04521,-3.679112 -0.298665,1.772059 3.304784,5.21917 -0.617346,4.738029 0.870052,1.976938 -2.282494,1.811547 -1.347562,3.012569 2.381672,-0.09951 0.627531,3.232441 0.437106,4.533491 -1.030932,0.763478 -2.790299,1.301348 -0.616048,1.612215 2.863576,1.827687 -4.343091,3.934763 -0.724772,5.93622 2.408868,1.599756 -0.08881,3.931674 -2.115002,3.494244 z m 6.340193,-2.590819 c -1.548782,-0.866405 -2.419414,-5.983666 0.625648,-4.349033 3.053803,-1.240415 -4.116632,-3.317018 -1.176769,-5.536158 1.411649,-0.639234 -1.517578,-1.502975 0.708988,-1.741375 1.555248,1.080393 0.27472,3.825737 1.8815,5.271197 0.674972,-0.972265 4.288858,-0.831969 1.83278,-2.371965 -2.326226,-1.710294 -1.038437,-4.880797 1.051781,-5.902736 -0.213803,-0.992094 -2.494538,0.819179 -1.474933,-0.993627 2.904257,0.137833 0.009,-4.065048 2.625761,-4.620237 0.731562,1.042451 -1.28322,2.784675 1.123058,2.267816 2.487008,0.619438 0.6655,4.283324 -1.404575,2.557205 1.343663,2.007006 -4.534744,3.829111 -0.943364,4.661279 0.893971,1.760323 1.717585,5.030561 -1.528461,4.836797 0.785923,0.758888 3.729805,3.876158 1.37709,3.82713 -0.686184,-1.014062 -2.337156,-4.479724 -2.547481,-1.598348 -2.189427,0.02953 -2.815993,2.24845 -1.045925,3.266692 0.03097,0.593827 -0.726897,0.668381 -1.105098,0.425363 z m 0.366973,-8.369584 c -0.351744,-1.518886 -0.832592,0.921385 0,0 z m 6.952271,-8.077868 c -1.829952,-2.067863 -1.716321,0.814535 -5e-6,0.132236 z m 2.323279,14.76803 c -2.43426,0.136746 -1.073912,-2.122481 0.640387,-0.933975 -3.063089,-2.05362 2.699536,-1.355804 1.071993,0.955489 -0.529151,0.298938 -1.160731,0.0596 -1.71238,-0.02151 z m -1.810918,-1.802547 c -0.812025,-1.311943 -2.251313,-4.875466 0.595797,-4.695037 -2.019629,-0.796334 -2.643474,-3.895463 -0.981859,-5.399165 -1.047405,-2.169644 3.103803,0.204992 0.4969,1.305565 3.089542,0.325611 1.916578,5.294481 -0.108139,5.653447 -0.02151,1.925764 0.801026,1.410174 1.703922,2.160686 -0.06825,0.762301 -1.021751,1.267908 -1.706628,0.974504 z m 0.371871,-7.089551 c 1.553067,-0.302615 -2.034915,-1.489654 -0.61034,0.08055 l 0.610447,-0.08062 z m -7.75005,-1.165046 c -3.313195,-0.747628 0.166487,-5.753034 1.651201,-2.300404 0.0892,0.976026 -0.420295,2.47347 -1.651201,2.300404 z m 0.477827,-1.38285 c 0.22939,-2.130395 -1.78319,1.162643 8.6e-5,-5e-6 z m 0.458422,-8.770553 c -1.832771,-2.454242 5.430084,-1.388581 2.253216,-4.233641 -1.632591,-5.004193 -1.444334,5.006449 -3.804614,2.496632 -0.0083,-1.967301 -0.422605,-3.491319 -1.126124,-4.585941 0.06612,-2.896935 2.409342,-2.466018 1.808101,0.32085 -0.02266,1.403562 0.18249,3.58733 0.691188,1.075945 0.286117,-1.362092 2.423685,-6.442108 3.458716,-4.007019 -3.381164,2.124576 3.294692,6.188262 -0.229043,7.602162 -1.455377,0.04072 -1.880275,1.386515 -3.051447,1.331012 z m -0.192481,-10.36589 c -2.463069,-0.063 -3.159174,-3.392504 -1.51646,-4.51402 1.065166,1.141386 -0.772137,3.513576 1.912642,3.470709 1.313187,0.2126 0.748049,1.741525 -0.396182,1.043311 z m 2.342387,-1.056392 c -2.160431,-1.210244 1.804679,-0.534259 0.494753,-2.403123 0.734171,-1.577222 -0.119216,-4.743126 -1.97571,-3.912824 -0.317651,1.679064 -1.857372,4.538375 -2.594429,1.247987 -1.047835,-1.031596 -0.525187,-5.143855 0.468921,-2.260922 0.251124,1.960261 0.723475,2.05655 1.396661,0.239466 1.308823,-2.04446 4.141044,-0.65451 3.765843,1.288335 0.704148,1.734294 -0.451001,3.500218 -0.160936,5.491466 -0.369978,0.336329 -0.92204,0.393053 -1.395091,0.309615 z"
       id="path4496"
       inkscape:connector-curvature="0" />
  </g>
</svg>
