<?xml version="1.0" encoding="UTF-8" standalone="no"?>
<!-- Created with Inkscape (http://www.inkscape.org/) -->

<svg
   xmlns:dc="http://purl.org/dc/elements/1.1/"
   xmlns:cc="http://creativecommons.org/ns#"
   xmlns:rdf="http://www.w3.org/1999/02/22-rdf-syntax-ns#"
   xmlns:svg="http://www.w3.org/2000/svg"
   xmlns="http://www.w3.org/2000/svg"
   xmlns:sodipodi="http://sodipodi.sourceforge.net/DTD/sodipodi-0.dtd"
   xmlns:inkscape="http://www.inkscape.org/namespaces/inkscape"
   width="300mm"
   height="300mm"
   viewBox="0 0 299.99999 300.00001"
   version="1.1"
   id="svg4505"
   inkscape:version="0.92.1 r15371"
   sodipodi:docname="old_swing.svg">
  <defs
     id="defs4499" />
  <sodipodi:namedview
     id="base"
     pagecolor="#ffffff"
     bordercolor="#666666"
     borderopacity="1.0"
     inkscape:pageopacity="0.0"
     inkscape:pageshadow="2"
     inkscape:zoom="0.35"
     inkscape:cx="-223.85874"
     inkscape:cy="-30.689543"
     inkscape:document-units="mm"
     inkscape:current-layer="layer1"
     showgrid="false"
     inkscape:window-width="2560"
     inkscape:window-height="1365"
     inkscape:window-x="-9"
     inkscape:window-y="-9"
     inkscape:window-maximized="1" />
  <metadata
     id="metadata4502">
    <rdf:RDF>
      <cc:Work
         rdf:about="">
        <dc:format>image/svg+xml</dc:format>
        <dc:type
           rdf:resource="http://purl.org/dc/dcmitype/StillImage" />
        <dc:title></dc:title>
      </cc:Work>
    </rdf:RDF>
  </metadata>
  <g
     inkscape:label="Layer 1"
     inkscape:groupmode="layer"
     id="layer1"
     transform="translate(131.84287,-33.68105)">
    <path
       style="fill:#000000;stroke-width:0.08285514"
       d="m -80.900387,284.54415 c -0.0674,-1.76776 -1.88599,-2.89143 -1.85858,-0.70824 -2.48442,-0.35181 -0.47049,-2.17521 0.21365,-3.40098 1.16582,1.30098 4.72483,3.93665 4.11031,-0.0567 1.67786,-0.42764 5.011247,2.90049 2.53858,-0.67293 -2.51076,-3.70552 2.623954,-0.36004 2.1919,-0.52294 -1.11046,-1.18457 -3.5261,-5.8244 -0.33304,-3.22515 3.71084,2.81819 -1.439,-1.70833 -2.66113,-1.9347 1.60794,-1.37549 4.619039,1.13394 5.840664,1.09548 0.176197,-3.07388 3.053164,-1.56181 5.049274,-1.59509 0.114448,-2.60595 4.70715,2.75361 1.489056,-0.6714 -3.686091,-1.32066 -0.4763,-1.50107 1.244057,-0.57964 1.675033,0.61306 2.305671,1.91227 1.931125,-0.42311 2.230312,0.42116 3.117593,-0.9257 5.221216,0.67925 -0.936987,-3.99008 4.704625,3.13949 2.680486,-1.50954 1.948749,-0.21124 2.972461,2.68674 2.569128,-0.52027 1.585876,-0.10385 5.037556,3.51223 3.162804,-0.11283 -0.02983,-3.59791 7.03143,4.10658 3.686797,-0.72415 -0.705074,-4.73706 5.57885,4.55056 5.741114,0.18151 1.404564,-0.0994 2.807546,2.67944 2.539784,0.003 1.590959,0.28398 1.483987,-2.57744 3.746359,-1.1366 2.137487,-1.4337 7.851284,6.4212 2.595015,3.41006 -1.737851,-2.18703 -0.307829,2.83078 -2.724907,0.88128 0.0052,4.30611 -7.555611,-5.53176 -5.044644,0.69493 1.024356,6.32631 -5.692551,-1.02949 -6.769082,0.006 2.422154,2.97056 -0.653556,4.75659 -2.687733,2.01949 -1.639994,-1.14977 -2.22111,-1.88855 -1.160055,0.29435 -1.878011,2.96888 -7.805378,-4.83278 -5.22424,0.47823 1.400631,4.48698 -3.625285,-2.35654 -5.142886,-1.96874 -1.332327,-0.71091 2.077143,4.24639 -1.097463,2.17642 -1.519589,-0.8992 -2.961967,-3.76645 -3.381079,-1.15166 -1.982303,-0.65939 -1.70782,-1.59919 -1.040791,0.46909 -2.296276,-0.84505 -0.514351,-0.0977 -0.656004,1.46178 -1.600562,-0.212 -5.390261,-3.9892 -2.820125,0.18799 0.03635,3.2714 -7.69327,-4.84994 -4.032297,0.21284 1.700012,4.04036 -4.549903,-2.48615 -1.657151,1.33457 2.191461,3.40671 -2.063082,1.00131 -2.108722,0.59771 2.314491,3.03513 -1.06431,3.27615 -2.8966,1.43914 0.29819,3.86282 -2.41528,1.17492 -3.25479,3.29095 z m 12.138592,-7.87637 c -2.190209,-2.14769 1.096805,1.58432 0,0 z m 25.034641,-0.58268 c -1.332262,-1.42246 -0.981966,-4.15757 -3.95e-4,-3.98668 -1.356601,-0.80307 -3.861635,-3.00682 -2.149662,-0.008 -0.03815,3.26291 -5.314786,-2.29915 -3.505501,1.12453 1.988545,-0.3192 3.843688,2.89465 5.655558,2.8696 z m -5.24335,-0.41126 c -0.636895,-2.20779 -3.844231,-2.12706 -0.754626,-0.27747 l 0.574591,0.29409 0.180138,-0.0168 z m -10.053694,-0.27526 c -0.966106,-2.50222 -1.022142,0.69628 0,0 z m 21.365173,-0.0694 c 0.566421,-3.77365 -3.257782,-3.68866 -5.126524,-5.73277 2.063932,1.2954 0.0384,3.01001 0.376443,3.18452 1.521627,0.65066 3.026213,3.02486 4.750081,2.54825 z m -28.716495,-0.3627 c -1.475772,-2.09965 0.546692,1.30529 0,0 z m 10.849418,-0.75041 c -1.667193,-1.66581 -3.44631,-1.99654 -0.847676,0.0718 0.134198,0.0451 1.519857,0.58495 0.847676,-0.0718 z m 0.84303,-0.68024 c -0.324273,-0.0939 0.267571,0.71719 0,0 z m 21.541173,-1.0187 c -1.446347,-2.54837 -1.881002,0.008 0.23829,0.61041 l -0.238325,-0.61041 z m -18.418369,0.2812 c -0.808276,-1.26623 -0.329053,0.35656 0,0 z m 20.623706,-0.6488 c 0.559811,-1.64825 -3.845575,-4.42107 -2.261332,-1.6445 0.242561,0.63362 1.749427,2.08978 2.261332,1.6445 z m 127.105554,11.53738 c -2.77246,-1.96786 0.93253,-5.14234 3.361277,-3.30369 1.336861,0.6239 1.440501,-3.90315 2.116991,-1.36678 1.05338,4.47393 -7.618259,0.12723 -3.982017,3.28122 2.630267,0.69757 4.804177,-1.06246 5.720377,-2.91696 2.09066,2.12875 2.94006,-0.99225 1.56058,-3.00259 1.32355,-0.86028 2.77018,2.89063 1.43306,-0.61576 1.93068,-0.42152 1.79682,4.67244 3.36688,1.51744 2.06932,0.57281 2.82615,2.56208 2.35228,-0.82519 1.78816,-0.34918 2.78893,3.97179 2.61479,0.22083 1.74358,-0.37175 3.54257,2.87925 2.4536,-0.49723 1.99751,0.003 4.6698,4.98327 5.29979,0.23756 1.77165,0.63796 4.31901,1.75349 4.69023,-0.84502 2.17752,0.24632 2.09573,1.76483 3.31111,0.0288 2.76931,1.03266 5.49182,2.21409 6.42831,-1.65574 3.5223,-0.19637 7.71297,0.67821 10.99039,0.96483 -1.50932,0.9368 -3.87358,0.48842 -5.71754,0.33592 -2.62043,-0.71969 -5.6108,-1.34767 -6.41244,2.24841 -2.54326,0.87523 -5.8099,-2.76317 -5.29689,1.3888 -1.92013,-0.73451 -2.48057,-2.85709 -4.48653,-0.49669 -2.19121,-0.3147 -3.15123,-1.69496 -4.10053,1.18945 -2.27116,0.5316 -3.00179,-2.80453 -3.65168,-0.16147 -1.62631,-0.74172 -3.58047,-3.13893 -2.37177,0.25311 -1.61026,1.44168 -3.03011,-3.58066 -3.03002,0.21922 -1.55391,-0.70085 -4.07267,-2.99287 -2.92488,0.63288 0.95015,5.5161 -2.82603,-1.52899 -3.21669,-1.84034 1.34982,2.55683 -1.63836,1.10916 -0.53057,3.41269 -1.91974,-0.50891 -2.58514,-2.42969 -3.88604,0.29397 -1.92689,1.04323 -4.382061,0.91575 -6.092068,1.30225 z m -84.694558,-6.48496 c -3.7667957,0.98189 -6.1327497,-1.57809 -5.2207427,-5.7696 -0.383003,-5.39858 0.112884,-10.82425 0.304672,-16.18957 0.970368,-10.62602 -0.800739,-21.42155 0.932932,-32.00295 0.630197,-7.0519 1.115314,-14.14943 1.11373,-21.22634 -0.602461,-6.87218 0.291961,-13.79431 0.07618,-20.68724 1.272116,-5.03892 -4.615227,-2.87161 -5.771602,-7.09765 -2.17954299,-3.57279 -4.778019,-6.87847 -6.513549,-10.57015 -1.239935,-2.92185 -4.529413,-6.36891 -4.599153,-8.88838 0.500338,-0.29955 -3.6465063,-5.02616 -4.2779233,-6.97914 -1.491949,-2.4219 -2.713754,-4.18343 -3.19249,-6.41739 -2.141233,-3.12093 -4.698445,-6.09767 -5.891343,-9.68785 -2.512114,-4.51247 -5.540196,-8.68051 -8.468506,-12.85535 -1.116667,-1.62973 -4.362951,-4.28422 -3.538228,-6.08078 2.906626,2.51506 -1.937062,-3.11088 -2.385052,-4.52616 -0.916051,-3.92044 -3.187719,-4.82707 -6.556529,-4.10194 -0.641923,2.49807 1.926636,3.43069 -0.620276,5.81799 -2.428437,1.46191 -1.917543,-4.08495 -0.711946,-5.31299 1.788774,0.41691 -3.453523,-1.13497 -4.706836,-0.5139 -4.300387,-0.16316 -8.630435,-0.15325 -12.907002,-0.53045 -2.023723,-0.0928 -5.674597,-3.01722 -1.309602,-2.08216 3.845046,0.30852 7.68329,-0.48602 11.554384,-0.0661 4.184423,0.12817 8.367524,0.53909 12.555071,0.26261 -2.143355,-3.994273 3.096851,-2.403569 4.413631,-4.191708 3.850964,-1.682111 7.704334,-3.113727 11.534462,-4.631072 3.726207,-2.83135 7.785672,-3.330809 11.716151,-5.551088 3.5687663,-1.105275 5.9892573,-3.229582 9.2242713,-4.604858 2.76077101,-1.871818 6.272944,-3.03766 9.917485,-4.244797 3.9675247,-1.396795 8.2200057,-3.182784 11.8919577,0.05276 3.925129,1.55541 7.577534,3.545913 11.461113,5.419189 3.512522,1.747519 6.900161,3.088387 10.153617,5.402256 3.349198,2.181493 6.969321,3.842375 10.559417,5.539615 3.977302,2.178235 7.874868,4.887735 12.33176,5.654173 2.217527,1.27504 5.453674,2.36203 2.859578,5.66258 0.378399,-0.16129 4.006948,-2.02925 6.041105,-0.93471 6.666566,1.22869 13.497803,0.68192 20.139172,1.97876 0.562384,2.04247 -4.625991,-0.31732 -6.041582,1.4893 -5.477875,0.22682 -10.981885,0.49554 -16.442229,-0.21355 -0.142902,1.58762 1.266507,5.56 -0.720393,5.66524 -0.913838,-1.81015 1.647659,-6.27504 -1.563749,-5.87765 -4.280712,-1.38167 -5.219837,5.35337 -7.601569,7.95007 -3.790003,5.90324 -8.289276,11.24946 -11.971205,17.22731 -2.818853,3.50219 -4.846579,7.66579 -7.057622,11.58793 -2.634954,3.15814 -4.176925,6.96852 -6.858548,10.01876 -1.946644,4.50099 -5.595864,7.63071 -8.234403,11.59711 -1.37358,2.54442 -5.542371,4.90376 -4.925465,7.92092 -1.013522,4.00788 -8.465226,-0.80306 -7.508149,4.15482 0.135073,9.30185 -0.109004,18.61915 0.199577,27.91129 -0.43134,3.65584 -1.143764,7.55912 -0.826251,11.57976 -0.700987,7.36229 0.635584,14.86313 -0.791424,22.1402 -0.15707,10.57793 -1.244334,21.13546 -0.723379,31.71557 -0.603669,1.39658 0.750536,5.40448 -1.043522,5.08719 z m -1.5271257,-3.05641 c 0.04579,-1.82107 -0.429572,-7.69036 -0.577377,-2.82752 1.3991787,2.93206 -1.863294,4.82761 -1.780014,1.335 -0.06914,-2.06578 -0.81117,-9.03586 -0.551042,-3.57755 0.499137,2.61924 -1.147023,7.59811 2.845918,7.25254 0.2616437,-0.42127 6.04e-4,-1.53848 0.06252,-2.18247 z m 1.1863767,1.91513 c 0.01873,-0.55951 -0.373149,0.34868 0,0 z m 0.245412,-1.91627 c -0.158852,-2.83534 -0.283725,2.81641 0,0 z m -0.578162,-1.76546 c 0.687354,-2.09269 -1.3203247,-5.55009 -0.494135,-1.37036 0.08163,0.76049 0.257921,3.97459 0.494135,1.37036 z m -2.7532747,-3.29237 c -0.873277,-5.71383 -0.07556,2.95129 0,0 z m 3.3603377,-3.25818 c 0.343152,-4.28261 0.198652,-8.17191 -0.366329,-12.15486 0.0488,-1.70192 0.09593,-6.73287 -0.199592,-2.35569 -0.426185,5.35624 -0.664493,10.76615 -0.468446,16.13179 1.439788,3.49803 0.751486,0.22747 1.034367,-1.62124 z m -2.1492747,-1.55543 c -0.166693,-1.88652 0.380311,-6.21497 -0.303785,-6.84859 -0.287427,2.89071 -0.325587,7.59373 -0.01562,9.62501 0.179563,-0.91358 0.357161,-1.83616 0.319403,-2.77642 z m -1.586028,0.69245 c 1.005967,-1.85939 -0.01091,-6.14007 -0.247493,-7.73504 -0.139995,1.40323 -0.587555,9.24134 0.247493,7.73504 z m 2.077093,-9.98561 c -0.08364,-5.32711 -0.795175,-10.61441 -1.353638,-15.89592 -0.604055,4.27455 0.381175,8.56717 0.751618,12.79462 -1.702293,1.43178 -0.676618,-7.31527 -1.399154,-5.57993 0.104946,3.23679 -0.566104,8.30661 0.401591,10.47244 0.673015,-4.48902 2.1905857,3.79131 1.599566,-1.79112 z m 2.2293187,-5.26724 c 0.05019,-2.2054 0.03965,-3.28613 -0.09374,-0.45513 -0.11128,1.91358 0.08583,4.50387 0.0852,0.98509 l 0.0078,-0.52996 z m -1.705741,1.10329 c -0.113657,0.23909 0.110331,1.13938 0,0 z m 0.101324,-2.36136 c -0.243749,-0.30642 -0.04683,0.42595 0,0 z m 1.805824,-3.06253 c -0.08893,-1.08184 -0.151086,3.47892 0,0 z m -1.509011,0.23167 c -0.208862,-3.05551 -0.12627,3.56818 0,0 z m 0.895447,0.52444 c 0.44978,-3.72423 0.876175,-6.68542 -0.04394,-10.26142 -0.120198,-1.53367 -0.07804,-7.99599 -0.681498,-3.13661 -0.471914,4.58808 -0.544361,9.42065 0.654464,13.83048 l 0.07107,-0.43245 z m 0.689221,-1.72284 c -0.153237,0.038 0.114762,0.37879 0,0 z m -4.3516187,-7.62186 c 0.343438,-2.35356 0.580097,-4.51281 0.475146,-6.96051 -0.338173,-2.3167 -0.535771,-4.68393 -0.64612,-0.93853 -0.154441,3.19516 -0.343196,8.40784 -0.09417,10.66116 0.05878,-0.92274 0.01596,-1.86738 0.265144,-2.76212 z m 4.4562457,-0.0958 c -0.34086,-1.65614 0.0071,1.65368 0,0 z m 1.06718,-2.98121 c -0.02642,-5.10549 -0.309087,6.85214 0,0 z m -4.0860807,-0.5516 c -0.581578,-3.83586 -0.184258,3.57309 0,0 z m 0.8191537,-0.9174 c -0.05105,-5.15714 -0.1769017,5.63316 0,0 z m 2.200452,-2.67877 c 0.983048,-3.35456 -0.784932,-8.624 0.764334,-10.61854 0.0455,-1.62905 0.241314,-8.49884 -0.195015,-7.07588 0.372305,2.44783 0.213788,8.30832 -1.417147,4.59615 -0.09408,3.42492 0.275428,6.80162 0.38724,10.17469 -0.16363,1.76985 0.174105,8.4313 0.460571,2.92359 z m -2.9462017,-0.07 c -0.339647,-3.36415 -0.16922,2.51493 0,0 z m -0.06365,-2.26696 c -0.172278,-2.15692 -8.46e-4,2.35511 0,0 z m 0.363044,-1.96049 c -0.131868,0.11096 0.118034,0.56942 0,0 z m -0.07948,-0.60488 c -0.131868,0.11096 0.118034,0.56942 0,0 z m -0.07947,-0.60488 c -0.131865,0.11096 0.118022,0.56943 0,0 z m 1.1255997,-2.15699 c 0.138768,-2.94914 -0.343429,-9.97096 -0.50648,-10.41877 -0.7431867,4.09597 0.310986,8.23165 0.362533,12.34973 0.107119,-0.63721 0.100883,-1.28757 0.143947,-1.93096 z m -1.3647157,0.73496 c -0.153238,0.038 0.114763,0.37879 0,0 z m 0.546698,-1.388 c -0.310329,-5.32056 0.01125,4.48798 0,0 z m -1.088098,-1.56983 c -0.24817,-2.19697 -0.144474,5.98467 -0.02176,0.89712 z m 0.594057,-5.86159 c 0.130543,-2.98948 1.1902067,-6.40641 0.06959,-8.23698 0.02332,2.58246 -0.59548,6.96042 -0.06959,8.23698 z m 2.7815217,-7.07414 c -0.191595,-1.92872 0.657672,-7.80509 -0.361685,-7.27523 0.04717,4.1756 -0.306495,8.3325 0.04943,12.53253 0.242942,5.15004 0.296966,-3.24302 0.312252,-5.2573 z m -0.903549,2.62391 c -0.142636,-0.95461 -0.251194,0.57498 0,0 z m 2.069764,-2.94748 c -0.323562,1.88667 0.136733,2.89543 0,0 z m -3.7602627,-1.84838 c -0.121597,0.16859 0.119405,0.8621 0,0 z m 1.5102837,-0.56167 c -0.116996,0.20805 0.115682,1.05458 0,0 z m -1.4211577,-4.67574 c 0.03514,-3.48623 -0.07246,-6.94184 1.0448557,-9.89863 -1.2281577,-2.28702 -0.8749017,-5.39901 -0.365328,-8.12812 0.670006,-1.79877 -0.6901537,-2.94703 -0.8383937,-4.36626 -1.164104,0.89418 0.8455297,5.30515 0.07379,7.85708 -0.02536,6.23538 -0.664197,12.50213 0.05884,18.71454 0.07612,-1.39145 0.05606,-2.78681 0.02623,-4.17861 z m 3.8258397,0.93843 c 0.146392,-4.44485 0.63673,-9.22493 0.181315,-13.4643 -0.248703,3.30853 0.231337,6.66728 -0.596706,9.91668 0.408111,0.61964 0.01507,6.4409 0.415391,3.54762 z m -2.699913,-5.35756 c -0.01397,-4.78903 -0.308651,3.96929 0.01479,0.68977 z m 1.559742,0.38802 c -0.376926,-1.6875 -0.37917,-4.11165 -0.290797,-0.81505 -0.129472,0.97673 0.382845,2.56054 0.290797,0.81505 z m 0.108548,-8.1702 c -0.235375,-2.91017 -0.0434,3.04433 0,0 z m -0.7463,0.12743 c -1.135232,-0.79122 0.365298,1.33488 0,0 z m -0.227418,-1.9947 c -0.310039,-2.16369 0.03928,2.62132 0,0 z m 0.886656,-2.15731 c -0.846163,-0.84492 0.03998,2.45969 0,0 z m -0.231512,-2.03309 c -0.377882,-2.46616 1.548488,-2.8855 1.725712,-3.29172 -0.04802,-1.76211 -4.1181837,-1.21588 -2.414865,1.19975 -0.08566,0.35715 0.229596,4.88914 0.689153,2.09197 z m -4.5369087,-3.95288 c -0.457248,-1.31611 -2.273309,-0.0657 0,0 z m -1.769871,-1.2809 c -0.389077,-0.002 0.217486,0.44707 0,0 z m 2.113372,-0.41855 c 3.3255807,-1.35313 7.0962057,0.91595 10.1586817,-0.79175 -1.603548,-1.1281 -2.542202,-1.11323 -3.8629,-0.67021 -2.723096,1.29657 -4.5122347,-1.97417 -6.9933977,0.38563 -2.539698,-0.82794 -0.33946,-4.71372 -2.595802,-5.13962 -4.66052299,0.91819 -0.794477,-5.28692 -1.956882,-6.06683 -2.65449999,-2.5147 -4.528981,-5.66114 -6.58359,-8.73082 -1.692136,-2.25825 -4.073981,-5.58583 -5.050186,-8.82619 -1.7789513,-6.38968 6.359596,-2.23717 8.32081501,0.1611 5.36009299,3.79186 11.94221869,4.38246 18.13330669,5.21034 2.079183,0.24877 4.792318,-0.47113 7.057481,-1.05088 2.619959,-0.45139 7.428866,-6.06211 8.528627,-1.12634 -0.926895,4.54715 -4.221205,8.23328 -7.170501,11.46223 -3.824284,0.65791 -1.852241,7.78352 -2.527762,8.41044 1.050215,-2.55402 2.569797,-3.48032 3.903266,-4.59647 3.555962,-6.09494 8.417057,-11.12194 11.870977,-17.30762 3.031447,-4.72763 6.103598,-9.42355 8.648868,-14.48605 3.016246,-4.05808 5.718433,-8.36449 8.629403,-12.50822 2.912828,-2.90754 4.243389,-7.21634 6.709901,-10.55154 0.976694,-1.65823 4.586018,-6.18237 1.4378,-5.72593 2.240589,3.83439 -3.319317,2.41063 -1.790832,-0.5534 -1.736617,-1.40247 -3.568719,-2.44472 -5.760132,-2.03895 -2.219124,0.29148 -5.000602,-0.56869 -6.9381,0.23104 -1.142798,0.24857 -3.734042,-0.58292 -5.5205,-0.19352 -1.327635,0.38154 -1.919989,0.26184 -3.487912,-0.24656 -2.625247,0.6818 -6.267237,-0.41552 -9.184553,0.22487 -2.147394,-0.29707 -3.899746,-0.17663 -6.156962,-0.53909 -1.008029,2.14001 -2.347043,-1.254134 -4.622566,-0.0531 -4.191031,-0.14482 -8.416645,0.22736 -12.4863697,-0.20231 -2.026217,0.63499 -6.505582,-1.268182 -5.121919,2.33708 -1.734991,2.77924 -2.61691999,-1.12314 -1.900859,-2.04656 -1.55564799,0.20438 -4.283654,-1.238428 -2.710413,1.46804 -2.022265,4.26338 -2.913506,-1.13472 -2.473035,-1.74833 -6.6102903,-0.372527 -13.2307983,-0.598882 -19.8266493,-1.106717 -1.747262,0.421133 -6.987176,-0.207436 -6.959252,0.528362 0.09886,1.267335 -3.197191,-0.03401 -1.14316,2.241685 2.106469,-1.09811 1.482821,2.58537 -0.777969,0.57473 -1.56984,-1.85385 0.916468,-4.226362 -1.904977,-2.890231 -1.870832,-1.14522 -5.112537,0.822571 -2.757701,1.964061 3.292717,-1.2569 2.249625,1.38136 -0.07305,1.0966 1.363999,1.85993 2.927682,6.21152 5.35313,8.80257 2.010539,3.33521 1.756986,6.09645 4.735453,9.25152 2.38243,4.58483 5.695616,8.49921 8.192294,12.99708 0.996909,3.99635 4.415158,6.79765 5.97581,10.4751 2.143968,4.2697 4.8508803,8.32669 6.9076923,12.71448 3.465034,6.36808 7.327203,12.54275 11.917897,18.01916 -0.367534,1.49821 1.164433,0.55327 1.85652,0.6412 z M 34.725923,140.1067 c -1.119646,-1.95402 -1.249653,-3.15434 -1.347276,-0.25518 -3.646153,2.10561 -6.158685,-1.38741 -6.257646,-4.55185 -3.881228,-1.39027 -0.420182,-7.22924 2.406004,-5.2231 0.263183,-1.7974 3.577556,-4.90072 5.657241,-1.76097 0.115945,3.22971 2.560176,2.92257 5.217846,4.45416 1.753009,2.51039 -3.166628,4.01497 -3.414493,4.50689 0.773926,1.87026 -1.919922,1.47235 -1.887056,3.10861 l -0.374655,-0.27837 z M 32.682994,138.91 c -0.297426,-2.80773 -2.406547,-0.95985 -2.511874,0.22639 0.568436,-0.19983 2.44966,0.689 2.511874,-0.22639 z m 3.107356,-0.84073 c 1.244702,-0.54652 -3.477805,-2.60678 -1.079469,0.15137 0.149835,0.9031 0.642714,-0.82883 1.079469,-0.15137 z m -6.047192,-0.0187 c 0.598372,-2.71607 -1.008252,-0.47931 0,0 z m -0.824091,-1.88735 c -0.384694,-1.59793 -0.824143,3.72728 0,0 z m 2.013186,-0.27728 c 2.030879,-2.35356 -0.935479,-2.34641 -2.488201,-3.24371 -0.09571,3.00888 0.65916,1.34637 2.198598,1.76701 -0.229231,0.51503 -1.172506,2.51008 0.289603,1.4767 z m 6.799031,-0.0189 c 4.085981,-0.5655 0.133337,-4.82317 -0.485268,-3.05 1.801679,3.47166 -4.729287,0.41889 -0.614992,3.07719 l 0.419806,0.0885 0.680454,-0.11563 z m -3.87115,-0.76389 c -2.073955,-0.85893 1.899021,-1.02477 -0.426025,-2.97506 -0.159398,-1.39742 -1.65184,4.6123 0.426025,2.97506 z m -6.561517,-1.04975 c -0.613941,-2.11295 -1.727558,-2.52308 -0.517808,-0.0561 0.105125,0.12574 1.255362,0.87748 0.517808,0.0561 z m 9.054344,-0.18981 c -1.009288,-2.26469 -2.306472,-0.33959 0,0 z m -4.936542,-1.3549 c -0.583403,-1.6259 0.311596,1.77914 0,0 z m 3.302416,-1.14072 c -0.147374,-1.94874 -1.03418,-0.28574 0,0 z m -3.768107,-0.33343 c -0.58866,-0.31143 -0.142867,0.20079 0,0 z m 1.350558,-1.18278 c 0.679661,-1.01302 3.709228,-0.70128 0.702176,-1.79384 -2.159413,-0.14539 -2.67311,2.17662 -0.702176,1.79384 z m -38.6797537,8.34144 c -2.765727,-1.17106 0.854535,-6.98692 -3.109522,-5.71277 -0.9286083,-1.25115 -0.174362,-3.42736 2.006251,-3.96422 0.70726,-1.07614 4.246715,1.26136 1.748643,-1.58711 -0.768612,-2.4935 3.584848,-2.21345 4.099292,-0.62688 1.87132501,-0.25112 3.755543,-0.15867 5.421909,1.66741 -1.005553,2.98652 -6.417057,2.39162 -3.03602999,6.02088 1.04660399,2.73762 0.39944399,4.23147 -2.13806301,3.87279 -1.625847,-5.06134 -2.357088,1.95883 -4.99248,0.3299 z m 0.847296,-0.80352 c 0.419802,-1.87425 3.088763,-2.7693 -0.142197,-3.10172 0.860732,0.15343 -1.362649,2.94608 0.142197,3.10172 z m 4.61267001,-1.48211 c 1.499666,-0.75695 -1.73397901,-6.64347 -0.92750301,-2.3001 0.111215,0.4187 0.07879,2.96068 0.92750301,2.3001 z m -1.87166001,-2.73273 c -1.818779,-2.19707 -2.713017,-1.34627 -1.067274,0.92662 1.11364,-0.33802 0.939684,1.5056 1.067274,-0.92662 z m -2.624118,-0.16073 c -0.865645,-0.95739 0.433407,1.24755 0,0 z m 2.415347,-1.43468 c -1.039133,-3.71293 -3.399069,-1.24783 -5.730046,-1.28356 2.160458,1.99201 3.656294,-0.54567 5.730046,1.28356 z m 0.831075,-0.44758 c -0.264071,-0.22382 0.251613,0.47192 0,0 z m 1.49958401,-0.0112 c -0.310325,-0.28153 -0.318515,0.15305 0,0 z m -1.88998001,-1.7591 c -0.152363,-1.30242 -1.456552,-4.49065 -1.972209,-2.35418 0.269488,0.47158 2.403367,3.24973 1.972209,2.35418 z m 4.467496,-0.77948 c -0.385353,-1.84815 -2.05750199,0.72633 -0.311367,0.47205 l 0.271636,-0.25981 0.03975,-0.21233 z m -3.024577,-0.0168 c -0.750351,-2.77302 -1.488808,0.82258 0,0 z m 14.7471117,4.57554 c -3.42226,-0.0113 -2.95319,-3.96385 -1.409942,-6.00074 2.113844,-1.92199 0.427719,-4.16447 1.549145,-5.85542 -0.214971,-1.41171 0.996465,-6.06604 1.959814,-1.78002 -0.55244,2.87788 0.267822,6.76393 0.327099,8.51758 2.424939,2.76794 0.27864,5.13446 -2.426116,5.1186 z m -0.119214,-1.38106 c -0.739982,-0.22764 0.355222,0.30849 0,0 z m -0.916486,-1.53382 c -1.002309,-0.53252 -0.240497,1.33572 0,0 z m 1.185414,0.0988 c -0.816726,-0.48517 0.445975,0.61842 0,0 z m 1.041909,-0.29888 c -0.225871,-2.30822 -1.418793,-0.8987 -0.032,0.2942 l 0.03197,-0.29429 z m 18.92373,-4.76427 c -1.483927,-3.09023 2.144337,-0.44517 0,0 z m -3.710066,-0.73223 c -3.067701,-0.55526 -1.675136,-2.10055 0.560932,-0.90836 1.864638,-1.52379 0.943455,1.75029 -0.560932,0.90836 z m -31.5973267,-0.50822 c -2.423885,-0.17476 -2.423451,-3.73371 -0.356682,-1.17095 1.65181101,-0.13584 3.71338,0.67931 0.96650501,1.28298 l -0.60973701,-0.1119 z m 36.9367877,-0.0601 c -0.360477,-2.20484 -4.580713,-0.25387 -1.295618,-2.36252 0.490039,-1.44621 0.413665,-2.9008 1.653656,-0.87338 1.937129,0.75071 0.715811,2.88069 -0.350665,0.87986 -1.507331,0.619 2.494107,1.89235 -0.0074,2.35604 z M 1.8465043,121.83714 c 0.04849,-1.95997 5.46551,-3.90377 1.969436,-0.85524 -0.581537,0.26473 -1.326565,1.30322 -1.969436,0.85524 z m 26.1222407,-0.18431 c -2.710834,-0.50756 -0.273327,-5.6319 0.122276,-1.90777 2.199819,-0.39648 1.364363,1.9071 -0.122276,1.90777 z m -28.09608269,-0.21975 c -2.51746101,-0.743 0.05885,-2.89208 1.53746399,-1.48045 2.165112,-2.15325 -0.50343699,-1.6804 -1.33874899,-1.50116 3.08475699,-4.83397 4.38075299,3.97535 -0.198715,2.98173 z M 25.100075,120.52679 c -1.896485,-1.64083 0.467093,-6.78182 0.190773,-2.21134 -0.09138,0.63175 1.050031,2.45084 -0.190773,2.21134 z m -29.2272227,-0.6799 c -2.881909,-0.33356 -1.903943,-9.03197 -1.132011,-3.72722 -0.79573,1.34932 3.475407,3.94555 1.132011,3.72722 z m 8.284563,-1.11386 c 0.08017,-3.23053 -1.149885,-6.93779 -4.40219599,-7.52148 -2.29238901,-1.86672 4.21015999,-0.28644 3.92354999,1.88936 0.950268,0.62973 2.116492,5.81411 0.478646,5.63212 z m 31.2465477,-0.53115 c 0.531878,-1.69504 -2.459076,-6.99558 0.345784,-3.53088 0.42947,0.72787 1.176808,4.15693 -0.345784,3.53088 z m 8.281156,-2.14763 c -1.377602,-3.28389 -3.911794,-4.37019 -5.862489,-6.84341 -0.859961,2.56251 -1.646181,-1.91547 -2.801975,-0.25338 -0.484962,-2.42669 -2.715405,0.0797 -2.670513,-1.49797 -1.536117,1.71586 -1.532049,-1.57929 -3.05326,0.38975 -0.87285,-0.78506 -3.091167,0.70901 -2.903465,-1.92065 1.787375,-0.24963 2.784931,0.6701 4.179495,-0.0131 1.353387,0.36488 0.896851,1.17599 2.643156,0.21696 1.539871,1.08403 3.227159,0.74697 3.805196,2.19494 1.398729,-1.21505 2.302903,2.38568 3.6614,1.77952 1.361993,1.14458 3.816019,4.71664 3.415635,6.25598 l -0.413266,-0.30763 z m -59.642042,-0.21364 c 0.720626,-1.63149 0.984778,-4.34391 1.970885,-3.89615 0.01531,-2.34601 0.654218,-2.55888 1.540938,-1.50712 0.881987,-2.41201 1.611326,-1.19021 2.6830073,-3.09475 0.742455,1.16861 1.505217,-1.99701 2.544448,-1.01192 0.189983,-4.03966 2.645757,2.67861 3.749804,-1.16917 0.788558,0.41143 2.28974,-0.5091 2.85059001,0.19253 1.471926,-2.76084 1.227212,2.64787 2.88671499,-0.55505 2.47241,-1.34148 0.0081,4.25389 -0.987996,2.16965 -1.42615699,-1.38164 -3.634516,-0.0485 -5.712914,0.49388 -2.472077,-2.11847 -4.224265,1.52843 -6.6761143,2.679 -2.381215,1.14658 -2.595184,5.00145 -4.849363,5.6991 z m 40.869799,-0.32642 c -0.757645,-2.7533 6.568557,-4.53726 2.112346,-1.87685 -0.724916,0.3548 -1.257747,2.33889 -2.112346,1.87685 z m 7.865026,-2.32038 c -1.582302,-0.76853 -3.674172,-2.60263 -0.544829,-1.67205 0.8196,0.16278 2.572182,2.90867 0.544829,1.67205 z m -37.9586737,-0.37572 c -0.07332,-2.46003 4.22447701,-2.40935 1.079979,-0.43792 -0.17322,0.0391 -0.746387,0.80966 -1.079979,0.43792 z M 51.00422,105.41773 c -2.81061,-3.7426 4.623515,-2.62347 0.763121,0.14052 l -0.763155,-0.14052 z m 0.951561,-0.99398 c -0.172679,-1.80165 -1.541667,0.85254 0,0 z m 3.788372,0.75162 c -2.596734,-2.98993 3.949302,-3.41834 1.771695,-0.0459 -0.469556,0.45926 -1.253809,0.30209 -1.771695,0.0459 z m 1.347463,-0.90218 c 0.235479,-0.72829 -0.689374,0.69242 0,0 z m -12.714867,0.70384 c -2.776794,-2.89376 3.136243,-4.86345 2.065964,-0.57848 -0.351425,0.86893 -1.388252,0.85795 -2.065964,0.57848 z m 1.246207,-0.97074 c 0.804024,-2.69108 -2.414727,0.98924 0,0 z m -6.262534,0.48438 c -3.331778,-3.08781 4.84149,-3.36715 1.077738,0.0808 l -0.503377,0.0403 -0.57431,-0.12107 z m 1.043319,-0.9435 c -0.316288,-1.52259 -1.976094,0.65695 0,0 z m -24.269503,0.80563 c -2.705092,-2.44243 3.344353,-4.791871 1.840616,-0.75199 -0.300466,0.84338 -1.127376,1.01657 -1.840616,0.75199 z m 0.990267,-1.01707 c 0.693379,-2.98128 -2.004817,1.00609 0,0 z m 2.438846,1.01198 c -3.189753,-3.76545 4.754013,-4.05142 0.974639,0.0196 l -0.442485,0.07 -0.532119,-0.0896 z m 0.856398,-1.03688 c -0.122347,-1.92157 -1.821708,0.59169 0,0 z m 3.507161,0.87312 c -3.935303,-2.38335 3.496875,-4.09082 1.250299,-0.10946 l -0.534392,0.18206 -0.715856,-0.0726 z m 0.812735,-1.09154 c -1.179845,-1.54968 -1.333309,0.79384 0,0 z m 9.507977,1.06289 c -2.496846,-3.63501 4.671763,-2.21444 0.496543,0.10385 l -0.496612,-0.10385 z m 0.789943,-1.01731 c 0.317789,-1.12294 -1.301842,0.70704 0,-4e-5 z m -6.294015,0.82605 c -2.549205,-2.78257 4.355796,-3.93519 1.547975,-0.0507 l -0.744996,0.1974 z m 1.134613,-0.89322 c -0.852553,-1.11853 -1.387755,0.43953 0,0 z m -18.432836,0.8344 c -3.0364287,-1.80568 2.686163,-5.178535 1.532944,-0.70142 -0.204006,0.66287 -0.959371,0.97201 -1.532944,0.70142 z m 0.70799,-1.01998 c -0.0029,-1.26402 -1.819106,0.56428 0,0 z m -6.1085547,0.49772 c -4.933366,-2.03775 4.7477727,-4.873306 1.382624,0.0113 l -0.584096,0.0964 z m 1.041617,-1.05417 c -0.747083,-2.25821 -3.138913,0.96686 0,0 z m -20.5075533,0.90962 c -2.937222,-2.12077 2.908631,-4.757744 1.741397,-0.58526 -0.223445,0.86765 -1.146769,0.6914 -1.741397,0.58526 z m 0.979101,-1.25501 c -0.923189,-1.85548 -1.415242,1.63725 0,0 z m 4.4648473,1.23275 c -3.1961933,-2.2582 3.026791,-4.460257 1.505524,-0.37643 -0.210087,0.64996 -1.05475,0.51463 -1.505524,0.37643 z m 0.762505,-1.07427 c -0.729708,-2.06834 -1.049354,0.96904 1.8e-5,0 z m -15.5224313,0.57081 c -2.114608,-1.67651 -0.616204,-2.6673 0.599114,-0.91249 1.706345,-0.30549 -2.478095,-3.266617 0.839435,-1.807883 1.765814,1.494283 0.278631,3.033053 -1.438549,2.720373 z m 4.706234,-0.10909 c -2.559081,-2.46539 2.683164,-4.477308 1.54702,-0.46911 -0.249498,0.67673 -1.032241,0.65828 -1.54702,0.46911 z m 0.789874,-0.96567 c 0.184274,-1.38595 -1.558255,0.53755 0,0 z m -10.746563,0.44999 c -2.628441,-2.872294 4.003462,-3.78725 1.710058,-0.008 l -0.785281,0.12069 z m 1.261432,-1.17742 c -1.235404,-1.823341 -1.208042,1.64286 0,0 z m 47.978993,73.72078 c 0.105545,-0.82398 -0.494997,0.72371 0,0 z m -1.032482,-0.3683 c 0.367388,-1.42948 -0.625334,0.92941 0,0 z m -0.961212,-0.29618 c 0.231925,-1.8194 -2.041115,-3.23603 -0.808333,-0.25001 0.169267,0.27406 0.535698,0.4228 0.808333,0.25001 z M 7.5144833,173.19107 c 0.636654,-1.6795 -0.782314,0.86656 0,0 z m 4.9117017,-0.2994 c 0.07313,-3.82439 -0.707806,2.10107 0,0 z m -1.110256,-0.15118 c -0.0516,-0.89738 -0.242741,1.26909 0,0 z m 5.516597,-0.28084 c -0.18147,-0.60197 -0.05628,0.6017 0,0 z m -7.6731817,-0.22718 c 3.3780247,-0.66012 -1.472778,-1.39271 -0.275516,0.0344 l 0.0039,-0.002 0.271578,-0.0327 z m 11.0688187,0.076 c 1.139371,0.39072 4.205242,-4.70841 0.869781,-2.48995 0.450924,2.07822 -1.748919,1.25919 -0.869781,2.48995 z M 7.0341183,172.00601 c 0.175675,-1.38588 -1.285856,0.85926 0,0 z m 4.2718337,-0.43051 c -0.113257,0.23921 0.11041,1.13933 0,0 z m 2.27955,0.6589 c 0.385527,-0.7422 -0.839797,0.18131 0,0 z m 1.078998,-0.42281 c -0.173901,-0.75401 -0.05157,0.75269 0,0 z m 1.112234,-0.29536 c 0.002,-1.12629 -0.534614,0.67607 0,0 z m 0.847055,-0.63357 c -0.139117,0.0864 0.129108,0.47566 0,0 z m -3.106169,-0.34407 c -0.448654,-1.64534 -0.157099,1.57415 0,0 z m 4.757395,0.16372 c 0.552137,-1.70314 -1.136534,-0.0679 0,0 z m -8.6155227,-0.26937 c 2.3165907,-0.80277 -1.270489,-5.03452 -0.966345,-2.86935 2.5789087,0.91356 -1.411381,3.80988 0.966345,2.86935 z m 4.8813557,-0.20509 c -0.321449,-2.02995 -0.149687,1.28786 0,0 z m 5.568084,0.16222 c -0.384829,-0.20292 0.106412,0.41708 0,0 z m -4.605444,-0.45799 c -0.383122,-2.08126 -0.121378,0.97938 0,0 z m -4.175654,-0.37033 c -0.164684,-1.34909 -0.538727,0.10796 -0.111989,0.42017 z m 7.900325,0.0943 c -0.284446,-1.01875 0.129473,1.2053 0,0 z m -2.853223,-0.45849 c -0.437171,-2.02509 0.103373,1.72623 0,0 z m -4.198395,-0.2106 c -0.153238,0.038 0.114763,0.37878 0,0 z m 8.267566,0.0382 c 0.714106,-0.55369 -1.219456,0.35312 0,0 z m -2.363481,-0.35356 c -0.199646,-2.47364 -0.905583,0.84493 0,0 z m 3.523159,-0.33814 c 0.588186,-2.29445 -1.351488,-4.16747 -0.416823,-0.75876 0.02344,-0.24804 0.220114,1.61145 0.416823,0.75876 z m -18.1192317,-0.9771 c 0.391996,-3.4085 -1.13964,2.41858 0,0 z m 7.6049387,0.48017 c 0.535412,-0.77096 -0.86,0.52053 -6.9e-5,0 z m 9.166281,0.0432 c 0.06003,-3.44051 -1.708419,0.15568 -3.5e-5,6e-5 z m -7.339056,-0.0915 c -0.455837,-0.42021 -0.151731,0.52773 0,0 z m 9.846815,-0.66715 c 0.723322,-3.60858 -1.532566,-2.4679 0,0 z m -7.06624,0.0674 c -0.372836,-0.63368 -0.0049,0.57358 0,0 z M 4.7275433,166.32435 c 0.04397,-1.49956 -0.540153,2.50221 0,0 z m 2.654411,0.60296 c 1.346006,-0.79231 -2.126283,-0.64806 0,0 z m 10.1989537,-0.008 c 0.09423,-1.54965 -1.995059,0.53222 0,0 z m -11.8393747,-0.488 c 0.08742,-3.24017 -0.253098,1.90085 0,0 z m 6.4888347,0.07 c 1.411835,-2.51088 -1.129775,-3.28087 -0.951975,-0.0851 -1.3819907,0.33138 -1.3818107,-3.36017 -1.181835,0.0627 0.578181,0.015 2.100142,0.68318 2.13381,0.0224 z m 1.034477,-0.0187 c 0.201152,-1.06421 -0.606395,1.10376 0,0 z m 1.441492,-0.14239 c -0.345225,0.10235 -0.153888,0.24473 0,0 z m 0.832055,-0.50835 c 1.394159,-4.32898 -1.844746,1.21053 0,0 z m -6.9116747,-0.15231 c 0.606437,-3.50941 -2.132966,0.27568 -1.7e-5,-3e-5 z m 10.8840457,-0.0473 c 0.906074,-1.27348 -1.200282,0.65995 0,0 z m -5.527021,-0.67559 c -0.476055,-1.22599 0.140593,1.47477 0,0 z m 3.222992,0.37835 c -0.185501,-0.29682 -0.22887,0.16484 0,0 z M 6.7200333,165.06761 c -0.165936,-1.37924 -1.263909,-0.16185 0,0 z m 11.1748217,-0.30639 c 1.177061,-1.57092 -0.59139,-3.09322 -0.313953,-0.69195 0.07905,0.3723 0.362541,1.59549 0.313953,0.69195 z m 2.805141,0.0112 c 0.106563,-0.58515 -0.719241,0.0891 0,0 z M 4.0189163,164.39567 c -0.433285,-0.40677 -0.165832,0.67515 0,0 z m 7.2256397,-1.92427 c -1.242703,0.35052 -0.154044,3.36677 0,0 z m -5.8750817,1.57748 c 1.824619,-3.50154 -2.391081,-0.51505 0,0 z m 4.128313,-0.37534 c -0.914799,-2.86154 -0.881709,1.2461 0,0 z m -1.825057,-0.67588 c -1.078427,-1.7188 -0.625486,2.78956 0,0 z m 14.7647777,0.93457 c 1.130197,-1.42443 -2.01876,0.0573 -3.4e-5,-2e-5 z m -7.651764,-0.40995 c 0.121541,-2.23547 -1.093231,1.1506 0,0 z m -1.596074,0.15812 c -0.536099,-2.58164 -1.228355,-0.30419 0,0 z m 3.222614,-0.0187 c -0.38973,-1.19052 -0.09387,0.70345 0,0 z m 3.678533,-0.0842 c 0.314309,-2.98374 -1.708705,0.72794 0,0 z M 4.2349813,162.1113 c 1.207886,-4.61586 -2.659952,2.4244 -1.7e-5,0 z m 6.0597507,-0.1074 c 0.799509,-4.24789 -2.1467797,1.64285 0,0 z m 7.025642,-0.52891 c -1.773646,-0.58646 0.02327,2.39566 -6.8e-5,9e-5 z m 4.175156,0.84715 c -0.07748,-0.49135 -0.236933,0.7677 0,0 z m -14.9179677,-0.4355 c 0.574177,-2.19908 -1.98288,-1.29614 -0.334196,0.38917 -0.0025,0.40914 0.609634,-0.87987 0.334196,-0.38917 z m 7.4477927,-0.4173 c -1.903554,-1.1847 -0.03934,2.06523 0,0 z m 4.991109,0.21802 c -0.234653,-2.46419 -0.99123,1.34567 0,0 z m -10.7492987,0.14726 c 0.112132,-2.35253 -0.97927,0.47253 0,0 z m 7.1712107,-0.31471 c -1.03325,-0.57093 0.23856,1.51318 0,0 z m 5.33597,-0.83241 c -1.595945,-1.36603 0.378525,2.87089 0,0 z m 2.024107,0.89663 c 0.636607,-1.60394 -1.247845,-2.66953 -0.806526,-0.41019 0.02664,0.4991 0.51284,0.44913 0.806526,0.41019 z M 2.3722493,161.37875 c -0.65155,-2.40009 -1.086469,-0.008 0,0 z m 9.4985667,-0.1581 c -0.427103,-1.00323 -0.129009,1.19834 0,0 z m 12.725687,-1.15153 c -0.183797,-1.9156 -1.23552,1.93624 0,0 z M 3.3936373,159.92055 c 0.782943,-4.08798 -2.46679499,1.21156 0,0 z m 5.663385,0.47164 c -0.32831,-0.95671 -0.65542,0.10366 0,0 z m 7.7127657,0.0601 c 4.343717,-1.12027 7.801546,-4.4705 11.137422,-7.5 0.595415,-1.34608 3.25693,-3.23037 0.246497,-1.72314 -4.573948,2.97339 -9.59527,5.83214 -15.11281,5.22212 -4.9400697,-0.47484 -9.5907127,-3.04649 -13.58109769,-6.14565 -1.04195401,-1.62436 -4.92649501,-4.22467 -5.36471401,-3.55693 1.873806,4.45086 5.68924401,7.29244 9.550593,9.48757 3.800997,2.73104 8.5250087,4.54988 13.1241097,4.21603 z m -9.3131397,-0.61536 c -0.993776,-1.93052 -0.364422,1.49 0,0 z m -2.098785,-0.10536 c 1.032658,-2.92521 -1.654214,0.62755 0,0 z m -4.155475,-0.24227 c 0.01725,-1.96389 -1.16782499,0.75751 0,0 z m 22.4585857,-0.68499 c 0.439043,-2.17266 -1.777587,1.12551 0,0 z m 2.322712,-0.002 c -0.404318,-0.003 -0.133957,0.8266 0,0 z M 0.44351231,157.77194 c -0.901524,-1.94102 -0.926768,2.14258 0,0 z m 24.77612069,0.20505 c 0.674625,-2.11227 -0.966012,1.82539 0,0 z M 2.4244773,157.6048 c 1.311462,-2.98384 -2.43255199,1.87051 0,0 z m 1.991665,0.51296 c -0.707885,-1.49215 -0.388853,0.70375 0,0 z m 22.4222717,-0.0528 c 0.22379,-2.05255 -0.869101,-1.11564 0,0 z M 1.2984293,156.40948 c 0.591998,-1.74908 -1.41912399,1.04562 0,0 z m -1.75478399,-0.23277 c -0.57004501,-0.51559 -0.08363,0.96627 0,0 z m 26.32256369,-0.0499 c -0.09623,-0.31604 -0.195918,0.30791 0,0 z m 2.560331,-0.23921 c 0.879481,-2.72989 -0.832918,1.24486 0,0 z m -0.930798,-0.62901 c -0.04605,-2.03059 -0.965069,1.81727 0,0 z m -14.1818,0.16784 c -0.221083,-2.19566 -2.212391,1.49829 -2.621602,-1.39826 -1.5690517,1.71803 1.833969,1.36687 2.621602,1.39826 z M 0.28502431,155.31584 c -0.401048,-1.18689 -0.386036,0.47412 0,0 z m 14.85615969,0.0275 c -0.04398,-1.24127 -0.958643,0.64001 0,0 z m 1.913169,0.006 c 0.210195,-0.87227 -0.745718,0.35936 0,0 z m -17.94263069,-0.75093 c 0.07101,-2.53228 -0.92154601,1.85298 0,0 z M 18.479089,154.43929 c 0.972752,-2.67537 -2.492716,-0.87608 -0.355593,0.67172 z m -2.221233,-0.19526 c -1.325202,-4.25271 -0.854003,2.50049 0,0 z M -2.9397907,153.9333 c -1.56597,-2.28893 1.234686,2.39282 0,0 z m 12.221927,0.66749 c -0.437522,-0.14033 -0.07938,0.15137 0,0 z m 4.9830747,-0.72522 c -1.436561,-3.66214 -0.595365,2.36577 -3.5e-5,0 z m -5.4789057,0.54482 c -0.270077,-1.3767 -0.606231,0.51151 0,0 z m 20.8903987,-0.47814 c -1.548869,-3.98509 -0.830245,2.49097 0,0 z m -8.981095,0.13247 c 0.749685,-3.96566 -2.226575,0.63654 0,0 z m -10.9508437,-1.6795 c -1.638982,-1.36714 0.6428227,3.81932 0.12384,0.19127 z m 2.3887177,0.77535 c -1.629974,-3.19443 -0.352434,3.10316 0,0 z m -4.5191037,0.75869 c 1.127158,-1.62921 -1.539638,-3.66011 -0.494076,-0.52738 -2.177998,-1.63138 -0.715319,0.77946 0.494076,0.52738 z m -9.667117,-0.37507 c -0.40303,-0.39284 0.390299,0.64588 0,0 z m 25.0121037,-0.31318 c 1.186231,-2.20834 -2.337198,1.30534 0,0 z m 7.673148,-0.56984 c 0.728449,-2.36709 -1.80835,0.48095 0,0 z M 5.3609423,152.51924 c 1.068004,-1.55231 -1.008232,-2.11469 -0.309733,0.23771 0.17355,0.24154 0.154903,-0.21414 0.309733,-0.23771 z M 16.98064,151.88137 c -2.042512,-0.87008 0.327839,2.25063 0,0 z m -2.079398,0.38401 c -0.181815,-3.70413 -1.374315,2.23048 0,0 z m 7.198769,-0.60938 c -1.708999,-0.29245 -0.391911,1.93331 0,0 z m -26.1050027,0.55645 c 0.03162,-2.61548 -0.747946,0.49906 0,0 z m 23.3567337,-0.12013 c -0.994889,-0.72164 -0.177175,0.92583 0,0 z m 4.999692,-0.31953 c 0.99413,-2.86758 -2.027494,1.93611 -8.5e-5,-2e-5 z M 12.80662,151.64443 c -1.572429,-1.92954 -0.245093,1.49666 0,0 z m -8.8671447,-0.38364 c -0.987297,-2.5666 -1.850548,-2.25953 -1.368527,0.19437 0.713881,0.40924 1.103259,0.98856 1.368527,-0.19437 z m 6.8742757,0.17832 c 0.09423,-1.82083 -1.6491547,0.95372 0,0 z M 8.6099963,150.8811 c -1.870037,-3.49524 0.01641,3.05984 0,0 z m 18.2924287,-0.43696 c 0.55944,-2.37188 -2.209665,2.59677 0,0 z m 4.827357,0.30404 c 0.514906,-2.15056 -1.648567,1.32874 -1.7e-5,1.5e-4 z m -25.2856437,0.0168 c -0.182573,-1.63602 -1.648782,-0.95953 0,0 z m -5.243677,-0.77558 c -0.165795,-1.34319 -2.807784,-4.90119 -1.51261399,-1.50658 -1.40399001,-0.11862 1.44766499,2.52506 1.51261399,1.50658 z m 3.215681,0.0541 c -0.325774,-0.60733 -0.06109,0.42739 0,0 z M 30.348156,150.022 c 0.06004,-0.35803 -0.382887,0.47933 0,0 z m -1.432925,-0.34107 c 1.45109,-1.69217 -1.84359,0.46786 0,0 z M 4.0060153,149.20279 c -0.584765,-0.29089 0.400955,0.87688 0,0 z m 26.1423667,-0.72894 c 0.316983,-1.30309 -1.011934,0.9413 0,0 z M 1.6355843,148.30601 c -0.188474,-0.45358 -0.06847,0.4566 0,0 z m -2.794217,-0.3186 c -0.304183,-1.67836 -4.915462,-5.67682 -1.827131,-2.09979 0.303231,0.33952 1.644134,2.87998 1.827131,2.09979 z m 33.1403297,-0.22148 c -0.954318,-0.51365 -0.119817,1.21848 0,0 z M -6.6329637,147.4851 c -1.366573,-1.63095 -1.261793,-0.22368 -0.262838,0.21373 l 0.262805,-0.21368 z m 3.025197,-0.97464 c -0.971363,-1.74306 -1.833791,-0.51901 0,0 z m -3.107184,-1.41132 c -1.847598,-4.23545 -2.482926,-0.55603 0,0 z m 1.76287,-1.16049 c -1.494183,-1.30415 -0.766162,0.64689 0,0 z M -31.866534,112.33704 c -1.364753,-2.26771 -0.605739,-0.4216 0,0 z m -11.751831,-3.4567 c 2.706748,-3.81821 -1.241478,-0.51168 0,0 z m 128.11476,-0.96221 c 1.822311,-0.0281 3.515573,-0.0481 0.664978,-0.15867 -4.846441,-0.48752 -9.736493,-0.69817 -14.591371,-0.28386 4.614704,0.72277 9.281099,0.56389 13.926393,0.44248 z m -12.830313,-1.47471 c 3.123421,-0.30365 -4.488069,0.11115 0,0 z m -7.343408,-1.30328 c 0.66217,-1.3944 -2.076994,0.21084 0,0 z m -108.486963,-1.64815 c -3.401597,-0.0887 -6.806579,-0.15006 -10.208655,-0.10833 3.396756,0.18206 6.812173,0.24977 10.208655,0.10833 z M 67.16492,103.33052 c -1.782688,-2.15712 -1.34678,0.56342 0,0 z m -105.062872,-0.17607 c -1.919354,-1.0712 -6.410524,-0.571 -9.314621,-0.69699 -2.6091,0.0593 -9.161836,0.0428 -9.382571,0.22863 6.028957,0.23574 12.129947,0.0168 18.11122,0.5937 l 0.586041,-0.12517 z m 35.7801883,-0.79807 c 0.413168,-1.8399 -2.136929,0.36296 0,0 z m 4.685624,0.0376 c 0.838817,-1.5327 -1.68263699,0.0575 0,0 z m 59.7557857,-1.0158 c -2.104573,-1.3454 0.535292,1.08016 0,2e-5 z m -8.492903,-1.443725 c -0.747465,-2.167532 -3.188144,-1.797742 -2.469111,-0.06964 0.822441,0.03071 1.648222,0.04417 2.469111,0.06964 z m 2.100248,-0.57187 c -2.154451,-1.340573 0.01221,1.779555 0.598211,0.451517 -0.199403,-0.15044 -0.398808,-0.301008 -0.598211,-0.451517 z m -15.846031,-0.0059 c 0.07488,-1.647581 -2.612516,-4.128577 -3.012741,-0.715068 -2.456098,1.721843 2.368222,-3.944595 -0.984538,-5.142901 -0.185598,1.220889 -2.006136,2.69938 -1.022626,3.736076 2.041827,2.499298 -0.424651,1.415802 -0.982819,0.592888 -2.713145,3.42157 2.803589,1.540977 4.718465,1.928062 0.457072,-0.10123 1.109933,0.266448 1.284259,-0.399057 z m -8.504394,0.0187 c -0.921981,-2.442766 -1.885218,-2.314476 -2.442355,0.191032 0.200428,-0.235646 3.405909,0.839973 2.442355,-0.191055 z m 13.47154,0.273738 c -1.163808,-1.022321 -2.75006,-4.167439 -3.483338,-1.261114 -1.405643,1.894021 2.845402,1.315452 3.483338,1.261114 z m 3.773629,0.113583 c -0.640617,-2.376499 -3.227322,-1.709779 -2.11031,0.01125 0.703133,0.01125 1.407702,0.02885 2.11031,-0.01125 z m 1.822237,-1.184294 c 1.809234,-2.512674 -4.065066,-5.448808 -2.933595,-1.134406 0.980992,0.478897 2.217913,3.646594 2.933595,1.134406 z m -22.557313,0.906836 c -1.353359,-4.105807 -3.1819,1.401692 0,0 z M 5.9200093,99.26581 c 1.765571,-0.712411 4.5957387,0.81471 5.8611217,-0.759752 2.368375,-4.19014 -6.3111487,1.603722 -2.5983057,-1.660975 2.2439967,-0.148198 4.9710197,-3.716844 6.4924177,-2.851462 -0.773945,2.12784 3.581686,6.777429 2.730718,2.157438 -0.716331,-0.660747 -4.324349,-4.133036 -0.929511,-2.425177 1.732672,1.221033 6.852458,5.448022 4.586745,0.307904 -2.392688,-3.829759 0.961183,-6.735543 3.652749,-8.6625 1.342511,2.399382 1.707986,-2.604063 2.304455,0.113765 -1.590021,1.985319 2.269715,6.323954 2.188673,1.789205 1.753096,-3.061028 -4.176419,-3.563967 -5.818894,-5.365786 -3.058574,0.283513 -5.873189,-3.871863 -9.250858,-4.278589 -1.801571,1.202759 -4.164004,1.841524 -2.117719,4.200039 0.230506,-2.091992 3.159498,-4.582104 1.527452,-1.024366 -1.190973,3.457297 -3.455031,5.705435 -6.9002887,4.634833 -3.090302,-0.51209 1.488037,2.817615 1.927416,3.784616 1.1169057,1.738776 -1.249285,6.406468 -1.893449,8.851503 -1.671614,0.552638 -0.414106,-4.37396 -2.010029,-0.896104 -2.241207,1.181637 1.824054,-3.643654 -1.159177,-4.339845 -2.405435,1.313997 0.31136,4.640388 -1.571053,4.969539 -0.166762,-3.759429 -1.459357,2.946874 -2.92791099,0.767163 -0.343253,-2.513393 -2.28771601,-7.036086 -3.80075301,-2.681137 0.223669,-0.879969 1.531519,-5.730154 -0.702256,-5.147877 -1.781317,2.258821 -0.754668,4.265209 0.844109,6.214695 0.593396,4.41765 6.212098,1.715804 9.564038,2.30177 z M 23.71272,85.998159 c -1.549929,-0.247569 -5.459987,-3.54131 -1.766356,-1.999279 0.497355,0.225752 3.850223,1.679279 1.766356,1.999279 z m -5.506017,-1.756762 c -1.16652,-0.926263 -3.610976,-7.895231 -1.01837,-4.124259 0.07602,0.735165 2.709212,4.151147 1.01837,4.124259 z m 7.610651,14.121717 c 1.937122,-2.581084 -2.837169,-5.382481 -1.782051,-1.425558 0.597912,2.840954 -1.098882,-0.619642 -1.094756,1.201115 -2.35135,-1.388895 -1.387276,-0.356413 -2.062608,1.025756 0.380478,-0.183744 4.617568,1.365263 4.939415,-0.801313 z M 13.482286,99.11641 c -2.181378,-1.862327 -0.61303,1.57711 0,0 z m 3.486123,0.164469 c -0.646162,-2.208595 -1.996141,-2.896476 -2.314319,-0.07446 0.714015,0.304715 1.567285,0.126301 2.314319,0.07446 z m 2.937618,-0.571362 c 0.441754,-4.293748 -2.870321,2.773563 0,0 z m 13.476356,-0.886594 c 1.277619,-1.043152 -1.499142,-4.229273 -1.914074,-3.553491 -2.089925,1.469319 1.100565,7.222858 1.914074,3.553491 z m -37.2064207,1.25036 c -0.130361,-2.695692 -2.616136,-6.79885 -3.516065,-1.899887 -2.561,2.970024 2.18451,1.592439 3.516065,1.899887 z M 54.227969,98.686105 c -0.784019,-2.280972 -4.052978,-2.320021 -0.816807,-0.174572 0.09872,-0.128357 1.038643,1.29918 0.816807,0.174572 z m -85.504006,0.356565 c -0.315403,-0.181874 -0.07282,0.19394 0,0 z m 77.104599,-0.57429 c 1.725587,-1.610757 -2.441101,-7.258405 -2.860895,-2.763533 -0.706307,0.695454 2.503918,4.017286 2.860895,2.763533 z m -54.7981017,0 c 0.735115,-1.834616 3.868131,-4.369019 1.75506,-6.189082 -1.686963,1.518682 -1.232449,4.277113 -2.037957,5.220609 -0.594121,-0.708747 -2.1799933,0.910412 -0.712669,-1.658284 -3.5022163,-6.91042 -1.5232583,5.063437 0.995566,2.626757 z M 29.208363,97.499399 c 1.23265,-2.250046 -1.761719,-4.359009 -1.904881,-0.953446 -0.380864,0.960672 1.713113,3.550327 1.904881,0.953446 z m -40.522272,1.090535 c -0.37958,-2.244377 -1.042598,-2.248049 -2.158615,-1.279889 1.27761,-2.097642 -0.885407,-4.161964 -1.573796,-0.760893 -0.04063,3.085187 1.131383,2.122755 3.732411,2.040782 z m -4.054719,-0.103286 c -0.551938,-2.484143 -0.881445,1.330682 0,0 z m -1.665297,-0.131166 c 2.520684,-1.282267 -1.59568,-6.956077 -1.623804,-2.796008 0.331036,0.650653 0.944582,3.420921 1.623804,2.796008 z m -16.578671,0.01498 c -0.08851,-0.415074 -0.422531,0.531231 0,0 z M 41.35415,97.236208 c 1.20159,-2.716971 -2.866256,-4.702045 -2.651881,-0.976452 0.954562,0.619269 1.962042,3.795914 2.651881,0.976452 z m 14.724611,1.046926 c -2.024559,-1.55713 -0.52261,0.178507 0,0 z m -82.685774,-0.09337 c 3.299562,-0.462821 -1.846633,-2.139052 -3.105756,-0.737651 -4.473089,1.054288 2.336714,1.03305 3.105756,0.737651 z m 8.008787,-0.109835 c -0.22268,-3.284737 -2.765184,1.768855 0,0 z M 14.6233,96.989199 c 1.970252,-3.479379 -2.727828,-1.351276 -0.764745,1.091745 0.523258,0.285102 0.363592,-1.266046 0.764745,-1.091745 z m -35.550017,0.957034 c 3.597817,-2.108718 -2.849883,-6.28472 -1.142579,-1.924551 0.345884,0.245587 0.902971,2.367691 1.142579,1.924551 z m -1.112234,0.03647 c -0.674519,-5.022227 -5.305071,-0.395538 -1.287388,0.07556 0.429946,-0.0034 0.864353,0.02208 1.287388,-0.07556 z M 1.3007343,96.870075 c 2.093724,-1.613921 -1.14064499,-5.22412 -1.80215999,-1.686578 0.594837,0.49329 1.255769,3.512048 1.80215999,1.686578 z M -28.741528,96.236549 c 0.938971,-0.710947 -1.284347,0.629837 0,0 z m 75.934668,-0.71071 c 1.312218,-2.344483 -5.108786,-4.527406 -1.764539,-0.999493 0.511476,0.369223 1.536226,3.064466 1.764539,0.999493 z M 27.737851,93.545886 c -1.131487,-3.636158 -3.899323,-1.036959 -2.045109,1.146811 1.10395,2.815984 1.506192,0.596661 2.045109,-1.146811 z m 7.629815,0.0627 c 0.417144,-1.802677 -2.560252,-6.010299 -2.852414,-1.665487 -1.275699,2.400309 2.347092,6.550039 2.852414,1.665485 z M 7.7809693,95.465844 c -0.04695,-1.525527 2.4771807,-7.55674 0.188705,-3.286852 -1.024878,0.685428 -1.633213,4.963142 -0.188705,3.286852 z M -14.88293,94.317722 c 1.325876,-1.662811 -2.450267,-3.985124 -2.611574,-1.48092 0.930771,0.786227 1.838043,4.947108 2.611574,1.48092 z m 45.53607,0.202137 c 1.601675,-2.223529 -1.978187,-4.594943 -2.134616,-0.958506 0.621731,0.868563 1.523139,3.629084 2.134616,0.958506 z m 11.898552,0.277266 c 1.904052,-2.132545 -0.817664,-3.006785 -1.412952,-4.24469 -1.239229,2.116054 -0.845749,3.685936 1.015073,5.128441 l 0.397827,-0.883751 z m -4.175913,0.106274 c 2.845689,-3.369841 -3.451481,-5.021703 -1.482669,-1.160916 0.443136,0.34752 1.107969,2.40971 1.482669,1.160916 z M -9.1487047,94.536942 c 2.290544,-2.025307 0.53556,-3.880298 0.245533,-5.676229 1.018153,2.320384 2.8391,1.298732 1.866448,-0.587456 0.320647,-2.581572 3.420709,2.416504 3.345012,-1.735543 -1.763348,-1.358174 -5.720706,1.959664 -7.3676993,2.828659 -1.997292,0.460571 -0.685793,3.850904 -0.02986,1.115445 1.1851353,0.277605 -0.911172,5.87468 1.9405733,4.055124 z m 32.9384057,-0.19443 c 0.591018,-0.961696 -1.915684,-3.794561 0.543465,-1.944418 1.280386,-1.032034 0.05195,-2.289154 1.501374,-3.354568 1.562767,-2.894949 -1.305029,-3.05654 -2.322206,-0.281285 -2.755845,0.359687 -0.451871,7.332542 0.277367,5.580271 z m -42.782313,-0.540716 c 1.196421,-2.518682 -3.119507,0.909744 -0.254366,0.719019 l 0.254435,-0.718943 z m 22.0359863,0.259879 c 2.141359,-2.628839 -1.121267,-5.567681 -1.919378,-1.430322 0.267177,0.477451 1.565018,3.538498 1.919378,1.430322 z M -12.318524,93.733353 c 0.839086,-3.5348 -2.537178,-0.607111 -0.350279,0.89943 z M -0.12259069,93.456518 C 1.2547043,90.907892 -2.3056147,89.968331 -1.7189627,93.252679 c 0.651228,1.111443 0.86362401,1.939417 1.59637201,0.203839 z M 6.9031893,92.376653 c 0.263445,-1.137495 -0.553334,-5.173624 -1.489571,-1.517743 -1.616449,1.279212 1.313178,5.148849 1.489571,1.517743 z M 28.63691,91.75559 c 1.702362,-2.727599 -3.475706,-5.373853 -2.115282,-1.100689 0.728164,0.75371 1.744593,3.898862 2.115282,1.100689 z M -5.3094817,91.016627 c 1.216712,-1.437251 -1.025489,-4.461099 -0.855051,-0.957194 -1.50431,1.611578 0.513781,4.777376 0.855051,0.957194 z M 32.232235,90.819371 c 1.171011,-1.524157 0.15718,-2.58204 -0.978833,-3.613837 -1.49437,1.365796 -1.401096,5.618321 0.481554,4.879409 l 0.227535,-0.56994 z m -46.104203,1.230924 c 1.929748,-3.030156 -3.203452,-0.313041 0,0 z M 39.93086,91.732947 c 1.817305,-2.981038 -4.440291,-3.383344 -1.293249,-0.355566 0.368061,8.46e-4 1.095448,2.19256 1.293249,0.355566 z M -1.7140027,91.153784 c 1.42083601,-1.048956 -1.420422,-5.182048 -1.773449,-2.760589 -1.219158,0.795475 1.422181,5.587836 1.773449,2.760589 z m 38.0281207,-0.04992 c 1.432029,-2.511389 -4.132849,-3.885807 -1.840424,-0.936236 0.616141,0.583377 1.553914,3.302311 1.840424,0.936236 z M 1.5029343,90.866339 c 2.398563,-4.004746 -3.171274,-2.853705 -1.46910299,0.13791 0.613848,1.430956 0.892237,1.019198 1.46910299,-0.13791 z m 2.88577,0.21412 c 2.485157,-3.319454 -0.617263,-6.635518 -1.398021,-1.719104 0.344639,0.311433 1.090113,2.660518 1.398021,1.719104 z m 3.953086,-1.203848 c 0.319752,-1.69971 -3.736059,-3.135276 -2.604283,-5.288117 3.079012,0.41683 8.5290877,0.153994 5.3680747,-4.324469 -1.7714667,-1.144755 1.623926,5.792441 -0.66829,2.343246 -1.7968547,-3.576206 -0.6764947,-0.366272 -1.1531337,1.279363 -0.551139,-1.968404 -3.176033,-5.589517 -3.56828,-1.117416 -2.313547,2.416296 1.314321,6.644682 2.625912,7.107393 z m -8.59532699,-1.474929 c 0.603798,-2.372254 1.33988299,-3.517887 3.35968399,-4.569778 -0.370432,-2.933418 2.183886,2.173817 1.939941,-1.633978 0.196033,-2.859715 -3.652199,3.245073 -5.66474999,1.815571 -3.86513201,0.03424 -1.62891601,4.482951 -0.07804,5.166153 l 0.443214,-0.777934 z M 36.970981,88.572134 c 0.364787,-1.056843 -3.206826,-1.501912 -0.300237,0.23578 l 0.300289,-0.23578 z M 3.3441623,87.099633 c 1.904933,-5.582404 -3.83071499,1.118322 -0.44093,1.072199 l 0.204255,-0.488983 0.23664,-0.583216 z m 30.0962797,0.913153 c 0.648841,-1.753247 -3.524012,-2.494025 -0.69483,-0.30243 l 0.467669,0.669691 z M 8.4280963,79.825206 c -0.101403,-0.352839 -0.463854,0.414098 0,0 z M 17.016095,276.11324 c -4.236743,-1.95016 1.014935,-1.05225 0.956825,-0.78494 -0.953512,-2.31832 2.764381,1.16599 2.715017,-0.87303 1.737566,0.92692 2.923008,1.05277 3.03412,-0.88504 1.769662,-0.0582 3.460207,-0.009 5.031848,0.50777 0.741991,-1.46529 2.077056,0.76247 2.173149,-1.34794 1.929707,0.62989 2.56312,1.83011 3.554169,0.16166 1.656227,0.60013 2.794652,1.91081 3.213604,-0.18 1.8395,0.0769 3.438141,1.87206 4.131194,-0.41403 2.072269,-0.0423 3.623759,1.51115 4.547467,-0.63709 3.025004,1.31472 5.090535,-0.93104 7.727801,0.60173 1.447758,1.72196 0.834941,-2.34257 3.034933,-0.23071 1.43083,1.34474 0.431435,-2.8799 2.666624,-0.87088 0.851,0.5166 2.799983,0.42394 3.293438,0.56929 0.650354,-1.52977 3.779236,-0.10983 4.359309,-0.44664 -0.188195,-2.7936 2.548149,0.48442 3.125033,-1.41561 1.931088,1.47005 3.06512,-0.75726 5.323676,1.4455 0.324992,-3.43576 6.554043,1.97843 1.937528,0.35591 -1.350651,-1.09337 -1.912102,2.20274 -3.914545,-0.33598 0.444614,1.5138 -1.714374,0.61241 -2.380537,0.35513 -1.335962,1.47982 -4.240807,-2.60683 -2.780576,1.2667 -1.518551,0.1205 -2.055352,-1.47023 -2.764114,0.11825 -1.8937,-2.20564 -2.1092,0.97845 -4.068085,-0.51431 -1.367061,1.34261 -3.278282,-2.32452 -3.431398,0.79884 -1.912856,-0.17196 -2.568144,-1.62344 -2.83843,0.72057 -2.872538,-2.11326 -4.589547,-0.48309 -7.501659,-0.88117 -2.114821,-1.50687 -2.543312,2.2299 -5.092498,0.11826 -1.66721,-0.83389 -0.77949,3.01488 -3.146469,1.02043 -2.163307,-1.62653 -2.536949,2.12341 -5.037733,-0.19633 0.126199,2.96977 -3.422722,-1.57531 -3.373502,1.21729 -2.145072,-0.93861 -4.158479,0.0338 -6.513619,-0.58439 -0.918544,0.0481 -1.90501,1.95424 -3.636197,1.29144 -1.503208,0.294 -2.659025,1.21617 -4.346373,0.0492 z m 74.743476,0.20784 c -2.319765,-0.98045 -1.138291,-8.13001 1.438519,-4.76635 2.368064,-0.0131 2.606231,2.81911 0.355025,1.18685 -2.62135,-2.83237 -2.815256,4.97023 -0.0781,2.23491 1.666822,0.89902 -0.931015,2.04642 -1.715418,1.34459 z m -7.84612,-2.58949 c -1.244112,-1.19718 -3.299111,-7.28864 -1.035803,-6.23061 2.29296,-0.0457 -2.319257,-2.36756 0.565432,-1.62622 3.749871,-0.0217 1.790523,4.26572 -0.694554,2.05694 -0.08078,2.16886 1.243477,7.14714 3.566435,4.3282 -0.06244,-4.01241 2.140012,2.8782 -1.373036,1.90583 l -0.505197,-0.0615 -0.523569,-0.37262 z m 45.964149,-0.64565 c -1.81751,-0.62319 -3.01843,-4.11256 -3.537,-0.38047 -3.13993,0.38255 -5.68586,-2.00931 -8.53713,-2.35898 -1.21904,-1.63316 -5.05474,-3.08618 -2.48261,0.10029 -0.7801,2.94197 -4.65384,0.46099 -6.18993,-0.11564 -1.28782,-1.66526 -3.88664,-3.25102 -2.1994,0.27905 1.3445,3.89906 -3.36599,0.85948 -3.27616,1.21817 0.11682,3.59019 -6.862328,-5.38792 -1.87416,-2.87422 1.7035,1.25615 6.0658,4.49334 2.61451,0.42561 -0.66378,0.70438 -3.21856,-1.1315 -3.81245,-2.921 1.61357,-2.61319 5.15553,0.19039 7.38675,1.41968 0.24835,-0.97144 2.06725,-2.02545 2.30314,-4.34159 3.85083,-0.77419 7.69496,1.66244 11.63008,1.07139 2.85804,-1.01396 2.33065,1.12667 -0.0914,1.47128 -1.52341,1.62201 2.80155,1.43396 3.6862,1.72528 2.21441,0.23857 3.48687,-4.32068 6.11671,-1.54862 2.68261,0.78284 5.45734,2.45112 7.52889,-0.36831 1.81651,-0.48855 6.77139,3.11665 5.25082,4.17338 -1.16145,-1.36815 -3.61896,-3.39973 -2.47699,-0.0113 -0.91711,2.31001 -3.80276,-1.61457 -4.84993,1.00264 -1.54642,0.0487 -3.33161,1.47825 -5.25924,1.53816 -0.42547,0.67093 -1.29171,0.63838 -1.9307,0.49432 z m 1.06892,-0.92171 c -0.0582,-0.63828 -3.4535,-0.79141 -0.39549,0.0872 z m -5.0001,-0.35325 c 0.47267,-1.87631 -3.1279,-0.99091 -3.92044,-2.96088 -4.89153,0.50676 2.55654,4.01078 3.92044,2.96088 z m 8.51181,-0.45629 c 1.1023,-1.94326 -4.33953,0.86717 -0.546,0.19785 l 0.54605,-0.1978 z m -2.56117,-1.01141 c -0.68187,0.24161 -0.0638,1.40221 -2.3e-4,0 z m -17.57567,0.57272 c 0.31288,-3.15496 -1.43015,-0.30009 0,0 z m 16.41182,-0.46018 c -0.81371,-1.58726 -4.79241,-1.7162 -1.09167,-0.015 0.23317,0.0618 1.30493,1.09873 1.09167,0.015 z m -19.26534,-0.48101 c -1.68732,-2.15234 -2.95846,-1.5588 -0.7784,-0.11582 0.22478,0.0471 1.74835,1.00874 0.7784,0.11582 z m -9.722,0.10029 c -1.25264,-1.08361 -0.21671,0.19538 0,0 z m 11.23644,-0.0788 c -0.28039,-1.28282 -1.07627,-5.57153 -1.66582,-2.99602 0.0167,1.53531 0.48736,2.55517 1.66582,2.99602 z m 21.88203,-0.0131 c -1.18175,-1.37237 -2.78765,0.79691 0,0 z m 6.17467,-0.33306 c 0.12313,-2.93602 -4.12346,0.1815 -0.39425,0.15961 l 0.36707,0.11863 0.0272,-0.27835 z m -4.58578,-0.24697 c -3.04805,-0.62846 1.49651,1.08615 0,0 z m -3.79975,-0.093 c 0.76686,-1.8993 -2.43335,0.009 -0.45533,0.44024 l 0.45533,-0.44025 z m -6.93999,-0.0488 c -0.38307,-1.13139 0.10973,1.07551 0,0 z m -6.49003,-0.0848 c 0.98344,-2.49755 -3.23302,0.50803 0,0 z m 11.44821,-1.2762 c -1.33796,-2.33957 -5.51785,1.12016 -1.40835,0.96008 1.14996,0.35135 1.81804,0.92038 1.40835,-0.96008 z m -5.99258,0.87437 c -0.48897,-1.52813 -2.85279,0.12368 -0.0466,0.46069 l 0.0458,-0.46078 z m 12.80693,-0.3559 c -0.50929,-0.0408 -0.0564,-0.0803 0,0 z m -32.01622,-0.73225 c -0.79738,-1.74073 -0.20506,0.83649 0,0 z m 5.01419,-0.40259 c -1.00629,-3.08244 0.24908,1.70049 0,0 z m 10.47714,0.48889 c -0.28534,-1.07743 -1.30087,0.18224 0,0 z m -6.83186,-0.22235 c -1.26992,-1.06952 -0.91891,0.49321 0,0 z m 1.9981,-0.50502 c 1.59855,0.94557 7.18652,-1.89352 2.7244,-1.65723 -2.19664,0.16578 -7.67929,-2.49217 -7.90725,-0.19516 1.78051,-0.39726 3.81393,2.55945 5.18285,1.85239 z m -204.897477,4.24856 c -1.49518,-1.32317 0.89574,-3.78935 -2.10765,-3.2566 -2.28424,-1.10327 -7.01316,-3.17971 -4.90853,-6.39266 1.7951,0.55064 4.8084,-1.29878 5.51158,-0.64116 -2.19124,3.3144 1.41349,-1.50741 1.89568,1.92129 0.68566,1.61748 -0.71274,5.4104 0.87752,1.56323 1.1635,1.44968 -1.81758,5.17386 0.79627,2.506 0.7578,-0.6711 1.01607,-4.37875 1.81356,-2.57575 0.41043,-1.80059 -3.29192,-0.006 -0.61668,-2.0781 0.0858,-2.74705 3.76487,1.35197 1.39787,-1.43869 -1.80243,-1.03081 -1.11848,-3.89332 -3.47045,-4.83854 1.23041,-1.20546 2.5395,2.84366 2.95007,-0.92444 2.21467,-3.13667 -1.16747,3.94917 0.60502,4.77537 5.6565,0.7047 -0.75623,6.84312 -1.58041,9.81059 -0.59205,1.16842 -1.97987,1.80833 -3.16385,1.56946 z m 3.41373,-3.7067 c -0.42912,-0.33224 -0.14124,0.68095 0,0 z m -3.69995,-0.67471 c -1.79716,-0.93339 -5.45274,-5.70349 -6.40096,-3.08533 1.18889,1.23864 5.62382,4.57841 6.40096,3.08533 z m 4.30331,-0.85577 c -0.31004,0.11413 -0.0654,1.02897 0.087,0.15549 z m -4.73608,-0.92376 c -0.37397,-0.39603 0.14973,0.43981 0,0 z m -2.69951,-2.08321 c -0.59534,-1.32594 -1.62247,-0.32339 3e-5,10e-6 z m 7.94391,-0.46498 c -0.67545,-0.51593 0.32953,1.1316 0,0 z m 178.58497,8.62435 c -3.097699,-0.25855 -3.97602,-8.01156 -1.933875,-8.21643 -0.215449,3.06074 -0.304303,7.13849 3.007758,7.57482 0.278451,0.65903 -0.7117,1.07553 -1.073883,0.64161 z m -9.270086,-0.89427 c -0.40698,-2.77968 2.502477,0.51089 0,0 z m 11.130264,-1.44249 c -0.489813,-3.06248 -0.878785,-6.73337 -1.692341,-9.70575 0.07251,-3.06676 2.629753,-8.82888 -2.305417,-7.64478 -1.366179,-1.49426 -7.712314,-2.09889 -6.088198,-3.75547 2.898302,1.91332 4.548785,0.38749 7.582571,2.26932 3.613127,-0.23864 -1.994424,-2.20795 1.269804,-2.38835 0.900504,-1.71232 -2.538456,-0.79023 0.388819,-2.59624 1.687805,-3.06589 0.147936,-6.95031 0.973516,-10.67063 1.829988,0.43092 -0.419373,4.63581 1.399032,5.04614 0.554922,2.96297 4.699393,-0.0386 1.780117,1.06827 -0.116316,-2.78411 0.587756,-4.14288 1.901736,-0.91024 0.64649,3.3377 -3.911415,2.43915 -4.319111,0.96509 0.04747,3.91593 1.123094,8.34285 -0.784391,11.81869 -0.98009,4.2932 -0.735933,8.60858 0.246349,12.84362 0.04375,0.77656 1.383827,4.31824 -0.352486,3.66033 z m 0.03046,-18.98986 c 0.380282,-2.20102 0.254446,-7.45856 -0.260699,-2.42375 -0.04459,0.1727 -0.536993,4.31786 0.260699,2.42375 z m -3.211717,17.71355 c -0.584612,-2.13355 3.742736,-0.76112 0.400082,0.079 z m -7.092804,-1.03521 c 0.03442,-2.04545 0.631777,-8.03471 2.649939,-7.43552 -1.517518,1.86548 -1.079573,7.35726 -2.649939,7.43552 z m 7.626683,-0.69129 c -2.309768,-1.43239 2.391857,-0.60513 0,-4e-5 z m -8.81837,-1.01038 c -4.300576,-1.44497 3.152101,-1.05714 0,6.2e-4 z m -0.590445,-1.88443 c -3.235704,-2.83059 3.266687,0.50003 0,0 z m -172.547005,-1.7567 c -3.44683,-0.64144 -0.59947,-5.61682 -0.40594,-7.91512 -1.3475,-2.3279 2.80864,-7.07753 -0.74783,-5.52683 1.21279,-2.22265 -0.12521,-6.10373 3.09174,-6.91963 0.22614,0.6836 -3.22366,5.41591 -1.30382,5.58899 1.2413,-1.05538 4.48804,-5.14378 5.29899,-2.9576 -3.69127,1.11734 -5.62997,5.54789 -5.54404,9.40595 -0.0371,2.00158 -1.5176,4.20354 0.46569,5.16865 -5.84757,0.40721 2.201,2.8436 -0.85479,3.15559 z m 171.176767,-0.5504 c -0.233234,-2.97758 2.844934,-8.47093 0.178202,-10.19861 -1.048409,-3.5252 -1.099413,-7.06582 -1.398269,-10.66811 -1.316841,0.0947 -6.03485,-2.30629 -3.333804,-3.13262 -0.04213,-1.53393 1.341325,-2.2747 -0.108049,-1.53455 -1.763163,3.80909 -0.278675,-5.20092 1.991355,-0.73666 -0.761211,2.11039 -0.08582,5.85623 0.57729,2.25712 0.565267,-1.08354 -0.114449,-7.57865 1.556798,-2.8291 -0.152724,2.2916 0.227587,3.59381 1.727464,3.97298 -3.384743,1.08166 -0.289681,7.20488 -0.530614,10.4655 -0.588972,3.28192 1.945152,-0.2552 1.384276,3.15619 -0.734554,2.46899 0.179858,8.12568 -2.044649,9.24786 z m -1.376621,-22.52914 c -0.151073,-0.41431 -0.656131,1.13391 0,0 z m -2.621055,-0.12667 c -0.494866,-1.06868 -0.258224,0.6216 0,0 z m 6.880314,22.45112 c -3.562411,-1.20841 1.783954,-1.84332 0.397327,0.12012 l -0.397877,-0.12068 z m -177.660465,-0.53417 c -1.48207,-1.44656 -1.7062,-3.85902 0.19979,-2.35484 1.31028,-1.23808 0.52852,3.51063 -0.19979,2.35484 z m 182.41404,-0.2334 c 0.588914,-3.3395 -2.942004,-0.26681 -1.022247,-3.16022 0.731904,-2.85838 2.839033,4.51041 1.022247,3.16022 z m 2.523156,-1.87938 c 0.07463,-3.2542 3.854974,-1.76163 0,0 z m -6.41359,-0.48966 c -3.787986,-3.2383 2.891379,0.0404 0,0 z m -179.947166,-0.8835 c -0.19399,-2.29768 1.85509,-7.8455 3.60296,-7.4178 -1.64307,2.00478 -2.27612,6.38069 -3.60296,7.4178 z m 186.186201,-0.68156 c -0.608954,-2.7142 2.452532,-3.5806 0.802903,-0.38128 -0.05161,0.33647 -0.522253,0.80133 -0.802903,0.38128 z m -184.341911,-1.34137 c 0.47388,-2.50181 3.11851,0.58008 0,0 z m 7.51696,-0.53084 c 0.049,-1.97823 0.78381,-4.43297 -0.16302,-6.12116 2.22755,0.19836 0.41303,4.32133 3.30356,1.97683 2.1469,-2.27776 3.44258,-0.59755 0.57444,0.75535 -2.41803,0.31988 -2.58529,1.91027 -3.71498,3.38898 z m -0.99079,-0.61212 c -1.19503,-1.95753 0.45499,-4.05559 0.71394,-1.0384 0.24467,0.42218 -0.12288,1.60578 -0.71394,1.0384 z m 8.34616,-3.88853 c -0.14115,-1.77815 -2.11713,-7.81192 -2.21048,-6.47406 -1.27283,1.2754 -3.90024,0.36981 -2.35153,-0.96245 0.14502,-2.57779 -2.45874,3.03998 -2.36405,-0.67944 -0.383,-2.60027 -2.44434,1.63959 -3.05969,-1.47254 -0.90018,-1.88394 0.75355,-3.37515 1.18089,-4.0572 -0.5577,-1.63697 4.00258,-6.2994 1.87118,-2.02336 -1.92683,2.14248 1.16213,2.78985 -0.18198,5.28786 2.28942,3.1645 0.58309,-1.70903 2.9367,-1.11153 -1.28816,-1.8721 -0.27643,-3.40822 0.90939,-0.7993 0.76823,-0.93968 1.18679,-5.21833 -0.93181,-5.11991 0.35065,2.42148 -2.30749,2.67414 -1.78031,5.0843 -2.57564,-2.15948 1.84227,-5.04843 1.86619,-7.52374 0.76316,-2.56598 4.26476,0.51861 2.94528,-3.19592 1.96878,0.78136 4.14018,2.72466 4.27706,-0.9105 -1.80731,2.04972 -3.8782,-0.70951 -4.09092,-1.65406 -0.94504,0.40796 -0.97558,-0.95322 -1.93213,-0.45556 -1.7716,-0.10872 -2.02384,-6.99762 1.27564,-7.51651 0.61008,-2.78095 5.846363,-5.22123 8.130762,-4.34922 1.930754,1.53639 1.453938,4.40123 0.283307,4.64283 -1.699693,3.61365 -0.818574,-1.78311 -0.447235,-3.23648 -1.618491,-2.29159 -3.503464,1.27161 -3.536744,3.15755 1.062365,1.88721 1.204429,-2.70452 2.036752,-2.24351 1.45458,-2.4706 0.527127,3.60639 -0.137122,3.84219 1.911537,2.67325 -0.427961,2.07348 -1.176519,0.24758 0.322069,0.87382 2.168937,5.34216 0.405911,3.37026 -0.03537,-2.78905 -3.964662,-2.45163 -1.956232,-4.19114 -1.84764,-0.16616 -4.45953,1.3897 -2.78863,3.52774 0.32699,1.91227 1.7392,6.39046 2.35613,2.60218 -3.43427,-0.74607 1.51536,-2.3394 1.20178,0.76641 0.11886,0.85613 2.216194,-3.65388 1.385022,-0.22667 -1.930702,2.31348 2.1015,2.74044 1.192721,5.40787 2.422496,1.50023 -2.019469,0.61586 -1.407586,-1.75741 -0.807507,1.11737 -3.092397,4.53016 -5.128467,3.33799 0.56107,-3.2923 -4.06132,-0.38985 -1.58269,0.52079 2.1827,-0.36256 0.1676,1.98012 1.03977,3.47902 -1.66748,2.23785 2.60701,0.98416 0.18728,2.77475 -3.18494,-0.90623 0.49375,5.48271 0.60835,4.09431 -1.48822,-1.30718 -1.88522,-5.23647 -0.11457,-1.89168 0.69291,1.48141 2.6084,4.16299 0.7933,1.00584 -1.6926,-1.39389 -0.61369,-4.71027 0.21866,-1.49494 0.33335,2.20021 4.145358,4.94666 1.74797,1.40531 -1.41443,-1.07161 -2.9593,-6.06038 -0.60722,-2.61138 1.27953,1.95662 2.06594,3.90265 1.93577,0.94554 -1.09656,-1.98803 -2.32726,-4.77661 -4.44912,-3.31477 1.41509,-1.14878 -1.09899,-2.92214 1.8492,-2.89454 -0.9927,-3.23994 3.389757,-0.4599 5.133534,-2.28088 0.04044,2.23201 -6.285144,1.29336 -3.934394,3.53897 0.6165,3.18277 3.804463,4.4659 3.767369,8.41675 0.179869,-3.17635 -1.08875,-6.64517 -2.783319,-9.16458 1.339908,-2.16252 2.917438,4.19502 3.503353,5.63098 3.362097,1.94288 3.750521,-4.32819 3.502254,-6.87628 -0.09148,-2.31416 -1.487275,-4.36181 -1.645233,-6.68369 1.59439,0.30209 2.073346,4.39071 2.51753,6.46143 0.121967,3.29157 0.03463,8.41291 -3.803223,8.87813 -0.680249,-0.95513 -0.126597,4.15236 -1.659756,5.17407 -0.931616,2.80151 -2.251905,3.67477 -1.653648,0.65671 0.247796,-1.5646 -1.473267,-4.92568 -0.449677,-1.19296 0.441952,1.85981 -0.60328,2.51556 -0.78094,4.08712 -1.33914,-1.35355 -3.02764,-7.40352 -1.77515,-1.8912 0.0673,0.5637 0.94278,2.49178 -0.33869,1.91293 z m 0.90277,-4.27899 c -0.71551,-1.75375 0.42823,1.85021 0,0 z m 4.031256,-1.45734 c -0.763922,-0.58527 0.08947,0.89459 0,0 z m -0.590924,-1.5614 c -0.714695,-2.47256 0.396544,2.29312 0,0 z m -7.760262,0.22332 c -0.79492,-0.40936 0.2963,0.57071 0,0 z m -0.54104,-1.71401 c -1.25833,-2.64674 -1.31945,-1.65422 0,0 z m -4.2525,-3.56165 c -1.65391,-0.30497 0.17578,1.13149 0.10616,0.47882 l -0.10614,-0.4793 z m 8.05883,-7.3067 c 3.19312,-2.1032 -2.44297,-1.47916 -4e-5,2.5e-4 z m -1.31681,-7.61511 c -1.16778,-3.8458 -0.0924,1.73257 0,0 z m -1.46194,-0.62817 c -0.99711,-2.35167 3.57258,-5.33461 0.81329,-4.42296 -1.78804,-0.31282 -0.86806,7.90054 -0.81329,4.42296 z m 5.06317,-5.59991 c -2.79778,-0.71923 3.423403,-4.12324 -0.58417,-2.30886 -2.54091,1.04195 -3.47636,2.87769 -0.0646,2.38246 l 0.65961,0.1162 -0.0108,-0.18991 z m 4.926889,-1.10265 c -0.153242,0.038 0.114759,0.3788 0,0 z m -12.148419,34.08412 c -0.63725,-1.46896 -2.53374,-5.00231 0.15142,-2.29334 0.34123,0.41823 1.1698,2.85523 -0.15142,2.29334 z m 166.020175,-2.2993 c -0.482369,-1.83589 -0.750702,-10.67048 1.51143,-5.48028 -0.04276,1.72009 3.009204,7.18091 -0.511443,3.62185 -0.87395,-1.09984 0.34221,2.82276 -0.999987,1.85843 z m 1.593752,-2.71996 c -1.436299,-2.67967 -1.072697,1.04898 1.55e-4,-1.1e-4 z m -0.842153,-2.28254 c -0.119902,-0.80745 -0.27497,0.41366 0,0 z m -169.602354,1.13865 c -4.03794,0.0662 1.62102,-2.27411 0.57032,-0.008 -0.0129,0.0262 -0.57529,0.22193 -0.57032,0.008 z m 183.307776,-3.03607 c -3.130412,-2.17561 2.856841,-6.47125 2.136231,-2.61295 -4.08427,-1.04384 -0.527,1.35834 -2.136231,2.61295 z m -168.350878,-1.09934 c -3.537711,-1.48687 0.899373,-2.30914 0.622439,0.14501 l -0.304673,0.0941 -0.317766,-0.23924 z m 153.991241,-0.92621 c -0.970324,-1.12443 -0.234564,-5.26647 1.33472,-3.835 -2.391434,0.96385 2.455453,2.75441 -0.680402,2.28465 -0.918842,0.50276 1.38543,2.65678 -0.654318,1.55035 z m 5.363699,-1.97332 c -2.282601,-1.28002 -1.177599,-3.5494 0.455629,-0.7928 0.683799,0.27773 0.04772,1.30313 -0.455629,0.7928 z m -170.540988,-0.58954 c -1.10004,-2.47204 3.29548,-0.85924 0.36565,0.19905 l -0.36565,-0.19903 z m 171.583982,-0.14352 c -1.430074,-2.29701 2.563771,0.51067 0,0 z m -160.086501,-0.15642 c -1.748947,-1.73025 -0.7315,-4.81572 0.511438,-1.38806 1.718594,0.21046 0.189241,1.48328 -0.511438,1.38806 z m 164.535605,-0.31946 c -2.423739,-3.04561 3.054007,0.50345 0,0 z m 2.25167,-0.54108 c -0.776005,-1.45464 -0.514545,-3.98824 1.629516,-2.59294 1.149235,2.53411 0.723783,2.99418 -1.629516,2.59294 z m 0.964336,-1.86946 c -0.498316,-0.76207 0.213942,0.85401 0,0 z m -8.368059,1.67818 c 0.332719,-2.4701 3.044451,0.54826 0,0 z m 3.153441,0.11096 c 0.08182,-1.22106 -0.582794,-6.13738 0.966713,-2.64566 0.05584,0.78966 0.08674,2.76206 -0.966713,2.64566 z m -10.215278,-0.35969 c -0.170632,-2.69973 6.372821,-0.53854 1.623408,-0.17963 -0.5311,-0.0662 -1.114533,0.34963 -1.623408,0.17963 z m -4.286267,-0.64413 c -1.661674,-1.27787 0.684909,-3.84774 0.820306,-1.70379 1.240899,-0.21442 -0.485591,2.43673 -0.820306,1.70379 z m -147.884701,-0.88779 c -0.01411,-2.33969 3.69561,-0.26606 0.194767,0.13453 l -0.194699,-0.13453 z m 155.442626,-0.75249 c -2.1174,-1.67314 0.637131,-5.13541 0.404536,-0.9264 0.896903,0.4929 0.513217,1.73536 -0.404536,0.9264 z m -5.389262,-0.40916 c -0.418584,-2.10433 2.747645,0.19772 0,0 z m -150.422877,-0.13585 c 0.144603,-2.84224 3.632435,0.26499 0,0 z m -15.537105,-0.0371 c -2.31283,-1.10776 1.57787,-5.74506 0.93026,-2.10365 0.21621,0.51066 -0.26404,2.41123 -0.93026,2.10365 z m 181.467808,-0.10848 c -0.367937,-5.94107 0.141666,-12.04793 -0.348231,-18.05968 -0.246121,-4.32727 -0.191783,-8.81626 -0.730518,-12.99345 0.108685,-9.61848 -0.01066,-19.23633 -0.510847,-28.83785 0.333999,-7.87301 -0.76361,-15.65956 -1.3324,-23.4798 -0.151177,-2.97999 -0.167431,-5.96479 -0.198568,-8.9483 2.316738,-2.76854 0.861269,4.36726 1.119633,5.92445 0.456509,4.55783 1.544929,9.05343 1.28599,13.69413 0.266833,15.96534 0.648706,31.9267 1.133713,47.88761 0.302396,7.50687 1.298123,14.95895 1.063366,22.48706 0.487384,1.15902 -0.7293,2.28962 -1.482138,2.32583 z m -7.840545,-0.46458 c -0.02073,-2.44274 3.057883,0.64136 0,0 z m 3.060548,-0.11265 c 0.592892,-2.4388 2.804958,0.67533 0,0 z m -11.042809,-0.43204 c -2.755554,-2.73191 4.238359,-0.41507 0.132907,0.12873 l -0.13289,-0.12873 z m -163.629682,-0.32886 c -2.05589,-0.82898 -0.67552,-6.00176 1.07848,-3.09143 1.19274,1.47699 -2.50951,0.53214 0.21783,1.71659 -0.53335,0.89381 0.6034,1.77637 -1.29631,1.37484 z m 174.131004,-1.02129 c -2.002108,-0.0541 0.158144,-3.05342 -1.428652,-3.56551 0.109925,1.812 -1.894691,4.46493 -1.182217,0.7667 -1.208562,-1.74792 1.205829,-1.47252 0.957924,-3.23576 0.75568,0.51329 3.076726,4.42949 1.526983,1.75332 0.325625,-2.15029 2.665467,2.03382 3.177735,2.33208 8.47e-4,3.02847 -1.437877,-0.63678 -2.713045,2.00558 l -0.338831,-0.0567 z m 0.538683,-1.16147 c 1.115125,-2.2681 -2.014692,0.29495 0,0 z m -172.803837,0.22276 c -0.83436,-2.5106 5.19602,-3.95263 1.86988,-1.49731 -1.33336,-0.31598 -0.63392,2.49196 -1.86988,1.49731 z m 10.46428,-0.27213 c -0.161364,-5.46515 2.324939,-10.57572 3.018786,-15.95612 1.493421,-6.18014 3.079906,-12.33301 4.03718,-18.63377 1.933708,-6.82992 4.013468,-13.69438 4.431362,-20.87857 1.517489,-8.99071 5.029171,-17.40193 6.472705,-26.41328 0.983173,-4.29568 2.435617,-8.49014 3.107432,-12.82868 0.633232,-3.57774 2.596944,-6.21846 1.720086,-9.62033 2.337243,-1.0417 1.002361,-4.9049 2.554446,-6.00074 -0.510759,-1.05737 1.110403,-7.50516 1.425253,-4.75477 -0.260916,2.95559 -0.708909,5.57733 -1.6685,8.30706 0.22979,2.19386 -2.406439,2.83571 -1.015294,5.03485 -0.44488,1.64178 -1.308197,2.67282 -0.365605,3.89171 -2.210234,1.05731 -0.527449,4.86047 -1.992731,7.31863 -1.723325,7.26333 -3.032928,14.65876 -5.044559,21.84267 -2.912991,8.73013 -4.114527,17.94566 -5.912378,26.98106 -1.564631,4.29565 -2.698418,8.65945 -3.426325,13.20416 -1.93411,8.51569 -3.616473,17.09981 -5.769731,25.5514 -0.251243,0.99245 -0.135883,3.28027 -1.572127,2.95472 z m 156.620451,-0.16541 c -1.037751,-1.84893 1.016476,-4.82788 1.657948,-2.04849 0.252502,1.90103 -0.322972,2.18673 -1.657948,2.04849 z m -4.902343,-0.26041 c -2.10805,-2.70753 -1.393475,-7.58122 -2.051124,-11.16859 -0.498118,-7.00703 -0.927931,-14.1388 -1.897095,-21.02811 -1.609388,-5.49153 -0.953754,-11.40741 -1.482627,-17.08877 -0.780363,-11.27289 -1.440912,-22.56047 -2.199818,-33.83295 -0.03988,-4.0003 -1.879266,-7.95121 -1.622576,-11.79138 -0.920813,-0.7523 -0.329705,-6.34306 0.707451,-3.17366 -0.895797,2.37477 1.258791,5.1993 1.163229,8.3638 2.05346,8.5151 1.547823,17.37357 2.473093,26.05037 -0.04106,5.92759 1.130299,11.7161 1.43401,17.61178 0.294428,5.72323 0.837601,11.37526 1.642229,17.03033 0.809972,7.05433 1.147726,14.15047 1.584824,21.23318 -0.260247,2.14027 1.823141,6.86716 0.248404,7.794 z m -163.600768,-2.63547 c -2.07945,-2.0792 0.60963,-7.35974 0.67407,-10.54241 1.51612,-10.99928 3.89552,-21.8345 5.38171,-32.83572 1.1426,-7.04349 1.97187,-14.14874 3.240415,-21.17176 1.428037,-6.39676 1.509189,-13.04124 2.938309,-19.44269 0.574111,-3.4399 0.830157,-7.3394 1.531132,-9.11646 -0.49689,-2.66107 2.943079,1.93168 0.02813,2.11426 1.001622,3.62717 -0.969976,8.2613 -1.19639,12.27331 -1.218173,10.82165 -2.580381,21.63317 -4.391836,32.36404 -1.05415,7.66403 -3.00773,15.14 -3.71605,22.86644 -1.19488,7.82078 -1.86145,15.8084 -3.85882,23.42602 l -0.31769,0.14332 -0.31298,-0.0784 z m 1.25638,-8.85733 c -0.27011,0.41097 -0.29681,1.88829 0,0 z m 5.86847,-36.0932 c -0.15324,0.038 0.11476,0.37879 0,0 z m 1.74778,-11.14715 c -0.15324,0.038 0.11476,0.37879 0,0 z m 0.0778,-0.6967 c -0.13912,0.0864 0.1291,0.47566 0,0 z m 0.0819,-0.73286 c -0.13188,0.11096 0.118023,0.56942 0,0 z m 0.249545,-1.62185 c -0.346435,1.07453 -0.121538,1.44091 0,0 z m 0.06744,-0.49147 c -0.153047,0.0378 0.114108,0.37888 0,0 z m -2.551525,57.3654 c -0.0679,-3.47816 2.605042,0.20005 0,0 z m 1.3453,-1.47258 c -1.75641,-2.37576 2.962702,-0.1132 0,0 z m -2.64153,-0.18599 c -0.6808,-2.26803 3.51217,-0.0344 0,0 z M 93.094322,136.49023 c -0.456205,-1.19784 0.147885,-3.66795 1.653021,-1.64268 0.133806,1.16186 -0.662896,1.99842 -1.653021,1.64268 z m 0.732396,-1.4383 c -0.285914,-0.14239 -0.308082,0.24598 0,0 z m -0.952389,-3.67665 c -1.538725,-2.20529 2.6527,-2.93328 -0.110647,-3.31982 0.334506,-3.47066 3.299426,1.70344 1.471984,2.63937 0.69818,0.89034 -0.984625,1.16097 -1.361328,0.68045 z m -161.070503,-1.48172 c -3.683376,-1.38913 2.71838,-6.05304 0.846762,-2.37363 -2.750224,0.62293 1.408366,1.24847 -0.269346,2.57958 l -0.577398,-0.20601 z m 160.91524,-3.31008 c -1.751613,-1.77184 1.77867,-3.61435 0.701766,-1.06336 0.384403,0.58273 -0.01971,1.32671 -0.701766,1.06336 z m -21.483702,-0.66376 c -2.191573,-2.83215 2.587015,-1.9027 0.403757,0.22049 l -0.403654,-0.22047 z m -139.523846,-1.25444 c -1.683736,-1.77326 1.563585,-1.04723 0.190174,-2.96849 -0.522132,-2.24234 3.841773,-1.70631 0.855537,-2.51797 -1.256591,-2.25641 0.813034,-3.25521 1.63749,-3.46042 -2.923873,-0.54321 -0.819932,-3.35884 0.47953,-3.42765 -1.237099,-1.48886 -1.668006,-3.32496 -2.084924,-5.2908 2.07607,-0.44318 0.471274,-5.08868 2.77117,-3.72412 1.315469,2.89822 -1.587213,3.00765 -1.978531,4.67239 1.277362,2.83387 2.927503,-4.4958 2.723678,-0.29598 -1.457865,1.93835 -1.819519,3.33526 -0.448798,5.30943 -1.04784,1.11016 -3.421066,1.01084 -0.737561,2.20133 0.834885,2.40826 -3.744099,2.32731 -0.374435,4.05938 0.444952,2.12643 -3.665938,1.84456 -0.917687,3.58869 -0.843307,0.89683 -0.08675,3.99016 -2.115643,1.85421 z m 1.045642,-0.46612 c -0.0069,-0.51278 -0.551382,0.37876 0,0 z m 159.5051,-0.44989 c 0.462086,-1.71287 -0.183593,-2.30805 -0.151963,-4.18064 0.789949,-1.19145 2.255114,-0.87697 0.32992,-1.78632 1.824539,-1.88203 3.019503,2.19868 0.490557,2.24026 0.19169,1.5677 4.616003,4.07392 -0.668505,3.7267 z m 1.602974,-0.94082 c -0.827823,-0.5619 -1.423088,0.59221 0,0 z m -23.004646,0.39301 c -1.027198,-2.10151 0.627968,-5.19701 -0.6072,-6.99801 0.825454,-3.82454 1.701319,1.9561 1.148738,3.39293 0.224922,1.21607 1.240719,2.01984 0.141371,2.74495 0.994634,0.37575 -0.144055,1.46493 -0.682909,0.86013 z m 21.616207,-6.33924 c -2.048034,-2.22271 1.040098,-3.31093 -0.485867,-5.34766 1.021362,-3.45726 2.60539,3.2523 0.496824,3.62169 0.278291,0.67365 1.965444,1.9686 -0.011,1.72597 z"
       id="path5061"
       inkscape:connector-curvature="0" />
  </g>
</svg>
