<?xml version="1.0" encoding="UTF-8" standalone="no"?>
<!-- Created with Inkscape (http://www.inkscape.org/) -->

<svg
   xmlns:dc="http://purl.org/dc/elements/1.1/"
   xmlns:cc="http://creativecommons.org/ns#"
   xmlns:rdf="http://www.w3.org/1999/02/22-rdf-syntax-ns#"
   xmlns:svg="http://www.w3.org/2000/svg"
   xmlns="http://www.w3.org/2000/svg"
   xmlns:sodipodi="http://sodipodi.sourceforge.net/DTD/sodipodi-0.dtd"
   xmlns:inkscape="http://www.inkscape.org/namespaces/inkscape"
   width="335mm"
   height="335mm"
   viewBox="0 0 335 335"
   version="1.1"
   id="svg8"
   inkscape:version="0.92.1 r15371"
   sodipodi:docname="Park slide small.svg">
  <defs
     id="defs2" />
  <sodipodi:namedview
     id="base"
     pagecolor="#ffffff"
     bordercolor="#666666"
     borderopacity="1.0"
     inkscape:pageopacity="0.0"
     inkscape:pageshadow="2"
     inkscape:zoom="0.49497475"
     inkscape:cx="729.18957"
     inkscape:cy="580.40233"
     inkscape:document-units="mm"
     inkscape:current-layer="layer1"
     showgrid="false"
     inkscape:window-width="2560"
     inkscape:window-height="1365"
     inkscape:window-x="-9"
     inkscape:window-y="-9"
     inkscape:window-maximized="1" />
  <metadata
     id="metadata5">
    <rdf:RDF>
      <cc:Work
         rdf:about="">
        <dc:format>image/svg+xml</dc:format>
        <dc:type
           rdf:resource="http://purl.org/dc/dcmitype/StillImage" />
        <dc:title></dc:title>
      </cc:Work>
    </rdf:RDF>
  </metadata>
  <g
     inkscape:label="Layer 1"
     inkscape:groupmode="layer"
     id="layer1"
     transform="translate(2.44651,134.51918)">
    <path
       style="fill:#000000;stroke-width:0.26458335"
       d="m 43.365767,159.68152 c -1.702239,-3.58385 2.853286,-4.73913 4.983816,-6.45412 3.403322,-2.42484 7.806449,-3.34923 10.904862,-6.23213 6.008709,-3.53524 11.606601,-7.73213 16.800969,-12.37126 2.572959,-1.35469 -1.260715,-5.90292 -1.67956,-5.88679 0.747466,1.4739 1.285092,7.41678 -0.687902,3.35808 -0.149533,-1.36396 -4.455781,-5.10211 -1.992789,-4.7598 2.57259,3.07807 0.06838,-2.02125 1.10081,-3.36139 1.813452,0.28165 2.300532,-1.43251 0.375246,-0.82314 0.542958,-0.94768 2.048832,-4.72113 0.02939,-2.17078 -0.737967,3.78679 -4.08381,6.02549 -7.024207,8.13218 -2.99362,2.12393 -6.600363,3.22675 -9.33749,5.81983 -2.738383,1.67392 -5.77413,2.81996 -8.501897,4.60193 -1.031228,1.48535 -5.575179,1.6874 -2.567559,-0.21313 2.671159,-2.55518 6.382273,-3.55939 9.37204,-5.68658 2.305041,-1.34069 5.587867,-2.39566 6.791333,-4.80871 -0.217319,-3.25714 -0.823515,-6.56258 -0.495328,-9.9362 0.134032,-3.72171 -0.29909,-7.43596 -0.304243,-11.14715 0.01535,-2.85303 0.54728,-6.11782 0.402703,-8.910664 -0.215266,-3.00033 -0.419953,-6.10558 0.192299,-9.05947 3.576845,0.19024 1.356094,6.08934 1.952287,8.6531 -0.178207,6.110714 -0.903025,12.298034 0.33846,18.345864 0.387678,1.1636 -0.691488,4.14205 0.114573,4.45087 1.747555,-0.35622 4.41128,-0.37882 5.745604,-0.002 -0.622518,3.07428 -6.719772,-1.33285 -5.925292,2.8361 0.746709,1.8367 -1.869639,6.07995 1.534067,3.34443 2.913424,-1.33078 5.47811,-3.2506 5.535352,-6.71034 1.604232,-2.52278 2.387335,-5.89511 4.960821,-7.56704 1.601315,-2.65526 6.215009,-4.42657 3.994807,-7.64424 0.274096,-2.80537 0.220147,-5.743444 0.603713,-8.703444 0.578597,-3.42719 -4.185468,-3.68852 -5.887986,-5.80152 -1.555771,-1.3383 -3.28229,-2.45589 -4.939381,-3.66151 -1.566914,1.02582 -3.515603,1.23496 -4.88039,2.59992 -2.33995,-1.09417 -3.085303,-3.83196 -2.170177,-6.061567 -1.555445,-2.47725 -2.232057,-5.90493 -5.316641,-7.02607 -1.336671,-3.05029 -3.443976,-5.94558 -3.635787,-9.17955 -0.789321,-3.23948 1.183295,-6.12292 -0.01416,-9.37586 0.08735,-1.37524 -1.127712,-4.593114 1.211688,-3.432058 1.696903,-2.201091 -0.547612,-7.013944 1.777535,-7.92299 0.996273,0.619124 2.139538,-3.780915 2.768507,-5.059388 1.065673,-2.466942 4.852827,-4.174374 4.903914,-7.574126 1.66377,-0.277475 3.678025,-1.626333 5.301217,-2.926886 1.861364,-0.618658 1.22835,-1.863953 1.368078,-2.996418 2.360783,2.095499 4.70459,-2.225081 7.097721,-3.058143 3.243819,-1.397289 6.601804,-2.080308 9.848222,-3.241086 2.865837,-1.123041 5.096633,-2.788869 8.060793,-4.055138 3.175829,-1.139101 5.283275,-4.220535 7.503945,-6.63128 2.5217,-1.5209195 4.37441,-3.7666545 3.71541,-6.8952245 -0.16592,-1.424393 -0.13479,-2.707047 1.69529,-2.18456 2.18922,2.034718 0.45881,6.423675 0.99533,9.3193205 -0.009,7.169157 -0.43577,14.361451 -0.0564,21.516707 0.78521,0.55127 2.77575,-3.093372 4.05637,-3.718524 2.41433,-2.61177 5.66515,-4.075613 8.90035,-5.389371 0.95195,-0.501088 2.91539,-0.37908 2.20658,-1.903212 -0.48572,-4.325906 -2.98522,-8.129851 -5.65354,-11.44011 -2.38529,-2.1949585 -5.64004,-3.1593725 -8.72826,-3.8541025 -0.0323,-2.781158 4.21968,-2.353292 5.83437,-3.946714 2.85901,-1.535461 6.42062,-1.639507 9.49477,-2.84983703 3.26379,-0.851281 6.37619,-2.22906997 9.63486,-3.05596797 -0.64812,2.49031997 -5.27343,2.55386897 -7.63459,3.68396997 -1.43876,0.43048103 -2.87752,0.86096203 -4.31628,1.29144303 3.12453,0.452724 6.65494,0.03421 9.29078,1.999427 3.48629,3.647039 5.86811,9.0720375 3.78261,14.0352255 -1.13199,1.928032 -2.23472,4.874187 -3.5535,6.093875 -2.35174,-1.164173 -6.64465,0.157683 -8.65612,2.156545 -1.14162,1.913798 -2.1188,0.916422 -3.33638,0.507584 -2.45007,1.472156 -0.13103,5.399943 2.63175,3.919456 3.50848,0.316696 6.61945,-1.414607 9.91064,-2.258121 1.66327,-1.199071 4.92856,1.905822 4.30331,-1.199682 1.06587,-3.026708 -0.80667,-6.40775 0.81077,-9.311097 0.31167,-4.482378 -1.46956,-8.8156265 -0.98365,-13.2943485 -0.56387,-2.986731 -0.40624,-5.25915703 -0.0172,-8.216241 0.0506,-1.9345355 0.0894,-3.8693585 0.13441,-5.8040315 -3.53636,1.012373 -7.5435,-0.229296 -10.88952,1.464477 -1.32978,1.902046 -3.44514,-1.427886 -5.45528,0.208458 -2.37564,0.04064 -5.08478,1.991542 -7.10508,1.539066 -1.17873,-3.00043 3.35378,-4.971596 2.29846,-7.763923 1.49783,-1.959827 2.98313,-4.772011 4.05179,-7.465504 1.8903,-4.191312 3.56865,-8.46293 5.77273,-12.501111 1.47829,-3.791067 3.50693,-7.361475 4.6975,-11.294035 0.78815,-1.406183 2.49382,-4.483856 0.25162,-1.793423 -2.96574,0.595464 1.51061,-2.908 2.00503,-4.049404 2.71765,-3.674312 4.8598,-7.874753 5.73675,-12.38302 -0.65904,-1.518836 -4.55648,-4.812806 -0.54161,-4.889561 2.73689,-1.590528 0.86369,-6.78812 3.14167,-8.0697 0.97418,2.452162 1.32868,5.298146 1.45165,7.934552 1.09393,1.192167 3.29403,1.672405 0.70191,2.859545 -1.89518,0.635874 -0.76358,1.984112 -0.20544,3.183517 2.37285,6.083361 4.14847,12.378392 6.01574,18.630384 1.42638,3.343869 2.6959,6.746032 4.14269,10.096072 1.48995,4.197528 3.14366,8.341355 5.54798,12.110248 0.75629,3.291841 4.39493,4.438029 5.63504,7.222923 0.87221,1.220974 5.58266,4.052739 3.12782,4.530936 -2.56917,-2.145315 1.1162,3.012055 0.97122,4.355621 -0.0434,2.2067025 -2.09027,7.0609605 -4.40565,6.5440505 0.74309,-1.87481003 2.39716,-3.936134 3.74487,-5.806143 -0.88032,-1.7640225 -1.83201,-3.6110865 -2.81275,-5.3459015 -2.68885,-0.602944 -5.67789,0.166939 -8.23941,-0.491741 -2.6621,-0.100557 -6.29386,-1.169871 -8.51066,0.279612 -2.48324,-0.389659 -6.17298,1.013963 -8.34687,-0.873145 0.75934,-2.192994 3.01431,-4.199047 3.99059,-6.343072 1.18795,0.441627 0.52091,4.036931 1.49848,1.239647 1.77743,-2.13618 1.56134,1.566919 0.32341,2.433203 1.94574,0.626465 4.31347,-3.04316 1.30355,-4.178205 -1.71087,-1.268757 -2.63089,-3.047428 -2.57225,-4.606048 -1.07301,-2.402191 -4.21247,4.633072 -3.88645,1.04034 1.6989,-1.370633 2.30041,-3.082112 2.03568,-4.893653 1.18883,0.551347 1.71301,1.384636 2.45853,-0.703479 -2.26162,-2.815144 -3.99563,3.122573 -5.48696,4.592756 -0.16031,3.142292 0.20036,6.291445 -0.96789,9.411193 -0.10084,2.748332 2.05756,5.445164 1.22263,8.7681375 -0.17514,2.457496 -1.2472,6.269794 2.68265,4.47190497 5.24888,-1.17151197 10.65998,-1.19250197 15.98696,-1.76626697 1.99809,0.80931797 1.98214,-0.514294 1.98516,-2.085843 -0.90909,-2.2941925 1.79653,-6.0228605 2.72489,-2.5921385 -1.91419,3.1342495 0.39285,7.37957347 -0.16556,10.9847955 0.39767,2.073132 -0.0753,4.786906 2.26668,5.037853 -1.67539,2.9947785 -1.87851,6.3788515 -1.64252,9.7792315 -0.0611,5.001682 0.26041,9.993735 0.54365,14.976854 -0.5223,4.245014 0.66719,8.472205 0.32182,12.701743 -1.5617,2.330263 -0.55319,-3.344053 -3.32953,-1.282844 -4.94226,0.80461 -9.92239,1.380649 -14.92725,1.483967 -1.31188,-0.03045 -6.41414,2.558334 -3.74198,-0.143995 3.75036,-1.745622 8.10664,-0.780043 12.09185,-1.593913 2.62932,-0.303579 5.24507,-0.709959 7.85962,-1.118898 0.082,-2.406107 0.16396,-4.812215 0.24595,-7.218323 -5.55482,0.215433 -11.09869,-0.155179 -16.61928,-0.756115 -2.49692,-0.30575 -6.75598,-0.837195 -5.4536,3.04158 0.74745,3.554836 -0.46437,6.887517 -0.29214,10.412913 -0.39408,3.7423 -0.32298,7.492856 -0.008,11.242599 0.3704,6.77258 -0.0487,13.56837 0.6291,20.32566 0.42597,7.846667 -0.11019,15.747437 1.11061,23.539331 1.13498,10.51768 -1.38534,21.12105 0.52544,31.59078 0.65375,1.37373 0.41616,6.96181 -1.29106,4.08451 0.14673,-0.97941 -1.02479,2.00377 -1.66151,0.14301 -1.60789,0.66393 -2.86337,-3.76417 -3.09706,-0.72475 1.06854,1.97241 -2.46535,0.77745 -3.41421,1.95207 -2.02474,-0.76844 3.36095,-2.55124 0.34629,-2.91356 -2.08291,0.86604 -3.37881,5.63733 -5.10772,1.88339 -0.79321,-1.13078 -2.12349,-2.60711 -0.92218,-0.25138 -0.032,2.55123 -2.00009,-2.03518 -3.41319,0.85955 0.0632,0.0772 3.25417,1.96626 0.18172,1.39081 -1.57795,-0.31236 -7.37769,-1.24512 -2.79563,0.0344 1.73035,-0.25826 4.37194,2.3834 1.23899,2.09251 -3.30449,-0.80063 -6.46643,0.49488 -9.71382,-0.1876 -0.0568,1.65146 -3.41174,0.79071 -0.7414,1.59976 3.81689,2.4097 -3.26109,1.12502 -4.79821,0.76919 -2.961,-1.21869 -4.18246,1.89072 -7.40154,0.89333 -1.406647,0.0596 -3.452641,-0.42149 -1.539934,0.90234 -2.913924,1.34294 -6.461453,-0.55868 -9.625551,-0.40508 -1.292564,-0.30184 -4.836074,0.1741 -1.482629,0.52608 1.327517,-0.0854 6.951826,0.62246 3.237355,1.49214 -2.005297,-0.35301 -3.617563,-0.28457 -4.817196,0.95344 -3.955732,0.10992 -7.914682,-0.21276 -11.86799,-0.0166 -1.563455,2.51617 -5.697473,0.31665 -6.950468,2.97924 -0.487424,0.51152 -4.881426,-0.0545 -3.171029,0.72959 3.436028,2.67476 -3.238174,2.65737 -4.901475,2.92713 -0.217589,2.19155 -4.683739,-0.0319 -6.451393,1.25956 0.336895,-2.77719 3.857725,-3.44347 6.642628,-2.82602 1.285999,0.15649 6.096219,0.13854 2.279699,-0.70054 -1.78522,0.2191 -5.423475,-1.6655 -1.657765,-1.95783 2.436045,-2.04988 6.170717,-2.17513 9.296937,-3.07839 2.907035,-0.38394 5.773801,-0.95501 8.693772,-1.24429 3.69686,-0.15464 6.052351,-2.52446 9.787473,-2.32994 2.483265,-1.75481 5.852709,-0.71069 8.708575,-0.49681 0.509087,-0.15495 -0.536538,-2.19842 1.585542,-1.6409 3.343259,0.0584 6.620359,0.8239 9.938819,1.16529 -2.91189,-1.21608 -6.16566,-1.06875 -9.145487,-1.99974 -0.429184,-1.96475 3.132617,-0.60171 3.373847,-2.23276 2.66718,-0.46143 6.52618,1.78895 5.40435,-2.72868 0.13144,-7.69359 -0.76353,-15.35321 -0.77391,-23.0439 -1.28824,1.73276 -2.1219,3.75667 -3.20301,5.57312 -2.52251,2.05537 -4.978232,4.22771 -7.61745,6.17616 -3.069596,0.68679 -6.205517,2.52262 -8.639679,4.43943 0.154587,4.68643 0.427884,9.44885 0.343738,14.13133 -1.671674,0.87592 -2.116899,-0.27794 -2.037133,-1.7343 -0.368813,-3.74936 0.301623,-7.50697 0.137424,-11.25422 -2.411786,0.86191 -5.722138,1.59412 -4.24187,4.91088 -0.03645,3.08698 0.879308,6.47225 -0.470188,9.33853 -1.999606,-2.09943 -0.685546,-6.25264 -1.234549,-9.17988 0.140724,-4.29968 -3.942394,1.10509 -5.878785,1.70983 -2.303953,1.36293 -4.310995,3.14304 -6.481482,4.69549 3.698468,-0.60747 7.526136,-0.15313 11.15948,0.64533 2.021241,1.90607 -4.982237,0.98666 -6.137426,0.12036 -3.408444,0.10952 -7.10181,-0.18298 -9.667339,2.45319 -3.441638,0.66142 -5.663337,4.37452 -9.0333,4.80991 -1.993115,-1.86469 -4.027349,2.93366 -6.557588,2.66751 -0.960261,0.88761 -2.976097,1.17622 -3.267265,2.54126 0.0748,1.084 -1.051625,4.11076 -1.319284,1.1806 z m 15.274726,-9.94357 c 3.679115,-2.5611 -3.567827,0.78576 -1.991059,1.0749 0.760363,-0.11407 1.388638,-0.63931 1.991059,-1.0749 z m 4.107613,-2.84516 c -0.430777,-1.77579 -2.803547,2.86914 -0.226557,0.26471 z m 5.957113,-3.59045 c 2.45359,-1.0729 0.443734,-2.27389 -0.857027,-0.43166 -1.237397,0.40263 -4.979909,3.88023 -1.805601,2.24147 0.86044,-0.64181 1.753457,-1.2395 2.662628,-1.80981 z m 45.766761,0.50178 c -1.04402,-0.24882 -0.89701,0.39537 0,0 z m -1.86552,-2.24583 c 1.43709,-1.50254 4.14788,-0.40545 6.1613,-0.45762 1.78447,0.51231 0.47347,-2.29797 0.79784,-3.27332 -0.53195,-6.9216 0.20739,-13.89228 -0.45715,-20.8108 1.73358,-2.68213 0.37518,-6.28912 0.71508,-9.41843 0.0564,-7.03365 -0.37326,-14.050694 -0.5951,-21.073094 0.0442,-2.639777 -1.77361,-4.642477 -0.14254,-6.789377 -0.42797,-3.74021 -0.37657,-7.50264 -0.47702,-11.28769 -0.5967,-3.24147 0.28895,-6.37196 -0.36945,-9.646471 -0.33311,-4.08207 0.17043,-8.136639 0.61083,-12.180686 0.25684,-3.490366 0.0612,-6.979497 -0.60952,-10.409538 -0.53692,-2.483266 0.30318,-5.946637 -0.0698,-7.874903 -2.53046,1.869032 -4.25642,4.643887 -6.71676,6.532505 -3.36788,1.65737 0.005,6.080085 -0.92658,8.983886 -0.008,11.001431 -0.40374,22.009797 -0.028,33.004877 -0.90372,5.45082 0.34801,10.910887 0.25232,16.384927 -0.3332,2.82794 0.9192,6.31709 -0.78136,8.706694 0.72105,2.26848 0.45374,5.55636 0.61079,8.28437 -0.38208,6.23915 0.73543,12.44839 0.34512,18.67892 -0.61191,3.1604 -1.70323,6.05557 -0.75139,9.35107 0.13764,1.25704 0.27529,2.51406 0.41293,3.77109 0.60415,-0.11867 1.9222,0.41665 2.01853,-0.47641 z m -38.57667,-2.74351 c 2.72181,-2.85999 -6.253859,3.40349 -2.094356,1.31857 0.721845,-0.39885 1.441163,-0.81225 2.094356,-1.31857 z m 51.19936,1.14258 c 2.23993,-0.79309 -1.00083,-5.72896 -1.69652,-2.15148 -1.36822,0.0367 -2.3352,3.29746 -1.15156,3.72209 1.87402,0.55255 1.65055,-0.56057 2.84808,-1.57061 z m 7.01542,-0.70079 c -0.85048,-0.9752 -3.27612,-5.4707 -0.49859,-3.01408 0.5062,2.0064 3.15815,2.61464 1.20374,0.23614 -0.19818,-3.60628 2.71761,0.98078 3.27133,2.44848 2.96505,-0.65182 -3.05535,-5.15956 0.33009,-3.91323 1.94865,-0.78955 3.27744,0.51485 2.36276,2.55092 0.35083,2.36754 2.68017,2.44343 1.99302,-0.19642 -1.73324,-1.07351 1.44332,-4.53133 -1.27436,-3.96396 -3.45419,-0.0959 -6.97955,-0.28651 -10.35302,-0.99941 -0.65933,-2.86927 0.90018,-6.32431 -1.51844,-8.6176 -2.13328,0.98147 1.62987,2.14776 -0.0995,4.18541 0.72913,1.53377 1.24324,3.98113 -0.11748,4.57959 2.06347,2.33365 0.93136,5.30879 2.55018,7.55527 0.64277,1.76862 1.46633,-0.15579 2.15025,-0.85111 z m -53.012869,-3.28601 c -1.385616,0.0742 -3.402212,2.19912 -0.878186,0.53374 l 0.392761,-0.22415 0.485423,-0.30954 z M 124.4295,134.0465 c 2.00941,-0.45022 0.90695,-4.994 -0.45671,-1.85512 -2.66923,1.88121 2.12341,-5.47256 -1.15222,-3.37518 -0.5675,2.76787 -0.34436,5.64661 -0.52224,8.46612 0.73961,-1.05255 1.68282,-2.01452 2.13117,-3.23582 z m 3.01364,0.96342 c -1.4519,-3.1773 -1.61766,1.25682 0.40733,1.45591 0.0714,-0.52615 -0.22394,-0.99141 -0.40733,-1.45591 z m -48.221719,-3.00439 c 1.308944,-0.55209 -2.238572,-0.3818 -0.259302,-1.68353 0.869337,-2.51653 -4.013355,-0.75917 -1.644854,0.73455 0.539872,0.64299 0.961589,2.1953 1.904156,0.94898 z m 2.917659,-0.0471 c 0.681723,-1.72388 -2.252647,1.49263 0,0 z m 58.60895,-2.13673 c 0.12573,-2.45773 0.74523,-8.11899 -3.06674,-5.51397 -2.32776,0.5897 -4.71207,0.88714 -7.09356,1.15853 -0.0963,1.96171 -0.19258,3.92342 -0.28887,5.88514 3.37415,0.69414 6.82146,0.6633 10.24939,0.75503 0.0666,-0.76157 0.13319,-1.52316 0.19978,-2.28473 z M 85.112189,129.433 c 2.220858,-3.17312 -3.875553,2.06455 -0.604949,0.46798 z m 42.019461,0.79641 c -1.97778,-3.85053 -0.0225,3.42827 0,0 z m -35.776175,-1.01968 c -1.276569,-0.14227 -1.145065,1.367 0,0 z m -10.457879,-0.84359 c -2.371908,-3.06805 -1.393423,3.25757 0,0 z m 13.903798,-2.20501 c 4.031129,-0.88738 5.641976,-5.23815 4.46148,-8.92587 -1.026884,-4.10795 -4.612859,-7.04982 -8.178237,-8.98298 -0.523433,2.52407 2.158245,5.99839 1.871998,9.11211 0.233161,3.58236 -0.867974,7.18585 -3.408699,9.78217 -1.410024,1.30842 -1.612263,2.6536 0.498429,1.1929 1.570638,-0.75683 3.158232,-1.47852 4.755029,-2.17833 z m -17.950083,0.68938 c 0.332751,-1.49354 -4.169871,-1.80166 -2.102257,0.0173 0.671861,1.91367 1.260346,1.85906 2.102257,-0.0173 z m 5.920786,0.51017 c -0.93019,-3.60423 -3.285734,2.43724 0,0 z m 5.77577,-1.46334 c 0.649108,-0.7232 3.861462,-5.21576 1.918446,-3.83345 -0.389501,1.55429 -3.408889,4.77771 -3.019289,4.89763 0.389914,-0.32994 0.755626,-0.68793 1.100843,-1.06418 z m -9.322513,0.82 c 0.315714,-1.19556 -1.251196,0.97459 0,0 z m 46.682766,0.77802 c -1.23568,-3.43129 -1.03404,1.25686 0,0 z m -2.2454,-1.18515 c 1.40137,-1.11022 -0.029,-4.37142 2.55065,-2.85293 2.0296,-0.70925 -0.32243,-3.34749 -1.16676,-1.23065 -0.8846,0.94715 -2.19863,1.73343 -2.81165,2.78234 0.37263,1.18046 -0.36949,3.93273 1.42776,1.30124 z M 83.957628,125.5008 c -1.419922,-0.37352 0.305558,1.65528 0,0 z m -5.708584,0.11182 c 0.450914,-3.28063 -2.7795,0.97503 0,0 z m 2.751966,-0.13608 c 1.700303,-1.84599 -2.526535,0.85845 -0.45195,0.30707 z m 4.487487,-0.84875 c 0.548352,-1.2845 -1.442771,1.25371 0,0 z m -5.596368,-0.52503 c 1.413166,-3.05659 -2.886315,1.57467 0,0 z m 3.223461,-0.0672 c -0.791251,-1.90729 -1.568258,1.94405 0,0 z m -6.070793,-0.68885 c -0.893836,-0.6258 -1.186884,0.98868 0,0 z m 10.481435,-0.32086 c -1.371938,-0.1751 -0.02931,2.1884 0,0 z m -2.964564,0.49908 c 1.700896,-2.78807 -2.474536,-0.008 0,0 z m -2.883815,-0.84344 c 1.036004,-2.2058 -2.554247,1.11752 0,0 z m 20.120917,-0.51776 c 2.25827,-2.43326 -2.140587,-1.90139 -1.35685,0.41235 -0.559637,1.94399 1.0124,0.10042 1.35685,-0.41235 z m -22.861346,-0.50512 c -1.40682,-1.10228 -1.875656,2.63736 0,0 z m 56.615216,1.90737 c 2.78412,0.45571 7.76355,-3.94816 2.58826,-3.95001 -2.48047,0.0288 1.0434,4.18285 -1.98076,1.93337 -0.9354,-2.09161 -3.69926,3.18584 -4.18684,-0.49784 0.44766,-2.76366 -3.25912,-1.49778 -1.09457,0.21384 -0.14211,3.8279 -2.33181,-2.61192 -3.58853,-1.76595 0.005,2.92982 2.85715,4.43697 5.35229,4.48245 0.97821,-0.071 1.94839,-0.22717 2.91015,-0.41586 z m -48.848698,-1.64393 c 1.096929,-3.33276 -3.072886,1.41869 -10e-7,2e-5 z m 38.503048,-2.1551 c -1.53306,6e-5 -1.99671,-0.49048 -1.04316,-1.88125 -0.79647,-1.98354 0.93062,-2.02529 1.88549,-0.75081 0.63364,-1.85455 -3.95741,-3.65649 -0.40244,-3.77902 3.36193,-0.80614 6.98975,0.0841 10.22915,-0.98323 3.1608,2.0972 5.28952,-1.08735 4.65939,-4.12371 0.76463,-3.32092 -0.47152,-6.73997 -0.61583,-10.095104 -0.53158,-2.84781 0.12541,-6.05439 -1.15215,-8.62346 0.0261,-1.76492 0.26048,-3.51908 0.3961,-5.277887 -5.11933,1.932487 -10.63788,2.716877 -16.09559,2.536347 -2.72085,1.85538 -0.74237,6.81522 -1.05991,9.89213 0.20303,3.320814 0.2935,6.647164 0.41298,9.971694 4.42388,0.64875 9.0636,-0.0631 13.40207,-1.12359 1.26665,-0.24473 5.26329,-3.34751 3.45376,-0.48887 -3.56719,2.61045 -8.24602,2.55379 -12.47304,3.05152 -1.34619,0.2786 -3.35679,-0.17541 -4.41583,0.35493 -0.25944,4.87006 -0.14619,9.74321 -0.0215,14.61544 0.94735,-1.06363 2.44875,-1.89598 2.84053,-3.29513 z m -1.47647,-8.94715 c 0.67015,-2.21173 5.53994,-0.26099 7.74664,-1.32401 1.21409,-0.57982 7.06243,-0.13505 4.05611,1.23349 -3.94037,-0.57696 -7.93546,1.14462 -11.80275,0.0905 z m -40.248513,10.47792 c 1.199952,-2.3004 -2.840261,1.47691 0,0 z m -5.83321,-1.10105 c -1.384877,-1.86154 -1.412501,2.29639 0,0 z m 2.62226,0.61987 c 0.635572,-2.44649 -2.248646,1.39101 0,0 z m 5.641006,-1.67 c -3.026478,0.0708 -1.114909,2.62446 0,0 z m 2.538689,0.99221 c -0.819149,-1.35375 -0.67293,1.54336 0,0 z m 3.243015,-1.04791 c -0.597398,-1.33789 -0.52774,3.10205 0,0 z m -9.256828,-0.26999 c -1.064701,-1.18769 -2.27048,2.23074 -0.199309,0.26057 l 0.19931,-0.26059 z m -3.166624,-0.0402 c -1.296424,-1.13194 -0.667635,1.44886 0,0 z m 22.693275,0.34424 c 1.78472,-1.98878 4.10736,-5.42919 1.04083,-7.41627 -3.177607,-3.32315 -7.389918,-5.8292 -11.892998,-6.78316 -3.119696,-0.20234 -0.785494,-3.89584 1.658795,-2.98244 4.711401,-0.19067 9.899973,0.29074 13.775473,3.2132 1.58681,2.12924 -1.77898,2.79584 -1.36094,0.48383 -4.17809,-2.68916 -9.380412,-2.69673 -14.150727,-2.30061 2.871468,1.06007 6.383032,2.48988 9.179547,4.31134 2.0499,0.91213 4.15861,5.08709 5.80292,4.54659 1.09115,-2.66733 1.28435,-5.67988 1.93293,-8.49404 -0.12715,-2.74084 -2.8265,-4.425904 -5.58397,-4.895174 -3.946773,-0.50228 -7.784916,1.09733 -11.543756,1.350824 0.613887,-2.016144 5.435885,-2.261064 7.904548,-2.435634 3.302148,-1.08038 7.827418,1.50465 9.535438,2.19158 -0.23156,-3.43015 -1.44717,-6.6191 -3.01851,-9.52802 -2.29392,-1.84728 -4.53483,-7.501657 -7.941509,-4.72313 -2.460802,1.29637 -7.239415,3.10553 -3.480384,5.94093 1.673594,3.09885 -2.618922,3.04868 -3.64282,2.7599 -1.37813,3.42536 -3.717429,-1.61743 -5.650787,-0.0632 1.662667,2.56653 5.169565,4.23764 4.89117,7.754214 0.399283,1.52345 -2.752867,3.14359 -1.27608,4.17491 1.553068,1.68579 3.48304,-0.32195 5.08982,1.88045 3.434281,2.32235 6.9911,5.4176 7.31756,9.85217 0.23209,1.09567 0.079,2.70552 1.41345,1.16169 z M 89.191546,98.827356 c 1.311037,-2.56865 4.925557,-3.74977 7.442704,-5.26429 1.595,-1.51117 6.6309,-2.37482 6.65331,0.13064 -3.291857,-0.95338 -6.422258,0.92171 -9.327848,2.6358 -1.475007,0.37652 -3.404325,3.34363 -4.768166,2.49784 z m 45.582394,21.140974 c -0.11698,-2.51869 -3.7897,-2.3307 -1.52108,0.13027 0.34767,0.70718 1.11128,0.0686 1.52108,-0.13027 z m -59.506869,-1.93561 c -0.59913,0.14663 -0.538628,1.45922 0,0 z m 12.068711,0.59795 c 1.042249,-2.30825 -2.41227,1.21709 0,0 z m -5.962928,-1.277 c -1.234675,-0.86356 -1.953862,1.9775 -0.230277,0.16483 z m 3.084049,-0.31206 c -2.134665,0.0281 -1.916668,2.62998 0,0 z m 53.232547,1.35644 c 1.20792,-0.52639 -1.41389,-3.62868 -2.46376,-2.34616 -1.83353,0.98749 1.03143,4.59111 2.46376,2.34616 z m -7.32505,-0.2561 c -1.69531,-3.9399 -3.0019,2.51877 0,0 z m -46.786333,-2.44984 c -0.978572,-0.73086 -2.179396,1.98654 -0.209522,0.31687 z m -3.088684,-3.48338 c 0.95683,-0.57507 3.059779,-2.9513 0.571767,-2.03974 -0.937155,1.60658 -4.842443,5.16988 -4.518834,5.4967 1.348999,-1.11144 2.484489,-2.48987 3.947067,-3.45696 z m 5.459137,3.96698 c 0.379364,-1.24062 -1.549352,1.25894 0,0 z m 4.343434,0.0747 c 1.856439,-3.23665 -1.812643,0.12919 0,0 z m 42.008896,0.6935 c 1.27218,-3.61851 -3.83987,-0.69185 -0.35581,0.33125 l 0.35582,-0.33125 z m -52.414559,-2.16902 c -0.916931,-0.61742 -2.036296,2.13775 -0.217651,0.29877 z m 60.597759,0.72454 c 1.03689,-2.72108 -4.13071,-1.56036 -1.31552,0.0606 0.15614,0.95796 -0.64869,1.91686 1.18341,1.31126 0.15512,-0.44284 0.10258,-0.91436 0.13211,-1.37191 z m -55.421797,-0.55327 c 0.177801,-1.49145 -2.074471,1.05209 0,0 z m 2.64509,0.0627 c 0.178011,-1.1702 -1.727719,1.05525 0,0 z m 40.864037,0.62006 c -0.1299,-2.14598 -3.5918,-1.16787 -0.87636,0.17912 0.19702,0.24509 0.94427,0.36067 0.87636,-0.17912 z m -41.602302,-2.40416 c -1.7352,-0.0824 -1.003208,2.03328 0,0 z m -5.454498,0.19927 c 0.376503,-1.30173 -1.565371,1.27658 0,0 z m 2.648699,-0.0895 c -1.044638,-0.57735 -0.966778,1.30018 0,0 z m 50.723471,1.27224 c -1.50761,-1.44177 -1.23722,1.22379 0,0 z m -4.50271,-0.31628 c -0.8548,-0.31188 -0.72297,0.47423 0,0 z m -44.617,-1.94623 c 0.799778,-1.67059 -2.07201,0.8645 0,0 z m -0.98033,-1.55537 c 0.842394,-1.19401 -1.645829,1.49527 0,0 z m 2.825504,0.067 c -0.819154,-1.35373 -0.672926,1.54336 0,0 z m 1.230819,-0.89711 c -0.757245,-1.62415 -2.714879,-2.87763 -0.617814,-0.47835 0.124384,0.1523 1.021274,1.25213 0.617814,0.47835 z m -4.081564,-1.08924 c 0.772756,-1.19668 -3.610874,-0.2963 -0.79466,0.60187 0.227456,-0.24067 0.433746,-0.55829 0.79466,-0.60187 z m -1.018774,-2.87246 c 1.638996,-0.27779 2.236332,-1.6205 1.625741,-2.64959 1.752258,-0.87875 1.081853,-4.492784 -0.829734,-4.057414 -1.204177,-2.08719 -2.552809,-2.61055 -2.149653,0.39001 0.520636,1.580434 -1.829619,7.677324 1.353646,6.316994 z M 87.21667,93.153046 c -0.854874,-0.31189 -0.722885,0.47426 0,0 z m 5.89588,-0.42813 c -0.832557,-3.0142 -2.354592,1.23206 0,0 z m -7.233728,-0.68207 c 3.393325,-0.61248 2.018172,-5.02027 5.768505,-4.88997 2.201178,-0.78888 5.414909,-2.409037 6.73358,-3.862867 -1.956665,-3.1938 -6.061368,-0.58351 -7.854651,1.49506 -2.772657,2.364117 -1.303689,-1.48604 0.467631,-2.08481 1.20943,-1.30284 5.79131,-1.87734 2.19067,-3.52262 -1.486466,-2.32053 -5.188413,3.82264 -4.959743,0.56065 2.314336,-1.27053 3.031879,-2.50551 0.249367,-3.71546 -2.003371,-1.24346 -4.389684,-3.51384 -6.207171,-4.01914 -0.251258,5.30511 -0.501077,10.64059 0.268983,15.914117 -0.472591,1.1205 -1.570158,4.80703 0.477166,4.45235 0.959165,-0.0688 1.916906,-0.16945 2.865663,-0.32731 z m -2.262263,-4.0202 c -1.082908,-1.92744 4.140551,-6.361067 2.265297,-2.54788 -0.871971,0.5057 -0.96675,3.23655 -2.265297,2.54788 z m -0.229163,-7.751317 c -1.296883,-1.87842 4.82853,-3.65421 2.153231,-0.97527 -0.589022,0.43545 -1.352063,1.17467 -2.153231,0.97527 z m -2.848002,10.964527 c -0.568905,-1.50768 1.076627,-6.855867 -1.418855,-4.10224 -2.102283,0.4769 -5.018088,1.49655 -5.451516,-1.41508 -2.690979,-1.222317 2.697761,-5.699197 4.484125,-3.346877 -0.312534,-1.42632 0.669037,-5.07749 1.477537,-1.91006 0.659809,3.77143 1.034235,-3.54509 1.043189,-4.7824 0.137001,-2.70275 -0.763909,-0.45911 -1.459974,0.75781 -1.83212,3.17855 -5.268989,4.81829 -8.116578,6.92766 -1.101735,0.94486 -4.460956,0.53468 -1.757485,1.784547 3.594927,2.37085 7.291608,4.71216 11.275528,6.34393 l -0.07596,-0.25729 z m 27.109996,-2.90028 c -0.80172,-4.124607 -0.25667,-8.400037 -0.42053,-12.587637 0.87345,-6.90555 0.46992,-13.92325 0.64968,-20.880732 -0.21359,-3.358178 -0.96257,-6.667705 -0.18112,-10.004235 -0.0449,-2.248536 -0.32046,-4.487312 -0.44613,-6.733202 -3.29353,3.070151 -7.688097,4.446384 -11.646873,6.392308 -0.999412,2.240151 -5.239582,0.343177 -6.607217,3.13683 -1.725297,-1.108285 -5.188735,0.787681 -3.551503,2.876591 -1.009197,1.624926 -1.90202,-2.168551 -2.858691,0.189094 -0.819599,3.125732 0.670718,7.104622 0.220261,10.604346 0.910162,2.6702 -1.654631,6.6842 0.833911,8.35673 2.912524,-0.4056 4.287406,4.97567 7.420135,3.3941 0.765064,0.70444 1.002166,3.14918 3.227225,3.18348 1.233175,3.93205 5.998292,1.24907 8.041212,3.66343 0.23311,2.59283 -5.020317,-1.94848 -3.082655,1.01832 1.607875,2.60164 7.740555,0.75068 6.987535,4.887277 -1.49894,0.67864 -1.9264,-3.340797 -3.64258,-1.769947 1.87757,2.326437 4.1087,4.395777 5.25185,7.211397 0.12987,-0.98216 0.22283,-2.00195 -0.19451,-2.93815 z M 86.58994,69.807639 c -0.988374,-2.80743 -0.444107,-6.24795 -0.888221,-9.29697 0.127852,-4.074882 0.02025,-8.223421 0.825715,-12.228749 2.867242,0.363147 0.812869,5.745439 1.475419,8.025579 -0.07337,4.48244 0.203215,8.98747 -0.1602,13.45575 -0.07498,0.85558 -0.913543,0.41697 -1.252714,0.0444 z M 65.200375,87.110046 c -1.232159,-1.44729 -1.034321,0.44648 0,0 z m 12.214276,-1.9693 c 1.896413,-1.546117 -3.745826,-3.228567 -0.860971,-1.204877 0.175998,0.77722 -0.628158,1.907147 0.860971,1.204877 z m 50.848559,0.28528 c 3.67972,-0.32634 7.3984,-0.991497 10.80461,-2.467777 0.0895,-2.84612 0.17908,-5.69224 0.26862,-8.53837 -2.5142,-0.80769 0.3563,-4.37493 -0.3243,-6.53667 0.24683,-3.20128 -0.72972,-6.32741 0.1258,-9.512673 -0.22198,-3.811188 -0.40281,-7.655181 -1.06739,-11.415249 -2.49827,-0.970905 -5.48537,1.194964 -8.21914,1.237063 -2.64886,-0.115497 -6.8746,1.172423 -8.61447,-0.376237 1.7531,-3.081197 4.20025,0.877651 7.00674,-0.590004 3.66901,-0.382026 7.15025,-1.721002 10.79988,-2.226232 -0.46984,-5.155841 0.26605,-10.464286 -1.13502,-15.492593 -2.5022,0.201096 -5.16551,-0.167413 -7.73907,1.35612 -3.03401,1.407711 -6.66546,0.502165 -9.65755,1.649108 -0.14027,5.021596 0.389,10.156968 -0.0723,15.103505 0.54387,3.677645 0.58612,7.430949 1.147,11.113972 0.13498,2.12625 -1.80586,5.69264 1.45571,5.39913 3.61746,0.22405 7.011,-1.50491 10.44916,-2.3973 0.61886,-1.751516 2.46086,-0.88581 3.92944,-1.424478 -1.40749,1.850298 -3.74236,4.694458 -6.00504,5.961688 -0.90674,-1.23158 3.72885,-3.84421 0.10505,-2.66446 -3.38032,1.17094 -6.90726,1.75248 -10.42659,2.29199 0.24331,4.82348 0.34645,9.65702 0.18933,14.48919 0.16328,1.62944 -0.0426,3.95115 0.58291,5.266187 2.13223,-0.0743 4.26453,-0.14924 6.39661,-0.22591 z M 68.606544,82.978889 c 3.22988,-0.92009 5.891522,-3.43622 8.410342,-5.59417 1.329908,-2.03502 4.645226,-6.27322 2.322916,-7.98332 -1.847529,3.66024 -4.333178,7.28136 -8.20741,9.02023 -1.589818,1.65644 -6.795015,0.67276 -6.704775,2.68328 1.131137,1.17988 2.361832,2.63358 4.178927,1.87398 z m -1.667269,-4.41818 c 5.080162,-0.82539 9.446854,-4.85952 11.094085,-9.66314 -0.01804,-2.1673 -2.771788,2.0289 -4.113126,2.07822 -3.852559,2.44167 -8.052397,4.8805 -12.741518,4.87681 -3.19052,-1.77681 1.049872,2.81853 1.909049,3.26637 1.303361,0.0528 2.571829,-0.36816 3.85151,-0.55826 z m -2.144016,-4.45641 c 4.225768,-1.02965 7.802296,-3.71072 11.299814,-6.17036 2.059145,-1.41684 -0.03008,-2.93032 -1.248726,-0.8947 -3.239761,2.08393 -7.015336,3.85146 -10.969845,3.35163 -2.810795,0.21174 -5.574423,-0.59434 -7.707553,-2.45285 0.676595,2.877 2.725588,5.72432 5.525962,6.77304 1.050256,-0.09 2.0775,-0.36444 3.100348,-0.60676 z m 1.659124,-4.84296 c 3.307946,-0.91906 7.155041,-1.85284 9.238032,-4.80322 0.803723,-2.70786 -0.35219,-2.37707 -1.869797,-0.83476 -4.653767,1.99751 -9.945905,1.42952 -14.785193,0.52384 -1.663213,-0.88446 -3.348277,-2.65278 -3.273148,0.44038 0.747285,3.70095 5.504752,4.97974 8.848157,4.83445 0.616146,-0.0203 1.232614,-0.0645 1.841949,-0.16069 z m 14.197114,-2.67028 c 0.137232,-4.23679 -1.105987,-8.652255 0.15364,-12.78385 -0.775008,-0.156567 -2.172741,3.014506 -2.725934,3.824894 -0.986456,2.431821 -1.00162,6.227986 1.379745,8.582666 0.743282,0.39084 0.692046,2.13676 1.192549,0.37629 z m -9.09201,-3.42938 c 1.650518,0.23793 5.755663,-3.914497 2.035134,-2.45609 -4.126956,0.8635 -7.687001,-1.860687 -11.25967,-3.434151 -2.066449,-0.02737 -4.448083,-4.72569 -5.601961,-3.069342 2.024451,2.573094 -2.137078,6.736803 1.703309,8.341783 3.18301,1.41824 6.836278,0.95091 10.23782,1.14314 0.982863,-0.0269 1.946972,-0.24497 2.885368,-0.52534 z m 3.465134,-4.085645 c 2.863146,-1.798851 1.078917,-4.005709 -1.572905,-4.27746 -4.805032,-2.584063 -9.462558,-5.594868 -13.300943,-9.505821 -1.146878,2.210921 -3.053154,4.985786 -1.848412,7.413375 2.778985,3.350608 7.198757,4.590186 10.940233,6.524419 1.870895,0.415127 3.958637,0.507984 5.782027,-0.154513 z M 61.708763,54.464389 c -2.463498,-1.80484 -0.02104,-6.044105 2.310984,-2.873518 2.178476,1.938016 0.09241,4.443047 -2.310984,2.873518 z m 15.784213,-0.699191 c 0.931662,-1.443862 2.185214,-2.530553 0.01768,-3.291195 -4.166466,-3.361099 -7.45979,-7.664619 -10.630284,-11.932348 -1.38511,0.867156 -2.411089,-0.950333 -3.458693,1.352395 -2.561349,2.256092 -2.661049,5.948152 0.702682,7.482275 3.869347,2.912072 7.932746,5.906465 12.62658,7.285956 l 0.352632,-0.249151 0.389404,-0.647937 z m 3.140481,-4.007828 c 3.056845,-2.292953 -2.737677,-5.602297 -3.451719,-8.24277 -1.788139,-3.011495 -4.023339,-5.91942 -4.92361,-9.341921 -2.093891,0.577227 -3.296084,3.053916 -4.761941,4.683536 0.544485,1.476833 2.041913,3.007471 2.977955,4.426153 2.721837,3.182267 5.268495,6.807247 8.909719,8.969119 0.438374,-0.105047 0.842747,-0.307314 1.249596,-0.494117 z m 4.184679,-3.450878 c 1.471213,-1.409221 4.369452,-1.034704 3.008829,-3.795905 C 86.99983,36.810734 84.45222,31.314631 80.47976,27.143513 c -2.129723,1.563338 -8.659059,1.612671 -6.807941,5.679052 2.265793,4.988626 5.325418,9.633403 8.784572,13.86704 0.710524,0.948034 1.80926,0.37891 2.361745,-0.383113 z M 77.703824,34.156418 c -3.625368,-1.441169 0.931805,-5.151489 2.44684,-1.982832 2.642851,2.063648 -0.96901,2.281228 -2.44684,1.982832 z m 14.202892,9.746588 c 3.653775,-0.900207 3.290823,-5.127964 2.71682,-8.101574 -0.947744,-4.304838 -3.417659,-8.301879 -6.919109,-10.986753 -2.166731,-0.579881 -4.235101,0.674955 -6.19896,1.463403 4.167375,4.945809 7.104464,10.989504 7.75265,17.47141 -0.154708,1.665178 2.029309,0.659978 2.648599,0.153512 z m 6.231506,-2.73341 c 3.744098,-1.188614 4.852178,-6.005375 3.554378,-9.373408 -1.61085,-4.049786 -4.891978,-7.40201 -8.695288,-9.454865 -2.28569,-0.28748 -5.766473,1.516166 -2.437367,3.394316 4.131694,4.128437 6.087388,10.173044 5.559273,15.928818 0.470085,0.726791 1.48861,-0.294468 2.019004,-0.494861 z m 6.762228,-3.186885 c 3.41816,-1.912369 0.91733,-6.017188 2.27643,-8.840111 0.0931,-2.198661 -0.47414,-4.145811 -2.21723,-4.855916 -1.60202,-2.414285 -4.6308,-3.655501 -7.271306,-4.740659 -1.539646,0.413509 -4.866054,2.174975 -1.737807,3.25433 4.221473,3.213722 8.464023,8.264108 7.285903,13.94672 -1.07108,2.620398 -0.73823,2.837972 1.66401,1.235636 z m 58.02364,-2.057719 c 2.38032,-2.355504 -0.31762,-6.955275 0.41508,-10.218057 -0.0917,-3.331067 -0.24234,-6.833898 -0.85748,-10.006882 -2.24042,1.151825 -3.05436,3.09565 -0.61024,4.569363 0.89677,2.9667 -2.17205,-0.290903 -2.78702,-1.399917 -1.31715,1.02933 -2.26654,2.492932 -1.50505,4.010851 -2.23275,-1.298379 -2.88151,1.489728 -4.13941,2.984786 -1.39053,1.752797 3.45809,-0.190307 4.49713,0.313508 1.20101,-0.493172 5.66494,0.243529 2.42504,1.052976 -6.07874,0.174617 -12.20524,1.528162 -18.25762,0.316071 -2.16409,-2.346224 3.14922,-0.418105 4.59586,-0.601511 1.90496,0.80437 2.94004,-0.829623 0.8838,-2.026504 -1.26634,2.466663 -1.88244,-0.04833 -0.91641,-1.395099 -1.32971,-2.145054 -3.04757,-2.3865 -4.22392,-0.04463 -2.38926,-0.04531 2.23764,-2.825406 0.20714,-3.57848 -0.95471,-1.098753 -1.64925,-1.510842 -1.4939,0.320191 -0.53038,3.167102 0.35112,6.519907 -0.67081,9.56855 0.23189,2.623983 -0.29127,6.979368 3.65436,5.218743 5.67605,0.310276 11.32327,1.413836 17.03645,1.07014 0.58389,-0.02805 1.16874,-0.06456 1.747,-0.154102 z m -10.86674,-9.260081 c 0.12925,-0.838183 2.10882,-2.990203 -0.0132,-3.114904 0.25407,-1.170437 -1.89917,-3.951691 -2.51018,-1.924661 -1.57346,1.393032 -0.23466,4.59352 0.96354,5.167238 0.52229,0.0058 1.04615,-0.02734 1.55985,-0.127673 z m -45.11804,-3.28337 c 1.21651,-1.916521 -0.60606,-5.971514 0.0122,-8.766593 0.0265,-1.948575 0.30661,-5.6144345 -1.87657,-2.399003 -2.08514,2.117854 -4.14352,4.261811 -6.212174,6.395728 2.740714,1.337269 5.308344,2.988002 7.676204,4.907294 l 0.3116,0.08038 z m 20.25726,-1.835468 c 1.21982,-2.88708 1.12918,-6.334095 0.69952,-9.413197 -1.00929,-3.7231945 -4.31639,-6.9842365 -8.1929,-7.4453845 -1.72647,-0.290401 -7.83475,1.374966 -3.52562,2.517036 4.83604,1.741074 7.19216,6.6447255 9.20622,10.9943655 1.06539,0.557351 0.34706,6.222492 1.81278,3.34718 z m 21.20404,-0.121445 c 1.18441,-0.930561 1.0494,-1.762271 -0.21695,-2.509224 -1.02884,-2.705339 -4.14052,0.868859 -2.86078,2.019903 1.1399,1.028118 2.03081,2.8064 3.07773,0.489321 z m -18.60002,0.281703 c 3.80171,-4.444856 2.76795,-11.4314 -0.76134,-15.7188465 -2.00987,-2.296875 -5.50478,-3.434551 -8.3791,-2.45078 5.1655,1.352239 9.37617,6.6103835 8.62721,12.0835705 0.15898,2.04777 -0.63344,4.917579 -0.42513,6.420025 l 0.4705,-0.09695 z m 25.05656,0.315629 c 1.39787,-1.151724 -1.54733,-2.80515 -2.26466,-3.70726 -1.74187,0.538046 -1.78435,2.002971 -0.23123,2.804302 0.77645,0.499117 1.6499,2.351339 2.49589,0.902958 z m -20.69262,-1.700134 c 3.05405,-3.773791 2.83331,-9.524566 -0.20686,-13.2456715 -1.11859,-2.004984 -3.04233,-3.412396 -5.3818,-3.363183 1.701,1.72746 3.58156,3.962158 4.07882,6.5662345 1.12412,3.769614 0.89334,7.983085 -1.06284,11.441575 1.14632,0.45752 2.00859,-0.55085 2.57268,-1.398955 z m 23.29145,-1.101886 c 1.53014,-0.917058 0.46929,-1.736154 -0.53536,-2.557376 -0.8543,-0.63283 -1.74833,-2.453174 -2.52665,-0.81491 -3.08581,1.291655 1.9957,6.033777 3.06201,3.372286 z m -12.34095,-1.22987 c 1.291,-1.108126 -0.32733,-1.614021 -1.14383,-2.285894 -0.97164,-2.091602 -2.39539,1.555894 -2.83182,-0.424985 0.46444,-1.400381 -0.81277,-3.014721 1.7149,-2.346146 1.29889,-0.959472 2.38419,-2.2027 0.51071,-3.1123855 -2.64787,-3.248174 -3.69389,2.7766485 -2.70414,4.7012975 -0.11331,1.434251 3.38122,6.980761 4.45418,3.468113 z m 5.97019,0.249591 c 1.68984,-1.239322 -1.27491,-2.138001 -1.84762,-3.179206 -2.46132,-0.609064 -2.24399,3.434435 0.23136,3.714457 0.60272,0.86012 1.22603,-0.138377 1.61626,-0.535251 z m 10.51981,-3.655117 c -1.58342,-2.080956 -3.84931,-3.912252 -5.39156,-0.837535 -1.38766,0.8893 0.69486,1.591624 1.25578,2.375933 0.869,0.795586 1.75939,2.069314 2.52008,0.444279 0.57429,-0.629276 1.21466,-1.220244 1.6157,-1.982677 z m -8.06064,0.90737 c 1.56303,-1.018964 0.31944,-1.851456 -0.69463,-2.699402 -1.01446,-2.374556 -3.69814,0.267179 -3.42906,1.359266 1.31264,0.913715 2.91304,3.977815 4.12369,1.340136 z m -6.34775,-0.413242 c 1.75627,-0.888825 -1.33622,-4.004662 -2.14366,-2.73202 -2.56852,1.153635 1.17881,5.184322 2.14366,2.73202 z m 9.03113,-2.689549 c 2.69851,-2.274441 -2.8651,-5.7652245 -3.91657,-2.009569 -0.74353,1.20205 3.16154,4.819997 3.91657,2.009569 z m 5.23207,-2.327475 c -2.16081,-2.5955985 -3.49863,2.138613 -0.56331,2.645523 1.21942,1.327321 1.74996,1.069944 1.59851,-0.701138 0.17754,-0.848108 -0.44897,-1.455231 -1.0352,-1.944385 z m -11.77981,1.982142 c 1.27353,-0.869817 0.97797,-1.648414 -0.22682,-2.3741515 -1.03885,-1.863931 -2.2417,0.3640325 -3.0493,1.2587595 0.86557,1.239127 2.08378,3.468938 3.27612,1.115392 z m -2.41415,-3.9836335 c -0.99072,-0.584517 -2.71779,-3.678589 -3.72277,-1.749237 -1.75709,1.033724 1.52078,3.595359 2.40161,3.233951 0.50141,-0.429665 1.02875,-0.877273 1.32116,-1.484714 z m 5.22988,0.720531 c 1.45935,-1.030934 0.91081,-1.934147 -0.41146,-2.762255 -0.74956,-1.457034 -3.96411,1.804388 -2.72002,2.602509 1.1706,1.139169 2.01252,2.2590065 3.13148,0.15975 z m 6.05904,0.342586 c 1.59369,-1.01027 -1.47972,-4.257491 -2.3328,-3.023927 -2.83666,1.215598 1.4856,5.1967545 2.3328,3.023927 z m 3.72003,-2.321988 c -2.33536,-1.277025 -0.41698,3.8463105 0.002,1.564875 0.0587,-0.519051 0.1042,-1.047676 -0.002,-1.564875 z m -20.32419,-0.426198 c 1.60877,-0.977532 0.78781,-2.143015 0.56672,-3.242359 1.80709,1.28477 3.44163,-1.57022 3.74786,-2.40776603 -2.01602,0.33871103 -4.02651,0.70932203 -6.03904,1.06802503 0.67773,1.71436 -0.44564,5.90584 0.71393,5.753418 0.34295,-0.385136 0.67848,-0.776782 1.01053,-1.171318 z m 7.20605,-0.562537 c 2.68331,-2.167585 -2.87837,-6.08081803 -3.63143,-1.860401 -0.76593,0.992031 2.5464,4.098828 3.1862,2.380698 z m 11.66751,-0.315635 c -1.09824,-1.034765 -2.76801,-3.343705 -3.41857,-0.635851 1.23189,1.185271 2.61254,3.69184 3.41857,0.635851 z m -6.23599,-1.840263 c -0.88241,-2.051006 -2.94777,-0.160445 -2.41781,1.243346 0.98302,1.224991 2.085,2.559261 3.02198,0.619026 1.22867,-0.846239 -0.009,-1.101394 -0.60417,-1.862372 z m 7.14174,-0.593153 c 1.06622,-3.32493103 -2.90682,-4.266749 -5.31048,-3.25216503 1.0649,2.07553703 3.5555,-0.598744 2.87252,2.57074403 0.67248,0.73476 2.08835,2.97162 2.43796,0.681421 z m -4.75508,0.109059 c 1.09858,-1.35951 -1.96022,-2.58153303 -2.82376,-3.21725903 -3.41327,-0.06648 1.36517,1.94480203 1.69846,3.54285503 0.40175,1.054729 0.90287,-0.06844 1.1253,-0.325596 z m -5.06257,-0.983521 c 0.2913,-2.59021103 -5.82164,-2.47697703 -2.37276,-0.147182 0.73863,1.021151 1.83911,1.871523 2.37276,0.147182 z M 116.6783,-7.856041 c 0.82016,-1.197784 4.02054,-0.323717 3.74548,-2.060994 0.0375,-1.78231 -1.52382,-6.012852 -2.30013,-2.164687 0.0936,0.946802 -4.41201,5.447336 -1.44535,4.225681 z m 8.25056,-1.947424 c -0.77596,-0.787468 -1.30964,0.971303 0,0 z m 3.44082,0.06215 c 3.15853,-0.69932 6.58769,0.0084 9.63944,-0.978841 0.21974,-3.237744 1.28702,-6.448581 0.94162,-9.75419 0.92801,-1.997053 -2.97676,-1.634607 -2.63141,-0.164923 1.88247,2.131452 -0.73783,4.04018 -2.23938,1.642228 -3.05091,-0.793718 0.79643,2.611462 0.66876,3.329158 0.97528,-1.706631 3.55464,-1.78737 1.39156,0.366811 -2.33144,2.708215 -5.70644,4.266758 -8.84133,5.752609 0.27593,0.305806 0.82528,-0.500985 1.07074,-0.192852 z m -1.17018,-0.97537 c 2.05231,0.0192 0.61864,-1.343438 -0.2876,-1.480955 -1.10345,0.805555 -1.82744,2.634887 0.2876,1.480955 z m -4.65245,-0.757106 c 2.53676,-0.901532 -2.77145,-3.099852 -1.10912,-0.01092 0.0969,0.719055 0.83616,-0.182414 1.10912,0.01092 z m 20.16035,-0.29008 c -0.68692,-1.082852 -0.64777,1.01506 0,0 z m 3.38257,-0.250623 c -0.27836,-1.619408 -3.97717,1.32279 -1.11,0.569163 0.36178,-0.05662 1.75159,0.271121 1.11,-0.569163 z m -15.26159,-0.304983 c 1.85795,-1.73785 -3.97183,-2.539952 -1.69661,-0.530498 0.37096,0.540762 1.07007,1.057798 1.69661,0.530498 z m -5.60857,-0.544497 c 1.58476,-2.065926 -3.41975,0.113656 -0.51765,0.28909 l 0.51765,-0.289101 z m 23.9943,0.199687 c 0.16583,-0.954852 2.89384,-2.844032 0.45445,-1.349441 -1.28725,0.537967 -2.80446,3.2627 -0.45445,1.349441 z m 17.0408,0.995568 c -0.61484,-1.664505 -3.63517,-2.869543 -2.71511,-0.147087 0.76179,0.46331 1.8856,0.397818 2.71511,0.147087 z m -5.3745,-0.811309 c 1.65655,-0.830539 -1.3472,-3.145464 -1.85791,-3.505595 -1.37923,1.159358 -2.63993,2.44952 -3.94823,3.686421 1.90518,0.07718 4.09208,0.909374 5.80614,-0.180826 z m -8.34728,-0.359425 c -0.53194,-1.642245 -3.60865,1.180518 -1.00246,0.481276 0.20297,-0.04767 1.51955,0.225862 1.00246,-0.481276 z m -8.22479,-0.578808 c 1.44185,-2.29303 -2.36193,1.932618 0,0 z m 13.34796,-3.052287 c 1.49035,-0.907796 -0.056,-1.787463 -0.72471,-2.67526 -1.13829,-2.313502 -2.75128,-1.543334 -3.0443,0.622524 -2.62635,0.515827 -1.42385,-3.423299 -3.77573,-4.369493 -1.94706,-2.437789 -3.20446,2.642733 -0.75777,3.265323 1.44144,1.249165 3.5663,4.736762 4.71117,1.392448 2.40907,0.506996 -1.31756,3.119456 -1.44997,4.273441 0.81852,1.021301 1.63203,1.465925 2.43016,0.131398 0.90671,-0.842847 1.79516,-1.708462 2.61115,-2.640381 z m -36.06439,2.126634 c -0.74577,-2.237821 -1.48214,1.352273 0,-3e-6 z m 11.45698,-0.960971 c -2.53568,-2.025231 -1.39655,2.816011 0.0855,1.167908 0.84445,-0.578869 0.57663,-0.586096 -0.0855,-1.167908 z m -4.80165,0.538323 c 1.1959,-1.936348 -2.6604,0.689707 0,-7e-6 z m 34.64092,0.426952 c 1.09227,-2.004467 -4.42861,-3.491418 -1.6977,-0.639233 0.4554,0.524353 1.17562,2.09893 1.6977,0.639233 z m -42.73885,-1.295631 c 1.60062,-2.158711 -1.63243,0.04627 0,0 z m 7.18968,-0.480474 c 0.17812,-1.170155 -1.72785,1.055121 0,0 z m 24.45579,0.597436 c -0.60841,-1.071774 -0.44517,0.973693 0,0 z m -29.61597,-1.083539 c -0.64266,-1.051627 -0.74166,0.538758 0,0 z m 8.88282,-0.05077 c 0.96044,-1.906508 -2.9893,1.233144 0,0 z m -7.62009,-1.246785 c -2.86151,-2.067816 -0.001,1.578065 0,0 z m 2.46899,0.179452 c -0.37508,-0.845263 -0.61849,0.894297 0,0 z m 3.97077,-0.03818 c 0.39162,-1.280233 -1.75068,1.204158 0,0 z m 20.62415,0.807356 c -0.73984,-0.837302 -3.08674,-3.283102 -1.32274,-1.07754 0.32151,0.294574 0.86443,1.413641 1.32274,1.07754 z m -25.63414,-1.587789 c -0.60842,-1.071774 -0.44517,0.973693 0,0 z m -1.70644,-1.832349 c 1.94938,-1.520716 0.76045,-1.650433 -0.58397,-0.177142 -1.69771,1.521301 -1.87846,2.485676 0.58397,0.177142 z m 36.29235,2.095192 c -0.307,-3.224207 -3.11483,-5.872094 -4.14452,-8.99724 0.18576,-1.703432 -2.05766,-3.127772 -2.08877,-1.542621 1.96763,0.603918 2.03944,5.521311 0.46701,2.237678 -0.80793,-3.993771 -4.68437,0.892523 -1.46747,2.157184 0.74634,3.153451 4.92119,-1.136177 3.9543,2.045549 0.60418,1.234598 1.90767,4.407561 3.27945,4.09945 z m -33.23865,-1.273911 c -0.75775,-1.550116 -0.93847,1.033362 0,0 z m 6.52203,-0.586847 c -0.92469,-0.307551 -0.87832,1.680764 0,0 z m 2.52632,-0.07989 c -1.4208,-0.5857 0.76775,1.765772 0,0 z m -7.69803,-0.249566 c 0.46069,-2.052805 -2.1069,1.227922 0,0 z m -3.73201,-2.500677 c -1.97059,0.511141 -1.60087,2.674941 -0.12628,0.377023 z m 10.56021,1.703294 c 0.21185,-4.228447 -3.60923,0.422203 0,0 z m -5.10536,-0.316344 c -0.58875,-2.089625 -1.49833,0.945968 0,0 z m 23.39494,-0.727053 c -0.25148,-1.549727 -4.41681,-4.401785 -2.27913,-1.358111 0.51562,0.635511 3.86525,4.02603 2.27913,1.358111 z m -20.23596,-0.749819 c 1.94547,-1.271675 -0.52492,-2.672151 -1.03479,-0.720981 -3.78523,0.805963 0.0429,2.515506 1.03479,0.720981 z m 4.03448,0.03473 c 1.84213,-0.980184 -0.99816,-4.127049 -1.74284,-1.304545 -0.59254,0.996765 0.86657,3.025768 1.74284,1.304542 z m -9.14669,-0.577276 c 0.35743,-1.930754 -1.75966,1.175406 0,0 z m 12.07464,-1.257868 c 0.40978,-2.196148 -0.35439,-4.418248 -2.21273,-1.756931 -0.26868,0.929931 2.49989,6.064541 2.21273,1.756931 z m 8.63521,-0.08536 c -1.59435,-4.184205 -3.56959,2.37721 -1.06388,1.841074 0.40381,-0.582118 0.88122,-1.13976 1.06388,-1.841074 z m -21.41849,-0.26436 c -2.72387,0.05291 -0.16469,2.157965 0,0 z m -1.05589,-0.852024 c 0.47769,-2.102544 -3.5022,3.012786 -0.79612,0.692953 l 0.32021,-0.252685 z m 4.34192,1.260167 c 2.79787,0.03789 1.82935,-3.630488 -0.19911,-1.325435 -1.51799,0.801292 -1.95538,2.127603 0.19911,1.325435 z m 4.99312,-0.596127 c 2.60256,-4.398513 -4.29325,2.0938 0,0 z m 7.58867,-1.821041 c 0.37749,-0.830439 2.40134,-1.725209 1.07002,-2.488878 -2.49328,-2.507674 -4.06682,7.443448 -1.4046,2.872515 z m 6.60182,1.11258 c -0.61243,-4.720343 -3.45533,0.932162 0,0 z m -19.24651,-1.11911 c 2.5477,-2.776661 -4.01822,2.06387 -0.32997,0.236483 z m 4.52459,-1.245978 c -1.95208,-0.812885 -2.74922,2.980693 -0.64155,1.089346 0.20459,-0.28758 0.83805,-0.647539 0.64155,-1.089346 z m 3.43905,-0.266932 c -0.43885,-0.98986 -3.10851,2.786452 -0.77346,1.038422 0.31033,-0.30013 0.64664,-0.605517 0.77346,-1.038422 z m -9.37329,0.42276 c 2.79193,-2.375865 -0.94416,-0.71086 -1.53346,0.853066 0.5972,-0.09899 1.0356,-0.55795 1.53346,-0.853066 z m 22.45317,-0.288628 c 1.42108,-0.957555 -0.0159,-1.764266 -0.76089,-2.607504 -0.33033,0.967899 -2.13283,2.038906 -1.32465,2.927062 0.91582,1.299213 1.31297,0.886987 2.08554,-0.319558 z m -3.84051,0.03863 c -0.49435,-4.186568 -3.03898,1.352754 0,0 z m -14.48011,-0.67336 c 2.09883,-1.982286 -3.13635,1.637695 0,0 z m 4.62815,-2.280752 c -0.33653,-2.714979 -5.01211,2.252009 -1.49572,1.395459 1.49761,1.082231 2.36994,0.334793 1.49572,-1.395459 z m -5.07577,0.655019 c 1.0398,-2.612451 -3.42558,0.952796 -0.67852,0.449092 l 0.30864,-0.193877 z m 16.67432,-1.756888 c -2.20127,-1.281568 -2.09046,4.854432 -0.33252,1.738526 0.24857,-0.508002 0.95271,-1.209598 0.33252,-1.738526 z m -3.91974,0.888228 c -2.5539,-1.861231 -0.21034,3.404504 0.54984,0.86642 0.19654,-0.396284 -0.38332,-0.643954 -0.54984,-0.86642 z m 7.53693,1.013506 c -0.0446,-1.974195 -3.05233,-2.257677 -1.27649,-0.257625 0.16819,0.273668 1.30582,1.298986 1.27649,0.257625 z m -10.96234,-0.883595 c 0.17204,-0.840752 3.18214,-1.523554 0.95987,-2.275962 -1.30822,0.05615 -1.98385,5.038854 -0.95987,2.275962 z m -12.54535,-1.092003 c 2.46692,0.01659 -0.16092,-4.472071 1.95756,-2.795341 0.40764,1.450246 3.30334,-1.642369 1.85096,-2.507029 -2.01423,-2.2127 -4.23757,3.395535 -5.23511,5.204207 -1.13953,2.35856 0.38128,0.751139 1.42659,0.09816 z m 10.53779,0.246244 c -1.76455,-0.307585 0.73137,-2.550371 -1.58668,-1.291323 -0.87319,1.227407 1.76212,3.748949 1.58668,1.291324 z m -4.69326,-0.348226 c 2.82162,-2.358473 -2.73845,-2.538108 -1.93002,0.27844 0.31882,1.315887 1.41423,0.169353 1.93002,-0.27844 z m 18.58331,0.440598 c -0.0998,-2.792354 -2.50183,-1.064203 -2.88512,-3.542451 -2.08625,0.268947 4.66487,6.261567 2.88512,3.542451 z m -6.52386,-0.492345 c 1.74941,-1.090532 -1.06581,-3.50072 -1.58581,-1.194927 -0.9019,0.732996 1.20419,3.461648 1.58581,1.194927 z m 2.87767,-1.569212 c -2.05232,0.169607 0.43833,2.852047 0,0 z m -8.2882,-0.577552 c 0.35323,-1.108643 3.46692,-2.720171 1.36737,-3.752065 -1.6759,-1.276699 -1.81531,3.55424 -1.61534,4.558428 l 0.16857,-0.292943 z m -3.81269,-0.182328 c 2.51886,-0.588518 -0.65415,-3.95217 -1.59469,-1.04932 -0.71354,1.121349 0.76349,1.738908 1.59469,1.04932 z m 7.22117,-0.154312 c 1.42122,-3.696364 -3.51164,0.705488 -0.40476,0.549625 z m 3.4568,0.179342 c -0.20332,-3.084971 -2.93763,-0.348131 -0.24669,0.348255 z m 1.05017,-1.847583 c 0.0649,-1.409444 -1.80371,-3.518359 -2.63637,-4.189081 -1.37761,1.360002 -0.41812,2.696691 1.21273,1.859273 -0.0244,0.665648 -0.20664,3.833827 1.42364,2.329808 z m -9.84337,-0.684672 c -1.72096,-0.84223 0.97698,1.475618 0,0 z m 6.6592,0.18569 c -0.84206,-3.825419 -2.13268,1.606509 0,0 z m 4.59037,-1.126629 c -1.49985,-2.334712 -1.85392,-7.008699 -4.01654,-7.926033 -1.96342,1.769151 -0.33006,3.214742 1.24902,3.022204 -1.66158,2.303466 2.9654,5.921197 3.29304,6.07617 l -0.22755,-0.527598 z m -15.41694,-0.966606 c 1.55197,-3.468242 -4.72567,0.351606 -0.93491,1.206014 0.45103,-0.281156 0.66587,-0.776786 0.93491,-1.206014 z m 1.56488,0.934144 c 0.18408,-1.931227 -2.33898,1.470453 0,0 z m -4.42697,-2.10879 c 1.87788,-1.07383 1.56615,-2.674673 -0.17269,-0.744533 -0.98242,0.626858 -2.94612,3.455122 -0.51621,1.309679 l 0.3359,-0.272685 z m 11.9748,1.293192 c -1.67088,-3.641397 -1.81995,1.197661 0,0 z m -5.55779,-9.7e-4 c -0.36764,-4.201253 -2.77338,0.57564 0,0 z m 1.14389,-5.23936 c 0.0554,-1.43225 0.11076,-2.864499 0.16614,-4.296748 -0.87064,1.024656 -4.3053,3.214957 -2.087,3.892835 1.61224,0.238929 -0.43081,2.459407 1.22126,3.634454 0.92638,3.218299 0.48644,-2.714901 0.6996,-3.230541 z m 5.71308,2.625622 c -0.1055,-3.795341 -3.09587,0.600046 -0.72791,1.278369 0.36817,-0.33638 0.57052,-0.816882 0.72791,-1.278369 z m -3.39692,0.861116 c -0.93779,-1.072719 -1.80532,-0.682114 0,0 z m -5.26007,-0.827733 c -0.0208,-2.442616 -1.90538,1.744338 0,0 z m 6.74441,-1.582355 c 1.2866,-4.0547 -3.22932,0.718476 -0.32177,0.588245 z m -10.51631,-0.640399 c 1.94328,-0.08628 3.04712,-4.057833 0.64275,-1.847699 -0.92242,0.672723 -2.98758,4.313398 -0.64275,1.847699 z m 2.69461,0.607644 c 1.93303,-3.786954 -3.76273,1.87774 0,0 z m 6.21639,-2.687233 c 0.515,-1.172263 3.95323,-3.782827 1.7859,-4.376846 -1.01449,1.364714 -3.33861,4.877643 -2.20069,5.482496 l 0.28706,-0.532783 z m 3.46443,-0.811967 c 1.65269,-3.9098 -2.98505,1.549283 -0.41349,0.661802 l 0.19801,-0.288835 z m -7.91734,-1.038775 c 1.19426,-0.695482 3.60376,-5.112369 1.84463,-4.918597 -1.24155,1.282637 -4.87983,5.06034 -2.66035,5.693644 l 0.37284,-0.348811 z m -1.42818,-2.820231 c 0.63689,-2.258001 3.43441,-2.845271 3.97686,-4.314232 -0.014,-1.406899 -3.0809,1.805753 -3.78963,2.601577 -0.87461,1.489054 -2.76359,5.730651 -0.5645,2.278266 z m 6.30499,-1.159775 c -1.73083,-1.896246 -1.61418,5.865114 -0.0765,1.256709 0.19454,-0.378942 0.28532,-0.860957 0.0765,-1.256709 z m 4.41467,2.67852 c -0.68692,-1.082856 -0.64777,1.01506 0,0 z m -0.51032,-1.666211 c -0.30717,-1.893422 -1.07401,-4.234341 -1.75266,-1.110818 -0.0936,0.632836 1.44512,2.127526 1.75266,1.110818 z m -1.89825,-4.196901 c 0.9304,-4.402066 -3.09263,1.073541 -0.68935,1.645332 0.4405,-0.42176 0.55057,-1.079107 0.68935,-1.645332 z m -1.922,-1.716144 c -1.07572,-1.564138 2.20918,-3.431998 -0.0596,-5.393702 -0.98272,0.701816 -0.5155,4.715532 -0.96517,6.849362 -0.53789,2.315629 1.03883,-1.27581 1.02481,-1.45566 z m -2.20922,-2.453648 c 1.76693,-1.035124 -0.2973,-5.193819 -0.46021,-1.383176 -0.16954,0.834597 -1.33117,2.895803 0.46021,1.383176 z m 1.07957,-5.245708 c 0.73934,-1.236232 2.69259,-1.890768 0.45609,-3.223309 -2.97377,-0.112598 -4.29233,1.913708 -1.46625,3.533518 -0.50035,1.78066 1.02445,0.580621 1.01016,-0.310209 z m 0.59792,-5.776179 c -1.23735,-3.17007 -0.65684,4.552078 0,0 z M 310.79164,160.13399 c -3.5448,-0.8312 -7.15459,-2.27494 -10.7852,-1.46441 -3.47552,-0.22565 -6.8961,-1.03356 -10.37519,-1.17358 1.38192,0.11329 7.04647,1.37797 2.87103,1.8842 -3.18673,0.38412 -6.67595,-1.55055 -9.5419,-0.05 -3.39991,0.37533 -7.37229,-1.94783 -10.336,-0.84445 -4.08889,-0.20818 -8.02221,-1.84238 -12.15157,-1.97587 -2.30992,-0.7782 -5.28135,-0.40796 -6.95685,-0.78331 3.04478,2.88168 -3.41032,1.20955 -4.9906,0.91527 -3.15678,0.12102 -6.24993,0.55683 -9.60284,-0.47461 -5.45792,-0.45072 -10.81909,-1.58395 -16.18728,-2.60203 -2.87794,1.91464 -6.42992,-0.6349 -9.7144,-0.21952 -3.47692,-0.0764 -6.7473,0.75786 -10.12974,-0.55844 -1.46783,-0.29625 -6.90094,-0.60822 -3.01378,-1.74439 1.83827,-0.0355 2.61517,-1.83163 4.77956,-0.3314 1.40097,0.60605 5.37572,1.53764 5.66327,1.2349 -1.53458,-0.18602 -3.64798,-2.45947 -0.64988,-1.55434 2.23525,0.43321 5.57951,1.90181 7.18085,1.87527 -1.59928,-0.083 -4.92174,-2.77435 -1.34263,-2.02803 1.63116,0.0407 5.74434,2.21183 5.71855,1.29746 1.57325,-2.32552 5.30634,1.95457 7.75053,2.05707 2.17894,0.60666 2.10001,3.8e-4 0.10412,-0.65339 -0.23079,-2.44376 4.16263,0.98689 5.48893,-0.78084 5.27814,1.11472 10.3151,3.70939 15.81451,3.74081 -0.50946,-2.56424 -4.848,-2.09505 -7.10307,-3.00186 -2.64111,-0.50952 -6.85395,0.20138 -5.1592,-3.79602 -0.0406,-4.4976 -1.19195,-8.95856 -0.74032,-13.48447 -0.17029,-2.29849 -0.30243,-4.00641 0.44126,-5.86451 -1.08121,-4.70713 -1.66809,-9.55034 -1.06325,-14.36898 0.53015,-2.22192 -0.64633,-2.48228 -1.41441,-0.38739 -2.2318,3.74188 -4.45143,7.73449 -7.89404,10.48407 1.00972,0.20305 5.67405,4.31846 6.58373,1.14108 0.96138,-1.13482 -1.5787,-3.25357 1.14031,-3.1708 1.69968,3.40792 -2.95252,6.09576 -1.73838,9.71825 0.65172,2.186 -0.94647,3.35591 -0.93127,4.9427 2.23959,2.42647 1.0713,6.16376 1.50057,9.21404 0.10775,0.92647 0.0756,4.85651 -1.02926,2.50279 -2.63404,1.67771 -0.79749,-3.93405 -2.30215,-5.12341 -0.76714,-2.93772 -1.5723,-6.27294 -0.19887,-8.94826 -0.48139,-2.18275 -0.82682,-4.39549 -0.82802,-6.63841 -4.19677,-1.72189 -8.43153,-3.35462 -12.4412,-5.50022 -3.01061,-1.33374 -4.99145,-4.42894 -7.89093,-6.17701 -2.51723,-1.98457 -5.02614,-3.98069 -7.4666,-6.05945 -0.26745,2.97594 0.86916,5.91314 0.84571,8.91047 -0.26077,1.69563 1.31809,5.35406 -0.50599,5.73275 -1.01679,-3.10022 -0.52231,-6.52115 -1.1812,-9.72908 -0.4888,-3.00687 -0.25727,-6.66614 -3.33104,-8.35546 -2.67668,-2.34388 -5.57275,-4.41895 -8.29029,-6.71358 -0.66082,5.13967 0.33792,10.28335 0.0898,15.43904 -0.39222,2.31495 1.56267,5.13412 1.06919,6.48017 -3.0582,1.12428 -6.21019,2.46756 -9.50443,2.56169 -0.017,3.72496 0.39579,7.49314 -0.0777,11.18529 0.81949,-0.42815 2.27942,-5.3658 2.02872,-7.72249 -0.42837,-1.58274 0.37415,-4.72726 1.30653,-1.58812 2.43267,0.24705 0.26636,5.28853 -0.27639,7.82671 -0.45097,1.52077 -1.86223,6.89805 0.4497,2.88959 1.56701,-3.50248 2.79849,-7.54272 1.87018,-11.36798 -2.73761,1.81072 -0.0811,-4.16051 1.21105,-1.12567 0.0348,2.01077 2.31019,3.78221 2.40945,0.78332 2.53483,-1.64523 1.16936,4.03574 0.84894,5.48553 -0.7736,3.48062 -1.60671,6.95054 -2.47614,10.40656 2.0938,-3.60916 3.84767,-7.7659 3.6752,-11.99546 -0.55805,-1.86447 2.13724,-0.0254 1.32868,-2.30235 0.0955,-3.60525 -0.28935,-7.05366 -0.41656,-10.67673 -0.29713,-2.98128 -1.55888,-6.18768 -0.28123,-8.76994 -1.22719,-1.68191 -0.63124,-6.22828 1.30914,-2.74221 1.1884,3.15625 0.73445,6.72529 0.67876,10.04603 -0.69971,3.18216 0.3637,6.85399 -0.0597,10.26285 -0.15661,3.37348 1.01947,6.59073 0.88484,9.98043 -0.58194,2.24332 1.84025,6.58204 -0.75178,7.45426 -1.04789,-2.70426 -2.8458,2.51813 -0.0446,1.38634 1.69987,1.31199 -3.53357,1.24678 -4.14369,2.74604 -3.11426,-0.69362 -6.18338,1.79864 -9.40647,1.9718 -1.69785,0.68982 -2.71833,-0.49652 -1.10568,-1.49913 -0.41087,-3.94396 -1.62103,-7.89802 -1.26073,-11.89368 0.94834,-2.766 -0.2478,-6.21661 0.11322,-9.26775 -0.0467,-3.48144 0.30509,-6.97732 -0.25399,-10.42213 -0.22365,-8.40208 0.61824,-16.906024 -0.70419,-25.222244 -1.98633,1.60362 -3.93973,-2.99292 -6.26239,-3.68995 -1.65767,-0.67094 -4.40479,-4.424877 -5.50645,-3.078967 -0.0788,3.209707 -0.1105,6.414667 -0.54445,9.586627 -0.0166,5.676354 1.2632,11.293504 0.96201,16.978904 0.76321,3.61017 1.5059,7.37874 0.58696,11.04082 -0.0406,2.00982 0.43157,7.47152 1.86109,3.22233 1.38801,-2.93729 0.77654,-6.61265 1.16023,-9.90095 0.25199,-4.74736 0.98508,-9.70526 -1.09931,-14.18524 -0.74813,-2.876604 -3.19919,-5.671894 -2.77962,-8.595494 2.58052,0.79662 1.77387,5.15706 3.60191,7.251364 2.61693,5.4135 1.27484,11.55675 1.32856,17.32033 -0.73641,3.18352 0.52982,6.00669 0.18253,8.9949 -0.98091,1.17009 -3.35389,1.64597 -4.21319,3.24065 -0.29128,5.70467 -0.18851,11.45245 -0.90715,17.11732 -2.07606,-0.35426 -0.50556,-4.97356 -1.23224,-6.94655 0.0925,-3.39233 -0.47587,-6.73661 -0.5171,-10.11034 -0.18916,-3.28998 0.58722,-6.41559 1.29186,-9.53447 -0.29136,-3.13764 -2.51005,-6.65632 -0.75303,-9.73914 0.22454,-3.07043 -1.25869,-6.18124 -2.19692,-9.14937 -0.58064,-1.30469 -1.79239,-4.674444 -2.23781,-4.789064 0.90793,3.32776 2.13661,6.580194 2.69764,9.988824 -0.58258,1.06766 -1.90329,0.85154 -1.88545,2.66479 -1.29711,-0.95468 -1.41888,-7.19715 -3.43215,-5.2837 0.62023,1.18589 3.41014,4.64437 1.51471,5.13515 -1.12414,-1.47433 -0.74623,-1.56861 -1.44914,-0.0858 -1.05962,-1.13055 -1.42465,-2.96389 -3.42121,-1.27869 -0.44358,1.4955 -1.28467,2.45466 -2.93439,1.24717 -1.79496,0.72668 -4.39086,2.94017 -4.38422,-0.51268 -1.19352,-1.84705 -2.17756,-5.52488 0.89089,-5.26931 1.62068,2.33861 1.79403,-1.69283 3.57993,-1.94873 -1.12027,-2.186904 3.93685,0.4231 1.63425,-2.375044 -0.0411,-1.0908 -0.0689,-4.16582 -1.20551,-1.58607 -1.14879,1.96045 -5.65837,4.425994 -6.71666,2.950244 2.95921,-0.773764 8.72997,-4.446314 3.43496,-6.646974 -1.19339,-1.48043 -6.30441,-0.97909 -5.10336,-3.04547 3.29116,0.36967 6.48946,2.11566 8.77899,4.51485 1.86061,-1.08182 3.92015,5.885644 3.23647,1.82154 -1.33207,-2.07957 -2.51436,-6.42275 0.74512,-3.1321 1.54148,-1.34172 2.40761,2.66125 3.4205,-0.011 0.24872,-3.8964 2.92853,1.7958 3.16607,3.21136 0.66216,2.37862 0.67354,-2.88414 1.04667,-3.56981 -1.0212,-2.73517 -1.09986,-5.79562 -0.335,-8.657757 0.86157,-1.59405 -0.13683,-2.67036 -1.55682,-3.4725 -2.50751,-1.65833 -5.21446,-2.79435 -7.85084,-4.26138 -1.95511,-1.53086 -6.6918,-1.75961 -6.78263,-4.10277 1.98908,0.18912 6.129,2.95613 6.79968,2.46123 -2.4166,-2.12125 -6.2084,-2.00516 -7.90053,-4.95757 -2.28083,-3.42226 -4.89971,-8.05338 -2.55739,-12.096086 2.08117,-3.152033 3.58935,-8.266875 7.7451,-8.934553 1.95945,-0.05123 2.60628,0.332447 1.55861,-1.19907 3.21394,-0.120561 6.14422,2.298817 9.49593,2.139898 2.94912,-0.06331 0.8059,3.296704 3.8358,2.872363 1.89699,0.268054 3.99622,0.920388 3.86089,2.718026 3.50943,2.713003 8.38787,4.017783 10.81546,7.909742 -1.38092,2.28723 -0.38573,6.07991 -1.12892,8.99823 0.57308,8.35856 -0.45896,16.750707 0.37588,25.098347 -0.14034,7.817794 0.53391,15.624964 0.23474,23.444254 -0.60193,3.5049 1.17677,2.89675 3.28907,1.81889 1.21529,2.10844 6.99095,-1.51954 3.99739,-4.07671 -0.83465,-4.36249 -1.21697,-8.91647 -0.70533,-13.34424 1.47753,-2.80373 0.35831,-5.998084 -2.18363,-7.703424 -0.91645,-1.5985 -3.38095,-2.45534 -3.19287,-4.01671 1.47901,-0.2389 2.65884,1.21134 2.95956,-1.32638 0.54521,-1.29169 1.92262,-4.32222 3.24259,-2.61076 1.35913,-1.20553 3.93124,-5.998107 5.51226,-3.73991 -2.44448,1.59209 -4.33514,4.19899 -6.23115,6.53821 -3.91199,3.14609 1.16495,5.5961 3.62095,7.258924 2.11473,1.01038 5.41919,6.55152 6.6312,2.20334 3.58208,-5.434964 8.53879,-9.826264 13.70615,-13.706884 1.38596,-2.14294 -3.93813,-3.13071 -5.00241,-4.822007 -2.14294,-1.76737 -4.743,-2.81575 -6.92684,-4.5173 -1.81519,1.33045 -3.44857,2.93073 -5.38784,4.07007 -2.22246,-1.82975 -4.90429,4.603177 -5.97503,2.545747 1.41849,-3.093597 4.34327,-4.504317 7.34028,-5.560047 1.95669,-0.181 3.83369,-2.56412 1.00179,-3.26587 -2.61797,-2.21521 -7.31908,-4.09966 -7.8492,-7.43887 -0.29217,-1.62529 0.34685,-6.07111 -2.40392,-3.32644 -1.75439,-0.4791 -3.96357,2.1889 -1.09105,0.84886 2.87858,0.82366 -2.75239,4.22702 -0.8183,6.50148 0.96392,4.0451 -4.34069,2.20343 -2.88773,-0.85723 0.0283,-1.40569 1.00148,-3.19992 -0.73217,-3.28053 0.93891,-2.45917 0.62262,-6.78208 4.49242,-4.84015 2.80425,0.49401 -1.29776,-6.897965 2.69391,-4.0951 1.54735,2.66259 0.64957,6.08507 4.37722,7.24749 2.44427,0.81278 3.36813,4.7103 0.36638,4.38161 2.66941,2.17466 6.07757,3.39447 8.50812,5.97051 3.30307,2.65906 6.84292,5.02293 10.27563,7.501927 4.77366,3.55393 9.46506,7.26665 14.49204,10.48518 2.00567,2.1695 6.23234,3.29909 6.99002,5.949724 -3.57201,-1.26547 -3.86402,4.52207 -5.54859,6.69522 -1.71627,2.78063 -3.21153,5.60315 -5.47769,7.97848 -0.51201,1.1063 -4.17448,5.6036 -2.88321,2.14001 2.0629,-3.15803 4.45079,-6.15473 5.61938,-9.79577 1.12699,-2.78296 4.33618,-4.7759 4.05811,-7.86018 -0.65798,-0.90804 -2.52225,-2.904334 -2.92138,-0.77148 -2.06737,3.45817 -3.75564,7.31893 -6.74981,10.081 -2.64131,-0.22213 -4.65317,4.33841 -7.69469,5.10876 2.16803,2.24531 5.27477,4.36712 7.90736,6.39586 2.54942,0.97724 5.67009,4.64491 8.05042,2.0136 2.6805,-1.8809 3.44998,-5.18023 4.99847,-7.82259 3.18142,-0.90199 2.17622,-5.34383 4.83856,-6.72211 0.34605,-1.76116 0.0859,-3.49642 -1.6006,-3.36669 -0.58046,-3.07764 -0.86943,-6.567094 -0.003,-9.528524 3.89867,-0.51115 3.08294,4.020754 3.60952,6.664784 0.96677,3.50378 -1.76726,6.30969 -0.86273,9.90127 0.41328,6.18799 0.74454,12.37913 1.02702,18.57285 0.53903,5.44193 1.03368,10.89903 1.73682,16.31207 -1.12592,1.66859 -0.93689,3.97786 1.73992,3.4676 2.26599,0.33741 6.18454,1.94624 7.34973,1.68406 -1.12045,-2.94621 3.96712,-0.10953 5.37637,0.44626 2.84416,0.96325 6.02135,2.08904 8.45556,1.02717 4.17923,0.71325 8.15788,2.44101 12.39305,2.83088 -1.14348,-2.93928 4.50572,-0.37384 6.11783,-0.34128 1.51905,0.70796 1.63383,-2.00006 3.83258,-1.24346 1.75759,-0.23792 4.18572,0.63258 5.63558,0.28076 0.0571,-2.41031 0.11429,-4.82062 0.17144,-7.23093 -1.61523,0.8751 -6.43402,1.34023 -4.9447,-1.4865 -0.77957,-1.92359 0.0357,-4.43214 -3.28044,-4.34563 -6.38752,-1.17428 -12.45079,-3.70007 -18.90618,-4.59042 -5.34063,-1.1303 -10.40983,-3.24296 -15.6051,-4.88098 -2.60975,-1.48969 -6.33364,-1.57756 -8.4139,-3.5313 2.63634,-1.9909 6.26059,1.19798 9.21981,1.51406 5.07945,2.03729 10.26281,3.85086 15.53029,5.31729 8.127,1.29956 15.94101,4.04395 23.93396,5.96123 3.18541,0.71994 6.13351,2.31157 9.36834,2.78888 2.53796,3.5e-4 5.29589,2.3402 8.2626,2.69718 3.98434,0.99924 7.98895,1.96185 11.99017,2.87996 -5.03599,-2.90035 -10.74723,-4.44753 -16.06223,-6.78722 -2.74185,-1.34937 -6.19596,-1.6441 -8.57673,-3.36975 -2.58159,-2.20984 -6.3499,-2.60837 -9.39476,-4.09583 -3.64605,-1.34617 -7.16086,-3.0086 -10.68374,-4.64239 -2.14992,2.15531 -5.52041,-2.25688 -7.93585,-2.94491 -2.89135,-1.13461 -5.3924,-2.52719 -7.248,-5.31921 -4.24439,-4.46698 -5.7246,-10.72411 -9.48897,-15.49927 -2.11321,-0.66244 -6.22959,-2.06702 -7.34045,-1.45692 -0.47243,1.33021 -1.23922,6.69789 -2.57885,4.72051 1.66233,-1.88439 -0.38095,-6.37314 2.5155,-6.48865 2.6539,-1.11314 5.86538,1.98449 8.45774,0.53468 2.58429,1.69559 2.16093,6.43566 4.50747,8.93529 3.32584,5.35272 6.77797,11.51619 13.10631,13.69259 0.97147,0.76094 6.04032,2.00032 3.44449,0.11108 -1.15214,0.036 -0.17163,-3.26906 -1.76692,-1.32044 0.83709,3.2838 -2.61846,-0.83585 -1.22598,-2.39952 -0.49734,-1.97915 1.7165,-5.4481 0.40646,-6.34225 -0.98715,-1.25605 -0.17044,-6.31116 1.75605,-5.54476 1.44674,3.26791 0.64121,7.13047 1.68328,10.63097 0.59586,3.62813 2.32245,-0.34229 0.65111,-1.77909 -1.23294,-2.2598 1.61448,-3.82136 2.58711,-4.05308 -0.64501,-1.79793 -5.38932,-1.21914 -2.23162,-3.3718 1.07337,-1.21327 2.41816,-0.94649 2.51312,0.40057 2.53657,-0.31907 1.09452,-6.64689 2.50157,-2.63289 -0.61979,-1.49139 1.80992,-3.49091 -0.3828,-3.97063 -0.67311,-1.66548 0.0607,-4.58414 1.34282,-1.59604 1.1697,1.65185 2.79346,7.08496 -0.34293,6.35624 0.85296,-1.19925 1.08356,-3.47742 0.26689,-0.98032 -1.43088,-3.18189 0.22602,5.53989 2.06323,2.93922 2.7005,-1.21817 -1.33213,-2.26314 0.59769,-3.3242 2.52635,1.71259 4.63911,4.64006 4.51771,7.72442 -0.15418,3.28382 -6.58291,-0.6311 -2.41533,-0.082 3.34769,1.11796 -0.85881,-7.26253 -0.62937,-2.24301 -0.74761,3.24749 -4.02856,-1.87543 -5.46845,-2.48292 -1.35634,1.40478 1.90104,2.64758 1.77609,4.81202 1.99732,3.18354 -1.00335,3.4135 -2.28249,1.96884 0.50517,1.40394 0.2053,3.87855 0.64582,4.74733 1.06102,-0.94069 3.18545,-4.56961 2.74451,-1.11323 0.52182,3.14806 -3.98512,7.84642 1.26763,8.38071 2.38168,0.70866 -0.99451,-2.46288 0.41174,-3.8732 -0.53786,-1.82195 1.7395,-5.87424 2.08214,-2.06243 0.78728,1.24038 1.16327,-1.6117 2.10129,-1.90555 1.96252,-2.18166 3.1142,1.93686 3.13809,3.75072 0.54647,-1.4753 2.6629,-3.44128 1.46358,-5.10287 -2.35283,1.55346 -0.34341,-2.97191 -2.72912,-0.84011 -1.67736,0.75712 -4.44007,-1.44619 -1.1849,-1.02856 3.3262,-0.67494 -1.03004,-6.01537 1.4609,-7.19214 -0.33685,-0.57918 -3.18921,-0.36561 -2.65411,-2.46939 -1.26519,-0.77995 -2.59232,-3.61433 -0.0641,-2.01179 2.19952,2.45943 2.28567,-1.18622 0.1261,-1.85073 -1.45922,-3.38446 -1.52578,3.42901 -2.87201,0.48556 0.27919,-2.94338 4.77025,-6.00063 6.6008,-2.28593 1.8653,2.25491 -2.11833,4.41016 0.69201,6.28207 3.22453,1.41792 0.83864,5.25281 1.33219,8.13721 1.92881,3.70642 -0.10558,7.17838 -2.23477,10.26973 -0.47951,1.84472 -4.04701,4.19787 -2.1087,0.8611 0.78027,-0.9499 3.1868,-3.81898 0.55367,-2.69007 -1.12006,-1.20902 -2.40346,-2.70111 -1.43082,0.0555 0.73507,1.7343 -0.30235,2.09293 -0.88805,2.32976 -2.27397,1.92847 3.98031,6.41546 2.71539,2.26391 1.83322,0.31778 0.99048,4.13068 3.81033,4.00239 6.27159,2.32959 12.14675,5.71837 18.58272,7.58078 3.72447,0.8168 7.3062,2.07951 10.29065,4.46154 0.29549,1.31435 1.53677,1.80077 2.06039,2.76291 -3.33514,0.58957 -6.5568,-1.61876 -9.91252,-1.84235 -4.2979,-1.22835 -8.7855,-1.74934 -12.95405,-3.42091 -1.18952,2.71 -0.054,6.04653 -0.22968,8.69593 1.82221,0.37085 4.21739,1.23563 5.76216,1.07185 -3.71411,-3.15689 3.3813,-2.04247 5.08358,-1.29071 3.24636,-0.36774 6.52131,0.87014 9.75181,1.31001 1.50232,-0.44461 5.15786,2.21283 1.95716,1.77018 -3.21641,-1.78223 -5.44708,1.26185 -8.71134,-0.95997 -1.59914,-0.37191 -6.4575,-2.07195 -6.10011,-1.25344 0.94032,1.1039 6.3956,1.62368 4.24746,3.00952 -0.66375,0.0138 -1.31234,-0.17131 -1.94274,-0.35557 z m -71.72339,-5.53261 c -1.52728,-0.77509 -4.82643,-1.16174 -1.38691,0.13204 1.37147,0.64844 4.69835,0.92919 1.38691,-0.13204 z m 59.90093,1.39431 c -0.49466,-2.75332 1.24087,-7.61788 -1.76682,-8.85911 -1.83739,-0.465 -4.38632,-2.50502 -3.66705,0.90565 -0.84173,2.57842 -0.53914,5.33642 -0.44012,8.00445 1.95538,5.5e-4 3.93099,0.18493 5.87399,-0.051 z m -115.77919,-7.62522 c 1.62071,-1.79978 4.43641,-3.96201 4.75246,-7.27445 1.02418,-3.70301 2.18983,-7.45941 2.21135,-11.33405 -2.1495,4.1433 -1.70456,9.57304 -5.2355,12.96245 -3.12045,0.46191 1.9494,-2.96319 1.63061,-4.68368 0.68714,-2.35556 2.47116,-6.85543 1.04352,-8.33065 -0.69571,4.13424 -1.36643,8.68798 -4.24529,11.93349 -1.44397,0.84087 -2.83058,1.32073 -2.15519,3.22933 0.27833,1.32515 -0.44155,4.46524 1.99804,3.49756 z m 6.93936,-2.5941 c 3.12878,-1.56268 2.7018,-5.82992 3.95098,-8.64278 -0.14852,-1.88273 -0.57574,-3.75551 -1.36179,-0.81197 -1.3774,3.47677 -2.29646,7.35561 -5.08517,10.03102 -0.78187,1.35032 2.19745,-0.9531 2.49598,-0.57627 z m 100.0348,-0.2291 c 0.95497,1.70489 4.05925,-0.0793 1.30563,-0.4381 -1.91011,-1.08263 -4.39462,-1.40958 -3.50104,1.67691 1.05915,2.8934 1.74694,0.56238 1.96661,-1.13358 z m -108.23034,-5.7247 c 0.65448,-1.68143 2.11382,-6.35744 1.52418,-6.61906 -0.41869,2.98575 -3.46707,5.07609 -2.30491,7.80196 0.39513,-0.29261 0.55511,-0.77127 0.78073,-1.1829 z m 49.47135,-8.22242 c -0.39709,-3.14142 -0.77364,1.87409 0,0 z m 45.92954,-0.42831 c 0.46774,-1.73932 -0.87664,-2.93171 -0.78147,-0.43175 -0.23565,0.57042 0.49167,0.93539 0.78147,0.43175 z m -2.58218,-2.01864 c -2.61201,-2.48773 1.44066,3.86984 0.3354,0.40461 l -0.3354,-0.40464 z m 4.88554,-0.97482 c -0.37994,-1.67498 -1.37047,4.49224 -0.26897,1.21064 0.13879,-0.38983 0.24829,-0.7953 0.26897,-1.21064 z m -3.89786,-2.19406 c -0.58519,-1.82703 -0.64956,1.31588 0,0 z m 1.26196,-2.67371 c -1.42463,-3.88966 -0.0435,5.06151 0.0481,0.49292 z m -5.7242,-0.93401 c -0.34945,-2.34528 -1.3932,1.34269 -0.0458,0.54061 z m 5.52949,-2.3374 c -1.01636,-0.97887 -0.52701,0.94964 0,0 z m 1.22791,-1.55883 c -1.44805,-1.61141 0.77322,2.07743 0,0 z m 13.5282,-1.15102 c 0.925,-2.25612 -0.98964,-2.72342 -0.57172,-0.15295 0.0424,1.29379 0.096,2.45356 0.57172,0.15295 z m -80.69255,-3.2485 c 2.85333,-0.90569 4.90995,-3.82585 7.24875,-5.75066 1.38091,-3.04222 4.06078,-4.94034 6.01704,-7.37925 1.12391,-2.018224 1.36299,-3.374914 -1.01519,-4.544854 -2.4958,-3.68817 -4.86875,0.56845 -6.39467,2.7883 -3.55407,2.907684 -6.72061,6.400864 -10.61145,8.831164 -1.22394,-2.58018 4.65238,-3.28439 4.91025,-6.16859 2.79647,-2.159404 5.71234,-4.370914 7.73817,-7.358974 1.09888,-2.38616 -2.99863,-3.45146 -4.42945,-5.01289 -1.4596,-1.93072 -2.51354,1.07115 -3.99597,1.59618 -2.76171,1.88674 -4.71837,4.6779 -7.25475,6.84823 -1.51707,2.445194 -4.50575,4.414324 -5.00298,7.159344 2.43665,2.43488 5.45567,4.29947 7.99396,6.67026 1.5069,0.74455 3.02668,3.41882 4.79629,2.32174 z m 6.95344,-10.34414 c -2.79323,-2.72665 3.92741,-7.361334 4.23,-3.22314 -0.37648,2.0144 -1.64714,5.44653 -4.23,3.22314 z m 1.41301,-0.78794 c -1.80589,-0.92709 1.05042,1.15179 0,0 z m -15.45892,-0.11672 c -0.0609,-1.07029 -0.68042,-4.171524 1.28281,-3.549264 3.38747,-0.42737 4.08481,4.290834 0.31265,3.985624 -0.54341,0.0156 -1.19969,0.002 -1.59546,-0.43636 z m -1.77349,7.08247 c -1.5753,-1.5716 -0.86366,-0.0374 0.22854,0.32578 z m -52.27398,-1.2911 c 0.067,-3.3971 -2.37184,1.24478 0,0 z m 2.01932,-1.32666 c -0.71375,-3.40839 -1.20953,2.39819 0,0 z m 2.70456,-0.59998 c -0.20904,-2.73188 -2.99609,-0.84927 0,0 z m -6.02697,-1.15223 c -0.83396,-0.4874 0.70232,1.17116 0,0 z m 13.44898,0.66308 c -0.0318,-1.59929 -2.26498,-3.09657 -0.79179,-0.57208 0.10797,0.19492 0.70018,1.34613 0.79179,0.57208 z m -5.58867,-0.37596 c 0.51463,-3.5239 -2.89047,0.26274 0,0 z m -5.17427,-0.82983 c 0.22786,-3.00733 -1.9557,0.57238 0,0 z m 2.0807,-0.96465 c -0.98766,-2.78512 -1.48637,-0.14799 -0.0838,0.25768 z m 2.25198,-0.61773 c -0.19321,-3.08664 -3.5068,-0.80764 -0.32315,0.23726 l 0.32315,-0.2373 z m 82.32074,1.07179 c -0.65739,-1.3362 -0.69837,-4.10615 -0.98355,-4.927734 -0.15759,1.835944 -1.39957,5.297264 1.28174,5.490634 l -0.29823,-0.5629 z m -79.59317,-2.47931 c 0.349,-1.94142 -2.79239,-3.807344 -1.39996,-0.86607 0.14661,0.6368 0.71774,1.89148 1.39996,0.86607 z m 2.30916,-2.641414 c -1.02558,-1.17884 0.66213,1.743084 0,0 z m 17.58513,-14.02676 c 0.15084,-6.957017 -0.40502,-13.908847 -0.35623,-20.858157 -2.45078,0.19067 -4.52463,3.58122 -6.17883,5.64158 -2.30009,3.18037 -5.0804,7.5489 -2.89169,11.4564 1.07202,0.74971 2.49428,4.123187 2.30667,0.8297 0.97701,-2.95536 3.97463,-5.90616 6.28005,-7.47414 -0.2845,3.27201 -4.7795,4.80068 -5.26495,8.21946 -0.38278,1.48034 1.05975,4.200147 1.39372,1.2459 2.76279,-3.56573 3.62091,1.933867 0.91815,3.038547 1.76769,1.42301 4.66243,3.44414 3.77009,-0.43029 0.0122,-0.55626 0.0194,-1.11266 0.023,-1.669 z m -10.24728,-2.554117 c -1.05977,-0.82353 -6.55518,-3.78871 -3.03195,-1.19296 0.4801,0.17153 3.58168,2.69975 3.03195,1.19296 z m -1.19963,-3.80746 c -0.22723,-4.04921 2.57179,-7.48423 4.70354,-10.67023 1.89722,-2.09361 3.61667,-4.70357 6.51955,-5.39479 1.68751,-0.40166 -1.10638,-1.10831 -1.59188,-1.65785 -2.7355,-1.17193 -5.04099,-4.52602 -8.30685,-3.273257 -1.55983,0.376125 -3.52834,-0.252758 -4.62403,1.206842 -4.00623,2.883755 -6.55609,7.784895 -5.96162,12.774565 -0.24814,3.69458 3.13423,5.38328 5.91375,6.81762 1.26453,0.31435 4.30854,3.56161 3.34754,0.1971 z m -4.28288,-13.57368 c -2.99762,-2.54366 3.27742,-6.360018 3.49666,-2.33656 0.50546,2.15097 -0.4922,3.06414 -3.00032,2.43684 l -0.49633,-0.10028 z m -6.05537,8.04021 c -0.82468,-5.30346 1.06473,-11.24038 5.44254,-14.513103 0.90021,-2.510704 5.98008,-1.223892 5.91042,-2.863333 -2.58325,-2.317047 -6.34741,-1.775973 -8.89105,0.299334 -3.51573,2.827492 -6.64334,6.989772 -6.62138,11.677902 0.57945,2.33392 3.01476,4.99471 4.29201,6.00858 z m -3.57887,-1.67559 c -2.71761,-2.82709 -1.84216,-7.01294 -0.0665,-10.07266 2.05521,-3.681849 5.21743,-6.996583 9.3356,-8.262715 -0.61911,-3.159363 -5.83024,-1.223912 -7.79797,0.614472 -3.85824,3.562966 -6.77732,9.687903 -3.84592,14.685233 0.0598,0.69135 3.39398,5.56676 2.37479,3.03567 z m -3.59243,-2.88409 c -1.80069,-2.96113 -1.5025,-6.55413 -0.0886,-9.591576 1.16806,-2.898603 3.23866,-5.615764 5.97467,-7.22907 1.07229,-0.723842 4.43312,-1.722572 1.20132,-1.59341 -1.93488,0.09985 -3.87063,0.181671 -5.80604,0.27027 -2.50805,3.397041 -5.60011,6.805219 -6.11916,11.139526 0.54665,3.25463 1.94075,6.79726 4.52484,8.94641 2.53382,1.44488 0.51578,-1.04192 0.31293,-1.94215 z m 41.79446,1.73979 c -1.12536,-1.00591 -0.1571,0.89171 0,0 z M 27.780952,152.77256 c -0.989581,-1.77968 0.705578,-6.55946 1.26298,-2.49152 1.104599,0.78283 3.485825,0.0273 4.975031,0.32669 2.220715,0.50226 3.720706,-0.74776 2.849819,-2.38544 3.867426,3.03865 -2.851941,3.6685 -5.021566,3.338 -1.943628,-0.71209 -2.566768,1.19271 -4.066264,1.21227 z m 11.372118,-1.63551 c -0.848986,-1.51827 -0.171092,-7.24887 -2.683286,-3.67536 -1.233597,-0.66156 3.134597,-3.83896 1.895305,-6.03203 1.810399,-1.67024 -0.442121,3.35926 1.46443,2.04035 -5.4e-5,1.86579 1.984239,4.60591 1.235502,5.86795 -1.300936,-0.83133 -1.793404,-5.08513 -2.049886,-5.04454 -0.02361,2.36013 0.7443,4.69297 0.582943,7.02154 l -0.111593,0.0785 -0.333418,-0.25635 z m 3.074632,-0.19794 c -1.116193,-2.8872 5.208947,-1.56697 1.442647,-0.25841 -0.476201,0.0687 -0.949298,0.31396 -1.442647,0.25841 z M 29.855594,149.0517 c -3.131752,-2.15913 -0.320311,-5.23959 2.122901,-6.45726 0.561627,-1.21316 3.042866,-3.99581 3.908582,-2.85964 -2.008323,2.0315 -3.809314,4.84985 -6.486873,6.08774 -0.586613,4.20327 4.51795,1.43921 5.687223,3.21547 -1.641106,0.2961 -3.5745,0.42101 -5.231833,0.0137 z m 11.441309,-3.52622 c -0.395953,-1.60619 -0.941392,-6.15133 0.564921,-5.97397 -0.323533,2.10657 0.454765,4.79105 0.0173,6.41196 l -0.270201,-0.13101 z m 240.158027,5.38665 c -3.96334,-1.26345 2.85905,-2.66108 4.04992,-2.23897 0.29005,1.66019 -2.7285,2.66817 -4.04992,2.23897 z m -79.98453,-4.11887 c 0.40909,-2.506 -0.0595,-5.73797 -0.23615,-8.63259 -0.4091,-2.95243 -0.57243,-5.053 -0.47161,-7.99394 0.15202,-1.71184 -2.2135,-6.67011 0.21121,-6.26326 0.43845,3.22145 1.33483,6.36478 1.77895,9.59316 -1.08429,3.11428 1.1478,6.34601 0.28544,9.52773 -0.42729,1.05639 0.66851,5.11289 -1.56782,3.7689 z m 82.68062,0.21665 c -1.13882,-1.72644 1.06094,-4.54994 0.91587,-1.38615 -0.0173,0.4746 0.0602,2.23538 -0.91587,1.38615 z m -9.32958,-0.69232 c 1.4564,-1.61804 -3.32497,-2.09555 -1.80736,-0.21652 -1.82572,0.89605 -3.90246,-3.58153 -0.3725,-2.43381 0.75216,-0.63616 1.21107,-2.23073 2.65547,-1.11706 3.53479,-3.1233 -0.19871,5.78625 3.46795,2.27415 0.56598,-0.2774 1.41118,-3.25222 2.32867,-1.04488 2.36022,2.75414 -3.01627,3.3471 -4.59167,2.61562 -0.46307,0.0659 -1.39409,0.55412 -1.68056,-0.0775 z M 36.174003,138.43815 c -1.711675,-1.09973 0.04366,-4.78317 0.230322,-1.34669 0.118869,2.76602 7.153695,-0.13688 3.64577,2.06729 -1.270651,0.10451 -2.955656,0.42432 -3.876092,-0.7206 z m 141.325117,3.903 c -1.72722,-0.99262 0.15216,-6.71275 -2.05353,-4.91085 1.6723,1.99131 -1.35061,2.15674 -1.85567,3.81287 -1.85475,-2.60529 -0.38469,-6.361 -1.82709,-9.27744 -1.91507,-1.64825 -0.45729,-3.80815 1.70888,-2.5568 1.76398,-0.10291 3.01353,-0.2972 4.05316,-1.34421 0.72403,3.65989 -0.45306,7.57419 0.46128,11.27832 -0.006,0.64527 0.87657,3.53246 -0.48703,2.99811 z m -3.13651,-4.61686 c -0.68691,-1.08286 -0.6478,1.01505 0,0 z m -0.13914,-2.51123 c -0.99463,-2.11035 -0.24621,2.55938 4e-5,0 z m 2.33817,-0.9376 c -0.74069,-2.25674 -1.75679,3.60494 0,0 z m -2.54492,-0.96099 c -0.27545,-1.28718 -1.05418,-4.14294 -0.80879,-1.10921 0.10584,0.1969 0.17617,1.72285 0.80879,1.10921 z m 1.80013,-1.11351 c 2.20507,-0.94084 -1.48067,-3.15239 -0.76504,-0.47333 -0.0681,0.37003 0.77801,1.70043 0.76504,0.47333 z m -134.563151,4.93639 c 4.178723,-1.16313 -0.689676,-4.96833 -2.661743,-5.10659 -1.018657,0.45683 -1.276571,4.84258 -1.757875,1.75082 0.418171,-4.88213 6.466691,-1.47817 7.06654,1.58381 0.425489,1.24097 -1.88321,2.84819 -2.646922,1.77196 z m 276.756721,3.17266 c -2.42873,-1.30342 -3.76002,-4.18022 -4.88815,-6.02992 0.32796,-7.2166 1.10302,-14.41829 1.4633,-21.63917 0.34982,-5.37843 0.95254,-10.73919 1.36843,-16.109794 -2.74158,-0.80534 -6.09952,-1.41138 -9.06072,-0.66315 -1.16379,0.6377 -6.64999,0.8021 -3.17207,-0.56277 2.44507,-1.00996 6.48866,-1.04943 8.18024,-1.70189 -3.66399,-1.05871 -7.06129,1.47582 -10.69522,1.52971 0.94299,-2.51696 5.45366,-1.80098 7.82201,-3.0135 3.45471,-0.0478 6.63096,2.19724 10.16273,0.71559 2.67475,-1.07706 4.95268,1.11938 7.70711,1.42673 -0.19738,2.39935 -5.70458,0.12966 -4.56523,3.97221 -0.19205,8.737474 1.34741,17.391534 2.43165,26.032254 0.24338,3.34007 -0.54618,6.71788 0.99978,9.92184 1.39251,3.10006 -3.02521,7.07753 -6.31858,6.63866 -0.50745,-0.069 -1.00188,-0.24281 -1.43528,-0.5168 z m 3.39525,-1.11193 c -0.85481,-0.31188 -0.72299,0.47425 0,0 z m -0.85019,-1.28792 c 2.43822,-1.04409 1.66878,-4.30586 3.0152,-6.08727 -0.54928,-3.13564 0.55784,-6.26765 -0.19852,-9.39398 -0.77811,-8.80485 -1.96959,-17.58497 -2.27011,-26.424864 -2.6952,-0.29659 -4.73523,0.76588 -4.30499,3.88051 -0.87038,5.884544 -1.57209,11.842854 -1.28859,17.798924 0.62486,2.88684 -0.81813,5.85778 -0.72969,8.82123 0.21573,2.60066 -1.93375,6.3001 1.89379,6.60776 -0.33501,1.45398 -2.06302,2.4526 -0.0708,3.88246 0.92196,1.25019 2.57648,1.55887 3.95362,0.91523 z m -4.8416,-43.060244 c -1.04626,-0.24837 -0.89449,0.39511 0,0 z m 5.61038,-0.22848 c -0.75923,-0.90874 -6.59039,0.63778 -2.18773,0.38443 0.72488,-0.0883 1.51749,-0.0521 2.18773,-0.38443 z m -24.95367,43.069834 c -1.0273,-3.16723 -1.13364,-6.47804 -0.33309,-9.74886 0.88481,-4.72623 2.10584,-9.40734 2.45253,-14.21393 1.20301,-4.79494 2.04219,-9.66495 2.90668,-14.527274 -1.98815,2.641304 -1.82063,6.029274 -2.32717,9.111744 -1.49261,2.79817 -3.77375,5.22852 -3.68785,8.55888 -2.73229,-1.16783 0.47931,-5.98717 0.76916,-8.30875 0.75136,-3.17254 2.43806,-5.88358 3.5062,-8.949324 0.48697,-2.12052 4.46272,-3.80752 3.58075,-0.2885 -2.16523,2.421074 -0.88169,6.260594 -1.6298,9.257494 -0.56012,4.31637 -1.28183,8.61566 -1.18993,12.98952 -0.34724,3.27856 0.40604,7.18371 -0.8147,10.08368 -2.71721,-0.60236 -0.93736,5.58882 -2.76593,7.11953 -0.58011,0.0396 -0.44388,-0.75478 -0.46685,-1.08421 z m 1.1903,-6.98831 c 1.09019,-1.4631 0.42084,-6.61292 -0.39608,-2.49278 -0.35504,1.28916 -0.75432,6.05377 0.3961,2.49278 z m 0.63476,-6.78227 c -0.442,0.26711 0.22772,1.33477 0,0 z m -5.60945,12.59014 c 0.0869,-1.50417 -1.57129,-6.42737 0.40848,-5.86243 0.17745,0.85663 1.66047,7.00407 -0.40848,5.86243 z m -38.96256,-9.17544 c -3.27205,-1.23253 1.17644,-2.84263 -0.52912,-4.55257 3.30641,-1.57384 5.66214,5.02521 1.71641,5.17011 l -0.64884,-0.22486 -0.53874,-0.39268 z m -10.14686,-10.99804 c -4.32854,-2.62363 3.48601,-7.16693 3.09254,-2.01854 0.57387,2.03936 -1.42414,3.35792 -3.09254,2.01854 z m 1.02501,-1.14464 c -0.47176,-2.38737 -2.11813,0.43416 0,0 z m 27.17302,-2.82565 c -0.69669,-2.99357 1.54439,-8.05369 5.03715,-7.83473 2.49151,0.43129 -2.64662,2.38719 -1.54637,4.33354 -0.34787,1.67222 1.5303,4.6334 -1.35085,4.10451 -0.71029,0.68454 -1.88293,0.33896 -2.13993,-0.60332 z m 1.73671,-2.22908 c 0.49394,-2.98406 -1.74726,0.74867 -0.41606,1.67913 0.63444,0.0509 0.32647,-1.32909 0.41606,-1.67913 z m 4.03727,-0.40522 c 1.00273,-0.98448 0.60101,0.8952 0,0 z m -0.48548,-1.45591 c -3.06691,-2.03632 2.83711,-0.0513 0,0 z m 17.93623,-9.403214 c -0.36322,-5.27805 -0.16993,-10.61736 -0.95152,-15.877107 0.22952,-3.23313 -2.2015,-6.34542 -1.47526,-9.17668 1.67385,-0.49642 1.47002,3.37446 1.86506,3.70113 -0.1523,-4.66336 -0.79703,-9.30479 -1.67789,-13.88099 0.40977,-2.20645 -0.0898,-5.005228 1.2581,-6.357611 -0.32129,-2.645677 -1.63732,-6.767843 0.76682,-8.435614 0.2996,-1.227039 -0.13929,-6.437279 1.62141,-3.897221 2.89114,-1.509166 2.44162,4.688005 3.04798,6.507784 0.81719,3.407477 -0.36871,6.780633 -0.0276,10.127322 0.57064,2.37721 0.98237,5.3144 -0.67392,6.78933 0.33042,6.81656 0.90109,13.62193 2.06105,20.354337 0.65034,1.58101 0.0182,6.35895 -2.15623,3.57205 0.76138,2.38486 0.25005,4.84873 -2.04234,5.75288 -0.0234,1.02902 -0.80382,2.438084 -1.61564,0.82039 z m 2.06927,-4.87889 c -0.96596,-2.8448 -0.63042,-6.08031 -0.4504,-9.113487 0.0844,-3.30536 -0.43456,-6.59085 -0.89248,-9.85373 -0.3008,4.23712 0.23615,8.50211 0.21959,12.731397 -0.7185,1.09836 -0.25798,7.80521 1.12329,6.23582 z m 1.31094,-7.1903 c -0.21105,-4.011467 -0.41492,-8.045787 -1.10249,-12.007817 0.0655,5.12761 0.68903,10.247367 0.6148,15.376907 -0.33507,3.01709 0.98577,-3.00329 0.48769,-3.36909 z m 1.39626,0.31994 c -0.0463,-1.70658 -0.67999,-3.607217 -0.39743,-0.75941 -0.073,1.34805 0.76254,5.15995 0.48808,1.75608 l -0.0411,-0.48348 z m -0.50971,-3.800607 c -0.44606,0.29387 0.18981,1.54476 1.9e-4,1e-5 z m -2.17778,-11.30461 c 0.2951,-1.54883 -1.15192,-3.97696 -0.57233,-1.00525 0.13835,1.41486 0.85071,4.70389 0.59677,1.44442 l -0.0244,-0.43917 z m -1.23303,-5.07163 c -0.80079,-2.82531 -0.49625,1.75686 0.0714,0.71665 z m 2.50421,-4.68113 c -0.0805,-1.68837 -0.79424,-2.623127 -0.49922,-0.3267 -0.0282,1.44295 1.23219,4.4158 0.65974,1.29454 l -0.0749,-0.46961 z m -1.98617,-2.157259 c -0.47088,-0.200135 0.15127,1.133359 0,0 z m 0.93031,-4.101522 c -1.3038,-3.056058 0.62642,3.444639 2.1e-4,5e-6 z m 1.26379,-2.082455 c -0.19984,-1.119141 -0.29884,-5.503115 -1.02392,-4.703564 -0.12625,1.53611 0.12163,5.522964 1.04424,5.591891 l 0.007,-0.39955 z m -99.16379,40.459503 c -4.0621,-2.05548 1.77889,-8.3516 2.93189,-3.04603 0.785,2.01028 -0.64307,4.24946 -2.93189,3.04603 z m -17.00133,-7.40672 c -1.44064,-1.68932 0.52297,-3.553187 -0.26269,-5.064727 2.66488,0.35531 6.10816,3.679797 2.11695,5.424567 -0.59922,0.57391 -1.3965,0.17827 -1.85426,-0.35984 z m 15.62575,-2.616277 c -3.37019,-3.32455 4.96693,-4.3689 2.83604,0.0471 -0.79256,0.683337 -1.99971,0.37855 -2.83604,-0.0471 z m 2.66552,-12.37839 c -0.88825,-2.0195 0.82087,-7.5899 -2.69283,-5.00075 -1.29867,1.38471 -6.60341,1.86316 -4.2668,-0.65852 2.49207,1.63267 4.76452,-1.33916 6.10676,-2.97013 3.53346,-0.56074 0.72015,4.6278 1.77854,6.71265 0.43827,1.16212 0.22838,4.54038 -0.92567,1.91675 z m 104.11695,-10.89667 c -1.91572,-6.366378 -2.85832,-13.083577 -5.79375,-19.097679 -1.01554,-0.490717 -2.71448,-3.723249 -0.4794,-2.499435 1.04228,1.523986 2.58067,2.970751 1.17772,0.281528 -1.41378,-1.346253 -2.84764,-3.810037 -2.13439,-4.99457 -0.62808,1.514144 -0.42378,4.161994 -2.78312,3.008508 -2.56648,1.850346 -2.93553,4.731911 -2.40073,7.875702 -0.015,1.064681 0.78427,6.706952 -0.90329,4.597691 -0.79656,-1.639963 0.75126,-6.287941 -1.26428,-6.049944 0.41276,2.026315 -1.10564,1.770223 -2.12142,1.397718 -0.35841,1.799154 -1.65146,3.520096 -1.81111,5.185636 -1.53425,-0.428627 -1.99805,0.450595 -2.02056,1.868982 -0.69199,2.563767 -1.83036,5.531871 -1.02315,7.772045 -3.71585,2.177678 0.0733,-6.789404 -2.16826,-3.570874 0.6588,1.401786 -1.77506,4.516922 -1.36792,1.678279 0.77014,-3.191848 0.88437,-6.216518 3.22357,-8.737524 1.19978,-3.413314 -1.07012,0.765357 -2.18586,1.273193 -0.32007,-2.179202 2.24485,-4.763629 3.19834,-6.993344 0.53461,-2.311918 4.65859,-4.555259 3.78116,-6.468729 0.27691,2.846542 -4.286,-0.09802 -2.81326,3.114194 0.0484,2.373739 -4.09957,-0.800469 -2.88761,2.54872 -2.99271,0.357846 -3.43676,5.756359 -7.24733,5.814528 -2.12023,-0.421289 -2.69795,2.485197 -4.09445,2.190099 -0.75569,-3.743825 4.8573,-2.337813 5.9725,-4.70038 0.10688,-2.157831 -0.6799,-4.410219 -2.97964,-2.420389 -1.17555,1.128756 -3.83948,0.529676 -1.44969,-0.654907 2.83712,-1.309302 5.4069,-2.772797 8.04501,-4.152308 1.57084,-0.288116 4.33434,-2.875663 1.45163,-3.213671 0.96331,4.753208 -4.13258,-1.063638 -5.27448,2.432492 0.68643,3.292838 -3.39852,1.245154 -4.3753,2.851943 -2.80949,-3.555856 -1.16497,6.691887 -3.16934,3.35101 -0.38054,-3.438482 1.23523,-7.171095 4.42413,-8.72505 -0.59757,-0.07048 -5.8304,2.887514 -4.97694,-0.784465 2.9478,-1.66701 6.42411,-1.93193 9.72695,-2.449822 2.79145,-0.603321 4.93845,-2.406779 7.75985,-1.87713 0.83156,-1.659575 0.45985,-2.877703 -1.24572,-2.556237 -0.19078,-3.427793 -2.84604,2.936598 -3.41971,-0.830974 -0.12892,-1.474568 -0.58107,-2.507296 -2.22694,-1.997781 -2.48535,0.131651 -3.56903,-3.076516 -6.5292,-2.197491 -1.43146,0.03643 -5.2369,-0.281919 -2.64355,0.972643 -1.61102,2.118903 -4.58191,-2.184737 -1.00709,-2.129439 3.30945,-0.675389 7.27642,-2.29228 9.3056,1.33062 1.73929,-0.245709 5.3686,3.723439 5.10663,0.435615 -1.84931,-0.372958 -3.48891,-1.283291 -3.79386,-2.894794 -2.88033,-0.429685 0.88205,-2.399584 1.84681,-0.321089 2.24698,1.999912 6.52849,3.288376 7.25003,5.897953 1.65175,2.002542 3.03811,5.024369 5.79846,6.067592 1.92856,0.710965 -1.09294,4.808143 1.59789,3.282878 0.14605,-2.995564 -2.10802,-4.81427 -3.85121,-6.454071 1.51675,-1.718521 -2.30634,-3.059638 -1.09945,-4.833709 -2.93063,-0.960003 -1.87045,-4.116341 -5.05745,-4.717442 -0.42501,-2.033253 -3.70581,-1.582598 -3.84482,-3.220027 1.80262,0.131504 2.31505,-2.027902 3.72042,0.107724 2.49096,0.356452 1.5322,3.704685 4.65365,4.016922 1.04708,2.600135 2.93014,5.348557 4.91739,7.521311 -1.2093,1.553523 1.22041,2.934732 1.49224,0.845935 -1.87549,-0.552694 -0.2251,-2.975809 -2.3591,-3.747915 1.39982,-1.340213 0.47688,-1.780986 -0.37935,-3.258494 2.81479,-1.456113 -2.14756,-3.032598 -1.68405,-5.402878 -3.17277,-2.605934 2.20638,-1.31945 2.51241,0.906343 0.81522,1.249239 1.42903,3.924826 1.87263,0.855283 0.93999,-0.640166 -1.77039,-3.528821 0.65056,-2.16194 0.6095,1.311475 3.8031,0.400034 1.56949,2.225093 0.60893,1.538124 0.0359,6.539436 1.45791,6.532493 3.11006,-0.994994 3.04805,-4.714259 4.9931,-6.765253 1.26226,-0.751428 3.01067,-4.815669 4.14761,-3.460921 -0.61102,1.204244 -2.20655,3.17656 0.28927,1.688529 2.70415,-1.701845 1.74743,1.365597 -0.36548,1.467309 -2.41895,0.216766 -4.81285,2.705957 -3.29072,4.876482 2.9083,-2.483194 6.39888,-4.383399 10.01838,-5.588676 2.33825,0.81593 -3.08402,1.713867 -1.6886,3.760146 -1.23731,2.962523 -6.27064,-0.140071 -7.01148,3.651246 -1.62435,2.197898 -2.83514,4.745701 -4.40679,7.026916 2.31348,-1.804728 5.49108,-2.124986 8.30072,-2.799464 1.28431,-1.408384 3.52619,0.713019 4.58371,-0.710888 0.39225,-2.116607 6.62389,-2.378782 4.33656,-0.623352 -1.31609,-0.264653 -3.76318,0.906664 -0.91561,0.717504 1.99851,-0.897782 3.25868,1.562998 0.68853,1.300814 -2.53364,0.43136 -5.51871,0.19109 -8.19939,1.529414 1.97968,1.215669 4.09893,2.556879 6.09873,0.562094 2.7757,2.044297 6.21051,0.275968 9.07628,2.320363 1.15588,0.279868 5.47314,2.271132 2.0157,2.150968 -5.09809,-1.872738 -10.61929,-1.497646 -15.92227,-2.323921 -3.46636,-0.08879 -6.62629,0.163202 -10.02194,0.257447 -0.99558,1.096591 3.7143,0.673331 4.89556,0.810167 2.54493,-1.518751 2.49006,2.014398 5.22625,1.837199 3.25264,0.71855 6.03501,2.45466 8.84445,4.140963 2.8145,1.006819 0.417,2.698127 1.97711,4.575303 -1.32455,1.631943 -2.59587,-3.077662 -4.43041,-3.447633 -2.28107,-2.181788 -5.49498,-2.43439 -7.8626,-4.34487 -2.63927,1.071113 2.29482,1.807787 1.49846,3.752762 2.64307,0.590078 3.70215,3.19985 2.97732,5.641441 2.50594,0.824005 1.32594,5.305319 0.0624,6.077725 0.004,-2.41722 -0.71431,-4.727175 -2.02421,-6.407269 0.2016,-3.090348 -3.63312,-2.670987 -3.61691,-5.331698 -2.79602,-0.443126 -3.4421,-3.80739 -6.71465,-3.821908 -1.13058,-1.291996 -3.38398,-1.413853 -3.59703,0.969505 3.20148,-0.685684 5.17156,3.348116 8.37286,3.525096 1.32762,1.716627 2.80031,3.600056 2.89082,6.157169 2.09746,2.61308 1.98978,5.807736 3.10872,8.958341 0.406,2.455699 -1.30196,0.789978 -1.4036,0.07621 -0.46602,3.468679 -1.9295,-1.894931 -2.33761,-3.053588 -0.37084,-2.338384 -3.25398,-2.341952 -3.47861,-5.04859 -1.014,-2.53777 -3.31176,-3.950312 -3.73096,-6.712129 -3.06365,-1.99095 0.6423,3.396486 0.83235,4.710706 1.31521,3.198061 2.51857,6.562108 4.57015,9.333369 -0.6722,1.123244 -2.3331,-0.677507 -1.55988,1.76072 -1.73594,1.609944 -0.74059,-3.375152 -2.623,-3.901708 -0.50932,-2.301449 -2.67446,-2.190465 -1.22101,0.181248 0.10588,2.315597 3.52418,6.377711 1.59121,7.733011 -0.40718,-0.31702 -0.45328,-0.89151 -0.61968,-1.33446 z m -21.82562,-8.78802 c 0.46291,-2.48463 -2.08087,3.599728 -0.20094,0.708619 l 0.20094,-0.708585 z m 22.04344,-1.956615 c -0.36397,-1.251066 -2.46,-6.196311 -1.58289,-2.290857 -0.38993,2.193526 1.8342,4.650819 2.59278,5.424742 -0.25909,-1.06742 -0.64325,-2.100103 -1.00989,-3.133885 z m 6.96052,2.058773 c -0.67669,-0.948015 0.62203,2.399913 0,0 z m -1.0098,-2.139876 c -1.45388,-2.65771 -2.93039,-5.407966 -5.19112,-7.47863 0.0938,2.222253 2.46433,2.527761 2.41703,5.004338 1.13686,0.772729 1.42393,4.849424 3.14999,3.208899 l -0.16096,-0.335256 -0.21494,-0.399347 z m -25.64234,-1.280908 c -0.47927,-1.513652 -0.31258,1.957012 0,0 z m -0.16953,-3.775392 c 0.35315,-1.403385 3.93554,-3.760831 2.59664,-4.550095 -1.43329,1.652284 -3.53859,4.108265 -3.74839,5.888249 0.48307,-0.337004 0.95975,-0.761001 1.15175,-1.338154 z m 25.11306,1.175314 c -0.50982,-2.391024 -1.57419,-0.14235 -0.071,0.242964 z m -31.21774,-2.483892 c 2.0367,-1.941703 -3.5039,-2.457913 -1.51659,0.35428 0.13608,1.818757 1.11656,0.447469 1.51659,-0.35428 z m 36.02991,-0.11518 c -3.38406,-1.935345 1.44795,3.621905 0,0 z m -25.91391,-0.390454 c -0.53298,-1.791555 -0.77181,2.190222 0,0 z m 19.05271,0.111455 c -0.60842,-1.071766 -0.44517,0.97369 0,0 z m -7.38116,-1.233634 c -0.60841,-1.071768 -0.44518,0.973684 0,0 z m -20.36654,-0.68137 c -0.51435,-2.105367 -1.59639,0.741727 0,0 z m 10.32497,0.03068 c -0.5846,-1.197034 -0.39537,1.458588 0,0 z m 21.44681,-0.402192 c -1.61588,-2.133542 -0.42228,1.488322 0,0 z m -36.74203,-1.914141 c -0.80853,-1.573546 -2.07125,0.99314 0,0 z m 7.15041,0.01553 c 0.52061,-1.282747 -1.42736,1.294599 0,0 z m 9.6566,-1.158092 c 3.02093,-3.541683 -5.57049,1.71221 -2.70186,1.374964 0.95307,-0.334819 1.89826,-0.753571 2.70186,-1.374964 z m -18.88407,0.08523 c 2.00651,-0.854096 1.59933,-1.896813 -0.20045,-0.661495 -1.7924,0.911138 -2.50875,2.589548 0.20045,0.661495 z m 36.23045,0.528179 c -0.49753,-0.956563 -1.11996,0.98285 0,0 z m -24.33161,-2.429491 c 1.25658,-0.812763 3.55707,-1.298728 0.68529,-1.162623 -1.65343,-0.253612 -3.11888,0.473015 -1.6844,1.894325 0.39891,-0.144512 0.69307,-0.455951 0.99911,-0.731702 z m 4.75676,0.55158 c 0.19281,-2.197704 -1.9169,0.995452 0,0 z m 17.55414,0.596093 c -1.04633,-0.248341 -0.89441,0.395084 0,0 z m -8.14101,-0.945369 c 0.0787,-2.894113 -1.19417,0.368161 0.21877,0.47341 z m -19.36382,-1.283232 c 1.37015,-0.584259 5.80193,-1.163908 5.30738,-1.435672 -1.71321,-0.143486 -6.84399,0.948968 -6.38728,1.752507 l 0.47021,-0.122044 z m 21.14904,-0.39339 c -0.3751,-0.84527 -0.61844,0.894284 0,0 z m -9.93824,-1.814874 c -1.43224,-1.355874 -5.56002,-0.453093 -1.75181,0.0022 0.30139,0.04419 3.24339,1.281619 1.75181,-0.0022 z m 8.39611,-0.288407 c -0.71916,-1.675436 -0.49779,3.154979 0,0 z m -2.90623,-0.04005 c -0.48168,-1.77717 -0.38757,2.104612 0,0 z m 21.55936,0.431767 c -1.01635,-0.978875 -0.527,0.949622 0,0 z m -8.18723,-0.72343 c -0.26812,-0.93743 -2.07527,1.100104 0,0 z m -1.15952,-1.326002 c -1.10544,-0.598254 -1.61069,0.852875 0,0 z m -20.88309,-1.049218 c -0.4975,-0.956569 -1.11998,0.982863 0,0 z m 12.1224,-1.350154 c -0.47089,-0.200136 0.15127,1.133363 0,0 z m 4.51171,-1.65134 c 1.09835,-3.276772 -3.09917,4.056018 -1.17942,1.707076 0.45524,-0.521832 0.85319,-1.096114 1.17942,-1.707076 z m -6.1973,-1.35109 c -2.26513,-2.702626 -0.42996,5.30554 0.19584,1.320607 0.01,-0.44673 -0.0486,-0.897486 -0.19584,-1.320607 z m 5.07846,0.178814 c 1.94571,-2.864239 -2.51008,1.111094 -1.56906,2.230205 0.50996,-0.752911 0.98347,-1.531159 1.56906,-2.230205 z m -21.1925,0.281032 c -1.02907,-0.229928 0.49275,1.704765 0,0 z m -6.98213,-3.55316 c -1.736,-1.042176 -2.09488,0.683305 0,0 z m 22.2049,-0.576386 c -1.81708,-1.169756 -0.58804,2.845777 0.23171,0.29464 z m 7.03692,0.526261 c -0.42161,-0.819249 -0.60347,1.782323 0,0 z m 8.67583,-1.842104 c 0.38513,-2.352758 -4.97919,1.664334 -0.80965,0.635766 0.38975,0.06214 0.78588,-0.2396 0.80965,-0.635766 z M 85.919562,20.893505 c 0.636624,-3.40767 0.814667,-7.04407 0.220844,-10.483699 -1.324802,-2.1017525 2.170441,-3.8649385 1.757878,-0.7349115 0.29864,3.6943575 0.963304,7.8100905 -0.349118,11.2911205 -0.432484,0.316367 -1.339634,0.584382 -1.629607,-0.07251 z m 29.933248,0.486244 c -3.9448,-0.666158 -0.47797,-4.278334 2.02012,-3.85198 2.65285,1.132886 1.86233,5.781457 -1.60324,3.954039 z m 2.60974,-20.1989365 c -0.0386,-2.301602 -1.70559,-6.2321165 0.0314,-7.6205685 1.48075,1.6187305 2.67842,7.23972247 -0.0314,7.6205685 z"
       id="path4507"
       inkscape:connector-curvature="0" />
  </g>
</svg>
