<?xml version="1.0" encoding="UTF-8" standalone="no"?>
<!-- Created with Inkscape (http://www.inkscape.org/) -->

<svg
   xmlns:dc="http://purl.org/dc/elements/1.1/"
   xmlns:cc="http://creativecommons.org/ns#"
   xmlns:rdf="http://www.w3.org/1999/02/22-rdf-syntax-ns#"
   xmlns:svg="http://www.w3.org/2000/svg"
   xmlns="http://www.w3.org/2000/svg"
   xmlns:sodipodi="http://sodipodi.sourceforge.net/DTD/sodipodi-0.dtd"
   xmlns:inkscape="http://www.inkscape.org/namespaces/inkscape"
   width="410mm"
   height="410mm"
   viewBox="0 0 409.99999 410.00001"
   version="1.1"
   id="svg8"
   inkscape:version="0.92.1 r15371"
   sodipodi:docname="supreme_court.svg">
  <defs
     id="defs2" />
  <sodipodi:namedview
     id="base"
     pagecolor="#ffffff"
     bordercolor="#666666"
     borderopacity="1.0"
     inkscape:pageopacity="0.0"
     inkscape:pageshadow="2"
     inkscape:zoom="0.7"
     inkscape:cx="499.53837"
     inkscape:cy="879.36082"
     inkscape:document-units="mm"
     inkscape:current-layer="layer1"
     showgrid="false"
     inkscape:window-width="2560"
     inkscape:window-height="1365"
     inkscape:window-x="-9"
     inkscape:window-y="-9"
     inkscape:window-maximized="1" />
  <metadata
     id="metadata5">
    <rdf:RDF>
      <cc:Work
         rdf:about="">
        <dc:format>image/svg+xml</dc:format>
        <dc:type
           rdf:resource="http://purl.org/dc/dcmitype/StillImage" />
        <dc:title></dc:title>
      </cc:Work>
    </rdf:RDF>
  </metadata>
  <g
     inkscape:label="Layer 1"
     inkscape:groupmode="layer"
     id="layer1"
     transform="translate(571.71043,100.11432)">
    <path
       style="fill:#000000;stroke-width:0.41471931"
       d="m -236.78737,245.67181 c -2.56198,-0.68393 -3.94555,-3.80568 -6.49886,-2.00802 -7.22745,-1.66123 -14.7601,-1.3885 -22.13552,-1.70491 -4.0277,0.25837 -7.82019,-1.01313 -11.81954,-1.10897 -13.95281,-0.81306 -27.93437,-1.57527 -41.91383,-1.37268 -1.34228,0.6303 -4.42195,2.01207 -2.21065,-0.58611 2.37957,-2.05687 -4.24641,-0.74856 -5.74596,-1.37144 -14.20457,-0.89519 -28.37204,-2.43345 -42.61843,-2.56869 -28.62641,-0.78695 -57.24733,0.41702 -85.86345,1.01801 -15.6117,0.18069 -31.16494,-1.72086 -46.78167,-1.49254 -13.35413,-0.21962 -26.72621,-0.31255 -40.06062,-1.05209 3.40827,-1.5857 8.83483,-0.24957 12.9894,-0.58756 20.85274,0.35913 41.69739,1.0428 62.53679,1.82935 22.0967,0.7239 44.16756,-0.97822 66.26287,-0.84283 21.18163,-0.023 42.39205,0.32359 63.4937,2.29245 5.85138,0.51126 11.77173,0.20626 17.58725,1.01734 3.23554,1.90732 7.40957,1.01157 11.0431,1.5317 19.37831,0.95607 38.77871,2.11342 58.18728,1.6894 0.77085,-2.88766 -4.97253,-1.30217 -6.76584,-0.61248 -8.9583,-1.2149 -18.0083,-1.65476 -27.02307,-2.10544 1.66088,-2.06178 7.94573,0.21547 11.31435,-0.0577 5.61377,0.46616 11.23453,0.85697 16.86518,1.04119 1.2313,-4.63262 -4.94261,-0.25778 -5.49234,-2.78933 -1.47381,-2.84838 -5.84708,0.0951 -8.67637,-1.60986 -6.43126,-0.85037 -13.07266,-1.15771 -19.4503,0.0876 1.86505,-2.31047 7.39259,-1.04543 10.69831,-1.44977 4.01621,-0.34643 8.22422,1.11244 12.08393,0.31681 -0.8468,-2.66776 -5.82726,0.61342 -6.14035,-3.27659 -3.27036,1.04481 -7.069,0.77999 -10.68311,0.6774 -5.37618,-0.1282 -10.79568,-0.3799 -16.12968,0.33489 1.9125,-2.27341 7.55437,-0.81001 10.95487,-1.27221 3.94777,-8.8e-4 7.89554,-1.5e-4 11.84331,-3.9e-4 1.27061,-2.78226 -2.82597,-2.99665 -3.23255,-1.11616 -3.12454,0.53098 -0.93504,-3.39484 -4.64614,-2.2925 -1.52211,-0.40245 -7.32122,1.7473 -5.98417,-0.33422 2.58574,-1.24897 7.55557,0.29181 8.85625,-1.4418 -1.49259,-0.13323 -6.92908,-0.16166 -2.74821,-1.29415 2.70355,1.52295 4.63659,-4.37248 1.70087,-3.43863 -4.54921,0.26403 -9.21542,1.14833 -13.71493,0.54595 4.01336,-1.17439 8.38288,-0.92024 12.52519,-1.65915 1.63197,-0.0441 3.1749,-0.16694 2.55625,-2.19928 0.63378,-2.15928 -0.9749,-1.98714 -2.61754,-1.7797 -3.60775,0.0755 -7.24506,0.48485 -10.83349,0.0702 3.51776,-1.50569 7.76674,-0.83697 11.57875,-1.40475 4.74136,-1.16591 -3.28295,-1.81205 -4.8376,-1.7354 -14.00007,-0.93277 -28.063,-0.90161 -42.02168,-2.35833 -9.45338,-0.55754 -18.91719,-0.23433 -28.36008,0.30461 -14.65269,0.51558 -29.3354,0.19486 -43.97199,1.05945 -2.93608,-1.29663 5.47129,-0.85869 6.87335,-1.07004 16.35981,-0.43673 32.73686,-0.48708 49.07252,-1.52418 9.17988,-0.12366 18.42899,-0.2353 27.5076,1.2798 11.95731,0.66785 23.9106,1.56669 35.88347,1.87291 2.44311,0.20075 1.25893,-1.65932 0.0915,-1.89323 1.72824,-1.63214 6.54872,-1.66613 6.62858,-4.06616 -2.11042,-0.52974 -6.17952,0.27366 -7.14045,-0.75506 2.63077,-0.12126 7.93741,-1.98981 9.07599,0.39677 -1.26909,1.38531 -4.51148,6.17579 -5.55866,5.00118 -1.09426,-1.64151 0.59609,3.24455 -0.16213,4.10429 -0.2263,4.15831 -0.17708,8.32436 -0.2342,12.48691 2.32937,-0.009 5.24002,-0.77858 5.71927,2.16425 2.05394,0.24101 4.03241,-0.29624 4.29037,2.38157 2.65439,-0.19854 4.50607,0.50213 5.97836,2.25129 3.50587,-0.38044 5.21119,2.96641 8.99999,2.09079 0.57427,4.1233 6.24361,0.59726 7.52027,4.63246 1.71324,-0.10932 9.03544,-0.57388 4.07623,1.28628 -1.29311,3.16446 4.96616,-1.54058 5.17434,2.3243 1.40682,0.0202 5.46587,1.98779 2.57089,2.60148 l -0.46689,-0.45757 z m -9.17115,-4.00856 c -0.61965,-1.6035 -1.24355,1.33758 0,0 z m -6.61132,-0.30834 c -1.70284,-0.25214 -6.26413,0.18438 -1.94842,0.15898 0.0172,0.008 3.53879,-0.0125 1.94842,-0.15898 z m 18.09576,1.71851 c 0.38203,-3.26402 -0.75257,-7.05453 0.57404,-10.33031 -1.82754,0.30635 -6.34996,-3.15956 -2.26558,-1.99244 3.06821,0.36808 5.30149,1.62665 2.77538,4.54794 -2.01808,1.7264 2.64244,8.9238 -1.08384,7.77481 z m -330.95608,-9.74407 c -1.36344,-2.55595 3.78401,-2.58666 4.55182,-4.11201 0.37244,3.60878 6.31495,-0.33619 8.92288,0.31627 5.55239,-0.31326 11.22256,-1.42252 16.74605,-0.46452 2.46689,2.34573 -4.36076,-0.22451 -5.61917,0.48809 -1.88631,-0.0888 -7.98787,0.0172 -7.78479,0.58929 2.72095,0.55297 8.20397,-1.20949 9.37193,0.97368 -7.41837,-0.62057 -14.98529,-0.19298 -22.32239,1.11244 -1.3849,0.11317 -2.59328,2.99005 -3.86633,1.09676 z m 106.23346,-1.88657 c -24.25907,-0.6117 -48.54131,0.086 -72.79971,-0.52139 26.00624,-0.51646 52.02811,-0.36006 78.04045,-0.32548 8.65232,0.12577 17.33259,0.37118 25.92891,-0.84828 10.94248,-0.97994 21.93219,-1.27771 32.88448,-2.12548 2.36985,1.40619 -4.10165,1.07115 -5.12327,1.2006 -13.31365,0.16748 -26.57366,1.41296 -39.83603,2.44638 -6.35137,0.2571 -12.75212,0.70146 -19.09483,0.17365 z m 221.06723,-1.90388 c -1.1538,-6.91437 -0.59136,-14.01085 -0.49197,-20.99921 -2.05804,0.81351 -8.48577,-2.13837 -3.74044,-1.91055 3.02512,0.20406 5.51076,0.93387 4.51851,4.59936 0.013,6.10291 0.0785,12.26145 0.32489,18.32101 -0.0683,0.47884 -0.54857,0.25461 -0.61099,-0.0106 z m -326.69872,-2.27186 c 3.37691,-1.72882 7.65875,-0.82797 11.40134,-1.19272 4.45782,0.0559 8.8701,-0.70406 13.29544,-0.95642 -0.27849,3.62632 -6.34793,0.51207 -9.21678,1.55525 -5.11788,0.23033 -10.25838,0.40076 -15.34225,0.9955 l -0.1642,-0.13219 0.0265,-0.26956 z m 29.21416,-0.79421 c -0.18108,-5.00488 -2.1065,-9.82769 -1.47831,-14.89322 0.0117,-6.41858 0.74177,-12.77883 1.77726,-19.10408 0.90716,-2.15198 -0.39115,-7.51999 1.78287,-7.76486 0.12278,3.80749 -1.13711,7.7833 -1.55609,11.65191 -1.47725,8.67455 -2.51191,17.85409 0.006,26.42889 1.40435,2.14971 5.04138,-1.2438 6.04126,-2.46373 1.11085,-1.61146 3.65359,-2.08528 4.70204,-4.22299 2.07355,-1.67022 5.35605,1.67796 1.22404,0.69824 -1.37452,1.20978 -2.07542,3.12266 -4.09799,3.57086 -1.10664,3.85423 -6.74911,2.79626 -7.13489,6.73313 -0.5884,1.1229 -1.49249,0.47031 -1.26586,-0.63415 z m 182.17412,-0.64235 c -10.49221,-1.3031 -21.10487,-1.59538 -31.66923,-2.00976 -18.43748,-0.26342 -36.88923,-0.36808 -55.32025,0.23192 -5.19397,0.39037 2.12481,-1.30924 3.85716,-0.92755 22.63758,-0.77359 45.30048,-0.0805 67.9241,0.81977 5.39899,0.53573 10.88627,0.34783 16.2347,1.25164 0.91036,0.48211 -0.65405,1.27298 -1.02648,0.63398 z m -206.6536,-0.84083 c 0.53385,-4.58283 0.34368,-9.23034 0.45732,-13.84677 1.78234,-1.7159 1.1336,4.75627 1.20738,6.2565 -0.34276,2.30294 0.21629,6.38344 -1.6647,7.59027 z m 219.1786,-2.70963 c 1.00601,-2.5314 6.69879,0.38939 9.33159,-0.5656 7.1546,0.0135 14.32737,-0.24976 21.43223,-1.00944 -1.30178,1.91847 -8.12831,0.80545 -11.36769,1.42408 -6.26999,0.15492 -12.55165,0.6952 -18.81931,0.3889 l -0.57682,-0.23799 z m 53.58432,-0.87066 c 1.62867,-1.29265 7.00642,0.38787 2.24182,0.42194 -0.69881,-0.1036 -1.67302,0.10561 -2.24182,-0.42194 z m -12.35299,-4.91135 c 2.1093,-1.93439 7.37807,-0.55801 10.64587,-0.97983 1.5789,0.0946 7.66014,-0.22538 6.2641,1.01936 -5.6222,0.24028 -11.3018,0.44207 -16.90997,-0.0395 z m -220.53136,-1.08643 c 0.1448,-2.5788 4.04817,-0.83888 4.89596,-3.30912 4.06467,0.13425 5.05034,-4.44151 9.41939,-3.42905 4.08113,-0.16915 6.25084,-4.78351 10.24922,-4.69538 2.81077,-0.84798 5.75637,-2.38454 9.16639,-2.79254 2.498,-1.63339 5.67476,-1.57315 8.00385,-3.2425 3.57489,-0.18493 6.04342,-3.4556 9.85384,-3.16114 1.5916,1.11199 -2.96971,1.02176 -3.31776,2.53858 -3.66319,0.66053 -6.76045,2.77907 -10.43429,3.73018 -3.12216,1.01396 -6.58252,1.64909 -9.36463,3.05854 -2.96655,0.88268 -5.74776,0.97122 -7.94858,3.37566 -1.9299,1.68902 -4.56397,2.09159 -6.61882,3.29375 -3.1084,-2.76032 -4.26942,3.27804 -7.57251,1.99724 -1.75869,1.69988 -4.38367,2.51367 -6.07732,3.28581 z m -38.73191,-5.6912 c 0.23161,-3.35789 4.65971,-5.76549 3.33432,-9.92311 2.57431,-2.7022 1.22842,-7.3298 1.75915,-10.88132 1.15906,-5.25571 1.29185,3.7021 0.85294,5.32401 -0.088,3.88594 -1.5121,7.48835 -2.03548,11.3055 -2.42007,1.02933 -1.61303,4.08091 -3.91093,4.17492 z m 258.47094,-1.05523 c -3.56007,-1.42525 1.52601,-6.71652 -1.25009,-9.29695 -0.45086,-2.22443 -1.95183,-2.85623 -0.99187,-0.16087 0.28104,2.96048 -2.97014,-2.20239 -0.93291,-3.46129 1.15772,-2.89362 3.96835,1.14455 5.64344,-1.07571 1.05939,1.41133 1.17662,4.60779 -0.90699,3.0626 -0.67999,1.74205 -0.81156,4.11298 1.52297,2.19606 3.82692,-0.75107 3.93024,6.47459 -0.31857,4.07946 0.22552,-0.92876 1.5188,-1.31475 -0.72777,-1.81399 -2.82005,-1.03469 3.42085,9.13044 -2.03821,6.47069 z m 0.91712,-2.47113 c -0.7824,-2.18537 -0.86963,2.6989 0,0 z m -15.48907,0.57956 c 1.67582,-1.97594 1.51617,-2.95636 0.41243,-4.99221 3.96773,-0.55427 1.05941,7.15373 -0.41243,4.99221 z m 74.15099,-0.80734 c -1.10273,-5.40966 -0.43722,-11.05501 -0.79103,-16.55504 -0.50272,-1.56019 0.40739,-6.54905 1.15034,-2.35453 0.16135,5.96143 -0.7997,12.03998 0.6614,17.90286 1.16933,0.98298 -0.0261,2.54789 -1.02071,1.00671 z m -186.14092,-0.0125 c -0.39882,-2.44108 6.14688,-0.59842 8.42373,-1.0758 7.35794,0.0452 14.77344,-0.27891 22.07802,-0.75635 -1.51269,2.14256 -7.09177,0.48406 -10.18515,1.156 -6.77129,0.11314 -13.56481,0.67679 -20.3166,0.67615 z m 105.97773,-0.015 c -2.29183,-3.34424 6.16377,-6.41336 5.45599,-1.65257 -0.41388,3.7872 -2.72598,0.33945 -1.22046,-0.88439 -1.25843,1.33685 -1.59988,3.64881 -4.23553,2.53696 z m 45.50354,-3.36519 c -2.31426,-1.59649 -7.39361,0.75401 -8.65783,-0.88244 2.1209,-1.49491 9.22188,0.61301 7.94946,-3.07429 -2.07955,-0.68377 -7.40113,0.99693 -7.80704,-0.75351 2.81772,-0.59573 5.73225,-0.37699 8.59708,-0.53492 -0.0796,-2.02982 -0.15919,-4.05963 -0.23879,-6.08945 -15.70249,-0.26034 -31.42277,-0.64821 -47.11617,0.0233 -1.75527,-0.62353 2.69159,-1.50741 1.23204,-3.51013 1.39705,-3.12905 5.95672,-3.93974 9.40134,-3.50043 5.0616,0.24811 10.26028,-0.40674 15.22794,0.72147 1.70085,3.95805 5.82408,5.75002 10.24263,5.14885 3.75923,-0.15364 7.76089,0.50494 11.33885,-0.82558 1.49823,-1.76042 -1.45508,-7.47494 0.94453,-7.27284 0.10925,2.89936 1.04864,7.25308 0.66502,9.18183 -1.57309,3.60973 -0.15909,8.1219 -0.96911,12.05917 l -0.34343,-0.20293 -0.46631,-0.48797 z m -19.36307,-13.24849 c -2.78824,-2.64179 -7.73549,-1.36959 -11.37954,-1.93512 -4.0316,0.30953 -8.28763,-1.15498 -12.07945,-0.27535 -2.33925,-1.00909 -3.45277,4.25882 -0.4478,2.88483 7.96683,-0.1838 15.96876,-0.001 23.90679,-0.67436 z m -3.6202,-2.90579 c 3.06211,-0.71334 -3.46082,-1.03727 -4.43196,-0.9711 -4.24692,0.0455 -9.28514,-0.46096 -13.04227,0.32017 3.84787,0.18288 7.69419,0.67509 11.51822,1.00688 1.98581,-0.0454 3.98942,-0.0499 5.95601,-0.35595 z m 50.70674,15.88324 c -0.73739,-6.05661 -0.14396,-12.2117 -0.87196,-18.26641 -7.13078,-0.4494 -14.34104,-0.3931 -21.47657,0.0199 -1.48246,2.86833 0.28377,7.4612 -0.18481,10.98527 -1.50243,5.92868 5.35903,3.59316 8.91262,4.14064 2.02638,0.36183 6.54484,-0.6326 7.23035,0.96517 -5.95417,0.34508 -11.97183,-0.003 -17.92139,-0.43132 1.20448,-4.08013 0.48555,-8.58472 0.26271,-12.82635 -0.75369,-2.50586 -1.03476,-4.80002 2.36633,-3.93265 7.30807,-0.1408 14.61791,-0.11359 21.92692,-0.15697 0.2372,6.28592 0.22128,12.60548 0.89634,18.8546 -0.091,0.51182 -0.76416,0.57041 -1.14054,0.64812 z m 2.44374,-0.58455 c 0.14344,-5.98649 -0.0222,-11.97996 -0.95733,-17.9026 0.4889,-3.92455 3.1907,1.72331 1.59797,3.30374 0.18863,4.89251 1.23029,10.03708 -0.1559,14.79814 -0.37028,0.38463 -0.29005,-0.21418 -0.48474,-0.19928 z m -72.70751,-1.80206 c -0.17932,-2.86666 4.04607,-3.59867 2.48769,-6.7707 3.42714,-1.39359 0.52709,3.30375 3.09364,4.61921 1.95015,2.11341 -2.50361,4.29451 -0.56189,1.20538 -2.7004,-3.60831 -3.03744,3.96258 -5.01944,0.94611 z m -2.24992,-1.20913 c -0.10914,-1.84449 4.52334,-6.53004 2.68101,-2.35801 -0.80717,-0.028 -2.25249,4.9193 -2.68101,2.35801 z m -111.12579,-2.28303 c 1.87105,-3.7697 7.15013,-1.73515 10.55485,-2.3813 10.4859,0.0412 21.00746,0.39643 31.41473,1.73172 4.00496,1.7264 -3.2754,0.29163 -4.47769,0.11779 -9.99036,-0.94987 -20.07141,-1.71886 -30.10199,-1.1479 -1.42819,0.67654 3.89738,0.38251 5.38252,0.51162 4.5836,0.18718 9.22332,-0.11192 13.76926,0.49288 -2.7982,0.92059 -7.81754,0.26137 -11.54338,0.38327 -4.02838,-0.19618 -8.01728,0.1718 -12.00197,0.56255 -0.98523,-0.04 -2.07002,0.11205 -2.99633,-0.27063 z m 152.9052,-1.17623 c -2.2878,-1.08583 -7.12967,1.10719 -8.13242,-0.76313 1.40049,-1.10934 7.01046,0.16533 6.33665,-1.07553 -2.03438,-0.85451 -7.45876,0.17369 -7.78272,-1.11463 3.20856,-0.36172 8.22816,-1.45529 10.19016,1.68795 0.88737,0.33453 0.22235,2.61316 -0.61167,1.26534 z m -182.32531,-1.13432 c -1.7247,-2.39364 6.13866,-0.0834 7.82798,-0.90635 -2.26534,-3.19662 -5.50343,-5.66301 -9.87434,-4.76835 -2.58021,-0.14085 -7.35327,0.71247 -8.4927,-1.85402 4.18451,-0.10118 8.43531,1.02687 12.68927,0.68503 3.19798,-0.73413 3.75121,1.19844 4.72368,3.49553 1.79735,0.39959 1.84831,1.5157 2.30965,2.64908 5.48716,-0.58291 11.06336,-0.71171 16.52416,-1.21729 0.87868,-1.87114 0.36093,-3.47466 -1.84115,-2.70863 -3.9175,0.21629 -7.96494,0.0353 -11.75039,0.94758 -1.22745,4.17582 -2.78914,-2.69103 -0.2033,-1.62437 2.20036,0.1333 4.82065,0.50727 6.1024,-1.72206 -2.67412,0.98946 -2.8859,-1.14259 0.11749,-1.02029 3.42862,-0.66104 8.81662,-0.37547 11.13647,-1.27289 -3.97872,-0.17729 -8.10822,-0.14116 -11.94993,0.65857 -2.67924,-2.49013 4.48743,-1.54565 6.03958,-1.80269 3.44616,-0.24118 8.77627,1.22766 7.46037,-4.01818 0.21313,-9.88338 0.88385,-19.7443 1.29471,-29.61769 0.23222,-12.7111 0.52026,-25.4215 1.40578,-38.10649 0.3014,-8.47422 0.79386,-16.941399 1.33947,-25.399479 -0.77284,-3.914993 2.09854,-1.25229 1.15424,1.081989 -1.39316,12.002028 -1.43544,24.09834 -2.15983,36.14887 -0.3649,13.5506 -0.48056,27.11187 -1.48327,40.6369 -0.55384,7.36802 -0.0596,14.79623 -0.83002,22.13845 -2.906,0.44916 -7.71158,-0.65453 -11.30037,0.32312 -2.81962,0.29103 0.79576,0.42031 1.86694,0.6224 3.93425,0.83523 7.95079,0.90526 11.9147,0.96827 0.32675,1.46714 -5.30412,1.47226 -0.98906,2.13467 2.5942,1.34116 8.65592,2.61448 6.08892,-1.90093 2.25237,-1.21127 9.90378,1.70766 6.23829,-2.85552 -1.14593,-3.42023 -0.84793,-7.66005 -0.48912,-11.45651 0.57069,-5.2413 1.75514,-10.41307 1.56362,-15.72144 0.34343,-6.34803 0.51539,-12.69577 0.59556,-19.04528 0.93578,-12.52217 1.35643,-25.08918 3.10808,-37.53763 0.98995,-7.052118 0.58909,-14.225515 1.43169,-21.269397 1.38724,3.656544 0.44111,7.915553 0.41198,11.807154 -0.90118,11.792363 -2.71187,23.507853 -3.02912,35.346893 -1.09986,13.15312 -1.08362,26.36469 -1.99015,39.52643 -0.7479,4.74832 -1.68443,9.64606 -1.1092,14.44933 0.66879,3.71324 3.36042,1.45461 2.46275,-1.26034 0.92896,-16.09688 1.74345,-32.20043 2.7746,-48.29087 0.52305,-13.21688 1.2083,-26.42973 2.45382,-39.598361 0.5734,-3.013037 -0.55463,-10.001904 0.90199,-10.758297 0.76191,11.841181 -1.3409,23.626708 -1.638,35.455698 -0.78909,17.08874 -2.2799,34.13746 -2.77816,51.24111 -0.0706,5.05212 -0.79948,10.18318 -0.3242,15.18964 2.27326,1.17251 1.79131,-1.21953 1.79523,-2.67798 -0.0821,-13.20967 0.90412,-26.38683 1.74323,-39.55752 0.85614,-15.21477 0.96389,-30.46494 1.8975,-45.672839 0.3961,-4.63075 1.43194,-9.183435 1.84115,-13.809174 1.93179,1.407097 -0.39578,7.645907 -0.3956,10.754636 -1.31887,9.543137 -0.60576,19.215897 -1.35693,28.806257 -0.6083,12.83939 -1.54107,25.66231 -2.21375,38.49495 -0.23171,7.94498 -0.19518,15.894 -0.2568,23.8413 4.2291,0.95215 3.07557,-4.41784 3.05507,-7.08081 -0.57052,-6.80897 0.21145,-13.63306 -0.0271,-20.46136 -0.27269,-7.86772 0.45301,-15.70199 1.66024,-23.46758 1.76922,-15.37472 1.75136,-30.88063 2.36968,-46.327611 -0.68816,-2.48515 1.36419,-3.874599 1.05781,-0.560313 -0.58048,13.55609 -0.91204,27.133314 -1.89818,40.668264 -0.93587,9.28202 -2.97712,18.48763 -2.54419,27.86933 0.0313,9.8588 0.0478,19.73313 0.71697,29.57104 1.79083,-0.55479 3.30603,-1.39103 2.72951,-3.47054 0.3074,-19.02029 -0.0809,-38.08184 1.47861,-57.05734 0.7795,-4.42975 0.52986,-8.96965 1.1655,-13.42487 0.0674,-5.11185 -0.67161,-10.23012 0.12641,-15.323482 0.40182,-4.547841 -0.133,-9.182865 0.65398,-13.681035 1.1825,3.156706 0.63612,7.009069 0.59961,10.446311 -0.58582,5.708782 -0.82958,11.446106 -0.39105,17.169966 -0.71805,10.58588 -1.39747,21.18083 -1.87293,31.78458 -0.76056,14.09998 -0.71361,28.24817 -0.61251,42.35319 1.75211,1.49629 -0.90756,2.75694 -0.78015,4.57888 0.2147,-1.46016 -2.97223,-3.77105 -2.96263,-1.81143 3.98397,2.05322 -3.04857,1.07054 -4.42214,1.14381 -1.02204,0.44024 -5.12113,-0.0247 -4.04713,1.60841 2.45782,-0.0505 5.09283,-0.74093 7.42165,-0.0329 0.47834,1.87629 -0.22915,4.09954 2.48504,3.31243 2.04786,0.78555 6.2108,-1.30096 2.11793,-1.68264 -1.89632,0.88393 -5.27372,-1.47287 -1.67615,-1.24883 1.33885,0.74954 5.29624,-1.29781 4.7519,1.27669 -0.37454,1.69462 4.58937,1.86127 3.94347,-0.16647 -1.31889,-4.32496 4.49497,-4.44364 6.1388,-2.30153 -1.22973,1.07606 -4.96887,-1.48711 -4.78337,0.73579 0.24593,1.1394 -0.78973,3.56038 1.19069,2.96529 2.81338,-0.31633 3.52218,2.16879 0.14386,1.32348 -20.60755,0.19428 -41.21963,0.37638 -61.80758,1.36089 -2.91037,0.0388 -5.83831,0.2128 -8.74154,-0.0226 z m 30.79718,-2.24086 c 4.98254,-0.25954 -6.10326,-1.89634 -2.47236,0.23972 0.80151,-0.22218 1.64778,-0.21658 2.47236,-0.23972 z m 24.66483,-1.08815 c -0.73635,-2.93324 -6.06304,-0.70482 -8.64899,-1.32839 -1.83978,0.0319 -3.67957,0.0638 -5.51935,0.0957 -0.55564,1.83325 -0.15298,2.80888 1.88519,2.32075 4.02737,0 8.05474,0 12.08211,0 0.067,-0.36269 0.13403,-0.72539 0.20104,-1.08808 z m -7.85043,-4.81922 c 0.9168,-1.62114 -2.84651,1.29324 0,0 z m 3.26086,-0.42198 c -1.43864,-1.45649 -1.88588,1.59794 0,0 z m 4.74014,-0.0882 c -1.98881,-1.25948 -4.99459,0.774 -1.10262,0.38492 0.36877,-0.0773 0.82922,-0.0743 1.10262,-0.38492 z m 104.60034,8.66988 c -2.19413,-5.68626 5.77377,1.28465 0,0 z m -83.62765,-0.54295 c -0.95167,-2.67583 -0.15886,-6.00063 -2.0146,-8.00468 -0.34325,-1.98666 3.5649,-6.78238 2.00995,-2.47285 -2.77437,2.15286 2.97885,3.64883 1.95239,1.17716 0.19633,-1.68541 -2.64191,-6.43475 0.69072,-4.90176 -0.56883,2.54665 5.4261,0.98717 1.66169,3.09298 -3.00287,-0.47585 0.61822,5.3791 -3.54864,4.20442 -0.79653,2.35698 0.71042,5.59449 0.2559,7.01069 0.33174,0.25434 -1.35478,-0.0836 -1.00741,-0.10596 z m -101.12008,-1.49836 c 1.8386,-2.6523 3.24294,2.13038 0,0 z m 13.85862,0.22451 c -19.25611,-4.7532 -38.89185,-7.81408 -58.59834,-9.9431 -3.97867,-0.13518 -7.88404,0.80932 -11.94211,0.27891 -4.46009,-0.23326 -8.89051,0.61028 -13.32736,0.61089 2.65162,-1.92965 7.91596,-0.83593 11.53594,-1.38305 4.69125,0.089 9.25511,-1.49478 13.87937,-0.16511 17.97325,2.02951 35.8392,4.9341 53.5254,8.72132 4.18363,1.13725 8.6727,0.99509 12.41194,-1.21514 0.2243,2.42599 -5.25436,4.38892 -7.48484,3.09528 z m 89.63214,0.30294 c -0.57117,-1.66555 -0.38384,-6.56774 0.92056,-2.56434 0.23672,0.78908 0.638,3.14662 -0.92056,2.56434 z m 160.64134,-0.94135 c -2.2434,-1.18628 -5.29873,-2.99976 -7.67293,-3.67292 0.49766,-1.9599 -2.00667,-4.84647 -3.00596,-1.98022 -2.07675,0.55237 -1.74078,-4.65184 -3.47308,-1.90631 -1.44493,-0.27796 -0.53888,-4.78384 -2.60163,-1.3388 -1.20897,0.14631 -0.61783,-4.50311 -3.00108,-1.71908 -0.91409,-0.75842 1.28226,-4.45526 -2.08956,-3.38852 3.79787,0.8381 -2.28012,5.22358 -1.15951,1.34574 -1.30251,2.09375 -2.61508,1.95396 -3.25327,0.38322 -1.75916,2.12639 -5.32953,1.52279 -6.15534,-0.53185 -1.76933,0.32209 -1.69064,3.91234 -3.59036,1.22586 -1.00114,3.30724 -3.05457,-2.57057 -4.36809,0.77989 -2.90774,-0.1014 -4.67155,-0.0195 -8.15505,0.37808 -2.18809,0.19818 -3.3178,-1.89934 -4.34621,-0.0442 -1.54057,-0.83427 -3.0934,-2.04537 -2.15682,-3.67128 -1.72588,0.73876 -3.88739,-1.0953 -0.70327,-0.69905 11.63034,-0.32693 23.27502,-0.7213 34.90685,-0.54431 3.16418,1.25271 6.15323,1.60594 9.09909,4.40766 2.22681,1.34872 6.30947,4.31904 7.58377,4.43705 -4.47019,-3.56408 -9.66936,-6.25714 -13.79495,-10.21685 3.1541,0.2275 6.24833,4.10153 9.37536,5.72418 4.39535,3.12386 9.1569,5.6893 13.68764,8.58421 -0.26165,3.31784 -3.88434,-2.70255 -6.26713,-2.21777 1.52619,1.6433 6.21532,2.52708 2.63734,4.97464 -0.19324,1.22156 -1.44705,0.55105 -1.49581,-0.30934 z m -9.95236,-8.54957 c -1.75186,-0.006 -0.67451,2.07781 0,4e-5 z m -1.4636,-0.71661 c -0.90084,-1.48416 -1.03441,0.78044 0,0 z m -28.94006,-3.84742 c 3.1941,-1.46829 -1.43557,-1.07461 -0.61068,0.94686 0.41638,-0.0683 0.5911,-0.59086 0.61068,-0.94686 z m -4.71795,-0.35076 c 3.45312,-1.18038 -6.59103,-0.38591 -1.92536,0.6653 0.85472,0.33335 1.12007,-0.9613 1.92536,-0.6653 z m 7.97878,0.58664 c -0.99208,-1.50889 -0.89688,1.45122 0,0 z m 9.71054,-0.56241 c -1.02682,-1.75307 -3.00318,-0.0108 -0.63882,0.86303 l 0.38765,-0.29846 0.25117,-0.56455 z m -22.57836,0.18763 c -2.59065,-2.35509 -2.40817,1.32106 0,0 z m 16.03527,-0.3901 c -1.11694,-1.79367 -1.35832,2.12336 0,0 z m 9.87598,0.13182 c -1.03364,-2.19133 -0.82586,2.1135 0,0 z m -28.53246,-0.21106 c -0.99215,-1.50891 -0.89689,1.45127 0,0 z m -101.73038,13.95971 c -0.0194,-3.43637 8.52477,1.19728 7.9951,-2.14492 -1.93294,-2.15566 -1.60398,-5.71894 -3.85023,-7.89371 -0.66733,-1.30986 0.0532,-3.01037 -0.0666,-4.47437 0.98861,-15.37377 0.64996,-30.80025 1.83536,-46.16287 0.86962,-16.92016 1.15153,-33.865811 1.53645,-50.798804 0.25731,-4.598514 -5.36258,-5.679746 -8.84092,-4.599904 -1.74589,0.419452 -4.5031,0.409718 -3.68023,2.889052 0.0393,7.839481 0.19585,15.70835 -0.85131,23.491606 -0.36815,12.63643 -0.4033,25.3164 -1.72983,37.89222 0.0441,6.85553 -0.66374,13.66566 -1.47195,20.45946 -0.50508,6.0246 0.19171,12.13336 -0.62596,18.11786 -0.85811,-4.07017 -0.24979,-8.42072 -0.81481,-12.58683 -0.3557,-6.2552 1.88277,-12.29471 1.67384,-18.55736 0.37279,-11.58036 1.63208,-23.11117 1.55637,-34.70936 -0.0413,-6.15327 0.42666,-12.28058 1.17675,-18.378066 0.33544,-6.472867 0.005,-12.981541 -0.84549,-19.402677 3.26034,-1.671603 7.57203,-0.767706 11.24227,-1.085728 1.63248,-0.961807 7.79598,1.67591 3.63368,1.505514 -3.34862,-1.111198 -1.41654,0.07555 0.12994,1.312946 0.62711,5.126865 0.0791,10.43099 0.11874,15.630584 -0.29921,18.382177 -1.05145,36.750817 -1.89998,55.113707 -0.2738,11.27426 -0.76227,22.54116 -1.20649,33.80956 3.35099,1.8058 1.42139,6.55012 4.66272,8.41402 1.42566,2.36287 5.04776,0.81865 7.51207,1.12793 1.66552,0.18247 3.01224,0.0596 2.37377,-1.96457 -0.74483,-3.87987 4.48083,-3.28153 6.84319,-4.03975 4.13498,0.33759 8.37358,-0.98101 12.43437,0.24338 -2.89058,1.16866 -7.65329,0.34481 -11.26584,0.8658 -4.4611,0.5665 4.36378,1.40984 5.89517,1.32103 1.42877,0.1959 7.55304,-0.2022 5.99629,1.17102 -5.18051,0.29991 -10.37223,-0.16745 -15.45549,-1.1248 -1.50077,0.0799 -4.26417,-0.88871 -3.32289,1.57011 0.65193,3.8425 6.72715,0.71387 9.69492,1.51988 4.44245,-0.13488 8.88668,-0.2255 13.32716,-0.41655 1.20359,-2.39237 -2.77275,-1.14414 -1.48969,-4.03129 -0.11468,-2.10052 -2.8334,-6.61815 1.37454,-6.49629 3.57699,2.19548 -2.97951,5.59815 1.22316,8.2105 -0.11216,4.18075 3.24416,1.69169 1.78176,-1.1913 -2.72674,-2.651 3.7213,-7.82728 3.06652,-2.58455 0.15675,2.50079 0.0732,5.00802 0.0946,7.51205 -16.58441,0.25067 -33.17952,0.80698 -49.76105,0.46547 z m 48.74149,-4.63153 c 0.72951,-1.62294 -1.4807,-5.03128 -1.08477,-1.56475 -0.001,1.81096 0.85244,6.9842 1.07784,2.14902 z m -5.70648,-6.37447 c -0.40503,-1.30503 -0.95725,1.44137 3e-5,0 z M -380.37531,75.579313 c -1.63215,-0.392949 -0.80335,0.773206 0,0 z m 2.64189,112.950157 c -3.2667,-1.21594 3.67447,-1.30168 4.82762,-1.1839 2.5526,-0.35879 3.52228,1.20197 0.47866,1.13379 -1.76075,0.1503 -3.54662,0.27673 -5.30628,0.0501 z m 0.42363,-2.01034 c -2.95828,-2.15306 10.03171,-0.74563 4.96619,0.0467 -1.64849,0.1249 -3.32582,0.20761 -4.96619,-0.0467 z m -80.00808,-1.63867 c -0.52411,-9.11099 1.73812,-18.16899 0.59267,-27.28102 -0.49536,-7.20835 1.21963,-14.3224 1.21967,-21.52437 1.57567,-10.55914 0.13183,-21.27311 1.41131,-31.86284 0.22934,-5.224754 1.92196,-10.44432 1.26808,-15.665673 -1.82446,-3.741999 -7.81688,-0.854172 -9.39787,-2.518855 3.6248,-1.244936 10.32459,-1.823173 10.51004,3.564494 -0.009,6.480523 -1.64986,12.844684 -1.639,19.336984 -0.76718,13.46782 -0.26515,27.02366 -2.12166,40.41944 -0.44817,10.19935 0.5134,20.48536 -1.02459,30.62026 -0.12274,0.99509 0.88511,9.19959 -0.81865,4.91158 z m -7.83115,-0.075 c -1.39617,0.36759 -7.96358,-0.69139 -3.4898,-1.32231 3.1628,0.49526 8.18315,-0.46267 10.2705,1.26002 -2.05242,0.62211 -4.58622,-0.0733 -6.7807,0.0623 z m 89.03218,-0.78603 c 1.1998,-2.02565 8.64059,0.20431 3.41946,0.65871 -0.87283,-0.24861 -3.19677,0.5996 -3.41946,-0.65871 z m 24.5622,-0.20807 c 1.57637,-3.64527 0.588,-8.0644 1.05127,-12.04419 1.32987,-18.07388 1.53873,-36.20509 2.43801,-54.30238 0.42361,-6.02642 0.0181,-12.05984 0.23525,-18.08086 0.53531,-8.534916 2.39726,-17.090689 1.07251,-25.641042 2.15876,0.197908 1.38561,6.335837 1.60885,8.898933 -1.94426,13.72943 -1.37239,27.621539 -2.13817,41.431429 -0.518,10.97697 -0.80897,21.9671 -1.13938,32.94338 -0.33552,7.96432 -1.58919,15.95026 -0.90041,23.91761 1.01495,2.72493 3.21967,0.77817 2.53508,-1.38099 1.87602,-22.63436 1.1543,-45.3676 1.78869,-68.04961 0.18781,-8.61595 0.43022,-17.257184 1.72138,-25.78708 0.74088,-4.132809 -0.77991,-9.51348 -0.1567,-12.836027 1.80956,4.022181 1.52414,8.978036 1.21854,13.380726 -1.04478,6.741552 -1.16113,13.574488 -1.56273,20.373321 -0.66799,22.64189 -0.0797,45.32183 -1.64079,67.93238 0.13043,3.10671 -1.83149,8.99702 3.35233,7.73666 1.76497,-0.52494 7.75358,1.48688 2.89729,1.39638 -4.0734,-0.58309 -8.60253,-0.3358 -12.38102,0.11136 z m 51.79203,-0.38918 c -5.48972,-1.60671 -11.22588,-0.68934 -16.82109,-0.59469 1.36618,-2.72607 9.3082,1.24206 7.74185,-4.40682 0.27484,-19.46487 -0.007,-38.94125 0.87152,-58.39558 0.5357,-16.39704 0.1649,-32.811068 0.73068,-49.20473 1.07787,-1.239459 0.93168,4.618466 0.98793,6.205037 -0.10233,22.133155 -0.39362,44.277923 -1.69351,66.377093 -0.29254,12.60742 0.33694,25.21196 0.40183,37.8185 1.96503,-0.0489 6.03772,1.70846 5.07146,-1.71737 -1.24769,-33.14434 -2.12186,-66.32237 -1.47742,-99.490918 0.26589,-2.547396 -0.17232,-7.905237 0.97304,-8.693737 0.25525,8.81203 -0.24031,17.645584 -0.0754,26.467349 0.18121,28.132806 0.36367,56.287716 2.00857,84.380646 1.47844,-0.017 3.50775,0.51103 2.80228,-1.66687 -0.30364,-35.19924 -1.01368,-70.40412 -0.36384,-105.602464 -0.14069,-1.880003 0.50285,-9.40718 1.1579,-3.785673 0.53544,16.772201 -1.42793,33.536027 -0.51761,50.307597 0.3171,19.66689 0.80973,39.33842 0.62593,59.00804 -0.94113,2.16143 1.68716,4.50304 -2.4241,2.99459 z m -176.7323,-1.51581 c -11.54846,-2.80786 -23.49522,-2.92408 -35.2931,-3.6468 -4.34329,-2.06312 5.00685,-0.64152 6.71354,-0.7134 11.06645,0.38184 22.26251,1.30804 32.94603,4.31355 0.58189,1.81075 -3.63743,0.0504 -4.36647,0.0466 z m 33.28949,-0.6887 c 1.46912,-10.11823 1.83409,-20.36075 3.08066,-30.50887 0.58224,-8.92997 1.46392,-17.84925 1.73717,-26.7892 -0.49085,-7.41186 -0.37449,-14.83689 0.50394,-22.2158 0.5405,-5.961461 0.59788,-11.969548 1.39946,-17.903187 2.283,0.700561 -0.16026,6.362715 0.22834,8.976596 -1.08283,10.635701 -1.26061,21.322711 -1.1535,32.002911 -0.26792,7.8478 -1.05007,15.67077 -1.50241,23.51161 -0.73086,8.85337 -1.94167,17.65435 -2.4342,26.5306 -0.73146,2.00848 0.536,8.13166 -1.93414,7.82585 l -0.0199,-0.54971 0.0948,-0.8808 z m 69.27772,-11.39281 c 0.14369,-15.03865 1.29936,-30.04371 1.4045,-45.08473 0.38103,-14.74655 0.23351,-29.49961 0.36103,-44.246954 0.91594,-4.968956 0.90934,4.812472 0.85561,6.514172 -0.1453,20.594582 -0.0635,41.203842 -0.88661,61.783832 -0.69965,11.07958 -0.31975,22.2083 -1.21679,33.27324 -0.90354,1.76454 -0.39679,-4.89335 -0.55213,-6.53597 -8.5e-4,-1.90123 0.0118,-3.80258 0.0344,-5.70359 z m -97.57132,11.89236 c -0.4151,-7.08489 1.48371,-14.00108 1.66934,-21.0543 0.69629,-8.24 1.45505,-16.47678 1.36764,-24.75853 -0.19378,-6.47644 2.35246,-12.63283 2.31138,-19.10797 0.33742,-6.3251 0.36879,-12.69375 1.59257,-18.922727 0.79029,-2.586719 -0.40478,-7.463684 1.51261,-8.7198 0.49173,7.11453 -1.97105,14.094547 -1.61214,21.239237 -0.0174,7.25791 -1.0914,14.45621 -2.62607,21.53052 -0.77287,8.49341 -0.005,17.0865 -1.38625,25.52816 0.12124,8.25206 -2.11492,16.36221 -1.86379,24.59989 0.0687,1.13347 -1.13903,0.21085 -0.96529,-0.33448 z m 38.21917,-0.62613 c -0.16547,-23.64967 1.4583,-47.26829 1.64422,-70.91555 0.16952,-8.03649 0.18868,-16.083116 0.64147,-24.108967 1.93766,-2.027799 0.45297,5.111196 0.74101,6.74628 -0.42574,17.203487 -0.43907,34.418937 -1.37491,51.606137 -0.44111,12.0862 -0.2848,24.20273 -1.11068,36.2688 0.12658,0.18153 -0.45465,0.94703 -0.54111,0.4033 z m 90.33653,-0.69534 c 0.62704,-14.14134 0.30051,-28.31845 1.01629,-42.46293 0.95789,-20.34229 2.33244,-40.692913 1.85637,-61.070359 -0.48824,-2.139754 1.02594,-6.212762 0.98117,-1.636232 0.13215,15.293285 -0.039,30.606481 -0.89989,45.877201 -0.94674,9.67955 -0.85696,19.45007 -1.22086,29.17202 -0.33543,9.83044 -0.24744,19.66903 -0.44122,29.50012 0.68538,1.34228 -1.83496,2.44835 -1.29186,0.62018 z m 4.45258,-8.67209 c 0.59451,-26.25608 -0.12877,-52.52846 0.62316,-78.780322 0.74073,-6.765309 0.23298,-13.608241 0.88442,-20.364048 1.68108,1.264691 0.37885,7.149549 0.73889,10.040254 0.0597,5.369363 -0.98476,10.651337 -0.81025,16.036466 -0.24993,26.87713 0.40376,53.77415 -0.67729,80.63774 -1.35392,4.1605 -0.85243,-5.23641 -0.78309,-6.83824 z m 8.87094,8.60372 c -1.86421,-0.89713 0.5273,-5.70519 1.61529,-2.53997 1.37456,-0.73149 3.38545,3.17756 2.13362,-0.0427 -2.6988,-2.40767 2.58181,-1.09007 1.4481,1.39583 -0.008,3.24253 -2.95972,-0.65608 -3.7568,1.67849 l -0.5927,-0.11344 -0.84749,-0.37819 z m 15.17483,-0.24221 c 0.48608,-15.35805 -0.059,-30.7387 0.10941,-46.10547 0.14718,-15.66173 -0.17571,-31.35718 1.01621,-46.983042 0.30872,-5.843784 -0.45744,-11.728435 -0.0324,-17.54268 1.63966,2.45487 0.87711,7.997676 1.17344,11.624875 0.053,7.636617 -1.03256,15.219695 -0.84797,22.863307 -0.33458,24.89664 0.099,49.80145 -0.41019,74.69427 0.4913,0.88521 -1.14108,3.66837 -1.0085,1.44874 z m 94.21364,-0.34428 c -1.06037,-9.51997 -0.58051,-19.14378 -0.8102,-28.70954 -0.10352,-16.76959 -0.15663,-33.54684 -1.05892,-50.29514 -0.3423,-14.364246 -0.67015,-28.782268 -0.84109,-43.118388 2.27966,1.841916 0.76905,7.238217 1.30899,10.480477 0.11965,23.984193 1.34956,47.943531 1.48692,71.927951 0.2192,13.43305 0.22374,26.88161 0.77512,40.30203 -0.16322,1.48393 -0.90958,-0.14262 -0.86082,-0.58739 z m -246.45746,-0.0837 c 1.39454,-7.48918 1.10181,-15.20233 1.451,-22.79755 0.30141,-6.28756 -0.0479,-12.66359 0.76818,-18.8924 1.63802,3.07619 -0.0134,8.61835 0.36207,12.62127 -0.21442,9.62795 -0.0342,19.33019 -1.3643,28.88258 0.15764,0.85429 -2.15581,1.65185 -1.21695,0.1861 z m 155.20047,0.14677 c -0.47155,-10.15514 -0.23777,-20.34422 -0.90367,-30.49875 0.0335,-9.50777 0.44935,-19.01707 0.49434,-28.52917 0.13585,-10.83257 0.89432,-21.641892 1.59272,-32.444316 0.0393,-5.935599 0.17111,-11.918031 -0.5225,-17.815217 2.60835,1.10996 0.9312,7.0673 1.62565,10.022212 0.1221,13.385329 -1.39946,26.717781 -1.56789,40.099671 -0.60511,18.73258 -0.3186,37.47661 0.15011,56.20746 -0.19287,0.37233 0.35657,3.98027 -0.86876,2.95811 z m -66.84924,-0.485 c 0.16545,-18.85818 0.81051,-37.71763 1.07526,-56.57817 0.3406,-14.30361 0.0599,-28.653266 1.40157,-42.910724 1.09377,-3.021587 0.72248,3.640774 0.58134,4.51259 -1.07275,25.223184 -1.12992,50.479764 -1.6068,75.719514 -0.23768,6.42642 0.0455,12.91732 -0.86425,19.29222 0.0199,0.33501 -0.58675,0.59823 -0.58712,-0.0354 z m -58.62974,-0.71397 c 0.3746,-16.44455 0.77129,-32.90042 1.02819,-49.3523 0.16406,-10.16664 0.53968,-20.33869 1.69259,-30.44425 0.37599,-4.411639 -0.14547,-8.898692 0.55043,-13.269207 1.32104,3.645468 0.60714,7.893698 0.63091,11.771209 -0.65973,6.998828 -1.49254,13.988068 -1.56826,21.032218 -0.68754,18.49279 -0.17221,37.02532 -1.45689,55.49321 -0.22915,1.17689 0.47205,4.6516 -0.87697,4.76912 z m -87.05008,-2.09458 c 0.25741,-2.24867 -4.57099,-1.12343 -1.80277,-3.64616 1.46587,-1.07124 8.23368,-0.99624 7.30624,-2.00272 -2.30729,-1.07123 -6.88658,0.482 -7.8889,-1.66502 2.89623,-0.93825 9.18491,-1.01163 9.7694,2.37071 -2.16945,1.70504 -8.27844,0.45237 -5.10578,4.57546 0.0366,0.79079 -2.4841,1.52505 -2.27819,0.36773 z m 142.87357,0.31357 c 0.0308,-19.04195 0.4728,-38.08646 0.46404,-57.13122 0.22852,-13.33174 0.26056,-26.690863 1.28496,-39.989203 1.17249,-3.366686 0.94724,3.70624 0.85928,4.89131 -0.96816,17.253763 -0.78236,34.551613 -1.13991,51.826273 -0.30559,13.32231 -0.13241,26.67045 -0.95767,39.97266 0.50133,0.98173 -0.51198,0.90484 -0.5107,0.43018 z m -79.33404,-7.84382 c -0.31808,-9.37639 1.47569,-18.64014 1.6385,-28.0039 0.4882,-2.62594 -0.38129,-6.84086 1.34299,-8.51921 0.01,9.86413 -1.47537,19.65555 -2.15281,29.47914 -0.3547,4.52243 0.33878,9.02404 0.46317,13.52246 -1.35138,3.29548 -1.19505,-3.48478 -1.25623,-4.5925 -0.0145,-0.62856 -0.0257,-1.25748 -0.0356,-1.88599 z m 126.88388,7.27961 c -0.37134,-3.13398 5.41928,-0.49063 1.87195,0.0209 -0.65204,-0.86446 -1.39286,0.82271 -1.87195,-0.0209 z m -199.52346,-0.32805 c 0.0982,-2.17903 3.38622,-2.7882 1.29263,-0.37027 -0.17346,0.11812 -1.218,1.21138 -1.29263,0.37027 z m 203.95953,-0.7031 c -0.11044,-4.26136 4.4635,0.75222 0.40535,0.44165 l -0.24066,-0.15519 z m 51.28339,0.11288 c -4.23072,-1.19754 -1.53081,-6.6522 -1.96832,-9.79167 0.65015,-13.01545 0.67266,-26.06594 1.78166,-39.0523 0.69467,-20.1102 0.35943,-40.241112 0.90483,-60.351585 0.51847,-2.778714 0.40216,3.715392 0.47946,4.97507 0.12255,19.080912 0.23863,38.176375 -0.45592,57.246655 -0.97103,14.35721 -1.09378,28.75785 -2.09288,43.11443 -0.56339,4.80163 6.57655,2.69167 9.44457,3.00737 9.65788,-1.0722 19.41298,-1.6432 29.12442,-1.13989 1.72929,0.92818 -4.24132,0.7169 -5.46512,0.8623 -8.30248,0.0995 -16.59942,0.50514 -24.8425,1.49611 -2.30337,0.0938 -4.64489,0.11861 -6.9102,-0.36649 z M -515.576,174.17765 c -0.92059,-2.34543 3.21213,-7.86972 -1.5566,-7.83049 2.24521,-1.23866 2.59858,-8.03673 -1.36519,-4.82711 -2.7553,2.536 -10.78347,3.42705 -8.53051,-2.39044 -0.14052,-2.57941 2.85954,-1.00293 1.03442,0.85389 -0.94888,2.41734 0.60839,2.73813 2.67728,2.28038 2.97833,0.30212 3.85875,-2.99929 5.22615,-4.0115 1.75909,0.9477 3.51555,2.61596 4.54618,4.23162 -0.25809,2.40824 -0.61967,4.89643 0.20034,7.20643 -1.576,1.55717 -1.20749,3.90215 -1.45778,5.27597 l -0.39418,-0.25806 -0.37991,-0.53076 z m -2.05237,-14.37426 c -0.40506,-1.30498 -0.95722,1.44136 3e-5,0 z m 294.54094,14.73353 c -1.61475,-10.06163 -1.49774,-20.31989 -2.0747,-30.47937 -1.61921,-27.94518 -0.88168,-55.967606 -1.74014,-83.927911 2.30812,1.025274 0.95717,6.992683 1.46299,9.977576 0.41354,22.420343 0.0592,44.861425 1.01678,67.267385 0.57001,9.79935 0.71784,19.62945 1.55078,29.40193 -0.53922,1.87516 1.78896,7.67616 -0.21571,7.76039 z m -110.81169,-2.39132 c -0.0128,-19.9986 0.21625,-40.00565 0.21345,-60.00806 0.0956,-13.474274 -0.004,-26.957926 0.429,-40.424347 1.79137,1.111693 0.41076,7.215695 0.83856,10.115725 0.0142,29.790572 -0.12535,59.583632 -0.44449,89.370742 -0.0566,0.56418 -0.14227,2.99707 -1.03652,0.94594 z m -199.38363,-0.0411 c 1.16887,-3.32346 -2.88415,-4.39043 -4.14952,-5.94204 1.9861,-1.71249 3.62973,-5.20982 5.92963,-5.72154 -0.75843,2.95757 -6.69865,5.72796 -1.5257,7.60685 0.87987,0.69917 1.14917,4.44304 -0.25441,4.05673 z m 4.6595,-2.57325 c -1.54851,-1.26517 0.93024,-3.51265 0.97575,-5.1838 3.85868,-0.32793 -0.9782,1.58314 0.35156,3.66059 0.0642,1.38927 0.53043,3.33872 -1.32731,1.52321 z m 252.86265,-0.68183 c 0.89201,-13.27377 1.40901,-26.6156 0.49278,-39.90521 -0.63134,-14.98718 0.11431,-29.974344 0.73114,-44.946189 0.27062,-5.952412 -0.143,-11.930875 0.32816,-17.868948 1.7446,2.98914 0.46685,7.288087 0.81778,10.795073 0.0369,14.453371 -1.72149,28.863144 -1.03648,43.319744 0.43355,15.93462 0.9396,31.9206 -0.26833,47.82905 0.39407,0.58392 -1.23143,2.50846 -1.06505,0.77648 z m 46.16957,0.34286 c -0.47874,-17.91145 -0.83402,-35.8432 -0.45271,-53.76088 0.49538,-7.52517 0.7658,-15.07906 -0.17509,-22.583821 -0.60895,-10.907777 -1.13309,-21.841334 -0.94277,-32.766964 1.39414,1.018988 0.96503,7.220431 1.24741,10.097344 -0.0395,9.150937 0.35441,18.292401 1.07618,27.412353 0.32812,19.899698 -0.96231,39.812688 0.0973,59.705518 -0.069,4.0231 0.55315,8.21905 -0.51085,12.12153 l -0.16035,-0.0111 -0.1793,-0.214 z m -24.62153,-1.80688 c -3.21896,-1.54306 2.86319,-8.43179 2.20876,-2.98384 0.66721,1.6667 -3.99082,0.0135 -1.10947,2.07777 2.12612,1.25609 0.23365,1.6776 -1.09929,0.90607 z m 17.68521,-2.4131 c 1.8906,-13.69942 0.14417,-27.51784 0.38294,-41.27707 0.10409,-11.62887 0.78252,-23.24083 1.41807,-34.846419 0.19102,-9.288435 -0.95362,-18.5654 -0.86576,-27.835439 1.78206,1.398801 0.829,6.507459 1.36689,9.250024 0.42569,9.704345 0.81057,19.44121 -0.12821,29.126481 -0.91216,17.658623 -0.56758,35.343563 -0.20021,53.010143 0.005,4.74054 -0.91243,9.42397 -1.14642,14.14492 -0.85359,1.48254 -1.06152,-1.17173 -0.8273,-1.57264 z m -22.7829,1.30265 c -0.48982,-3.61499 -3.04194,-9.2651 -0.20119,-11.87958 0.90011,-1.00028 4.20896,-2.31993 4.15935,-0.0788 -5.1571,-0.75654 -4.99087,4.70545 -3.72048,8.24035 -0.009,0.89507 1.31196,3.95537 -0.23768,3.71799 z m -3.02467,-1.09166 c -1.71041,-3.56116 -2.67873,-7.86809 -1.68778,-11.74946 3.53442,-0.31132 -0.93602,4.7438 1.04068,6.72121 0.004,0.84496 3.36411,6.97446 0.6471,5.02825 z m 20.24867,-0.45228 c -0.59065,-1.37677 -1.67375,-8.2235 0.17754,-3.92665 0.63338,0.58476 1.60341,7.22293 -0.17754,3.92665 z m -28.37679,-1.18171 c 0.74759,-10.86849 -0.65689,-21.75284 -0.72112,-32.63086 -0.59515,-21.30006 1.06973,-42.587314 0.7857,-63.883688 -1.25414,-2.762757 1.0866,-2.781503 1.08582,-0.108295 0.79266,10.733811 -0.80928,21.461779 -0.80474,32.203535 -0.49027,19.168798 -0.0528,38.351018 1.00928,57.492078 -0.25072,2.53158 0.64217,7.42062 -1.45157,8.362 l -0.008,-0.53587 0.10449,-0.8989 z m 19.27412,1.13918 c -0.53679,-4.54973 -0.79039,-9.22592 -0.24638,-13.78202 1.76334,-3.23449 0.31061,4.04588 0.65925,5.14703 -1.1245,2.87665 2.16931,7.37825 -0.27516,8.91059 l -0.13793,-0.2757 z m -2.90713,-7.73334 c 0.89283,-4.51287 -2.27792,-8.12052 -6.94296,-7.1175 -4.88203,-1.68051 -0.964,-6.77699 1.78574,-8.17839 1.05117,-1.69213 3.75262,-2.41922 2.29229,0.38222 2.17753,1.59024 1.41621,-2.12381 3.46173,-1.86406 1.00695,-1.60599 3.09988,1.86981 4.25744,-0.55601 1.46431,0.68481 4.76497,-0.13983 4.85858,2.07947 0.39355,2.88651 1.46795,6.67212 0.15704,9.15064 -4.96238,-1.6866 1.62815,-7.33365 -3.13224,-9.32108 -0.95161,1.82521 0.46605,6.18421 0.84174,8.37442 2.36143,1.25461 -1.87587,2.27572 1.28618,3.49668 0.8031,1.34409 -4.00475,1.06766 -1.0186,2.86085 2.3326,1.11109 -1.81982,2.86715 -1.64805,-0.0824 -1.91185,-1.99794 2.06925,-3.44212 -1.24865,-4.42376 -2.25222,-2.55162 3.54043,0.93333 0.76674,-2.4798 -1.42531,-1.4549 -0.28302,-8.85758 -2.97089,-6.06781 2.09473,1.64205 -1.87196,4.91408 -1.01015,0.96382 -2.35348,-2.06944 -3.21114,3.11413 -6.15218,1.09436 -2.44807,-2.81306 -4.96797,2.88521 -0.8227,2.39756 2.26341,0.40207 4.77353,1.70969 6.05898,2.98629 -0.0191,3.14364 1.1257,8.15595 -0.2874,10.18194 -0.41393,-1.24613 -0.41903,-2.5825 -0.53264,-3.87747 z m 9.20629,-9.25137 c -1.44767,-1.33594 0.91065,2.73204 0,0 z m -289.18498,9.5281 c -1.82,-2.72531 4.18858,-5.18885 3.41287,-1.02752 -1.41893,0.2401 -2.19198,3.15232 -3.41287,1.02752 z m 7.24562,-0.85377 c -0.12014,-1.99672 6.36636,-0.76351 1.83609,0.22386 -0.61123,0.0533 -1.30678,0.17877 -1.83609,-0.22386 z m 64.59775,-0.12883 c -0.0786,-9.4225 0.16773,-18.89258 1.78271,-28.19656 0.97605,-8.41401 1.0053,-16.91959 1.85218,-25.33559 1.78474,-1.23241 0.4244,4.63162 0.60859,6.25345 -0.41641,9.12223 -1.31058,18.21024 -2.89467,27.20476 -0.98744,6.36938 0.0315,12.82149 -0.45267,19.21206 0.0225,0.45895 -0.42475,0.95762 -0.89614,0.86188 z m -59.21287,-1.29851 c -3.19137,-0.33126 -3.53254,-5.41105 0.37556,-3.53236 1.72386,0.60426 2.6077,6.01853 -0.37556,3.53236 z m 279.23291,-0.0591 c 0.96533,-1.57274 -1.4086,-6.69873 1.74202,-4.37247 1.50056,-0.63342 1.80307,-3.97997 0.0178,-2.11124 -1.52108,-1.43372 -1.51681,-9.02176 0.96512,-4.64015 2.84885,0.8326 1.69179,7.26392 -0.28414,8.10669 -2.03439,-0.65754 -0.37308,3.59041 -2.44081,3.01717 z m -19.98352,-2.5429 c -1.17872,-2.24626 5.48151,-2.61546 1.88198,-0.79779 -0.58224,0.27979 -1.13037,1.62947 -1.88198,0.79779 z m 6.02939,-4.81024 c 0.0322,-2.47399 6.1114,-2.24561 1.98107,0.14031 -0.59368,0.24412 -1.52798,0.51138 -1.98107,-0.14031 z m -10.78445,-8.1977 c -0.88427,-9.98908 0.087,-20.03577 0.0704,-30.04814 0.16918,-14.222337 0.61269,-28.457533 0.22539,-42.675737 0.30686,-4.581203 1.34864,3.819593 0.96932,5.440012 0.25637,20.89587 -0.4965,41.787205 -0.53926,62.680305 -0.59951,2.18556 1.84654,7.30782 0.007,7.85984 -0.41741,-1.03628 -0.54954,-2.16165 -0.73289,-3.25628 z m 62.20326,2.91681 c -0.36336,-5.94929 -0.52832,-11.93606 -1.44095,-17.84929 -0.6991,-6.98524 -2.43705,-13.92872 -2.15779,-20.97335 1.82549,-1.85863 1.85817,4.33991 0.91014,5.74354 1.02194,10.82579 2.78218,21.58575 3.80445,32.41395 0.19605,0.88708 -0.63435,2.06255 -1.11585,0.66515 z m -37.89416,-1.31317 c -0.14035,-1.94504 -2.79575,-3.14429 -2.09489,-4.32189 -4.18,0.19654 1.96665,-6.86111 2.10776,-1.97351 -0.87579,2.52653 3.08025,2.35508 0.94929,4.91062 0.0333,0.3892 -0.16647,2.05925 -0.96216,1.38478 z m -12.18316,-1.68592 c -2.51961,-1.69716 3.63424,-0.5778 2.39674,-3.42646 0.96361,-2.98346 -5.83663,-1.15962 -1.88715,-0.0803 3.32418,0.83887 -2.74499,3.01671 -2.24185,-0.42195 -1.56948,-4.47644 8.43357,-2.81827 5.32613,1.98748 -0.49959,1.35477 -2.19348,2.36097 -3.59387,1.9412 z m -7.71854,-2.95755 c 0.0798,-7.18857 0.60088,-14.37587 0.27916,-21.57251 -0.05,-12.29184 -1.57115,-24.599712 -0.28123,-36.870168 0.4625,-4.875494 -0.14246,-9.865311 0.68945,-14.680619 0.70482,6.735172 0.0385,13.577254 0.16915,20.354447 -0.22211,17.99077 0.37782,35.98765 -0.0175,53.97387 -0.2252,2.7528 -0.92533,-0.46521 -0.83899,-1.20502 z m 23.92914,1.99634 c -0.26051,-8.64765 0.32093,-17.31711 0.26056,-25.9757 0.0221,-16.30356 0.56681,-32.630851 -0.29096,-48.919449 -1.02865,-1.936072 -0.81346,-6.097566 0.9628,-2.548359 0.40862,23.752329 0.35083,47.515118 0.13565,71.269818 -0.39187,1.28352 0.57873,6.9733 -1.06805,6.17369 z m -225.21091,-6.0427 c 1.16467,-10.67273 1.77098,-21.39403 2.18569,-32.122 0.4964,-2.738529 -0.35591,-7.027061 1.23469,-8.889226 0.52205,6.921026 -0.66487,13.878506 -0.98495,20.803696 -0.5228,7.1633 -0.92136,14.33752 -1.58548,21.48944 -0.85769,0.53103 -0.80864,-0.84572 -0.84995,-1.28191 z m 265.35193,-19.6559 c -0.68684,-1.29542 -8.38201,-1.71154 -3.37176,-2.88143 5.35541,1.38032 5.31344,-4.00611 5.3423,-7.71763 4.22901,-3.027626 0.91584,-9.04922 -0.82981,-12.753887 -0.75511,1.312075 -3.69169,4.218605 -2.41847,0.464657 1.19776,-2.736345 -0.48906,-5.273663 -3.39581,-3.383049 -3.06498,-2.05846 4.06687,-1.952344 2.22321,-5.384117 1.17597,-2.981984 -2.54122,-7.289721 -3.82326,-2.632411 -2.2958,3.552796 -0.21497,-5.826753 3.09617,-3.195985 1.3936,1.385733 2.30113,2.722385 1.12075,-0.177329 -4.4388,-11.451474 -10.81935,-22.099678 -14.33681,-33.917453 -2.14213,-5.206022 -3.91215,-10.809793 -7.48519,-15.228442 -3.86668,-1.030929 -8.121,0.866041 -12.10057,1.181418 -14.08762,2.841166 -28.10315,6.268569 -42.46198,7.48205 -14.74944,1.593917 -29.23616,5.07263 -43.99997,6.530413 -9.96558,1.679004 -20.05113,2.734157 -29.8219,5.427905 -13.70554,2.928013 -27.7722,3.787899 -41.47013,6.778647 -11.08629,2.254968 -22.46065,2.433441 -33.55791,4.642204 -8.63634,1.714817 -17.42226,2.295097 -26.15196,3.286214 -4.09977,0.620504 -8.30983,1.170741 -12.16764,2.690306 0.89409,-2.972898 6.3452,-2.261856 9.15668,-3.329355 8.13307,-1.418822 16.43688,-1.41266 24.55279,-2.99337 9.09853,-1.627633 18.2481,-2.930999 27.46223,-3.667296 8.35258,-1.018241 16.52106,-3.126846 24.87309,-4.178613 10.95732,-1.852286 22.12042,-2.610676 32.84232,-5.689496 9.49003,-2.092986 19.16726,-3.208958 28.78651,-4.539185 14.94078,-1.901863 29.66481,-5.295033 44.68459,-6.640721 16.48806,-1.759904 32.41345,-6.724694 48.86919,-8.67213 2.24286,0.570943 3.14025,3.886955 4.35333,5.782134 3.72853,6.981274 5.69788,14.67376 8.73917,21.935788 1.76114,4.554381 4.77872,8.469292 6.86211,12.831966 0.17139,3.92935 2.95257,7.340703 4.54548,10.880239 2.67042,5.131799 5.86599,9.981565 8.54632,15.096592 0.38449,3.451252 -3.42644,-1.341057 -2.63813,-3.019023 -1.92857,-3.126794 -3.33291,-8.454668 -6.34834,-9.809448 -1.20991,2.207111 -2.33982,6.501543 0.25062,8.379777 0.4215,2.049669 3.51573,2.261546 3.29689,5.21444 1.16591,3.296154 1.73972,7.604874 2.3122,10.61908 6.38455,-0.0327 12.8262,-1.04197 18.51149,-4.105919 1.13272,-1.065087 5.61382,-1.325198 2.26952,0.391909 -3.72088,1.448829 -7.87855,2.05874 -11.31205,4.08554 0.5677,1.67255 1.26701,7.82462 -0.33252,6.92564 -1.54485,-2.16677 -4.91512,-0.22928 -5.98078,0.6732 -0.0701,-2.37772 -6.27609,-0.13348 -6.25156,1.08189 0.74301,0.78113 -2.41307,3.58574 -2.44041,1.53428 z m 6.61651,-4.26717 c 4.3148,0.63858 3.79956,-8.22717 0.31109,-3.56592 0.10195,-3.4984 -5.20968,-0.64071 -4.19676,2.21334 -1.44796,3.87177 2.03625,1.32627 3.88567,1.35258 z m 8.05174,-2.26289 c 0.49097,-2.68884 -1.9391,-3.58361 -2.50934,-0.6476 -1.84456,1.13049 1.3512,-4.78983 -1.40719,-2.13153 0.17464,1.28961 -1.22281,4.81039 1.27071,3.87796 0.8741,-0.18287 2.67618,0.232 2.64582,-1.09883 z m -7.33133,-5.69344 c 3.30643,-3.30201 3.67394,1.1616 0,0 z m 10.42618,-5.447667 c -1.38674,-3.855392 -3.76516,-6.562077 -6.26572,-9.200819 -0.081,-4.155809 -1.70351,-8.10639 -3.47884,-11.875434 -3.62866,-8.077015 -7.7608,-15.934775 -11.61066,-23.889748 2.04808,-1.346585 3.11405,4.980223 4.29159,6.885017 3.67948,7.948877 7.60431,15.791287 10.9843,23.872302 3.10354,2.39633 2.41288,7.413307 5.01116,10.558455 0.43962,1.760275 4.36064,5.517192 2.65121,6.273686 -0.61973,-0.815171 -1.10552,-1.720922 -1.58304,-2.623459 z m -23.93281,-3.35831 c -1.80005,-3.045616 -7.33843,-4.055887 -7.76158,-6.96768 3.69879,1.001919 6.19058,4.6967 9.35823,6.84485 1.91298,2.053338 -0.90408,1.397194 -1.59665,0.12283 z m -11.87649,-1.24643 c -0.50649,-7.523268 -0.44465,-15.106202 -0.1636,-22.643199 0.76147,2.416072 0.57479,7.408122 0.78948,10.867133 0.0352,3.913701 0.34225,7.860736 -0.0607,11.755026 0.0127,0.709516 -0.54928,-0.194109 -0.56514,0.02104 z m -248.26637,-4.94344 c 0.36432,-2.235062 -3.49202,-7.176857 -0.83952,-7.593751 0.10929,3.095608 3.19017,7.646836 1.62848,9.863191 -0.7182,-0.413714 -0.62509,-1.549324 -0.78896,-2.26944 z m 10.66711,-2.47757 c 0.26679,-1.926279 -3.73918,-1.063658 -0.57093,-2.581987 3.08764,-5.185722 1.63512,7.984094 0.57093,2.581987 z m 15.79373,0.14702 c 2.63502,-2.562269 7.52409,-2.083578 11.14835,-1.987321 4.46079,1.884194 -2.51874,0.879746 -4.08348,1.017857 -2.48288,-0.499951 -4.84413,1.177284 -7.06487,0.969464 z m -22.22567,-0.7333 c 0.89459,-1.721559 -2.91792,-2.490261 0.48316,-2.429224 1.26055,0.06406 0.1047,4.673952 -0.48316,2.429224 z m 278.86925,-1.54359 c -1.25664,-1.067494 -1.6986,-2.262198 0.12823,-1.819422 -4.11567,-11.414549 -9.28251,-22.445642 -14.51548,-33.39015 -0.46203,-1.927131 -4.43775,-6.21595 -2.4561,-7.068057 3.74231,4.307182 4.23282,10.258571 6.9224,15.150601 2.24136,4.030746 -1.30177,-4.767482 -1.92532,-6.466748 -2.80871,-7.023244 -5.39683,-14.161454 -8.80433,-20.923954 0.047,1.706451 -0.97167,5.76588 -1.26417,1.698566 0.99482,-2.073794 -2.11152,-5.958081 -0.4841,-6.474902 2.64488,2.436027 3.05065,6.598186 4.71506,9.768249 4.39464,10.93061 9.18271,21.737719 12.5334,33.047143 2.33208,5.898224 5.32407,11.550193 7.45934,17.512765 -0.35925,1.109112 -1.90437,-0.69482 -2.30893,-1.034091 z m -226.51755,-1.16049 c 0.73661,-3.344882 6.78781,-1.044427 9.63088,-1.035637 2.04347,2.589311 -4.22009,-0.319429 -5.73236,0.444425 -1.5537,-0.681174 -3.01326,1.555065 -3.89852,0.591212 z m -20.16445,-0.9503 c 0.81843,-4.176886 4.14032,-0.339705 0.81527,0.97051 -0.55904,0.08364 -0.88595,-0.480171 -0.81527,-0.97051 z m -9.10322,-0.15474 c 0.54354,-1.696241 -3.67129,-4.566664 -0.22425,-3.244654 1.07669,0.384681 2.238,4.384162 0.22425,3.244654 z m -23.95986,-0.42195 c 0.83056,-3.759639 -2.6213,0.77784 -1.94774,-2.548152 1.72763,-2.406553 4.97743,2.989113 1.94774,2.548152 z m 6.1265,-0.90572 c -0.30359,-3.03183 -4.10327,1.890132 -2.21114,-1.982916 2.61707,-3.184892 4.43453,5.595936 2.21114,1.982916 z m 57.09946,-0.92276 c -1.15535,-1.3021 -2.65006,-4.096623 0.67911,-2.975347 1.85659,1.18665 -0.29874,2.937743 0.50808,4.558912 -0.8265,0.514001 -0.88585,-1.231636 -1.18719,-1.583565 z m -69.85875,-2.51387 c -1.34303,-3.431589 3.63742,-6.143336 1.69419,-10.209999 -0.88196,-3.993889 1.94184,-9.327706 -2.48461,-11.873626 -2.06001,-0.533247 -5.08308,-3.693804 -1.1716,-1.869779 2.0799,0.351076 6.52517,6.117288 4.02738,1.400714 -2.93239,-2.793988 0.3361,-2.281606 2.4724,-2.371902 0.94806,-2.799583 1.56253,4.823793 3.10003,0.907437 -0.81539,-1.005837 -1.87164,-2.064943 0.75216,-1.567171 1.24821,0.413961 2.06989,2.886298 3.12588,0.7073 -1.06365,3.344919 3.3901,3.220513 2.46981,0.105923 -1.07187,-0.444505 -5.13976,-2.156137 -1.63838,-1.597183 2.14929,2.795273 2.58494,-1.252284 3.65311,-0.657199 -2.50214,2.692182 3.85207,5.589682 2.03476,1.180025 -3.69929,-1.310631 1.69314,-2.055972 2.79592,0.196106 1.88332,1.054579 -0.5023,-4.056359 2.28826,-1.998492 1.52561,1.161425 2.88407,2.082523 3.27177,-0.248488 3.13268,-2.548521 7.04041,6.986941 7.3758,0.573825 -0.90184,-0.786534 -4.74625,-1.143784 -1.3564,-1.305962 2.32991,1.055618 2.99306,0.038 4.32028,2.258016 0.10738,-3.209898 1.28021,-1.747208 1.02671,0.491651 1.27524,1.214942 2.57404,-2.976396 0.79791,-3.064364 1.76986,-1.22228 3.10887,2.725351 4.29162,0.314309 -0.75484,3.700609 4.66444,3.287368 2.6859,0.105069 -0.0407,-0.863654 5.7136,-3.672724 7.03567,-0.86543 1.01091,0.963594 1.30254,-2.705145 1.56066,0.04515 0.15671,2.834928 2.28546,-2.537075 0.59104,-2.41267 2.45476,0.238044 4.19284,2.59229 4.90009,-1.035625 1.69909,0.454912 -2.08778,4.866212 1.28415,3.692535 0.70435,-1.031261 2.11885,-5.469736 1.82566,-1.816997 -1.3434,2.731058 -2.40869,7.308856 -5.76083,6.196097 -1.03245,2.093636 -0.64392,-3.963467 -2.58764,-1.48211 -0.0542,2.414237 -1.10585,2.683681 -2.75668,1.896803 -1.56428,1.984478 -2.08786,0.42117 -0.53038,-0.789743 -0.33096,-1.916819 -3.52341,2.51425 -1.77053,-0.992422 -1.86519,-2.650013 -3.08596,3.263439 -0.3428,3.494932 -1.644,-0.74596 -2.91757,-1.0439 -3.76029,0.56411 0.76364,-2.063161 0.0506,-2.84519 -1.09208,-0.69107 -2.80605,2.444471 2.64381,-4.581979 -1.60354,-3.096407 -0.66395,2.240839 -0.45954,3.286916 -1.92425,4.674217 -0.0364,3.689922 -1.58049,0.903135 -0.37185,-1.079912 0.0357,-3.949241 -4.52111,1.697975 -2.36596,-1.920611 -1.35318,-2.235549 -1.94861,2.648762 -1.94767,2.83768 -1.86191,-0.822711 -1.95629,-1.226412 -2.9815,0.932879 -3.45085,0.551117 1.69034,-3.338466 -0.88595,-4.126507 -1.71489,-3.34796 -5.25271,0.425763 -1.72794,1.498431 2.86908,2.386429 -3.8588,-1.998588 -2.85169,2.091449 -0.0857,1.789533 -1.46069,3.417796 -1.39596,0.465664 -1.3528,-2.406893 -3.08254,3.074547 -5.11121,-0.02682 -1.27939,0.172349 -1.64615,1.165921 -1.61767,-1.070614 -1.87269,-1.613924 -3.75657,6.913159 -3.47737,1.90295 -2.31417,-1.966303 -3.2914,0.25577 -4.50682,2.014517 -0.16715,-3.589783 -4.22789,1.338998 -2.50145,-2.513329 -1.76105,-3.890213 -1.8591,2.523329 -3.62234,0.858734 0.47998,-4.996191 -2.8578,0.857265 -2.33651,3.156606 -0.33368,4.473404 1.3918,9.196813 -1.4546,13.195703 2.83731,1.360128 -2.37198,0.781251 -0.25156,2.940741 1.21815,3.0252 -0.808,2.291012 -1.1931,-0.01514 z m 12.18863,-20.29199 c -1.02164,-6.15746 -3.62836,3.08596 0,0 z m 4.91304,-0.87968 c 1.83601,-4.453059 -6.34584,-1.864657 -2.16791,0.55793 1.171,0.700883 1.65832,1.007558 2.16791,-0.55793 z m 6.87222,-0.10017 c 0.18359,-2.538068 -3.23119,-3.823854 -2.96618,-0.287429 0.36303,1.099024 2.51594,1.684812 2.96618,0.287429 z m -14.11103,-0.89067 c -0.39656,-6.049111 -4.34185,3.730571 0,0 z m -3.18313,0.18963 c -2.2914,-2.659415 -1.61842,1.619083 0,0 z m 20.72249,-0.63956 c 1.02202,-5.243994 -4.25878,1.869348 -0.36253,0.632436 z m -6.67162,-0.58995 c 1.38498,-3.232766 -3.43657,-2.231178 -1.93076,0.844013 0.54934,1.122706 1.72253,-0.20802 1.93076,-0.844013 z m 4.49129,-1.31501 c 0.39605,-3.285816 -5.11349,-1.564088 -1.93906,0.752 0.90363,1.249981 1.88431,0.399625 1.93906,-0.752 z m -21.19161,0.86994 c -1.77747,-1.555216 -0.19797,1.425063 0,0 z m 31.81905,-0.6144 c 1.31248,-5.293609 -3.53048,3.601237 -2e-5,0 z m 5.57447,-0.80993 c 1.88644,-4.991151 -5.21774,0.6687 -0.79205,1.304171 0.41404,-0.333063 0.55631,-0.856393 0.79205,-1.304171 z m -12.96148,-0.52429 c 0.69696,-3.395649 -3.94756,0.07049 -0.53934,1.04806 l 0.29519,-0.318935 z m 18.38625,-0.62234 c 1.64644,-5.15838 -2.78518,4.533467 0,0 z m 6.92506,-0.48823 c 0.52945,-3.625502 -2.53232,3.619926 -0.28112,0.904427 l 0.28119,-0.904427 z m 6.2186,-0.92182 c -1.76703,-3.589112 -3.38439,5.121467 -0.12759,0.829925 l 0.12057,-0.411862 0.007,-0.418063 z m -7.57311,0.36416 c 1.03944,-4.111964 -3.87361,2.178017 -0.47544,0.68851 l 0.47537,-0.68851 z m 5.02278,-0.63303 c 1.50345,-3.773719 -3.26422,-2.152767 -1.79073,0.73639 0.67712,1.195778 1.51544,-0.02838 1.79073,-0.73639 z m -6.74065,-1.06009 c -2.17624,-2.949968 -2.0158,4.349115 -0.15583,0.578925 l 0.15597,-0.578975 z m -13.1652,30.78255 c -1.47891,-1.937485 1.73239,-6.440899 1.59744,-2.063789 0.007,0.886816 -0.15395,2.994973 -1.59744,2.063789 z m 4.34217,-0.3745 c -0.51244,-3.537801 6.1001,-1.491992 1.71778,-0.421721 -0.57886,0.01776 -1.41202,1.796839 -1.71778,0.421721 z m 218.6046,-0.062 c -0.67952,-1.378591 2.62368,-0.745045 3.06719,-1.924741 1.1516,2.183569 -1.68156,2.628079 -3.06719,1.924741 z m -227.30867,-1.19555 c -2.61468,-2.143034 0.44375,-2.986886 1.37117,-0.312233 1.07732,1.620237 -1.06359,1.746538 -1.37117,0.312233 z m -5.66051,-2.0215 c -0.49831,-2.025919 -0.28633,-4.636845 1.3369,-1.578984 0.77509,1.730391 -1.59363,5.402703 -1.3369,1.578984 z m 59.95372,0.46027 c -1.76711,-3.041489 2.79429,-3.034621 0.93733,-0.33757 0.49457,0.926638 -0.58977,1.039254 -0.93733,0.33757 z m -16.14051,-0.94965 c -0.23188,-1.385337 -3.06388,-1.026435 -0.56058,-2.275597 1.70262,0.05414 2.39656,5.28602 0.56058,2.275597 z m 49.31802,0.44781 c 3.69222,-2.295336 8.69941,-2.582523 13.06751,-2.782932 2.70254,-0.735817 2.72349,2.827103 -0.0448,1.109253 -4.45534,-0.329014 -8.66073,1.400445 -12.95205,2.191939 l -0.1511,-0.08507 z m -27.45065,-0.53714 c -2.27118,-2.056928 5.03012,-1.455749 1.05925,0.219356 l -0.47769,-0.02875 -0.58156,-0.190482 z m 6.92932,-0.24794 c -2.60062,0.04665 -1.42662,-2.88135 0.96445,-1.494724 1.48614,0.64332 -0.5805,3.129479 -0.96445,1.494724 z m -43.30819,-0.65404 c -3.49074,-0.709277 0.67715,-3.592026 1.1455,-0.61839 0.067,0.379496 -1.05617,1.445039 -1.1455,0.61839 z m 4.07933,-0.29128 c -1.17688,-0.525451 -3.87166,-0.229596 -1.20562,-1.748689 1.62567,-0.694917 3.89119,3.694801 1.20562,1.748689 z m -27.05744,-0.43879 c -1.20189,-2.692979 4.72256,-2.894064 1.38068,-0.692225 -0.15763,0.722938 -0.70334,1.942197 -1.38068,0.692225 z m 224.87179,0.0279 c 1.67723,-1.825465 7.56852,0.701765 2.31236,0.50742 -0.72356,-0.116642 -1.81584,0.114853 -2.31236,-0.50742 z m -193.50952,-0.17892 c 0.52762,-3.423705 6.55144,-0.203985 1.73953,-0.102489 -0.53278,-0.04322 -1.25506,0.663908 -1.73953,0.102489 z m -26.4126,-0.70694 c -1.71079,-3.312538 5.66937,-2.83729 1.3166,-1.450131 -0.51662,0.394966 -0.25837,2.34402 -1.3166,1.450131 z m 63.95891,-0.45853 c -0.3786,-1.42504 -2.32413,-6.208559 0.44139,-3.108459 0.342,0.59991 0.93664,3.664777 -0.44139,3.108459 z m 154.612,-0.14278 c 0.0125,-2.173675 4.04138,-2.693961 1.52852,-0.40296 -0.20577,0.104823 -1.47416,1.419037 -1.52852,0.40296 z m -253.3495,-0.88549 c 1.98885,-2.771089 7.57785,-1.553264 11.01973,-2.205573 13.33902,-1.801682 26.4385,-5.086022 39.83503,-6.529754 9.7194,-1.204808 19.46751,-2.133092 29.1491,-3.632674 17.30481,-1.970661 34.5525,-4.573491 51.53131,-8.497266 12.81343,-2.786779 25.99523,-3.152228 38.88456,-5.512714 11.34123,-1.725446 22.43197,-4.887592 33.89423,-5.841793 12.30771,-1.387427 24.57411,-3.358331 36.95183,-3.991828 2.18441,-0.277962 1.59175,3.463566 0.0234,1.119648 -7.19789,0.0686 -14.35923,1.39675 -21.53122,2.050554 -12.66742,1.602729 -25.45269,2.626045 -37.88682,5.65893 -14.25567,3.078719 -28.80292,4.400768 -43.25026,6.194813 -12.0874,2.368228 -24.06024,5.359509 -36.29077,6.961554 -12.10029,1.767942 -24.25804,3.105657 -36.36044,4.848464 -16.65743,1.565231 -33.17778,4.294035 -49.57393,7.571761 -5.01666,0.775665 -10.15833,0.727983 -15.1149,1.847298 -0.30654,0.467511 -1.05338,0.556723 -1.28086,-0.04142 z m 56.06787,-0.80714 c -2.3554,-1.790671 0.4258,-2.507416 1.37154,-0.07376 -0.26873,0.777338 -1.45471,1.450902 -1.37154,0.07376 z m 25.27162,-0.33757 c -0.806,-3.480414 4.42385,-1.509146 1.57491,-0.73558 -1.26165,-0.595115 -0.37551,3.998028 -1.57491,0.73558 z m -19.30448,0.46675 c -2.36875,-4.712527 5.63091,-1.736086 4.07464,0.243905 -1.412,-0.991226 -2.68134,-0.333631 -4.07464,-0.243905 z m 1.36978,-1.39505 c -0.46284,-1.348653 -0.9252,1.465691 0,0 z m -11.89592,0.82092 c -2.94695,-0.756341 -1.29127,-2.691445 0.85139,-1.05759 1.84412,0.697206 0.16902,2.318204 -0.85139,1.05759 z m 78.74342,-0.0292 c 3.19763,-3.164208 4.2067,1.732707 0,0 z m 117.80967,0.15773 c 0.62458,-2.097727 4.20929,-3.147988 1.61731,-0.367886 -0.33269,0.387857 -1.23058,1.122742 -1.61731,0.367886 z m -161.21687,-0.93993 c -0.88078,-0.698321 -3.51188,-1.806079 -0.54244,-1.940388 1.59869,-0.160226 2.13536,4.585012 0.54244,1.940388 z m 6.12513,-0.25763 c -0.57991,-1.576272 -4.40733,-0.138721 -1.55428,-2.15499 1.89375,-1.361722 4.67656,5.769322 1.55428,2.15499 z m 158.34124,-0.56563 c -0.15235,-2.502927 3.4563,-2.089281 1.01108,-0.05749 -0.0454,0.882534 -1.04643,1.282597 -1.01108,0.05749 z m -97.28275,-1.79636 c 0.87013,-1.682858 -4.05954,-5.47992 -0.46673,-3.808833 2.07652,0.287183 1.26797,6.767597 0.46673,3.808833 z m -73.64641,-0.6734 c -3.13121,-2.518543 5.11634,-0.43373 0.92726,0.360865 l -0.4386,-0.138845 z m 40.63965,0.23074 c 2.24366,-1.715561 -2.88721,-1.522574 -0.39682,-2.78399 2.67421,-0.211934 3.90477,3.671301 0.39682,2.78399 z m 30.73159,-0.22078 c -3.62397,-3.306345 4.21092,0.06224 0.85627,0.506337 l -0.38331,-0.212757 -0.47296,-0.2935 z m 7.58887,0.25121 c -1.57312,-1.480097 -1.39197,-4.471263 0.43135,-1.564842 0.45088,0.407921 0.77454,2.685305 -0.43135,1.564842 z m 2.07998,-0.0224 c -0.6412,-2.347579 2.32652,-4.123769 1.23995,-0.621668 0.0221,0.41077 -1.04982,1.585694 -1.23995,0.621668 z m 3.35098,0.24196 c -1.63539,-2.707239 4.25154,-4.254663 1.19086,-0.871932 -0.33493,0.272297 -0.67171,0.963541 -1.19086,0.871932 z m 84.58396,-0.39125 c -1.9629,-2.110363 1.57229,-0.21753 1.78368,-1.70408 2.74637,0.280017 -0.47235,3.803837 -1.78368,1.70408 z m -164.10185,-0.10889 c -0.29543,-5.341017 3.96142,1.35206 0,0 z m 31.13817,-0.29743 c -3.23707,-2.415211 2.35718,-2.209068 0.77903,0.474392 -0.31143,0.402073 -0.91986,-0.04409 -0.77903,-0.474392 z m 15.08146,0.0977 c 0.52946,-3.04094 5.0778,-0.483731 1.01901,0.12659 -0.1779,0.528035 -1.0935,0.561181 -1.01901,-0.12659 z m 133.51523,-1.20908 c -3.06076,-6.996381 -5.30531,-14.386129 -9.02412,-21.073585 -2.87764,-0.985413 -1.92756,-4.917618 -3.17704,-6.197362 3.75791,-1.006646 3.09802,5.838191 5.05931,8.087408 2.58436,6.441341 5.34041,12.81813 8.21508,19.129607 0.60114,1.673353 -0.81832,1.191703 -1.07323,0.05393 z m -173.64175,0.52982 c -0.97671,-3.519859 5.7856,-0.549838 1.28264,-0.449235 -0.25242,0.539165 -0.77499,1.279875 -1.28264,0.449235 z m 36.75378,-1.13846 c -0.0789,-3.166977 4.77567,-1.060431 0.92715,-0.16546 0.0201,0.537338 -0.7007,0.493814 -0.92715,0.16546 z m 119.79304,-0.50607 c -0.77277,-3.099165 5.77358,-2.507587 1.83068,-1.090006 -0.65453,0.156892 -1.11078,1.442708 -1.83068,1.090006 z m -60.21888,-0.9956 c 0.39952,-1.324403 -3.8897,-4.757286 -0.62892,-3.706666 1.11645,0.463301 3.05949,4.945647 0.62892,3.706666 z m 50.08384,-0.34056 c -2.26128,-2.736636 -9.16269,1.709009 -9.50917,-0.705906 3.64219,-0.937059 8.31792,-1.897933 11.52837,0.465871 0.21048,1.352016 -1.60235,1.057168 -2.0192,0.240035 z m -121.48481,-0.43301 c -0.99732,-1.128669 -4.08064,-1.603128 -0.32201,-1.566144 2.11606,-0.39588 1.98162,4.289606 0.32201,1.566144 z m 73.56882,0.33754 c -2.56112,-3.634157 2.4752,-4.891484 2.17397,-0.870442 -0.5123,0.622124 -1.36459,2.041532 -2.17397,0.870442 z m -67.61769,-1.40117 c -1.84305,-5.166472 3.80059,3.44683 0.37064,0.564335 z m 5.17234,0.44041 c 0.43803,-3.471945 4.88788,-1.475174 1.08198,-0.143622 -0.24994,1.0194 -1.00672,1.903103 -1.08198,0.143622 z m 22.52028,-0.90076 c -0.97703,-1.268109 -3.59792,-6.632117 -0.0255,-5.000776 1.45564,1.091508 1.90413,2.38906 0.37992,2.478657 1.40106,0.869785 3.726,5.09995 0.41036,3.48261 -0.11299,0.378351 -0.76534,-1.373161 -0.76477,-0.960491 z m 44.60746,1.25144 c -2.37602,-3.249631 5.07712,-5.561251 2.06351,-1.40474 -0.46825,0.553063 -1.1524,2.079303 -2.06351,1.40474 z m -39.04392,-0.43074 c -1.21508,-2.3194 2.03831,-4.555673 1.0985,-0.951404 -0.0259,0.404601 -0.52719,1.749334 -1.0985,0.951404 z m 5.94914,-0.56982 c 0.5099,-2.687598 0.66567,-5.978996 2.09124,-8.313002 4.2093,0.465501 -2.38516,3.358547 0.74896,5.992762 -1.38329,0.274216 -1.66371,4.618495 -2.8402,2.32024 z m 4.39885,0.13556 c -0.22785,-2.728411 4.91118,-1.768168 1.49286,0.0301 -0.38624,0.18732 -1.35679,0.847796 -1.49286,-0.0301 z m 33.72365,-0.20508 c -0.36152,-2.477185 5.41304,-4.145646 2.88496,-0.872642 2.34068,2.094591 -2.86181,-0.213598 -2.87799,1.765853 -0.002,-0.297392 -0.006,-0.597905 -0.007,-0.893211 z m 45.91463,0.21754 c -0.50202,-1.341569 2.53338,-1.23885 1.65403,-3.363691 1.98843,0.344587 0.65988,5.093249 -1.65403,3.363691 z m -0.67936,-3.2945 c 0.28369,-2.649142 6.21744,-1.637257 3.05028,-0.64958 -0.9419,-0.965493 -2.82891,2.488967 -3.05028,0.64958 z m -16.01538,-0.90734 c 0.2182,-2.470141 -0.26592,-2.615482 -1.47684,-0.605796 -0.0283,-2.677354 -3.80436,-3.862012 -3.8653,-5.48202 2.25295,0.650611 9.17987,3.645048 5.3421,6.087816 z m -72.02767,-1.37257 c -0.27607,-2.661997 3.27726,-1.817546 1.2227,0.19447 0.24345,1.469973 -1.66247,1.178445 -1.2227,-0.19447 z m 35.2871,0.12908 c -2.76679,-2.607183 3.64254,-4.592488 1.23752,-0.845496 0.26263,1.26212 -0.0106,2.130646 -1.23752,0.845496 z m 41.61933,-0.77293 c 0.58871,-1.454412 -3.21678,-4.542056 0.068,-2.618115 2.4824,0.5734 -0.078,6.572334 -0.068,2.618115 z m -31.25446,0.39596 c 0.85613,-3.201177 5.53111,0.654989 1.29364,-0.02587 -0.0774,0.810011 -1.22682,0.888084 -1.29364,0.02587 z m -4.07609,-1.44002 c -0.63248,-3.738932 5.70221,-0.969512 1.42783,-0.847499 -0.31561,0.784965 -0.78326,3.610927 -1.42773,0.847499 z m 45.03777,0.78758 c 0.0193,-2.418419 5.08974,-4.04927 1.71877,-0.995279 -0.33017,0.529808 -0.95735,2.184278 -1.71877,0.995279 z m -180.92295,-0.75275 c -1.29885,-1.694727 2.01213,-5.74495 1.29346,-2.70263 -0.21971,0.611402 1.85943,0.910699 0.12245,2.088699 2.15739,0.655472 -0.82351,1.427604 -1.41591,0.613931 z m 4.1132,0.0758 c -2.33336,-3.705866 3.81531,-6.355885 3.53212,-1.373067 0.80899,1.957457 -2.46597,1.332542 -3.53212,1.373067 z m 1.63906,-1.83048 c 0.64375,-3.4546 -2.57713,2.594306 2e-5,0 z m 171.70881,1.50302 c 1.28456,-2.326451 3.89385,-0.07808 0.78117,0.568975 -0.34165,0.0628 -0.80445,-0.181173 -0.78117,-0.568975 z m 15.73646,-2.49852 c 0.72005,-1.604191 -2.42157,-6.273461 0.76311,-3.513435 1.89894,1.169244 -1.22719,9.4851 -0.76311,3.513435 z m -184.51086,0.69623 c -0.84908,-2.300667 1.36562,-1.597059 1.62192,-0.272831 0.65115,-4.836213 3.35393,2.302452 -0.32426,1.355649 -0.57098,-0.121662 -1.10118,-0.518057 -1.29766,-1.082818 z m -81.70212,0.34771 c 1.07012,-3.235058 -5.28295,-5.28933 -0.6031,-6.788729 5.76485,-3.208827 10.73493,-7.892663 17.1933,-9.787447 8.58786,-4.02974 16.71407,-8.975693 25.20236,-13.213792 6.62761,-3.544684 13.15178,-7.269859 19.73595,-10.892721 7.35731,-4.8103376 15.55722,-8.1434091 23.02309,-12.7851506 8.50376,-4.7383434 17.13773,-9.2670174 26.03986,-13.2058944 3.95027,-1.930537 8.39828,0.614621 12.54386,0.673747 14.34143,1.925371 28.85442,2.0211 43.18245,4.065822 9.0364,0.766638 17.98714,2.328856 26.948,3.591913 11.29395,0.540381 22.63011,0.648852 33.83915,2.2898837 8.67237,0.8226284 17.28143,2.2972186 26.01526,2.3675094 3.876,0.184622 7.78904,0.159499 11.62915,0.7240775 2.65224,8.932561 5.85641,17.8036274 10.60499,25.8807564 2.82106,5.667057 6.91393,10.688526 9.15809,16.628038 2.06533,3.297822 -3.60136,2.070161 -1.63107,0.831617 1.09876,-2.912804 -2.50916,-7.051975 -3.97511,-10.079513 -5.00821,-8.096694 -8.95209,-16.785851 -12.68132,-25.5153389 -2.86639,-0.1510212 -1.60432,-6.7168659 -4.08072,-3.37769145 -3.15306,0.70253017 -1.10185,5.03027705 -3.92306,5.73278895 2.96327,7.1340194 6.35475,14.1102934 9.05685,21.3652704 2.04375,5.351807 4.56491,10.500592 7.42275,15.454255 -0.0637,3.550724 -3.03,-1.944218 -2.79343,-3.410368 -5.14438,-10.636777 -8.44392,-22.14592 -14.46675,-32.3529474 -3.74645,-1.8118524 -8.59208,0.981558 -12.76279,1.0358048 -9.21791,1.0945214 -18.36262,2.7258842 -27.62037,3.5028896 -10.97969,1.175754 -21.91138,2.872162 -32.57208,5.798254 -16.42969,4.496406 -33.36506,6.832616 -50.33688,7.994724 -9.68426,1.010396 -19.18899,3.228699 -28.5762,5.735306 -3.56891,1.087891 -8.15742,1.125882 -11.14048,2.584051 -0.53655,1.608628 -2.01649,7.454489 0.28793,3.176786 0.10736,-1.399339 1.30126,-4.525884 1.43583,-1.15327 2.5315,2.352673 0.72437,-3.061975 3.74766,-1.769346 1.52594,0.758679 2.01508,-0.254335 2.86646,2.039593 1.99324,0.118974 2.73922,-6.337118 2.50194,-1.943801 -0.26127,2.119927 -3.29484,5.904448 -2.99156,2.638359 -1.46972,-0.04029 -3.64517,5.524089 -2.21029,1.125744 2.34167,-5.340084 -3.20294,5.272291 -3.17188,-0.03346 -1.14604,-2.297345 -3.24355,2.066925 -0.91881,2.577811 -2.66858,1.003858 -2.87245,-2.641489 -4.63126,0.354626 0.21726,-2.580441 -0.0893,-1.177932 -1.33931,-1.104208 1.01984,-3.827951 -3.21312,-0.380274 -0.53631,0.959886 -1.42089,0.209337 -4.05649,2.420906 -2.48837,-0.451359 -2.80085,2.134121 0.25783,-2.534369 -1.8314,-0.380692 -0.85263,1.575029 -1.7611,3.795286 -3.18861,1.46711 -1.88851,2.582412 -0.97297,-3.516379 -2.86781,0.173662 0.26132,4.107534 -4.05971,-2.611241 -4.43794,1.26969 -1.46459,2.086143 -0.86306,-3.621124 -2.34766,-0.01888 -0.66114,2.438518 -3.00657,1.947639 -0.7388,-0.100196 1.57218,-2.204555 -3.5853,-4.194277 0.52974,-3.297058 1.6196,-0.72244 3.40737,1.199127 3.51229,-1.417296 -0.19914,1.940307 2.6422,5.541268 3.12912,1.800421 -1.47088,-0.842612 1.54679,-1.90721 1.64234,-1.912356 0.38233,3.933524 2.07387,-0.251446 2.75043,-1.447739 1.16258,0.920731 1.6441,1.252048 2.41999,-0.03647 -0.0107,4.158033 1.25064,-0.03706 3.33908,-0.618989 1.26571,-1.061124 1.25865,3.522527 2.41808,0.07528 0.0913,-3.525772 -5.83819,-0.196695 -8.31172,-0.282254 -11.24457,2.676186 -22.77512,3.826378 -34.08196,6.194798 -10.5776,1.478201 -21.26286,2.459595 -31.61455,5.232395 -5.70086,1.126819 -11.54829,1.474756 -17.3044,2.034096 z m 12.63804,-2.21726 c 7.05135,-1.344509 13.9944,-3.275371 21.14385,-4.136245 8.26999,-0.989404 16.53064,-2.055987 24.68642,-3.786861 9.33427,-1.555036 18.70191,-2.910861 27.93427,-5.017697 9.65698,-1.797587 19.34986,-3.459426 28.81006,-6.144771 9.77972,-2.483443 19.82814,-3.464748 29.8634,-4.193809 14.35638,-1.297024 28.51728,-4.131047 42.44302,-7.803135 8.92125,-2.467746 18.11433,-3.598541 27.24556,-4.9469679 2.52994,-1.5584236 -5.20519,-2.6306789 -5.79643,-3.9093821 1.30945,-0.4881421 8.95962,-2.462736 4.08587,-1.9407157 -2.40732,1.3580886 -7.32581,0.4896282 -8.49911,2.2609926 2.45729,0.7511564 2.79377,1.8025612 -0.002,0.7310758 -1.48849,-0.7498248 -2.93503,-1.6907909 -4.27109,-0.1639723 -3.07331,0.483 1.99531,3.2568854 -1.36679,1.8230064 -2.19361,-0.7916135 -5.61734,-4.97842 -5.46309,-4.1619964 -1.6831,-0.3721525 -6.46218,-5.237589 -2.05324,-3.41643099 3.60249,2.80204459 6.45645,-1.13418949 9.93036,-2.28776601 2.75701,-2.0542434 6.03313,0.4115223 2.03139,1.93071543 0.74601,2.30620587 4.32276,1.07575887 6.11771,-0.23026244 2.3643,2.29918921 -7.6769,5.02563111 -2.18851,4.07417981 3.57661,0.1136174 8.40094,-1.6628384 3.32657,-4.10690344 3.02012,0.36017439 5.32589,5.56423464 8.4634,1.63292144 3.34837,-1.86484178 -3.20434,-2.58411801 -2.89652,-0.78073555 0.25008,-4.26161575 6.7163,0.54821025 8.50655,2.33326645 2.83659,3.8098223 -3.29119,-4.01974 -4.96485,-1.2068778 -2.31377,1.8789827 -6.59327,2.1861752 -8.18172,4.019302 3.17531,1.3771107 5.53202,3.6734529 8.88443,2.9771097 8.32261,-0.8569762 16.56874,-2.2558383 24.86984,-3.2847582 4.10369,-0.065525 8.95918,-2.2871809 12.13071,-2.5446087 2.6097,-0.835001 2.42824,-6.605059 6.47957,-6.8125335 -2.03036,-2.1966553 -7.63942,-0.7662111 -10.98051,-1.3542384 -14.10081,-0.2644692 -27.98712,-3.2091992 -42.05771,-3.8508632 -10.30507,0.1084606 -20.59058,-0.8115696 -30.71974,-2.712763 -8.41674,-1.198335 -16.89615,-1.888765 -25.33115,-2.940191 -10.14886,-0.652134 -20.3189,-1.154723 -30.37457,-2.780792 -5.23334,-0.465675 -10.77301,-2.209632 -15.76177,0.336182 -12.17455,5.401196 -23.62104,12.260608 -35.34185,18.5463784 -7.0814,3.4081055 -13.51331,7.9558779 -20.54042,11.4607876 -9.1727,5.506491 -19.05545,9.684831 -28.21623,15.211785 -5.80141,3.650925 -12.70844,5.126723 -18.20264,9.293006 -1.30403,2.590573 -8.29049,2.862173 -6.13401,5.993297 0.15871,2.174251 0.2898,3.461478 2.74338,2.710619 3.2229,-0.176831 6.4451,-0.408175 9.64722,-0.819348 z m -10.39397,-1.34947 c 3.28619,-2.393148 6.85,-4.709623 10.44808,-6.716791 5.3677,-1.867939 9.93069,-5.247863 14.74423,-8.152836 5.67913,-2.747017 11.25011,-5.697401 16.6302,-8.991737 10.67012,-4.647646 20.35447,-11.2224702 30.86531,-16.1793542 6.1881,-2.5645594 12.19015,-5.5814288 18.28093,-8.3764624 6.20069,-2.8526968 12.00873,-6.5645654 18.32686,-9.1256184 -0.42801,2.486947 -6.59613,3.424144 -8.9134,5.5234386 -10.42112,5.7932248 -21.5878,10.0712409 -32.20284,15.4590103 -9.24565,5.2510331 -18.75483,10.0105761 -28.15805,14.9624361 -4.6185,3.070836 -9.71677,5.247903 -14.59271,7.835176 -4.63758,2.883751 -9.10373,6.102293 -14.28013,7.98449 -3.84451,1.756617 -6.92722,4.87073 -10.93307,6.323268 l -0.15213,-0.160077 -0.0633,-0.384943 z m 13.00346,-3.33245 c -0.60235,-2.73834 5.56147,1.897456 1.08746,0.666997 -0.39758,-0.135387 -0.85256,-0.285403 -1.08746,-0.666997 z m 7.17307,0.51225 c -1.87788,0.170605 -3.30096,-0.199637 -2.91432,-2.398565 2.38738,0.905109 3.28746,-3.652095 5.62795,-0.718115 1.05111,-0.09144 0.21081,-2.211996 2.19592,-2.265548 1.61193,-1.251109 4.91629,2.599007 4.5727,-1.558397 1.12157,-0.98812 4.07382,2.429296 3.59015,-0.413205 -2.58137,-0.07343 3.41478,-3.610112 4.35527,-0.844534 2.01688,-0.277316 -1.80787,-4.220995 1.77341,-2.291998 0.84806,1.481124 5.07405,2.768091 2.40883,0.391227 -2.34712,-0.711289 -2.04402,-2.474988 0.10783,-0.725582 2.61797,2.396789 2.48487,-2.279587 0.0971,-2.366656 2.58686,-1.444829 5.56993,5.504732 5.60607,-0.09002 -1.37386,-0.723077 1.0761,-2.845538 1.97708,-3.607211 1.76125,2.050176 4.94538,2.319256 2.94881,-0.737344 -1.18537,-2.21358 3.48455,1.406794 4.15485,2.138681 1.62992,-0.330465 0.36887,-5.209476 3.0206,-2.439997 2.59365,3.199537 3.99951,-4.960618 1.14731,-3.739474 1.14085,-2.87369 5.25269,4.104696 7.64816,4.474774 3.33055,-3.410786 -5.49759,-5.182137 -3.84111,-6.297534 3.06301,1.226849 6.21232,6.167528 8.89914,5.675825 -1.77571,-2.44644 -1.02026,-9.625222 2.60686,-8.765461 0.51748,1.509925 3.1944,3.014904 -0.26442,3.740762 -5.5666,0.883008 0.57146,5.731164 2.36586,7.48401 -0.37076,1.233455 -5.88484,-4.011615 -3.99619,-0.332116 -0.57527,0.03335 -2.67897,-2.133217 -3.84114,-3.037361 -1.57633,1.971165 -2.64018,4.274172 -3.77936,6.509953 2.24554,2.426012 1.71036,-0.122538 1.66089,-0.337695 1.95635,1.112851 2.26324,4.392093 -0.497,1.763441 -1.45824,-2.376096 -2.7875,0.923438 -2.75134,2.253014 3.95927,1.451988 -3.30954,1.799679 -2.16401,-0.588988 -0.76373,-1.670293 -3.26919,-1.068461 -3.24331,-2.962391 -2.51036,1.736541 -0.2981,2.625158 0.91088,3.561969 -1.7302,-0.105806 -3.61462,-1.126895 -3.9369,1.638949 -1.75827,-1.483088 -2.85119,-1.433145 -4.43188,0.409448 -2.63167,-2.114719 -4.00583,2.355375 -6.2489,-8.35e-4 -1.5759,1.930956 -3.29445,3.049884 -5.60805,1.960825 -2.18164,0.462529 -4.13288,0.575739 -6.00528,1.841914 0.52449,-3.041044 -3.80663,-1.349802 -2.45391,0.680927 -2.51488,-1.797456 -4.92278,1.54667 -6.89838,-1.159379 -1.1999,1.133692 2.76308,3.329047 -1.02719,1.663746 -1.49669,-0.04438 -2.06569,2.787735 -3.77295,1.488937 z m 1.89096,-1.26771 c 1.59133,-1.526533 -0.85471,-1.699015 -1.23052,-1.0474 -2.9111,-0.01878 0.009,3.297214 1.23052,1.0474 z m 6.05737,-2.28419 c -0.75186,-1.971036 -4.6049,-0.997207 -1.29382,0.322123 0.32215,0.290381 1.37955,0.4382 1.29382,-0.322123 z m 3.57371,-0.82845 c 1.71346,-3.053826 -4.4406,0.775298 -0.57334,0.247699 l 0.5733,-0.247669 z m 4.57841,-0.45895 c -0.93374,-3.195399 -4.40117,-0.533662 -0.98132,0.5965 0.41276,0.42203 1.18056,-0.02588 0.98132,-0.5965 z m 3.55522,-0.515243 c -1.24333,-2.670402 -3.32444,1.552012 -0.27301,0.377578 l 0.27306,-0.377578 z m 3.73035,0.133813 c 0.68046,-3.554233 -4.51824,0.06214 -0.69117,0.521882 l 0.33324,-0.139501 0.35778,-0.382509 z m -6.20263,-1.350193 c -0.20573,-3.167058 -4.93512,-1.231459 -1.06205,0.425836 0.37387,0.386412 1.03526,0.07442 1.06205,-0.425836 z m 4.62356,-1.05857 c -1.44683,-2.734379 -4.44208,-1.845576 -2.38799,0.984263 0.89271,1.247617 1.963,-0.130272 2.38799,-0.984263 z m 3.26086,0.530319 c -1.95582,-3.890557 -3.20367,1.515444 0,0 z m 3.29962,-0.343753 c 0.58231,-2.427017 -2.81271,-2.793958 -2.27336,0.07984 0.62011,0.712366 1.74435,0.79319 2.27336,-0.07984 z m 4.21328,-2.134657 c -3.12589,-2.084988 -2.46343,4.900445 0.17982,1.62674 0.3867,-0.503738 0.53401,-1.313796 -0.17982,-1.62674 z m -6.45225,0.473629 c -1.10587,-6.35012 -3.83428,3.971498 0,0 z m 4.64583,-1.347552 c -0.97625,-4.391742 -5.58924,-0.06847 -1.95519,1.615877 0.88665,0.614339 1.80814,-0.920366 1.95519,-1.615877 z m 5.88094,1.191735 c 1.66799,-3.079253 -4.39741,-0.235254 -1.40498,0.785798 l 0.72335,-0.244319 z m -2.11203,-1.231954 c 1.61299,-2.762973 -4.04258,-3.9241 -2.4459,-0.208892 0.79954,1.182164 1.81759,1.966557 2.4459,0.208892 z m 10.51302,-0.172935 c 2.03215,-1.45343 -1.54375,-3.766959 -2.4508,-3.230565 -1.38916,1.705073 -1.56111,3.385906 0.65135,4.338736 0.8665,0.6696 1.43865,-0.555997 1.79945,-1.108171 z m -6.77257,-0.820123 c 1.58054,-3.616443 -4.25869,-1.657225 -1.33882,0.757885 0.56953,0.452991 1.09534,-0.424828 1.33882,-0.757885 z m -6.41316,-1.179102 c 1.39163,-2.947903 -5.26231,-4.722017 -2.54762,-0.695239 0.64586,1.083202 2.05413,3.178356 2.54762,0.695239 z m 10.13627,-1.346829 c -0.30809,-1.915543 -0.69025,-1.963425 0.92361,-1.787877 1.53247,-1.600271 0.9058,-6.855025 -0.46529,-2.636097 -0.96788,1.340798 -4.61799,8.423854 -0.85264,5.200204 l 0.39432,-0.776404 z m -5.85758,0.70465 c 1.28175,-3.037302 -4.37317,-4.168745 -2.72239,-0.349313 0.72655,0.65152 2.30083,2.29986 2.72239,0.349313 z m 10.953,-1.098639 c 1.6963,-1.685814 -0.20535,-3.185894 -1.72102,-4.094782 -1.96297,1.78878 -2.25811,6.016754 1.02948,5.316848 l 0.33592,-0.549084 0.35562,-0.672927 z m -6.54533,-1.626168 c -0.94525,-3.467375 -4.43289,0.994791 -2.63053,2.025906 1.4117,1.898012 2.16784,-1.007454 2.63053,-2.025906 z m 14.26624,-8.92462 c -0.69799,-0.93351 -1.15057,1.700339 -0.11976,0.374583 z m -5.67639,9.581377 c -0.48073,-2.809586 3.36608,2.149243 6e-5,7.4e-5 z m 25.13172,-2.467796 c -0.68599,-1.602489 0.94532,-7.727629 1.02872,-2.861825 -0.0359,0.688546 0.58239,4.80127 -1.02872,2.861825 z m 9.02887,0.215048 c -1.21868,-1.71548 -2.11149,-4.685369 -2.97856,-6.40881 1.8529,0.197106 2.71413,2.810258 3.43572,0.18485 0.90812,0.36323 0.81019,7.162236 -0.45716,6.22396 z m 8.09848,-2.671031 c -2.09643,-1.281832 0.69694,-5.41025 0.42521,-1.638814 1.06649,1.08113 2.21712,3.005032 -0.42521,1.638814 z m 3.72344,-0.669465 c 0.18723,-1.503428 -2.49136,-5.038208 0.48417,-2.399942 1.00193,0.564823 0.79184,3.348042 -0.48417,2.399942 z m -34.52117,-2.355911 c 0.0152,-4.961345 3.80268,3.786846 0.0493,1.525238 -0.16838,-0.497085 -0.0637,-1.01825 -0.0493,-1.525238 z m 41.78846,-0.194614 c -0.62806,-3.000527 1.32496,-2.797331 1.03609,0.04326 0.32278,2.480468 -1.01839,2.047476 -1.03609,-0.04326 z m -4.09537,1.284756 c -0.98917,-3.678596 3.22309,1.386384 0,0 z m 18.12922,-1.722976 c -1.99078,-4.068261 -1.94503,-8.6658112 -2.37404,-13.0567047 -1.61186,-1.8789528 1.44666,-4.7476381 1.06715,-1.1075521 -0.0187,4.792919 0.44992,9.7834408 2.4601,14.1356128 0.10515,1.149783 -0.88609,0.778522 -1.15321,0.02864 z m 5.56915,-0.84392 c -1.97484,-2.137632 -2.98839,-5.573335 0.90384,-5.703779 3.51352,-1.1352501 4.04116,-3.3183953 1.43926,-5.7940983 3.12226,-0.7257645 4.07511,5.6024233 0.15551,6.1067233 -2.96815,1.03267 1.58438,2.163733 1.65623,3.84976 -0.5765,1.516057 -4.93229,-3.981976 -2.73996,0.07027 0.23285,0.940454 -0.26391,3.300753 -1.41488,1.47112 z m -24.55817,-1.717171 c -0.77177,-2.055131 2.71823,-6.6198393 1.3396,-2.022084 -0.2917,0.762474 0.008,4.357519 -1.3396,2.022084 z m -6.56703,-1.103921 c -1.25283,-1.169578 -0.90108,-4.122214 0.71953,-1.903249 0.65098,1.05494 0.26325,5.471344 -0.71953,1.903249 z m 38.93686,0.58347 c 0.004,-2.525912 1.46548,-5.2783649 1.04443,-7.5846936 4.17263,-0.1112477 -3.20719,8.3479326 2.48266,6.9885386 0.14989,0.958486 -3.33588,2.179347 -3.52709,0.596155 z m -67.75466,-1.516351 c -4.02415,-4.1279178 4.9626,-4.484277 4.47257,-0.04658 -1.91746,1.783189 -3.00383,-3.8582847 -4.52113,-1.450057 2.36769,-0.446454 2.91394,5.713831 0.62887,2.213703 l -0.58033,-0.717067 z m 50.12309,0.855982 c 0.39617,-3.9574242 -0.59996,-7.9661818 -0.91739,-11.7580383 2.57225,0.4724181 1.25232,6.5985087 2.19128,9.0851793 -0.0225,0.881706 0.48281,3.811096 -1.27389,2.672859 z m 25.79526,-0.07675 c 2.74161,-1.489046 -1.90506,-7.6802104 1.39252,-5.7279625 0.85084,1.3796824 1.19733,6.9787445 -1.39252,5.7279625 z m 3.26084,-0.601985 c 2.49201,-2.127601 -3.26324,-8.89246 0.89305,-7.8835019 -0.79114,1.7667643 2.62148,8.8557149 -0.89305,7.8835019 z m 8.55974,-0.656208 c -0.11034,-2.017474 -3.27649,-4.7339556 0.43222,-4.323451 2.29324,-4.2241569 7.14411,3.705834 0.74002,2.338959 -0.15228,0.343458 -0.41271,5.418649 -1.17224,1.984492 z m 3.26086,-3.4225536 c -1.55052,-2.2305921 -3.48328,1.5713026 0,0 z m -7.82994,2.6143416 c -0.52281,-1.8052829 0.62999,-8.5708864 1.14131,-3.166246 0.091,0.7673351 0.39413,4.102902 -1.14131,3.166246 z m -37.11748,-0.804973 c 0.15777,-2.5704572 3.29334,0.577539 0,0 z m 55.831,-0.8436456 c -2.88573,-0.3684477 -0.8893,-4.0797231 -1.10102,-4.0349048 -4.02858,0.7101685 4.16824,-4.0611005 3.05133,-0.1537019 -1.43553,0.9600968 -4.70443,2.3564813 -1.49355,3.1393567 2.46689,0.9682015 1.99205,3.2995226 -0.45676,1.04925 z m -61.74663,-0.277096 c -1.26381,-0.996734 -2.05814,-8.3416109 -0.27784,-4.3470005 -0.33892,0.8102148 2.45811,5.5590311 0.27784,4.3470005 z m 1.98306,-1.195348 c -2.05592,-1.7212852 4.4117,-0.5940586 4.85847,-0.224019 -0.7974,1.4153535 -3.51767,0.4163143 -4.85847,0.224019 z m 14.04881,-0.06579 c -0.61841,-1.6909149 -0.58619,-9.08173152 0.94328,-4.3500767 0.1023,1.9745536 -0.61888,4.6497117 2.16442,3.325675 2.66575,0.6333652 -2.72903,2.3990165 -3.1077,1.0244017 z m -29.08155,-0.822815 c -2.01646,-1.8960921 2.18229,-6.156285 0.63006,-1.7507585 -0.24081,0.8865734 2.5803,3.5119031 -0.63006,1.7507585 z m 9.29343,-1.303221 c 0.36671,-1.3585877 -3.05464,-7.6347567 -0.1684,-4.8039684 1.27731,0.7051922 1.63508,10.557399 0.1684,4.8039684 z m -22.13254,0.276996 c -1.01577,-2.2377177 0.45056,-5.93051709 2.12661,-2.6869798 4.10828,1.4324232 -0.10303,-2.1882554 0.98136,-2.95368395 4.12056,1.25441195 1.7999,6.43343485 -1.86509,3.99306595 -1.96863,-0.1857546 2.22021,1.8259807 -0.83549,1.8428673 l -0.40721,-0.1952205 z m 118.73532,-0.9999118 c -2.85338,-2.7580585 2.49973,1.5340178 0.74571,-1.898054 1.52083,1.4148545 2.70618,4.6477517 -0.74571,1.898054 z m -85.74043,-0.315719 c -1.00416,-1.5299848 -0.20601,-4.83743221 0.81847,-1.5648337 0.42916,0.9720206 -0.0852,4.2885773 -0.81847,1.5648337 z m 42.13277,-0.211061 c 0.45936,-1.0791369 0.11318,-5.44429311 1.60177,-2.7031086 0.32422,0.7574237 -0.64568,4.6799298 -1.60177,2.7031086 z m 2.847,-0.105406 c 3.83484,-0.9418573 0.10594,-3.5551213 -0.75232,-5.56563507 3.64423,-0.32300573 5.16573,7.90668177 0.75232,5.56563507 z m -19.04308,-0.316467 c -1.81525,-1.1912108 -1.38088,-7.675068 -0.12067,-3.010627 -0.37063,1.114958 3.73999,4.9293455 0.12067,3.010627 z m 2.22262,-0.147519 c 1.88345,-1.8571817 -2.28862,-4.98810657 -0.29326,-5.5253133 1.3365,1.02873727 3.60575,5.9744096 0.29326,5.5253133 z m -12.65061,-1.329236 c -0.16803,-2.04707133 -1.76762,-3.79088718 -1.60895,-0.6299582 -1.67344,-1.155211 0.0728,-3.3439432 -2.6643,-3.8988901 2.05149,-2.6178772 8.02823,2.6488967 4.83095,4.8195038 l -0.31543,-0.036877 -0.24229,-0.2536526 z m -19.74743,-1.273593 c -3.55791,-1.78628549 5.21106,-0.3903696 0,0 z m -14.48046,-1.05799695 c -0.38441,-2.23682625 -0.10945,-9.36283675 3.21878,-6.97964715 -0.43673,0.8319504 -4.37825,4.3150832 -1.01382,4.2787131 3.20832,0.083893 -2.79422,1.14622565 -1.12353,3.1837836 -0.4054,0.1763256 -0.91433,-0.089908 -1.08143,-0.48284955 z m 4.18434,-1.581662 c -1.45285,-1.60907495 0.32034,-6.57602625 0.50648,-2.02643335 0.67379,1.5013764 1.48674,4.9587567 -0.50644,2.02643335 z m 17.19335,-1.04870205 c -2.77512,-4.4770489 5.68425,-0.6083391 1.63012,0.9685347 -0.67424,-0.037788 -1.23889,-0.4557449 -1.63012,-0.9685347 z m -7.96766,-0.01246 c 0.30666,-3.1210262 4.95543,-2.1595789 3.44164,0.648932 -1.07139,-2.6096825 -1.89566,-0.8597776 -3.13824,-0.1541519 l -0.3034,-0.4948791 z m -52.02033,41.1567064 c -0.99212,-1.508874 -0.89692,1.451213 0,0 z m 9.73663,-0.69712 c 1.21145,-4.316064 -3.64999,1.806475 -0.48398,0.75407 l 0.48399,-0.75407 z m 4.05656,-1.64349 c 1.82855,-3.246801 -2.18184,0.620313 -0.75049,1.026575 l 0.37638,-0.370727 z m 4.7737,-1.654416 c 1.66461,-2.933207 -1.12574,-3.407043 -0.98799,-0.199477 -0.97655,2.427551 0.17553,1.979204 0.98799,0.199477 z m 6.46689,-0.07401 c 0.0843,-3.027611 -1.93343,2.471355 0,0 z M -273.97119,5.2208886 c 0.0415,-2.6519638 -4.4845,-4.32307126 -4.97928,-0.684516 -1.3624,1.4693983 4.48602,2.4967781 4.97928,0.684516 z m 4.09688,-2.309337 c -0.0142,-3.37967846 -9.35565,-2.02563926 -3.80202,0.7395911 1.28248,1.1948046 2.68805,0.043083 3.80202,-0.7395911 z m -12.15741,-0.498075 c -1.38073,-1.78771405 -0.26219,1.6454845 0,0 z m 15.37783,-0.421948 c 2.48425,-2.68311113 -4.05378,2.59617 0,0 z m -5.08575,-2.41803195 c 5.24742,-3.42129735 -7.92202,1.27088574 -2.39997,0.82198308 0.81859,-0.21550384 1.61679,-0.50239731 2.39997,-0.82198308 z M -388.33977,46.450503 c 0.14603,-4.51426 4.32331,-0.752299 3.12623,1.402356 -1.40742,-1.955954 -3.46371,1.820247 -3.12623,-1.402356 z m 109.18125,0.57811 c -3.15571,-2.917798 5.14418,1.336283 0.46043,0.282197 l -0.46043,-0.282247 z m -104.8808,-1.47013 c -0.5856,-2.938746 1.7023,-2.088673 1.68583,0.244727 2.93646,1.262662 -2.5034,2.310359 -1.68583,-0.244727 z m 5.2309,0.36653 c 1.01038,-1.042544 1.24539,-6.197276 2.12797,-1.955027 0.22641,1.357367 -0.5594,3.057837 -2.12797,1.955027 z m 105.86416,-0.18739 c -1.22134,-1.529129 -0.37067,-3.211751 1.26817,-1.375023 1.11298,0.799446 -1.44256,3.008922 -1.26817,1.375023 z m 8.84725,-0.49561 c -0.1376,-2.697964 3.93419,-1.704537 1.44033,0.462991 -0.43441,0.259164 -1.44799,0.23748 -1.44033,-0.462991 z m 38.31502,-0.14552 c 0.069,-3.301325 6.36723,-2.005915 1.56122,-0.750836 -0.58377,0.352726 -1.20252,2.614189 -1.56122,0.750836 z m -148.67453,-0.10715 c -1.87865,-0.934496 -0.3619,-3.939421 0.54179,-1.0586 0.89916,-0.0036 -0.0965,-4.01061 1.23282,-1.076448 0.27011,1.349109 0.14909,3.053451 -1.77461,2.135048 z m 5.0054,0.0623 c 0.19992,-1.100323 -1.82585,-5.138691 0.19293,-3.65871 0.72314,0.953337 2.31829,4.10282 -0.19293,3.65871 z m 136.64704,-1.81381 c -1.67224,-1.951464 2.65998,-6.171729 1.04967,-2.355092 -0.18794,0.39264 -0.0197,4.256791 -1.04967,2.355092 z m -133.60222,-0.70325 c -2.75624,-1.900066 2.97125,-3.843155 1.00566,-1.023906 0.52076,1.19175 -0.30386,2.968276 -1.00566,1.023906 z m 2.65602,-0.14054 c -1.4178,-3.791955 2.58194,-1.098587 0.31618,0.52348 l -0.31625,-0.52348 z m 2.63285,-0.53994 c -1.55772,-2.406901 3.31662,-3.454398 0.84611,-0.976521 2.68064,1.429594 1.43987,2.31316 -0.84611,0.976521 z m 4.34069,0.005 c -2.78339,-2.363759 2.61441,-4.591149 1.49829,-0.885454 2.52329,0.646422 -0.53077,2.299192 -1.49829,0.885454 z m 117.21215,-0.0618 c -0.33881,-1.147669 -4.5074,-1.733384 -0.90558,-2.110616 2.3941,-0.345607 3.1839,4.136179 0.90558,2.110616 z m -110.86236,-1.09335 c -2.00273,-1.708531 0.55824,-4.900506 0.51442,-1.29146 2.29684,3.090767 2.06313,-5.892493 3.07529,-0.648203 0.20382,2.002924 -2.03093,3.3234 -3.58971,1.939663 z m 4.62519,-0.41958 c -1.10875,-2.729978 0.31715,-5.02065 2.25599,-1.82676 1.6397,2.793916 0.0341,-4.694017 1.70259,-1.815623 1.04783,2.348973 0.37359,5.668598 -2.11165,2.6869 -1.75138,-2.710577 -0.10016,4.353248 -1.84693,0.955483 z m 119.61217,-0.0249 c -1.14984,-3.348988 5.84605,-2.523952 2.57324,-1.26345 -1.60322,-0.875534 -1.6342,4.452109 -2.57324,1.26345 z m -114.19048,-2.14873 c -1.79095,-5.603537 6.23912,-0.477045 2.00985,1.377872 -1.52701,0.889535 -2.09143,0.177046 -2.00985,-1.377872 z m 2.09863,-0.22776 c -0.92947,-2.203801 -1.0291,1.449091 0,0 z m 2.33913,0.0805 c -1.3204,-2.090123 0.56939,-3.883947 2.35714,-2.776993 -1.24021,1.132736 -0.79204,3.024565 0.3835,3.911904 -1.02874,0.88986 -3.00894,0.565803 -2.74064,-1.134911 z m 3.30573,-0.86019 c -1.57624,-3.102911 3.11941,-4.098873 2.83052,-0.936986 2.32412,1.752891 0.64305,3.550642 -0.87401,1.071118 -1.39926,-2.192181 -0.41952,3.573782 -1.85311,0.570385 l -0.10275,-0.704517 z m 7.23608,0.40196 c -1.29307,-2.15203 0.84854,-5.871347 1.01651,-1.55533 1.39935,0.759729 2.42233,2.134069 -0.44728,1.878298 l -0.34707,-0.122759 -0.22206,-0.200209 z m 3.57966,-1.229584 c -0.061,-3.29208 3.17066,-4.337006 4.00843,-0.739819 0.52972,2.030561 -3.01626,-1.051971 -3.6257,1.920171 -0.45433,-0.145423 -0.43464,-0.851737 -0.38273,-1.180352 z m -46.47115,-0.294365 c 0.4026,-1.870319 1.2773,-5.288534 2.54945,-1.630752 2.96034,0.38082 1.46258,-5.099917 4.43884,-2.481699 1.88374,-0.621298 2.30056,-4.613517 3.67276,-1.209247 1.72734,-2.668043 2.48957,3.687649 4.04452,-0.1236 -0.54356,-2.463574 2.64304,-2.074358 3.34378,-0.166709 2.22898,1.490991 2.55922,-3.912207 4.49825,-1.94433 1.6742,1.383548 4.00822,1.776312 4.71437,-0.642225 1.59491,1.283998 3.8174,2.610041 4.19312,-0.29144 -2.27712,-2.452458 3.23901,0.696536 4.53666,1.44074 1.83311,-0.482302 2.55399,-4.940569 5.46927,-2.606555 1.98533,0.893045 2.66946,-4.59079 3.20888,-1.234643 -3.2145,1.932353 0.73436,4.476509 1.85396,1.195576 3.23254,-2.500105 -4.64767,-2.831641 -0.20302,-3.085395 1.93115,1.022516 3.24798,-0.987151 3.39113,1.648421 2.26939,2.307768 4.88798,-6.237751 4.61908,-0.993516 2.07099,2.306683 4.81805,1.617838 5.49647,-1.415187 1.84673,-1.662523 4.36168,4.360249 6.5836,0.676821 3.01472,-1.501363 -3.37716,-3.42989 0.96227,-2.907392 1.89514,0.557045 3.01275,3.435677 4.40914,0.744624 1.1541,-0.653336 -3.09659,-2.876868 0.0853,-1.598728 1.76698,2.363095 2.75658,-0.411725 4.24418,-1.546195 1.99869,-0.511944 -3.77884,5.374531 -0.3383,2.775921 1.39591,-0.672384 2.54833,-1.547274 1.8911,-2.695689 1.50424,0.83223 4.21146,-3.198366 2.65933,-0.122462 -0.69926,3.089255 4.25786,1.621304 4.90566,0.533751 -2.33887,1.010425 -0.71293,6.134719 0.65181,2.592949 1.93268,-2.039539 -1.96132,-4.955299 2.18337,-3.547125 1.84362,2.816107 4.71733,2.329862 3.99618,-1.601548 2.41857,1.235191 5.13136,1.377577 6.36185,-1.018977 1.68838,-0.0012 4.40163,2.659448 3.82765,-0.964783 0.49199,-1.671153 2.86177,2.025448 2.52192,-0.645247 2.24949,0.08478 6.55792,4.413831 7.19488,-0.122574 1.32575,2.127728 2.51942,-0.263574 3.46195,0.179547 -1.69992,3.648988 1.63144,0.337529 2.01281,-0.566024 0.7662,1.393019 -2.9513,4.12132 0.39518,4.007639 2.03734,-0.594039 4.21956,-8.1444928 3.43219,-2.963381 -0.91146,1.078371 -4.67393,6.358827 -1.25707,3.730171 2.08866,-2.152671 1.51968,-7.4496136 5.10699,-3.664267 3.12733,4.264764 4.08783,-6.2610675 7.79677,-1.491731 2.6751,2.205196 4.47587,-4.7717478 7.08279,-0.798423 1.2002,2.024705 3.26171,1.492106 3.73356,2.425013 -0.63601,1.104991 -2.77064,0.490408 -2.73606,2.706301 0.95707,-4.030036 -3.80362,-6.7525375 -4.84128,-1.672883 0.53579,2.463275 2.93712,-1.568986 2.16195,1.927765 -1.44537,0.04652 -4.4273,-0.09609 -3.83495,-2.325961 -2.24923,0.459512 -3.74593,2.687549 -2.78641,3.83601 -2.60579,-0.398429 -4.6018,-2.953182 -7.21382,-0.581336 -3.57743,0.113701 4.77243,-1.652727 0.84284,-3.073431 -2.78616,-3.285759 -7.65823,6.78469 -2.50678,5.269387 -0.79977,2.741551 -5.43607,-1.9965 -6.80275,-2.966952 -1.33427,-1.483161 -6.99548,2.73425 -2.32298,3.713568 -0.68263,1.997366 -4.91698,-2.685466 -7.05189,-2.230981 2.71456,-1.33767 -1.69642,-2.153832 -2.52603,-0.07311 -1.72408,-1.157497 -4.88895,0.0667 -1.5137,0.954668 3.08457,1.73453 -1.70374,0.291185 -2.70134,-0.400211 -1.75266,2.016175 -2.55441,1.442558 -0.5193,-0.415838 -2.16429,-2.005036 -2.82774,3.149333 -5.26388,3.194396 2.19329,-1.721411 1.69305,-5.336632 -1.23623,-4.433358 -1.45209,3.018883 -1.41887,6.005213 2.48563,6.78139 -0.0205,2.060685 -3.39935,-1.829925 -4.47531,-1.789501 -1.51709,2.550949 -2.66439,1.762166 -0.64842,-0.524881 -0.056,-1.874919 -3.84353,-2.781481 -4.26061,0.05008 -1.27384,1.757589 2.34924,3.4855 3.38809,4.507091 2.22172,2.356871 -3.24442,-0.847225 -3.83943,-2.494054 -0.78815,0.463433 -2.25084,3.290967 -1.50952,0.611086 0.3742,-4.200458 -2.63204,-1.570761 -2.85546,0.776902 -1.22751,-1.522167 2.11085,-4.653205 -1.07545,-5.795343 -1.14184,-0.118166 -4.49726,2.66768 -2.87453,3.636844 2.03265,2.224577 -3.40749,-1.575963 -3.49475,1.551947 -2.22113,1.538964 2.56199,-5.083322 -0.95784,-1.586066 -2.04229,2.025587 -2.60837,1.821351 -3.76412,-0.690945 -3.06794,0.383473 -2.64963,5.787393 -6.08831,2.227067 -2.11099,-1.830237 -4.87721,1.105132 -3.97828,2.742993 -1.9442,0.0746 -6.928,-5.221144 -6.47292,-0.848394 3.16387,0.547402 1.47481,1.868443 -0.5302,0.673682 -1.53889,0.310038 -2.57708,3.263868 -1.68404,-0.459282 -1.51574,-3.7534 -3.63245,0.996669 -4.15256,2.437491 -2.23809,-0.560738 -3.7949,-2.285875 -5.29835,0.192394 2.15376,-4.688738 -5.53778,-1.021362 -2.70626,1.139178 -2.08047,-0.29592 -3.27087,1.709335 -2.96702,-0.920599 -2.00366,-2.525366 -3.68709,-0.489016 -4.25792,1.184429 -1.48187,0.730127 -2.84325,2.034682 -1.79366,-0.498171 -1.32588,-2.382382 -3.61245,0.817968 -1.43072,1.733738 -1.64976,-2.375781 -6.26569,3.088129 -3.14497,-0.892487 -0.85936,-3.60422 -6.33498,-0.280203 -3.09504,1.248544 -2.0169,-0.736292 -3.25947,1.379212 -3.46751,-1.035073 -3.00174,-2.762537 -2.65471,4.834245 -5.65732,1.13124 -1.12775,1.19053 -2.36212,3.896496 -3.86219,1.268161 -1.90576,-0.131433 -4.56012,0.450118 -4.27201,2.08499 -1.07499,-0.87207 -5.71891,2.635866 -4.13902,0.256186 z m 5.96175,-2.553839 c 0.85579,-2.344883 -2.08048,2.201871 0,0 z m 4.40574,-2.154667 c -4.03555,-1.136542 -0.75734,4.559562 0.71391,0.572179 l -0.1952,-0.258575 -0.51871,-0.313579 z m 62.19436,-9.27266 c 1.16257,-3.406699 -2.38779,2.415721 0,0 z m 38.95558,-4.92348 c -3.37023,-1.405671 -1.25689,5.113022 0,0 z m -10.6562,-0.0304 c -0.55519,-3.279117 -4.85252,0.207095 -1.11191,0.757595 0.5172,0.245004 1.12044,-0.213145 1.11191,-0.757595 z m 4.55657,-0.809582 c -2.033,-1.311416 -1.8228,3.206137 0,2.4e-5 z m 3.99453,0.861014 c 1.64061,-2.661589 -5.89094,-1.995349 -1.17261,0.264519 0.36943,0.372662 0.9432,0.101153 1.17261,-0.264519 z m 22.38714,-1.932492 c 2.28355,-0.845633 1.33697,-3.247336 -0.70737,-2.345837 -1.35849,2.04348 -3.30983,6.119576 0.70737,2.345837 z m -28.08414,0.188634 c -0.72923,-2.398373 -1.31702,2.778135 0,0 z m 9.02456,0.369918 c 0.97221,-3.732243 -2.80002,2.36235 -1.2e-4,0 z m 1.84906,0.192372 c -0.22385,-1.397343 -2.2979,0.986523 -0.35753,0.297999 z m 14.87763,-1.898802 c 2.78496,-4.014574 -2.24149,0.713929 -1.38431,1.796093 0.54497,-0.530933 0.95763,-1.172557 1.38431,-1.796093 z m 6.89441,-1.078032 c 2.1956,-2.9581288 -3.70616,2.56081 -0.57381,0.72987 z m 31.42061,22.808754 c 0.99214,-1.508906 0.89689,1.451269 0,0 z m -116.47359,-1.250469 c -2.2319,-2.743124 0.6968,-1.507645 1.10795,-1.386748 0.62273,-1.656427 2.53852,1.14919 3.11466,-1.426481 1.39874,2.363474 -3.0439,5.271029 -4.22261,2.813229 z m 104.37494,-4.445938 c 0.65497,-2.125651 -0.54433,-3.784464 -1.55444,-1.158845 -1.78726,-1.713213 2.35986,-7.836503 -1.70165,-5.997479 -0.77998,4.196014 -1.78547,-0.292409 -0.59558,-2.021222 1.23964,-2.02357 -0.12517,-3.202228 -0.48,-4.145707 3.2938,-4.287297 1.88455,3.239042 1.26169,5.171181 0.79971,-0.921079 3.85354,-3.160604 2.8405,0.571913 -1.32653,3.453796 2.38723,3.141618 1.27027,6.637877 0.37681,1.851283 -1.45828,5.718136 -1.09216,1.559824 l 0.0487,-0.617542 z m 5.98455,-11.986228 c 1.01775,-2.316634 -3.47763,-0.734954 -0.65435,-2.704417 2.83918,-2.781758 0.9146,8.05173 0.65435,2.704417 z m -12.6753,0.512826 c 0.079,-1.903147 0.46886,-7.93045 -0.6391,-2.884831 -1.93555,1.25522 0.0706,-4.685308 -0.11979,-6.1880168 0.92491,-4.2289815 1.12359,0.4986328 1.5838,1.9477568 2.95814,-0.237871 -0.73221,4.715602 -0.0883,6.561701 0.0942,0.144677 -0.67209,1.410981 -0.73665,0.56339 z m 9.01394,-4.033485 c 1.08045,-2.982889 -0.004,-7.6242916 2.08633,-9.5500006 0.3389,2.9549465 -0.22968,8.7047656 -1.9739,10.2205156 l -0.11239,-0.670515 z m -15.26133,-2.796273 c -1.1853,-4.2549203 6.36667,0.728558 2.63534,-0.734646 -1.56832,-1.6905457 -1.85281,1.004278 -2.63534,0.734646 z"
       id="path4511"
       inkscape:connector-curvature="0" />
  </g>
</svg>
