<?xml version="1.0" encoding="UTF-8" standalone="no"?>
<!-- Created with Inkscape (http://www.inkscape.org/) -->

<svg
   xmlns:dc="http://purl.org/dc/elements/1.1/"
   xmlns:cc="http://creativecommons.org/ns#"
   xmlns:rdf="http://www.w3.org/1999/02/22-rdf-syntax-ns#"
   xmlns:svg="http://www.w3.org/2000/svg"
   xmlns="http://www.w3.org/2000/svg"
   xmlns:sodipodi="http://sodipodi.sourceforge.net/DTD/sodipodi-0.dtd"
   xmlns:inkscape="http://www.inkscape.org/namespaces/inkscape"
   width="300mm"
   height="300mm"
   viewBox="0 0 300 300"
   version="1.1"
   id="svg8"
   inkscape:version="0.92.1 r15371"
   sodipodi:docname="vanguard_1.svg">
  <defs
     id="defs2" />
  <sodipodi:namedview
     id="base"
     pagecolor="#ffffff"
     bordercolor="#666666"
     borderopacity="1.0"
     inkscape:pageopacity="0.0"
     inkscape:pageshadow="2"
     inkscape:zoom="0.49497475"
     inkscape:cx="550.24431"
     inkscape:cy="642.25032"
     inkscape:document-units="mm"
     inkscape:current-layer="layer1"
     showgrid="false"
     inkscape:window-width="2560"
     inkscape:window-height="1365"
     inkscape:window-x="-9"
     inkscape:window-y="-9"
     inkscape:window-maximized="1" />
  <metadata
     id="metadata5">
    <rdf:RDF>
      <cc:Work
         rdf:about="">
        <dc:format>image/svg+xml</dc:format>
        <dc:type
           rdf:resource="http://purl.org/dc/dcmitype/StillImage" />
        <dc:title></dc:title>
      </cc:Work>
    </rdf:RDF>
  </metadata>
  <g
     inkscape:label="Layer 1"
     inkscape:groupmode="layer"
     id="layer1"
     transform="translate(0,3)">
    <path
       inkscape:connector-curvature="0"
       id="path4498"
       d="m 241.97747,265.90508 c -2.18337,-1.40119 -3.73534,-3.54583 -5.55385,-5.35855 -3.08465,-3.45802 -6.09214,-6.98498 -9.26418,-10.36436 -2.17028,-2.43968 -4.1195,-5.06401 -6.22532,-7.55882 -3.2362,-4.10218 -6.41363,-8.26873 -10.07788,-12.00613 -1.93491,-2.13943 -3.60874,-4.49477 -5.42215,-6.73527 -2.20297,-2.96878 -4.4756,-5.88459 -6.89897,-8.67811 -3.45894,-4.0661 -7.00013,-8.06429 -10.33205,-12.23596 -2.03096,-2.22569 -4.18019,-4.34493 -6.08201,-6.68711 -1.64032,-1.81974 -3.3994,-3.53324 -4.93615,-5.44382 -1.24131,-0.43264 -1.49125,-1.78806 -2.35021,-2.62362 -0.30688,-0.53623 -0.73124,-0.49769 -1.22577,-0.23585 -1.12206,-0.0288 -2.29626,0.41444 -1.20369,1.56997 1.86245,3.77428 4.30141,7.21616 6.28975,10.92066 1.89369,3.5055 3.75289,7.03339 5.77613,10.46612 1.59142,2.50528 2.81,5.22698 4.48231,7.68464 1.6407,2.67615 3.1097,5.4532 4.78321,8.10952 3.00106,5.38331 6.98157,10.16014 9.82647,15.63561 1.22344,2.16046 2.72774,4.14827 3.82903,6.37996 1.04483,1.86953 1.95618,3.80833 2.99241,5.68191 0.55613,1.28145 1.1444,2.64102 1.08441,4.06286 -0.54748,1.0685 -2.05904,1.38594 -3.17218,1.48572 -2.04148,-1.24892 -2.67882,-3.73535 -3.83216,-5.6883 -2.30677,-3.94393 -4.35925,-8.04028 -6.91101,-11.83904 -2.04549,-3.47487 -4.05158,-6.97816 -5.90181,-10.56059 -3.11563,-4.87729 -6.11879,-9.82727 -9.09924,-14.78871 -1.54805,-2.72496 -3.35179,-5.29707 -4.81141,-8.07442 -2.24755,-4.00539 -4.4521,-8.03468 -6.81128,-11.97641 -1.30673,-2.39362 -2.77092,-4.69389 -4.17929,-7.02646 -0.57012,-1.24274 -1.14915,-2.4905 -2.1306,-3.47588 -1.17144,-1.41301 -1.94376,-3.08222 -2.79001,-4.69135 -0.83565,-0.88309 -2.36438,-0.96951 -3.26774,-1.97471 -0.47484,-1.15014 -1.06362,-2.33031 -0.7613,-3.62271 0.0207,-1.31399 0.77202,-2.41715 1.91561,-3.02416 1.00967,-0.83103 2.52753,-1.22309 3.69304,-0.42661 1.28726,0.39157 2.61707,0.9569 3.2516,2.27585 0.91124,0.75197 0.48918,3.35117 -0.7753,2.86281 0.23727,-1.16844 0.46247,-2.39428 -0.75178,-3.19357 -1.18082,-0.67315 -2.76598,-1.87455 -4.15569,-1.14018 -1.28589,0.58984 -2.40836,1.65463 -2.25727,3.19323 -0.15031,1.27951 0.55357,2.67705 1.78466,3.15552 0.82016,0.18234 -0.83269,-0.84363 -0.94867,-1.10754 -1.1968,-1.82102 0.1812,-4.85751 2.46581,-4.84806 1.43823,-0.0738 3.03668,0.6938 3.55353,2.09295 0.44524,0.80409 -0.84692,2.57889 -0.98476,0.97973 0.41258,-1.63056 -1.71027,-2.26652 -2.97563,-2.12723 -1.20274,0.40096 -1.59503,1.75092 -1.48823,2.90121 0.0977,0.65316 0.98955,0.98921 1.31978,1.57026 1.46154,2.02087 2.26371,4.44579 3.82869,6.40517 0.84911,1.04218 1.70746,2.10402 2.10388,3.41341 1.03284,2.11954 2.50508,3.99031 3.57794,6.09205 2.50885,4.33654 5.04745,8.65676 7.42142,13.06873 1.2977,2.32507 2.6924,4.59111 4.11853,6.83862 2.68949,4.64277 5.5237,9.2015 8.35534,13.75849 2.15557,3.13251 3.70943,6.61459 5.63433,9.8845 2.26701,4.02502 4.92128,7.82583 6.99614,11.96126 1.2983,2.12569 2.4254,4.3453 3.56685,6.55714 0.33579,0.84632 0.77119,1.20196 1.25901,0.28639 0.87429,-0.63679 2.77786,-0.66854 1.62362,-2.13438 -0.99446,-2.07473 -2.11564,-4.08889 -3.15862,-6.14081 -1.48279,-2.9171 -3.52017,-5.50599 -4.96368,-8.44423 -2.10314,-3.65939 -4.68893,-7.00748 -6.88843,-10.60672 -1.41541,-2.16869 -2.68348,-4.42947 -4.01613,-6.64933 -1.82988,-3.44405 -4.11565,-6.62231 -5.86495,-10.11032 -1.4072,-2.36715 -2.83628,-4.72162 -4.11945,-7.16055 -2.22353,-4.11258 -4.37758,-8.26945 -6.9378,-12.18822 -1.69109,-2.66099 -2.825,-5.63459 -4.6555,-8.21327 -1.31907,-2.00153 -2.71107,-3.96059 -3.7911,-6.10586 -0.44156,-0.48842 -1.1749,-2.36675 0.12794,-1.76433 1.2453,2.38148 2.61437,4.70034 4.17551,6.89256 0.79891,0.65385 1.02895,2.93868 2.35729,2.22502 1.11055,-0.45654 2.55383,-0.80339 3.35499,0.40415 0.8969,1.00492 1.67468,2.09579 2.66939,3.01604 2.04609,2.49892 4.39621,4.72678 6.46251,7.20913 1.99397,2.18546 4.13285,4.24342 5.90903,6.61873 4.26655,5.21846 8.87032,10.15825 13.02219,15.47025 2.12869,2.98488 4.46024,5.81461 6.72335,8.69556 2.42923,2.74997 4.98408,5.39228 7.26024,8.27609 2.29423,2.88374 4.51704,5.82385 6.9077,8.63025 2.44652,3.31003 5.41637,6.17356 8.08961,9.29235 1.99837,2.25938 3.96343,4.54803 6.04551,6.73214 1.10105,1.22473 2.21336,2.47759 3.58072,3.41144 1.69334,0.58207 0.73733,-1.89211 0.11273,-2.50933 -4.80677,-5.8446 -10.22687,-11.15718 -14.89616,-17.11792 -2.48499,-2.8173 -5.13046,-5.4965 -7.43991,-8.46673 -2.76723,-3.55228 -5.66218,-7.00232 -8.38042,-10.59296 -2.8038,-3.6414 -5.98709,-6.95838 -9.08114,-10.34795 -2.60607,-2.81472 -4.90494,-5.88798 -7.37105,-8.82041 -1.58598,-1.7843 -3.23042,-3.52185 -4.57736,-5.50132 -1.67678,-2.2813 -3.42749,-4.50503 -5.32396,-6.60889 -1.3892,-1.59361 -2.54943,-3.38533 -4.03052,-4.89355 0.0551,-1.50109 1.76358,0.53714 2.13206,1.10486 1.83476,2.49848 3.97693,4.74469 5.88609,7.18204 1.98435,2.64258 3.90681,5.34066 6.20307,7.72842 2.55692,2.97102 4.86542,6.15076 7.54572,9.01779 3.74726,4.04487 7.50421,8.09738 10.79488,12.53132 2.2881,2.98586 4.73508,5.8451 7.02622,8.82876 2.47677,3.14908 5.33156,5.96933 7.92418,9.01703 3.9547,5.15748 8.64017,9.68789 12.81135,14.66282 1.07793,1.25288 2.41849,2.5444 2.58804,4.26775 0.0616,1.20645 -1.10009,1.9936 -2.17021,1.38182 z m -31.97308,-7.59838 c -0.0809,-0.69795 -1.5035,0.12034 -0.36346,0.22776 0.154,0.0984 0.41274,-0.0237 0.36346,-0.22776 z M 2.6680496,264.10989 c -1.621922,-0.60841 -1.129349,-2.41371 0.04,-3.19986 2.695291,-2.39813 5.856402,-4.18513 8.7431944,-6.33441 3.965266,-2.85889 8.20486,-5.31871 12.083529,-8.30176 1.653467,-1.20512 3.411876,-2.24861 5.120565,-3.36712 2.507619,-1.78919 4.727623,-3.94224 7.249164,-5.71446 1.906845,-1.59508 3.93428,-3.03198 6.070278,-4.30254 1.697015,-1.21872 3.414061,-2.41478 5.060368,-3.70072 2.175444,-1.98428 4.784375,-3.3989 7.045613,-5.27673 2.790191,-2.01218 5.573957,-4.03321 8.428162,-5.95447 3.216577,-2.34077 5.915695,-5.3247 9.266656,-7.49399 2.334162,-1.58936 4.73089,-3.0926 6.901647,-4.90745 2.742082,-1.86899 5.722285,-3.3555 8.543803,-5.09632 3.982143,-2.92844 8.126758,-5.6269 12.252053,-8.34739 1.598448,-1.21429 3.267558,-2.33612 4.840478,-3.58148 1.97152,-1.74414 3.88727,-3.5594 5.70585,-5.46183 0.18742,-1.39563 1.84746,-1.40826 2.71833,-2.32291 0.21878,-0.61106 1.30512,-0.72815 1.24818,-1.41653 -0.0703,-3.17122 -0.10696,-6.37816 -0.92048,-9.46477 -0.24256,-1.6446 -1.17397,-3.07068 -1.44828,-4.70949 -0.87043,-2.79771 -1.07185,-5.73733 -1.26162,-8.64383 0.068,-0.84134 -0.76098,-1.38189 -0.0374,-2.14987 0.005,-1.68469 0.20932,-3.35336 0.55486,-5.00181 0.28713,-1.55755 0.41344,-3.14622 0.60005,-4.70859 -0.94861,-1.00502 -2.23911,-1.61373 -3.37201,-2.38259 -1.40828,0.26843 -2.29211,-1.13799 -1.186,-2.21991 0.60735,-1.06062 1.38465,-1.99521 2.09913,-2.97916 1.01572,-1.6165 1.81098,-3.37459 3.02395,-4.8612 0.70273,-1.47429 1.83447,-2.73141 2.36259,-4.2844 0.33759,-1.4238 1.76316,-2.21009 2.34762,-3.5242 0.73873,-0.58266 -0.10581,-1.36543 0.60526,-1.91284 -3.64505,-4.46267 -7.88401,-8.40294 -11.54309,-12.85652 -2.94347,-3.37933 -6.152288,-6.50918 -9.357197,-9.636238 C 93.038171,96.61397 90.304688,92.638229 87.107859,89.063409 83.114275,84.335579 78.662264,80.023799 74.534526,75.415944 70.571824,71.236463 66.80199,66.880106 63.158977,62.420112 60.178239,58.877693 56.925354,55.572835 54.02369,51.962816 c -1.728728,-1.778763 -3.200225,-3.77293 -4.717456,-5.72864 -1.976191,-2.352639 -3.818623,-4.854521 -6.199701,-6.824939 -0.364702,-1.141791 -1.361384,-2.059327 -1.502507,-3.306808 0.0625,-0.869028 0.746494,-1.656416 1.388591,-2.139051 1.057484,0.01337 2.172805,0.144358 2.933175,0.976789 2.911187,2.670763 5.187027,5.936046 7.895618,8.800876 3.435485,3.737294 6.690546,7.632634 9.907503,11.557457 2.978739,3.236197 5.869072,6.552439 8.843648,9.792158 2.722328,2.889243 5.617797,5.637137 7.934983,8.879334 1.947755,2.517714 3.988535,4.964414 6.19823,7.256253 2.780534,3.246031 6.13689,5.931956 8.986717,9.115092 2.765992,2.996333 5.226839,6.258621 8.035319,9.218607 3.38205,3.686376 6.5058,7.597376 9.8166,11.346096 2.18782,2.65028 4.55764,5.14341 6.7711,7.77261 1.3583,1.43927 2.54735,3.07262 4.12129,4.28795 1.11203,0.73868 2.54124,0.50631 3.7897,0.38703 1.03649,-0.83288 -0.41594,-2.29743 -0.74588,-3.30549 -3.09484,-5.63117 -6.40716,-11.16021 -10.23344,-16.33035 -2.33575,-3.29822 -3.58562,-7.185965 -5.64895,-10.639111 -1.73589,-2.952067 -3.55654,-5.853956 -5.1969,-8.861726 -1.41916,-2.707449 -2.98259,-5.33402 -4.45701,-8.01014 -0.9697,-1.976186 -2.46457,-3.684522 -3.197195,-5.773589 -0.366829,-1.164551 -0.47633,-3.374589 1.14748,-3.499748 1.557325,0.06487 2.291975,1.652227 2.904535,2.854813 1.3602,2.038226 2.28395,4.365092 3.97436,6.176332 1.81275,2.732724 3.00362,5.822184 4.75006,8.597248 2.09644,3.853016 4.34198,7.622189 6.78046,11.269049 2.43644,3.72021 4.44853,7.690722 6.67061,11.537072 1.74771,3.34261 3.57876,6.64215 5.40366,9.94258 0.45998,1.23735 2.04892,1.08469 2.96374,0.48073 0.11457,-0.76073 0.027,-1.63635 0.0639,-2.44124 -0.002,-2.459 0.0874,-4.92316 0.005,-7.378 -0.52806,-1.10079 -1.48109,-2.2536 -1.18543,-3.55437 0.18027,-0.76861 0.75521,-1.39966 1.01502,-2.10989 -0.33531,-2.760201 -0.96661,-5.491538 -0.9185,-8.287126 0.27138,-1.659111 -2.05467,-1.697302 -1.99955,-3.304786 -0.33657,-1.498702 1.15689,-2.428467 2.45966,-2.366515 0.17405,-1.117882 -0.0558,-2.381784 -0.20194,-3.505845 -1.59151,-0.553555 -3.4197,-0.572961 -4.82566,-1.592886 -0.69053,-1.217626 0.22246,-2.804623 1.66443,-2.863429 6.0636,-1.87653 12.46748,-2.052113 18.7546,-2.446552 6.10662,-0.162177 12.23316,0.293949 18.25685,1.296848 1.0993,0.391033 3.01349,0.486842 3.20466,1.8324 -0.19226,1.279696 -1.11749,2.276953 -2.33582,2.667189 -1.06366,0.389909 -2.5453,0.826855 -2.75061,2.085386 -0.24703,0.847082 0.0968,1.053795 0.90741,1.095288 1.28083,0.903838 0.85264,2.764485 0.7957,4.110002 -0.039,1.466754 -1.1334,2.713586 -2.60084,2.759786 0.23514,1.87385 -0.15514,3.836068 0.0553,5.735914 0.16206,1.048296 0.14224,2.032176 1.26563,2.502306 1.01242,0.83702 0.87412,2.39739 0.43153,3.4993 -0.65648,1.04054 -2.13659,1.89504 -1.21355,3.295 0.22684,2.54253 0.0233,5.11375 0.30231,7.65561 0.96657,0.70915 2.63646,0.44783 3.71838,1.28486 0.99937,0.81377 2.46528,0.9116 3.28465,1.91279 0.82869,0.83459 0.46132,3.11356 2.01834,2.87987 1.51645,-0.0533 3.08622,-0.2658 4.57182,0.0678 0.86986,1.23536 1.32112,2.73749 2.07474,4.05405 0.14063,0.86824 1.91268,2.5186 0.66575,2.94684 -0.87007,-0.83856 -1.18126,-2.14723 -1.78951,-3.19413 -0.72513,-0.99771 -0.73161,-2.89947 -2.18351,-3.04452 -1.5185,-0.098 -3.04666,0.13417 -4.56036,-0.0184 -1.02152,-0.86631 -0.81313,-2.60547 -1.82716,-3.51917 -1.64201,-0.50037 -2.94909,-1.75823 -4.67498,-2.04964 -0.94612,-0.11872 -2.59922,0.36359 -2.26175,-1.20265 -0.0795,-2.63058 -0.0161,-5.28341 -0.36347,-7.89418 -0.70374,-1.35474 0.40552,-2.44313 1.28886,-3.31513 0.89162,-1.21599 0.33342,-2.98077 -1.11385,-3.43492 -0.49513,-1.27325 -0.60357,-2.770821 -0.55945,-4.165671 -0.0406,-1.258218 0.31099,-2.601302 -0.25028,-3.775517 0.0558,-0.86196 0.40548,-1.693868 1.47541,-1.227916 1.59257,-0.271242 1.42133,-2.388761 1.47726,-3.643018 0.17267,-1.008862 -0.48651,-1.851914 -1.3853,-1.057619 -1.27508,-0.78403 -0.28277,-2.37001 -0.24789,-3.529973 0.76617,-0.964451 2.15276,-1.207192 3.25646,-1.675481 0.88427,-0.142675 2.50383,-2.166368 0.71771,-1.90728 -0.75494,-1.136572 -2.37199,-0.884903 -3.5632,-1.195087 -4.57065,-0.670263 -9.18645,-1.025346 -13.80744,-0.947 -3.80342,-0.03476 -7.59358,0.329784 -11.38227,0.612526 -3.40264,0.383341 -6.82402,0.904445 -10.07445,2.012875 -0.50532,0.447929 -0.73993,1.685954 0.36581,1.636266 1.29472,0.432976 2.71757,0.517537 3.93461,1.147348 0.57045,1.011249 0.32401,2.296789 0.41747,3.425146 0.2764,1.205392 -0.43068,1.897537 -1.63278,1.701003 -1.6608,0.25368 -0.70207,2.560127 0.61397,2.65182 0.39481,0.561707 0.9339,1.302572 1.00096,1.976286 -1.00379,1.005354 -0.23774,2.588749 -0.23115,3.833103 0.33757,1.481981 0.30783,3.037609 0.77919,4.486059 0.91504,1.2152 -1.28186,0.97019 -1.13533,2.27698 -0.14501,1.01609 0.48872,2.13201 1.25477,2.78569 -0.10973,3.38446 -0.15307,6.77945 0.0138,10.15971 -0.27537,1.49099 -1.966,1.62062 -3.19049,1.55718 -0.71899,0.16391 -1.58452,0.1397 -1.30839,-0.85236 -2.37423,-4.29551 -4.67512,-8.64126 -7.06053,-12.93397 -2.09493,-3.71215 -4.12715,-7.466304 -6.54261,-10.984789 -2.54835,-3.792179 -4.6245,-7.870725 -6.9386,-11.804014 -1.33299,-2.515632 -2.40899,-5.219619 -4.33986,-7.360927 -1.20888,-1.635677 -1.96974,-3.542979 -3.11958,-5.217507 -0.0731,-1.027651 -2.202743,-3.220378 -2.430757,-1.26153 -0.247615,2.021008 1.330737,3.604751 2.222587,5.25986 1.67277,3.101141 3.52748,6.099879 5.15755,9.224926 1.66998,3.088805 3.48755,6.091593 5.29638,9.099534 1.43064,2.39157 2.58894,4.924315 3.76565,7.444784 1.38065,2.926603 3.558,5.348253 5.27093,8.069453 2.58698,3.97955 5.04152,8.04971 7.29343,12.2281 0.41827,1.10258 1.52926,2.23061 0.98597,3.4683 -0.71867,1.17611 -2.38183,0.86849 -3.55986,0.9016 -0.69032,-0.16506 -1.78582,-0.46394 -0.8155,0.47286 0.75863,0.99264 1.3759,2.11838 2.45959,2.8111 0.74853,0.31133 2.26268,2.12553 0.72825,1.98399 -1.00428,-1.17199 -2.49385,-1.86125 -3.27157,-3.24319 -0.59211,-1.16657 -1.7694,-2.05339 -2.21799,-3.22073 -0.43356,-1.29345 -1.6869,-2.14888 -2.48306,-3.23248 -2.29757,-2.65197 -4.64195,-5.26245 -6.95591,-7.89922 -2.52022,-3.0254 -5.11497,-5.98841 -7.66401,-8.9899 -2.96099,-3.295024 -5.931092,-6.583205 -8.734059,-10.015465 -2.874609,-3.424114 -6.22664,-6.393316 -9.392747,-9.53708 C 84.949641,80.665246 82.346624,77.84217 80.03391,74.778077 78.051726,72.119337 75.815807,69.6692 73.470448,67.32889 70.043495,63.758595 66.884235,59.943907 63.48861,56.344342 61.027669,53.439725 58.666237,50.44949 56.079625,47.652466 c -2.75229,-3.180248 -5.568019,-6.305053 -8.267319,-9.531012 -1.102359,-1.15325 -2.100262,-2.538213 -3.581547,-3.213812 -1.704982,-0.258832 -2.134759,1.68686 -1.049526,2.695238 0.783315,0.991013 1.405957,2.069269 2.392184,2.886105 1.756973,1.893502 3.373261,3.912532 4.987331,5.927351 1.323312,1.674999 2.559613,3.423205 4.077533,4.933714 2.372631,2.881015 4.883012,5.643125 7.384386,8.41229 2.646066,3.027424 5.121033,6.199126 7.804851,9.194855 3.09017,3.441652 6.254154,6.816494 9.376285,10.229056 4.740009,4.873621 9.29819,9.927688 13.497778,15.277465 3.370035,4.271314 7.532789,7.814084 11.219629,11.797364 2.70194,2.80394 5.04295,5.93138 7.81431,8.67222 2.51183,2.67154 5.08005,5.32279 7.26307,8.2694 1.79755,1.67639 3.99356,3.07379 5.19824,5.27832 -0.97016,1.23096 -1.70212,-1.26273 -2.61375,-1.71924 -0.99614,-0.9656 -2.01082,-1.94155 -3.17532,-2.69904 -1.08291,0.50068 -1.40952,1.96404 -2.32383,2.73461 -0.97039,0.82622 -0.84952,2.22844 -1.67818,3.16227 -0.91129,1.26016 -1.48289,2.72961 -2.50365,3.91375 -1.13905,1.69035 -1.84025,3.68974 -3.29127,5.15049 -0.25875,0.80317 -2.00819,2.06587 -0.34296,2.35044 1.32213,0.61231 2.40442,1.66866 3.71653,2.28464 0.43388,-0.9727 0.49827,-2.12429 1.00573,-3.09622 0.93328,-2.12779 2.28116,-4.04075 3.55834,-5.96687 1.30655,-1.72918 3.18459,-3.11979 3.95359,-5.19778 -0.34824,-1.12738 0.872,-1.45324 1.19889,-0.37685 -0.23452,1.2787 -1.19504,2.2952 -1.93022,3.33097 -1.21842,1.4934 -2.67426,2.80739 -3.58308,4.53231 -1.417,2.05427 -2.64222,4.28329 -3.12986,6.75553 -0.29943,1.33306 -1.11512,2.42566 -0.95985,3.84503 -0.2949,2.28271 -1.03139,4.53086 -0.85294,6.85503 1.09474,-0.22822 2.46203,-1.04333 3.80687,-0.90012 2.15011,-0.0609 4.30393,-0.1593 6.40799,-0.63892 3.41447,-0.56371 6.80999,-1.2639 10.26538,-1.54081 2.85273,-0.37978 5.72391,-0.61577 8.60069,-0.69957 0.0115,-3.68935 -0.15169,-7.38165 0.009,-11.0683 0.32397,-3.68694 0.1397,-7.39648 0.154,-11.09323 -0.0936,-1.54428 0.11526,-3.13758 -0.26456,-4.64654 -0.46855,-0.52501 -0.70355,-2.2449 0.37846,-1.38073 0.61351,0.68002 0.47245,1.83218 1.52062,1.95971 0.39833,0.87516 1.63289,2.33861 0.92147,3.16148 -0.88701,0.19227 -1.47414,-3.03142 -1.5859,-1.14582 -0.0284,0.88364 -0.0115,1.76791 -0.0161,2.65185 1.17768,0.47374 1.93433,1.66431 2.41203,2.78927 -0.41825,1.62125 -1.34332,-0.68718 -1.82503,-1.1473 -0.94326,-0.67898 -0.40769,1.35621 -0.48229,1.96441 -0.18028,0.94564 0.33998,0.47086 0.90091,0.75577 0.39575,0.60789 1.95139,2.54948 0.56507,2.60381 -0.46115,-0.35886 -1.05276,-1.90779 -1.44187,-1.72351 -0.0498,1.29805 -0.0998,2.59611 -0.14961,3.89416 0.84083,0.76563 1.49618,1.75172 1.93712,2.79314 -0.7126,1.36137 -1.54845,-1.45609 -2.07237,-1.15449 -0.12956,3.50924 -0.0934,7.03217 0.11572,10.53756 0.56298,0.35315 1.57978,-0.0161 2.33801,-0.002 0.67299,0.14962 0.61291,-0.37493 0.57651,-0.87765 0.0161,-2.864 -0.009,-5.72847 -0.19272,-8.58679 -0.0864,-4.6075 0.11641,-9.21476 0.4241,-13.81016 0.0908,-1.30906 -0.1941,-2.65381 0.0825,-3.9392 1.16468,-0.51461 0.71225,1.71507 0.86772,2.42202 0.0641,2.86172 -0.32406,5.7104 -0.33095,8.57293 -0.10582,2.03839 -0.21071,4.0742 -0.0726,6.11501 0.11711,3.34418 0.17474,6.68998 0.2332,10.03558 4.23922,0.28037 8.47239,0.69376 12.72538,0.69968 3.77085,0.0678 7.56011,-0.0811 11.30292,0.48651 4.87227,0.50865 9.78788,0.18489 14.66584,0.56971 1.3308,0.26862 2.67597,0.50014 4.02258,0.65146 0.14524,-1.32848 -0.25028,-2.69609 -0.43102,-4.02491 -0.41933,-2.49286 -1.06816,-4.94065 -1.79705,-7.356 -0.59329,-1.42015 -1.3317,-2.77419 -1.91434,-4.20143 -0.28576,-1.09008 -1.89666,-2.18941 -0.77234,-3.28403 0.94167,-0.72995 -1.15272,-1.68501 0.30739,-2.33266 2.11439,-1.62863 3.98104,-3.5538 6.14433,-5.12498 3.37544,-2.45721 6.62155,-5.09191 10.07205,-7.44804 4.5338,-3.2292 9.05735,-6.48208 13.31272,-10.07619 2.10296,-1.67854 4.12005,-3.46599 6.34556,-4.98705 3.11358,-2.32716 6.20372,-4.684972 9.30105,-7.0343 2.68544,-1.893092 5.15605,-4.067895 7.82242,-5.988533 3.28256,-2.38373 6.383,-4.998839 9.46846,-7.628655 2.79549,-2.337147 5.7528,-4.470589 8.69219,-6.620334 2.11603,-1.408135 4.14416,-2.936939 6.1361,-4.511872 4.23884,-3.029557 8.33328,-6.262559 12.72967,-9.067818 3.64437,-2.517375 7.31879,-5.046042 10.47887,-8.170542 1.31233,-1.253619 3.11065,-1.858699 4.31346,-3.248911 1.63644,-1.614353 3.55223,-2.906147 5.3541,-4.322349 1.17257,-0.836816 2.4237,-1.560055 3.57335,-2.429124 -0.63857,-0.70487 -1.80701,-1.592453 -1.10802,-2.618354 0.5775,-0.03137 0.75157,0.860597 1.44441,0.418547 1.11945,0.659387 0.63584,2.272387 0.0138,3.02224 -3.15086,2.166041 -6.37763,4.274185 -9.09205,6.993428 -1.30104,1.256152 -3.07632,1.862155 -4.31413,3.195919 -3.01166,2.989989 -6.56433,5.347372 -10.01698,7.787003 -4.09513,2.648665 -7.99781,5.573391 -11.91389,8.475568 -2.13484,1.44547 -4.02917,3.215553 -6.22592,4.576428 -2.62075,1.803496 -5.11872,3.776068 -7.66509,5.681078 -3.29309,2.605361 -6.34521,5.506435 -9.75449,7.967448 -2.75923,2.049568 -5.46655,4.166594 -8.16861,6.289395 -4.26817,3.121976 -8.40307,6.423478 -12.70145,9.505728 -3.56565,2.86743 -7.03817,5.85516 -10.72621,8.5687 -4.49104,3.39135 -9.18716,6.50136 -13.6234,9.96686 -3.23245,2.36667 -6.41362,4.82939 -9.30172,7.60815 0.85444,0.74364 0.27662,1.56214 -0.31548,2.23893 -0.21831,0.53819 0.63059,1.11927 0.75271,1.69536 0.726,1.56265 1.39797,3.15114 2.13087,4.71152 0.70466,2.18494 1.29141,4.41647 1.70574,6.67889 0.9957,4.29933 0.996,8.7862 0.22753,13.12101 -0.22822,1.19013 -0.684,2.6475 0.83291,3.08841 1.09988,0.68017 0.99395,3.00486 -0.42441,3.09045 -0.49732,-0.62655 1.14972,-2.06658 -0.37599,-2.44359 -1.11842,-0.68225 -2.39724,-1.10873 -3.74081,-1.00501 -1.39046,-0.0553 -3.13269,0.0636 -3.09889,1.84084 -0.65254,1.41663 -1.17275,2.90136 -1.61486,4.3895 0.56993,0.56341 1.14976,2.83065 -0.065,2.75324 -0.47259,-0.35905 -0.20264,-2.35855 -0.83173,-0.87772 -0.4884,0.90515 -1.6035,1.76205 -0.63643,2.58175 0.3908,0.76768 -0.59409,2.02898 -0.88143,0.72241 0.005,-0.86679 -0.2545,-0.56777 -0.58771,-0.005 -0.50258,0.705 -1.00769,1.4083 -1.5265,2.10151 0.92208,0.38669 0.43992,2.85451 -0.43515,1.81551 0.0779,-0.9182 -0.29772,-1.14557 -0.83161,-0.33046 -0.35896,0.5715 -1.96485,1.59766 -0.59956,1.78997 0.57135,0.91582 -1.08132,2.1285 -0.90667,0.58386 0.12126,-1.30964 -1.83892,2.30334 -1.90056,0.3507 1.75664,-2.52529 4.03139,-4.64743 5.68021,-7.2561 1.14393,-1.75602 2.28547,-3.53744 2.91631,-5.5545 0.29294,-1.37908 1.27163,-2.61953 1.35137,-3.99891 -0.18189,-1.37642 1.71332,-1.66606 2.7522,-1.80175 1.2163,-0.19226 2.44341,0.0362 3.65433,0.0244 0.59194,-2.07959 0.66538,-4.2811 0.87369,-6.4271 0.3315,-1.28899 -0.0523,-2.92847 -1.70864,-2.73549 -1.50909,-0.15008 -2.97584,-0.60978 -4.50706,-0.54675 -5.28192,-0.14316 -10.58415,-0.0671 -15.83221,-0.77723 -5.5847,-0.2273 -11.18998,-0.0115 -16.76105,-0.56378 -1.32885,-0.11711 -2.66228,-0.15999 -3.99566,-0.17774 0.11526,3.53695 0.3942,7.06968 0.6613,10.59784 0.28385,1.9308 0.68836,3.84528 0.77441,5.80126 0.39011,3.53519 1.11392,7.02581 1.43641,10.5696 0.45343,3.48148 1.87744,6.724 2.68381,10.11844 0.30902,1.79907 0.66199,3.61357 1.34516,5.31198 1.24855,-0.089 2.66483,-0.26205 3.95866,-0.49924 1.61048,-0.31098 3.26105,-0.48755 4.78342,-1.1431 1.23532,-0.28821 2.39094,-0.82929 3.64548,-1.02081 0.37438,-0.54479 2.16949,-1.53727 1.81439,-0.25342 -0.87267,0.8513 -1.92078,1.31959 -3.13383,1.46331 -2.23109,0.83398 -4.53834,1.45909 -6.89659,1.80166 -1.74495,0.3332 -3.52642,0.43491 -5.26157,0.83089 -1.33536,0.22823 -2.46842,-0.31312 -3.82382,-3.6e-4 -2.06068,-0.0606 -4.03742,-0.75951 -6.10136,-0.82447 -1.369,-0.24888 -2.59802,-1.00066 -3.99628,-1.14659 -2.34082,-0.79449 -4.42043,-2.20061 -6.74085,-3.05405 -1.43016,-0.60293 -2.73023,-1.62766 -4.33525,-1.68933 -1.52467,-0.23451 -2.75217,-1.34936 -4.26694,-1.56036 -1.35874,0.0138 -2.72576,-0.18903 -3.85623,-1.00082 -1.27361,-0.0406 -1.86441,-1.77895 -3.15542,-0.77845 -1.76639,1.27418 -3.39497,2.74406 -5.12595,4.0724 -2.15845,1.73768 -4.448,3.30372 -6.58867,5.06582 -3.22667,2.41749 -6.54769,4.70972 -9.880055,6.97917 -2.522772,1.55859 -4.845726,3.39815 -7.223886,5.16119 -4.934496,3.52761 -9.643298,7.37578 -14.7809,10.61368 -3.592282,2.51642 -7.2833,4.89286 -10.75192,7.58265 -2.350361,1.72356 -4.741883,3.38953 -7.025905,5.20103 -1.509289,1.04333 -2.97127,2.21408 -4.643249,2.97805 -1.234641,0.47713 -2.208853,1.47855 -3.302087,2.2186 -3.252853,2.44576 -6.497948,4.9032 -9.653951,7.47269 -2.539889,1.75205 -5.134708,3.42758 -7.641481,5.2295 -2.26179,1.47234 -4.462249,3.03536 -6.532777,4.76767 -3.118721,2.21772 -6.238745,4.44699 -9.491309,6.46565 -2.7222964,1.45582 -5.1608994,3.35547 -7.6724934,5.13196 -0.533722,0.35049 -1.260488,0.51334 -1.880474,0.33959 z m 1.682217,-1.2582 c 2.50965,-1.87181 5.069231,-3.68491 7.8137014,-5.20191 2.994532,-1.89481 5.88141,-3.95755 8.778489,-5.99587 1.950092,-1.5522 3.896786,-3.11081 6.015216,-4.43389 2.630072,-1.79548 5.20715,-3.66851 7.892906,-5.38137 2.764054,-2.07419 5.409594,-4.30593 8.190661,-6.36057 1.923619,-1.37322 3.708341,-2.98008 5.815793,-4.07203 1.617078,-0.63027 2.944674,-1.8393 4.378492,-2.79912 3.398928,-2.64675 6.946661,-5.09528 10.385535,-7.69079 2.488739,-1.70938 4.983688,-3.41069 7.460599,-5.13717 2.33764,-1.45962 4.608277,-3.01853 6.788952,-4.70573 3.161642,-2.35083 6.320173,-4.70482 9.495992,-7.03683 3.239609,-2.54982 6.823369,-4.61101 10.118938,-7.08487 2.925729,-1.98184 5.765349,-4.08775 8.495439,-6.33081 2.21309,-1.51967 4.26856,-3.25342 6.35864,-4.93419 1.16099,-0.96135 2.48398,-2.46429 4.15898,-1.91326 1.01671,0.34236 1.81443,1.05009 2.77422,1.51145 0.59027,0.49684 1.40335,0.27202 2.11306,0.3821 0.64569,0.0284 1.30512,0.002 1.85917,0.39006 1.36207,0.67349 2.75845,1.35229 4.30236,1.43108 1.68134,0.66012 3.21964,1.68282 4.92948,2.2825 2.06829,0.93217 4.01763,2.23372 6.29969,2.58219 1.32147,0.51581 2.67834,0.93175 4.10548,1.00374 0.93609,-0.0869 2.41768,0.77205 3.00528,0.23413 -0.43762,-1.72249 -1.32453,-3.30695 -1.64721,-5.06896 -0.24182,-1.4589 -0.541,-2.91601 -0.66602,-4.39018 0.1344,-2.06785 -0.7619,-3.98519 -0.98519,-6.00491 -0.1344,-2.31823 -0.22039,-4.64563 -0.70321,-6.92458 -0.31391,-3.6698 -0.62994,-7.34078 -1.07411,-10.99758 -0.33117,-2.87886 -0.25614,-5.77975 -0.46783,-8.66465 -4.06505,0.0613 -8.09529,0.62919 -12.12926,1.08179 -3.13875,0.4819 -6.25198,1.13962 -9.39664,1.58053 -1.90514,0.25953 -3.89697,-0.0668 -5.74517,0.53591 -0.5816,0.30864 -1.3977,0.49401 -1.86577,0.89195 -0.0293,1.517 0.11296,3.0553 0.54488,4.50287 -0.31145,1.7055 0.40974,3.39637 0.77751,5.04675 0.34997,1.58914 1.20433,3.01127 1.42469,4.63704 0.63869,2.45403 0.76804,4.99728 0.91735,7.51656 -0.13163,1.14153 0.41638,2.73613 -0.74807,3.45024 -1.01345,0.80681 -2.18998,1.44515 -3.06286,2.41289 -0.82984,1.13052 -1.98127,1.96254 -2.91528,3.00168 -1.75382,1.52542 -3.28846,3.31174 -5.28178,4.54492 -1.64465,1.19209 -3.215478,2.48707 -4.988464,3.49301 -3.499208,2.26749 -6.959676,4.59842 -10.327245,7.0555 -2.879731,1.77139 -5.942371,3.25856 -8.704002,5.214 -2.75593,2.38712 -6.022474,4.06941 -8.866611,6.34088 -2.533628,1.94886 -4.713577,4.34249 -7.395592,6.10429 -2.052678,1.51385 -4.211188,2.87842 -6.246883,4.41668 -2.188969,1.52101 -4.249499,3.21904 -6.480545,4.68201 -1.72232,1.25491 -3.250234,2.75879 -5.066041,3.89037 -2.488681,1.94606 -5.330721,3.39227 -7.729689,5.46203 -2.156504,1.58653 -4.229082,3.27913 -6.273744,5.00591 -1.44888,1.21692 -3.092331,2.15207 -4.68749,3.15252 -2.664391,1.78547 -5.159126,3.81238 -7.886304,5.50858 -4.227454,2.66434 -8.2132974,5.68483 -12.3691464,8.45389 -1.135322,0.86649 -2.350725,1.68708 -3.247933,2.81152 0.0099,0.97477 1.138826,1.14451 1.756586,0.5177 z M 133.8509,188.39766 c -1.82644,-0.32036 -3.64703,-0.75281 -5.35839,-1.46593 -2.14907,-0.51524 -4.28629,-1.06595 -6.41428,-1.65461 -1.68368,-0.16367 -3.29529,-0.88834 -4.68056,-1.83637 -0.96085,-1.06053 -0.7083,-2.61855 -1.25491,-3.87542 0.35626,-1.89991 0.023,-3.87811 -0.22016,-5.78565 -0.33318,-1.97089 -0.40267,-4.02408 -1.19052,-5.88049 0.51048,-1.1135 2.09247,0.13786 2.99691,0.20494 2.80674,0.78392 5.76541,0.55461 8.60555,1.10249 1.91594,0.53503 3.83849,1.04402 5.67657,1.81694 1.13337,0.58013 2.69602,0.35822 3.46562,1.53224 0.65471,1.17888 0.67094,2.60077 0.97344,3.89547 0.48888,2.66252 0.78852,5.36565 0.60449,8.07428 0.0383,1.43479 -0.18557,3.29231 -1.73616,3.86986 -0.47884,0.17036 -0.981,0.074 -1.46758,0.002 z m 1.55172,-1.13003 c 1.01313,-1.14112 0.57867,-2.77659 0.70664,-4.16586 0.11964,-1.25117 -0.32134,-2.4008 -0.1593,-3.61931 -0.3261,-2.08461 -0.5561,-4.21088 -1.1831,-6.22871 -0.8176,-1.14467 -2.51402,-0.65712 -3.57888,-1.51686 -1.94832,-0.76402 -3.97214,-1.34876 -6.01833,-1.77215 -2.79408,-0.22108 -5.6243,-0.32198 -8.33602,-1.10629 -1.38071,-0.46449 -0.16437,1.74947 -0.28616,2.55012 0.4316,2.5954 0.72221,5.20919 0.80979,7.83942 0.19433,1.16832 -0.0207,2.59643 0.79371,3.53771 1.19613,0.84652 2.61859,1.32907 4.06719,1.47439 2.15667,0.6965 4.35839,1.22928 6.5656,1.74585 1.53265,0.55376 3.07651,1.09103 4.69495,1.35015 0.613,0.0747 1.38675,0.35713 1.92386,-0.0885 z m -2.84993,-1.04824 c -1.74758,-0.35018 -3.55025,-0.6056 -5.17564,-1.37652 -0.71488,-1.04001 -0.3017,-2.46358 -0.62642,-3.65511 -0.48845,-2.81318 -1.15906,-5.59358 -1.652,-8.40528 -0.68272,-0.71658 0.007,-2.4062 0.8433,-1.14472 1.39012,0.62617 2.93312,0.86384 4.36898,1.38558 1.47559,0.0509 2.42049,1.17837 2.44495,2.61736 0.64942,3.11259 1.26899,6.24236 1.54943,9.41267 0.0353,0.74288 -0.80328,0.61602 -1.02977,1.27407 -0.23678,0.10812 -0.49048,-0.0779 -0.72283,-0.10812 z m 0.85882,-1.13879 c -0.13325,-1.32924 -0.12633,-3.09653 -1.96944,-2.89435 -1.17856,-0.10973 -2.50033,-0.69194 -3.60913,-0.30379 -0.009,1.46289 2.04462,1.01739 3.01644,1.37033 0.44118,0.13855 2.04657,0.13947 1.81009,0.56904 -1.55589,-0.0581 -3.07718,-0.46963 -4.61675,-0.61341 -0.31354,0.51878 -0.0613,1.09803 0.57737,1.09773 1.51769,0.57186 3.14456,0.72018 4.70474,1.10417 0.14569,-0.0184 0.10512,-0.25757 0.0867,-0.32972 z m -0.4869,-3.19388 c -0.33561,-1.10085 0.15606,-3.05846 -1.53948,-2.7069 -1.25657,-0.30011 -2.60305,-0.21693 -3.81822,-0.65256 0.59366,-0.74438 2.49698,0.30273 3.56606,0.21485 0.878,0.49682 1.832,-0.15953 0.86087,-0.82493 -1.62994,-0.26817 -3.26568,-0.578 -4.91402,-0.67824 0.0784,0.81435 -0.0249,2.74879 1.15447,2.84262 1.40356,0.28023 2.87554,0.20333 4.2506,0.59848 -0.2696,0.81651 -1.96167,-0.22362 -2.75388,-0.005 -0.52881,-0.14017 -2.85737,-0.2884 -1.6283,0.47569 1.504,0.29139 3.00133,0.64431 4.51891,0.85174 0.0496,-0.007 0.30501,0.0207 0.30299,-0.11688 z m -0.87055,-4.72821 c -0.82791,-0.79445 -2.35934,-0.58481 -3.49131,-0.83634 -0.58026,-0.1646 -2.65494,-0.17635 -1.12798,0.35967 1.49312,0.38155 3.03751,0.70388 4.5783,0.71416 l 0.0475,-0.05 -0.007,-0.18742 z m -0.1948,-1.07401 c -0.0705,-1.37396 -2.05746,-0.99693 -3.02437,-1.39155 -0.93489,-0.0802 -3.09232,-1.02558 -2.20188,0.70957 1.16842,0.53949 2.53707,0.52056 3.79358,0.77327 0.38855,-0.0867 1.4308,0.52127 1.43267,-0.0913 z m -0.3854,-1.56908 c -1.0822,-0.58216 -2.34412,-0.81462 -3.51201,-1.21148 -0.62457,-0.18304 -2.61549,-0.93127 -1.53205,0.39266 1.43357,0.58054 3.02547,0.67315 4.54139,0.94314 0.11895,-0.0138 0.55763,0.11481 0.50267,-0.12425 z m -6.5757,8.97791 c -0.95672,-0.0793 -2.29681,-0.23701 -3.37364,-0.59057 -0.94522,-0.32408 -3.2398,-0.20909 -2.79091,-1.62782 -0.0332,-1.85074 -0.46696,-3.67494 -0.47353,-5.5322 -0.0961,-1.80346 -0.38469,-3.58788 -0.72751,-5.35486 0.34331,-1.54923 2.48057,-0.0904 3.5464,-0.0599 0.73915,-0.11296 2.45298,1.22741 0.98863,1.29972 -1.12051,-0.24634 -2.48557,-0.94791 -3.5062,-0.74382 1.01639,0.80768 2.59187,0.89547 3.86597,1.20113 0.49686,0.0184 0.9101,-1.34747 1.29804,-0.19342 0.45894,2.56232 0.93517,5.12417 1.2559,7.71032 0.17221,1.26158 0.58624,2.47965 0.73329,3.74244 0.0184,0.45357 -0.62902,0.47137 -0.81644,0.14916 z m -0.35001,-1.12752 c -0.83328,-1.0328 -2.51391,-0.70593 -3.72813,-0.99017 -0.6142,-0.19964 -1.50349,0.0479 -0.40483,0.31663 1.38755,0.21992 2.74293,0.76229 4.14162,0.81289 l -0.009,-0.13947 z m -0.31071,-1.27757 c -0.68156,-1.23518 -2.58422,-0.72965 -3.78689,-1.08817 -1.33368,-0.12103 -0.11826,-0.80061 0.52233,-0.39313 0.89075,-0.038 2.82874,0.90739 3.06331,-0.10719 -0.98727,-0.81645 -2.50227,-0.53596 -3.72324,-0.75058 -0.53036,-0.0869 -1.02664,-0.1404 -0.76718,0.54423 -0.051,0.96631 0.24586,1.85484 1.33831,1.47836 1.04612,0.34912 2.37566,0.74618 3.38317,0.481 l -0.03,-0.16436 z m -0.44453,-2.89548 c -0.48349,-1.0289 -2.50579,-0.41502 -3.57319,-0.76107 -0.61065,-0.24598 -1.34166,0.17036 -0.56613,0.64894 1.34781,0.23394 2.7382,0.59456 4.10511,0.43517 l 0.0438,-0.11088 -0.009,-0.21232 z m -0.16552,-1.32926 c -1.26704,-0.51394 -2.73969,-0.66411 -4.10947,-0.91732 -0.94716,0.41919 0.79002,1.17422 1.39196,0.96375 0.68587,-0.16852 2.56688,0.71278 2.71751,-0.0463 z m -0.15861,-0.75325 c 0.0722,-1.57978 -2.32212,-0.73834 -3.33996,-1.2356 -0.5985,-0.15169 -1.22798,-0.2084 -0.89528,0.60406 1.41603,-0.0795 2.82311,0.65302 4.23524,0.63154 z m -0.2939,-1.72916 c -0.32968,-1.00636 -2.09302,-0.46353 -2.99926,-0.94872 -0.87728,-0.64318 -1.50349,0.26829 -0.88779,0.7829 1.29221,0.1782 2.58534,0.35029 3.87437,0.55032 0.13532,-0.0708 -0.11918,-0.37491 0.0115,-0.3845 z m -0.15054,-1.04502 c -0.70634,-1.19213 -2.66146,-0.88546 -3.8974,-1.40613 -0.83076,0.73776 1.34772,0.96813 1.99862,1.11571 0.58539,-0.0237 1.50161,0.63465 1.89878,0.29042 z M 112.8995,157.71621 c -1.11353,-0.68198 0.46104,-1.66498 0.84337,-0.53098 0.47314,0.60161 -0.47417,1.02726 -0.84337,0.53098 z m 14.93953,-0.82596 c -1.07973,-0.37646 -0.38665,-2.39332 0.39808,-1.18539 0.25969,0.71584 2.19049,-0.58119 1.52078,0.79219 -0.50781,0.42884 -1.28408,0.60761 -1.91886,0.3932 z m -7.5466,-0.20172 c -1.19982,-1.00287 0.54184,-1.87529 1.12904,-0.63771 0.72188,0.90681 -0.63283,1.00368 -1.12904,0.63771 z m 15.02837,-1.38516 c -1.74767,-1.16173 1.13995,-2.5835 1.43657,-0.64779 0.002,0.7211 -0.9087,0.9034 -1.43657,0.64779 z m 13.04169,38.64019 c 0.914,-0.69032 2.2363,0.55676 2.80675,-0.0549 -0.45788,-1.7793 -1.00396,-3.54062 -1.24083,-5.36955 -1.00227,-3.86955 -2.57603,-7.6267 -2.85866,-11.6544 -0.43884,-3.94195 -1.24712,-7.8382 -1.52687,-11.7975 -0.42201,-2.02859 -0.66088,-4.08584 -0.7344,-6.1571 -0.15929,-2.53654 -0.32004,-5.07336 -0.54753,-7.60488 -0.93911,0.0629 -1.92335,-0.0337 -2.81749,0.26956 -0.65735,1.59573 1.65917,1.72812 1.89641,3.20572 0.54974,0.48165 0.54974,2.11087 -0.39421,1.2941 -0.40663,-0.4309 -1.01103,-2.60314 -1.49556,-1.70801 0.0332,5.18141 0.97305,10.2976 1.27091,15.46308 0.1646,2.10446 0.69784,4.16468 0.70614,6.285 10e-4,1.71691 0.28888,3.40714 0.81259,5.03977 -0.0544,1.26466 1.44061,0.39029 1.87474,1.52127 0.52374,0.74788 2.25933,2.07762 1.17884,2.80386 -0.95619,-0.65558 -1.38662,-1.92857 -2.36927,-2.62073 -0.49693,-0.67469 -0.32196,0.21785 -0.36666,0.59783 -0.0938,1.46933 0.38342,2.88575 0.50184,4.3403 0.33335,2.07191 1.3731,3.92855 1.90415,5.94112 0.19987,0.72052 0.92482,0.27474 1.39911,0.2054 z m -1.12916,-1.98944 c -0.37041,-0.55265 -2.02552,-1.91543 -0.54541,-2.01855 0.65669,0.65512 2.41549,2.08134 1.40886,2.8369 -0.40753,-0.0802 -0.61028,-0.53697 -0.86345,-0.81835 z m 0.10443,-2.40215 c -0.23961,-0.85185 -2.27131,-1.85599 -1.0596,-2.50085 0.86501,0.31119 2.23162,1.86192 1.59335,2.71059 -0.20148,0.0576 -0.40769,-0.0639 -0.53375,-0.20978 z m -0.54891,-8.77859 c -0.93127,-0.96588 -1.37797,-2.38266 -2.56301,-3.09615 -0.35536,-1.47288 1.64453,-0.38245 1.8062,0.42657 0.29142,0.68396 2.21788,2.40297 0.75681,2.66958 z m -1.26614,-5.70036 c -0.5639,-1.07609 -1.53148,-1.97693 -2.06647,-2.95961 0.95665,-1.36736 1.84606,1.0396 2.39657,1.75111 0.52869,0.4153 0.68204,1.96284 -0.3301,1.2085 z m -1.4838,-6.53697 c -0.27311,-0.64064 -1.94731,-2.33351 -0.29527,-2.05512 0.55466,0.69636 2.18326,2.38598 1.03658,2.9763 -0.40253,-0.10074 -0.52552,-0.62299 -0.74131,-0.92118 z m 0.0906,-2.61884 c -0.1367,-0.89888 -2.10346,-2.20891 -0.67748,-2.70351 0.65962,0.47441 2.03498,2.33875 0.89476,2.8374 l -0.11504,-0.0433 -0.10235,-0.0906 z m -0.15353,-5.05697 c -0.29614,-0.95492 -1.94712,-1.94885 -1.25673,-2.85013 1.02519,0.20978 2.12207,1.92553 1.85952,2.93993 -0.18189,0.15814 -0.46283,0.0894 -0.60279,-0.0897 z m 35.58019,28.19932 c -0.93219,-0.68702 -2.47382,-0.72442 -3.08175,-1.60017 0.12426,-1.40801 1.36356,-2.44447 1.91057,-3.72465 0.73903,-1.30053 1.44625,-2.62626 2.48527,-3.72246 0.68645,-1.14518 1.83605,-1.897 2.44412,-3.09543 0.24478,-0.66107 1.29521,-1.41825 1.01832,-2.09688 -0.66665,-0.79959 1.06205,-0.75127 0.98581,-1.71265 0.55194,-0.82283 1.2859,-1.94899 1.82202,-2.42893 -1.04831,-1.20348 -2.44242,-2.04199 -3.59016,-3.12174 0.22638,-1.32121 1.82414,0.34743 2.41916,0.76063 1.14458,0.59179 1.68708,2.16737 2.93224,2.33252 1.35075,-0.44549 3.16449,1.25298 1.79173,2.26906 -0.72691,-0.34222 -0.31468,-1.64916 -1.54575,-1.27893 -0.69,0.11181 -1.36979,-0.26149 -1.76325,-0.51685 0.1503,1.11828 -1.86808,2.37135 0.13117,2.72772 0.89775,0.21947 2.65727,1.80687 2.96871,0.3487 -0.74641,-0.74267 -2.51215,-0.6116 -2.83593,-1.49618 1.14073,-0.0426 2.22853,1.02551 3.29577,0.77633 1.11895,-1.13278 0.67589,-2.76668 -0.35739,-3.74496 -0.64615,-1.17464 -2.18132,-1.09677 -2.95733,-2.01902 -0.63937,-1.19631 1.06468,-1.12865 1.46845,-0.2653 1.03734,0.99875 2.97665,1.41038 3.37547,2.86505 0.29932,1.35342 -0.1238,2.71022 -0.87099,3.84902 -0.74311,1.11956 -0.92735,2.69302 -2.22339,3.35483 -0.97486,1.22416 -2.01561,2.45311 -2.69012,3.87433 0.54882,0.5851 0.63801,0.61318 -0.20033,0.49379 -0.76266,0.7802 -1.74098,1.4398 -2.30401,2.41254 -1.00112,1.62461 -2.07905,3.20266 -3.03962,4.85 -0.4156,0.40564 -1.12527,0.0747 -1.58888,-0.0904 z m 1.07162,-0.86873 c 0.30121,-0.83816 -1.6793,-1.2473 -2.3438,-1.74621 -0.83046,-0.10489 -0.93109,0.98323 -0.0115,0.94406 0.75278,0.23069 1.54464,1.06134 2.35625,0.80215 z m 0.86884,-1.3343 c 0.76573,-1.22209 -1.6106,-1.89968 -2.45964,-2.23487 -1.57032,1.30611 0.55196,2.09217 1.60156,2.61268 0.45396,0.35751 0.64542,0.0463 0.85808,-0.37781 z m 1.07959,-1.64064 c 0.66411,-1.27872 -1.80982,-1.61255 -2.62324,-2.238 -1.30005,1.36485 1.05428,1.89968 1.89767,2.54127 0.30299,0.28226 0.56132,-0.0616 0.72557,-0.30327 z m 0.80886,-1.27284 c -0.0489,-1.05684 -2.05335,-1.5754 -3.02259,-1.77098 0.30751,0.83735 1.93214,1.65237 2.8943,1.91842 l 0.12818,-0.14754 z m 0.97023,-1.28014 c 0.9106,-0.84668 -1.14949,-1.14391 -1.72113,-1.60199 -0.38448,-0.0669 -0.89531,-0.74378 -1.16335,-0.24842 -1.2807,1.11104 1.29549,1.50976 1.98452,2.13187 0.34787,0.31841 0.63234,-0.0765 0.89996,-0.28146 z m 0.99949,-0.95861 c 0.041,-1.13323 -2.09916,-1.53735 -3.08709,-1.85108 -0.12172,0.99294 1.94949,1.33387 2.6948,1.99415 0.14753,0.19249 0.29643,-0.0795 0.39229,-0.14316 z m 0.32334,-1.45796 c -0.72313,-0.49354 -2.4619,-1.75209 -2.8195,-0.89966 0.98077,0.40614 2.165,1.66112 3.12553,1.31247 0.0293,-0.1948 -0.22362,-0.28616 -0.30603,-0.41281 z m 0.88286,-0.52411 c -0.71919,-0.68008 -2.05552,-1.49757 -3.00701,-1.41301 0.86214,0.42164 2.15594,1.8728 3.008,1.41301 z m 0.81547,-1.07109 c 0.88169,-1.06541 -1.5386,-1.3192 -2.20591,-1.79225 -1.29659,-0.515 -0.99038,1.51006 0.12448,1.52316 0.67085,0.25586 1.54176,1.27261 2.08146,0.26909 z m 1.07213,-1.42626 c 0.59394,-1.06874 -1.62441,-1.09474 -2.28559,-1.60492 -0.90063,-0.83544 -1.67664,0.9175 -0.4259,0.98512 0.81972,0.11895 2.09803,1.61661 2.71149,0.6198 z m 0.99628,-1.10606 c 1.33165,-1.0535 -1.4214,-1.38115 -2.08009,-1.84511 -0.7442,-0.55161 -1.88869,-0.53734 -1.5508,0.65666 1.05022,0.52766 2.32302,1.43475 3.46548,1.28822 z m -14.19849,10.69492 c -1.21899,-0.68612 -2.44742,-1.44445 -3.79804,-1.82877 -0.8274,0.0461 -1.93855,-2.07548 -0.4414,-1.54701 1.60751,0.88246 3.25301,1.70193 4.84959,2.60212 0.50227,0.42743 -0.0966,1.17441 -0.61015,0.77366 z m -22.0717,-9.92553 c -0.26218,-0.82437 -0.75992,-1.57318 -0.91253,-2.45714 0.9976,-1.09085 3.14796,0.42611 2.2515,1.71403 -0.29647,0.3422 -0.80619,1.12891 -1.33897,0.74311 z m 0.54302,-1.53938 c -0.46434,-0.49398 0.0207,0.94549 -2.3e-4,2.3e-4 z m 8.63283,-6.10503 c -1.33851,-0.55366 -0.29718,-2.98135 0.95434,-2.25008 0.94405,0.57309 0.50212,3.06106 -0.76678,2.371 z m 0.45723,-1.19066 c -0.19157,-0.0747 0.0724,0.45354 0,0 z m 18.88317,0.98379 c -0.61609,-0.61312 0.041,-2.84315 0.78788,-1.58573 -0.0645,0.51072 0.17751,2.06212 -0.78788,1.58573 z m 4.47774,-1.82432 c -0.92066,0.49882 -2.10985,-1.23057 -0.76923,-1.23972 0.81504,-0.11204 2.57068,1.34599 0.76923,1.23972 z m -22.60055,-10.85447 c -1.10996,-0.78616 0.30561,-3.5248 1.26364,-2.07004 0.22293,0.76003 -0.84138,0.93219 -0.0839,1.56633 -0.0602,0.52547 -0.7568,0.77527 -1.17973,0.50371 z m -11.01075,-0.51816 c -1.55649,-0.55826 0.39335,-2.68817 0.9389,-0.95537 0.66918,0.0341 1.39321,0.7676 0.33879,1.09553 -0.42348,0.11987 -0.88332,0.0367 -1.27769,-0.14016 z m 16.35251,-0.0901 c -1.34083,-0.71886 0.69579,-2.51093 1.0254,-0.83588 0.66026,0.89452 -0.30794,1.28188 -1.0254,0.83588 z m 7.81097,-0.40666 c -1.05347,-0.70182 0.40663,-2.06208 0.75607,-0.75399 0.63398,0.66727 -0.18419,1.6082 -0.75607,0.75399 z m 6.29116,-0.22476 c -0.84367,-1.10166 1.4119,-2.90184 1.41427,-1.02614 -0.22453,0.37671 -0.90178,1.52406 -1.41427,1.02614 z m -71.0796,-2.96259 c -0.29478,-1.27681 1.9702,-1.82881 1.9411,-0.37509 -0.4901,0.22638 -1.52728,0.9807 -1.9411,0.37509 z m 6.58169,-0.27283 c -1.15283,-1.37933 2.0551,-1.24156 1.20994,0.007 -0.33123,0.3045 -0.87325,0.25328 -1.20994,-0.007 z m 64.7069,-0.9525 c -1.21717,-0.17497 -0.96845,-2.73819 0.11273,-1.51829 -0.0207,0.79881 2.06251,0.71971 0.97344,1.65854 -0.35891,0.16714 -0.75706,0.0161 -1.08607,-0.14016 z m -15.69139,-0.20379 c -0.76225,-1.14785 1.26397,-2.28891 1.34832,-0.69364 -0.22154,0.37627 -0.89614,1.28154 -1.34832,0.69364 z m 8.82214,-0.23117 c -1.07355,-1.36269 1.4691,-1.42127 1.11535,0.009 -0.30232,0.40285 -0.82479,0.38943 -1.11535,-0.009 z m -48.65438,-0.35147 c -1.08633,-0.39188 -0.79897,-2.42524 0.4052,-1.61242 -0.27606,0.90398 1.56207,0.96975 0.63953,1.82003 -0.36278,0.0701 -0.74705,0.0272 -1.04473,-0.2077 z m 36.04906,-0.0795 c -1.37677,-0.56535 0.3996,-2.88036 0.63721,-1.03898 0.0721,0.42648 0.11757,1.46606 -0.63721,1.03898 z m -12.24323,-0.14708 c -1.62136,-0.57918 0.062,-3.18929 0.94522,-1.36298 1.13437,0.90402 0.2723,1.9521 -0.94522,1.36298 z m -8.7598,-0.75973 c -0.35147,-0.63456 -2.08275,-2.26448 -0.34596,-2.12611 0.52635,0.2803 1.62685,2.27726 0.34596,2.12611 z m -8.29419,-0.1185 c -1.20396,-1.06062 1.31824,-1.99415 1.1045,-0.46585 -0.17636,0.37984 -0.70432,0.67109 -1.1045,0.46585 z m 8.93271,-3.28837 c -0.24844,-0.94122 -1.40386,-1.44751 -1.40711,-2.34513 1.06454,-1.05702 2.16092,1.31243 1.95346,2.1946 -0.10166,0.20494 -0.35416,0.26225 -0.54635,0.15053 z m -15.42682,-6.63019 c -1.59089,-0.4656 0.50825,-3.27811 0.65918,-1.46087 -0.7705,0.57492 1.04453,1.40679 -0.25612,1.65495 -0.16137,0.033 -0.25545,-0.22015 -0.40306,-0.1941 z m -5.36938,-1.36976 c -1.19811,-1.25136 1.00199,-2.47882 1.02016,-0.64251 0.80356,0.62022 -0.56899,1.30982 -1.02016,0.64251 z m 8.7545,-0.4875 c -1.21602,-0.3985 -0.10627,-2.81346 0.41074,-1.19152 0.12125,0.55906 1.6999,0.0742 0.9383,1.08464 -0.36908,0.30693 -0.93439,0.33429 -1.34904,0.10697 z m 23.08414,-0.26456 c -1.44309,-0.0443 -2.31585,-1.25984 -2.5021,-2.5838 -0.89595,-3.09525 -2.06285,-6.10855 -3.28023,-9.08993 -0.49142,-1.45775 -1.15518,-3.23089 -0.25732,-4.65342 0.98831,-0.90107 2.46427,-0.14662 3.67836,-0.39204 2.48451,-0.0468 4.95314,-0.3739 7.43972,-0.37636 2.68966,-0.1563 5.4237,-0.51634 8.09817,-0.041 1.5919,0.14639 2.25875,1.72268 2.73244,3.0258 1.03688,2.53285 1.9371,5.12991 2.43405,7.8268 0.27788,1.41691 0.81794,2.76853 1.10288,4.17743 0.2356,1.55456 -1.88221,1.57922 -2.93928,1.72768 -5.08883,0.3846 -10.19859,0.35108 -15.29618,0.53691 -0.40785,-0.009 -0.81314,-0.0694 -1.21051,-0.15791 z m 7.67189,-0.97025 c 3.46864,-0.15423 6.98717,0.038 10.40722,-0.64982 0.58568,-0.89895 -0.29162,-2.24169 -0.39746,-3.28344 -0.44298,-1.8588 -0.77621,-3.74447 -1.43417,-5.54398 -0.60917,-1.82485 -1.25885,-3.66621 -2.21211,-5.34018 -1.43369,-0.77255 -3.14339,-0.52528 -4.713,-0.60645 -2.52723,0.0973 -5.04892,0.32774 -7.57843,0.40751 -2.25431,0.22684 -4.52247,0.23066 -6.78085,0.35626 -1.13651,0.7509 -0.0374,2.63546 0.19895,3.74025 1.33257,3.26375 2.56605,6.5745 3.5467,9.9616 0.59903,1.3516 2.45256,1.05717 3.67999,1.10062 1.7606,-0.0606 3.52203,-0.10166 5.28307,-0.14247 z m -8.66022,-1.04705 c -0.47466,-1.57477 -1.03867,-3.16194 -1.43069,-4.77717 -0.56973,-2.01356 -1.27476,-3.98441 -1.82217,-6.00249 -0.0556,-0.82518 -1.68647,-1.26547 -0.37662,-1.92342 1.83281,-0.61665 3.82163,-0.41627 5.72832,-0.55383 1.28041,0.21624 3.44621,-0.91704 3.87606,0.89402 0.92585,3.07757 1.93315,6.13068 2.73244,9.24539 0.13993,0.90926 1.30021,2.79787 -0.2749,2.89811 -2.5608,0.14546 -5.13561,0.0551 -7.6896,0.30234 -0.23502,0.11296 -0.57252,0.17797 -0.74284,-0.083 z m 7.88836,-1.14656 c 0.77546,-0.40545 -0.44706,-1.98919 -0.43853,-2.83254 -0.045,-0.63555 -0.35675,-0.93044 -0.98914,-0.80529 -2.19264,0.0452 -4.36725,0.42545 -6.54185,0.66132 -0.27927,0.68537 0.145,1.42161 0.90148,1.10152 2.00911,-0.0878 4.01525,-0.46611 6.02637,-0.3537 1.00248,0.71704 -1.31466,0.47291 -1.8198,0.5798 -1.56878,0.0717 -3.12686,0.32738 -4.69866,0.32872 0.15008,0.489 0.10236,1.51969 0.74282,1.48157 2.27244,-0.0473 4.54738,-0.0489 6.81731,-0.16138 z m -4.80209,-3.92663 c 1.29723,-0.21901 2.63041,-0.19227 3.92154,-0.371 -0.21186,-1.48034 -0.80524,-2.89971 -1.31036,-4.30396 -2.37364,0.16045 -4.7612,0.41147 -7.09547,0.88986 -0.71985,0.511 0.44903,1.29763 1.05447,0.68 1.7993,-0.3893 3.66002,-0.28828 5.46307,-0.6562 1.39876,0.32654 -0.95313,0.83889 -1.42841,0.78991 -1.59656,0.19318 -3.29897,0.0959 -4.79133,0.74504 -0.0701,1.57556 1.88329,0.5997 2.81898,0.69395 1.47185,-0.10513 2.95328,-0.44834 4.42873,-0.24918 0.0885,0.83313 -1.90555,0.33475 -2.60717,0.6373 -1.35865,0.19226 -2.74875,0.20056 -4.09384,0.44169 -0.41359,1.56652 1.68566,0.86972 2.60104,0.83251 0.34649,-0.041 0.69298,-0.0851 1.03875,-0.13002 z m -4.04128,-4.46576 c 2.13443,-0.37249 4.29493,-0.56662 6.44314,-0.84357 0.068,-1.43673 -1.68113,-0.26864 -2.55438,-0.50989 -1.66682,0.0468 -3.32744,0.25119 -4.98062,0.40121 -0.0438,0.72714 0.18904,1.41744 1.09186,0.95225 z m 3.33394,-1.88034 c 0.74035,-0.32117 3.28069,0.48167 2.54302,-0.90164 -1.13047,-0.22523 -2.35479,0.1586 -3.52747,0.0657 -1.29021,0.0346 -2.60625,-0.0231 -3.87288,0.23774 -0.2243,0.79434 0.26829,0.96756 0.90903,0.81075 1.31676,-0.0576 2.63269,-0.13324 3.9483,-0.21255 z m 8.25087,10.88456 c -1.30858,-0.12149 -1.15306,-1.90353 -1.59561,-2.85237 -0.47586,-1.28901 -0.72133,-2.56575 -1.03314,-3.90036 -0.5779,-1.97866 -1.35195,-3.89519 -1.96333,-5.86059 0.50357,-1.06318 2.50403,-0.35792 3.59409,-0.5944 1.6097,0.0115 3.22601,-0.0383 4.83052,0.0973 0.98801,0.92648 0.35991,2.67157 1.27213,3.73581 1.32763,2.25486 1.98819,4.80355 2.60047,7.32217 0.61764,1.00341 0.55039,2.24516 -0.96656,1.90012 -2.24684,0.001 -4.49455,0.21808 -6.73857,0.15238 z m 3.5665,-0.99541 c 0.95995,-0.21969 2.96747,0.33678 3.26223,-0.68647 -0.52598,-1.49289 -2.52066,-0.6642 -3.71755,-0.88166 -1.05963,0.20702 -2.85456,-0.3212 -3.46267,0.60521 0.18535,1.84896 2.40606,0.71494 3.58983,0.95933 l 0.18443,4.6e-4 0.14362,0.002 z m -1.59695,-2.05704 c 1.38327,-0.0761 2.77198,-0.0521 4.15332,-0.13647 0.34918,-0.26412 0.11526,-1.72342 -0.43503,-1.69497 -2.21118,0.0622 -4.43281,0.10697 -6.62607,0.39808 -0.17013,1.21812 0.56763,1.92029 1.73277,1.4957 0.39144,-0.0247 0.78339,-0.0452 1.17501,-0.0622 z m 1.54372,-2.29497 c 0.73945,-0.25217 3.10247,0.36602 1.86819,-0.94734 -1.25592,-0.57703 -2.69971,-0.0904 -4.01827,-0.026 -0.72944,0.29561 -3.21949,-0.17727 -2.47338,1.1254 1.52067,0.14293 3.09708,-0.0595 4.62346,-0.15191 z m -2.34218,-1.47506 c 1.32972,-0.13809 2.66006,-0.2712 3.99257,-0.37962 -0.34405,-1.22856 -1.8731,-0.67999 -2.81226,-0.70844 -1.35298,0.15791 -2.74987,0.21924 -4.05582,0.59371 -0.18489,1.50635 2.05872,0.31841 2.87551,0.49435 z m -1.16802,-1.39109 c 1.43221,-0.25849 2.91972,-0.18373 4.33697,-0.43538 -0.31797,-1.45858 -2.23245,-0.5991 -3.30141,-0.7062 -0.97892,0.26206 -2.8488,-0.1835 -3.24139,0.72575 0.11757,1.15947 1.50621,0.35343 2.20583,0.41583 z m -0.42893,-1.58611 c 1.31787,-0.16322 2.65368,-0.13578 3.96809,-0.3179 0.39538,-1.393 -0.48213,-2.54791 -1.97182,-2.14499 -1.57866,0.033 -3.18474,-0.1729 -4.74559,0.0966 -0.42438,1.0875 1.85657,0.55848 2.55199,0.7246 1.18056,0.10097 2.63507,-0.15169 3.63103,0.27452 -1.22126,0.61099 -2.79469,0.12748 -4.15118,0.27101 -1.01905,-0.10996 -2.20278,-0.0837 -1.50086,1.15398 0.40071,0.40385 1.4267,-0.11872 2.03399,-0.0364 l 0.18442,-0.0208 z m -38.11011,9.73845 c -1.14818,-0.21071 -2.04169,-2.41462 -0.8978,-2.95901 0.13832,-0.45571 -1.13056,-1.31534 -0.40253,-1.85012 1.14308,0.26417 1.55933,2.30807 3.15462,1.59891 0.4179,-0.66151 2.05291,-0.70132 1.26627,0.28035 -0.88747,1.11652 -2.43381,0.67845 -3.54139,0.4733 -0.30301,1.69225 1.70776,2.02592 2.84761,1.36492 0.97881,-0.25831 2.18155,-0.76976 1.79712,-1.97832 0.92678,-0.73407 1.24569,-1.52022 0.21163,-2.32818 -0.42593,-0.52264 -2.12473,-1.64354 -0.52824,-1.68921 1.19119,0.5343 1.95116,1.79675 2.40858,2.96583 -0.27671,1.55536 -1.22829,3.10842 -2.78725,3.66715 -1.10963,0.36597 -2.36196,0.71036 -3.52855,0.45438 z m -3.5169,-0.42153 c -1.33329,-0.26699 -0.24048,-3.18914 0.37266,-1.27529 0.36041,0.59309 0.96375,1.66687 -0.37266,1.27529 z m 12.95657,-2.10953 c -0.53748,-0.7192 1.20899,-0.96926 -0.0922,-1.34724 -0.78954,-1.84988 3.28387,0.30075 1.2252,1.24429 -0.32722,0.18696 -0.79927,0.37708 -1.13308,0.10304 z m 46.78686,-2.49832 c 0.0729,-1.15532 1.74956,-1.65375 2.54482,-2.41991 2.6033,-1.62309 5.08272,-3.44301 7.3249,-5.54162 2.6376,-2.33586 5.62956,-4.21933 8.36915,-6.42601 3.8972,-2.69473 7.64992,-5.5897 11.47058,-8.38988 3.55104,-2.8185 7.28449,-5.40859 10.66781,-8.434774 2.81191,-2.26117 5.28353,-4.913368 8.17601,-7.07647 3.39774,-2.830128 6.85623,-5.58875 10.22563,-8.45334 2.73409,-2.16813 5.64222,-4.106781 8.35009,-6.307203 1.92778,-1.760475 4.02431,-3.318826 6.0023,-5.020546 3.13516,-2.262153 6.36306,-4.400759 9.62157,-6.482556 3.19047,-2.347159 6.44592,-4.608627 9.84634,-6.642711 2.18499,-1.422507 3.96452,-3.384356 6.24323,-4.673312 1.6683,-1.226439 3.04336,-2.804915 4.7234,-4.02253 1.36962,-1.242177 2.58801,-2.66265 4.17272,-3.653405 1.75911,-1.198367 3.62665,-2.228524 5.40731,-3.392122 1.6368,-0.02506 -0.65028,1.570417 -1.28355,1.843638 -2.30161,1.393854 -4.67512,2.745337 -6.53196,4.731712 -1.57487,1.535421 -3.38208,2.805098 -4.92785,4.372969 -1.40049,1.195037 -3.10058,1.98905 -4.42401,3.289627 -2.56881,2.400315 -5.82313,3.83654 -8.62388,5.921892 -2.23557,1.590217 -4.427,3.244263 -6.78435,4.654305 -3.18039,2.162175 -6.45043,4.219902 -9.33892,6.773772 -2.35973,1.855146 -4.52558,3.949592 -7.0112,5.645694 -2.7981,2.064926 -5.59502,4.136281 -8.20397,6.439283 -3.43155,2.855043 -6.98316,5.567663 -10.34698,8.502413 -2.66142,2.513209 -5.46563,4.869 -8.28898,7.195404 -3.2868,2.49041 -6.52447,5.0465 -9.84862,7.48657 -2.98289,2.19236 -5.91454,4.4553 -8.97494,6.54047 -3.03427,2.44249 -6.36232,4.51527 -9.20853,7.1926 -2.52471,2.38462 -5.59602,4.05013 -8.37152,6.10629 -0.27284,0.13578 -0.66734,0.47268 -0.9766,0.23975 z m -46.75493,-1.81092 c -1.35906,-0.39926 -0.21278,-2.32185 0.56512,-0.94665 1.61574,-0.0337 0.40389,1.35913 -0.56512,0.94665 z m -3.09553,-1.19438 c -1.27893,-0.20079 -0.42212,-3.06353 0.21485,-1.30593 0.0367,0.82671 1.78036,-0.14315 1.0731,1.11515 -0.29808,0.48243 -0.84623,0.43786 -1.28797,0.19087 z m 5.49892,-8.50173 c -1.68898,-0.95072 1.43297,-1.37287 0.83885,0.0327 -0.21877,0.28025 -0.59057,0.0876 -0.83885,-0.0327 z m 3.64949,-0.10005 c -1.47845,-0.63506 0.58635,-1.68504 0.89181,-0.41075 0.0913,0.58616 -0.52739,0.49688 -0.89181,0.41075 z m 3.74171,-0.37417 c -1.35925,0.0719 -1.0828,-1.63075 0.15975,-1.01336 1.1275,0.16898 1.01616,1.45805 -0.15975,1.01336 z m 3.47148,-0.3345 c -0.74598,-0.023 -2.01555,-1.24479 -0.55616,-1.18131 0.67686,0.21421 3.17435,0.74725 2.04478,1.62204 -0.52162,-0.023 -1.0058,-0.26585 -1.48862,-0.44073 z m 11.97592,0.0413 c -1.11996,-0.0293 -1.0425,-1.65259 0.1042,-0.99704 0.90559,-0.0497 1.9531,1.5273 0.45627,1.20716 -0.19019,-0.0611 -0.37614,-0.13416 -0.56051,-0.21001 z m -9.27296,-0.35956 c -1.37747,-0.12587 -0.49945,-1.63391 0.4217,-0.86997 1.37954,0.40637 0.74125,1.59047 -0.4217,0.86997 z m 4.41861,-0.0184 c -0.73256,-5.3e-4 -1.93549,-0.94224 -0.75842,-1.30235 0.80424,-0.0739 2.80153,1.49113 1.11813,1.47596 l -0.16575,-0.0742 -0.1941,-0.0994 z m 0,-2.07751 c -0.94342,-0.23064 -1.3371,-2.15323 -0.0115,-1.40578 0.66416,0.26446 1.76689,2.16858 0.37765,1.683 l -0.1752,-0.11985 -0.1918,-0.15739 z m -17.61785,-0.23806 c -0.5032,-0.93474 -1.1902,-1.75337 -1.95869,-2.30868 0.35093,-1.66115 1.87861,0.16695 2.22009,0.9396 0.44741,0.46026 1.05567,2.20382 -0.2614,1.36908 z m 17.70328,-1.70341 c -0.79865,-0.20916 -1.62597,-1.7807 -0.26864,-1.63567 0.75088,0.1775 1.85376,2.44853 0.26864,1.63567 z m -18.21378,-2.52001 c -0.36207,-0.7161 -2.50287,-1.74421 -0.94061,-2.32465 1.03017,0.66147 1.87114,1.77705 2.33128,2.89803 -0.31152,0.99548 -1.10892,-0.19793 -1.39067,-0.57338 z m 19.23551,-0.19643 c -0.72333,-0.9671 -1.42357,-2.06378 -2.56764,-2.57834 -0.62669,-1.31307 1.52908,-0.63274 1.84087,0.13659 0.40585,0.51481 2.43442,2.50471 0.72677,2.44175 z m -20.88431,-3.64784 c -0.51597,-0.25442 -1.87305,-0.65765 -0.72349,-1.21454 1.0907,-0.58449 2.53585,1.87895 0.87172,1.33953 l -0.14754,-0.125 z m 2.331,0.10238 c -1.25214,0.0292 -1.35367,-1.74071 0.0357,-1.05589 1.00403,-0.15469 2.03796,1.53626 0.49878,1.19582 -0.17981,-0.04 -0.35753,-0.089 -0.53453,-0.13993 z m 3.87214,-0.56647 c -0.74224,0.0442 -1.8713,-1.12209 -0.67103,-1.30701 0.70363,0.0432 2.74633,1.20092 1.34475,1.53999 -0.23502,-0.0427 -0.45679,-0.1365 -0.67372,-0.23298 z m 17.51314,-0.0651 c -0.81735,0.0788 -1.88774,-1.15103 -0.62562,-1.3215 0.93605,-0.0938 2.40846,1.73644 0.77949,1.40102 l -0.15376,-0.0795 z m 2.76801,-0.002 c -0.57093,-0.14268 -2.18558,-0.0205 -1.24421,-0.97169 0.7104,-0.59617 3.32981,0.47234 1.96925,1.16209 -0.25224,-0.0106 -0.49255,-0.10037 -0.72504,-0.19039 z m -17.41223,-0.21721 c -0.58089,-0.25385 -1.60725,-1.20016 -0.34337,-1.27108 0.97855,-0.24465 1.78978,2.09596 0.34337,1.27108 z m 7.24608,0.11462 c -0.63449,-0.27192 -1.42661,-1.29713 -0.19088,-1.35965 0.73594,0.14316 1.64868,1.81489 0.19088,1.35965 z m -2.50291,-0.16132 c -0.81398,0.11524 -2.63949,-1.26178 -1.24258,-1.60203 0.71377,0.17444 3.02289,1.05813 1.68744,1.75795 l -0.20448,-0.0474 -0.24049,-0.10856 z m 5.3825,-0.44223 c -1.5646,-0.51383 0.002,-1.6626 0.84618,-0.69215 0.79865,0.66802 -0.22914,1.12559 -0.84618,0.69215 z m -18.24555,-0.62289 c -0.7628,-0.0871 -1.66615,-0.9937 -0.5997,-1.49298 0.89282,-0.29852 2.30564,2.23648 0.5997,1.49298 z m 18.83257,-1.37446 c -0.74682,-0.13661 -1.73042,-1.4613 -0.39164,-1.3043 0.8921,-0.0389 1.98672,1.848 0.39164,1.3043 z m -19.21654,-1.0814 c -0.38946,-1.32198 1.93809,-0.72516 2.76915,-1.05805 1.49964,-0.13133 2.98377,-0.5027 4.48403,-0.5423 0.68762,1.41463 -1.95851,0.94174 -2.77572,1.28272 -1.43809,0.15171 -2.89775,0.47753 -4.32946,0.43579 l -0.148,-0.11815 z m 21.42984,-0.0267 c -1.20581,-1.18025 1.26558,-1.13171 1.9953,-0.92093 0.71001,0.13413 2.93651,-0.30926 2.34144,0.97515 -1.3189,0.23265 -2.69039,-0.24172 -4.00455,0.062 l -0.15031,-0.0369 z m -8.07636,-0.20333 c -1.40017,0.32487 -1.36796,-1.33839 0.0207,-0.94814 1.24046,0.0853 2.66144,-0.14395 3.78064,0.24501 -0.25261,1.36263 -2.45795,0.51554 -3.50308,0.71421 l -0.2975,-0.0111 z m 5.56561,-1.802352 c -0.20033,-0.796925 -2.18266,-0.9525 -0.97168,-1.807638 0.9999,-0.157752 2.59424,1.669752 1.71719,2.42941 -0.35047,-0.0145 -0.55712,-0.37611 -0.74551,-0.621772 z m -18.76618,-0.914386 c -0.98026,-0.164783 -1.58342,-2.396285 -0.17382,-1.626146 0.55846,0.388012 1.76731,1.890199 0.50786,1.870512 l -0.15538,-0.110009 z m 1.28527,-1.916332 c -0.38985,-1.093787 -3.02234,-1.860328 -1.98753,-3.064934 1.21503,0.18311 1.87022,1.559969 2.66946,2.398367 0.80361,0.809357 0.0853,1.855494 -0.68193,0.666567 z m 18.13767,0.370992 c -0.59394,-1.055773 -2.07636,-1.655958 -2.18651,-2.881278 1.12478,-0.776669 1.99685,1.450539 2.71852,2.151536 0.40396,0.380385 -0.0392,1.044154 -0.53201,0.729742 z m 0.30139,-2.756089 c -0.4848,-0.976146 -1.90258,-1.722728 -1.84177,-2.822634 1.15818,-0.594536 1.99991,1.558819 2.45102,2.430178 -0.0337,0.250899 -0.34179,0.594296 -0.60925,0.392456 z m -19.03316,-2.272652 c -0.42705,-0.617105 -2.50754,-1.156226 -1.20186,-1.934693 1.09216,0.335356 2.31509,1.3035 2.59669,2.413614 -0.37943,0.69548 -1.06344,-0.197241 -1.39483,-0.478921 z m 18.62072,-1.623556 c -0.43579,-1.038025 -1.6931,-1.358429 -2.17219,-2.107434 0.6779,-1.560817 2.15075,0.590343 2.7375,1.287458 0.70579,0.335116 0.79373,2.071996 -0.19181,1.251193 -0.13762,-0.131978 -0.25865,-0.27948 -0.37341,-0.431217 z m -21.47871,-1.597813 c -0.4052,-1.329785 1.8527,-1.175669 2.76412,-1.396319 2.8526,-0.241449 5.71324,-0.448043 8.53341,-0.964363 4.80364,-0.46517 9.6464,-0.44779 14.46445,-0.247665 0.84249,-0.03287 3.36271,0.213401 2.24586,1.415879 -1.18914,-0.527311 -2.58419,-0.46816 -3.88246,-0.538093 -4.15157,-0.05321 -8.31809,-0.08758 -12.45612,0.291256 -2.86445,0.480548 -5.7529,0.785892 -8.65017,0.9837 -1.02708,-0.03834 -2.0475,0.5706 -3.01909,0.455605 z m 2.61147,-3.631145 c -0.7051,-0.309493 -1.45603,-1.94935 -0.14063,-1.503118 0.73242,0.407456 2.149,1.736352 1.39259,2.481279 -0.53154,-0.101249 -0.85979,-0.646286 -1.25192,-0.978161 z m 17.54001,-0.42358 c -1.41043,-0.90473 0.84123,-1.804241 0.71882,-0.24329 -0.0996,0.285276 -0.46736,0.383058 -0.71882,0.24329 z m 1.07137,-0.906664 c -0.53043,-0.45715 -2.69298,-1.148686 -1.40686,-1.823742 0.61635,0.02547 3.1258,1.547314 1.40686,1.823742 z m -23.42176,-2.14404 c -1.36215,-1.637883 2.53684,-1.058228 1.86264,0.179422 -0.53681,-0.0055 -1.45266,0.288777 -1.86264,-0.179422 z m 34.17449,-0.159618 c -0.613,-1.57e-4 -1.87397,-0.241439 -0.91788,-0.994141 0.77871,-0.654089 2.6513,0.947541 1.14209,1.104986 l -0.2243,-0.110746 z m -3.33576,-0.118908 c -0.98586,0.245651 -1.45854,-1.183454 -0.29734,-1.150241 1.05573,-0.07707 2.05672,1.809439 0.29734,1.150241 z M 137.64085,81.68037 c -0.97544,0.182533 -1.79262,-1.011055 -0.40006,-1.1106 1.02086,-0.127506 2.13708,1.567046 0.40006,1.1106 z m 3.30896,-0.312315 c -1.17928,-0.200722 -0.44246,-1.634714 0.44877,-0.893429 1.43329,0.325902 0.69558,1.66018 -0.44877,0.893429 z m 17.38477,-0.02762 c -0.96343,0.242681 -2.05602,-1.293535 -0.64027,-1.367881 0.70803,0.04131 2.29319,1.366258 0.64027,1.367881 z m -5.8732,-0.165659 c -1.03623,0.261663 -1.68391,-1.474726 -0.33194,-1.150588 0.93653,-0.158927 2.31982,1.545838 0.33194,1.150588 z m -5.64254,-0.08278 c -1.04063,0.272809 -1.34041,-1.319891 -0.15399,-1.027443 0.99752,-0.04807 1.64114,1.462798 0.15399,1.027443 z"
       style="fill:#000001;fill-opacity:1;stroke-width:0.10646282" />
  </g>
</svg>
